<svg xmlns="http://www.w3.org/2000/svg" width="708" height="400" viewBox="-11.5 0.5 708 400" enable-background="new -11.5 0.5 708 400"><path fill="#2B2E31" stroke="#231F20" stroke-width="4" stroke-linecap="round" stroke-linejoin="round" stroke-miterlimit="10" d="M254.5 342.5h202l43-43h-245v43M518.5 314.5l20 28h110v-26"/><path fill="#2B2E31" stroke="#231F20" stroke-width="4" stroke-linecap="round" stroke-linejoin="round" stroke-miterlimit="10" d="M26.5 298.5h132v52h-132zM282.5 366.5l46 4 44-4v-52h-90zM648.5 342.5h16v-50h-16z"/><circle fill="#5E6363" stroke="#231F20" stroke-width="4" stroke-miterlimit="10" cx="500.5" cy="354.5" r="44"/><circle fill="#C1D0D3" stroke="#231F20" stroke-width="4" stroke-miterlimit="10" cx="500.5" cy="354.5" r="24"/><circle fill="#929D9E" cx="500.5" cy="354.5" r="8"/><g fill="#111"><path d="M479.18 357.572c1.914-1.105 4.36-.45 5.465 1.463l4 6.928c1.104 1.914.45 4.36-1.464 5.465-1.912 1.104-4.36.45-5.464-1.465l-4-6.928c-1.104-1.912-.448-4.36 1.465-5.463zM513.822 337.572c1.913-1.105 4.36-.45 5.464 1.463l4 6.928c1.104 1.914.45 4.36-1.464 5.467-1.913 1.103-4.36.447-5.464-1.467l-4-6.928c-1.106-1.912-.45-4.36 1.464-5.463z"/></g><g fill="#111"><path d="M487.18 337.572c1.914 1.104 2.568 3.55 1.465 5.464l-4 6.928c-1.105 1.913-3.55 2.57-5.465 1.465-1.912-1.105-2.568-3.553-1.464-5.466l4-6.928c1.105-1.913 3.552-2.568 5.464-1.464zM521.82 357.572c1.915 1.104 2.57 3.55 1.466 5.464l-4 6.928c-1.104 1.913-3.55 2.57-5.465 1.465-1.91-1.105-2.567-3.553-1.462-5.466l4-6.928c1.103-1.913 3.55-2.568 5.463-1.464z"/></g><g fill="#111"><path d="M508.5 334.5c0 2.21-1.79 4-4 4h-8c-2.21 0-4-1.79-4-4s1.79-4 4-4h8c2.21 0 4 1.79 4 4zM508.5 374.5c0 2.21-1.79 4-4 4h-8c-2.21 0-4-1.79-4-4s1.79-4 4-4h8c2.21 0 4 1.79 4 4z"/></g><circle fill="none" stroke="#231F20" stroke-width="4" stroke-miterlimit="10" cx="500.5" cy="354.5" r="24"/><path fill="none" stroke="#B9529F" stroke-width="4" stroke-linecap="round" stroke-linejoin="round" stroke-miterlimit="10" d="M256.5 170.5"/><path fill="#F35EBB" stroke="#231F20" stroke-width="4" stroke-linecap="round" stroke-linejoin="round" stroke-miterlimit="10" d="M440.5 86.5h254v234h-438v-234h28zM92.5 234.5s-94 32-94 52v68h42c0-28.72 23.28-52 52-52s52 23.28 52 52h112v-206h-84s-10 0-22 16l-58 70z"/><circle fill="#5E6363" stroke="#231F20" stroke-width="4" stroke-miterlimit="10" cx="92.5" cy="354.5" r="44"/><circle fill="#C1D0D3" stroke="#231F20" stroke-width="4" stroke-miterlimit="10" cx="92.5" cy="354.5" r="24"/><circle fill="#929D9E" cx="92.5" cy="354.5" r="8"/><g fill="#111"><path d="M71.18 357.572c1.914-1.105 4.36-.45 5.465 1.463l4 6.928c1.104 1.914.45 4.36-1.464 5.465-1.912 1.104-4.36.45-5.464-1.465l-4-6.928c-1.104-1.912-.448-4.36 1.465-5.463zM105.822 337.572c1.913-1.105 4.36-.45 5.464 1.463l4 6.928c1.104 1.914.45 4.36-1.464 5.467-1.913 1.103-4.36.447-5.464-1.467l-4-6.928c-1.106-1.912-.45-4.36 1.464-5.463z"/></g><g fill="#111"><path d="M79.18 337.572c1.914 1.104 2.568 3.55 1.465 5.464l-4 6.928c-1.105 1.913-3.55 2.57-5.465 1.465-1.912-1.105-2.568-3.553-1.464-5.466l4-6.928c1.105-1.913 3.552-2.568 5.464-1.464zM113.82 357.572c1.915 1.104 2.57 3.55 1.466 5.464l-4 6.928c-1.104 1.913-3.55 2.57-5.465 1.465-1.91-1.105-2.567-3.553-1.462-5.466l4-6.928c1.103-1.913 3.55-2.568 5.463-1.464z"/></g><g fill="#111"><path d="M100.5 334.5c0 2.21-1.79 4-4 4h-8c-2.21 0-4-1.79-4-4s1.79-4 4-4h8c2.21 0 4 1.79 4 4zM100.5 374.5c0 2.21-1.79 4-4 4h-8c-2.21 0-4-1.79-4-4s1.79-4 4-4h8c2.21 0 4 1.79 4 4z"/></g><circle fill="none" stroke="#231F20" stroke-width="4" stroke-miterlimit="10" cx="92.5" cy="354.5" r="24"/><path fill="#ECECEC" stroke="#231F20" stroke-width="4" stroke-linecap="round" stroke-linejoin="round" stroke-miterlimit="10" d="M624.5 68.5h56v18h-56zM478.5 77.5c0-4.97 4.03-9 9-9h55c4.97 0 9 4.03 9 9v9h-73v-9zM618.5 56.5c0 2.21-1.79 4-4 4h-12c-2.21 0-4-1.79-4-4v-2c0-2.21 1.79-4 4-4h12c2.21 0 4 1.79 4 4v2zM604.5 60.5h8v26h-8z"/><path fill="#A01D1D" stroke="#231F20" stroke-width="4" stroke-linecap="round" stroke-linejoin="round" stroke-miterlimit="10" d="M664.5 208.47c-2 10-54 66-84 68l-6 4-8 36c60-10 100-68 100-68 14-28 28-26 28-26v-14h-30z"/><path fill="#00245E" stroke="#231F20" stroke-width="4" stroke-linecap="round" stroke-linejoin="round" stroke-miterlimit="10" d="M660.5 266.5c0 24 10 54 10 54h-42s16-22 16-40"/><path fill="#009678" stroke="#231F20" stroke-width="4" stroke-linecap="round" stroke-linejoin="round" stroke-miterlimit="10" d="M256.5 86.5h438v20h-438z"/><path fill="#B6F1F5" stroke="#231F20" stroke-width="4" stroke-linecap="round" stroke-linejoin="round" stroke-miterlimit="10" d="M256.5 86.5h438v10h-438z"/><g stroke="#231F20" stroke-width="4" stroke-linecap="round" stroke-linejoin="round" stroke-miterlimit="10"><path fill="#007556" d="M172.3 276.5l-19.8-12 19.8-12 19.798 12z"/><path fill="#FF5700" d="M152.5 264.5v26l19.8 12v-26z"/><path fill="#00245E" d="M192.3 264.5v26l-19.8 12v-26z"/></g><g stroke="#231F20" stroke-width="4" stroke-linecap="round" stroke-linejoin="round" stroke-miterlimit="10"><path fill="#007556" d="M283.427 285.14L256.5 268.82l26.927-16.32 26.927 16.32z"/><path fill="#FFBF00" d="M256.5 268.82v35.36l26.927 16.32v-35.36z"/><path fill="#00245E" d="M310.627 268.82v35.36L283.7 320.5v-35.36z"/></g><g stroke="#231F20" stroke-width="4" stroke-linecap="round" stroke-linejoin="round" stroke-miterlimit="10"><path fill="#007556" d="M337.427 285.14L310.5 268.82l26.927-16.32 26.927 16.32z"/><path fill="#FF5700" d="M310.5 268.82v35.36l26.927 16.32v-35.36z"/><path fill="#00245E" d="M364.627 268.82v35.36L337.7 320.5v-35.36z"/></g><path fill="#00245E" stroke="#231F20" stroke-width="4" stroke-linecap="round" stroke-linejoin="round" stroke-miterlimit="10" d="M694.5 318.5s-20-24-20-52c0 0 8 16 20 16"/><path fill="#00245E" stroke="#231F20" stroke-width="4" stroke-linecap="round" stroke-linejoin="round" stroke-miterlimit="10" d="M670.5 252.5s19 3 24 8v-34h-10l-14 26z"/><g stroke="#231F20" stroke-width="4" stroke-linecap="round" stroke-linejoin="round" stroke-miterlimit="10"><path fill="#007556" d="M391.427 285.14L364.5 268.82l26.927-16.32 26.927 16.32z"/><path fill="#FFBF00" d="M364.5 268.82v35.36l26.927 16.32v-35.36z"/><path fill="#00245E" d="M418.627 268.82v35.36L391.7 320.5v-35.36z"/></g><g stroke="#231F20" stroke-width="4" stroke-linecap="round" stroke-linejoin="round" stroke-miterlimit="10"><path fill="#007556" d="M445.427 285.14L418.5 268.82l26.927-16.32 26.927 16.32z"/><path fill="#FF5700" d="M418.5 268.82v35.36l26.927 16.32v-35.36z"/><path fill="#00245E" d="M472.627 268.82v35.36L445.7 320.5v-35.36z"/></g><path fill="#FFBF00" d="M578.37 276.606c-.322 0-.642-.078-.93-.23l-7.87-4.137c-.815-.43-1.233-1.358-1.012-2.252.22-.893 1.022-1.52 1.94-1.52l9.535.014c10.906-.766 28.227-11.29 47.538-28.892 19.336-17.62 28.512-30.984 29.11-32.81.744-3.62 4.04-6.312 7.818-6.312h28c1.104 0 2 .896 2 2v4c0 1.104-.896 2-2 2h-28c-1.02 4.94-13.933 20.988-31.54 37.036-20.664 18.833-39.785 30.118-52.46 30.963l-1.995.134c-.043.004-.087.006-.132.006z"/><path fill="#231F20" d="M692.5 202.47v4h-28c-.944 0-1.77.68-1.963 1.618-.822 3.987-12.984 19.588-30.924 35.938-20.336 18.533-39.015 29.63-51.246 30.446l-1.996.134-7.87-4.138 9.6.014c11.346-.757 29.14-11.478 48.82-29.413 19.413-17.694 29.233-31.747 29.7-33.793.573-2.785 3.047-4.81 5.88-4.81h28m0-3.998h-28c-4.623 0-8.67 3.224-9.734 7.71-1.1 2.354-10.406 15.406-28.54 31.934-18.666 17.01-35.94 27.603-46.263 28.37l-9.457-.015h-.006c-1.84 0-3.44 1.253-3.883 3.038-.442 1.787.392 3.645 2.02 4.502l7.872 4.138c.574.302 1.213.46 1.86.46.09 0 .18-.004.268-.01l1.996-.134c13.31-.888 32.37-12.067 53.673-31.48 15.223-13.875 28.68-29.497 31.632-36.515h26.56c2.21 0 4-1.792 4-4v-4c0-2.21-1.79-4-4-4z"/><g stroke="#231F20" stroke-width="4" stroke-linecap="round" stroke-linejoin="round" stroke-miterlimit="10"><path fill="#007556" d="M499.427 285.14L472.5 268.82l26.927-16.32 26.927 16.32z"/><path fill="#FFBF00" d="M472.5 268.82v35.36l26.927 16.32v-35.36z"/><path fill="#00245E" d="M526.627 268.82v35.36L499.7 320.5v-35.36z"/></g><path fill="#D52524" stroke="#231F20" stroke-width="4" stroke-linecap="round" stroke-linejoin="round" stroke-miterlimit="10" d="M686.5 228.47h8v-8h-16s-54 94.222-130 92.222l10 7.777c76 2 128-92 128-92"/><g stroke="#231F20" stroke-width="4" stroke-linecap="round" stroke-linejoin="round" stroke-miterlimit="10"><path fill="#007556" d="M553.427 285.14L526.5 268.82l26.927-16.32 26.927 16.32z"/><path fill="#FF5700" d="M526.5 268.82v35.36l26.927 16.32v-35.36z"/><path fill="#00245E" d="M580.627 268.82v35.36L553.7 320.5v-35.36z"/></g><g stroke="#231F20" stroke-width="4" stroke-linecap="round" stroke-linejoin="round" stroke-miterlimit="10"><path fill="#007556" d="M93.12 268.71l-18.62 4.565 4.567-18.618 18.62-4.566z"/><path fill="#FFBF00" d="M74.5 273.275L89.724 288.5l18.62-4.566-15.225-15.224z"/><path fill="#00245E" d="M97.803 249.973l15.224 15.224-4.566 18.618-15.223-15.223z"/></g><path fill="#E50000" stroke="#333" stroke-width="4" stroke-linecap="round" stroke-linejoin="round" stroke-miterlimit="10" d="M694.5 214.723"/><g stroke="#231F20" stroke-width="4" stroke-linecap="round" stroke-linejoin="round" stroke-miterlimit="10"><path fill="#C1BFB5" d="M566.5 124.075l12-19.575h-312l12 19.575z"/><path fill="#FFF6E3" d="M266.5 96.5h312v8h-312z"/><path fill="#444646" d="M278.5 124.5h288v96h-288z"/><path fill="#C1BFB5" d="M278.5 212.5h288v8h-288z"/></g><path fill="#454646" stroke="#231F20" stroke-width="4" stroke-linecap="round" stroke-linejoin="round" stroke-miterlimit="10" d="M256.5 316.5H138.894c-11.013-13.42-27.72-22-46.395-22-21.325 0-40.074 11.19-50.717 28H-1.5c-4.418 0-8 3.582-8 8v16c0 4.418 3.582 8 8 8h42c0-28.72 23.28-52 52-52s52 23.28 52 52h8c0-7.012-1.22-13.74-3.44-20H256.5v-18zM238.5 272.5h-18c-2.21 0-4-1.79-4-4v-8c0-2.21 1.79-4 4-4h18M238.5 316.5v-168"/><path fill="#454646" stroke="#231F20" stroke-width="4" stroke-linecap="round" stroke-linejoin="round" stroke-miterlimit="10" d="M38.5 272.5h22l8-8h-30s-4 0-4 4 4 4 4 4z"/><path fill="#E5E6E5" stroke="#231F20" stroke-width="4" stroke-linecap="round" stroke-linejoin="round" stroke-miterlimit="10" d="M-1.5 310.5h24l10-20h-34zM46.5 290.5h-18M32.5 310.5h-14"/><path fill="#4CABC2" stroke="#231F20" stroke-width="4" stroke-linecap="round" stroke-linejoin="round" stroke-miterlimit="10" d="M178.5 162.5h44c2.21 0 4 1.79 4 4v62c0 2.21-1.79 4-4 4-42 0-70 14-70 14h-30c-2.21 0-4-1.79-4-4v-26l46-54h14z"/><path opacity=".8" fill="#fff" d="M24.5 292.5l-8 16h-8l8-16zM12.5 292.5l-8 16h-4l8-16z"/><path opacity=".2" fill="#fff" d="M195 164.5l-76.248 79.75-.252-15.75 60.5-64zM203 164.5l-76.5 82h-4l76.5-82zM226.5 190.5l-42 46-40 10 74.5-82h7.5z"/><path fill="none" stroke="#231F20" stroke-width="4" stroke-linecap="round" stroke-linejoin="round" stroke-miterlimit="10" d="M178.5 162.5h44c2.21 0 4 1.79 4 4v62c0 2.21-1.79 4-4 4-42 0-70 14-70 14h-30c-2.21 0-4-1.79-4-4v-26l46-54h14z"/><path fill="#F79520" stroke="#231F20" stroke-width="4" stroke-linecap="round" stroke-linejoin="round" stroke-miterlimit="10" d="M664.5 330.5h8v12h-8z"/><g fill="#454646" stroke="#231F20" stroke-width="4" stroke-linecap="round" stroke-linejoin="round" stroke-miterlimit="10"><path d="M106.5 246.5c0-4.418 3.582-8 8-8l-4-4c-4.418 0-8 3.582-8 8l4 4zM122.5 238.5h-4c-4.418 0-8-3.582-8-8v-20c0-4.418 3.582-8 8-8h4v36z"/><circle cx="106.5" cy="242.5" r="4"/></g><circle fill="#D855AC" stroke="#231F20" stroke-width="4" stroke-linecap="round" stroke-linejoin="round" stroke-miterlimit="10" cx="622.5" cy="162.5" r="39.473"/><path fill="none" stroke="#231F20" stroke-width="4" stroke-linecap="round" stroke-linejoin="round" stroke-miterlimit="10" d="M606.5 142.678c4.373-3.535 9.94-5.65 16-5.65s11.627 2.115 16 5.65"/><path fill="#FB57BE" stroke="#231F20" stroke-width="4" stroke-linecap="round" stroke-linejoin="round" stroke-miterlimit="10" d="M602.71 178.54c-3.554-4.378-5.683-9.96-5.683-16.04M622.5 187.973c-5.135 0-9.914-1.52-13.914-4.132M634.47 184.99c-1.882 1.004-3.903 1.777-6.028 2.285"/><path fill="#FB0000" stroke="#231F20" stroke-width="4" stroke-linecap="round" stroke-linejoin="round" stroke-miterlimit="10" d="M632.5 156.5c0-5.522-4.477-10-10-10s-10 4.478-10 10v8h20v-8z"/><path fill="#00005A" d="M630.5 164.5v-8c0-5.522-4.477-10-10-10v18h10"/><path fill="#FB57BE" stroke="#231F20" stroke-width="4" stroke-linecap="round" stroke-linejoin="round" stroke-miterlimit="10" d="M645.77 172.882c-1.285 2.874-3.087 5.467-5.287 7.66M647.973 162.5c0 1.365-.107 2.705-.314 4.012"/><path fill="none" stroke="#231F20" stroke-width="4" stroke-linecap="round" stroke-linejoin="round" stroke-miterlimit="10" d="M632.5 156.5c0-5.522-4.477-10-10-10s-10 4.478-10 10v8h20v-8z"/><circle fill="#5E0013" stroke="#231F20" stroke-width="4" stroke-linecap="round" stroke-linejoin="round" stroke-miterlimit="10" cx="622.5" cy="166.5" r="10"/><path fill="none" stroke="#39CDE2" stroke-width="16" stroke-linecap="round" stroke-linejoin="round" stroke-miterlimit="10" d="M326.5 234.5h84M436.5 234.5h32"/><path fill="none" stroke="#E63421" stroke-width="12" stroke-linecap="round" stroke-linejoin="round" stroke-miterlimit="10" d="M516.5 234.5h58"/><path fill="#454545" stroke="#231F20" stroke-width="4" stroke-linecap="round" stroke-linejoin="round" stroke-miterlimit="10" d="M566.5 128.5c0-2.41-1.79-4-4-4h-50c-2.21 0-4 1.59-4 4v79.637c0 2.41 1.79 4.363 4 4.363h50c2.21 0 4-1.954 4-4.363V128.5z"/><path fill="none" stroke="#ECECEC" stroke-width="2" stroke-linecap="round" stroke-linejoin="round" stroke-miterlimit="10" d="M516.5 182.5h12M534.5 182.5h4M542.5 182.5h16M516.5 186.5h12M534.5 186.5h10M548.5 186.5h10M516.5 190.5h6M526.5 190.5h11.25M542.5 190.5h16"/><path fill="none" stroke="#ECECEC" stroke-width="8" stroke-linecap="round" stroke-linejoin="round" stroke-miterlimit="10" d="M520.5 136.5h16M548.5 136.5h4"/><path fill="none" stroke="#ECECEC" stroke-width="4" stroke-linecap="round" stroke-linejoin="round" stroke-miterlimit="10" d="M516.5 150.5h6M530.5 150.5h6M544.5 150.5h6M516.5 162.5h8M532.5 162.5h2M516.5 174.5h4.445M528.5 174.5h1.112M542.5 162.5h2M558.5 150.5h.22M558.5 162.5h.22M558.5 174.5h.22M516.5 200.5h20M552.5 200.5h5.5"/><path fill="#CE3746" stroke="#231F20" stroke-width="4" stroke-linecap="round" stroke-linejoin="round" stroke-miterlimit="10" d="M316.5 194.5v12c0 2.21-1.79 4-4 4s-4-1.79-4-4v-12h8zM312.5 194.5"/><path fill="#CE3746" stroke="#231F20" stroke-width="4" stroke-linecap="round" stroke-linejoin="round" stroke-miterlimit="10" d="M332.5 194.5v12c0 2.21-1.79 4-4 4s-4-1.79-4-4v-12h8zM328.5 194.5"/><path fill="#eee" stroke="#231F20" stroke-width="4" stroke-linecap="round" stroke-linejoin="round" stroke-miterlimit="10" d="M300.5 188.5v20c0 2.21-1.79 4-4 4h-2c-2.21 0-4-1.79-4-4v-20h10z"/><path fill="#40346E" stroke="#231F20" stroke-width="4" stroke-linecap="round" stroke-linejoin="round" stroke-miterlimit="10" d="M290.5 196.5h10v8h-10zM292.5 182.5h6v6h-6z"/><path fill="#939A9F" stroke="#231F20" stroke-width="4" stroke-linecap="round" stroke-linejoin="round" stroke-miterlimit="10" d="M460.5 194.5c0 8.836-7.164 16-16 16s-16-7.164-16-16h32zM352.5 206.5c0 2.21 1.79 4 4 4h56c2.21 0 4-1.79 4-4v-8h-64v8z"/><path fill="#FCEE22" stroke="#231F20" stroke-width="4" stroke-linecap="round" stroke-linejoin="round" stroke-miterlimit="10" d="M480.5 184.5v20c0 2.21-1.79 4-4 4s-4-1.79-4-4v-20l4-4 4 4zM476.5 180.5v-4"/><path fill="#CE3746" stroke="#231F20" stroke-width="4" stroke-linecap="round" stroke-linejoin="round" stroke-miterlimit="10" d="M496.5 184.5v20c0 2.21-1.79 4-4 4s-4-1.79-4-4v-20h8zM492.5 184.5v-4"/></svg>