<svg xmlns="http://www.w3.org/2000/svg" width="704" height="400" viewBox="0 0 704 400"><path fill="#444646" stroke="#231F20" stroke-width="4" stroke-linecap="round" stroke-linejoin="round" stroke-miterlimit="10" d="M134.522 286h128v60h-128v-60zm380 60H640.52l44-56h-170v56z"/><path fill="none" stroke="#B9529F" stroke-width="4" stroke-linecap="round" stroke-linejoin="round" stroke-miterlimit="10" d="M446.52 170"/><path fill="#ECECEC" stroke="#231F20" stroke-width="4" stroke-linecap="round" stroke-linejoin="round" stroke-miterlimit="10" d="M440.52 60H6.492c-2.21 0-4 1.79-4 4v290H134.52c0-35.348 28.652-64 64-64 35.346 0 64 28.652 64 64h184V66c0-3.313-2.687-6-6-6zm244 272v-26h8.003c2.206 0 3.997-1.79 3.997-4v-42c0-2.21-1.79-4-4-4l.003-6c0-16-68.003-36-68.003-36l-62-66c0-4-46-10-46-10h-70v216h104s12-60 46-60h35.974c21.003 0 38.026 17.023 38.026 38.027l14-.027z"/><g stroke="#231F20" stroke-width="4" stroke-miterlimit="10"><g stroke-linecap="round"><path fill="#333" stroke-linejoin="round" d="M127.08 263.33c6.214-12.945.758-28.48-12.186-34.69l-10.82-5.194c-3.195-1.534-6.55-2.355-9.88-2.53l-1.79-6.86c-.367-1.04-1.508-1.59-2.55-1.224-1.042.364-1.59 1.508-1.224 2.55l1.387 5.658c-1.97.216-3.906.65-5.768 1.302l-1.656-6.338c-.366-1.044-1.51-1.592-2.55-1.226-1.042.365-1.59 1.508-1.224 2.55l1.64 6.69c-4.664 2.516-8.607 6.472-11.078 11.614-3.148 6.56-3.297 13.78-.996 20.122l-8.382 8.653 7.212 3.463 4.986-5.148c1.022 1.33 2.178 2.57 3.463 3.697l-6.574 6.79 7.213 3.46 5.867-6.058 9.616 4.617-1.06 8.362 7.212 3.465 1.186-9.375c1.684.297 3.373.424 5.052.39l-.9 7.11 7.212 3.463L112 276.69c6.386-2.17 11.93-6.8 15.08-13.36zm-54.884-19.693l-10.817-5.195.9.434c-1.493-.716-2.124-2.51-1.407-4.002l2.598-5.408c.718-1.494 2.51-2.124 4.004-1.406l-.902-.434 10.82 5.19"/><path fill="none" d="M127.08 263.33c.955-1.99 3.344-2.83 5.336-1.876 1.992.957 2.83 3.347 1.875 5.338m0 0c.956-1.99 3.345-2.83 5.34-1.875"/></g><circle fill="#ECECEC" cx="88.135" cy="233.54" r="4"/><path fill="none" d="M2.5 290c13.342-21.297 34.473-45.725 60.83-68.932 56.217-49.504 114.924-74.717 131.123-56.32 16.197 18.396-16.242 73.44-72.46 122.94-46.708 41.126-95.132 65.487-119.47 62.005m151.815-41.573c-21.453-.765-46.283-4.257-72.267-10.642-30.93-7.603-58.51-18.08-79.55-29.443m.006-66.62c26.205-2.71 62.2.394 100.73 9.86 72.74 17.877 126.966 51.666 121.116 75.47-.6 2.44-1.808 4.68-3.572 6.72M96.813 354C80.81 333.984 64.4 304.59 51.23 270.294c-26.856-69.927-30.077-133.74-7.192-142.527 22.88-8.79 63.203 40.774 90.06 110.7 9.493 24.725 16.034 48.686 19.51 69.72"/></g><path fill="#333" d="M572.145 255.967c-.562-1.602-2.315-2.443-3.916-1.88l-1.34.47c-.397.14-.743.35-1.04.613l-.72-.424c-.12-.057-.26-.008-.315.11-.056.116-.01.26.11.314l.59.358c-.147.183-.272.38-.375.59l-.667-.39c-.117-.06-.26-.01-.313.11-.06.116-.01.258.107.312l.695.423c-.178.6-.178 1.26.047 1.896.283.81.874 1.425 1.598 1.765l.02 1.423.893-.312-.012-.85c.195.025.396.034.597.022l.02 1.117.89-.313-.016-.995 1.188-.418.608.785.894-.312-.685-.883c.164-.114.316-.246.454-.39l.52.67.893-.312-.873-1.125c.352-.715.43-1.566.145-2.375zm-6.233 2.94l-1.337.47.11-.04c-.185.065-.388-.032-.45-.217l-.235-.67c-.064-.185.03-.386.217-.45l-.11.038 1.337-.47"/><path fill="#333" d="M573.203 255.82c-.024.022-.055.043-.088.055-.123.044-.26-.02-.303-.145-.04-.123-.18-.188-.3-.145-.125.043-.19.178-.147.3.044.122-.02.26-.146.304s-.258-.024-.3-.147c-.13-.37.063-.773.434-.904.366-.13.774.063.903.434.033.09.008.184-.055.245zm0 0c-.024.022-.055.043-.088.055-.123.044-.26-.02-.303-.145-.13-.37.064-.774.434-.904.123-.043.26.02.303.146.04.123-.022.258-.147.3-.123.044-.188.18-.146.303.03.088.006.183-.057.243l.003.002z"/><circle fill="#ECECEC" cx="566.401" cy="256.731" r=".472"/><path fill="#231F20" stroke="#231F20" stroke-width="2" stroke-miterlimit="10" d="M569.775 276.557c-.815.814-1.657 1.2-2.5 1.147-3.706-.235-6.062-9.034-5.362-20.03.515-8.104 2.666-15.354 5.354-18.042.814-.815 1.656-1.202 2.5-1.147 3.705.236 6.06 9.033 5.36 20.03-.512 8.103-2.664 15.352-5.352 18.042zm-2.105-36.522c-2.596 2.6-4.682 9.7-5.188 17.676-.656 10.32 1.555 19.217 4.83 19.426.672.044 1.362-.286 2.06-.98 2.595-2.6 4.68-9.7 5.187-17.677.653-10.32-1.558-19.214-4.83-19.425-.674-.04-1.366.29-2.06.98zm13.615 16.582c-2.47 2.47-5.7 4.94-9.334 7.142-9.424 5.706-18.314 7.686-20.24 4.512-1.113-1.845.36-5.015 4.047-8.7 2.47-2.47 5.7-4.94 9.334-7.14 9.427-5.71 18.317-7.69 20.24-4.515 1.117 1.843-.36 5.015-4.045 8.7zm-25.127 3.36c-3.435 3.433-4.912 6.424-3.958 8 1.7 2.806 10.607.65 19.454-4.705 3.598-2.18 6.79-4.617 9.23-7.058 3.43-3.433 4.91-6.423 3.957-8-1.7-2.807-10.608-.65-19.454 4.704-3.6 2.18-6.788 4.62-9.23 7.06h.002zm29.792 6.86c-1.216 1.215-3.93 1.604-7.647 1.097-3.684-.502-8.112-1.85-12.475-3.79-4.752-2.114-8.955-4.71-11.83-7.31-2.953-2.67-4.172-5.06-3.43-6.73.123-.273.3-.526.522-.752 1.216-1.215 3.934-1.604 7.648-1.097 3.683.504 8.114 1.85 12.475 3.79 10.066 4.48 16.77 10.646 15.26 14.04-.12.274-.3.526-.523.752zm-34.454-17.08c-.174.173-.312.37-.406.58-.624 1.403.576 3.616 3.29 6.072 2.834 2.56 6.982 5.12 11.68 7.21 4.313 1.92 8.69 3.25 12.32 3.747 3.534.482 6.08.15 7.167-.936.174-.175.31-.368.402-.58 1.333-2.997-5.522-9.08-14.972-13.284-4.312-1.92-8.687-3.25-12.317-3.746-3.534-.48-6.08-.15-7.164.937z"/><path fill="#C1BFB5" stroke="#231F20" stroke-width="4" stroke-linecap="round" stroke-linejoin="round" stroke-miterlimit="10" d="M122.52 222h122v8h-122v-8z"/><path fill="#ECECEC" stroke="#231F20" stroke-width="4" stroke-linejoin="round" stroke-miterlimit="10" d="M330.52 220h96v134h-96V220z"/><g stroke="#231F20" stroke-width="4" stroke-linecap="round" stroke-linejoin="round" stroke-miterlimit="10"><path fill="#C1BFB5" d="M256.52 101.575l12-19.575h-170l12 19.575h146z"/><path fill="#FFF6E3" d="M98.52 74h170v8h-170v-8z"/><path fill="#444646" d="M110.52 102h146v96h-146v-96z"/><path fill="#C1BFB5" d="M110.52 190h146v8h-146v-8z"/></g><path fill="#A4875D" stroke="#231F20" stroke-width="4" stroke-linecap="round" stroke-linejoin="round" stroke-miterlimit="10" d="M236.52 190h8v32h-8v-32zm-114 0h8v32h-8v-32z"/><path fill="#27713A" d="M528.09 285.864c-.565 0-1.088-.373-1.252-.943l-2.872-10.014c-.198-.69.202-1.412.895-1.61.69-.198 1.412.2 1.61.894l2.872 10.015c.197.692-.2 1.413-.893 1.61-.123.035-.243.05-.36.05zm10.016-2.87c-.568 0-1.09-.374-1.253-.946l-.18-.625-4.383 1.257c-.33.094-.688.053-.99-.113-.303-.168-.522-.448-.618-.78l-1.614-5.634c-.2-.69.2-1.412.893-1.61l5.634-1.614c.33-.1.688-.057.99.11s.525.447.62.78l1.606 5.6.01.033c.003.012.005.022.01.034l.528 1.845c.196.69-.2 1.412-.896 1.61-.12.033-.24.05-.356.05zm-6.178-6.306l.898 3.13 3.13-.897-.897-3.13-3.132.898zm9.395 3.35c-.566 0-1.088-.373-1.252-.944l-1.61-5.617c0-.007-.002-.01-.003-.017l-.004-.017-.713-2.487c-.2-.69.2-1.412.89-1.61.69-.197 1.414.2 1.61.894l.36 1.25 4.382-1.257c.69-.196 1.412.203 1.61.895l1.614 5.635c.2.69-.2 1.412-.894 1.61l-5.633 1.614c-.117.033-.237.05-.357.05zm-.004-6.045l.894 3.13 3.13-.895-.896-3.13-3.13.895z"/><path fill="#542C57" d="M516.71 267.448c-.562 0-1.086-.372-1.25-.943l-.896-3.13-4.384 1.256c-.688.2-1.41-.198-1.61-.89-.196-.692.203-1.414.895-1.61l5.635-1.616c.69-.197 1.41.2 1.61.894l1.256 4.383c.197.69-.2 1.41-.894 1.61-.12.034-.243.048-.362.048zm-1.958 7.338c-.22 0-.437-.058-.632-.164-.302-.167-.524-.448-.62-.78l-1.787-6.232-.008-.026-.008-.026-1.068-3.73c-.2-.69.2-1.412.892-1.61.69-.196 1.41.2 1.61.894l.717 2.505 4.38-1.257c.333-.098.69-.055.992.113.3.166.523.446.62.78l1.794 6.26c.197.69-.2 1.41-.893 1.61l-5.635 1.613c-.116.035-.238.05-.358.05h.002zm-.183-6.67l1.074 3.756 3.13-.897-1.077-3.756-3.13.895h.002zm12.157-3.54c-.565 0-1.088-.372-1.25-.942l-.897-3.13-4.383 1.257c-.69.2-1.413-.2-1.61-.892-.2-.69.2-1.413.893-1.61l5.635-1.615c.69-.197 1.413.2 1.61.895l1.257 4.382c.197.69-.2 1.412-.895 1.61-.12.033-.24.05-.36.05v-.003zm-1.96 7.338c-.566 0-1.088-.372-1.25-.943l-2.874-10.015c-.197-.69.2-1.413.894-1.61.692-.196 1.412.2 1.61.894l.72 2.502 4.38-1.255c.333-.096.69-.057.99.11.304.17.526.45.622.78l1.794 6.262c.196.69-.203 1.41-.894 1.608l-5.634 1.615c-.12.035-.24.052-.36.05zm-.185-6.67l1.076 3.756 3.13-.896-1.075-3.756-3.13.896zm18.114 1.865c-.216 0-.43-.052-.63-.162l-2.016-1.117c-.3-.165-.52-.446-.618-.78l-2.334-8.136-5.633 1.615c-.69.196-1.414-.2-1.61-.895-.2-.69.2-1.41.893-1.61l6.885-1.975c.332-.097.688-.054.99.113.303.167.525.447.62.78l2.546 8.87 1.54.854c.63.35.857 1.143.51 1.77-.24.43-.686.674-1.143.674zm-7.022.32c-.565 0-1.088-.37-1.25-.94l-2.692-9.392c-.197-.69.2-1.412.894-1.61.69-.2 1.414.2 1.61.894l2.335 8.14 3.756-1.077c.69-.197 1.412.2 1.61.893.197.69-.202 1.413-.895 1.61l-5.006 1.437c-.12.032-.24.05-.36.05v-.005z"/><g fill="none" stroke-width="8" stroke-linecap="round" stroke-linejoin="round" stroke-miterlimit="10"><path stroke="#27713A" d="M339.805 141.24l8.82 30.76m30.76-8.82l-6.615-23.07-17.303 4.96 4.96 17.304 17.307-4.962m4.366-28.3l7.168 24.992 17.3-4.96-4.96-17.303-17.303 4.963"/><path stroke="#542C57" d="M292.52 106.944l17.303-4.96 3.86 13.457m-14.843-8.226l8.82 30.76 17.3-4.96-5.51-19.227-17.304 4.962m21.134-20.625l17.302-4.962 3.86 13.458m-14.844-8.226l8.82 30.76 17.303-4.96-5.51-19.226-17.303 4.96m24.98-21.728l21.146-6.062 3.307 11.535 4.963 17.303 6.185 3.428m-29.835-27.856l8.27 28.838 15.38-4.41"/></g><g stroke-miterlimit="10"><path fill="#B2B2B2" stroke="#231F20" stroke-width="4" d="M430.52 94c0 2.21-1.79 4-4 4h-24c-2.21 0-4-1.79-4-4V80c0-2.21 1.79-4 4-4h24c2.21 0 4 1.79 4 4v14z"/><path fill="none" stroke="#666" d="M402.52 84h11m-11-2h11m-11-2h11m-11 6h11m-11 2h11m-11 2h11m-11 2h11m-11 2h11m2.062-10h11m-11-2h11m-11-2h11m-11 6h11m-11 2h11m-11 2h11m-11 2h11m-11 2h11"/></g><g stroke-miterlimit="10"><path fill="#B2B2B2" stroke="#231F20" stroke-width="4" d="M50.52 94c0 2.21-1.79 4-4 4h-24c-2.21 0-4-1.79-4-4V80c0-2.21 1.79-4 4-4h24c2.21 0 4 1.79 4 4v14z"/><path fill="none" stroke="#666" d="M22.52 84h11m-11-2h11m-11-2h11m-11 6h11m-11 2h11m-11 2h11m-11 2h11m-11 2h11m2.062-10h11m-11-2h11m-11-2h11m-11 6h11m-11 2h11m-11 2h11m-11 2h11m-11 2h11"/></g><path fill="#F79520" stroke="#231F20" stroke-width="4" stroke-linecap="round" stroke-linejoin="round" stroke-miterlimit="10" d="M6.52 60c-2.21 0-4.027 1.79-4.027 4v4H14.52v-8h-8m436 0c2.21 0 4 1.79 4 4v4h-12v-8h8"/><path fill="#454646" stroke="#231F20" stroke-width="4" stroke-linecap="round" stroke-linejoin="round" stroke-miterlimit="10" d="M490.52 234c-2.21 0-4 1.79-4 4s1.79 4 4 4 4-1.79 4-4-1.79-4-4-4zm4 4h16"/><path fill="none" stroke="#231F20" stroke-width="4" stroke-linecap="round" stroke-linejoin="round" stroke-miterlimit="10" d="M478.52 156c0-2.21 1.79-4 4-4h70l64 68v62h-28c-34 0-46 60-46 60h-60c-2.21 0-4-1.79-4-4V156z"/><path fill="#B2B2B2" stroke="#231F20" stroke-width="4" stroke-miterlimit="10" d="M358.52 282c0 2.21-1.79 4-4 4h-10c-2.21 0-4-1.79-4-4v-4c0-2.21 1.79-4 4-4h10c2.21 0 4 1.79 4 4v4zm-10-8v12"/><path fill="#B2B2B2" stroke="#231F20" stroke-width="4" stroke-miterlimit="10" d="M616.52 238h-4c-2.21 0-4-1.79-4-4v-4c0-2.21 1.79-4 4-4h4v12z"/><path fill="#4CABC2" stroke="#000" stroke-width="4" stroke-linecap="round" stroke-linejoin="round" stroke-miterlimit="10" d="M486.52 164v48c0 2.21 1.79 4 4 4h96c2.21 0 6-1.79 6-4v-2l-46-50h-56c-2.21 0-4 1.79-4 4z"/><path fill="#4CABC2" stroke="#000" stroke-width="4" stroke-miterlimit="10" d="M474.52 190"/><path fill="none" stroke="#231F20" stroke-width="4" stroke-miterlimit="10" d="M486.52 164v48c0 2.21 1.79 4 4 4h96c2.21 0 6-1.79 6-4v-2l-46-50h-56c-2.21 0-4 1.79-4 4zm0 0v48c0 2.21 1.79 4 4 4h96c2.21 0 6-1.79 6-4v-2l-46-50h-56c-2.21 0-4 1.79-4 4zm0 0v48c0 2.21 1.79 4 4 4h96c2.21 0 6-1.79 6-4v-2l-46-50h-56c-2.21 0-4 1.79-4 4z"/><path opacity=".2" fill="#fff" enable-background="new" d="M529.02 160l-42.5 44v-28l16-16h26.5zm9.5 0l-52 54v-4l48-50h4zm24 16l-38 40h-12l41.416-44.584L562.52 176z"/><path fill="none" stroke="#231F20" stroke-width="4" stroke-linecap="round" stroke-linejoin="round" stroke-miterlimit="10" d="M486.52 164v48c0 2.21 1.79 4 4 4h96c2.21 0 6-1.79 6-4v-2l-46-50h-56c-2.21 0-4 1.79-4 4z"/><path fill="none" stroke="#231F20" stroke-width="4" stroke-miterlimit="10" d="M542.52 160l14 56"/><path fill="none" stroke="#231F20" stroke-width="8" stroke-linecap="round" stroke-linejoin="round" stroke-miterlimit="10" d="M274.52 200h24m64 0h10m-62 0h40m-8 32h72.002m-42.002 12h42m-30-44h40"/><path fill="#454646" stroke="#231F20" stroke-width="4" stroke-linecap="round" stroke-linejoin="round" stroke-miterlimit="10" d="M568.52 230c0-4.418-3.58-8-8-8l4-4c4.42 0 8 3.582 8 8l-4 4zm-16-9.872l3.756 1.38c4.146 1.52 8.744-.605 10.267-4.752l4.484-13.11c1.522-4.145-.604-8.743-4.75-10.267L562.52 192l-10 28.128z"/><circle fill="#454646" stroke="#231F20" stroke-width="4" stroke-linecap="round" stroke-linejoin="round" stroke-miterlimit="10" cx="568.52" cy="226" r="4"/><path fill="#F79520" stroke="#231F20" stroke-width="4" stroke-linecap="round" stroke-linejoin="round" stroke-miterlimit="10" d="M666.52 266h20v9h-20v-9z"/><circle fill="#F79520" stroke="#231F20" stroke-width="4" stroke-linecap="round" stroke-linejoin="round" stroke-miterlimit="10" cx="24.52" cy="236" r="8"/><circle fill="#27713A" stroke="#231F20" stroke-width="4" stroke-linecap="round" stroke-linejoin="round" stroke-miterlimit="10" cx="202.52" cy="256" r="8"/><path fill="#5D658A" stroke="#231F20" stroke-width="4" stroke-linecap="round" stroke-linejoin="round" stroke-miterlimit="10" d="M88.52 116.363c0-2.41-1.79-4.363-4-4.363h-58c-2.21 0-4 1.954-4 4.363v83.273c0 2.41 1.79 4.363 4 4.363h58c2.21 0 4-1.956 4-4.365v-83.272z"/><path fill="none" stroke="#ECECEC" stroke-width="8" stroke-linecap="round" stroke-linejoin="round" stroke-miterlimit="10" d="M45.52 122h20"/><path fill="none" stroke="#ECECEC" stroke-width="4" stroke-linecap="round" stroke-linejoin="round" stroke-miterlimit="10" d="M30.52 132h16.002m5.998 0h16.002m5.998 0h2m-28 8h8m6 0h10"/><path fill="none" stroke="#ECECEC" stroke-width="8" stroke-linecap="round" stroke-linejoin="round" stroke-miterlimit="10" d="M52.52 178h6"/><path fill="none" stroke="#ECECEC" stroke-width="4" stroke-linecap="round" stroke-linejoin="round" stroke-miterlimit="10" d="M30.52 188h16.002m5.998 0h16.002m5.998 0h2m-46 8h12m6 0h8m6 0h10"/><path fill="none" stroke="#ECECEC" stroke-width="8" stroke-linecap="round" stroke-linejoin="round" stroke-miterlimit="10" d="M45.52 150h20"/><path fill="none" stroke="#ECECEC" stroke-width="4" stroke-linecap="round" stroke-linejoin="round" stroke-miterlimit="10" d="M30.52 160h16.002m5.998 0h8.002m5.998 0h10m-46 8h12m6 0h10m6 0h16"/><path fill="#4C81B7" d="M358.7 240.508c-2.234 1.31-2.35 4.994.435 5.76 2.94.81 5.17-3.058 3.02-5.207-.917-.917-2.41-1.128-3.537-.468-1.38.807-1.456 2.32-1.19 3.717.23 1.22-.104 1.603-.89 2.497-.77.877-1.686 1.61-2.823 1.865-3.146.704-1.812 5.523 1.33 4.822 2.364-.53 4.18-2.128 5.71-3.943.844-1 1.53-2.004 1.663-3.34.113-1.135-.142-2.168-.158-3.27-.114.42-.23.84-.342 1.26l.12-.19-1.494 1.15c.098-.02.196-.035.295-.054-.644-.084-1.286-.17-1.928-.252l-.568-.52c-.114-.423-.23-.843-.342-1.264l.005.295c.113-.422.23-.844.34-1.264l.52-.43c.42-.114.84-.23 1.26-.342-.107.008-.217.017-.326.022l1.264.342.593.572.342 1.262-.772 1.293c2.777-1.628.264-5.95-2.526-4.318l-.002.006zm-.822 1.576c-.304.002-.606.008-.91 0-.287-.023-.248-.014.117.027-.563-.09.432.282-.055 0 .52.577.652.685.392.325-.33-.482-.076-.62-.004.373-.036-.496-.064-.998-.213-1.476-.406-1.3-1.73-2.116-3.076-1.746-1.28.353-2.153 1.774-1.748 3.076.206.657.007-.488.035.146.027.59.113 1.092.385 1.617.39.748.888 1.39 1.563 1.897 1 .75 2.315.766 3.512.758 1.362-.01 2.5-1.13 2.5-2.5 0-1.354-1.137-2.508-2.5-2.5v.004zm-.416 2.5c-.75.025-1.56.184-2.188.24-.58.052-.148.06.11.168-.234-.145-.233-.13.002.047-.11-.1-.22-.2-.326-.31-.974-.95-2.562-.972-3.533 0-.955.955-.976 2.584 0 3.535.707.69 1.532 1.303 2.53 1.465 1.19.195 2.32-.11 3.404-.147 1.363-.047 2.5-1.103 2.5-2.5.003-1.327-1.135-2.547-2.497-2.5z"/><path fill="#ECECEC" stroke="#231F20" stroke-width="4" stroke-linecap="round" stroke-linejoin="round" stroke-miterlimit="10" d="M692.52 306l9.972 10v14l-9.973 10h-10v-34h10z"/><path fill="#6C7071" stroke="#231F20" stroke-width="4" stroke-linecap="round" stroke-linejoin="round" stroke-miterlimit="10" d="M204.52 218l-4-12h24l-4 12h-16zm-58 0l-4-12h24l-4 12h-16zm-24-32l-4-28h32l-4 28h-24z"/><path fill="#5D658A" stroke="#231F20" stroke-width="4" stroke-linecap="round" stroke-linejoin="round" stroke-miterlimit="10" d="M174.52 182c0 2.21-1.79 4-4 4h-4c-2.21 0-4-1.79-4-4v-20c0-2.21 1.79-4 4-4h4c2.21 0 4 1.79 4 4v20z"/><path fill="none" stroke="#231F20" stroke-width="4" stroke-linecap="round" stroke-linejoin="round" stroke-miterlimit="10" d="M168.52 158v-7l-1-3"/><path fill="none" stroke="#EC2127" stroke-width="4" stroke-linecap="round" stroke-linejoin="round" stroke-miterlimit="10" d="M166.97 147"/><path fill="none" stroke="#F16624" stroke-width="4" stroke-linecap="round" stroke-linejoin="round" stroke-miterlimit="10" d="M161.01 141.037l5.96 5.964m1.51-10.604c.52 4.927-4.243 7.07-1.51 10.605"/><path fill="none" stroke="#FEDE0F" stroke-width="4" stroke-linecap="round" stroke-linejoin="round" stroke-miterlimit="10" d="M167.45 141.104c-1.013 2.085-2.155 3.73-.48 5.897m-3.673-3.674L166.97 147"/><path fill="none" stroke="#F16624" stroke-width="4" stroke-linecap="round" stroke-linejoin="round" stroke-miterlimit="10" d="M168.48 136.396c.52 4.927-4.243 7.07-1.51 10.605"/><path fill="none" stroke="#FEDE0F" stroke-width="4" stroke-linecap="round" stroke-linejoin="round" stroke-miterlimit="10" d="M167.45 141.104c-1.013 2.085-2.155 3.73-.48 5.897m-3.673-3.674L166.97 147"/><path fill="none" stroke="#F16624" stroke-width="4" stroke-linecap="round" stroke-linejoin="round" stroke-miterlimit="10" d="M156.365 148.51c4.928.518 7.072-4.244 10.605-1.51"/><path fill="none" stroke="#FEDE0F" stroke-width="4" stroke-linecap="round" stroke-linejoin="round" stroke-miterlimit="10" d="M161.075 147.48c2.084-1.015 3.73-2.156 5.896-.48"/><path fill="none" stroke="#F16624" stroke-width="4" stroke-linecap="round" stroke-linejoin="round" stroke-miterlimit="10" d="M156.365 148.51c4.928.518 7.072-4.244 10.605-1.51"/><path fill="none" stroke="#FEDE0F" stroke-width="4" stroke-linecap="round" stroke-linejoin="round" stroke-miterlimit="10" d="M161.075 147.48c2.084-1.015 3.73-2.156 5.896-.48m-3.673-3.674L166.97 147"/><g class="wheel"><circle fill="#5E6363" stroke="#231F20" stroke-width="4" stroke-miterlimit="10" cx="198.52" cy="354" r="44"/><circle fill="#ECECEC" stroke="#231F20" stroke-width="4" stroke-miterlimit="10" cx="198.52" cy="354" r="24"/><circle fill="#111" cx="198.52" cy="354" r="8"/><g fill="#111"><circle cx="198.52" cy="342" r="2"/><circle cx="198.52" cy="366" r="2"/></g><g fill="#111"><circle cx="190.034" cy="345.516" r="2"/><circle cx="207.004" cy="362.486" r="2"/></g><g fill="#111"><circle cx="186.52" cy="354.001" r="2.001"/><circle cx="210.52" cy="354.001" r="2"/></g><g fill="#111"><circle cx="190.035" cy="362.486" r="2"/><circle cx="207.005" cy="345.517" r="2.001"/></g><path fill="#111" d="M219.838 357.072c-1.912-1.105-4.357-.45-5.463 1.463l-4 6.928c-1.104 1.914-.45 4.36 1.463 5.465 1.914 1.104 4.36.45 5.465-1.465l4-6.928c1.105-1.912.45-4.36-1.465-5.463zm-34.64-20c-1.912-1.105-4.36-.45-5.463 1.463l-4 6.928c-1.104 1.914-.45 4.36 1.463 5.467 1.914 1.104 4.36.447 5.465-1.467l4-6.928c1.105-1.912.45-4.36-1.465-5.463zM211.84 337.072c-1.914 1.104-2.568 3.55-1.465 5.464l4 6.928c1.105 1.913 3.55 2.57 5.465 1.466 1.912-1.105 2.568-3.554 1.463-5.467l-4-6.928c-1.104-1.913-3.55-2.568-5.463-1.465v.002zm-34.64 20c-1.915 1.104-2.57 3.55-1.466 5.464l4 6.928c1.104 1.913 3.55 2.57 5.465 1.466 1.91-1.105 2.566-3.554 1.46-5.467l-4-6.928c-1.102-1.913-3.55-2.568-5.462-1.465l.002.002zM190.52 334c0 2.21 1.79 4 4 4h8c2.21 0 4-1.79 4-4s-1.79-4-4-4h-8c-2.21 0-4 1.79-4 4zm0 40c0 2.21 1.79 4 4 4h8c2.21 0 4-1.79 4-4s-1.79-4-4-4h-8c-2.21 0-4 1.79-4 4z"/><circle fill="none" stroke="#231F20" stroke-width="4" stroke-miterlimit="10" cx="198.52" cy="354" r="24"/><circle fill="#231F20" cx="198.52" cy="350" r="2"/><circle fill="#231F20" cx="194.52" cy="354" r="2"/><circle fill="#231F20" cx="198.52" cy="358" r="2"/><circle fill="#231F20" cx="202.52" cy="354" r="2"/></g><g class="wheel"><circle fill="#5E6363" stroke="#231F20" stroke-width="4" stroke-miterlimit="10" cx="612.52" cy="354" r="44"/><circle fill="#ECECEC" stroke="#231F20" stroke-width="4" stroke-miterlimit="10" cx="612.52" cy="354" r="24"/><circle fill="#111" cx="612.52" cy="354" r="8"/><g fill="#111"><circle cx="612.52" cy="342" r="2"/><circle cx="612.52" cy="366" r="2"/></g><g fill="#111"><circle cx="604.034" cy="345.516" r="2"/><circle cx="621.004" cy="362.486" r="2"/></g><g fill="#111"><circle cx="600.52" cy="354.001" r="2.001"/><circle cx="624.52" cy="354.001" r="2"/></g><g fill="#111"><circle cx="604.035" cy="362.486" r="2"/><circle cx="621.005" cy="345.517" r="2.001"/></g><path fill="#111" d="M633.838 357.072c-1.912-1.105-4.356-.45-5.463 1.463l-4 6.928c-1.104 1.914-.45 4.36 1.463 5.465 1.914 1.104 4.36.45 5.465-1.465l4-6.928c1.105-1.912.45-4.36-1.465-5.463zm-34.64-20c-1.912-1.105-4.36-.45-5.463 1.463l-4 6.928c-1.104 1.914-.45 4.36 1.463 5.467 1.914 1.104 4.36.447 5.465-1.467l4-6.928c1.105-1.912.45-4.36-1.465-5.463zM625.84 337.072c-1.914 1.104-2.567 3.55-1.465 5.464l4 6.928c1.105 1.913 3.55 2.57 5.465 1.466 1.912-1.105 2.568-3.554 1.463-5.467l-4-6.928c-1.104-1.913-3.55-2.568-5.463-1.465v.002zm-34.64 20c-1.915 1.104-2.57 3.55-1.466 5.464l4 6.928c1.104 1.913 3.55 2.57 5.465 1.466 1.91-1.105 2.565-3.554 1.46-5.467l-4-6.928c-1.103-1.913-3.55-2.568-5.462-1.465l.002.002zM604.52 334c0 2.21 1.79 4 4 4h8c2.21 0 4-1.79 4-4s-1.79-4-4-4h-8c-2.21 0-4 1.79-4 4zm0 40c0 2.21 1.79 4 4 4h8c2.21 0 4-1.79 4-4s-1.79-4-4-4h-8c-2.21 0-4 1.79-4 4z"/><circle fill="none" stroke="#231F20" stroke-width="4" stroke-miterlimit="10" cx="612.52" cy="354" r="24"/><circle fill="#231F20" cx="612.52" cy="350" r="2"/><circle fill="#231F20" cx="608.52" cy="354" r="2"/><circle fill="#231F20" cx="612.52" cy="358" r="2"/><circle fill="#231F20" cx="616.52" cy="354" r="2"/></g></svg>