<svg xmlns="http://www.w3.org/2000/svg" width="704" height="400" viewBox="0.492 0 704 400" enable-background="new 0.492 0 704 400"><path fill="#444646" stroke="#231F20" stroke-width="4" stroke-linecap="round" stroke-linejoin="round" stroke-miterlimit="10" d="M134.522 286h128v60h-128zM514.522 346H640.52l44-56h-170z"/><path fill="none" stroke="#B9529F" stroke-width="4" stroke-linecap="round" stroke-linejoin="round" stroke-miterlimit="10" d="M446.52 170"/><path fill="#ECECEC" stroke="#231F20" stroke-width="4" stroke-linecap="round" stroke-linejoin="round" stroke-miterlimit="10" d="M440.52 60H6.492c-2.21 0-4 1.79-4 4v290H134.52c0-35.347 28.652-64 64-64 35.346 0 64 28.653 64 64h184V66c0-3.313-2.687-6-6-6zM684.52 332v-26h8.002c2.207 0 3.998-1.79 3.998-4v-42c0-2.21-1.79-4-4-4l.002-6c0-16-68.002-36-68.002-36l-62-66c0-4-46-10-46-10h-70v216h104s12-60 46-60h35.973c21.003 0 38.027 17.024 38.027 38.027l14-.027z"/><circle fill="#5E6363" stroke="#231F20" stroke-width="4" stroke-miterlimit="10" cx="198.52" cy="354" r="44"/><circle fill="#ECECEC" stroke="#231F20" stroke-width="4" stroke-miterlimit="10" cx="198.52" cy="354" r="24"/><circle fill="#111" cx="198.52" cy="354" r="8"/><g fill="#111"><circle cx="198.52" cy="342" r="2"/><circle cx="198.52" cy="366" r="2"/></g><g fill="#111"><circle cx="190.034" cy="345.515" r="2"/><circle cx="207.004" cy="362.486" r="2"/></g><g fill="#111"><circle cx="186.52" cy="354.001" r="2.001"/><circle cx="210.52" cy="354.001" r="2"/></g><g fill="#111"><circle cx="190.035" cy="362.486" r="2"/><circle cx="207.005" cy="345.516" r="2.001"/></g><g fill="#111"><path d="M219.838 357.072c-1.912-1.105-4.357-.45-5.463 1.463l-4 6.928c-1.104 1.914-.45 4.36 1.463 5.465 1.914 1.104 4.36.45 5.465-1.465l4-6.928c1.105-1.912.45-4.36-1.465-5.463zM185.198 337.072c-1.912-1.105-4.36-.45-5.463 1.463l-4 6.928c-1.104 1.914-.45 4.36 1.463 5.467 1.914 1.103 4.36.447 5.465-1.467l4-6.928c1.105-1.912.45-4.36-1.465-5.463z"/></g><g fill="#111"><path d="M211.84 337.072c-1.914 1.104-2.568 3.55-1.465 5.464l4 6.928c1.105 1.913 3.55 2.57 5.465 1.465 1.912-1.105 2.568-3.553 1.463-5.466l-4-6.928c-1.104-1.913-3.55-2.568-5.463-1.464zM177.2 357.072c-1.915 1.104-2.57 3.55-1.466 5.464l4 6.928c1.104 1.913 3.55 2.57 5.465 1.465 1.91-1.105 2.567-3.553 1.462-5.466l-4-6.928c-1.103-1.913-3.55-2.568-5.463-1.464z"/></g><g fill="#111"><path d="M190.52 334c0 2.21 1.79 4 4 4h8c2.21 0 4-1.79 4-4s-1.79-4-4-4h-8c-2.21 0-4 1.79-4 4zM190.52 374c0 2.21 1.79 4 4 4h8c2.21 0 4-1.79 4-4s-1.79-4-4-4h-8c-2.21 0-4 1.79-4 4z"/></g><circle fill="none" stroke="#231F20" stroke-width="4" stroke-miterlimit="10" cx="198.52" cy="354" r="24"/><circle fill="#231F20" cx="198.52" cy="350" r="2"/><circle fill="#231F20" cx="194.52" cy="354" r="2"/><circle fill="#231F20" cx="198.52" cy="358" r="2"/><circle fill="#231F20" cx="202.52" cy="354" r="2"/><circle fill="#5E6363" stroke="#231F20" stroke-width="4" stroke-miterlimit="10" cx="612.52" cy="354" r="44"/><circle fill="#ECECEC" stroke="#231F20" stroke-width="4" stroke-miterlimit="10" cx="612.52" cy="354" r="24"/><circle fill="#111" cx="612.52" cy="354" r="8"/><g fill="#111"><circle cx="612.52" cy="342" r="2"/><circle cx="612.52" cy="366" r="2"/></g><g fill="#111"><circle cx="604.034" cy="345.515" r="2"/><circle cx="621.004" cy="362.486" r="2"/></g><g fill="#111"><circle cx="600.52" cy="354.001" r="2.001"/><circle cx="624.52" cy="354.001" r="2"/></g><g fill="#111"><circle cx="604.035" cy="362.486" r="2"/><circle cx="621.005" cy="345.516" r="2.001"/></g><g fill="#111"><path d="M633.838 357.072c-1.912-1.105-4.357-.45-5.463 1.463l-4 6.928c-1.104 1.914-.45 4.36 1.463 5.465 1.914 1.104 4.36.45 5.465-1.465l4-6.928c1.105-1.912.45-4.36-1.465-5.463zM599.198 337.072c-1.912-1.105-4.36-.45-5.463 1.463l-4 6.928c-1.104 1.914-.45 4.36 1.463 5.467 1.914 1.103 4.36.447 5.465-1.467l4-6.928c1.105-1.912.45-4.36-1.465-5.463z"/></g><g fill="#111"><path d="M625.84 337.072c-1.914 1.104-2.568 3.55-1.465 5.464l4 6.928c1.105 1.913 3.55 2.57 5.465 1.465 1.912-1.105 2.568-3.553 1.463-5.466l-4-6.928c-1.104-1.913-3.55-2.568-5.463-1.464zM591.2 357.072c-1.915 1.104-2.57 3.55-1.466 5.464l4 6.928c1.104 1.913 3.55 2.57 5.465 1.465 1.91-1.105 2.567-3.553 1.462-5.466l-4-6.928c-1.103-1.913-3.55-2.568-5.463-1.464z"/></g><g fill="#111"><path d="M604.52 334c0 2.21 1.79 4 4 4h8c2.21 0 4-1.79 4-4s-1.79-4-4-4h-8c-2.21 0-4 1.79-4 4zM604.52 374c0 2.21 1.79 4 4 4h8c2.21 0 4-1.79 4-4s-1.79-4-4-4h-8c-2.21 0-4 1.79-4 4z"/></g><circle fill="none" stroke="#231F20" stroke-width="4" stroke-miterlimit="10" cx="612.52" cy="354" r="24"/><circle fill="#231F20" cx="612.52" cy="350" r="2"/><circle fill="#231F20" cx="608.52" cy="354" r="2"/><circle fill="#231F20" cx="612.52" cy="358" r="2"/><circle fill="#231F20" cx="616.52" cy="354" r="2"/><g stroke="#231F20" stroke-width="4" stroke-miterlimit="10"><g stroke-linecap="round"><path fill="#333" stroke-linejoin="round" d="M127.08 263.33c6.214-12.945.758-28.478-12.186-34.692l-10.82-5.193c-3.195-1.534-6.55-2.355-9.88-2.53l-1.79-6.86c-.367-1.042-1.508-1.59-2.55-1.224-1.042.365-1.59 1.508-1.224 2.55l1.387 5.658c-1.97.216-3.906.65-5.768 1.302l-1.655-6.338c-.366-1.044-1.51-1.592-2.55-1.225-1.042.365-1.59 1.507-1.224 2.55l1.64 6.688c-4.664 2.516-8.607 6.472-11.078 11.615-3.148 6.56-3.297 13.78-.996 20.122l-8.382 8.653 7.212 3.463 4.986-5.148c1.022 1.33 2.178 2.57 3.463 3.697l-6.574 6.79 7.212 3.46 5.867-6.057 9.616 4.617-1.06 8.364 7.212 3.465 1.186-9.375c1.684.297 3.373.424 5.052.39l-.9 7.11 7.212 3.462L112 276.69c6.386-2.17 11.93-6.8 15.08-13.36zM72.196 243.636l-10.817-5.194.9.433c-1.492-.716-2.123-2.51-1.406-4.002l2.598-5.408c.717-1.494 2.51-2.124 4.003-1.407l-.902-.433 10.82 5.192"/><path fill="none" d="M127.08 263.33c.955-1.99 3.344-2.83 5.336-1.876 1.992.957 2.83 3.347 1.875 5.338M134.29 266.792c.956-1.99 3.345-2.83 5.34-1.875"/></g><circle fill="#ECECEC" cx="88.135" cy="233.54" r="4"/><path fill="none" d="M2.5 290c13.342-21.297 34.473-45.724 60.83-68.932 56.217-49.504 114.924-74.717 131.123-56.32 16.197 18.396-16.242 73.44-72.46 122.94-46.708 41.126-95.132 65.488-119.47 62.006M154.338 308.12c-21.453-.765-46.283-4.256-72.267-10.642-30.93-7.602-58.512-18.08-79.55-29.443M2.526 201.414c26.205-2.71 62.2.395 100.73 9.862 72.74 17.876 126.966 51.666 121.116 75.47-.6 2.44-1.808 4.68-3.572 6.718M96.813 354C80.81 333.985 64.4 304.59 51.23 270.294c-26.856-69.927-30.077-133.74-7.192-142.527 22.88-8.79 63.203 40.774 90.06 110.7 9.493 24.725 16.034 48.685 19.51 69.718"/></g><path fill="#333" d="M572.145 255.967c-.562-1.602-2.316-2.443-3.916-1.88l-1.34.47c-.396.138-.743.35-1.038.613l-.722-.424c-.118-.057-.26-.007-.315.11s-.008.26.11.315l.59.358c-.147.183-.272.38-.374.59l-.667-.39c-.117-.058-.26-.008-.314.11-.058.117-.01.258.108.314l.695.422c-.178.6-.178 1.26.047 1.896.284.81.875 1.426 1.598 1.765l.022 1.423.892-.312-.013-.848c.195.025.395.033.597.02l.018 1.117.892-.313-.017-.995 1.19-.418.608.786.894-.312-.685-.883c.164-.115.316-.246.454-.39l.52.67.893-.313-.873-1.124c.352-.715.43-1.566.145-2.376zM565.912 258.906l-1.337.47.11-.038c-.184.064-.387-.033-.45-.218l-.235-.67c-.064-.184.03-.386.217-.45l-.11.038 1.336-.47"/><path fill="#333" d="M573.203 255.82c-.024.023-.055.043-.088.055-.123.044-.26-.02-.303-.145-.04-.122-.178-.188-.3-.144-.124.043-.19.178-.146.3s-.02.26-.145.303-.257-.023-.3-.146c-.13-.37.064-.774.434-.904.367-.13.775.064.904.434.033.09.008.184-.055.245zM573.203 255.82c-.024.023-.055.043-.088.055-.123.044-.26-.02-.303-.145-.13-.368.065-.774.434-.904.123-.043.26.022.303.146.042.124-.022.258-.146.3-.123.045-.188.18-.145.303.03.088.006.183-.057.244z"/><circle fill="#ECECEC" cx="566.401" cy="256.731" r=".472"/><path fill="#231F20" stroke="#231F20" stroke-width="2" stroke-miterlimit="10" d="M569.775 276.557c-.815.814-1.657 1.2-2.5 1.147-3.706-.235-6.062-9.034-5.362-20.03.515-8.103 2.666-15.354 5.355-18.042.814-.815 1.656-1.202 2.5-1.147 3.705.235 6.06 9.033 5.36 20.03-.513 8.103-2.665 15.352-5.353 18.042zm-2.105-36.522c-2.596 2.6-4.682 9.7-5.188 17.676-.656 10.32 1.555 19.216 4.83 19.425.672.043 1.363-.287 2.06-.98 2.595-2.6 4.68-9.7 5.187-17.678.654-10.32-1.557-19.213-4.83-19.423-.673-.042-1.365.29-2.06.98zM581.285 256.617c-2.47 2.47-5.7 4.94-9.334 7.142-9.425 5.707-18.315 7.687-20.24 4.512-1.114-1.844.36-5.014 4.046-8.7 2.47-2.47 5.7-4.94 9.334-7.14 9.426-5.71 18.316-7.69 20.24-4.514 1.116 1.843-.36 5.014-4.045 8.7zm-25.127 3.36c-3.434 3.432-4.912 6.423-3.958 8 1.7 2.805 10.608.65 19.454-4.706 3.598-2.178 6.79-4.617 9.23-7.057 3.43-3.433 4.91-6.423 3.958-8-1.7-2.807-10.61-.65-19.455 4.704-3.6 2.18-6.788 4.62-9.23 7.06zM585.95 266.837c-1.216 1.215-3.93 1.605-7.647 1.097-3.684-.503-8.113-1.85-12.475-3.79-4.752-2.114-8.955-4.71-11.83-7.31-2.953-2.67-4.172-5.06-3.43-6.73.123-.274.3-.527.523-.752 1.216-1.215 3.933-1.605 7.648-1.097 3.683.504 8.114 1.848 12.475 3.79 10.066 4.478 16.77 10.646 15.26 14.04-.123.274-.3.527-.524.752zm-34.454-17.08c-.174.173-.312.37-.406.58-.624 1.403.576 3.616 3.29 6.072 2.834 2.56 6.982 5.122 11.68 7.212 4.313 1.92 8.69 3.25 12.32 3.746 3.534.483 6.08.15 7.167-.935.174-.176.31-.37.402-.582 1.334-2.996-5.52-9.08-14.97-13.284-4.312-1.92-8.687-3.25-12.318-3.745-3.535-.482-6.08-.15-7.166.936z"/><path fill="#C1BFB5" stroke="#231F20" stroke-width="4" stroke-linecap="round" stroke-linejoin="round" stroke-miterlimit="10" d="M122.52 222h122v8h-122z"/><path fill="#ECECEC" stroke="#231F20" stroke-width="4" stroke-linejoin="round" stroke-miterlimit="10" d="M330.52 220h96v134h-96z"/><g stroke="#231F20" stroke-width="4" stroke-linecap="round" stroke-linejoin="round" stroke-miterlimit="10"><path fill="#C1BFB5" d="M256.52 101.575l12-19.575h-170l12 19.575z"/><path fill="#FFF6E3" d="M98.52 74h170v8h-170z"/><path fill="#444646" d="M110.52 102h146v96h-146z"/><path fill="#C1BFB5" d="M110.52 190h146v8h-146z"/></g><path fill="#A4875D" stroke="#231F20" stroke-width="4" stroke-linecap="round" stroke-linejoin="round" stroke-miterlimit="10" d="M236.52 190h8v32h-8zM122.52 190h8v32h-8z"/><path fill="#27713A" d="M528.09 285.864c-.566 0-1.088-.373-1.252-.943l-2.872-10.015c-.198-.69.202-1.412.894-1.61.69-.198 1.412.2 1.61.893l2.872 10.015c.197.692-.2 1.413-.893 1.61-.122.035-.242.05-.36.05zM538.106 282.993c-.568 0-1.088-.373-1.252-.945l-.18-.625-4.383 1.256c-.33.095-.687.054-.99-.113s-.523-.448-.618-.78l-1.615-5.634c-.2-.69.2-1.412.893-1.61l5.633-1.615c.33-.097.688-.055.99.112s.525.448.62.78l1.606 5.6.01.033c.003.012.005.022.01.035l.528 1.844c.197.69-.2 1.412-.895 1.61-.12.034-.24.05-.357.05zm-6.178-6.306l.898 3.13 3.13-.897-.897-3.13-3.132.897zM541.323 280.038c-.566 0-1.088-.373-1.252-.944l-1.61-5.618c0-.006-.003-.01-.004-.016l-.004-.016-.713-2.488c-.2-.69.2-1.412.89-1.61.69-.198 1.414.2 1.61.893l.36 1.25 4.383-1.256c.69-.197 1.412.202 1.61.894l1.614 5.634c.2.69-.2 1.413-.893 1.61l-5.633 1.616c-.117.033-.238.05-.357.05zm-.004-6.045l.895 3.13 3.13-.895-.897-3.13-3.13.895z"/><path fill="#542C57" d="M516.71 267.448c-.563 0-1.086-.372-1.25-.943l-.897-3.13-4.383 1.256c-.688.2-1.41-.2-1.61-.89-.197-.693.202-1.415.894-1.612l5.635-1.615c.69-.197 1.41.2 1.61.893l1.256 4.383c.197.69-.2 1.41-.894 1.608-.12.035-.242.05-.36.05zM514.752 274.786c-.22 0-.437-.057-.632-.164-.302-.167-.524-.448-.62-.78l-1.787-6.232-.008-.027-.008-.026-1.068-3.73c-.2-.69.2-1.413.892-1.61.69-.198 1.412.2 1.61.893l.718 2.504 4.38-1.256c.333-.098.69-.055.993.112.3.167.523.447.62.78l1.794 6.26c.197.69-.2 1.412-.893 1.61l-5.635 1.615c-.116.034-.238.05-.358.05zm-.183-6.67l1.075 3.756 3.13-.897-1.077-3.756-3.13.896zM526.727 264.577c-.566 0-1.088-.373-1.25-.943l-.898-3.13-4.383 1.257c-.69.198-1.413-.202-1.61-.893-.2-.69.2-1.413.893-1.61l5.634-1.616c.69-.196 1.413.202 1.61.895l1.258 4.382c.197.69-.202 1.412-.895 1.61-.12.033-.24.05-.36.05zM524.766 271.914c-.566 0-1.087-.372-1.25-.944l-2.873-10.015c-.198-.692.2-1.413.893-1.61s1.412.2 1.61.893l.72 2.503 4.38-1.255c.333-.096.69-.056.99.112.304.168.527.45.622.78l1.795 6.26c.197.692-.203 1.413-.893 1.61l-5.634 1.615c-.12.035-.24.052-.36.052zm-.184-6.67l1.076 3.756 3.13-.897-1.075-3.756-3.13.898zM542.696 267.11c-.215 0-.43-.052-.63-.162l-2.015-1.117c-.3-.166-.522-.447-.618-.78l-2.334-8.137-5.633 1.615c-.69.198-1.414-.2-1.61-.893-.2-.69.2-1.412.892-1.61l6.885-1.975c.332-.097.688-.054.99.113.303.167.525.447.62.78l2.546 8.87 1.54.854c.63.35.858 1.143.51 1.77-.24.43-.685.674-1.142.674zM535.674 267.43c-.566 0-1.088-.37-1.25-.942l-2.693-9.39c-.197-.69.202-1.413.894-1.61.69-.2 1.414.2 1.61.893l2.335 8.14 3.755-1.078c.69-.197 1.412.2 1.61.893.198.69-.202 1.413-.894 1.61l-5.007 1.437c-.12.032-.24.05-.36.05z"/><g fill="none" stroke-width="8" stroke-linecap="round" stroke-linejoin="round" stroke-miterlimit="10"><path stroke="#27713A" d="M339.805 141.24l8.82 30.76M379.385 163.18l-6.615-23.07-17.303 4.96 4.96 17.304 17.306-4.962M382.1 129.112l7.168 24.992 17.3-4.96-4.96-17.303-17.303 4.962"/><path stroke="#542C57" d="M292.52 106.944l17.303-4.96 3.86 13.457M298.84 107.214l8.82 30.76 17.3-4.96-5.51-19.227-17.303 4.962M323.28 98.125l17.302-4.962 3.86 13.458M329.598 98.394l8.82 30.76 17.303-4.96-5.51-19.226-17.304 4.96M357.887 88.2l21.146-6.062 3.307 11.535 4.963 17.303 6.184 3.428M363.653 86.548l8.27 28.838 15.38-4.41"/></g><g stroke-miterlimit="10"><path fill="#B2B2B2" stroke="#231F20" stroke-width="4" d="M430.52 94c0 2.21-1.79 4-4 4h-24c-2.21 0-4-1.79-4-4V80c0-2.21 1.79-4 4-4h24c2.21 0 4 1.79 4 4v14z"/><path fill="none" stroke="#666" d="M402.52 84h11M402.52 82h11M402.52 80h11M402.52 86h11M402.52 88h11M402.52 90h11M402.52 92h11M402.52 94h11M415.582 84h11M415.582 82h11M415.582 80h11M415.582 86h11M415.582 88h11M415.582 90h11M415.582 92h11M415.582 94h11"/></g><g stroke-miterlimit="10"><path fill="#B2B2B2" stroke="#231F20" stroke-width="4" d="M50.52 94c0 2.21-1.79 4-4 4h-24c-2.21 0-4-1.79-4-4V80c0-2.21 1.79-4 4-4h24c2.21 0 4 1.79 4 4v14z"/><path fill="none" stroke="#666" d="M22.52 84h11M22.52 82h11M22.52 80h11M22.52 86h11M22.52 88h11M22.52 90h11M22.52 92h11M22.52 94h11M35.582 84h11M35.582 82h11M35.582 80h11M35.582 86h11M35.582 88h11M35.582 90h11M35.582 92h11M35.582 94h11"/></g><path fill="#F79520" stroke="#231F20" stroke-width="4" stroke-linecap="round" stroke-linejoin="round" stroke-miterlimit="10" d="M6.52 60c-2.21 0-4.027 1.79-4.027 4v4H14.52v-8h-8M442.52 60c2.21 0 4 1.79 4 4v4h-12v-8h8"/><path fill="#454646" stroke="#231F20" stroke-width="4" stroke-linecap="round" stroke-linejoin="round" stroke-miterlimit="10" d="M490.52 234c-2.21 0-4 1.79-4 4s1.79 4 4 4 4-1.79 4-4-1.79-4-4-4zM494.52 238h16"/><path fill="none" stroke="#231F20" stroke-width="4" stroke-linecap="round" stroke-linejoin="round" stroke-miterlimit="10" d="M478.52 156c0-2.21 1.79-4 4-4h70l64 68v62h-28c-34 0-46 60-46 60h-60c-2.21 0-4-1.79-4-4V156z"/><path fill="#B2B2B2" stroke="#231F20" stroke-width="4" stroke-miterlimit="10" d="M358.52 282c0 2.21-1.79 4-4 4h-10c-2.21 0-4-1.79-4-4v-4c0-2.21 1.79-4 4-4h10c2.21 0 4 1.79 4 4v4zM348.52 274v12"/><path fill="#B2B2B2" stroke="#231F20" stroke-width="4" stroke-miterlimit="10" d="M616.52 238h-4c-2.21 0-4-1.79-4-4v-4c0-2.21 1.79-4 4-4h4v12z"/><path fill="#4CABC2" stroke="#000" stroke-width="4" stroke-linecap="round" stroke-linejoin="round" stroke-miterlimit="10" d="M486.52 164v48c0 2.21 1.79 4 4 4h96c2.21 0 6-1.79 6-4v-2l-46-50h-56c-2.21 0-4 1.79-4 4z"/><path fill="#4CABC2" stroke="#000" stroke-width="4" stroke-miterlimit="10" d="M474.52 190"/><path fill="none" stroke="#231F20" stroke-width="4" stroke-miterlimit="10" d="M486.52 164v48c0 2.21 1.79 4 4 4h96c2.21 0 6-1.79 6-4v-2l-46-50h-56c-2.21 0-4 1.79-4 4zM486.52 164v48c0 2.21 1.79 4 4 4h96c2.21 0 6-1.79 6-4v-2l-46-50h-56c-2.21 0-4 1.79-4 4zM486.52 164v48c0 2.21 1.79 4 4 4h96c2.21 0 6-1.79 6-4v-2l-46-50h-56c-2.21 0-4 1.79-4 4z"/><path opacity=".2" fill="#fff" d="M529.02 160l-42.5 44v-28l16-16zM538.52 160l-52 54v-4l48-50zM562.52 176l-38 40h-12l41.416-44.584z"/><path fill="none" stroke="#231F20" stroke-width="4" stroke-linecap="round" stroke-linejoin="round" stroke-miterlimit="10" d="M486.52 164v48c0 2.21 1.79 4 4 4h96c2.21 0 6-1.79 6-4v-2l-46-50h-56c-2.21 0-4 1.79-4 4z"/><path fill="none" stroke="#231F20" stroke-width="4" stroke-miterlimit="10" d="M542.52 160l14 56"/><path fill="none" stroke="#231F20" stroke-width="8" stroke-linecap="round" stroke-linejoin="round" stroke-miterlimit="10" d="M274.52 200h24M362.52 200h10M310.52 200h40M342.52 232h72.002M372.52 244h42M384.52 200h40"/><path fill="#454646" stroke="#231F20" stroke-width="4" stroke-linecap="round" stroke-linejoin="round" stroke-miterlimit="10" d="M568.52 230c0-4.418-3.582-8-8-8l4-4c4.418 0 8 3.582 8 8l-4 4zM552.52 220.128l3.755 1.38c4.146 1.522 8.745-.605 10.267-4.752l4.484-13.11c1.523-4.145-.604-8.743-4.75-10.267L562.52 192l-10 28.128z"/><circle fill="#454646" stroke="#231F20" stroke-width="4" stroke-linecap="round" stroke-linejoin="round" stroke-miterlimit="10" cx="568.52" cy="226" r="4"/><path fill="#F79520" stroke="#231F20" stroke-width="4" stroke-linecap="round" stroke-linejoin="round" stroke-miterlimit="10" d="M666.52 266h20v9h-20z"/><circle fill="#F79520" stroke="#231F20" stroke-width="4" stroke-linecap="round" stroke-linejoin="round" stroke-miterlimit="10" cx="24.52" cy="236" r="8"/><circle fill="#27713A" stroke="#231F20" stroke-width="4" stroke-linecap="round" stroke-linejoin="round" stroke-miterlimit="10" cx="202.52" cy="256" r="8"/><path fill="#5D658A" stroke="#231F20" stroke-width="4" stroke-linecap="round" stroke-linejoin="round" stroke-miterlimit="10" d="M88.52 116.363c0-2.41-1.79-4.363-4-4.363h-58c-2.21 0-4 1.954-4 4.363v83.273c0 2.41 1.79 4.363 4 4.363h58c2.21 0 4-1.955 4-4.364v-83.273z"/><path fill="none" stroke="#ECECEC" stroke-width="8" stroke-linecap="round" stroke-linejoin="round" stroke-miterlimit="10" d="M45.52 122h20"/><path fill="none" stroke="#ECECEC" stroke-width="4" stroke-linecap="round" stroke-linejoin="round" stroke-miterlimit="10" d="M30.52 132h16.002M52.52 132h16.002M74.52 132h2M48.52 140h8M62.52 140h10"/><path fill="none" stroke="#ECECEC" stroke-width="8" stroke-linecap="round" stroke-linejoin="round" stroke-miterlimit="10" d="M52.52 178h6"/><path fill="none" stroke="#ECECEC" stroke-width="4" stroke-linecap="round" stroke-linejoin="round" stroke-miterlimit="10" d="M30.52 188h16.002M52.52 188h16.002M74.52 188h2M30.52 196h12M48.52 196h8M62.52 196h10"/><path fill="none" stroke="#ECECEC" stroke-width="8" stroke-linecap="round" stroke-linejoin="round" stroke-miterlimit="10" d="M45.52 150h20"/><path fill="none" stroke="#ECECEC" stroke-width="4" stroke-linecap="round" stroke-linejoin="round" stroke-miterlimit="10" d="M30.52 160h16.002M52.52 160h8.002M66.52 160h10M30.52 168h12M48.52 168h10M64.52 168h16"/><path fill="#4C81B7" d="M358.7 240.508c-2.234 1.308-2.35 4.994.435 5.76 2.94.81 5.17-3.058 3.02-5.208-.918-.917-2.412-1.128-3.538-.468-1.38.807-1.456 2.32-1.19 3.717.23 1.22-.105 1.603-.89 2.497-.77.878-1.685 1.612-2.823 1.866-3.146.704-1.812 5.524 1.33 4.822 2.364-.53 4.18-2.128 5.71-3.943.844-1.002 1.53-2.005 1.663-3.342.113-1.134-.142-2.167-.158-3.27-.114.42-.23.84-.342 1.26.04-.06.08-.124.12-.187l-1.494 1.15c.098-.02.196-.036.295-.054-.643-.085-1.285-.17-1.927-.253l-.568-.52c-.114-.422-.23-.842-.342-1.263l.005.295c.113-.422.228-.843.34-1.263l.52-.43c.42-.115.84-.23 1.26-.343-.108.008-.218.016-.327.022l1.263.342.592.572.342 1.262-.77 1.294c2.777-1.628.263-5.95-2.527-4.318zM357.878 242.084c-.304.002-.607.008-.91 0-.287-.023-.248-.014.117.028-.564-.092.432.28-.055 0 .522.575.653.683.392.324-.33-.483-.076-.62-.004.373-.036-.497-.064-.998-.213-1.476-.406-1.3-1.73-2.116-3.076-1.746-1.28.353-2.152 1.775-1.747 3.076.206.658.007-.488.035.145.027.59.113 1.093.385 1.618.39.748.887 1.39 1.563 1.897 1 .75 2.316.766 3.512.758 1.362-.01 2.5-1.13 2.5-2.5 0-1.354-1.137-2.508-2.5-2.5zM357.462 244.584c-.75.025-1.56.183-2.188.24-.58.052-.148.06.11.168-.234-.144-.233-.128.003.047-.112-.1-.22-.2-.326-.308-.974-.95-2.562-.972-3.534 0-.955.954-.975 2.584 0 3.535.707.69 1.533 1.302 2.532 1.465 1.19.195 2.318-.11 3.403-.148 1.362-.047 2.5-1.102 2.5-2.5.002-1.327-1.136-2.547-2.498-2.5z"/><path fill="#ECECEC" stroke="#231F20" stroke-width="4" stroke-linecap="round" stroke-linejoin="round" stroke-miterlimit="10" d="M692.522 306l9.97 10v14l-9.972 10h-10v-34z"/><path fill="#6C7071" stroke="#231F20" stroke-width="4" stroke-linecap="round" stroke-linejoin="round" stroke-miterlimit="10" d="M204.52 218l-4-12h24l-4 12zM146.52 218l-4-12h24l-4 12zM122.52 186l-4-28h32l-4 28z"/><path fill="#5D658A" stroke="#231F20" stroke-width="4" stroke-linecap="round" stroke-linejoin="round" stroke-miterlimit="10" d="M174.52 182c0 2.21-1.79 4-4 4h-4c-2.21 0-4-1.79-4-4v-20c0-2.21 1.79-4 4-4h4c2.21 0 4 1.79 4 4v20z"/><path fill="none" stroke="#231F20" stroke-width="4" stroke-linecap="round" stroke-linejoin="round" stroke-miterlimit="10" d="M168.52 158v-7l-1-3"/><g fill="none" stroke-width="4" stroke-linecap="round" stroke-linejoin="round" stroke-miterlimit="10"><g stroke="#EC2127"><path d="M166.97 147M166.97 147"/></g><path stroke="#F16624" d="M161.01 141.037l5.96 5.964M168.48 136.396c.52 4.927-4.243 7.07-1.51 10.605"/><path stroke="#FEDE0F" d="M167.45 141.104c-1.013 2.085-2.155 3.73-.48 5.897M166.97 147M163.297 143.326L166.97 147"/><path stroke="#F16624" d="M168.48 136.396c.52 4.927-4.243 7.07-1.51 10.605"/><path stroke="#FEDE0F" d="M167.45 141.104c-1.013 2.085-2.155 3.73-.48 5.897M163.297 143.326L166.97 147"/><path stroke="#F16624" d="M156.365 148.51c4.928.518 7.072-4.244 10.605-1.51"/><path stroke="#FEDE0F" d="M161.075 147.48c2.084-1.015 3.73-2.156 5.896-.48"/><path stroke="#F16624" d="M156.365 148.51c4.928.518 7.072-4.244 10.605-1.51"/><path stroke="#FEDE0F" d="M161.075 147.48c2.084-1.015 3.73-2.156 5.896-.48M163.297 143.326L166.97 147"/></g></svg>