<svg xmlns="http://www.w3.org/2000/svg" width="356" height="400" viewBox="0.5 0 356 400" enable-background="new 0.5 0 356 400"><path fill="#5A4A42" d="M12.41 277h7.908v104h-7.91z"/><path fill="#966943" d="M20.318 277h7.908v104h-7.908z"/><path fill="#5A4A42" d="M28.227 277h7.91v104h-7.91z"/><path fill="#966943" d="M36.136 277h7.91v104h-7.91z"/><path fill="#5A4A42" d="M44.045 277h7.91v104h-7.91z"/><path fill="#966943" d="M51.955 277h7.91v104h-7.91z"/><path fill="#5A4A42" d="M59.864 277h7.908v104h-7.908z"/><path fill="#966943" d="M67.772 277h7.91v104h-7.91z"/><path fill="#5A4A42" d="M75.682 277h7.91v104h-7.91z"/><path fill="#966943" d="M83.59 277h7.91v104h-7.91z"/><path fill="#5A4A42" d="M91.5 277h7.91v104H91.5z"/><path fill="#966943" d="M99.41 277h7.908v104h-7.91z"/><path fill="#5A4A42" d="M107.318 277h7.908v104h-7.908z"/><path fill="#966943" d="M115.227 277h7.91v104h-7.91z"/><path fill="#5A4A42" d="M123.137 277h7.908v104h-7.908z"/><path fill="#966943" d="M131.045 277h7.91v104h-7.91z"/><path fill="#5A4A42" d="M138.955 277h7.91v104h-7.91z"/><path fill="#966943" d="M146.864 277h7.908v104h-7.908z"/><path fill="#5A4A42" d="M154.772 277h7.91v104h-7.91z"/><path fill="#966943" d="M162.682 277h7.908v104h-7.908z"/><path fill="#5A4A42" d="M170.59 277h7.91v104h-7.91z"/><path fill="#966943" d="M178.5 277h7.91v104h-7.91z"/><path fill="#5A4A42" d="M186.41 277h7.908v104h-7.908z"/><path fill="#966943" d="M194.318 277h7.91v104h-7.91z"/><path fill="#5A4A42" d="M202.23 277h7.907v104h-7.908z"/><path fill="#966943" d="M210.137 277h7.908v104h-7.908z"/><path fill="#5A4A42" d="M218.045 277h7.91v104h-7.91z"/><path fill="#966943" d="M225.955 277h7.908v104h-7.908z"/><path fill="#5A4A42" d="M233.863 277h7.91v104h-7.91z"/><path fill="#966943" d="M241.773 277h7.908v104h-7.907z"/><path fill="#5A4A42" d="M249.682 277h7.908v104h-7.908z"/><path fill="#966943" d="M257.59 277h7.91v104h-7.91z"/><path fill="#5A4A42" d="M265.5 277h7.91v104h-7.91z"/><path fill="#966943" d="M273.41 277h7.908v104h-7.908z"/><path fill="#5A4A42" d="M281.318 277h7.91v104h-7.91z"/><path fill="#966943" d="M289.23 277h7.907v104h-7.908z"/><path fill="#5A4A42" d="M297.137 277h7.908v104h-7.908z"/><path fill="#966943" d="M305.045 277h7.91v104h-7.91z"/><path fill="#5A4A42" d="M312.955 277h7.908v104h-7.908z"/><path fill="#966943" d="M320.863 277h7.91v104h-7.91z"/><path fill="#5A4A42" d="M328.773 277h7.908v104h-7.907z"/><path fill="#966943" d="M336.682 277h7.908v104h-7.908z"/><path fill="#5A4A42" d="M352.5 277h-7.91v104h3.955s5.955 4 3.955-3.852V277z"/><path fill="#966943" d="M12.41 381V277H4.5v100.148S4.545 381 4.5 381h7.91z"/><path fill="#C1BEB4" stroke="#231F20" stroke-width="4" stroke-linecap="round" stroke-linejoin="round" stroke-miterlimit="10" d="M2.5 151h12v124h-12zM342.5 151h12v124h-12z"/><path fill="#FE71B7" stroke="#231F20" stroke-width="4" stroke-linecap="round" stroke-linejoin="round" stroke-miterlimit="10" d="M350.5 107h-4c-52-8-168-60-168-72 0 12-116 64-168 72h-4c-2.21 0-4 1.79-4 4v40h352v-40c0-2.21-1.79-4-4-4z"/><path fill="#ECECEC" stroke="#231F20" stroke-width="4" stroke-linecap="round" stroke-linejoin="round" stroke-miterlimit="10" d="M354.5 147c0 2.21-1.79 4-4 4H6.5c-2.21 0-4-1.79-4-4v-36c0-2.21 1.79-4 4-4h344c2.21 0 4 1.79 4 4v36z"/><path fill="none" stroke="#231F20" stroke-width="4" stroke-linecap="round" stroke-linejoin="round" stroke-miterlimit="10" d="M354.5 379c0 2.21-1.79 4-4 4H6.5c-2.21 0-4-1.79-4-4V275h352v104z"/><path fill="#5B5663" stroke="#231F20" stroke-width="4" stroke-linecap="round" stroke-linejoin="round" stroke-miterlimit="10" d="M14.5 263h328v12h-328z"/><path fill="#C95B97" d="M24.735 129l10.236-20H14.5zM4.5 128.54l10-19.54h-8c-1.103 0-2 .897-2 2v17.54zM65.677 129l10.235-20h-20.47zM45.206 129l10.235-20H34.97zM106.617 129l10.236-20h-20.47zM86.147 129l10.236-20h-20.47zM147.56 129l10.234-20h-20.47zM127.088 129l10.235-20h-20.47zM188.5 129l10.236-20h-20.47zM168.03 129l10.235-20h-20.47zM229.44 129l10.238-20h-20.47zM208.97 129l10.237-20h-20.47zM270.383 129l10.234-20h-20.47zM249.912 129l10.236-20h-20.47zM311.324 129l10.235-20h-20.472zM290.854 129l10.234-20h-20.47zM331.795 129l10.234-20h-20.47z"/><g fill="#C95B97"><path d="M55.44 149l10.237-20h-20.47zM34.97 149l10.236-20h-20.47zM96.382 149l10.235-20h-20.47zM75.912 149l10.235-20h-20.47zM137.323 149l10.236-20h-20.472zM116.853 149l10.235-20h-20.47zM178.265 149l10.235-20h-20.47zM157.794 149l10.235-20h-20.47zM219.207 149l10.234-20h-20.47zM198.736 149l10.235-20H188.5zM260.148 149l10.235-20h-20.47zM239.678 149l10.234-20h-20.47zM301.088 149l10.236-20h-20.47zM280.617 149l10.237-20h-20.47zM342.03 149l10.236-20h-20.47zM321.56 149l10.235-20h-20.47z"/></g><path fill="#C95B97" d="M350.5 109h-8.47l10.235 20 .234-.46V111c0-1.103-.896-2-2-2zM4.5 129v.46l10 19.54 10.235-20z"/><g fill="none" stroke="#1B93C8" stroke-linecap="round" stroke-linejoin="round" stroke-miterlimit="10"><path stroke-width="16" d="M152.5 123h52"/><path stroke-width="8" d="M148.5 139h60"/></g><g stroke-linecap="round" stroke-linejoin="round" stroke-miterlimit="10"><path fill="#454545" stroke="#231F20" stroke-width="4" d="M354.5 267c0-2.408-1.79-4-4-4h-130c-2.21 0-4 1.592-4 4v111.637c0 2.41 1.79 4.363 4 4.363h130c2.21 0 4-1.953 4-4.363V267z"/><g fill="none" stroke="#1B93C8"><path stroke-width="20" d="M262.5 279h46"/><path stroke-width="12" d="M258.5 299h54"/></g><path fill="none" stroke="#ECECEC" stroke-width="4" d="M254.5 315h14"/><path fill="none" stroke="#1B93C8" stroke-width="4" d="M224.5 323h8M240.5 323h8M224.5 331h8M224.5 339h8M240.5 339h28M240.5 331h8M224.5 347h16M224.5 355h20"/><path fill="none" stroke="#1B93C8" stroke-width="8" d="M242.5 369h30"/><path fill="none" stroke="#1B93C8" stroke-width="4" d="M252.5 355h6M266.5 355h14M248.5 347h20M256.5 331h8M272.5 331h8M256.5 323M294.5 323h8M310.5 323h8M294.5 331h8M294.5 339h4M332.5 339h12M306.5 339h18M310.5 331h8M294.5 347h16M294.5 355h20M322.5 355h6M336.5 355h10M318.5 347h20M326.5 331h8M326.5 323"/><path fill="none" stroke="#ECECEC" stroke-width="4" d="M276.5 315h10M294.5 315h22M294.5 363h8M310.5 363h8M326.5 363h20M294.5 371h8M310.5 371h8M326.5 371h8M342.5 371h4"/></g><path fill="#454545" stroke="#231F20" stroke-width="4" stroke-linecap="round" stroke-linejoin="round" stroke-miterlimit="10" d="M66.5 263h-48c-2.21 0-4-1.79-4-4v-22c0-2.21 1.79-4 4-4h16s32 0 32 30z"/><path fill="none" stroke="#231F20" stroke-width="4" stroke-linecap="round" stroke-linejoin="round" stroke-miterlimit="10" d="M64.5 251h8v6h-6"/><path fill="#016938" stroke="#231F20" stroke-width="4" stroke-linecap="round" stroke-linejoin="round" stroke-miterlimit="10" d="M278.5 233v26h-16v-26z"/><path fill="#eee" stroke="#231F20" stroke-width="4" stroke-linecap="round" stroke-linejoin="round" stroke-miterlimit="10" d="M262.5 227h16v6h-16z"/><path fill="#00330D" stroke="#231F20" stroke-width="4" stroke-linecap="round" stroke-linejoin="round" stroke-miterlimit="10" d="M306.5 247v12h-16v-12z"/><path fill="#eee" stroke="#231F20" stroke-width="4" stroke-linecap="round" stroke-linejoin="round" stroke-miterlimit="10" d="M290.5 241h16v6h-16z"/><path fill="#6A1501" stroke="#231F20" stroke-width="4" stroke-linecap="round" stroke-linejoin="round" stroke-miterlimit="10" d="M330.5 255v-12l-6-12-6 12v12s2 4 6 4 6-4 6-4z"/><path fill="#FCEE22" stroke="#231F20" stroke-width="4" stroke-linecap="round" stroke-linejoin="round" stroke-miterlimit="10" d="M324.5 231v-4"/><path fill="#ECECEC" stroke="#231F20" stroke-width="4" stroke-linecap="round" stroke-linejoin="round" stroke-miterlimit="10" d="M328.5 230c0 1.658-1.344 3-3 3h-2c-1.656 0-3-1.342-3-3 0-1.656 1.344-3 3-3h2c1.656 0 3 1.344 3 3zM318.5 245h12v6h-12z"/><path fill="#939A9F" stroke="#231F20" stroke-width="4" stroke-linecap="round" stroke-linejoin="round" stroke-miterlimit="10" d="M184.5 231c0-2.21-1.79-4-4-4h-36c-2.21 0-4 1.79-4 4v8h44v-8z"/><path fill="#6C7071" stroke="#231F20" stroke-width="4" stroke-linecap="round" stroke-linejoin="round" stroke-miterlimit="10" d="M184.5 255c0 2.21-1.79 4-4 4h-36c-2.21 0-4-1.79-4-4v-20h44v20z"/><path fill="none" stroke="#231F20" stroke-width="4" stroke-linecap="round" stroke-linejoin="round" stroke-miterlimit="10" d="M184.5 255c0 2.21-1.79 4-4 4h-36c-2.21 0-4-1.79-4-4v-20h44v20z"/><path fill="#939A9F" stroke="#231F20" stroke-width="4" stroke-linecap="round" stroke-linejoin="round" stroke-miterlimit="10" d="M128.5 239c0-2.21-1.79-4-4-4h-28c-2.21 0-4 1.79-4 4v8h36v-8z"/><path fill="#6C7071" stroke="#231F20" stroke-width="4" stroke-linecap="round" stroke-linejoin="round" stroke-miterlimit="10" d="M128.5 255c0 2.21-1.79 4-4 4h-28c-2.21 0-4-1.79-4-4v-12h36v12z"/><path fill="none" stroke="#231F20" stroke-width="4" stroke-linecap="round" stroke-linejoin="round" stroke-miterlimit="10" d="M128.5 255c0 2.21-1.79 4-4 4h-28c-2.21 0-4-1.79-4-4v-12h36v12z"/><path fill="#6C7071" stroke="#231F20" stroke-width="4" stroke-linecap="round" stroke-linejoin="round" stroke-miterlimit="10" d="M112.5 233c0 1.105-.896 2-2 2s-2-.895-2-2c0-1.104.896-2 2-2s2 .896 2 2zM164.5 225c0 1.105-.896 2-2 2s-2-.895-2-2c0-1.104.896-2 2-2s2 .896 2 2z"/></svg>