<svg xmlns="http://www.w3.org/2000/svg" width="384" height="400" viewBox="-21.5 0 384 400" enable-background="new -21.5 0 384 400"><path fill="#C1BEB4" stroke="#231F20" stroke-width="4" stroke-linecap="round" stroke-linejoin="round" stroke-miterlimit="10" d="M8.5 150h12v148h-12zM348.5 150h12v148h-12z"/><path fill="#454545" stroke="#231F20" stroke-width="4" stroke-linecap="round" stroke-linejoin="round" stroke-miterlimit="10" d="M356.5 106h-4c-52-8-168-60-168-72 0 12-116 64-168 72h-4c-2.21 0-4 1.79-4 4v40h352v-40c0-2.21-1.79-4-4-4z"/><path fill="#333" stroke="#231F20" stroke-width="4" stroke-linecap="round" stroke-linejoin="round" stroke-miterlimit="10" d="M360.5 146c0 2.21-1.79 4-4 4h-344c-2.21 0-4-1.79-4-4v-36c0-2.21 1.79-4 4-4h344c2.21 0 4 1.79 4 4v36z"/><path fill="#ECECEC" stroke="#231F20" stroke-width="4" stroke-linecap="round" stroke-linejoin="round" stroke-miterlimit="10" d="M360.5 378c0 2.21-1.79 4-4 4h-344c-2.21 0-4-1.79-4-4V274h352v104z"/><path fill="#5B5663" stroke="#231F20" stroke-width="4" stroke-linecap="round" stroke-linejoin="round" stroke-miterlimit="10" d="M20.5 262h328v12h-328z"/><g stroke-linecap="round" stroke-linejoin="round" stroke-miterlimit="10"><path fill="none" stroke="#6B3359" stroke-width="24" d="M160.5 322h48"/><path fill="none" stroke="#5C9E90" stroke-width="8" d="M180.5 346h46M238.5 346h18M268.5 346h8"/><path fill="none" stroke="#6B3359" stroke-width="24" d="M240.5 322h64"/><g stroke="#333"><path fill="none" stroke-width="4" d="M124.5 330c0 9.94 0 26-18 26s-18-16.06-18-26h36zM88.5 330v-5.666s-13.223 0-13.223-11.334M75.223 313s0-11.333 11.333-11.333H113M124.445 330v-5.666h1.89c7.823 0 14.165-6.342 14.165-14.167S134.158 296 126.334 296H114.89c-7.556 0-13.223 5.667-13.223 5.667M114.5 322v-6M106.5 322v-6M98.5 322v-6"/><path fill="#6B3359" stroke-width="2" d="M114.5 344.285c0 3.156-3.58 5.715-8 5.715-4.418 0-8-2.56-8-5.715h16z"/><path fill="none" stroke-width="4" d="M98.5 338s2-2 4 0M110.5 338s2-2 4 0"/></g></g><path fill="#454545" stroke="#231F20" stroke-width="4" stroke-linecap="round" stroke-linejoin="round" stroke-miterlimit="10" d="M48.5 228c0-2.41-1.79-4-4-4h-60c-2.21 0-4 1.59-4 4v149.637c0 2.41 1.79 4.363 4 4.363h60c2.21 0 4-1.954 4-4.363V228z"/><path fill="none" stroke="#5C9E90" stroke-width="12" stroke-linecap="round" stroke-linejoin="round" stroke-miterlimit="10" d="M-5.5 236h12"/><path fill="none" stroke="#5C9E90" stroke-width="8" stroke-linecap="round" stroke-linejoin="round" stroke-miterlimit="10" d="M-9.5 270h12M14.5 270h12"/><path fill="none" stroke="#5C9E90" stroke-width="4" stroke-linecap="round" stroke-linejoin="round" stroke-miterlimit="10" d="M-11.5 280h12M8.5 280h12M28.5 280h12M-11.5 296h12M8.5 296h12M28.5 296h12M-11.5 288h12M8.5 288h4M20.5 288h12"/><path fill="none" stroke="#5C9E90" stroke-width="8" stroke-linecap="round" stroke-linejoin="round" stroke-miterlimit="10" d="M-9.5 308h12M30.5 308h8M14.5 308h4"/><path fill="none" stroke="#5C9E90" stroke-width="4" stroke-linecap="round" stroke-linejoin="round" stroke-miterlimit="10" d="M-11.5 318h6M2.5 318h6M16.5 318h6M30.5 318h10M-11.5 334h6M2.5 334h6M16.5 334h6M30.5 334h10M-11.5 326h12M8.5 326h12M28.5 326h12"/><path fill="none" stroke="#5C9E90" stroke-width="8" stroke-linecap="round" stroke-linejoin="round" stroke-miterlimit="10" d="M-9.5 346h12M14.5 346h24"/><path fill="none" stroke="#5C9E90" stroke-width="4" stroke-linecap="round" stroke-linejoin="round" stroke-miterlimit="10" d="M-11.5 356h12M8.5 356h12M28.5 356h12M-11.5 372h12M8.5 372h12M28.5 372h12M-11.5 364h12M8.5 364h4M20.5 364h12"/><path fill="none" stroke="#5C9E90" stroke-width="12" stroke-linecap="round" stroke-linejoin="round" stroke-miterlimit="10" d="M8.5 252h26M22.5 236h12"/><path fill="#939A9F" stroke="#231F20" stroke-width="4" stroke-linecap="round" stroke-linejoin="round" stroke-miterlimit="10" d="M312.5 220h-98v42h6v-36h92v36h6v-42z"/><path fill="#6C7071" stroke="#231F20" stroke-width="4" stroke-linecap="round" stroke-linejoin="round" stroke-miterlimit="10" d="M232.5 258l-4-8h20l-4 8z"/><path fill="#939A9F" stroke="#231F20" stroke-width="4" stroke-linecap="round" stroke-linejoin="round" stroke-miterlimit="10" d="M228.5 244h20v6h-20z"/><path fill="none" stroke="#231F20" stroke-width="4" stroke-linecap="round" stroke-linejoin="round" stroke-miterlimit="10" d="M192.5 238l-12-24"/><path fill="#6C7071" stroke="#231F20" stroke-width="4" stroke-linecap="round" stroke-linejoin="round" stroke-miterlimit="10" d="M260.5 258l-4-8h20l-4 8z"/><path fill="#939A9F" stroke="#231F20" stroke-width="4" stroke-linecap="round" stroke-linejoin="round" stroke-miterlimit="10" d="M256.5 244h20v6h-20z"/><path fill="#6C7071" stroke="#231F20" stroke-width="4" stroke-linecap="round" stroke-linejoin="round" stroke-miterlimit="10" d="M288.5 258l-4-8h20l-4 8z"/><path fill="#939A9F" stroke="#231F20" stroke-width="4" stroke-linecap="round" stroke-linejoin="round" stroke-miterlimit="10" d="M284.5 244h20v6h-20zM202.5 256c0 2.21-1.79 4-4 4h-56c-2.208 0-4-1.79-4-4v-26c0-2.21 1.79-4 4-4h56c2.208 0 4 1.79 4 4v26zM146.5 234h6M160.5 234h6M174.5 234h6M188.5 234h6"/><path fill="#ECECEC" stroke="#231F20" stroke-width="4" stroke-linecap="round" stroke-linejoin="round" stroke-miterlimit="10" d="M114.5 258l12-24c0-2.21-1.79-4-4-4h-48c-2.21 0-4 1.79-4 4l12 24h32z"/><path fill="#939A9F" stroke="#231F20" stroke-width="4" stroke-linecap="round" stroke-linejoin="round" stroke-miterlimit="10" d="M90.5 226c0-4.418 3.582-8 8-8s8 3.582 8 8"/><path fill="#939A9F" stroke="#231F20" stroke-width="4" stroke-linecap="round" stroke-linejoin="round" stroke-miterlimit="10" d="M70.5 226h56v8h-56z"/></svg>