<svg xmlns="http://www.w3.org/2000/svg" width="380" height="400" viewBox="-11.834 0 380 400" enable-background="new -11.834 0 380 400"><path fill="#444646" d="M350.166 106h-4c-52-8-168-60-168-72 0 12-116 64-168 72h-4c-2.21 0-4 1.79-4 4v40h352v-40c0-2.21-1.79-4-4-4z"/><path fill="#231F20" d="M354.166 152h-352c-1.104 0-2-.896-2-2v-40c0-3.31 2.69-6 6-6h3.846c27.592-4.28 71.03-20.457 102.522-34.188 43.548-18.988 63.424-32.373 63.63-35.814v-.05c.026-1.082.912-1.95 2-1.95 1.105 0 2 .898 2 2.003.203 3.436 20.08 16.822 63.632 35.813C275.29 83.543 318.728 99.72 346.32 104h3.846c3.31 0 6 2.69 6 6v40c0 1.104-.896 2-2 2zm-350-4h348v-38c0-1.103-.897-2-2-2h-4c-.102 0-.203-.008-.304-.023C317.8 103.66 273.74 87.25 241.865 73.333c-17.938-7.833-34.188-15.79-45.755-22.41-10.5-6.01-15.564-9.945-17.944-12.69-2.38 2.745-7.443 6.68-17.944 12.69-11.566 6.62-27.816 14.577-45.755 22.41C82.592 87.25 38.533 103.66 10.47 107.977c-.1.016-.203.023-.304.023h-4c-1.103 0-2 .897-2 2v38z"/><path fill="#2B2E31" d="M354.166 146c0 2.21-1.79 4-4 4h-344c-2.21 0-4-1.79-4-4v-36c0-2.21 1.79-4 4-4h344c2.21 0 4 1.79 4 4v36z"/><path fill="#231F20" d="M350.166 152h-344c-3.31 0-6-2.69-6-6v-36c0-3.31 2.69-6 6-6h344c3.31 0 6 2.69 6 6v36c0 3.31-2.692 6-6 6zm-344-44c-1.103 0-2 .897-2 2v36c0 1.103.897 2 2 2h344c1.103 0 2-.897 2-2v-36c0-1.103-.897-2-2-2h-344z"/><path fill="#C1BEB4" d="M2.166 150h12v124h-12z"/><path fill="#231F20" d="M14.166 276h-12c-1.104 0-2-.896-2-2V150c0-1.104.896-2 2-2h12c1.104 0 2 .896 2 2v124c0 1.104-.896 2-2 2zm-10-4h8V152h-8v120z"/><path fill="#C1BEB4" d="M342.166 150h12v124h-12z"/><path fill="#231F20" d="M354.166 276h-12c-1.104 0-2-.896-2-2V150c0-1.104.896-2 2-2h12c1.104 0 2 .896 2 2v124c0 1.104-.896 2-2 2zm-10-4h8V152h-8v120z"/><path fill="#2B2E31" d="M354.166 378c0 2.21-1.79 4-4 4h-344c-2.21 0-4-1.79-4-4V274h352v104z"/><path fill="#231F20" d="M350.166 384h-344c-3.31 0-6-2.69-6-6V274c0-1.104.896-2 2-2h352c1.104 0 2 .896 2 2v104c0 3.31-2.692 6-6 6zm-346-108v102c0 1.103.897 2 2 2h344c1.103 0 2-.897 2-2V276h-348z"/><path fill="#444646" d="M350.166 106h-4c-52-8-168-60-168-72 0 12-116 64-168 72h-4c-2.21 0-4 1.79-4 4v40h352v-40c0-2.21-1.79-4-4-4z"/><path fill="#231F20" d="M354.166 152h-352c-1.104 0-2-.896-2-2v-40c0-3.31 2.69-6 6-6h3.846c27.592-4.28 71.03-20.457 102.522-34.188 43.548-18.988 63.424-32.373 63.63-35.814v-.05c.026-1.082.912-1.95 2-1.95 1.105 0 2 .898 2 2.003.203 3.436 20.08 16.822 63.632 35.813C275.29 83.543 318.728 99.72 346.32 104h3.846c3.31 0 6 2.69 6 6v40c0 1.104-.896 2-2 2zm-350-4h348v-38c0-1.103-.897-2-2-2h-4c-.102 0-.203-.008-.304-.023C317.8 103.66 273.74 87.25 241.865 73.333c-17.938-7.833-34.188-15.79-45.755-22.41-10.5-6.01-15.564-9.945-17.944-12.69-2.38 2.745-7.443 6.68-17.944 12.69-11.566 6.62-27.816 14.577-45.755 22.41C82.592 87.25 38.533 103.66 10.47 107.977c-.1.016-.203.023-.304.023h-4c-1.103 0-2 .897-2 2v38z"/><path fill="#2B2E31" d="M354.166 146c0 2.21-1.79 4-4 4h-344c-2.21 0-4-1.79-4-4v-36c0-2.21 1.79-4 4-4h344c2.21 0 4 1.79 4 4v36z"/><path fill="#231F20" d="M350.166 152h-344c-3.31 0-6-2.69-6-6v-36c0-3.31 2.69-6 6-6h344c3.31 0 6 2.69 6 6v36c0 3.31-2.692 6-6 6zm-344-44c-1.103 0-2 .897-2 2v36c0 1.103.897 2 2 2h344c1.103 0 2-.897 2-2v-36c0-1.103-.897-2-2-2h-344z"/><path fill="#2B2E31" d="M354.166 378c0 2.21-1.79 4-4 4h-344c-2.21 0-4-1.79-4-4V274h352v104z"/><path fill="#231F20" d="M350.166 384h-344c-3.31 0-6-2.69-6-6V274c0-1.104.896-2 2-2h352c1.104 0 2 .896 2 2v104c0 3.31-2.692 6-6 6zm-346-108v102c0 1.103.897 2 2 2h344c1.103 0 2-.897 2-2V276h-348zM354.166 152h-352c-1.104 0-2-.896-2-2v-40c0-3.31 2.69-6 6-6h3.846c27.592-4.28 71.03-20.457 102.522-34.188 43.548-18.988 63.424-32.373 63.63-35.814v-.05c.026-1.082.912-1.95 2-1.95 1.105 0 2 .898 2 2.003.203 3.436 20.08 16.822 63.632 35.813C275.29 83.543 318.728 99.72 346.32 104h3.846c3.31 0 6 2.69 6 6v40c0 1.104-.896 2-2 2zm-350-4h348v-38c0-1.103-.897-2-2-2h-4c-.102 0-.203-.008-.304-.023C317.8 103.66 273.74 87.25 241.865 73.333c-17.938-7.833-34.188-15.79-45.755-22.41-10.5-6.01-15.564-9.945-17.944-12.69-2.38 2.745-7.443 6.68-17.944 12.69-11.566 6.62-27.816 14.577-45.755 22.41C82.592 87.25 38.533 103.66 10.47 107.977c-.1.016-.203.023-.304.023h-4c-1.103 0-2 .897-2 2v38zM350.166 152h-344c-3.31 0-6-2.69-6-6v-36c0-3.31 2.69-6 6-6h344c3.31 0 6 2.69 6 6v36c0 3.31-2.692 6-6 6zm-344-44c-1.103 0-2 .897-2 2v36c0 1.103.897 2 2 2h344c1.103 0 2-.897 2-2v-36c0-1.103-.897-2-2-2h-344zM350.166 384h-344c-3.31 0-6-2.69-6-6V274c0-1.104.896-2 2-2h352c1.104 0 2 .896 2 2v104c0 3.31-2.692 6-6 6zm-346-108v102c0 1.103.897 2 2 2h344c1.103 0 2-.897 2-2V276h-348z"/><path fill="#B9B095" d="M278.166 262v-8h36v8"/><path fill="#231F20" d="M314.166 264c-1.104 0-2-.896-2-2v-6h-32v6c0 1.104-.896 2-2 2s-2-.896-2-2v-8c0-1.104.896-2 2-2h36c1.104 0 2 .896 2 2v8c0 1.104-.896 2-2 2z"/><path fill="#5A4A42" d="M14.166 262h328v12h-328z"/><path fill="#231F20" d="M342.166 276h-328c-1.104 0-2-.896-2-2v-12c0-1.104.896-2 2-2h328c1.104 0 2 .896 2 2v12c0 1.104-.896 2-2 2zm-326-4h324v-8h-324v8z"/><path fill="none" stroke="#231F20" stroke-width="4" stroke-linecap="round" stroke-linejoin="round" stroke-miterlimit="10" d="M274.166 234"/><path fill="#6C7071" d="M286.166 254l-4-12h28l-4 12z"/><path fill="#231F20" d="M306.166 256h-20c-.86 0-1.625-.55-1.897-1.367l-4-12c-.204-.61-.102-1.28.274-1.802.376-.52.98-.83 1.622-.83h28c.643 0 1.246.31 1.622.83.376.522.48 1.192.275 1.803l-4 12c-.272.816-1.036 1.367-1.897 1.367zm-18.56-4h17.118l2.667-8h-22.45l2.667 8z"/><path fill="#6C7071" d="M282.166 242h-16"/><path fill="#231F20" d="M282.166 244h-16c-1.104 0-2-.896-2-2s.896-2 2-2h16c1.104 0 2 .896 2 2s-.896 2-2 2z"/><path fill="#B9B095" d="M114.166 242l4 16h24l4-16z"/><path fill="#231F20" d="M142.166 260h-24c-.918 0-1.718-.625-1.94-1.515l-4-16c-.15-.598-.015-1.23.364-1.716.38-.486.96-.77 1.576-.77h32c.616 0 1.197.283 1.576.77.38.484.514 1.117.364 1.715l-4 16c-.222.89-1.022 1.515-1.94 1.515zm-22.44-4h20.878l3-12h-26.877l3 12z"/><path fill="#BE202E" d="M136.166 249h-12c-.38 0-.725-.214-.895-.553l-2-4c-.246-.494-.046-1.095.448-1.342.495-.246 1.095-.046 1.342.447l1.724 3.447h10.764l1.724-3.448c.247-.493.847-.693 1.342-.447.494.247.694.848.447 1.342l-2 4c-.17.34-.515.553-.894.553z"/><path fill="#231F20" d="M150.166 244h-40c-1.104 0-2-.896-2-2s.896-2 2-2h40c1.104 0 2 .896 2 2s-.896 2-2 2z"/><path fill="#B9B095" d="M94.166 254c0 2.21-1.79 4-4 4h-20c-2.21 0-4-1.79-4-4v-16c0-2.21 1.79-4 4-4h20c2.21 0 4 1.79 4 4v16z"/><path fill="#231F20" d="M90.166 260h-20c-3.31 0-6-2.69-6-6v-16c0-3.31 2.69-6 6-6h20c3.31 0 6 2.69 6 6v16c0 3.31-2.692 6-6 6zm-20-24c-1.103 0-2 .897-2 2v16c0 1.103.897 2 2 2h20c1.103 0 2-.897 2-2v-16c0-1.103-.897-2-2-2h-20z"/><path fill="#B9B095" d="M66.166 242h28"/><path fill="#231F20" d="M94.166 244h-28c-1.104 0-2-.896-2-2s.896-2 2-2h28c1.104 0 2 .896 2 2s-.896 2-2 2z"/><path fill="#282561" d="M86.166 251h-12c-.552 0-1-.447-1-1s.448-1 1-1h12c.552 0 1 .447 1 1s-.448 1-1 1z"/><path fill="#B77A4C" d="M30.166 214c0 2.21-1.79 4-4 4h-32c-2.21 0-4-1.79-4-4v-52c0-2.21 1.79-4 4-4h32c2.21 0 4 1.79 4 4v52z"/><path d="M26.166 220h-32c-3.31 0-6-2.69-6-6v-52c0-3.31 2.69-6 6-6h32c3.31 0 6 2.69 6 6v52c0 3.31-2.692 6-6 6zm-32-60c-1.103 0-2 .897-2 2v52c0 1.103.897 2 2 2h32c1.103 0 2-.897 2-2v-52c0-1.103-.897-2-2-2h-32z"/><path fill="#B77A4C" d="M366.166 226c0 2.21-1.79 4-4 4h-32c-2.21 0-4-1.79-4-4v-52c0-2.21 1.79-4 4-4h32c2.21 0 4 1.79 4 4v52z"/><path d="M362.166 232h-32c-3.31 0-6-2.69-6-6v-52c0-3.31 2.69-6 6-6h32c3.31 0 6 2.69 6 6v52c0 3.31-2.692 6-6 6zm-32-60c-1.103 0-2 .897-2 2v52c0 1.103.897 2 2 2h32c1.103 0 2-.897 2-2v-52c0-1.103-.897-2-2-2h-32z"/><path fill="#B77A4C" d="M186.166 378c0 2.21-1.79 4-4 4h-44c-2.21 0-4-1.79-4-4V278c0-2.21 1.79-4 4-4h44c2.21 0 4 1.79 4 4v100z"/><path d="M182.166 384h-44c-3.31 0-6-2.69-6-6V278c0-3.31 2.69-6 6-6h44c3.31 0 6 2.69 6 6v100c0 3.31-2.692 6-6 6zm-44-108c-1.103 0-2 .897-2 2v100c0 1.103.897 2 2 2h44c1.103 0 2-.897 2-2V278c0-1.103-.897-2-2-2h-44z"/><circle cx="154.166" cy="294" r="8"/><path fill="#231F20" d="M154.166 304c-5.514 0-10-4.486-10-10s4.486-10 10-10 10 4.486 10 10-4.486 10-10 10zm0-16c-3.31 0-6 2.69-6 6s2.69 6 6 6 6-2.69 6-6-2.692-6-6-6z"/><path fill="#B77A4C" d="M334.166 134.363c0-2.41-1.79-4.363-4-4.363h-284c-2.21 0-4 1.954-4 4.363v39.273c0 2.41 1.79 4.363 4 4.363h284c2.21 0 4-1.955 4-4.364v-39.273z"/><path d="M330.166 180h-284c-3.31 0-6-2.854-6-6.363v-39.273c0-3.51 2.69-6.363 6-6.363h284c3.31 0 6 2.855 6 6.364v39.273c0 3.51-2.692 6.363-6 6.363zm-284-48c-1.103 0-2 1.06-2 2.363v39.273c0 1.303.897 2.363 2 2.363h284c1.103 0 2-1.06 2-2.364v-39.273c0-1.303-.897-2.363-2-2.363h-284z"/><path fill="#2B2E31" d="M146.166 314h20"/><path fill="#231F20" d="M166.166 316h-20c-1.104 0-2-.896-2-2s.896-2 2-2h20c1.104 0 2 .896 2 2s-.896 2-2 2z"/><path fill="#2B2E31" d="M-1.834 166h20"/><path fill="#231F20" d="M18.166 168h-20c-1.104 0-2-.896-2-2s.896-2 2-2h20c1.104 0 2 .896 2 2s-.896 2-2 2z"/><path fill="#2B2E31" d="M146.166 322h32"/><path fill="#231F20" d="M178.166 323h-32c-.552 0-1-.447-1-1s.448-1 1-1h32c.553 0 1 .447 1 1s-.447 1-1 1z"/><path fill="#2B2E31" d="M146.166 326h32"/><path fill="#231F20" d="M178.166 327h-32c-.552 0-1-.447-1-1s.448-1 1-1h32c.553 0 1 .447 1 1s-.447 1-1 1z"/><path fill="#2B2E31" d="M146.166 330h24"/><path fill="#231F20" d="M170.166 331h-24c-.552 0-1-.447-1-1s.448-1 1-1h24c.552 0 1 .447 1 1s-.448 1-1 1z"/><path fill="#2B2E31" d="M146.166 334h12"/><path fill="#231F20" d="M158.166 335h-12c-.552 0-1-.447-1-1s.448-1 1-1h12c.552 0 1 .447 1 1s-.448 1-1 1z"/><path fill="#B77A4C" d="M246.166 378c0 2.21-1.79 4-4 4h-44c-2.21 0-4-1.79-4-4V278c0-2.21 1.79-4 4-4h44c2.21 0 4 1.79 4 4v100z"/><path d="M242.166 384h-44c-3.31 0-6-2.69-6-6V278c0-3.31 2.69-6 6-6h44c3.31 0 6 2.69 6 6v100c0 3.31-2.692 6-6 6zm-44-108c-1.103 0-2 .897-2 2v100c0 1.103.897 2 2 2h44c1.103 0 2-.897 2-2V278c0-1.103-.897-2-2-2h-44z"/><circle cx="214.166" cy="294" r="8"/><path fill="#231F20" d="M214.166 304c-5.514 0-10-4.486-10-10s4.486-10 10-10 10 4.486 10 10-4.487 10-10 10zm0-16c-3.31 0-6 2.69-6 6s2.69 6 6 6 6-2.69 6-6-2.692-6-6-6z"/><path fill="#2B2E31" d="M206.166 314h20"/><path fill="#231F20" d="M226.166 316h-20c-1.104 0-2-.896-2-2s.896-2 2-2h20c1.104 0 2 .896 2 2s-.896 2-2 2z"/><path fill="#2B2E31" d="M206.166 322h32"/><path fill="#231F20" d="M238.166 323h-32c-.553 0-1-.447-1-1s.447-1 1-1h32c.553 0 1 .447 1 1s-.447 1-1 1z"/><path fill="#2B2E31" d="M206.166 326h32"/><path fill="#231F20" d="M238.166 327h-32c-.553 0-1-.447-1-1s.447-1 1-1h32c.553 0 1 .447 1 1s-.447 1-1 1z"/><path fill="#2B2E31" d="M206.166 330h24"/><path fill="#231F20" d="M230.166 331h-24c-.553 0-1-.447-1-1s.447-1 1-1h24c.553 0 1 .447 1 1s-.447 1-1 1z"/><path fill="#2B2E31" d="M206.166 334h12"/><path fill="#231F20" d="M218.166 335h-12c-.553 0-1-.447-1-1s.447-1 1-1h12c.553 0 1 .447 1 1s-.447 1-1 1z"/><circle cx="346.166" cy="198" r="16"/><g fill="#ECECEC"><path d="M350.166 194h-13c-1.104 0-2-.896-2-2s.896-2 2-2h13c1.104 0 2 .896 2 2s-.896 2-2 2zM342.166 200h-5c-1.104 0-2-.896-2-2s.896-2 2-2h5c1.104 0 2 .896 2 2s-.896 2-2 2zM350.166 206h-13c-1.104 0-2-.896-2-2s.896-2 2-2h13c1.104 0 2 .896 2 2s-.896 2-2 2z"/></g><path d="M114.166 158h-60c-2.21 0-4-1.79-4-4s1.79-4 4-4h60c2.21 0 4 1.79 4 4s-1.79 4-4 4zM210.166 158h-60c-2.21 0-4-1.79-4-4s1.79-4 4-4h60c2.21 0 4 1.79 4 4s-1.79 4-4 4zM278.166 146h-28c-2.21 0-4-1.79-4-4s1.79-4 4-4h28c2.21 0 4 1.79 4 4s-1.79 4-4 4zM322.166 170h-28c-2.21 0-4-1.79-4-4s1.79-4 4-4h28c2.21 0 4 1.79 4 4s-1.79 4-4 4zM290.166 158h-12c-2.21 0-4-1.79-4-4s1.79-4 4-4h12c2.21 0 4 1.79 4 4s-1.79 4-4 4zM138.166 156h-12c-1.104 0-2-.896-2-2s.896-2 2-2h12c1.104 0 2 .896 2 2s-.896 2-2 2zM234.166 152h-12c-1.104 0-2-.896-2-2s.896-2 2-2h12c1.104 0 2 .896 2 2s-.896 2-2 2zM234.166 160h-12c-1.104 0-2-.896-2-2s.896-2 2-2h12c1.104 0 2 .896 2 2s-.896 2-2 2zM132.166 162c-1.104 0-2-.896-2-2v-12c0-1.104.896-2 2-2s2 .896 2 2v12c0 1.104-.896 2-2 2z"/><g fill="#231F20"><path d="M5.572 175.424c-2.234 1.308-2.348 4.994.435 5.76 2.94.808 5.17-3.058 3.02-5.21-.918-.916-2.413-1.127-3.54-.467-1.378.808-1.455 2.32-1.19 3.718.23 1.22-.104 1.603-.89 2.498-.768.877-1.684 1.612-2.822 1.866-3.146.703-1.812 5.523 1.33 4.82 2.364-.53 4.178-2.127 5.708-3.943.845-1.002 1.532-2.005 1.665-3.342.112-1.134-.142-2.167-.158-3.27-.114.42-.228.84-.34 1.26l.12-.188c-.5.383-.997.766-1.495 1.15.1-.02.197-.036.296-.054l-1.925-.252c-.19-.172-.38-.346-.568-.52-.114-.42-.228-.84-.34-1.262 0 .098.002.196.004.294.115-.42.23-.84.342-1.262l.518-.43c.42-.115.84-.23 1.262-.342l-.328.023c.42.115.84.23 1.262.342.197.19.394.38.59.572.115.42.23.84.342 1.262l-.77 1.293c2.778-1.625.263-5.948-2.526-4.316zM4.75 177c-.304.002-.607.007-.91 0-.287-.023-.248-.013.117.028-.565-.092.43.28-.055 0 .523.575.654.683.392.324-.33-.483-.077-.62-.003.373-.036-.496-.064-.997-.213-1.474-.405-1.3-1.728-2.116-3.075-1.745-1.28.352-2.152 1.774-1.746 3.075.206.66.006-.488.035.145.028.59.113 1.096.386 1.62.39.748.886 1.39 1.563 1.897 1 .75 2.315.766 3.51.758 1.364-.01 2.5-1.13 2.5-2.5 0-1.356-1.137-2.51-2.5-2.5zM4.334 179.5c-.75.026-1.56.182-2.188.24-.58.052-.148.06.11.168-.234-.144-.233-.128.003.047-.113-.098-.222-.2-.327-.307-.975-.952-2.563-.972-3.535 0-.955.954-.975 2.583 0 3.535.707.69 1.534 1.302 2.533 1.465 1.192.195 2.32-.11 3.404-.148 1.362-.047 2.5-1.102 2.5-2.5 0-1.327-1.137-2.547-2.5-2.5z"/></g><path fill="#231F20" d="M12.166 204.667c0 2.945-2.388 5.333-5.333 5.333H1.5c-2.946 0-5.334-2.388-5.334-5.333v-5.334c0-2.945 2.388-5.333 5.333-5.333H6.83c2.945 0 5.333 2.388 5.333 5.333v5.334z"/></svg>