<?xml version="1.0" encoding="utf-8"?>
<!-- Generator: Adobe Illustrator 16.0.1, SVG Export Plug-In . SVG Version: 6.00 Build 0)  -->
<!DOCTYPE svg PUBLIC "-//W3C//DTD SVG 1.1//EN" "http://www.w3.org/Graphics/SVG/1.1/DTD/svg11.dtd">
<svg version="1.1" id="Layer_1" xmlns="http://www.w3.org/2000/svg" xmlns:xlink="http://www.w3.org/1999/xlink" x="0px" y="0px"
	 width="356px" height="400px" viewBox="0.5 0.5 356 400" enable-background="new 0.5 0.5 356 400" xml:space="preserve">
<rect x="2.5" y="150.547" fill="#C1BEB4" stroke="#231F20" stroke-width="4" stroke-linecap="round" stroke-linejoin="round" stroke-miterlimit="10" width="12" height="148"/>
<rect x="342.5" y="150.547" fill="#C1BEB4" stroke="#231F20" stroke-width="4" stroke-linecap="round" stroke-linejoin="round" stroke-miterlimit="10" width="12" height="148"/>
<path fill="#454545" stroke="#231F20" stroke-width="4" stroke-linecap="round" stroke-linejoin="round" stroke-miterlimit="10" d="
	M350.5,107h-4c-52-8-168-60-168-72c0,12-116,64-168,72h-4c-2.209,0-4,1.791-4,4v40h176h176v-40C354.5,108.791,352.709,107,350.5,107
	z"/>
<path fill="#333333" stroke="#231F20" stroke-width="4" stroke-linecap="round" stroke-linejoin="round" stroke-miterlimit="10" d="
	M354.5,146.547c0,2.209-1.791,4-4,4H6.5c-2.209,0-4-1.791-4-4v-36c0-2.209,1.791-4,4-4h344c2.209,0,4,1.791,4,4V146.547z"/>
<path fill="#AB9473" stroke="#231F20" stroke-width="4" stroke-miterlimit="10" d="M354.5,378.547c0,2.209-1.791,4-4,4H6.5
	c-2.209,0-4-1.791-4-4v-104c0,0,1.791,0,4,0h344c2.209,0,4,0,4,0V378.547z"/>
<rect x="14.5" y="262.547" fill="#5A4A42" stroke="#231F20" stroke-width="4" stroke-linecap="round" stroke-linejoin="round" stroke-miterlimit="10" width="328" height="12"/>
<g opacity="0.5">
	<circle opacity="0.2" fill="#E6C68D" cx="18.5" cy="288.713" r="8"/>
	<circle opacity="0.2" fill="#E6C68D" cx="18.5" cy="308.713" r="8"/>
	<circle opacity="0.2" fill="#E6C68D" cx="18.5" cy="328.713" r="8"/>
	<circle opacity="0.2" fill="#E6C68D" cx="18.5" cy="348.713" r="8"/>
	<circle opacity="0.2" fill="#E6C68D" cx="18.5" cy="368.713" r="8"/>
	<circle opacity="0.2" fill="#E6C68D" cx="38.5" cy="288.713" r="8"/>
	<circle opacity="0.2" fill="#E6C68D" cx="38.5" cy="308.713" r="8"/>
	<circle opacity="0.2" fill="#E6C68D" cx="38.5" cy="328.713" r="8"/>
	<circle opacity="0.2" fill="#E6C68D" cx="38.5" cy="348.713" r="8"/>
	<circle opacity="0.2" fill="#E6C68D" cx="38.5" cy="368.713" r="8"/>
	<circle opacity="0.2" fill="#E6C68D" cx="58.5" cy="288.713" r="8"/>
	<circle opacity="0.2" fill="#E6C68D" cx="58.5" cy="308.713" r="8"/>
	<circle opacity="0.2" fill="#E6C68D" cx="58.5" cy="328.713" r="8"/>
	<circle opacity="0.2" fill="#E6C68D" cx="58.5" cy="348.713" r="8"/>
	<circle opacity="0.2" fill="#E6C68D" cx="58.5" cy="368.713" r="8"/>
	<circle opacity="0.2" fill="#E6C68D" cx="78.5" cy="288.713" r="8"/>
	<circle opacity="0.2" fill="#E6C68D" cx="78.5" cy="308.713" r="8"/>
	<circle opacity="0.2" fill="#E6C68D" cx="78.5" cy="328.713" r="8"/>
	<circle opacity="0.2" fill="#E6C68D" cx="78.5" cy="348.713" r="8"/>
	<circle opacity="0.2" fill="#E6C68D" cx="78.5" cy="368.713" r="8"/>
	<circle opacity="0.2" fill="#E6C68D" cx="98.5" cy="288.713" r="8"/>
	<circle opacity="0.2" fill="#E6C68D" cx="98.5" cy="308.713" r="8"/>
	<circle opacity="0.2" fill="#E6C68D" cx="98.5" cy="328.713" r="8"/>
	<circle opacity="0.2" fill="#E6C68D" cx="98.5" cy="348.713" r="8"/>
	<circle opacity="0.2" fill="#E6C68D" cx="98.5" cy="368.713" r="8"/>
	<circle opacity="0.2" fill="#E6C68D" cx="118.5" cy="288.713" r="8"/>
	<circle opacity="0.2" fill="#E6C68D" cx="118.5" cy="308.713" r="8"/>
	<circle opacity="0.2" fill="#E6C68D" cx="118.5" cy="328.713" r="8"/>
	<circle opacity="0.2" fill="#E6C68D" cx="118.5" cy="348.713" r="8"/>
	<circle opacity="0.2" fill="#E6C68D" cx="118.5" cy="368.713" r="8"/>
	<circle opacity="0.2" fill="#E6C68D" cx="138.5" cy="288.713" r="8"/>
	<circle opacity="0.2" fill="#E6C68D" cx="138.5" cy="308.713" r="8"/>
	<circle opacity="0.2" fill="#E6C68D" cx="138.5" cy="328.713" r="8"/>
	<circle opacity="0.2" fill="#E6C68D" cx="138.5" cy="348.713" r="8"/>
	<circle opacity="0.2" fill="#E6C68D" cx="138.5" cy="368.713" r="8"/>
	<circle opacity="0.2" fill="#E6C68D" cx="158.5" cy="288.713" r="8"/>
	<circle opacity="0.2" fill="#E6C68D" cx="158.5" cy="308.713" r="8"/>
	<circle opacity="0.2" fill="#E6C68D" cx="158.5" cy="328.713" r="8"/>
	<circle opacity="0.2" fill="#E6C68D" cx="158.5" cy="348.713" r="8"/>
	<circle opacity="0.2" fill="#E6C68D" cx="158.5" cy="368.713" r="8"/>
	<circle opacity="0.2" fill="#E6C68D" cx="178.5" cy="288.713" r="8"/>
	<circle opacity="0.2" fill="#E6C68D" cx="178.5" cy="308.713" r="8"/>
	<circle opacity="0.2" fill="#E6C68D" cx="178.5" cy="328.713" r="8"/>
	<circle opacity="0.2" fill="#E6C68D" cx="178.5" cy="348.713" r="8"/>
	<circle opacity="0.2" fill="#E6C68D" cx="178.5" cy="368.713" r="8"/>
	<circle opacity="0.2" fill="#E6C68D" cx="198.5" cy="288.713" r="8"/>
	<circle opacity="0.2" fill="#E6C68D" cx="198.5" cy="308.713" r="8"/>
	<circle opacity="0.2" fill="#E6C68D" cx="198.5" cy="328.713" r="8"/>
	<circle opacity="0.2" fill="#E6C68D" cx="198.5" cy="348.713" r="8"/>
	<circle opacity="0.2" fill="#E6C68D" cx="198.5" cy="368.713" r="8"/>
	<circle opacity="0.2" fill="#E6C68D" cx="218.5" cy="288.713" r="8"/>
	<circle opacity="0.2" fill="#E6C68D" cx="218.5" cy="308.713" r="8"/>
	<circle opacity="0.2" fill="#E6C68D" cx="218.5" cy="328.713" r="8"/>
	<circle opacity="0.2" fill="#E6C68D" cx="218.5" cy="348.713" r="8"/>
	<circle opacity="0.2" fill="#E6C68D" cx="218.5" cy="368.713" r="8"/>
	<circle opacity="0.2" fill="#E6C68D" cx="238.5" cy="288.713" r="8"/>
	<circle opacity="0.2" fill="#E6C68D" cx="238.5" cy="308.713" r="8"/>
	<circle opacity="0.2" fill="#E6C68D" cx="238.5" cy="328.713" r="8"/>
	<circle opacity="0.2" fill="#E6C68D" cx="238.5" cy="348.713" r="8"/>
	<circle opacity="0.2" fill="#E6C68D" cx="238.5" cy="368.713" r="8"/>
	<circle opacity="0.2" fill="#E6C68D" cx="258.5" cy="288.713" r="8"/>
	<circle opacity="0.2" fill="#E6C68D" cx="258.5" cy="308.713" r="8"/>
	<circle opacity="0.2" fill="#E6C68D" cx="258.5" cy="328.713" r="8"/>
	<circle opacity="0.2" fill="#E6C68D" cx="258.5" cy="348.713" r="8"/>
	<circle opacity="0.2" fill="#E6C68D" cx="258.5" cy="368.713" r="8"/>
	<circle opacity="0.2" fill="#E6C68D" cx="278.5" cy="288.713" r="8"/>
	<circle opacity="0.2" fill="#E6C68D" cx="278.5" cy="308.713" r="8"/>
	<circle opacity="0.2" fill="#E6C68D" cx="278.5" cy="328.713" r="8"/>
	<circle opacity="0.2" fill="#E6C68D" cx="278.5" cy="348.713" r="8"/>
	<circle opacity="0.2" fill="#E6C68D" cx="278.5" cy="368.713" r="8"/>
	<circle opacity="0.2" fill="#E6C68D" cx="298.5" cy="288.713" r="8"/>
	<circle opacity="0.2" fill="#E6C68D" cx="298.5" cy="308.713" r="8"/>
	<circle opacity="0.2" fill="#E6C68D" cx="298.5" cy="328.713" r="8"/>
	<circle opacity="0.2" fill="#E6C68D" cx="298.5" cy="348.713" r="8"/>
	<circle opacity="0.2" fill="#E6C68D" cx="298.5" cy="368.713" r="8"/>
	<circle opacity="0.2" fill="#E6C68D" cx="318.5" cy="288.713" r="8"/>
	<circle opacity="0.2" fill="#E6C68D" cx="318.5" cy="308.713" r="8"/>
	<circle opacity="0.2" fill="#E6C68D" cx="318.5" cy="328.713" r="8"/>
	<circle opacity="0.2" fill="#E6C68D" cx="318.5" cy="348.713" r="8"/>
	<circle opacity="0.2" fill="#E6C68D" cx="318.5" cy="368.713" r="8"/>
	<circle opacity="0.2" fill="#E6C68D" cx="338.5" cy="288.713" r="8"/>
	<circle opacity="0.2" fill="#E6C68D" cx="338.5" cy="308.713" r="8"/>
	<circle opacity="0.2" fill="#E6C68D" cx="338.5" cy="328.713" r="8"/>
	<circle opacity="0.2" fill="#E6C68D" cx="338.5" cy="348.713" r="8"/>
	<circle opacity="0.2" fill="#E6C68D" cx="338.5" cy="368.713" r="8"/>
</g>
<g>
	
		<polyline fill="none" stroke="#ECECEC" stroke-width="4" stroke-linecap="round" stroke-linejoin="round" stroke-miterlimit="10" points="
		218.5,289.547 184.5,289.547 184.5,295.547 	"/>
	
		<polyline fill="none" stroke="#ECECEC" stroke-width="4" stroke-linecap="round" stroke-linejoin="round" stroke-miterlimit="10" points="
		192.5,295.547 218.5,295.547 218.5,367.547 	"/>
	
		<polyline fill="none" stroke="#ECECEC" stroke-width="4" stroke-linecap="round" stroke-linejoin="round" stroke-miterlimit="10" points="
		210.5,301.547 192.5,301.547 192.5,307.547 212.5,307.547 212.5,367.547 	"/>
	
		<polyline fill="none" stroke="#ECECEC" stroke-width="4" stroke-linecap="round" stroke-linejoin="round" stroke-miterlimit="10" points="
		206.5,367.547 206.5,337.547 198.5,337.547 	"/>
	
		<line fill="none" stroke="#ECECEC" stroke-width="4" stroke-linecap="round" stroke-linejoin="round" stroke-miterlimit="10" x1="174.5" y1="331.547" x2="184.5" y2="321.547"/>
	
		<line fill="none" stroke="#ECECEC" stroke-width="4" stroke-linecap="round" stroke-linejoin="round" stroke-miterlimit="10" x1="184.5" y1="331.547" x2="174.5" y2="321.547"/>
	
		<polyline fill="none" stroke="#ECECEC" stroke-width="4" stroke-linecap="round" stroke-linejoin="round" stroke-miterlimit="10" points="
		184.5,337.547 174.5,347.547 179.5,352.547 184.5,347.547 174.5,337.547 	"/>
	
		<polyline fill="none" stroke="#ECECEC" stroke-width="4" stroke-linecap="round" stroke-linejoin="round" stroke-miterlimit="10" points="
		190.5,321.547 200.5,331.547 205.5,326.547 200.5,321.547 190.5,331.547 	"/>
	
		<polyline fill="none" stroke="#ECECEC" stroke-width="4" stroke-linecap="round" stroke-linejoin="round" stroke-miterlimit="10" points="
		169.5,331.545 159.5,321.545 154.5,326.545 159.5,331.545 169.5,321.545 	"/>
	
		<polyline fill="none" stroke="#ECECEC" stroke-width="4" stroke-linecap="round" stroke-linejoin="round" stroke-miterlimit="10" points="
		174.5,315.547 184.5,305.547 179.5,300.547 174.5,305.547 184.5,315.547 	"/>
	
		<rect x="168.5" y="315.547" fill="none" stroke="#ECECEC" stroke-width="4" stroke-linecap="round" stroke-linejoin="round" stroke-miterlimit="10" width="6" height="6"/>
	
		<rect x="168.5" y="331.547" fill="none" stroke="#ECECEC" stroke-width="4" stroke-linecap="round" stroke-linejoin="round" stroke-miterlimit="10" width="6" height="6"/>
	
		<rect x="184.5" y="331.547" fill="none" stroke="#ECECEC" stroke-width="4" stroke-linecap="round" stroke-linejoin="round" stroke-miterlimit="10" width="6" height="6"/>
	
		<rect x="184.5" y="315.547" fill="none" stroke="#ECECEC" stroke-width="4" stroke-linecap="round" stroke-linejoin="round" stroke-miterlimit="10" width="6" height="6"/>
	
		<line fill="none" stroke="#ECECEC" stroke-width="4" stroke-linecap="round" stroke-linejoin="round" stroke-miterlimit="10" x1="138.5" y1="361.547" x2="162.5" y2="361.547"/>
	
		<polyline fill="none" stroke="#ECECEC" stroke-width="4" stroke-linecap="round" stroke-linejoin="round" stroke-miterlimit="10" points="
		138.5,289.547 138.5,355.547 150.5,355.547 150.5,349.547 144.5,349.547 144.5,355.547 	"/>
	
		<line fill="none" stroke="#ECECEC" stroke-width="4" stroke-linecap="round" stroke-linejoin="round" stroke-miterlimit="10" x1="144.5" y1="289.547" x2="144.5" y2="301.547"/>
	
		<line fill="none" stroke="#ECECEC" stroke-width="4" stroke-linecap="round" stroke-linejoin="round" stroke-miterlimit="10" x1="150.5" y1="289.547" x2="150.5" y2="301.547"/>
	
		<polyline fill="none" stroke="#ECECEC" stroke-width="4" stroke-linecap="round" stroke-linejoin="round" stroke-miterlimit="10" points="
		144.5,307.547 144.5,329.547 150.5,329.547 	"/>
	
		<polyline fill="none" stroke="#ECECEC" stroke-width="4" stroke-linecap="round" stroke-linejoin="round" stroke-miterlimit="10" points="
		150.5,307.547 150.5,319.547 154.5,319.547 	"/>
	
		<polyline fill="none" stroke="#ECECEC" stroke-width="4" stroke-linecap="round" stroke-linejoin="round" stroke-miterlimit="10" points="
		160.5,289.547 172.5,289.547 172.5,295.547 	"/>
	
		<line fill="none" stroke="#ECECEC" stroke-width="4" stroke-linecap="round" stroke-linejoin="round" stroke-miterlimit="10" x1="172.5" y1="365.547" x2="172.5" y2="353.547"/>
	
		<polyline fill="none" stroke="#ECECEC" stroke-width="4" stroke-linecap="round" stroke-linejoin="round" stroke-miterlimit="10" points="
		206.5,367.547 182.5,367.547 182.5,359.547 206.5,359.547 	"/>
	
		<polyline fill="none" stroke="#ECECEC" stroke-width="4" stroke-linecap="round" stroke-linejoin="round" stroke-miterlimit="10" points="
		190.5,359.547 190.5,349.547 196.5,349.547 196.5,353.547 	"/>
</g>
<path fill="#454545" stroke="#231F20" stroke-width="4" stroke-linecap="round" stroke-linejoin="round" stroke-miterlimit="10" d="
	M72.5,162.547c0-2.409-1.791-4-4-4h-50c-2.209,0-4,1.591-4,4v107.637c0,2.409,1.791,4.363,4,4.363h50c2.209,0,4-1.954,4-4.363
	V162.547z"/>
<line fill="none" stroke="#848792" stroke-width="8" stroke-linecap="round" stroke-linejoin="round" stroke-miterlimit="10" x1="24.5" y1="168.547" x2="44.5" y2="168.547"/>
<line fill="none" stroke="#848792" stroke-width="8" stroke-linecap="round" stroke-linejoin="round" stroke-miterlimit="10" x1="56.5" y1="168.547" x2="62.5" y2="168.547"/>
<line fill="none" stroke="#ECECEC" stroke-width="8" stroke-linecap="round" stroke-linejoin="round" stroke-miterlimit="10" x1="24.5" y1="180.547" x2="38.5" y2="180.547"/>
<line fill="none" stroke="#ECECEC" stroke-width="8" stroke-linecap="round" stroke-linejoin="round" stroke-miterlimit="10" x1="24.5" y1="192.547" x2="62.5" y2="192.547"/>
<line fill="none" stroke="#ECECEC" stroke-width="8" stroke-linecap="round" stroke-linejoin="round" stroke-miterlimit="10" x1="50.5" y1="180.547" x2="62.5" y2="180.547"/>
<line fill="none" stroke="#ECECEC" stroke-width="4" stroke-linecap="round" stroke-linejoin="round" stroke-miterlimit="10" x1="22.499" y1="206.547" x2="42.5" y2="206.547"/>
<line fill="none" stroke="#ECECEC" stroke-width="4" stroke-linecap="round" stroke-linejoin="round" stroke-miterlimit="10" x1="22.499" y1="222.547" x2="30.5" y2="222.547"/>
<line fill="none" stroke="#ECECEC" stroke-width="4" stroke-linecap="round" stroke-linejoin="round" stroke-miterlimit="10" x1="22.499" y1="230.547" x2="28.5" y2="230.547"/>
<line fill="none" stroke="#ECECEC" stroke-width="4" stroke-linecap="round" stroke-linejoin="round" stroke-miterlimit="10" x1="60.5" y1="206.547" x2="64" y2="206.547"/>
<line fill="none" stroke="#ECECEC" stroke-width="4" stroke-linecap="round" stroke-linejoin="round" stroke-miterlimit="10" x1="60.5" y1="214.547" x2="64" y2="214.547"/>
<line fill="none" stroke="#ECECEC" stroke-width="4" stroke-linecap="round" stroke-linejoin="round" stroke-miterlimit="10" x1="60.5" y1="222.547" x2="64" y2="222.547"/>
<line fill="none" stroke="#ECECEC" stroke-width="4" stroke-linecap="round" stroke-linejoin="round" stroke-miterlimit="10" x1="60.5" y1="230.547" x2="64" y2="230.547"/>
<line fill="none" stroke="#ECECEC" stroke-width="4" stroke-linecap="round" stroke-linejoin="round" stroke-miterlimit="10" x1="22.499" y1="214.547" x2="36.5" y2="214.547"/>
<line fill="none" stroke="#ECECEC" stroke-width="4" stroke-linecap="round" stroke-linejoin="round" stroke-miterlimit="10" x1="22.499" y1="250.547" x2="28.5" y2="250.547"/>
<line fill="none" stroke="#ECECEC" stroke-width="4" stroke-linecap="round" stroke-linejoin="round" stroke-miterlimit="10" x1="36.499" y1="250.547" x2="42.5" y2="250.547"/>
<line fill="none" stroke="#ECECEC" stroke-width="4" stroke-linecap="round" stroke-linejoin="round" stroke-miterlimit="10" x1="50.499" y1="250.547" x2="64.5" y2="250.547"/>
<line fill="none" stroke="#ECECEC" stroke-width="8" stroke-linecap="round" stroke-linejoin="round" stroke-miterlimit="10" x1="24.5" y1="260.547" x2="62.5" y2="260.547"/>
<path fill="#AB9473" stroke="#231F20" stroke-width="4" stroke-miterlimit="10" d="M274.5,132.91c0-2.409-1.791-4.363-4-4.363h-184
	c-2.209,0-4,1.954-4,4.363v47.273c0,2.409,1.791,4.363,4,4.363l184-0.41c2.209,0,4-1.954,4-4.363V132.91z"/>
<g opacity="0.5">
	<circle opacity="0.2" fill="#E6C68D" cx="98.5" cy="142.547" r="8"/>
	<circle opacity="0.2" fill="#E6C68D" cx="98.5" cy="162.547" r="8"/>
	<path opacity="0.2" fill="#E6C68D" d="M90.5,182.547c0-4.418,3.582-8,8-8s8,3.582,8,8"/>
	<circle opacity="0.2" fill="#E6C68D" cx="118.5" cy="142.547" r="8"/>
	<circle opacity="0.2" fill="#E6C68D" cx="118.5" cy="162.547" r="8"/>
	<path opacity="0.2" fill="#E6C68D" d="M110.5,182.547c0-4.418,3.582-8,8-8s8,3.582,8,8"/>
	<circle opacity="0.2" fill="#E6C68D" cx="138.5" cy="142.547" r="8"/>
	<circle opacity="0.2" fill="#E6C68D" cx="138.5" cy="162.547" r="8"/>
	<path opacity="0.2" fill="#E6C68D" d="M130.5,182.547c0-4.418,3.582-8,8-8s8,3.582,8,8"/>
	<circle opacity="0.2" fill="#E6C68D" cx="158.5" cy="142.547" r="8"/>
	<circle opacity="0.2" fill="#E6C68D" cx="158.5" cy="162.547" r="8"/>
	<path opacity="0.2" fill="#E6C68D" d="M150.5,182.547c0-4.418,3.582-8,8-8s8,3.582,8,8"/>
	<circle opacity="0.2" fill="#E6C68D" cx="178.5" cy="142.547" r="8"/>
	<circle opacity="0.2" fill="#E6C68D" cx="178.5" cy="162.547" r="8"/>
	<path opacity="0.2" fill="#E6C68D" d="M170.5,182.547c0-4.418,3.582-8,8-8s8,3.582,8,8"/>
	<circle opacity="0.2" fill="#E6C68D" cx="198.5" cy="142.547" r="8"/>
	<circle opacity="0.2" fill="#E6C68D" cx="198.5" cy="162.547" r="8"/>
	<path opacity="0.2" fill="#E6C68D" d="M190.5,182.547c0-4.418,3.582-8,8-8s8,3.582,8,8"/>
	<circle opacity="0.2" fill="#E6C68D" cx="218.5" cy="142.547" r="8"/>
	<circle opacity="0.2" fill="#E6C68D" cx="218.5" cy="162.547" r="8"/>
	<path opacity="0.2" fill="#E6C68D" d="M210.5,182.547c0-4.418,3.582-8,8-8s8,3.582,8,8"/>
	<circle opacity="0.2" fill="#E6C68D" cx="238.5" cy="142.547" r="8"/>
	<circle opacity="0.2" fill="#E6C68D" cx="238.5" cy="162.547" r="8"/>
	<path opacity="0.2" fill="#E6C68D" d="M230.5,182.547c0-4.418,3.582-8,8-8s8,3.582,8,8"/>
	<circle opacity="0.2" fill="#E6C68D" cx="258.5" cy="142.547" r="8"/>
	<circle opacity="0.2" fill="#E6C68D" cx="258.5" cy="162.547" r="8"/>
	<path opacity="0.2" fill="#E6C68D" d="M250.5,182.547c0-4.418,3.582-8,8-8s8,3.582,8,8"/>
</g>
<g>
	
		<line fill="none" stroke="#ECECEC" stroke-width="20" stroke-linecap="round" stroke-linejoin="round" stroke-miterlimit="10" x1="111.5" y1="150.547" x2="209.5" y2="150.547"/>
	
		<line fill="none" stroke="#ECECEC" stroke-width="20" stroke-linecap="round" stroke-linejoin="round" stroke-miterlimit="10" x1="241.5" y1="150.547" x2="245.5" y2="150.547"/>
</g>
<g>
	
		<line fill="none" stroke="#ECECEC" stroke-width="8" stroke-linecap="round" stroke-linejoin="round" stroke-miterlimit="10" x1="151.5" y1="172.547" x2="178.5" y2="172.547"/>
	
		<line fill="none" stroke="#ECECEC" stroke-width="8" stroke-linecap="round" stroke-linejoin="round" stroke-miterlimit="10" x1="194.5" y1="172.547" x2="205.5" y2="172.547"/>
</g>
<polygon fill="#939A9F" stroke="#231F20" stroke-width="4" stroke-linecap="round" stroke-linejoin="round" stroke-miterlimit="10" points="
	88.5,258.547 84.5,244.547 102.5,244.547 98.5,258.547 "/>
<polygon fill="#939A9F" stroke="#231F20" stroke-width="4" stroke-linecap="round" stroke-linejoin="round" stroke-miterlimit="10" points="
	114.5,258.547 110.5,244.547 128.5,244.547 124.5,258.547 "/>
<path fill="#939A9F" stroke="#231F20" stroke-width="4" stroke-linecap="round" stroke-linejoin="round" stroke-miterlimit="10" d="
	M224.5,244.547c0,8.836-7.164,16-16,16s-16-7.164-16-16H224.5z"/>
<line fill="none" stroke="#E85693" stroke-width="4" stroke-linecap="round" stroke-linejoin="round" stroke-miterlimit="10" x1="86.5" y1="240.547" x2="100.5" y2="240.547"/>
<line fill="none" stroke="#76405A" stroke-width="4" stroke-linecap="round" stroke-linejoin="round" stroke-miterlimit="10" x1="112.5" y1="240.547" x2="126.5" y2="240.547"/>
<polygon fill="#939A9F" stroke="#231F20" stroke-width="4" stroke-linecap="round" stroke-linejoin="round" stroke-miterlimit="10" points="
	140.5,258.547 136.5,244.547 154.5,244.547 150.5,258.547 "/>
<line fill="none" stroke="#E96B25" stroke-width="4" stroke-linecap="round" stroke-linejoin="round" stroke-miterlimit="10" x1="138.5" y1="240.547" x2="152.5" y2="240.547"/>
<polygon fill="#939A9F" stroke="#231F20" stroke-width="4" stroke-linecap="round" stroke-linejoin="round" stroke-miterlimit="10" points="
	166.5,258.547 162.5,244.547 180.5,244.547 176.5,258.547 "/>
<line fill="none" stroke="#8A8C41" stroke-width="4" stroke-linecap="round" stroke-linejoin="round" stroke-miterlimit="10" x1="164.5" y1="240.547" x2="178.5" y2="240.547"/>
<polygon fill="#939A9F" stroke="#231F20" stroke-width="4" stroke-linecap="round" stroke-linejoin="round" stroke-miterlimit="10" points="
	240.5,258.547 236.5,244.547 254.5,244.547 250.5,258.547 "/>
<polygon fill="#939A9F" stroke="#231F20" stroke-width="4" stroke-linecap="round" stroke-linejoin="round" stroke-miterlimit="10" points="
	266.5,258.547 262.5,244.547 280.5,244.547 276.5,258.547 "/>
<line fill="none" stroke="#382323" stroke-width="4" stroke-linecap="round" stroke-linejoin="round" stroke-miterlimit="10" x1="238.5" y1="240.547" x2="252.5" y2="240.547"/>
<line fill="none" stroke="#8A8C41" stroke-width="4" stroke-linecap="round" stroke-linejoin="round" stroke-miterlimit="10" x1="264.5" y1="240.547" x2="278.5" y2="240.547"/>
<polygon fill="#939A9F" stroke="#231F20" stroke-width="4" stroke-linecap="round" stroke-linejoin="round" stroke-miterlimit="10" points="
	292.5,258.547 288.5,244.547 306.5,244.547 302.5,258.547 "/>
<line fill="none" stroke="#E85693" stroke-width="4" stroke-linecap="round" stroke-linejoin="round" stroke-miterlimit="10" x1="290.5" y1="240.547" x2="304.5" y2="240.547"/>
<polygon fill="#939A9F" stroke="#231F20" stroke-width="4" stroke-linecap="round" stroke-linejoin="round" stroke-miterlimit="10" points="
	318.5,258.547 314.5,244.547 332.5,244.547 328.5,258.547 "/>
<line fill="none" stroke="#01A64F" stroke-width="4" stroke-linecap="round" stroke-linejoin="round" stroke-miterlimit="10" x1="316.5" y1="240.547" x2="330.5" y2="240.547"/>
<path fill="#ECECEC" stroke="#231F20" stroke-width="4" stroke-linecap="round" stroke-linejoin="round" stroke-miterlimit="10" d="
	M218.5,238.547L218.5,238.547c0,0-1.791,0-4,0h-12c-2.209,0,0,0-4,0l0,0v6h20V238.547z"/>
</svg>
