<svg xmlns="http://www.w3.org/2000/svg" width="356" height="400" viewBox="0.5 0.5 356 400" enable-background="new 0.5 0.5 356 400"><path fill="#C1BEB4" stroke="#231F20" stroke-width="4" stroke-linecap="round" stroke-linejoin="round" stroke-miterlimit="10" d="M2.5 150.547h12v148h-12zM342.5 150.547h12v148h-12z"/><path fill="#454545" stroke="#231F20" stroke-width="4" stroke-linecap="round" stroke-linejoin="round" stroke-miterlimit="10" d="M350.5 107h-4c-52-8-168-60-168-72 0 12-116 64-168 72h-4c-2.21 0-4 1.79-4 4v40h352v-40c0-2.21-1.79-4-4-4z"/><path fill="#333" stroke="#231F20" stroke-width="4" stroke-linecap="round" stroke-linejoin="round" stroke-miterlimit="10" d="M354.5 146.547c0 2.21-1.79 4-4 4H6.5c-2.21 0-4-1.79-4-4v-36c0-2.21 1.79-4 4-4h344c2.21 0 4 1.79 4 4v36z"/><path fill="#AB9473" stroke="#231F20" stroke-width="4" stroke-miterlimit="10" d="M354.5 378.547c0 2.21-1.79 4-4 4H6.5c-2.21 0-4-1.79-4-4v-104h352v104z"/><path fill="#5A4A42" stroke="#231F20" stroke-width="4" stroke-linecap="round" stroke-linejoin="round" stroke-miterlimit="10" d="M14.5 262.547h328v12h-328z"/><g opacity=".5" fill="#E6C68D"><circle opacity=".2" cx="18.5" cy="288.713" r="8"/><circle opacity=".2" cx="18.5" cy="308.713" r="8"/><circle opacity=".2" cx="18.5" cy="328.713" r="8"/><circle opacity=".2" cx="18.5" cy="348.713" r="8"/><circle opacity=".2" cx="18.5" cy="368.713" r="8"/><circle opacity=".2" cx="38.5" cy="288.713" r="8"/><circle opacity=".2" cx="38.5" cy="308.713" r="8"/><circle opacity=".2" cx="38.5" cy="328.713" r="8"/><circle opacity=".2" cx="38.5" cy="348.713" r="8"/><circle opacity=".2" cx="38.5" cy="368.713" r="8"/><circle opacity=".2" cx="58.5" cy="288.713" r="8"/><circle opacity=".2" cx="58.5" cy="308.713" r="8"/><circle opacity=".2" cx="58.5" cy="328.713" r="8"/><circle opacity=".2" cx="58.5" cy="348.713" r="8"/><circle opacity=".2" cx="58.5" cy="368.713" r="8"/><circle opacity=".2" cx="78.5" cy="288.713" r="8"/><circle opacity=".2" cx="78.5" cy="308.713" r="8"/><circle opacity=".2" cx="78.5" cy="328.713" r="8"/><circle opacity=".2" cx="78.5" cy="348.713" r="8"/><circle opacity=".2" cx="78.5" cy="368.713" r="8"/><circle opacity=".2" cx="98.5" cy="288.713" r="8"/><circle opacity=".2" cx="98.5" cy="308.713" r="8"/><circle opacity=".2" cx="98.5" cy="328.713" r="8"/><circle opacity=".2" cx="98.5" cy="348.713" r="8"/><circle opacity=".2" cx="98.5" cy="368.713" r="8"/><circle opacity=".2" cx="118.5" cy="288.713" r="8"/><circle opacity=".2" cx="118.5" cy="308.713" r="8"/><circle opacity=".2" cx="118.5" cy="328.713" r="8"/><circle opacity=".2" cx="118.5" cy="348.713" r="8"/><circle opacity=".2" cx="118.5" cy="368.713" r="8"/><circle opacity=".2" cx="138.5" cy="288.713" r="8"/><circle opacity=".2" cx="138.5" cy="308.713" r="8"/><circle opacity=".2" cx="138.5" cy="328.713" r="8"/><circle opacity=".2" cx="138.5" cy="348.713" r="8"/><circle opacity=".2" cx="138.5" cy="368.713" r="8"/><circle opacity=".2" cx="158.5" cy="288.713" r="8"/><circle opacity=".2" cx="158.5" cy="308.713" r="8"/><circle opacity=".2" cx="158.5" cy="328.713" r="8"/><circle opacity=".2" cx="158.5" cy="348.713" r="8"/><circle opacity=".2" cx="158.5" cy="368.713" r="8"/><circle opacity=".2" cx="178.5" cy="288.713" r="8"/><circle opacity=".2" cx="178.5" cy="308.713" r="8"/><circle opacity=".2" cx="178.5" cy="328.713" r="8"/><circle opacity=".2" cx="178.5" cy="348.713" r="8"/><circle opacity=".2" cx="178.5" cy="368.713" r="8"/><circle opacity=".2" cx="198.5" cy="288.713" r="8"/><circle opacity=".2" cx="198.5" cy="308.713" r="8"/><circle opacity=".2" cx="198.5" cy="328.713" r="8"/><circle opacity=".2" cx="198.5" cy="348.713" r="8"/><circle opacity=".2" cx="198.5" cy="368.713" r="8"/><circle opacity=".2" cx="218.5" cy="288.713" r="8"/><circle opacity=".2" cx="218.5" cy="308.713" r="8"/><circle opacity=".2" cx="218.5" cy="328.713" r="8"/><circle opacity=".2" cx="218.5" cy="348.713" r="8"/><circle opacity=".2" cx="218.5" cy="368.713" r="8"/><circle opacity=".2" cx="238.5" cy="288.713" r="8"/><circle opacity=".2" cx="238.5" cy="308.713" r="8"/><circle opacity=".2" cx="238.5" cy="328.713" r="8"/><circle opacity=".2" cx="238.5" cy="348.713" r="8"/><circle opacity=".2" cx="238.5" cy="368.713" r="8"/><circle opacity=".2" cx="258.5" cy="288.713" r="8"/><circle opacity=".2" cx="258.5" cy="308.713" r="8"/><circle opacity=".2" cx="258.5" cy="328.713" r="8"/><circle opacity=".2" cx="258.5" cy="348.713" r="8"/><circle opacity=".2" cx="258.5" cy="368.713" r="8"/><circle opacity=".2" cx="278.5" cy="288.713" r="8"/><circle opacity=".2" cx="278.5" cy="308.713" r="8"/><circle opacity=".2" cx="278.5" cy="328.713" r="8"/><circle opacity=".2" cx="278.5" cy="348.713" r="8"/><circle opacity=".2" cx="278.5" cy="368.713" r="8"/><circle opacity=".2" cx="298.5" cy="288.713" r="8"/><circle opacity=".2" cx="298.5" cy="308.713" r="8"/><circle opacity=".2" cx="298.5" cy="328.713" r="8"/><circle opacity=".2" cx="298.5" cy="348.713" r="8"/><circle opacity=".2" cx="298.5" cy="368.713" r="8"/><circle opacity=".2" cx="318.5" cy="288.713" r="8"/><circle opacity=".2" cx="318.5" cy="308.713" r="8"/><circle opacity=".2" cx="318.5" cy="328.713" r="8"/><circle opacity=".2" cx="318.5" cy="348.713" r="8"/><circle opacity=".2" cx="318.5" cy="368.713" r="8"/><circle opacity=".2" cx="338.5" cy="288.713" r="8"/><circle opacity=".2" cx="338.5" cy="308.713" r="8"/><circle opacity=".2" cx="338.5" cy="328.713" r="8"/><circle opacity=".2" cx="338.5" cy="348.713" r="8"/><circle opacity=".2" cx="338.5" cy="368.713" r="8"/></g><g fill="none" stroke="#ECECEC" stroke-width="4" stroke-linecap="round" stroke-linejoin="round" stroke-miterlimit="10"><path d="M218.5 289.547h-34v6M192.5 295.547h26v72M210.5 301.547h-18v6h20v60M206.5 367.547v-30h-8M174.5 331.547l10-10M184.5 331.547l-10-10M184.5 337.547l-10 10 5 5 5-5-10-10M190.5 321.547l10 10 5-5-5-5-10 10M169.5 331.545l-10-10-5 5 5 5 10-10M174.5 315.547l10-10-5-5-5 5 10 10"/><path d="M168.5 315.547h6v6h-6zM168.5 331.547h6v6h-6zM184.5 331.547h6v6h-6zM184.5 315.547h6v6h-6zM138.5 361.547h24M138.5 289.547v66h12v-6h-6v6M144.5 289.547v12M150.5 289.547v12M144.5 307.547v22h6M150.5 307.547v12h4M160.5 289.547h12v6M172.5 365.547v-12M206.5 367.547h-24v-8h24M190.5 359.547v-10h6v4"/></g><path fill="#454545" stroke="#231F20" stroke-width="4" stroke-linecap="round" stroke-linejoin="round" stroke-miterlimit="10" d="M72.5 162.547c0-2.41-1.79-4-4-4h-50c-2.21 0-4 1.59-4 4v107.637c0 2.41 1.79 4.363 4 4.363h50c2.21 0 4-1.954 4-4.363V162.547z"/><path fill="none" stroke="#848792" stroke-width="8" stroke-linecap="round" stroke-linejoin="round" stroke-miterlimit="10" d="M24.5 168.547h20M56.5 168.547h6"/><path fill="none" stroke="#ECECEC" stroke-width="8" stroke-linecap="round" stroke-linejoin="round" stroke-miterlimit="10" d="M24.5 180.547h14M24.5 192.547h38M50.5 180.547h12"/><path fill="none" stroke="#ECECEC" stroke-width="4" stroke-linecap="round" stroke-linejoin="round" stroke-miterlimit="10" d="M22.5 206.547h20M22.5 222.547h8M22.5 230.547h6M60.5 206.547H64M60.5 214.547H64M60.5 222.547H64M60.5 230.547H64M22.5 214.547h14M22.5 250.547h6M36.5 250.547h6M50.5 250.547h14"/><path fill="none" stroke="#ECECEC" stroke-width="8" stroke-linecap="round" stroke-linejoin="round" stroke-miterlimit="10" d="M24.5 260.547h38"/><path fill="#AB9473" stroke="#231F20" stroke-width="4" stroke-miterlimit="10" d="M274.5 132.91c0-2.41-1.79-4.363-4-4.363h-184c-2.21 0-4 1.954-4 4.363v47.273c0 2.41 1.79 4.363 4 4.363l184-.41c2.21 0 4-1.954 4-4.363V132.91z"/><g opacity=".5" fill="#E6C68D"><circle opacity=".2" cx="98.5" cy="142.547" r="8"/><circle opacity=".2" cx="98.5" cy="162.547" r="8"/><path opacity=".2" d="M90.5 182.547c0-4.418 3.582-8 8-8s8 3.582 8 8"/><circle opacity=".2" cx="118.5" cy="142.547" r="8"/><circle opacity=".2" cx="118.5" cy="162.547" r="8"/><path opacity=".2" d="M110.5 182.547c0-4.418 3.582-8 8-8s8 3.582 8 8"/><circle opacity=".2" cx="138.5" cy="142.547" r="8"/><circle opacity=".2" cx="138.5" cy="162.547" r="8"/><path opacity=".2" d="M130.5 182.547c0-4.418 3.582-8 8-8s8 3.582 8 8"/><circle opacity=".2" cx="158.5" cy="142.547" r="8"/><circle opacity=".2" cx="158.5" cy="162.547" r="8"/><path opacity=".2" d="M150.5 182.547c0-4.418 3.582-8 8-8s8 3.582 8 8"/><circle opacity=".2" cx="178.5" cy="142.547" r="8"/><circle opacity=".2" cx="178.5" cy="162.547" r="8"/><path opacity=".2" d="M170.5 182.547c0-4.418 3.582-8 8-8s8 3.582 8 8"/><circle opacity=".2" cx="198.5" cy="142.547" r="8"/><circle opacity=".2" cx="198.5" cy="162.547" r="8"/><path opacity=".2" d="M190.5 182.547c0-4.418 3.582-8 8-8s8 3.582 8 8"/><circle opacity=".2" cx="218.5" cy="142.547" r="8"/><circle opacity=".2" cx="218.5" cy="162.547" r="8"/><path opacity=".2" d="M210.5 182.547c0-4.418 3.582-8 8-8s8 3.582 8 8"/><circle opacity=".2" cx="238.5" cy="142.547" r="8"/><circle opacity=".2" cx="238.5" cy="162.547" r="8"/><path opacity=".2" d="M230.5 182.547c0-4.418 3.582-8 8-8s8 3.582 8 8"/><circle opacity=".2" cx="258.5" cy="142.547" r="8"/><circle opacity=".2" cx="258.5" cy="162.547" r="8"/><path opacity=".2" d="M250.5 182.547c0-4.418 3.582-8 8-8s8 3.582 8 8"/></g><g fill="none" stroke="#ECECEC" stroke-width="20" stroke-linecap="round" stroke-linejoin="round" stroke-miterlimit="10"><path d="M111.5 150.547h98M241.5 150.547h4"/></g><g fill="none" stroke="#ECECEC" stroke-width="8" stroke-linecap="round" stroke-linejoin="round" stroke-miterlimit="10"><path d="M151.5 172.547h27M194.5 172.547h11"/></g><path fill="#939A9F" stroke="#231F20" stroke-width="4" stroke-linecap="round" stroke-linejoin="round" stroke-miterlimit="10" d="M88.5 258.547l-4-14h18l-4 14zM114.5 258.547l-4-14h18l-4 14zM224.5 244.547c0 8.836-7.164 16-16 16s-16-7.164-16-16h32z"/><path fill="none" stroke="#E85693" stroke-width="4" stroke-linecap="round" stroke-linejoin="round" stroke-miterlimit="10" d="M86.5 240.547h14"/><path fill="none" stroke="#76405A" stroke-width="4" stroke-linecap="round" stroke-linejoin="round" stroke-miterlimit="10" d="M112.5 240.547h14"/><path fill="#939A9F" stroke="#231F20" stroke-width="4" stroke-linecap="round" stroke-linejoin="round" stroke-miterlimit="10" d="M140.5 258.547l-4-14h18l-4 14z"/><path fill="none" stroke="#E96B25" stroke-width="4" stroke-linecap="round" stroke-linejoin="round" stroke-miterlimit="10" d="M138.5 240.547h14"/><path fill="#939A9F" stroke="#231F20" stroke-width="4" stroke-linecap="round" stroke-linejoin="round" stroke-miterlimit="10" d="M166.5 258.547l-4-14h18l-4 14z"/><path fill="none" stroke="#8A8C41" stroke-width="4" stroke-linecap="round" stroke-linejoin="round" stroke-miterlimit="10" d="M164.5 240.547h14"/><path fill="#939A9F" stroke="#231F20" stroke-width="4" stroke-linecap="round" stroke-linejoin="round" stroke-miterlimit="10" d="M240.5 258.547l-4-14h18l-4 14zM266.5 258.547l-4-14h18l-4 14z"/><path fill="none" stroke="#382323" stroke-width="4" stroke-linecap="round" stroke-linejoin="round" stroke-miterlimit="10" d="M238.5 240.547h14"/><path fill="none" stroke="#8A8C41" stroke-width="4" stroke-linecap="round" stroke-linejoin="round" stroke-miterlimit="10" d="M264.5 240.547h14"/><path fill="#939A9F" stroke="#231F20" stroke-width="4" stroke-linecap="round" stroke-linejoin="round" stroke-miterlimit="10" d="M292.5 258.547l-4-14h18l-4 14z"/><path fill="none" stroke="#E85693" stroke-width="4" stroke-linecap="round" stroke-linejoin="round" stroke-miterlimit="10" d="M290.5 240.547h14"/><path fill="#939A9F" stroke="#231F20" stroke-width="4" stroke-linecap="round" stroke-linejoin="round" stroke-miterlimit="10" d="M318.5 258.547l-4-14h18l-4 14z"/><path fill="none" stroke="#01A64F" stroke-width="4" stroke-linecap="round" stroke-linejoin="round" stroke-miterlimit="10" d="M316.5 240.547h14"/><path fill="#ECECEC" stroke="#231F20" stroke-width="4" stroke-linecap="round" stroke-linejoin="round" stroke-miterlimit="10" d="M218.5 238.547h-20v6h20v-6z"/></svg>