<svg xmlns="http://www.w3.org/2000/svg" width="356" height="400" viewBox="0.5 0 356 400" enable-background="new 0.5 0 356 400"><path fill="#C1BEB4" stroke="#231F20" stroke-width="4" stroke-linecap="round" stroke-linejoin="round" stroke-miterlimit="10" d="M2.5 150.5h12v148h-12zM342.5 150.5h12v148h-12z"/><path fill="#454545" stroke="#231F20" stroke-width="4" stroke-linecap="round" stroke-linejoin="round" stroke-miterlimit="10" d="M350.5 106.5h-4c-52-8-168-60-168-72 0 12-116 64-168 72h-4c-2.21 0-4 1.79-4 4v40h352v-40c0-2.21-1.79-4-4-4z"/><path fill="#333" stroke="#231F20" stroke-width="4" stroke-linecap="round" stroke-linejoin="round" stroke-miterlimit="10" d="M354.5 146.5c0 2.21-1.79 4-4 4H6.5c-2.21 0-4-1.79-4-4v-36c0-2.21 1.79-4 4-4h344c2.21 0 4 1.79 4 4v36zM354.5 378.5c0 2.21-1.79 4-4 4H6.5c-2.21 0-4-1.79-4-4v-104h352v104z"/><path fill="#5B5663" stroke="#231F20" stroke-width="4" stroke-linecap="round" stroke-linejoin="round" stroke-miterlimit="10" d="M14.5 262.5h328v12h-328z"/><g fill="none" stroke="#ECECEC" stroke-width="12" stroke-linecap="round" stroke-linejoin="round" stroke-miterlimit="10"><path d="M144.5 350.5h28M188.5 350.5h24"/></g><g fill="none" stroke="#ECECEC" stroke-width="20" stroke-linecap="round" stroke-linejoin="round" stroke-miterlimit="10"><path d="M110.5 326.5h36M194.5 326.5h52M170.5 326.5"/></g><g fill="#ECECEC"><path d="M180.5 300.5h-20c-1.104 0-2 .896-2 2s.896 2 2 2h20"/><path d="M198.5 304.5c0 2.21-1.79 4-4 4h-10c-2.21 0-4-1.79-4-4v-4c0-2.21 1.79-4 4-4h10c2.21 0 4 1.79 4 4v4z"/></g><path fill="none" stroke="#ECECEC" stroke-width="2" stroke-linecap="round" stroke-linejoin="round" stroke-miterlimit="10" d="M166.5 90.5h10M182.5 90.5h8"/><path fill="none" stroke="#ECECEC" stroke-width="8" stroke-linecap="round" stroke-linejoin="round" stroke-miterlimit="10" d="M164.5 72.5h16M164.5 82.5h28M192.5 72.5"/><g fill="#ECECEC"><path d="M179.5 62.5h-10c-.553 0-1 .447-1 1s.447 1 1 1h10"/><path d="M188.5 64.5c0 1.104-.896 2-2 2h-5c-1.104 0-2-.896-2-2v-2c0-1.104.896-2 2-2h5c1.104 0 2 .896 2 2v2z"/></g><circle fill="none" stroke="#ECECEC" stroke-width="2" stroke-linecap="round" stroke-linejoin="round" stroke-miterlimit="10" cx="178.5" cy="76.5" r="24"/><path fill="#AB9473" stroke="#231F20" stroke-width="4" stroke-linecap="round" stroke-linejoin="round" stroke-miterlimit="10" d="M80.5 143.834h196V168.5h-196z"/><path fill="none" stroke="#231F20" stroke-width="8" stroke-linecap="round" stroke-linejoin="round" stroke-miterlimit="10" d="M94.5 156.5h30"/><path fill="none" stroke="#ECECEC" stroke-width="2" stroke-linecap="round" stroke-linejoin="round" stroke-miterlimit="10" d="M94.5 156.5h30"/><path fill="none" stroke="#231F20" stroke-width="8" stroke-linecap="round" stroke-linejoin="round" stroke-miterlimit="10" d="M136.5 156.5h30"/><path fill="none" stroke="#ECECEC" stroke-width="2" stroke-linecap="round" stroke-linejoin="round" stroke-miterlimit="10" d="M136.5 156.5h30"/><path fill="none" stroke="#231F20" stroke-width="8" stroke-linecap="round" stroke-linejoin="round" stroke-miterlimit="10" d="M178.5 156.5h36"/><path fill="none" stroke="#ECECEC" stroke-width="2" stroke-linecap="round" stroke-linejoin="round" stroke-miterlimit="10" d="M178.5 156.5h36"/><path fill="none" stroke="#231F20" stroke-width="8" stroke-linecap="round" stroke-linejoin="round" stroke-miterlimit="10" d="M226.5 156.5h36"/><path fill="none" stroke="#ECECEC" stroke-width="2" stroke-linecap="round" stroke-linejoin="round" stroke-miterlimit="10" d="M226.5 156.5h36"/><g stroke-width="4" stroke-linecap="round" stroke-linejoin="round" stroke-miterlimit="10"><path fill="#454545" stroke="#231F20" d="M78.5 278.5c0-2.41-1.79-4-4-4h-68c-2.21 0-4 1.59-4 4v99.637c0 2.41 1.79 4.363 4 4.363h68c2.21 0 4-1.954 4-4.363V278.5z"/><path fill="none" stroke="#ECECEC" d="M32.5 288.5h16M28.5 294.5h24M32.5 304.5h16M28.5 310.5h24M24.5 320.5h32M14.5 336.5h12M34.5 336.5h12M54.5 336.5h12M24.5 342.5h32M24.5 358.5h32M24.5 370.5h32M24.5 348.5h12M44.5 348.5h12M24.5 364.5h12M44.5 364.5h12M24.5 326.5h12M44.5 326.5h12"/></g><g stroke="#231F20" stroke-width="4" stroke-linecap="round" stroke-linejoin="round" stroke-miterlimit="10"><path fill="#ECECEC" d="M30.5 244.5h16v14h-16z"/><path fill="#939A9F" d="M50.5 226.5c0 6.627-5.373 12-12 12s-12-5.373-12-12h24z"/><path fill="#ECECEC" d="M34.5 244.5v-6M42.5 244.5v-6"/></g><path fill="#F7B019" stroke="#231F20" stroke-width="4" stroke-miterlimit="10" d="M76.5 254.5h68"/><path fill="#F7B019" d="M76.5 258.5c-2.206 0-4-1.794-4-4s1.794-4 4-4h68c2.206 0 4 1.794 4 4s-1.794 4-4 4h-68z"/><path fill="#231F20" d="M144.5 252.5c1.104 0 2 .896 2 2s-.896 2-2 2h-68c-1.104 0-2-.896-2-2s.896-2 2-2h68m0-4h-68c-3.31 0-6 2.69-6 6s2.69 6 6 6h68c3.31 0 6-2.69 6-6s-2.69-6-6-6z"/><path fill="#D52524" stroke="#231F20" stroke-width="4" stroke-linecap="round" stroke-linejoin="round" stroke-miterlimit="10" d="M222.5 248.5h10v10h-10z"/><path fill="#AB9473" stroke="#231F20" stroke-width="4" stroke-linecap="round" stroke-linejoin="round" stroke-miterlimit="10" d="M264.5 252.5h66v6h-66z"/><g fill="#AB9473" stroke="#231F20" stroke-width="4" stroke-linecap="round" stroke-linejoin="round" stroke-miterlimit="10"><path d="M160.5 248.5h50v10h-50zM160.5 232.5h50v6h-50zM160.5 238.5h6v10h-6zM204.5 238.5h6v10h-6z"/></g><path fill="#6A1501" stroke="#231F20" stroke-width="4" stroke-linecap="round" stroke-linejoin="round" stroke-miterlimit="10" d="M252.5 230.5v24c0 2.21-1.79 4-4 4s-4-1.79-4-4v-24h8zM248.5 230.5v-4"/></svg>