<?xml version="1.0" encoding="utf-8"?>
<!-- Generator: Adobe Illustrator 16.0.1, SVG Export Plug-In . SVG Version: 6.00 Build 0)  -->
<!DOCTYPE svg PUBLIC "-//W3C//DTD SVG 1.1//EN" "http://www.w3.org/Graphics/SVG/1.1/DTD/svg11.dtd">
<svg version="1.1" id="Layer_1" xmlns="http://www.w3.org/2000/svg" xmlns:xlink="http://www.w3.org/1999/xlink" x="0px" y="0px"
	 width="356px" height="400px" viewBox="0.5 0 356 400" enable-background="new 0.5 0 356 400" xml:space="preserve">
<rect x="2.5" y="150.5" fill="#C1BEB4" stroke="#231F20" stroke-width="4" stroke-linecap="round" stroke-linejoin="round" stroke-miterlimit="10" width="12" height="148"/>
<rect x="342.5" y="150.5" fill="#C1BEB4" stroke="#231F20" stroke-width="4" stroke-linecap="round" stroke-linejoin="round" stroke-miterlimit="10" width="12" height="148"/>
<path fill="#454545" stroke="#231F20" stroke-width="4" stroke-linecap="round" stroke-linejoin="round" stroke-miterlimit="10" d="
	M350.5,106.5h-4c-52-8-168-60-168-72c0,12-116,64-168,72h-4c-2.209,0-4,1.791-4,4v40h176h176v-40
	C354.5,108.291,352.709,106.5,350.5,106.5z"/>
<path fill="#333333" stroke="#231F20" stroke-width="4" stroke-linecap="round" stroke-linejoin="round" stroke-miterlimit="10" d="
	M354.5,146.5c0,2.209-1.791,4-4,4H6.5c-2.209,0-4-1.791-4-4v-36c0-2.209,1.791-4,4-4h344c2.209,0,4,1.791,4,4V146.5z"/>
<path fill="#333333" stroke="#231F20" stroke-width="4" stroke-linecap="round" stroke-linejoin="round" stroke-miterlimit="10" d="
	M354.5,378.5c0,2.209-1.791,4-4,4H6.5c-2.209,0-4-1.791-4-4v-104c0,0,1.791,0,4,0h344c2.209,0,4,0,4,0V378.5z"/>
<rect x="14.5" y="262.5" fill="#5B5663" stroke="#231F20" stroke-width="4" stroke-linecap="round" stroke-linejoin="round" stroke-miterlimit="10" width="328" height="12"/>
<g>
	<g>
		
			<line fill="none" stroke="#ECECEC" stroke-width="12" stroke-linecap="round" stroke-linejoin="round" stroke-miterlimit="10" x1="144.5" y1="350.5" x2="172.5" y2="350.5"/>
		
			<line fill="none" stroke="#ECECEC" stroke-width="12" stroke-linecap="round" stroke-linejoin="round" stroke-miterlimit="10" x1="188.5" y1="350.5" x2="212.5" y2="350.5"/>
	</g>
	<g>
		
			<line fill="none" stroke="#ECECEC" stroke-width="20" stroke-linecap="round" stroke-linejoin="round" stroke-miterlimit="10" x1="110.5" y1="326.5" x2="146.5" y2="326.5"/>
		
			<line fill="none" stroke="#ECECEC" stroke-width="20" stroke-linecap="round" stroke-linejoin="round" stroke-miterlimit="10" x1="194.5" y1="326.5" x2="246.5" y2="326.5"/>
		
			<line fill="none" stroke="#ECECEC" stroke-width="20" stroke-linecap="round" stroke-linejoin="round" stroke-miterlimit="10" x1="170.5" y1="326.5" x2="170.5" y2="326.5"/>
	</g>
	<g>
		<path fill="#ECECEC" d="M180.5,300.5h-20c-1.104,0-2,0.896-2,2s0.896,2,2,2h20"/>
		<path fill="#ECECEC" d="M198.5,304.5c0,2.209-1.791,4-4,4h-10c-2.209,0-4-1.791-4-4v-4c0-2.209,1.791-4,4-4h10
			c2.209,0,4,1.791,4,4V304.5z"/>
	</g>
</g>
<g>
	
		<line fill="none" stroke="#ECECEC" stroke-width="2" stroke-linecap="round" stroke-linejoin="round" stroke-miterlimit="10" x1="166.5" y1="90.5" x2="176.5" y2="90.5"/>
	
		<line fill="none" stroke="#ECECEC" stroke-width="2" stroke-linecap="round" stroke-linejoin="round" stroke-miterlimit="10" x1="182.5" y1="90.5" x2="190.5" y2="90.5"/>
	
		<line fill="none" stroke="#ECECEC" stroke-width="8" stroke-linecap="round" stroke-linejoin="round" stroke-miterlimit="10" x1="164.5" y1="72.5" x2="180.5" y2="72.5"/>
	
		<line fill="none" stroke="#ECECEC" stroke-width="8" stroke-linecap="round" stroke-linejoin="round" stroke-miterlimit="10" x1="164.5" y1="82.5" x2="192.5" y2="82.5"/>
	
		<line fill="none" stroke="#ECECEC" stroke-width="8" stroke-linecap="round" stroke-linejoin="round" stroke-miterlimit="10" x1="192.5" y1="72.5" x2="192.5" y2="72.5"/>
	<g>
		<path fill="#ECECEC" d="M179.5,62.5h-10c-0.553,0-1,0.447-1,1s0.447,1,1,1h10"/>
		<path fill="#ECECEC" d="M188.5,64.5c0,1.104-0.896,2-2,2h-5c-1.104,0-2-0.896-2-2v-2c0-1.104,0.896-2,2-2h5c1.104,0,2,0.896,2,2
			V64.5z"/>
	</g>
	
		<circle fill="none" stroke="#ECECEC" stroke-width="2" stroke-linecap="round" stroke-linejoin="round" stroke-miterlimit="10" cx="178.5" cy="76.5" r="24"/>
</g>
<rect x="80.501" y="143.834" fill="#AB9473" stroke="#231F20" stroke-width="4" stroke-linecap="round" stroke-linejoin="round" stroke-miterlimit="10" width="195.998" height="24.666"/>
<line fill="none" stroke="#231F20" stroke-width="8" stroke-linecap="round" stroke-linejoin="round" stroke-miterlimit="10" x1="94.501" y1="156.5" x2="124.501" y2="156.5"/>
<line fill="none" stroke="#ECECEC" stroke-width="2" stroke-linecap="round" stroke-linejoin="round" stroke-miterlimit="10" x1="94.501" y1="156.5" x2="124.501" y2="156.5"/>
<line fill="none" stroke="#231F20" stroke-width="8" stroke-linecap="round" stroke-linejoin="round" stroke-miterlimit="10" x1="136.501" y1="156.5" x2="166.501" y2="156.5"/>
<line fill="none" stroke="#ECECEC" stroke-width="2" stroke-linecap="round" stroke-linejoin="round" stroke-miterlimit="10" x1="136.501" y1="156.5" x2="166.501" y2="156.5"/>
<line fill="none" stroke="#231F20" stroke-width="8" stroke-linecap="round" stroke-linejoin="round" stroke-miterlimit="10" x1="178.501" y1="156.5" x2="214.501" y2="156.5"/>
<line fill="none" stroke="#ECECEC" stroke-width="2" stroke-linecap="round" stroke-linejoin="round" stroke-miterlimit="10" x1="178.501" y1="156.5" x2="214.501" y2="156.5"/>
<line fill="none" stroke="#231F20" stroke-width="8" stroke-linecap="round" stroke-linejoin="round" stroke-miterlimit="10" x1="226.501" y1="156.5" x2="262.501" y2="156.5"/>
<line fill="none" stroke="#ECECEC" stroke-width="2" stroke-linecap="round" stroke-linejoin="round" stroke-miterlimit="10" x1="226.501" y1="156.5" x2="262.501" y2="156.5"/>
<g>
	
		<path fill="#454545" stroke="#231F20" stroke-width="4" stroke-linecap="round" stroke-linejoin="round" stroke-miterlimit="10" d="
		M78.5,278.5c0-2.409-1.791-4-4-4h-68c-2.209,0-4,1.591-4,4v99.637c0,2.409,1.791,4.363,4,4.363h68c2.209,0,4-1.954,4-4.363V278.5z"
		/>
	
		<line fill="none" stroke="#ECECEC" stroke-width="4" stroke-linecap="round" stroke-linejoin="round" stroke-miterlimit="10" x1="32.5" y1="288.5" x2="48.5" y2="288.5"/>
	
		<line fill="none" stroke="#ECECEC" stroke-width="4" stroke-linecap="round" stroke-linejoin="round" stroke-miterlimit="10" x1="28.5" y1="294.5" x2="52.5" y2="294.5"/>
	
		<line fill="none" stroke="#ECECEC" stroke-width="4" stroke-linecap="round" stroke-linejoin="round" stroke-miterlimit="10" x1="32.5" y1="304.5" x2="48.5" y2="304.5"/>
	
		<line fill="none" stroke="#ECECEC" stroke-width="4" stroke-linecap="round" stroke-linejoin="round" stroke-miterlimit="10" x1="28.5" y1="310.5" x2="52.5" y2="310.5"/>
	
		<line fill="none" stroke="#ECECEC" stroke-width="4" stroke-linecap="round" stroke-linejoin="round" stroke-miterlimit="10" x1="24.5" y1="320.5" x2="56.5" y2="320.5"/>
	
		<line fill="none" stroke="#ECECEC" stroke-width="4" stroke-linecap="round" stroke-linejoin="round" stroke-miterlimit="10" x1="14.5" y1="336.5" x2="26.5" y2="336.5"/>
	
		<line fill="none" stroke="#ECECEC" stroke-width="4" stroke-linecap="round" stroke-linejoin="round" stroke-miterlimit="10" x1="34.5" y1="336.5" x2="46.5" y2="336.5"/>
	
		<line fill="none" stroke="#ECECEC" stroke-width="4" stroke-linecap="round" stroke-linejoin="round" stroke-miterlimit="10" x1="54.5" y1="336.5" x2="66.5" y2="336.5"/>
	
		<line fill="none" stroke="#ECECEC" stroke-width="4" stroke-linecap="round" stroke-linejoin="round" stroke-miterlimit="10" x1="24.5" y1="342.5" x2="56.5" y2="342.5"/>
	
		<line fill="none" stroke="#ECECEC" stroke-width="4" stroke-linecap="round" stroke-linejoin="round" stroke-miterlimit="10" x1="24.5" y1="358.5" x2="56.5" y2="358.5"/>
	
		<line fill="none" stroke="#ECECEC" stroke-width="4" stroke-linecap="round" stroke-linejoin="round" stroke-miterlimit="10" x1="24.5" y1="370.5" x2="56.5" y2="370.5"/>
	
		<line fill="none" stroke="#ECECEC" stroke-width="4" stroke-linecap="round" stroke-linejoin="round" stroke-miterlimit="10" x1="24.5" y1="348.5" x2="36.5" y2="348.5"/>
	
		<line fill="none" stroke="#ECECEC" stroke-width="4" stroke-linecap="round" stroke-linejoin="round" stroke-miterlimit="10" x1="44.5" y1="348.5" x2="56.5" y2="348.5"/>
	
		<line fill="none" stroke="#ECECEC" stroke-width="4" stroke-linecap="round" stroke-linejoin="round" stroke-miterlimit="10" x1="24.5" y1="364.5" x2="36.5" y2="364.5"/>
	
		<line fill="none" stroke="#ECECEC" stroke-width="4" stroke-linecap="round" stroke-linejoin="round" stroke-miterlimit="10" x1="44.5" y1="364.5" x2="56.5" y2="364.5"/>
	
		<line fill="none" stroke="#ECECEC" stroke-width="4" stroke-linecap="round" stroke-linejoin="round" stroke-miterlimit="10" x1="24.5" y1="326.5" x2="36.5" y2="326.5"/>
	
		<line fill="none" stroke="#ECECEC" stroke-width="4" stroke-linecap="round" stroke-linejoin="round" stroke-miterlimit="10" x1="44.5" y1="326.5" x2="56.5" y2="326.5"/>
</g>
<g>
	
		<rect x="30.5" y="244.5" fill="#ECECEC" stroke="#231F20" stroke-width="4" stroke-linecap="round" stroke-linejoin="round" stroke-miterlimit="10" width="16" height="14"/>
	
		<path fill="#939A9F" stroke="#231F20" stroke-width="4" stroke-linecap="round" stroke-linejoin="round" stroke-miterlimit="10" d="
		M50.5,226.5c0,6.627-5.373,12-12,12s-12-5.373-12-12H50.5z"/>
	
		<line fill="#ECECEC" stroke="#231F20" stroke-width="4" stroke-linecap="round" stroke-linejoin="round" stroke-miterlimit="10" x1="34.5" y1="244.5" x2="34.5" y2="238.5"/>
	
		<line fill="#ECECEC" stroke="#231F20" stroke-width="4" stroke-linecap="round" stroke-linejoin="round" stroke-miterlimit="10" x1="42.5" y1="244.5" x2="42.5" y2="238.5"/>
</g>
<g>
	<line fill="#F7B019" stroke="#231F20" stroke-width="4" stroke-miterlimit="10" x1="76.5" y1="254.5" x2="144.5" y2="254.5"/>
	<g>
		<path fill="#F7B019" d="M76.5,258.5c-2.206,0-4-1.794-4-4s1.794-4,4-4h68c2.206,0,4,1.794,4,4s-1.794,4-4,4H76.5z"/>
		<path fill="#231F20" d="M144.5,252.5c1.104,0,2,0.896,2,2s-0.896,2-2,2h-68c-1.104,0-2-0.896-2-2s0.896-2,2-2H144.5 M144.5,248.5
			h-68c-3.309,0-6,2.691-6,6s2.691,6,6,6h68c3.309,0,6-2.691,6-6S147.809,248.5,144.5,248.5L144.5,248.5z"/>
	</g>
</g>
<rect x="222.5" y="248.5" fill="#D52524" stroke="#231F20" stroke-width="4" stroke-linecap="round" stroke-linejoin="round" stroke-miterlimit="10" width="10" height="10"/>
<rect x="264.5" y="252.5" fill="#AB9473" stroke="#231F20" stroke-width="4" stroke-linecap="round" stroke-linejoin="round" stroke-miterlimit="10" width="66" height="6"/>
<g>
	
		<rect x="160.5" y="248.5" fill="#AB9473" stroke="#231F20" stroke-width="4" stroke-linecap="round" stroke-linejoin="round" stroke-miterlimit="10" width="50" height="10"/>
	
		<rect x="160.5" y="232.5" fill="#AB9473" stroke="#231F20" stroke-width="4" stroke-linecap="round" stroke-linejoin="round" stroke-miterlimit="10" width="50" height="6"/>
	
		<rect x="160.5" y="238.5" fill="#AB9473" stroke="#231F20" stroke-width="4" stroke-linecap="round" stroke-linejoin="round" stroke-miterlimit="10" width="6" height="10"/>
	
		<rect x="204.5" y="238.5" fill="#AB9473" stroke="#231F20" stroke-width="4" stroke-linecap="round" stroke-linejoin="round" stroke-miterlimit="10" width="6" height="10"/>
</g>
<g>
	<g>
		
			<path fill="#6A1501" stroke="#231F20" stroke-width="4" stroke-linecap="round" stroke-linejoin="round" stroke-miterlimit="10" d="
			M252.5,230.5v24c0,2.209-1.791,4-4,4l0,0c-2.209,0-4-1.791-4-4v-24h4H252.5z"/>
	</g>
	
		<line fill="#6A1501" stroke="#231F20" stroke-width="4" stroke-linecap="round" stroke-linejoin="round" stroke-miterlimit="10" x1="248.5" y1="230.5" x2="248.5" y2="226.5"/>
</g>
</svg>
