<svg xmlns="http://www.w3.org/2000/svg" width="384" height="400" viewBox="-29.5 0 384 400" enable-background="new -29.5 0 384 400"><path fill="#C1BEB4" stroke="#231F20" stroke-width="4" stroke-linecap="round" stroke-linejoin="round" stroke-miterlimit="10" d="M.583 149.502h12v148h-12zM340.583 149.502h12v148h-12z"/><path fill="#FF395F" stroke="#231F20" stroke-width="4" stroke-linecap="round" stroke-linejoin="round" stroke-miterlimit="10" d="M348.583 105.502h-4c-52-8-168-60-168-72 0 12-116 64-168 72h-4c-2.21 0-4 1.79-4 4v40h352v-40c0-2.21-1.79-4-4-4z"/><path fill="#E53355" stroke="#231F20" stroke-width="4" stroke-linecap="round" stroke-linejoin="round" stroke-miterlimit="10" d="M352.583 145.502c0 2.21-1.79 4-4 4h-344c-2.21 0-4-1.79-4-4v-36c0-2.21 1.79-4 4-4h344c2.21 0 4 1.79 4 4v36z"/><path fill="#ECECEC" stroke="#231F20" stroke-width="4" stroke-linecap="round" stroke-linejoin="round" stroke-miterlimit="10" d="M352.583 377.502c0 2.21-1.79 4-4 4h-344c-2.21 0-4-1.79-4-4v-104h352v104z"/><path fill="#5B5663" stroke="#231F20" stroke-width="4" stroke-linecap="round" stroke-linejoin="round" stroke-miterlimit="10" d="M12.583 261.502h328v12h-328z"/><path fill="none" stroke="#E53355" stroke-width="48" stroke-linecap="round" stroke-linejoin="round" stroke-miterlimit="10" d="M110.583 335.502s28-16 66-16 66 16 66 16"/><path fill="#ECECEC" stroke="#231F20" stroke-width="4" stroke-linecap="round" stroke-linejoin="round" stroke-miterlimit="10" d="M260.583 143.502c0-2.41-1.79-4-4-4h-160c-2.21 0-4 1.59-4 4v17.637c0 2.408 1.79 4.362 4 4.362h160c2.21 0 4-1.954 4-4.363V143.5z"/><path fill="none" stroke="#E53355" stroke-width="8" stroke-linecap="round" stroke-linejoin="round" stroke-miterlimit="10" d="M116.583 153.502h12M140.583 153.502h48M200.583 153.502h36"/><path fill="#6C7071" stroke="#231F20" stroke-width="4" stroke-linecap="round" stroke-linejoin="round" stroke-miterlimit="10" d="M340.583 257.502c0 2.21-1.79 4-4 4h-104c-2.21 0-4-1.79-4-4v-18c0-2.21 1.79-4 4-4h104c2.21 0 4 1.79 4 4v18z"/><g stroke="#231F20" stroke-width="4" stroke-linecap="round" stroke-linejoin="round" stroke-miterlimit="10"><path fill="#6C7071" d="M266.583 217.502c0 1.104-.896 2-2 2-1.105 0-2-.896-2-2s.895-2 2-2 2 .895 2 2z"/><path fill="#939A9F" d="M280.583 235.502c0-8.836-7.164-16-16-16s-16 7.164-16 16h32z"/></g><path fill="#939A9F" stroke="#231F20" stroke-width="4" stroke-linecap="round" stroke-linejoin="round" stroke-miterlimit="10" d="M168.583 257.502l-4-18h22l-4 18zM198.583 257.502l-4-18h22l-4 18z"/><path fill="#ECECEC" stroke="#231F20" stroke-width="4" stroke-linecap="round" stroke-linejoin="round" stroke-miterlimit="10" d="M104.583 229.502v24c0 2.21-1.79 4-4 4s-4-1.79-4-4v-24h8zM100.583 229.502v-4"/><path fill="#AB9473" stroke="#231F20" stroke-width="4" stroke-linecap="round" stroke-linejoin="round" stroke-miterlimit="10" d="M116.583 247.502h36v10h-36z"/><g stroke-linecap="round" stroke-linejoin="round" stroke-miterlimit="10"><path fill="#ECECEC" stroke="#231F20" stroke-width="4" d="M28.583 143.502c0-2.41-1.79-4-4-4h-48c-2.21 0-4 1.59-4 4v93.637c0 2.408 1.79 4.362 4 4.362h48c2.21 0 4-1.954 4-4.363V143.5z"/><path fill="none" stroke="#E53355" stroke-width="12" d="M-7.417 153.502s4-2 8-2 8 2 8 2"/><path fill="none" stroke="#E53355" stroke-width="4" d="M-9.417 169.502h12M10.583 169.502h2"/><path fill="none" stroke="#333" stroke-width="2" d="M-20.417 174.502h6M-8.417 174.502h10M7.583 174.502h14M-20.417 178.502h6M-8.417 178.502h6M-10.417 182.502h4M-.417 182.502h4M9.583 182.502h4M3.583 178.502h6M15.583 178.502h6"/><path fill="none" stroke="#E53355" stroke-width="4" d="M-17.417 193.502h14M4.583 193.502h16"/><path fill="none" stroke="#333" stroke-width="2" d="M-20.417 202.502h4M-10.417 202.502h16M-20.417 206.502h10M-4.417 206.502h8M9.583 206.502h12M11.583 202.502h10M-20.417 198.502h6M-8.417 198.502h6M3.583 198.502h6M15.583 198.502h6"/><path fill="none" stroke="#E53355" stroke-width="4" d="M-17.417 217.502h10M.583 217.502h8M16.583 217.502h4"/><path fill="none" stroke="#333" stroke-width="2" d="M-20.417 222.502h6M-8.417 222.502h10M7.583 222.502h14M-20.417 226.502h6M-8.417 226.502h6M-10.417 230.502h4M-.417 230.502h4M9.583 230.502h4M3.583 226.502h6M15.583 226.502h6"/></g></svg>