<svg xmlns="http://www.w3.org/2000/svg" width="356" height="400" viewBox="0.166 0 356 400" enable-background="new 0.166 0 356 400"><path fill="#C1BEB4" d="M2.166 150h12v232h-12z"/><path fill="#231F20" d="M14.166 384h-12c-1.104 0-2-.896-2-2V150c0-1.104.896-2 2-2h12c1.104 0 2 .896 2 2v232c0 1.104-.895 2-2 2zm-10-4h8V152h-8v228z"/><path fill="#C1BEB4" d="M342.166 150h12v232h-12z"/><path fill="#231F20" d="M354.166 384h-12c-1.104 0-2-.896-2-2V150c0-1.104.896-2 2-2h12c1.104 0 2 .896 2 2v232c0 1.104-.895 2-2 2zm-10-4h8V152h-8v228z"/><path fill="#C1345E" d="M350.166 106h-4c-52-8-168-60-168-72 0 12-116 64-168 72h-4c-2.21 0-4 1.79-4 4v14h352v-14c0-2.21-1.79-4-4-4z"/><path fill="#231F20" d="M354.166 126h-352c-1.104 0-2-.896-2-2v-14c0-3.31 2.69-6 6-6h3.846c27.592-4.28 71.03-20.457 102.522-34.188 43.548-18.988 63.424-32.373 63.63-35.814v-.05c.026-1.082.912-1.95 2-1.95 1.105 0 2 .898 2 2.003.203 3.436 20.08 16.822 63.632 35.813C275.29 83.543 318.73 99.72 346.32 104h3.847c3.31 0 6 2.69 6 6v14c0 1.104-.896 2-2 2zm-350-4h348v-12c0-1.103-.897-2-2-2h-4c-.102 0-.203-.008-.304-.023C317.8 103.66 273.74 87.25 241.865 73.333c-17.938-7.833-34.188-15.79-45.755-22.41-10.5-6.01-15.564-9.945-17.944-12.69-2.38 2.745-7.443 6.68-17.944 12.69-11.566 6.62-27.816 14.577-45.755 22.41C82.592 87.25 38.533 103.66 10.47 107.977c-.1.015-.202.023-.304.023h-4c-1.103 0-2 .897-2 2v12z"/><path fill="#A52E40" d="M354.166 146c0 2.21-1.79 4-4 4h-344c-2.21 0-4-1.79-4-4v-36c0-2.21 1.79-4 4-4h344c2.21 0 4 1.79 4 4v36z"/><path fill="#231F20" d="M350.166 152h-344c-3.31 0-6-2.69-6-6v-36c0-3.31 2.69-6 6-6h344c3.31 0 6 2.69 6 6v36c0 3.31-2.69 6-6 6zm-344-44c-1.103 0-2 .897-2 2v36c0 1.103.897 2 2 2h344c1.103 0 2-.897 2-2v-36c0-1.103-.897-2-2-2h-344z"/><circle fill="#5E6363" cx="290.166" cy="336" r="26"/><path fill="#231F20" d="M290.166 364c-15.44 0-28-12.56-28-28s12.56-28 28-28 28 12.56 28 28-12.56 28-28 28zm0-52c-13.233 0-24 10.767-24 24s10.767 24 24 24 24-10.767 24-24-10.766-24-24-24z"/><circle fill="#C1D0D3" cx="290.166" cy="336" r="14.182"/><path fill="#231F20" d="M290.166 352.182c-8.923 0-16.182-7.26-16.182-16.182s7.26-16.182 16.182-16.182 16.182 7.26 16.182 16.182-7.26 16.182-16.182 16.182zm0-28.364c-6.717 0-12.182 5.465-12.182 12.182s5.465 12.182 12.182 12.182 12.182-5.465 12.182-12.182-5.465-12.182-12.182-12.182z"/><circle fill="#929D9E" cx="290.166" cy="336" r="4.727"/><g fill="#111"><path d="M277.57 337.815c1.13-.653 2.574-.266 3.228.864l2.363 4.093c.653 1.13.267 2.576-.864 3.23-1.13.65-2.576.265-3.23-.867l-2.363-4.093c-.653-1.13-.266-2.575.866-3.228zM298.037 325.997c1.13-.653 2.577-.266 3.228.864l2.365 4.095c.652 1.13.266 2.577-.865 3.23-1.13.65-2.576.265-3.23-.866l-2.363-4.095c-.652-1.13-.266-2.576.865-3.228z"/></g><g fill="#111"><path d="M282.295 325.997c1.13.653 1.518 2.1.865 3.23l-2.363 4.093c-.653 1.13-2.1 1.52-3.23.866-1.13-.653-1.517-2.1-.864-3.23l2.364-4.093c.652-1.132 2.098-1.518 3.228-.866zM302.764 337.815c1.132.652 1.52 2.1.866 3.23l-2.365 4.093c-.65 1.13-2.097 1.52-3.228.865-1.13-.652-1.518-2.1-.865-3.23l2.364-4.093c.653-1.13 2.1-1.517 3.228-.865z"/></g><g fill="#111"><path d="M294.893 324.182c0 1.306-1.058 2.364-2.363 2.364h-4.727c-1.306 0-2.364-1.06-2.364-2.364 0-1.305 1.058-2.363 2.363-2.363h4.727c1.305-.002 2.363 1.057 2.363 2.362zM294.893 347.818c0 1.305-1.058 2.363-2.363 2.363h-4.727c-1.306 0-2.364-1.058-2.364-2.362 0-1.306 1.058-2.364 2.363-2.364h4.727c1.305 0 2.363 1.06 2.363 2.364z"/></g><path fill="#231F20" d="M290.166 352.182c-8.923 0-16.182-7.26-16.182-16.182s7.26-16.182 16.182-16.182 16.182 7.26 16.182 16.182-7.26 16.182-16.182 16.182zm0-28.364c-6.717 0-12.182 5.465-12.182 12.182s5.465 12.182 12.182 12.182 12.182-5.465 12.182-12.182-5.465-12.182-12.182-12.182z"/><path fill="#333" d="M32.166 278h148v32h-148z"/><path fill="#231F20" d="M180.166 312h-148c-1.104 0-2-.896-2-2v-32c0-1.104.896-2 2-2h148c1.104 0 2 .896 2 2v32c0 1.104-.895 2-2 2zm-146-4h144v-28h-144v28z"/><path fill="#333" d="M32.166 310h148v16h-148z"/><path fill="#231F20" d="M180.166 328h-148c-1.104 0-2-.896-2-2v-16c0-1.104.896-2 2-2h148c1.104 0 2 .896 2 2v16c0 1.104-.895 2-2 2zm-146-4h144v-12h-144v12z"/><path fill="#333" d="M180.166 302h8v16h-8z"/><path fill="#231F20" d="M188.166 320h-8c-1.104 0-2-.896-2-2v-16c0-1.104.896-2 2-2h8c1.104 0 2 .896 2 2v16c0 1.104-.895 2-2 2zm-6-4h4v-12h-4v12z"/><path fill="#333" d="M180.166 294h8v8h-8z"/><path fill="#231F20" d="M188.166 304h-8c-1.104 0-2-.896-2-2v-8c0-1.104.896-2 2-2h8c1.104 0 2 .896 2 2v8c0 1.104-.895 2-2 2zm-6-4h4v-4h-4v4z"/><path fill="#333" d="M272.166 342h-84V194s0-4 4-4h48l4 4 60 80v24l12 20-44 24z"/><path fill="#231F20" d="M272.166 344h-84c-1.104 0-2-.896-2-2V194c0-2.412 1.598-6 6-6h48c3.977 0 5.665 2.928 5.954 5.272l59.646 79.528c.26.347.4.768.4 1.2v23.446l11.715 19.524c.28.468.36 1.028.216 1.554-.143.526-.494.97-.972 1.23l-44 24c-.294.162-.623.246-.958.246zm-82-4h81.49l41.723-22.758-10.93-18.213c-.186-.313-.284-.668-.284-1.03v-23.333l-59.6-79.467c-.26-.346-.4-.768-.4-1.2-.023-.9-.39-2-2-2h-48c-1.61 0-1.977 1.1-2 2.023V340z"/><path fill="#333" d="M196.166 266h8v16h-8z"/><path fill="#231F20" d="M204.166 284h-8c-1.104 0-2-.896-2-2v-16c0-1.104.896-2 2-2h8c1.104 0 2 .896 2 2v16c0 1.104-.895 2-2 2zm-6-4h4v-12h-4v12z"/><path fill="#5A4A42" d="M36.166 258h140v16h-140z"/><path fill="#231F20" d="M176.166 276h-140c-1.104 0-2-.896-2-2v-16c0-1.104.896-2 2-2h140c1.104 0 2 .896 2 2v16c0 1.104-.895 2-2 2zm-138-4h136v-12h-136v12z"/><path fill="#454545" d="M319.166 117.363c0-2.41-1.79-4.363-4-4.363H61.416c-2.21 0-4 1.954-4 4.363v22.273c0 2.41 1.79 4.363 4 4.363h253.75c2.21 0 4-1.955 4-4.364v-22.273z"/><path fill="#231F20" d="M315.166 146H61.416c-3.31 0-6-2.854-6-6.363v-22.273c0-3.51 2.69-6.363 6-6.363h253.75c3.31 0 6 2.855 6 6.364v22.273c0 3.51-2.69 6.363-6 6.363zm-253.75-31c-1.103 0-2 1.06-2 2.363v22.273c0 1.303.897 2.363 2 2.363h253.75c1.103 0 2-1.06 2-2.364v-22.273c0-1.303-.897-2.363-2-2.363H61.416z"/><path fill="#ECECEC" d="M208.166 130h-60c-3.313 0-6-2.687-6-6s2.687-6 6-6h60c3.313 0 6 2.687 6 6s-2.686 6-6 6zM268.166 130h-40c-3.313 0-6-2.687-6-6s2.687-6 6-6h40c3.313 0 6 2.687 6 6s-2.686 6-6 6zM304.166 137h-12c-4.418 0-8-3.582-8-8s3.582-8 8-8h12c4.418 0 8 3.582 8 8s-3.582 8-8 8zM76.166 137h-4c-4.418 0-8-3.582-8-8s3.582-8 8-8h4c4.418 0 8 3.582 8 8s-3.58 8-8 8zM196.166 139h-30.25c-1.104 0-2-.896-2-2s.896-2 2-2h30.25c1.104 0 2 .896 2 2s-.895 2-2 2zM110.416 123h-18.25c-1.104 0-2-.896-2-2s.896-2 2-2h18.25c1.104 0 2 .896 2 2s-.895 2-2 2zM116.166 131h-18.25c-1.104 0-2-.896-2-2s.896-2 2-2h18.25c1.104 0 2 .896 2 2s-.895 2-2 2zM120.166 139h-30.25c-1.104 0-2-.896-2-2s.896-2 2-2h30.25c1.104 0 2 .896 2 2s-.895 2-2 2zM216.166 139h-12c-1.104 0-2-.896-2-2s.896-2 2-2h12c1.104 0 2 .896 2 2s-.895 2-2 2zM248.166 139h-24c-1.104 0-2-.896-2-2s.896-2 2-2h24c1.104 0 2 .896 2 2s-.895 2-2 2z"/><path fill="#4CABC2" d="M268.166 242l-32-44h-40v48l36 8z"/><path fill="#231F20" d="M232.166 256c-.146 0-.29-.016-.434-.048l-36-8c-.915-.203-1.566-1.015-1.566-1.952v-48c0-1.104.896-2 2-2h40c.64 0 1.24.306 1.617.824l32 44c.375.517.482 1.18.287 1.787-.194.608-.667 1.086-1.27 1.288l-36 12c-.206.068-.42.102-.634.102zm-34-11.604l33.894 7.532 32.882-10.96L235.148 200h-36.98v44.396z"/><path opacity=".2" fill="#fff" d="M204.166 198l49.998 65h4l-49.998-65zM196.166 230l28 40h12l-40-56zM212.166 198l48.332 65 7.668-9-40-56z"/><path fill="#231F20" d="M232.166 256c-.146 0-.29-.016-.434-.048l-36-8c-.915-.203-1.566-1.015-1.566-1.952v-48c0-1.104.896-2 2-2h40c.64 0 1.24.306 1.617.824l32 44c.375.517.482 1.18.287 1.787-.194.608-.667 1.086-1.27 1.288l-36 12c-.206.068-.42.102-.634.102zm-34-11.604l33.894 7.532 32.882-10.96L235.148 200h-36.98v44.396z"/><path fill="#F79520" d="M288.166 294h8v-12h-12z"/><path fill="#231F20" d="M296.166 296h-8c-.86 0-1.625-.55-1.897-1.367l-4-12c-.204-.61-.102-1.28.274-1.802.376-.52.98-.83 1.622-.83h12c1.104 0 2 .896 2 2v12c0 1.104-.895 2-2 2zm-6.558-4h4.56v-8h-7.227l2.668 8z"/><path fill="#F79520" d="M208.166 174h8v8h-8z"/><path fill="#231F20" d="M216.166 184h-8c-1.104 0-2-.896-2-2v-8c0-1.104.896-2 2-2h8c1.104 0 2 .896 2 2v8c0 1.104-.895 2-2 2zm-6-4h4v-4h-4v4z"/><circle fill="#454646" cx="220.166" cy="274" r="4"/><path fill="#231F20" d="M220.166 280c-3.31 0-6-2.69-6-6s2.69-6 6-6 6 2.69 6 6-2.69 6-6 6zm0-8c-1.103 0-2 .897-2 2s.897 2 2 2 2-.897 2-2-.897-2-2-2z"/><path fill="#333" d="M208.166 182h8v8h-8z"/><path fill="#231F20" d="M216.166 192h-8c-1.104 0-2-.896-2-2v-8c0-1.104.896-2 2-2h8c1.104 0 2 .896 2 2v8c0 1.104-.895 2-2 2zm-6-4h4v-4h-4v4z"/><path fill="#939A9F" d="M60.166 254l-4-16h24l-4 16z"/><path fill="#231F20" d="M76.166 256h-16c-.918 0-1.718-.625-1.94-1.515l-4-16c-.15-.598-.015-1.23.364-1.716.38-.486.96-.77 1.576-.77h24c.616 0 1.197.283 1.576.77.38.484.514 1.117.364 1.715l-4 16c-.222.89-1.022 1.515-1.94 1.515zm-14.438-4h12.877l3-12H58.728l3 12z"/><path fill="#CD8D06" d="M98.163 242c-1.05 0-2.08-.43-2.83-1.17-.74-.75-1.17-1.78-1.17-2.83s.43-2.09 1.17-2.83c.75-.74 1.78-1.17 2.83-1.17 1.06 0 2.09.43 2.83 1.17.75.75 1.17 1.78 1.17 2.83s-.42 2.08-1.17 2.83c-.74.74-1.77 1.17-2.83 1.17zM104.163 236c-1.05 0-2.08-.43-2.83-1.17-.74-.75-1.17-1.78-1.17-2.83s.43-2.08 1.17-2.83c.75-.74 1.78-1.17 2.83-1.17 1.06 0 2.09.43 2.83 1.17.75.74 1.17 1.78 1.17 2.83s-.42 2.08-1.17 2.83c-.74.74-1.77 1.17-2.83 1.17zM116.163 236c-1.05 0-2.08-.43-2.82-1.17-.75-.75-1.18-1.78-1.18-2.83 0-1.06.43-2.09 1.18-2.83.74-.74 1.77-1.17 2.82-1.17 1.06 0 2.09.43 2.83 1.17.75.74 1.17 1.78 1.17 2.83s-.42 2.08-1.17 2.83c-.74.74-1.77 1.17-2.83 1.17zM110.163 242c-1.05 0-2.08-.43-2.83-1.17-.74-.75-1.17-1.78-1.17-2.83s.43-2.08 1.18-2.83c.74-.74 1.77-1.17 2.82-1.17 1.06 0 2.09.43 2.83 1.17.75.75 1.17 1.78 1.17 2.83s-.42 2.08-1.17 2.83c-.74.74-1.77 1.17-2.83 1.17zM122.163 242c-1.05 0-2.08-.43-2.83-1.17-.74-.75-1.17-1.78-1.17-2.83s.43-2.09 1.17-2.83c.75-.74 1.78-1.17 2.83-1.17 1.06 0 2.09.43 2.83 1.17.75.74 1.17 1.78 1.17 2.83s-.42 2.08-1.17 2.83c-.74.74-1.77 1.17-2.83 1.17z"/><path fill="#937855" d="M95.166 254l-4-12h37l-4 12z"/><path fill="#231F20" d="M124.166 256h-29c-.86 0-1.625-.55-1.897-1.367l-4-12c-.204-.61-.102-1.28.274-1.802.376-.52.98-.83 1.623-.83h37c.643 0 1.247.31 1.623.83.376.522.478 1.192.275 1.803l-4 12c-.274.816-1.038 1.367-1.9 1.367zm-27.558-4h26.117l2.667-8h-31.45l2.666 8z"/><path fill="#454545" d="M288.166 238.363c0-2.41-1.79-4.363-4-4.363h-68c-2.21 0-4 1.954-4 4.363v139.273c0 2.41 1.79 4.363 4 4.363h68c2.21 0 4-1.955 4-4.364V238.363z"/><path fill="#231F20" d="M284.166 384h-68c-3.31 0-6-2.854-6-6.363V238.363c0-3.51 2.69-6.363 6-6.363h68c3.31 0 6 2.854 6 6.363v139.273c0 3.51-2.69 6.364-6 6.364zm-68-148c-1.103 0-2 1.06-2 2.363v139.273c0 1.303.897 2.363 2 2.363h68c1.103 0 2-1.062 2-2.364V238.363c0-1.303-.897-2.363-2-2.363h-68z"/><path fill="#ECECEC" d="M232.166 250h-8c-2.21 0-4-1.79-4-4s1.79-4 4-4h8c2.21 0 4 1.79 4 4s-1.79 4-4 4zM252.166 254h-8c-2.21 0-4-1.79-4-4s1.79-4 4-4h8c2.21 0 4 1.79 4 4s-1.79 4-4 4zM276.167 250h-12c-2.21 0-4-1.79-4-4s1.79-4 4-4h12c2.21 0 4 1.79 4 4s-1.79 4-4 4z"/><path fill="#454545" d="M180.166 196.363c0-2.41-1.79-4.363-4-4.363h-38c-2.21 0-4 1.954-4 4.363v53.273c0 2.41 1.79 4.363 4 4.363h38c2.21 0 4-1.955 4-4.364v-53.273z"/><path fill="#231F20" d="M176.166 256h-38c-3.31 0-6-2.854-6-6.363v-53.273c0-3.51 2.69-6.363 6-6.363h38c3.31 0 6 2.855 6 6.364v53.273c0 3.51-2.69 6.363-6 6.363zm-38-62c-1.103 0-2 1.06-2 2.363v53.273c0 1.303.897 2.363 2 2.363h38c1.103 0 2-1.062 2-2.364v-53.273c0-1.303-.897-2.363-2-2.363h-38z"/><path fill="#ECECEC" d="M228.166 271h-8c-.553 0-1-.447-1-1s.447-1 1-1h8c.553 0 1 .447 1 1s-.447 1-1 1zM240.166 271h-8c-.553 0-1-.447-1-1s.447-1 1-1h8c.553 0 1 .447 1 1s-.447 1-1 1zM252.166 271h-8c-.553 0-1-.447-1-1s.447-1 1-1h8c.553 0 1 .447 1 1s-.447 1-1 1zM228.166 275h-8c-.553 0-1-.447-1-1s.447-1 1-1h8c.553 0 1 .447 1 1s-.447 1-1 1zM236.166 275h-4c-.553 0-1-.447-1-1s.447-1 1-1h4c.553 0 1 .447 1 1s-.447 1-1 1zM248.166 275h-8c-.553 0-1-.447-1-1s.447-1 1-1h8c.553 0 1 .447 1 1s-.447 1-1 1zM256.166 275h-4c-.553 0-1-.447-1-1s.447-1 1-1h4c.553 0 1 .447 1 1s-.447 1-1 1zM236.166 264h-8c-1.104 0-2-.896-2-2s.896-2 2-2h8c1.104 0 2 .896 2 2s-.895 2-2 2zM220.163 264c-.52 0-1.04-.21-1.41-.59-.37-.37-.59-.88-.59-1.41s.22-1.04.59-1.41c.74-.75 2.08-.75 2.83-.01.37.38.58.89.58 1.42s-.21 1.04-.58 1.41c-.38.38-.89.59-1.42.59zM272.163 270c-1.05 0-2.08-.43-2.83-1.17-.74-.75-1.17-1.78-1.17-2.83s.43-2.08 1.17-2.83c.75-.74 1.78-1.17 2.83-1.17 1.06 0 2.09.43 2.83 1.17.75.75 1.17 1.78 1.17 2.83s-.42 2.08-1.17 2.83c-.74.74-1.77 1.17-2.83 1.17zM228.166 291h-8c-.553 0-1-.447-1-1s.447-1 1-1h8c.553 0 1 .447 1 1s-.447 1-1 1zM240.166 291h-8c-.553 0-1-.447-1-1s.447-1 1-1h8c.553 0 1 .447 1 1s-.447 1-1 1zM252.166 291h-8c-.553 0-1-.447-1-1s.447-1 1-1h8c.553 0 1 .447 1 1s-.447 1-1 1zM228.166 295h-8c-.553 0-1-.447-1-1s.447-1 1-1h8c.553 0 1 .447 1 1s-.447 1-1 1zM236.166 295h-4c-.553 0-1-.447-1-1s.447-1 1-1h4c.553 0 1 .447 1 1s-.447 1-1 1zM248.166 295h-8c-.553 0-1-.447-1-1s.447-1 1-1h8c.553 0 1 .447 1 1s-.447 1-1 1zM256.166 295h-4c-.553 0-1-.447-1-1s.447-1 1-1h4c.553 0 1 .447 1 1s-.447 1-1 1zM236.166 284h-8c-1.104 0-2-.896-2-2s.896-2 2-2h8c1.104 0 2 .896 2 2s-.895 2-2 2zM220.163 284c-.52 0-1.04-.21-1.41-.59-.37-.37-.59-.88-.59-1.41s.22-1.04.59-1.41c.74-.75 2.08-.75 2.83-.01.37.38.58.9.58 1.42 0 .52-.21 1.04-.58 1.41-.38.38-.89.59-1.42.59zM272.163 290c-1.05 0-2.08-.43-2.83-1.17-.74-.75-1.17-1.78-1.17-2.83s.43-2.09 1.17-2.83c.75-.74 1.78-1.17 2.83-1.17 1.06 0 2.09.43 2.83 1.17.75.75 1.17 1.78 1.17 2.83s-.42 2.08-1.17 2.83c-.74.74-1.77 1.17-2.83 1.17zM228.166 311h-8c-.553 0-1-.447-1-1s.447-1 1-1h8c.553 0 1 .447 1 1s-.447 1-1 1zM240.166 311h-8c-.553 0-1-.447-1-1s.447-1 1-1h8c.553 0 1 .447 1 1s-.447 1-1 1zM252.166 311h-8c-.553 0-1-.447-1-1s.447-1 1-1h8c.553 0 1 .447 1 1s-.447 1-1 1zM228.166 315h-8c-.553 0-1-.447-1-1s.447-1 1-1h8c.553 0 1 .447 1 1s-.447 1-1 1zM236.166 315h-4c-.553 0-1-.447-1-1s.447-1 1-1h4c.553 0 1 .447 1 1s-.447 1-1 1zM248.166 315h-8c-.553 0-1-.447-1-1s.447-1 1-1h8c.553 0 1 .447 1 1s-.447 1-1 1zM256.166 315h-4c-.553 0-1-.447-1-1s.447-1 1-1h4c.553 0 1 .447 1 1s-.447 1-1 1zM224.167 304h-4c-1.105 0-2-.896-2-2s.895-2 2-2h4c1.104 0 2 .896 2 2s-.895 2-2 2zM236.166 304h-4c-1.105 0-2-.896-2-2s.895-2 2-2h4c1.104 0 2 .896 2 2s-.895 2-2 2zM272.163 310c-1.05 0-2.08-.43-2.83-1.17-.74-.75-1.17-1.78-1.17-2.83s.43-2.08 1.17-2.83c.75-.74 1.78-1.17 2.83-1.17 1.06 0 2.09.43 2.83 1.17.75.75 1.17 1.78 1.17 2.83s-.42 2.08-1.17 2.83c-.74.74-1.77 1.17-2.83 1.17zM228.166 331h-8c-.553 0-1-.447-1-1s.447-1 1-1h8c.553 0 1 .447 1 1s-.447 1-1 1zM224.166 355h-4c-.553 0-1-.447-1-1s.447-1 1-1h4c.553 0 1 .447 1 1s-.447 1-1 1zM232.166 355h-4c-.553 0-1-.447-1-1s.447-1 1-1h4c.553 0 1 .447 1 1s-.447 1-1 1zM244.166 355h-8c-.553 0-1-.447-1-1s.447-1 1-1h8c.553 0 1 .447 1 1s-.447 1-1 1zM224.166 359h-4c-.553 0-1-.447-1-1s.447-1 1-1h4c.553 0 1 .447 1 1s-.447 1-1 1zM224.166 367h-4c-.553 0-1-.447-1-1s.447-1 1-1h4c.553 0 1 .447 1 1s-.447 1-1 1zM232.166 367h-4c-.553 0-1-.447-1-1s.447-1 1-1h4c.553 0 1 .447 1 1s-.447 1-1 1zM244.166 367h-4c-.553 0-1-.447-1-1s.447-1 1-1h4c.553 0 1 .447 1 1s-.447 1-1 1zM236.163 367c-.26 0-.52-.11-.7-.29-.19-.19-.3-.45-.3-.71 0-.27.11-.52.3-.71.37-.37 1.04-.37 1.41 0 .19.19.29.44.29.71 0 .26-.1.52-.29.71-.19.18-.45.29-.71.29zM232.166 359h-4c-.553 0-1-.447-1-1s.447-1 1-1h4c.553 0 1 .447 1 1s-.447 1-1 1zM240.166 359h-4c-.553 0-1-.447-1-1s.447-1 1-1h4c.553 0 1 .447 1 1s-.447 1-1 1zM248.166 359h-4c-.553 0-1-.447-1-1s.447-1 1-1h4c.553 0 1 .447 1 1s-.447 1-1 1zM256.166 359h-4c-.553 0-1-.447-1-1s.447-1 1-1h4c.553 0 1 .447 1 1s-.447 1-1 1zM240.166 331h-8c-.553 0-1-.447-1-1s.447-1 1-1h8c.553 0 1 .447 1 1s-.447 1-1 1zM252.166 331h-8c-.553 0-1-.447-1-1s.447-1 1-1h8c.553 0 1 .447 1 1s-.447 1-1 1zM228.166 335h-8c-.553 0-1-.447-1-1s.447-1 1-1h8c.553 0 1 .447 1 1s-.447 1-1 1zM236.166 335h-4c-.553 0-1-.447-1-1s.447-1 1-1h4c.553 0 1 .447 1 1s-.447 1-1 1zM248.166 335h-8c-.553 0-1-.447-1-1s.447-1 1-1h8c.553 0 1 .447 1 1s-.447 1-1 1zM256.166 335h-4c-.553 0-1-.447-1-1s.447-1 1-1h4c.553 0 1 .447 1 1s-.447 1-1 1zM232.166 324h-12c-1.104 0-2-.896-2-2s.896-2 2-2h12c1.104 0 2 .896 2 2s-.895 2-2 2zM228.166 348h-8c-1.104 0-2-.896-2-2s.896-2 2-2h8c1.104 0 2 .896 2 2s-.895 2-2 2zM232.166 376h-12c-1.104 0-2-.896-2-2s.896-2 2-2h12c1.104 0 2 .896 2 2s-.895 2-2 2zM248.166 376h-8c-1.104 0-2-.896-2-2s.896-2 2-2h8c1.104 0 2 .896 2 2s-.895 2-2 2zM264.166 376h-8c-1.104 0-2-.896-2-2s.896-2 2-2h8c1.104 0 2 .896 2 2s-.895 2-2 2zM244.166 324h-4c-1.105 0-2-.896-2-2s.895-2 2-2h4c1.104 0 2 .896 2 2s-.895 2-2 2zM260.166 324h-8c-1.104 0-2-.896-2-2s.896-2 2-2h8c1.104 0 2 .896 2 2s-.895 2-2 2z"/><path fill="#454545" d="M76.166 374h-4l-4-24h8z"/><path fill="#231F20" d="M76.166 376h-4c-.978 0-1.812-.707-1.973-1.67l-4-24c-.097-.58.066-1.174.447-1.623.38-.448.938-.707 1.526-.707h8c1.104 0 2 .896 2 2v24c0 1.104-.895 2-2 2zm-2.305-4h.307v-20h-3.64l3.334 20z"/><path fill="#ECECEC" d="M272.163 330c-1.05 0-2.08-.43-2.83-1.17-.74-.75-1.17-1.78-1.17-2.83 0-1.06.43-2.09 1.17-2.83.75-.74 1.78-1.17 2.83-1.17 1.06 0 2.09.43 2.83 1.17.75.74 1.17 1.77 1.17 2.83 0 1.05-.42 2.08-1.17 2.83-.74.74-1.77 1.17-2.83 1.17zM272.163 374c-1.05 0-2.08-.43-2.83-1.17-.74-.74-1.17-1.77-1.17-2.83s.43-2.09 1.17-2.83c.75-.74 1.78-1.17 2.83-1.17 1.06 0 2.09.43 2.83 1.17.75.74 1.17 1.77 1.17 2.83 0 1.05-.42 2.08-1.17 2.83-.74.74-1.78 1.17-2.83 1.17z"/><path fill="#454545" d="M48.168 334c0 16 19.998 20 19.998 20h50c14.36 0 26-11.64 26-26s-11.64-26-26-26h-54s-15.998 4-15.998 32z"/><path fill="#231F20" d="M118.166 356h-50c-.132 0-.263-.013-.392-.04-.216-.042-21.606-4.522-21.606-21.96 0-29.226 16.798-33.762 17.513-33.94.16-.04.323-.06.486-.06h54c15.44 0 28 12.56 28 28s-12.56 28-28 28zm-49.784-4h49.785c13.234 0 24-10.767 24-24s-10.766-24-24-24H64.45c-1.816.58-14.282 5.46-14.282 30 0 13.44 16.322 17.568 18.214 18z"/><path fill="#454545" d="M164.166 362h8v16h-8z"/><path fill="#231F20" d="M172.166 380h-8c-1.104 0-2-.896-2-2v-16c0-1.104.896-2 2-2h8c1.104 0 2 .896 2 2v16c0 1.104-.895 2-2 2zm-6-4h4v-12h-4v12z"/><path fill="#454545" d="M132.166 362h8v16h-8z"/><path fill="#231F20" d="M140.166 380h-8c-1.104 0-2-.896-2-2v-16c0-1.104.896-2 2-2h8c1.104 0 2 .896 2 2v16c0 1.104-.895 2-2 2zm-6-4h4v-12h-4v12z"/><path fill="#454545" d="M42.166 306c-7.73 0-14 6.268-14 14 0 .648.06 1.28.145 1.906l-.02-.03-4.874 11.374 4.75 4.75 6.305-6.305-.005-.01c2.21 1.46 4.854 2.314 7.7 2.314 7.73 0 14-6.27 14-14s-6.268-14-14-14z"/><path fill="#231F20" d="M28.166 340c-.512 0-1.024-.195-1.414-.586l-4.75-4.75c-.58-.578-.747-1.45-.424-2.202l4.675-10.908c-.06-.553-.086-1.058-.086-1.554 0-8.822 7.178-16 16-16s16 7.178 16 16-7.178 16-16 16c-2.582 0-5.1-.62-7.37-1.802l-5.216 5.216c-.39.39-.902.586-1.414.586zm-2.378-7.207l2.378 2.38 4.787-4.788c.04-.048.085-.094.132-.14.673-.645 1.702-.743 2.483-.228 1.964 1.298 4.246 1.983 6.6 1.983 6.616 0 12-5.383 12-12s-5.384-12-12-12-12 5.383-12 12c0 .49.04 1.01.125 1.634.067.492-.05.975-.308 1.367l-4.197 9.793z"/><path fill="#454545" d="M126.996 361.512l5.657 5.657-11.313 11.313-5.658-5.658z"/><path fill="#231F20" d="M121.337 380.485c-.512 0-1.023-.195-1.414-.586l-5.657-5.658c-.375-.375-.586-.884-.586-1.414s.21-1.04.586-1.414L125.58 360.1c.375-.374.884-.585 1.414-.585.53 0 1.04.21 1.415.586l5.655 5.658c.78.78.78 2.047 0 2.828L122.752 379.9c-.39.39-.903.585-1.415.585zm-2.828-7.657l2.828 2.83 8.485-8.486-2.828-2.83-8.486 8.486z"/><path fill="#454545" d="M48.166 306c0-2.21-1.79-4-4-4s-4 1.79-4 4v4h8v-4z"/><path fill="#231F20" d="M48.166 312h-8c-1.104 0-2-.896-2-2v-4c0-3.31 2.69-6 6-6s6 2.69 6 6v4c0 1.104-.895 2-2 2zm-6-4h4v-2c0-1.103-.897-2-2-2s-2 .897-2 2v2z"/><path fill="#454545" d="M174.166 370c7.732 0 14-6.268 14-14s-6.268-14-14-14h-44c-7.732 0-14 6.268-14 14s6.268 14 14 14h44z"/><path fill="#231F20" d="M174.166 372h-44c-8.822 0-16-7.178-16-16s7.178-16 16-16h44c8.822 0 16 7.178 16 16s-7.177 16-16 16zm-44-28c-6.617 0-12 5.383-12 12s5.383 12 12 12h44c6.617 0 12-5.383 12-12s-5.383-12-12-12h-44z"/><path fill="#454545" d="M116.14 343.995l.026.005v-10l-8.268 8.27c-4.43 1.027-7.732 4.99-7.732 9.73 0 .626.064 1.237.174 1.83l-.002-.003L96.166 358l4 4 2.93-2.93h-.002c1.81 1.81 4.31 2.93 7.072 2.93 5.523 0 10-4.478 10-10 0-3.28-1.586-6.182-4.025-8.005z"/><path fill="#231F20" d="M110.166 364c-2.528 0-4.938-.776-6.955-2.218l-1.63 1.632c-.75.75-2.077.75-2.828 0l-4-4c-.78-.78-.78-2.047 0-2.828l3.47-3.47c-.037-.378-.055-.75-.055-1.116 0-5.41 3.55-10.068 8.704-11.53l7.883-7.884c.572-.572 1.432-.744 2.18-.434.747.31 1.234 1.04 1.234 1.848v9.07c2.555 2.275 4 5.475 4 8.93 0 6.617-5.384 12-12 12zm-7.07-6.93c.51 0 1.023.196 1.413.587 1.51 1.51 3.52 2.343 5.656 2.343 4.41 0 8-3.59 8-8 0-2.538-1.175-4.872-3.223-6.403-.607-.453-.894-1.2-.777-1.92v-4.848l-4.854 4.853c-.264.265-.598.45-.962.534-3.64.846-6.185 4.046-6.185 7.783 0 .468.047.962.14 1.47.132.71-.132 1.414-.648 1.866L98.994 358l1.172 1.172 1.515-1.515c.39-.39.903-.586 1.415-.586z"/><g fill="#ECECEC"><path d="M141.166 238h8"/><path d="M149.166 240h-8c-1.104 0-2-.896-2-2s.896-2 2-2h8c1.104 0 2 .896 2 2s-.895 2-2 2z"/></g><g fill="#ECECEC"><path d="M141.166 246h4"/><path d="M145.166 248h-4c-1.104 0-2-.896-2-2s.896-2 2-2h4c1.104 0 2 .896 2 2s-.895 2-2 2z"/></g><g fill="#ECECEC"><path d="M153.166 246h4"/><path d="M157.166 248h-4c-1.104 0-2-.896-2-2s.896-2 2-2h4c1.104 0 2 .896 2 2s-.895 2-2 2z"/></g><g fill="#ECECEC"><path d="M157.166 238h4"/><path d="M161.166 240h-4c-1.104 0-2-.896-2-2s.896-2 2-2h4c1.104 0 2 .896 2 2s-.895 2-2 2z"/></g><g fill="#ECECEC"><path d="M169.166 238h4"/><path d="M173.166 240h-4c-1.104 0-2-.896-2-2s.896-2 2-2h4c1.104 0 2 .896 2 2s-.895 2-2 2z"/></g><g fill="#ECECEC"><path d="M151.166 200h12"/><path d="M163.166 202h-12c-1.104 0-2-.896-2-2s.896-2 2-2h12c1.104 0 2 .896 2 2s-.895 2-2 2zM153.166 228h8"/><path d="M161.166 230h-8c-1.104 0-2-.896-2-2s.896-2 2-2h8c1.104 0 2 .896 2 2s-.895 2-2 2z"/><circle cx="157.166" cy="214" r="8"/></g></svg>