<svg xmlns="http://www.w3.org/2000/svg" width="356" height="400" viewBox="6.5 0 356 400" enable-background="new 6.5 0 356 400"><path fill="#C1BEB4" stroke="#231F20" stroke-width="4" stroke-linecap="round" stroke-linejoin="round" stroke-miterlimit="10" d="M8.5 150h12v148h-12zM348.5 150h12v148h-12z"/><path fill="#454545" stroke="#231F20" stroke-width="4" stroke-linecap="round" stroke-linejoin="round" stroke-miterlimit="10" d="M356.5 106h-4c-52-8-168-60-168-72 0 12-116 64-168 72h-4c-2.21 0-4 1.79-4 4v40h352v-40c0-2.21-1.79-4-4-4z"/><path fill="#333" stroke="#231F20" stroke-width="4" stroke-linecap="round" stroke-linejoin="round" stroke-miterlimit="10" d="M360.5 146c0 2.21-1.79 4-4 4h-344c-2.21 0-4-1.79-4-4v-36c0-2.21 1.79-4 4-4h344c2.21 0 4 1.79 4 4v36z"/><path fill="#3F342F" stroke="#231F20" stroke-width="4" stroke-linecap="round" stroke-linejoin="round" stroke-miterlimit="10" d="M360.5 378c0 2.21-1.79 4-4 4h-344c-2.21 0-4-1.79-4-4V262h352v116z"/><path fill="#5A4A42" d="M58.785 264H83.93v116H58.784zM10.5 264h23.144v116H14.5s-4 0-4-4V264zM109.07 264h25.145v116H109.07zM159.357 264H184.5v116h-25.143zM209.643 264h25.143v116h-25.143zM259.93 264h25.142v116H259.93zM310.215 264h25.143v116h-25.143z"/><path fill="none" stroke="#FF5700" stroke-width="4" stroke-linecap="round" stroke-linejoin="round" stroke-miterlimit="10" d="M72.5 310h30l6 12-10 22h-22l-10-20zM106.5 314s8-4 8-16M108.5 322s12-4 12-16M68.5 314s-8-4-8-16M66.5 322s-12-4-12-16M70.5 332s-8 4-8 16M66.5 326s-12 4-12 16M104.5 332s8 4 8 16M108.5 326s12 4 12 16"/><g fill="none" stroke="#FF5700" stroke-width="4" stroke-linecap="round" stroke-linejoin="round" stroke-miterlimit="10"><circle cx="81.5" cy="302" r="3"/><path d="M81.5 310v-5"/></g><g fill="none" stroke="#FF5700" stroke-width="4" stroke-linecap="round" stroke-linejoin="round" stroke-miterlimit="10"><circle cx="93.5" cy="302" r="3"/><path d="M93.5 310v-5"/></g><path fill="none" stroke="#FF5700" stroke-width="4" stroke-linecap="round" stroke-linejoin="round" stroke-miterlimit="10" d="M72.5 310l-3-3v-9"/><path fill="none" stroke="#FF5700" stroke-width="4" stroke-linecap="round" stroke-linejoin="round" stroke-miterlimit="10" d="M76.5 292c0 3.313-2.687 6-6 6s-6-2.687-6-6v-10s0-8 8-8h4v18zM70.5 276s-2 14 6 14M102.5 310l3-3v-9"/><path fill="none" stroke="#FF5700" stroke-width="4" stroke-linecap="round" stroke-linejoin="round" stroke-miterlimit="10" d="M98.5 292c0 3.313 2.687 6 6 6s6-2.687 6-6v-10s0-8-8-8h-4v18zM104.5 276s2 14-6 14"/><path fill="none" stroke="#ECECEC" stroke-width="12" stroke-linecap="round" stroke-linejoin="round" stroke-miterlimit="10" d="M62.5 362h50M198.5 278h22M198.5 322h22M252.5 322h2M270.5 322h8"/><path fill="none" stroke="#ECECEC" stroke-width="8" stroke-linecap="round" stroke-linejoin="round" stroke-miterlimit="10" d="M280.5 365.997h-12M256.19 366H244.5"/><path fill="none" stroke="#ECECEC" stroke-width="12" stroke-linecap="round" stroke-linejoin="round" stroke-miterlimit="10" d="M236.5 322M304.5 278h26M304.5 306h26M304.5 334h26M240.5 278h30"/><path fill="none" stroke="#ECECEC" stroke-width="4" stroke-linecap="round" stroke-linejoin="round" stroke-miterlimit="10" d="M194.5 290h30M232.5 290h6M246.5 290h12M194.5 298h22M194.5 306h12M214.5 306h12M300.5 346h12M300.5 354h12M320.5 346h12M340.5 346h2M300.5 318h12M320.5 318h12M340.5 318h2M340.5 290h2M340.5 354h2M224.5 298h6M238.5 298h12M258.5 298h12M194.5 334h30M232.5 334h6M246.5 334h12M194.5 342h22M224.5 342h6M238.5 342h12M258.5 342h12"/><path fill="#AB9473" stroke="#231F20" stroke-width="4" stroke-linecap="round" stroke-linejoin="round" stroke-miterlimit="10" d="M100.5 242v8h-58v-8h-10v16h78v-16z"/><path fill="#939A9F" stroke="#231F20" stroke-width="4" stroke-linecap="round" stroke-linejoin="round" stroke-miterlimit="10" d="M78.5 246c0-2.21-1.79-4-4-4h-20c-2.21 0-4 1.79-4 4v4h28v-4z"/><path fill="#6C7071" stroke="#231F20" stroke-width="4" stroke-linecap="round" stroke-linejoin="round" stroke-miterlimit="10" d="M66.5 240c0 1.104-.896 2-2 2s-2-.896-2-2 .896-2 2-2 2 .896 2 2z"/></svg>