<svg xmlns="http://www.w3.org/2000/svg" width="356" height="400" viewBox="0.5 0.5 356 400" enable-background="new 0.5 0.5 356 400"><path fill="#C1BEB4" stroke="#231F20" stroke-width="4" stroke-linecap="round" stroke-linejoin="round" stroke-miterlimit="10" d="M2.5 150.002h12v148h-12zM342.5 150.002h12v148h-12z"/><path fill="#FE71B7" stroke="#231F20" stroke-width="4" stroke-linecap="round" stroke-linejoin="round" stroke-miterlimit="10" d="M350.5 106.002h-4c-52-8-168-60-168-72 0 12-116 64-168 72h-4c-2.21 0-4 1.79-4 4v40h352v-40c0-2.21-1.79-4-4-4z"/><path fill="#C95B97" stroke="#231F20" stroke-width="4" stroke-linecap="round" stroke-linejoin="round" stroke-miterlimit="10" d="M354.5 146.002c0 2.21-1.79 4-4 4H6.5c-2.21 0-4-1.79-4-4v-36c0-2.21 1.79-4 4-4h344c2.21 0 4 1.79 4 4v36z"/><path fill="#333" stroke="#231F20" stroke-width="4" stroke-linecap="round" stroke-linejoin="round" stroke-miterlimit="10" d="M354.5 378.002c0 2.21-1.79 4-4 4H6.5c-2.21 0-4-1.79-4-4v-104h352v104z"/><path fill="#5B5663" stroke="#231F20" stroke-width="4" stroke-linecap="round" stroke-linejoin="round" stroke-miterlimit="10" d="M14.5 262.002h328v12h-328z"/><g fill="none" stroke="#C95B97" stroke-linecap="round" stroke-linejoin="round" stroke-miterlimit="10"><path stroke-width="9" d="M73.5 323.002l32-5M57.5 337.002l62-10"/><path stroke-width="4" d="M117.494 338.997c-4.422 11.653-15.67 19.956-28.88 20.005-10.325.04-19.49-4.976-25.152-12.717M57.634 325.104c1.455-15.71 14.646-28.042 30.752-28.102 12.44-.046 23.197 7.244 28.172 17.8M116.733 315.185"/><path stroke-width="9" d="M163.5 323.002l32-5M147.5 337.002l62-10"/><path stroke-width="4" d="M207.494 338.997c-4.422 11.653-15.672 19.956-28.88 20.005-10.325.04-19.49-4.976-25.152-12.717M147.634 325.104c1.455-15.71 14.646-28.042 30.75-28.102 12.443-.046 23.2 7.244 28.175 17.8M206.732 315.185"/><path stroke-width="9" d="M253.5 323.002l32-5M237.5 337.002l62-10"/><path stroke-width="4" d="M297.494 338.997c-4.422 11.653-15.672 19.956-28.88 20.005-10.325.04-19.49-4.976-25.15-12.717M237.634 325.104c1.455-15.71 14.646-28.042 30.75-28.102 12.443-.046 23.2 7.244 28.175 17.8M296.732 315.185"/></g><g fill="#202020"><path d="M168.042 74.654c-1.52 0-2.854-1.105-3.096-2.652-.267-1.712.903-3.316 2.615-3.584l22.304-3.484c1.71-.263 3.315.902 3.583 2.614s-.903 3.315-2.614 3.583l-22.303 3.485c-.165.026-.328.04-.488.04zM156.89 84.41c-1.512 0-2.844-1.095-3.092-2.637-.275-1.71.887-3.32 2.597-3.596l43.213-6.97c1.707-.277 3.32.887 3.595 2.598.276 1.71-.887 3.32-2.597 3.595l-43.212 6.97c-.17.028-.338.04-.504.04zM178.498 98.002c-7.312 0-14.25-3.522-18.573-9.435-.455-.62-.32-1.493.302-1.947.622-.455 1.493-.318 1.948.302 3.8 5.196 9.898 8.292 16.323 8.292h.076c8.314-.03 15.882-5.272 18.83-13.044.273-.72 1.078-1.083 1.8-.81.72.274 1.08 1.08.808 1.8-3.355 8.842-11.967 14.807-21.427 14.842h-.087zM156.99 74.376c-.045 0-.088-.002-.132-.007-.767-.07-1.33-.75-1.26-1.517C156.696 61.01 166.504 52.045 178.414 52h.084c8.87 0 17.033 5.177 20.817 13.206.328.696.03 1.527-.666 1.855-.697.33-1.528.03-1.856-.666-3.326-7.057-10.502-11.605-18.296-11.605h-.073c-10.467.037-19.087 7.914-20.05 18.32-.067.723-.675 1.266-1.386 1.266z"/><path stroke="#C95B97" stroke-width="4" stroke-linecap="round" stroke-linejoin="round" stroke-miterlimit="10" d="M198.178 66.068"/></g><g fill="none" stroke="#231F20" stroke-linecap="round" stroke-linejoin="round" stroke-miterlimit="10"><path stroke-width="4" d="M94.24 125.952l13.483-2.106M87.5 131.85l26.12-4.213"/><path stroke-width="2" d="M112.776 132.69c-1.863 4.91-6.603 8.41-12.168 8.43-4.35.015-8.21-2.098-10.597-5.358M87.556 126.838c.613-6.62 6.172-11.814 12.956-11.84 5.242-.02 9.774 3.052 11.87 7.5"/></g><path fill="none" stroke="#231F20" stroke-width="4" stroke-linecap="round" stroke-linejoin="round" stroke-miterlimit="10" d="M111.978 123.512"/><path fill="none" stroke="#231F20" stroke-width="8" stroke-linecap="round" stroke-linejoin="round" stroke-miterlimit="10" d="M140.833 128.002h7.667M160.833 128.002H176.5M188.5 128.002h40M240.5 128.002h32"/><path fill="#FE71B7" stroke="#231F20" stroke-width="4" stroke-linecap="round" stroke-linejoin="round" stroke-miterlimit="10" d="M342.5 154.002c0-2.41-1.79-4-4-4h-64c-2.21 0-4 1.59-4 4v116c0 2.41 1.79 4 4 4h64c2.21 0 4-1.59 4-4v-116z"/><path fill="none" stroke="#231F20" stroke-width="8" stroke-linecap="round" stroke-linejoin="round" stroke-miterlimit="10" d="M288.5 164.002h36M295.5 184.002h22M280.5 204.002h4M280.5 216.002h16M308.5 216.002h6M326.5 216.002h6M296.5 204.002h10M303.5 252.002h6M318.5 204.002h14"/><path fill="none" stroke="#231F20" stroke-width="4" stroke-linecap="round" stroke-linejoin="round" stroke-miterlimit="10" d="M303.5 174.002h6M303.5 194.002h6M304.5 226.002h4"/><g fill="none" stroke="#231F20" stroke-width="4" stroke-linecap="round" stroke-linejoin="round" stroke-miterlimit="10"><path d="M280.5 234.002h12M280.5 242.002h4M292.5 242.002h4M304.5 242.002h6M318.5 242.002h14M300.5 234.002h4M312.5 234.002h8M328.5 234.002h4"/></g><path fill="none" stroke="#231F20" stroke-width="4" stroke-linecap="round" stroke-linejoin="round" stroke-miterlimit="10" d="M280.5 262.002h8M296.5 262.002h4M308.5 262.002h8M330.5 262.002h2"/><path fill="#A9702C" stroke="#231F20" stroke-width="4" stroke-linecap="round" stroke-linejoin="round" stroke-miterlimit="10" d="M218.5 258.002v-10c0-2.21 1.79-6 4-6s4 3.79 4 6v10h-8z"/><path fill="#478C1B" stroke="#231F20" stroke-width="4" stroke-linecap="round" stroke-linejoin="round" stroke-miterlimit="10" d="M222.5 242.002v-6"/><path fill="#6A1501" stroke="#231F20" stroke-width="4" stroke-linecap="round" stroke-linejoin="round" stroke-miterlimit="10" d="M250.5 258.002v-10c0-2.21 1.79-6 4-6s4 3.79 4 6v10h-8zM254.5 242.002v-6"/><path fill="#CE3746" stroke="#231F20" stroke-width="4" stroke-linecap="round" stroke-linejoin="round" stroke-miterlimit="10" d="M234.5 258.002v-10c0-2.21 1.79-6 4-6s4 3.79 4 6v10h-8z"/><path fill="#6A1501" stroke="#231F20" stroke-width="4" stroke-linecap="round" stroke-linejoin="round" stroke-miterlimit="10" d="M238.5 242.002v-6"/><path fill="#CE3746" stroke="#231F20" stroke-width="4" stroke-linecap="round" stroke-linejoin="round" stroke-miterlimit="10" d="M120.5 230.002v24c0 2.21-1.79 4-4 4s-4-1.79-4-4v-24h8zM116.5 230.002v-4"/><path fill="#27F47A" stroke="#231F20" stroke-width="4" stroke-linecap="round" stroke-linejoin="round" stroke-miterlimit="10" d="M128.5 252.002v-18c0-2.21 1.79-4 4-4s4 1.79 4 4v18h-8z"/><path fill="#ECECEC" stroke="#231F20" stroke-width="4" stroke-linecap="round" stroke-linejoin="round" stroke-miterlimit="10" d="M104.5 230.002v24c0 2.21-1.79 4-4 4s-4-1.79-4-4v-24h8zM100.5 230.002v-4"/><path fill="#ECECEC" stroke="#231F20" stroke-width="4" stroke-linecap="round" stroke-linejoin="round" stroke-miterlimit="10" d="M128.5 252.002h8v6h-8zM128.5 230.002h8v6h-8z"/><path fill="#939A9F" stroke="#231F20" stroke-width="4" stroke-linecap="round" stroke-linejoin="round" stroke-miterlimit="10" d="M150.5 254.002c0 2.21 1.79 4 4 4h46c2.21 0 4-1.79 4-4v-6h-54v6z"/><path fill="none" stroke="#27F47A" stroke-width="8" stroke-linecap="round" stroke-linejoin="round" stroke-miterlimit="10" d="M154.5 242.002M162.5 242.002M158.5 236.002"/><path fill="#CE3746" stroke="#231F20" stroke-width="4" stroke-linecap="round" stroke-linejoin="round" stroke-miterlimit="10" d="M52.5 258.002l-4-10h14l-4 10z"/><path fill="#FCEE22" stroke="#231F20" stroke-width="4" stroke-linecap="round" stroke-linejoin="round" stroke-miterlimit="10" d="M74.5 258.002l-4-10h14l-4 10z"/><path fill="#27F47A" stroke="#231F20" stroke-width="4" stroke-linecap="round" stroke-linejoin="round" stroke-miterlimit="10" d="M30.5 258.002l-4-10h14l-4 10z"/></svg>