<svg xmlns="http://www.w3.org/2000/svg" width="356" height="400" viewBox="0.5 0.5 356 400" enable-background="new 0.5 0.5 356 400"><path fill="#FEDE0F" stroke="#231F20" stroke-width="4" stroke-linecap="round" stroke-linejoin="round" stroke-miterlimit="10" d="M350.5 107h-4c-52-8-168-60-168-72 0 12-116 64-168 72h-4c-2.21 0-4 1.79-4 4v40h352v-40c0-2.21-1.79-4-4-4z"/><path fill="#2B2E31" stroke="#231F20" stroke-width="4" stroke-linecap="round" stroke-linejoin="round" stroke-miterlimit="10" d="M354.5 147c0 2.21-1.79 4-4 4H6.5c-2.21 0-4-1.79-4-4v-36c0-2.21 1.79-4 4-4h344c2.21 0 4 1.79 4 4v36z"/><path fill="#C1BEB4" stroke="#231F20" stroke-width="4" stroke-linecap="round" stroke-linejoin="round" stroke-miterlimit="10" d="M2.5 151h12v124h-12zM342.5 151h12v124h-12z"/><path fill="#2B2E31" stroke="#231F20" stroke-width="4" stroke-linecap="round" stroke-linejoin="round" stroke-miterlimit="10" d="M354.5 379c0 2.21-1.79 4-4 4H6.5c-2.21 0-4-1.79-4-4V275h352v104z"/><path fill="#C4A72E" stroke="#231F20" stroke-width="4" stroke-linecap="round" stroke-linejoin="round" stroke-miterlimit="10" d="M354.5 147c0 2.21-1.79 4-4 4H6.5c-2.21 0-4-1.79-4-4v-36c0-2.21 1.79-4 4-4h344c2.21 0 4 1.79 4 4v36zM14.5 263h328v12h-328z"/><path fill="#454545" stroke="#231F20" stroke-width="4" stroke-linecap="round" stroke-linejoin="round" stroke-miterlimit="10" d="M354.5 155c0-2.41-1.79-4-4-4h-70c-2.21 0-4 1.59-4 4v116c0 2.41 1.79 4.363 4 4.363h70c2.21 0 4-1.954 4-4.363V155z"/><path fill="none" stroke="#ECECEC" stroke-width="16" stroke-linecap="round" stroke-linejoin="round" stroke-miterlimit="10" d="M294.5 165h42M294.5 261h42"/><path fill="#ECECEC" stroke="#231F20" stroke-width="4" stroke-linecap="round" stroke-linejoin="round" stroke-miterlimit="10" d="M276.5 179h78v68h-78z"/><path fill="none" stroke="#231F20" stroke-width="4" stroke-linecap="round" stroke-linejoin="round" stroke-miterlimit="10" d="M288.5 187h6M302.5 187h6M316.5 187h6M330.5 187h12M290.5 203h6M304.5 203h6M318.5 203h6M332.5 203h6M292.5 219h6M326.5 219h14M306.5 219h12M298.5 233h6M312.5 233h6"/><path fill="none" stroke="#641E3A" stroke-width="4" stroke-linecap="round" stroke-linejoin="round" stroke-miterlimit="10" d="M312.5 239h6M312.5 225h6M312.5 209h6M312.5 193h6"/><path fill="none" stroke="#231F20" stroke-width="4" stroke-linecap="round" stroke-linejoin="round" stroke-miterlimit="10" d="M326.5 233h6"/><path fill="#454545" stroke="#231F20" stroke-width="4" stroke-linecap="round" stroke-linejoin="round" stroke-miterlimit="10" d="M142.5 103c0-2.41-1.79-4-4-4H6.5c-2.21 0-4 1.59-4 4v51.637c0 2.41 1.79 4.363 4 4.363h132c2.21 0 4-1.954 4-4.363V103z"/><path fill="none" stroke="#ECECEC" stroke-width="16" stroke-linecap="round" stroke-linejoin="round" stroke-miterlimit="10" d="M20.5 117h26M20.5 141h104"/><path fill="#2B2E31" stroke="#231F20" stroke-width="4" stroke-linecap="round" stroke-linejoin="round" stroke-miterlimit="10" d="M14.5 249h126v14h-126z"/><path fill="#939A9F" stroke="#231F20" stroke-width="4" stroke-linecap="round" stroke-linejoin="round" stroke-miterlimit="10" d="M224.5 259l-4-14h18l-4 14zM250.5 259l-4-14h18l-4 14z"/><path fill="#ECECEC" stroke="#231F20" stroke-width="4" stroke-linecap="round" stroke-linejoin="round" stroke-miterlimit="10" d="M186.5 253h24v6h-24z"/><path fill="none" stroke="#CD8D06" stroke-width="4" stroke-linecap="round" stroke-linejoin="round" stroke-miterlimit="10" d="M190.5 241h16"/><path fill="#D52524" stroke="#231F20" stroke-width="4" stroke-linecap="round" stroke-linejoin="round" stroke-miterlimit="10" d="M146.5 247s8-6 8-14c0 0 0-4 4-4 0 0 4 0 4 4s-2 12-10 20M124.5 247s-8-6-8-14c0 0 0-4-4-4 0 0-4 0-4 4s2 12 10 20"/><path fill="none" stroke="#4D4012" stroke-width="4" stroke-linecap="round" stroke-linejoin="round" stroke-miterlimit="10" d="M193.7 245h9.6"/><path fill="none" stroke="#CD8D06" stroke-width="4" stroke-linecap="round" stroke-linejoin="round" stroke-miterlimit="10" d="M190.5 249h16"/><path fill="#D52524" stroke="#231F20" stroke-width="4" stroke-linecap="round" stroke-linejoin="round" stroke-miterlimit="10" d="M152.5 254c0-9.39-7.61-17-17-17s-17 7.61-17 17h34zM118.5 254h34v9h-34zM130.5 237v-6M140.5 237v-6"/></svg>