<?xml version="1.0" encoding="utf-8"?>
<!-- Generator: Adobe Illustrator 16.0.1, SVG Export Plug-In . SVG Version: 6.00 Build 0)  -->
<!DOCTYPE svg PUBLIC "-//W3C//DTD SVG 1.1//EN" "http://www.w3.org/Graphics/SVG/1.1/DTD/svg11.dtd">
<svg version="1.1" id="Layer_1" xmlns="http://www.w3.org/2000/svg" xmlns:xlink="http://www.w3.org/1999/xlink" x="0px" y="0px"
	 width="356px" height="400px" viewBox="0.5 0.5 356 400" enable-background="new 0.5 0.5 356 400" xml:space="preserve">
<path fill="#FEDE0F" stroke="#231F20" stroke-width="4" stroke-linecap="round" stroke-linejoin="round" stroke-miterlimit="10" d="
	M350.5,107h-4c-52-8-168-60-168-72c0,12-116,64-168,72h-4c-2.209,0-4,1.791-4,4v40h176h176v-40C354.5,108.791,352.709,107,350.5,107
	z"/>
<path fill="#2B2E31" stroke="#231F20" stroke-width="4" stroke-linecap="round" stroke-linejoin="round" stroke-miterlimit="10" d="
	M354.5,147c0,2.209-1.791,4-4,4H6.5c-2.209,0-4-1.791-4-4v-36c0-2.209,1.791-4,4-4h344c2.209,0,4,1.791,4,4V147z"/>
<rect x="2.5" y="151" fill="#C1BEB4" stroke="#231F20" stroke-width="4" stroke-linecap="round" stroke-linejoin="round" stroke-miterlimit="10" width="12" height="124"/>
<rect x="342.5" y="151" fill="#C1BEB4" stroke="#231F20" stroke-width="4" stroke-linecap="round" stroke-linejoin="round" stroke-miterlimit="10" width="12" height="124"/>
<path fill="#2B2E31" stroke="#231F20" stroke-width="4" stroke-linecap="round" stroke-linejoin="round" stroke-miterlimit="10" d="
	M354.5,379c0,2.209-1.791,4-4,4H6.5c-2.209,0-4-1.791-4-4V275c0,0,1.791,0,4,0h344c2.209,0,4,0,4,0V379z"/>
<path fill="#C4A72E" stroke="#231F20" stroke-width="4" stroke-linecap="round" stroke-linejoin="round" stroke-miterlimit="10" d="
	M354.5,147c0,2.209-1.791,4-4,4H6.5c-2.209,0-4-1.791-4-4v-36c0-2.209,1.791-4,4-4h344c2.209,0,4,1.791,4,4V147z"/>
<rect x="14.5" y="263" fill="#C4A72E" stroke="#231F20" stroke-width="4" stroke-linecap="round" stroke-linejoin="round" stroke-miterlimit="10" width="328" height="12"/>
<path fill="#454545" stroke="#231F20" stroke-width="4" stroke-linecap="round" stroke-linejoin="round" stroke-miterlimit="10" d="
	M354.5,155c0-2.409-1.791-4-4-4h-70c-2.209,0-4,1.591-4,4v116c0,2.409,1.791,4.363,4,4.363h70c2.209,0,4-1.954,4-4.363V155z"/>
<line fill="none" stroke="#ECECEC" stroke-width="16" stroke-linecap="round" stroke-linejoin="round" stroke-miterlimit="10" x1="294.5" y1="165" x2="336.5" y2="165"/>
<line fill="none" stroke="#ECECEC" stroke-width="16" stroke-linecap="round" stroke-linejoin="round" stroke-miterlimit="10" x1="294.5" y1="261" x2="336.5" y2="261"/>
<rect x="276.5" y="179" fill="#ECECEC" stroke="#231F20" stroke-width="4" stroke-linecap="round" stroke-linejoin="round" stroke-miterlimit="10" width="78" height="68"/>
<line fill="none" stroke="#231F20" stroke-width="4" stroke-linecap="round" stroke-linejoin="round" stroke-miterlimit="10" x1="288.5" y1="187" x2="294.5" y2="187"/>
<line fill="none" stroke="#231F20" stroke-width="4" stroke-linecap="round" stroke-linejoin="round" stroke-miterlimit="10" x1="302.5" y1="187" x2="308.5" y2="187"/>
<line fill="none" stroke="#231F20" stroke-width="4" stroke-linecap="round" stroke-linejoin="round" stroke-miterlimit="10" x1="316.5" y1="187" x2="322.5" y2="187"/>
<line fill="none" stroke="#231F20" stroke-width="4" stroke-linecap="round" stroke-linejoin="round" stroke-miterlimit="10" x1="330.5" y1="187" x2="342.5" y2="187"/>
<line fill="none" stroke="#231F20" stroke-width="4" stroke-linecap="round" stroke-linejoin="round" stroke-miterlimit="10" x1="290.5" y1="203" x2="296.5" y2="203"/>
<line fill="none" stroke="#231F20" stroke-width="4" stroke-linecap="round" stroke-linejoin="round" stroke-miterlimit="10" x1="304.5" y1="203" x2="310.5" y2="203"/>
<line fill="none" stroke="#231F20" stroke-width="4" stroke-linecap="round" stroke-linejoin="round" stroke-miterlimit="10" x1="318.5" y1="203" x2="324.5" y2="203"/>
<line fill="none" stroke="#231F20" stroke-width="4" stroke-linecap="round" stroke-linejoin="round" stroke-miterlimit="10" x1="332.5" y1="203" x2="338.5" y2="203"/>
<line fill="none" stroke="#231F20" stroke-width="4" stroke-linecap="round" stroke-linejoin="round" stroke-miterlimit="10" x1="292.5" y1="219" x2="298.5" y2="219"/>
<line fill="none" stroke="#231F20" stroke-width="4" stroke-linecap="round" stroke-linejoin="round" stroke-miterlimit="10" x1="326.5" y1="219" x2="340.5" y2="219"/>
<line fill="none" stroke="#231F20" stroke-width="4" stroke-linecap="round" stroke-linejoin="round" stroke-miterlimit="10" x1="306.5" y1="219" x2="318.5" y2="219"/>
<line fill="none" stroke="#231F20" stroke-width="4" stroke-linecap="round" stroke-linejoin="round" stroke-miterlimit="10" x1="298.5" y1="233" x2="304.5" y2="233"/>
<line fill="none" stroke="#231F20" stroke-width="4" stroke-linecap="round" stroke-linejoin="round" stroke-miterlimit="10" x1="312.5" y1="233" x2="318.5" y2="233"/>
<line fill="none" stroke="#641E3A" stroke-width="4" stroke-linecap="round" stroke-linejoin="round" stroke-miterlimit="10" x1="312.5" y1="239" x2="318.5" y2="239"/>
<line fill="none" stroke="#641E3A" stroke-width="4" stroke-linecap="round" stroke-linejoin="round" stroke-miterlimit="10" x1="312.5" y1="225" x2="318.5" y2="225"/>
<line fill="none" stroke="#641E3A" stroke-width="4" stroke-linecap="round" stroke-linejoin="round" stroke-miterlimit="10" x1="312.5" y1="209" x2="318.5" y2="209"/>
<line fill="none" stroke="#641E3A" stroke-width="4" stroke-linecap="round" stroke-linejoin="round" stroke-miterlimit="10" x1="312.5" y1="193" x2="318.5" y2="193"/>
<line fill="none" stroke="#231F20" stroke-width="4" stroke-linecap="round" stroke-linejoin="round" stroke-miterlimit="10" x1="326.5" y1="233" x2="332.5" y2="233"/>
<path fill="#454545" stroke="#231F20" stroke-width="4" stroke-linecap="round" stroke-linejoin="round" stroke-miterlimit="10" d="
	M142.5,103c0-2.409-1.791-4-4-4H6.5c-2.209,0-4,1.591-4,4v51.637c0,2.409,1.791,4.363,4,4.363h132c2.209,0,4-1.954,4-4.363V103z"/>
<line fill="none" stroke="#ECECEC" stroke-width="16" stroke-linecap="round" stroke-linejoin="round" stroke-miterlimit="10" x1="20.5" y1="117" x2="46.5" y2="117"/>
<line fill="none" stroke="#ECECEC" stroke-width="16" stroke-linecap="round" stroke-linejoin="round" stroke-miterlimit="10" x1="20.5" y1="141" x2="124.5" y2="141"/>
<rect x="14.5" y="249" fill="#2B2E31" stroke="#231F20" stroke-width="4" stroke-linecap="round" stroke-linejoin="round" stroke-miterlimit="10" width="126" height="14"/>
<polygon fill="#939A9F" stroke="#231F20" stroke-width="4" stroke-linecap="round" stroke-linejoin="round" stroke-miterlimit="10" points="
	224.5,259 220.5,245 238.5,245 234.5,259 "/>
<polygon fill="#939A9F" stroke="#231F20" stroke-width="4" stroke-linecap="round" stroke-linejoin="round" stroke-miterlimit="10" points="
	250.5,259 246.5,245 264.5,245 260.5,259 "/>
<g>
	
		<rect x="186.5" y="253" fill="#ECECEC" stroke="#231F20" stroke-width="4" stroke-linecap="round" stroke-linejoin="round" stroke-miterlimit="10" width="24" height="6"/>
</g>
<line fill="none" stroke="#CD8D06" stroke-width="4" stroke-linecap="round" stroke-linejoin="round" stroke-miterlimit="10" x1="190.5" y1="241" x2="206.5" y2="241"/>
<path fill="#D52524" stroke="#231F20" stroke-width="4" stroke-linecap="round" stroke-linejoin="round" stroke-miterlimit="10" d="
	M146.5,247c0,0,8-6,8-14c0,0,0-4,4-4c0,0,4,0,4,4s-2,12-10,20"/>
<path fill="#D52524" stroke="#231F20" stroke-width="4" stroke-linecap="round" stroke-linejoin="round" stroke-miterlimit="10" d="
	M124.5,247c0,0-8-6-8-14c0,0,0-4-4-4c0,0-4,0-4,4s2,12,10,20"/>
<line fill="none" stroke="#4D4012" stroke-width="4" stroke-linecap="round" stroke-linejoin="round" stroke-miterlimit="10" x1="193.699" y1="245" x2="203.3" y2="245"/>
<line fill="none" stroke="#CD8D06" stroke-width="4" stroke-linecap="round" stroke-linejoin="round" stroke-miterlimit="10" x1="190.5" y1="249" x2="206.5" y2="249"/>
<path fill="#D52524" stroke="#231F20" stroke-width="4" stroke-linecap="round" stroke-linejoin="round" stroke-miterlimit="10" d="
	M152.5,254c0-9.389-7.611-17-17-17s-17,7.611-17,17H152.5z"/>
<rect x="118.501" y="254" fill="#D52524" stroke="#231F20" stroke-width="4" stroke-linecap="round" stroke-linejoin="round" stroke-miterlimit="10" width="34" height="9"/>
<line fill="#D52524" stroke="#231F20" stroke-width="4" stroke-linecap="round" stroke-linejoin="round" stroke-miterlimit="10" x1="130.5" y1="237" x2="130.5" y2="231"/>
<line fill="#D52524" stroke="#231F20" stroke-width="4" stroke-linecap="round" stroke-linejoin="round" stroke-miterlimit="10" x1="140.5" y1="237" x2="140.5" y2="231"/>
</svg>
