<svg xmlns="http://www.w3.org/2000/svg" width="356" height="400" viewBox="-1.5 0 356 400" enable-background="new -1.5 0 356 400"><path fill="#C1BEB4" stroke="#231F20" stroke-width="4" stroke-linecap="round" stroke-linejoin="round" stroke-miterlimit="10" d="M.583 149.502h12v148h-12zM340.583 149.502h12v148h-12z"/><path fill="#454545" stroke="#231F20" stroke-width="4" stroke-linecap="round" stroke-linejoin="round" stroke-miterlimit="10" d="M348.583 105.502h-4c-52-8-168-60-168-72 0 12-116 64-168 72h-4c-2.21 0-4 1.79-4 4v40h352v-40c0-2.21-1.79-4-4-4z"/><path fill="#333" stroke="#231F20" stroke-width="4" stroke-linecap="round" stroke-linejoin="round" stroke-miterlimit="10" d="M352.583 145.502c0 2.21-1.79 4-4 4h-344c-2.21 0-4-1.79-4-4v-36c0-2.21 1.79-4 4-4h344c2.21 0 4 1.79 4 4v36zM352.583 377.502c0 2.21-1.79 4-4 4h-344c-2.21 0-4-1.79-4-4v-104h352v104z"/><path fill="#5B5663" stroke="#231F20" stroke-width="4" stroke-linecap="round" stroke-linejoin="round" stroke-miterlimit="10" d="M12.583 261.502h328v12h-328z"/><path fill="#FFDCAE" stroke="#231F20" stroke-width="4" stroke-linecap="round" stroke-linejoin="round" stroke-miterlimit="10" d="M248.583 307.502c0-2.41-1.79-4-4-4h-136c-2.21 0-4 1.59-4 4v69.637c0 2.408 1.79 4.362 4 4.362h136c2.21 0 4-1.954 4-4.363V307.5z"/><path fill="none" stroke="#AB9473" stroke-width="20" stroke-linecap="round" stroke-linejoin="round" stroke-miterlimit="10" d="M152.583 323.502h48"/><g fill="none" stroke-width="6" stroke-linecap="round" stroke-linejoin="round" stroke-miterlimit="10"><path stroke="#01A64F" d="M155.583 357.502"/><path stroke="#00245E" d="M161.583 357.502M197.583 357.502"/><path stroke="#FCEE22" d="M167.583 357.502M185.583 357.502"/><path stroke="#01A64F" d="M173.583 357.502"/><path stroke="#CE3746" d="M179.583 357.502M191.583 357.502"/></g><g fill="none" stroke-width="6" stroke-linecap="round" stroke-linejoin="round" stroke-miterlimit="10"><path stroke="#CE3746" d="M214.583 341.502"/><path stroke="#00245E" d="M220.583 339.502"/><path stroke="#FCEE22" d="M226.583 337.502"/><path stroke="#01A64F" d="M222.583 351.502"/><path stroke="#CE3746" d="M228.583 349.502"/><path stroke="#FCEE22" d="M234.583 347.502"/><path stroke="#CE3746" d="M232.583 335.502M238.583 333.502"/></g><g fill="none" stroke-width="6" stroke-linecap="round" stroke-linejoin="round" stroke-miterlimit="10"><path stroke="#00245E" d="M114.583 333.502"/><path stroke="#CE3746" d="M120.583 335.502"/><path stroke="#FCEE22" d="M126.583 337.502"/><path stroke="#01A64F" d="M132.583 339.502"/><path stroke="#CE3746" d="M138.583 341.502"/><path stroke="#01A64F" d="M114.583 347.502"/><path stroke="#CE3746" d="M120.583 349.502"/><path stroke="#00245E" d="M126.583 351.502"/><path stroke="#01A64F" d="M132.583 353.502"/><path stroke="#FCEE22" d="M138.583 355.502"/><path stroke="#00245E" d="M144.583 343.502"/></g><path fill="#FFDCAE" stroke="#231F20" stroke-width="4" stroke-linecap="round" stroke-linejoin="round" stroke-miterlimit="10" d="M92.583 213.502c0-2.41-1.79-4-4-4h-62c-2.21 0-4 1.59-4 4v39.637c0 2.408 1.79 4.362 4 4.362h62c2.21 0 4-1.954 4-4.363V213.5z"/><g stroke-linecap="round" stroke-linejoin="round" stroke-miterlimit="10"><path fill="#454545" stroke="#231F20" stroke-width="4" d="M78.583 295.502v-4h-48v71.637c0 2.408 1.79 4.362 4 4.362h40c2.21 0 4-1.954 4-4.363V295.5z"/><path fill="none" stroke="#ECECEC" stroke-width="8" d="M40.583 309.502h4M56.583 309.502h12"/><path fill="none" stroke="#ECECEC" stroke-width="4" d="M38.583 299.502h32M38.583 323.502h6M54.583 331.502M52.583 323.502h18M42.583 339.502h24"/><path fill="none" stroke="#E54600" stroke-width="2" d="M37.583 347.502h4M47.583 347.502h2M37.583 351.502h4M37.583 355.502h6M37.583 359.502h8M49.583 359.502h13M47.583 355.502h7M47.583 351.502h4M57.583 351.502h3M65.583 347.502h2M71.583 347.502h2M65.583 351.502h2M71.583 351.502h2M65.583 355.502h2M68.583 359.502h2M71.583 355.502h2"/><path fill="#5A4A42" stroke="#231F20" stroke-width="4" d="M30.583 295.502v-4h-8c-2.21 0-4 1.59-4 4v82c0 2.41 1.79 4.363 4 4.363h4c2.21 0 4-1.954 4-4.363v-82zM78.583 295.502v-4h8c2.21 0 4 1.59 4 4v82c0 2.41-1.79 4.363-4 4.363h-4c-2.21 0-4-1.954-4-4.363v-82z"/></g><path fill="none" stroke="#AB9473" stroke-width="20" stroke-linecap="round" stroke-linejoin="round" stroke-miterlimit="10" d="M38.583 233.502h38"/><path fill="#454545" stroke="#231F20" stroke-width="4" stroke-linecap="round" stroke-linejoin="round" stroke-miterlimit="10" d="M328.583 225.502c0-2.41-1.79-4-4-4h-60c-2.21 0-4 1.59-4 4v27.637c0 2.408 1.79 4.362 4 4.362h60c2.21 0 4-1.954 4-4.363V225.5z"/><path fill="none" stroke="#ECECEC" stroke-width="8" stroke-linecap="round" stroke-linejoin="round" stroke-miterlimit="10" d="M270.583 231.502h12M294.583 231.502h24"/><path fill="none" stroke="#ECECEC" stroke-width="4" stroke-linecap="round" stroke-linejoin="round" stroke-miterlimit="10" d="M278.583 241.502h6M292.583 241.502h26M268.583 249.502h4M282.583 249.502h14M304.583 249.502h6M318.583 249.502"/><path fill="none" stroke="#231F20" stroke-width="4" stroke-linecap="round" stroke-linejoin="round" stroke-miterlimit="10" d="M264.583 219.502v-22c0-2.21 1.79-4 4-4h18c2.21 0 4 1.79 4 4v22"/><path fill="none" stroke="#231F20" stroke-width="4" stroke-linecap="round" stroke-linejoin="round" stroke-miterlimit="10" d="M286.583 193.502c0-2.21-1.79-6-4-6h-10c-2.21 0-4 3.79-4 6h18zM298.583 219.502v-22c0-2.21 1.79-4 4-4h18c2.21 0 4 1.79 4 4v22"/><path fill="none" stroke="#231F20" stroke-width="4" stroke-linecap="round" stroke-linejoin="round" stroke-miterlimit="10" d="M320.583 193.502c0-2.21-1.79-6-4-6h-10c-2.21 0-4 3.79-4 6h18z"/><path fill="#FFDCAE" d="M266.583 203.502h22v16h-22z"/><path fill="#6A1501" d="M300.583 211.502h22v8h-22z"/><path fill="#6A1501" stroke="#231F20" stroke-width="4" stroke-linecap="round" stroke-linejoin="round" stroke-miterlimit="10" d="M198.416 257.502l-4-16h14l-4 16z"/><path fill="#939A9F" stroke="#231F20" stroke-width="4" stroke-linecap="round" stroke-linejoin="round" stroke-miterlimit="10" d="M201.416 241.503v-6"/><path fill="#FFDCAE" stroke="#231F20" stroke-width="4" stroke-linecap="round" stroke-linejoin="round" stroke-miterlimit="10" d="M220.583 257.502l-4-16h14l-4 16z"/><path fill="#939A9F" stroke="#231F20" stroke-width="4" stroke-linecap="round" stroke-linejoin="round" stroke-miterlimit="10" d="M223.583 241.503v-6"/><path fill="#AB9473" stroke="#231F20" stroke-width="4" stroke-linecap="round" stroke-linejoin="round" stroke-miterlimit="10" d="M136.583 251.502h46v6h-46z"/></svg>