<?xml version="1.0" encoding="utf-8"?>
<!-- Generator: Adobe Illustrator 16.0.1, SVG Export Plug-In . SVG Version: 6.00 Build 0)  -->
<!DOCTYPE svg PUBLIC "-//W3C//DTD SVG 1.1//EN" "http://www.w3.org/Graphics/SVG/1.1/DTD/svg11.dtd">
<svg version="1.1" id="Layer_1" xmlns="http://www.w3.org/2000/svg" xmlns:xlink="http://www.w3.org/1999/xlink" x="0px" y="0px"
	 width="356px" height="400px" viewBox="0 0 356 400" enable-background="new 0 0 356 400" xml:space="preserve">
<rect x="0.583" y="149.502" fill="#C1BEB4" stroke="#231F20" stroke-width="4" stroke-linecap="round" stroke-linejoin="round" stroke-miterlimit="10" width="12" height="148"/>
<rect x="340.583" y="149.502" fill="#C1BEB4" stroke="#231F20" stroke-width="4" stroke-linecap="round" stroke-linejoin="round" stroke-miterlimit="10" width="12" height="148"/>
<path fill="#454545" stroke="#231F20" stroke-width="4" stroke-linecap="round" stroke-linejoin="round" stroke-miterlimit="10" d="
	M348.583,105.502h-4c-52-8-168-60-168-72c0,12-116,64-168,72h-4c-2.209,0-4,1.791-4,4v40h176h176v-40
	C352.583,107.293,350.792,105.502,348.583,105.502z"/>
<path fill="#333333" stroke="#231F20" stroke-width="4" stroke-linecap="round" stroke-linejoin="round" stroke-miterlimit="10" d="
	M352.583,145.502c0,2.209-1.791,4-4,4h-344c-2.209,0-4-1.791-4-4v-36c0-2.209,1.791-4,4-4h344c2.209,0,4,1.791,4,4V145.502z"/>
<path fill="#333333" stroke="#231F20" stroke-width="4" stroke-linecap="round" stroke-linejoin="round" stroke-miterlimit="10" d="
	M352.583,377.502c0,2.209-1.791,4-4,4h-344c-2.209,0-4-1.791-4-4v-104c0,0,1.791,0,4,0h344c2.209,0,4,0,4,0V377.502z"/>
<rect x="12.583" y="261.502" fill="#5B5663" stroke="#231F20" stroke-width="4" stroke-linecap="round" stroke-linejoin="round" stroke-miterlimit="10" width="328" height="12"/>
<path fill="#FFDCAE" stroke="#231F20" stroke-width="4" stroke-linecap="round" stroke-linejoin="round" stroke-miterlimit="10" d="
	M248.583,307.502c0-2.409-1.791-4-4-4h-136c-2.209,0-4,1.591-4,4v69.637c0,2.409,1.791,4.363,4,4.363h136c2.209,0,4-1.954,4-4.363
	V307.502z"/>
<line fill="none" stroke="#AB9473" stroke-width="20" stroke-linecap="round" stroke-linejoin="round" stroke-miterlimit="10" x1="152.583" y1="323.502" x2="200.583" y2="323.502"/>
<g>
	<path fill="#01A64F" d="M155.583,360.502c-0.79,0-1.561-0.32-2.12-0.88c-0.561-0.561-0.88-1.33-0.88-2.12s0.319-1.561,0.88-2.12
		c1.12-1.12,3.13-1.11,4.24,0c0.56,0.56,0.88,1.33,0.88,2.12s-0.32,1.56-0.88,2.12C157.152,360.182,156.373,360.502,155.583,360.502
		z"/>
	<path fill="#00245E" d="M161.583,360.502c-0.79,0-1.561-0.32-2.12-0.88c-0.561-0.561-0.88-1.33-0.88-2.12s0.319-1.561,0.88-2.12
		c1.12-1.12,3.12-1.12,4.24,0c0.56,0.56,0.88,1.33,0.88,2.12s-0.32,1.56-0.88,2.12C163.143,360.182,162.373,360.502,161.583,360.502
		z"/>
	<path fill="#00245E" d="M197.583,360.502c-0.79,0-1.561-0.32-2.12-0.88c-0.561-0.561-0.88-1.33-0.88-2.12s0.319-1.561,0.88-2.12
		c1.109-1.12,3.12-1.12,4.24,0c0.56,0.56,0.88,1.33,0.88,2.12s-0.32,1.56-0.88,2.12
		C199.143,360.182,198.373,360.502,197.583,360.502z"/>
	<path fill="#FCEE22" d="M167.583,360.502c-0.79,0-1.561-0.32-2.12-0.88c-0.561-0.561-0.88-1.33-0.88-2.12s0.319-1.561,0.88-2.12
		c1.12-1.12,3.12-1.12,4.24,0c0.56,0.56,0.88,1.33,0.88,2.12s-0.32,1.56-0.88,2.12C169.143,360.182,168.373,360.502,167.583,360.502
		z"/>
	<path fill="#FCEE22" d="M185.583,360.502c-0.79,0-1.561-0.32-2.12-0.88c-0.561-0.561-0.88-1.33-0.88-2.12
		c0-0.78,0.319-1.561,0.88-2.12c1.109-1.11,3.12-1.12,4.24,0c0.56,0.56,0.88,1.33,0.88,2.12s-0.32,1.56-0.88,2.12
		C187.143,360.182,186.373,360.502,185.583,360.502z"/>
	<path fill="#01A64F" d="M173.583,360.502c-0.79,0-1.561-0.32-2.12-0.88c-0.561-0.561-0.88-1.33-0.88-2.12s0.319-1.561,0.88-2.12
		c1.13-1.12,3.12-1.12,4.24,0c0.56,0.56,0.88,1.33,0.88,2.12s-0.32,1.569-0.88,2.12
		C175.143,360.182,174.373,360.502,173.583,360.502z"/>
	<path fill="#CE3746" d="M179.583,360.502c-0.79,0-1.57-0.32-2.12-0.88c-0.561-0.551-0.88-1.33-0.88-2.12s0.319-1.561,0.88-2.12
		c1.109-1.11,3.12-1.12,4.24,0c0.56,0.56,0.88,1.33,0.88,2.12s-0.32,1.56-0.88,2.12
		C181.143,360.182,180.373,360.502,179.583,360.502z"/>
	<path fill="#CE3746" d="M191.583,360.502c-0.79,0-1.561-0.32-2.12-0.88c-0.561-0.551-0.88-1.33-0.88-2.12s0.319-1.561,0.88-2.12
		c1.13-1.12,3.13-1.12,4.24,0c0.56,0.55,0.88,1.33,0.88,2.12s-0.32,1.569-0.88,2.12
		C193.143,360.182,192.373,360.502,191.583,360.502z"/>
</g>
<g>
	<path fill="#CE3746" d="M214.583,344.502c-0.79,0-1.561-0.32-2.12-0.88c-0.561-0.561-0.88-1.33-0.88-2.12s0.319-1.561,0.88-2.12
		c1.109-1.12,3.12-1.12,4.24,0c0.56,0.56,0.88,1.33,0.88,2.12s-0.32,1.56-0.88,2.12
		C216.143,344.182,215.373,344.502,214.583,344.502z"/>
	<path fill="#00245E" d="M220.583,342.502c-0.79,0-1.561-0.32-2.12-0.88c-0.561-0.561-0.88-1.33-0.88-2.12s0.319-1.561,0.88-2.12
		c1.12-1.12,3.12-1.12,4.24,0c0.56,0.56,0.88,1.33,0.88,2.12s-0.32,1.56-0.88,2.12C222.143,342.182,221.373,342.502,220.583,342.502
		z"/>
	<path fill="#FCEE22" d="M226.583,340.502c-0.79,0-1.561-0.32-2.12-0.88c-0.561-0.561-0.88-1.33-0.88-2.12s0.319-1.561,0.88-2.12
		c1.109-1.11,3.12-1.12,4.24,0c0.56,0.56,0.88,1.33,0.88,2.12s-0.32,1.56-0.88,2.12
		C228.143,340.182,227.373,340.502,226.583,340.502z"/>
	<path fill="#01A64F" d="M222.583,354.502c-0.79,0-1.561-0.32-2.12-0.88c-0.561-0.561-0.88-1.33-0.88-2.12s0.319-1.561,0.88-2.12
		c1.12-1.12,3.13-1.12,4.24,0c0.56,0.56,0.88,1.33,0.88,2.12s-0.32,1.56-0.88,2.12C224.143,354.182,223.373,354.502,222.583,354.502
		z"/>
	<path fill="#CE3746" d="M228.583,352.502c-0.79,0-1.561-0.32-2.12-0.88c-0.561-0.561-0.88-1.33-0.88-2.12s0.319-1.561,0.88-2.12
		c1.109-1.12,3.13-1.12,4.24,0c0.56,0.56,0.88,1.33,0.88,2.12s-0.32,1.56-0.88,2.12
		C230.143,352.182,229.373,352.502,228.583,352.502z"/>
	<path fill="#FCEE22" d="M234.583,350.502c-0.78,0-1.561-0.32-2.12-0.88c-0.561-0.561-0.88-1.33-0.88-2.12s0.319-1.561,0.88-2.12
		c1.13-1.12,3.13-1.11,4.24,0c0.56,0.56,0.88,1.33,0.88,2.12s-0.32,1.56-0.88,2.12C236.143,350.182,235.373,350.502,234.583,350.502
		z"/>
	<path fill="#CE3746" d="M232.583,338.502c-0.78,0-1.561-0.32-2.12-0.88c-0.561-0.551-0.88-1.33-0.88-2.12s0.319-1.561,0.88-2.12
		c1.109-1.11,3.12-1.12,4.24,0c0.56,0.56,0.88,1.33,0.88,2.12s-0.32,1.56-0.88,2.12
		C234.143,338.182,233.373,338.502,232.583,338.502z"/>
	<path fill="#CE3746" d="M238.583,336.502c-0.79,0-1.561-0.32-2.12-0.88c-0.561-0.561-0.88-1.33-0.88-2.12s0.319-1.561,0.88-2.12
		c1.109-1.11,3.12-1.12,4.24,0c0.56,0.56,0.88,1.33,0.88,2.12s-0.32,1.56-0.88,2.12
		C240.143,336.182,239.373,336.502,238.583,336.502z"/>
</g>
<g>
	<path fill="#00245E" d="M114.583,336.502c-0.79,0-1.561-0.32-2.12-0.88c-0.561-0.561-0.88-1.33-0.88-2.12s0.319-1.561,0.88-2.12
		c1.12-1.12,3.12-1.11,4.24,0c0.56,0.56,0.88,1.33,0.88,2.12s-0.32,1.56-0.88,2.12C116.143,336.182,115.373,336.502,114.583,336.502
		z"/>
	<path fill="#CE3746" d="M120.583,338.502c-0.79,0-1.561-0.32-2.12-0.88c-0.561-0.561-0.88-1.33-0.88-2.12s0.319-1.561,0.88-2.12
		c1.12-1.12,3.12-1.12,4.24,0c0.56,0.56,0.88,1.33,0.88,2.12s-0.32,1.56-0.88,2.12C122.143,338.182,121.373,338.502,120.583,338.502
		z"/>
	<path fill="#FCEE22" d="M126.583,340.502c-0.79,0-1.561-0.32-2.12-0.88c-0.561-0.561-0.88-1.33-0.88-2.12s0.319-1.561,0.88-2.12
		c1.109-1.12,3.12-1.12,4.24,0c0.56,0.56,0.88,1.33,0.88,2.12s-0.32,1.56-0.88,2.12
		C128.143,340.182,127.373,340.502,126.583,340.502z"/>
	<path fill="#01A64F" d="M132.583,342.502c-0.79,0-1.561-0.32-2.12-0.88c-0.561-0.561-0.88-1.33-0.88-2.12s0.319-1.561,0.88-2.12
		c1.109-1.12,3.13-1.12,4.24,0c0.56,0.56,0.88,1.33,0.88,2.12s-0.32,1.56-0.88,2.12
		C134.143,342.182,133.373,342.502,132.583,342.502z"/>
	<path fill="#CE3746" d="M138.583,344.502c-0.79,0-1.561-0.32-2.12-0.88c-0.561-0.561-0.88-1.33-0.88-2.12s0.319-1.561,0.88-2.12
		c1.12-1.12,3.13-1.12,4.24,0c0.56,0.56,0.88,1.33,0.88,2.12s-0.32,1.56-0.88,2.12C140.143,344.182,139.373,344.502,138.583,344.502
		z"/>
	<path fill="#01A64F" d="M114.583,350.502c-0.79,0-1.561-0.32-2.12-0.88c-0.561-0.561-0.88-1.33-0.88-2.12s0.319-1.561,0.88-2.12
		c1.12-1.12,3.12-1.12,4.24,0c0.56,0.56,0.88,1.33,0.88,2.12s-0.32,1.56-0.88,2.12C116.143,350.182,115.373,350.502,114.583,350.502
		z"/>
	<path fill="#CE3746" d="M120.583,352.502c-0.79,0-1.561-0.32-2.12-0.88c-0.561-0.561-0.88-1.33-0.88-2.12s0.319-1.561,0.88-2.12
		c1.12-1.12,3.12-1.12,4.24,0c0.56,0.56,0.88,1.33,0.88,2.12s-0.32,1.56-0.88,2.12C122.143,352.182,121.373,352.502,120.583,352.502
		z"/>
	<path fill="#00245E" d="M126.583,354.502c-0.79,0-1.561-0.32-2.12-0.88c-0.561-0.561-0.88-1.33-0.88-2.12s0.319-1.561,0.88-2.12
		c1.109-1.12,3.12-1.12,4.24,0c0.56,0.56,0.88,1.33,0.88,2.12s-0.32,1.56-0.88,2.12
		C128.143,354.182,127.373,354.502,126.583,354.502z"/>
	<path fill="#01A64F" d="M132.583,356.502c-0.79,0-1.561-0.32-2.12-0.88c-0.561-0.561-0.88-1.33-0.88-2.12s0.319-1.561,0.88-2.12
		c1.12-1.12,3.12-1.12,4.24,0c0.56,0.56,0.88,1.33,0.88,2.12s-0.32,1.56-0.88,2.12C134.143,356.182,133.373,356.502,132.583,356.502
		z"/>
	<path fill="#FCEE22" d="M138.583,358.502c-0.79,0-1.561-0.32-2.12-0.88c-0.561-0.561-0.88-1.33-0.88-2.12s0.319-1.561,0.88-2.12
		c1.12-1.12,3.12-1.12,4.24,0c0.56,0.56,0.88,1.33,0.88,2.12s-0.32,1.56-0.88,2.12C140.143,358.182,139.373,358.502,138.583,358.502
		z"/>
	<path fill="#00245E" d="M144.583,346.502c-0.79,0-1.561-0.32-2.12-0.88c-0.561-0.561-0.88-1.33-0.88-2.12s0.319-1.561,0.88-2.12
		c1.109-1.12,3.13-1.12,4.24,0c0.56,0.56,0.88,1.33,0.88,2.12s-0.32,1.56-0.88,2.12
		C146.143,346.182,145.373,346.502,144.583,346.502z"/>
</g>
<path fill="#FFDCAE" stroke="#231F20" stroke-width="4" stroke-linecap="round" stroke-linejoin="round" stroke-miterlimit="10" d="
	M92.583,213.502c0-2.409-1.791-4-4-4h-62c-2.209,0-4,1.591-4,4v39.637c0,2.409,1.791,4.363,4,4.363h62c2.209,0,4-1.954,4-4.363
	V213.502z"/>
<g>
	
		<path fill="#454545" stroke="#231F20" stroke-width="4" stroke-linecap="round" stroke-linejoin="round" stroke-miterlimit="10" d="
		M78.583,295.502c0-2.409,0-4,0-4h-48c0,0,0,1.591,0,4v67.637c0,2.409,1.791,4.363,4,4.363h40c2.209,0,4-1.954,4-4.363V295.502z"/>
	
		<line fill="none" stroke="#ECECEC" stroke-width="8" stroke-linecap="round" stroke-linejoin="round" stroke-miterlimit="10" x1="40.583" y1="309.502" x2="44.583" y2="309.502"/>
	
		<line fill="none" stroke="#ECECEC" stroke-width="8" stroke-linecap="round" stroke-linejoin="round" stroke-miterlimit="10" x1="56.583" y1="309.502" x2="68.583" y2="309.502"/>
	
		<line fill="none" stroke="#ECECEC" stroke-width="4" stroke-linecap="round" stroke-linejoin="round" stroke-miterlimit="10" x1="38.583" y1="299.502" x2="70.583" y2="299.502"/>
	
		<line fill="none" stroke="#ECECEC" stroke-width="4" stroke-linecap="round" stroke-linejoin="round" stroke-miterlimit="10" x1="38.583" y1="323.502" x2="44.583" y2="323.502"/>
	
		<line fill="none" stroke="#ECECEC" stroke-width="4" stroke-linecap="round" stroke-linejoin="round" stroke-miterlimit="10" x1="54.583" y1="331.502" x2="54.583" y2="331.502"/>
	
		<line fill="none" stroke="#ECECEC" stroke-width="4" stroke-linecap="round" stroke-linejoin="round" stroke-miterlimit="10" x1="52.583" y1="323.502" x2="70.583" y2="323.502"/>
	
		<line fill="none" stroke="#ECECEC" stroke-width="4" stroke-linecap="round" stroke-linejoin="round" stroke-miterlimit="10" x1="42.583" y1="339.502" x2="66.583" y2="339.502"/>
	
		<line fill="none" stroke="#E54600" stroke-width="2" stroke-linecap="round" stroke-linejoin="round" stroke-miterlimit="10" x1="37.583" y1="347.502" x2="41.583" y2="347.502"/>
	
		<line fill="none" stroke="#E54600" stroke-width="2" stroke-linecap="round" stroke-linejoin="round" stroke-miterlimit="10" x1="47.583" y1="347.502" x2="49.583" y2="347.502"/>
	
		<line fill="none" stroke="#E54600" stroke-width="2" stroke-linecap="round" stroke-linejoin="round" stroke-miterlimit="10" x1="37.583" y1="351.502" x2="41.583" y2="351.502"/>
	
		<line fill="none" stroke="#E54600" stroke-width="2" stroke-linecap="round" stroke-linejoin="round" stroke-miterlimit="10" x1="37.583" y1="355.502" x2="43.583" y2="355.502"/>
	
		<line fill="none" stroke="#E54600" stroke-width="2" stroke-linecap="round" stroke-linejoin="round" stroke-miterlimit="10" x1="37.583" y1="359.502" x2="45.583" y2="359.502"/>
	
		<line fill="none" stroke="#E54600" stroke-width="2" stroke-linecap="round" stroke-linejoin="round" stroke-miterlimit="10" x1="49.583" y1="359.502" x2="62.583" y2="359.502"/>
	
		<line fill="none" stroke="#E54600" stroke-width="2" stroke-linecap="round" stroke-linejoin="round" stroke-miterlimit="10" x1="47.583" y1="355.502" x2="54.583" y2="355.502"/>
	
		<line fill="none" stroke="#E54600" stroke-width="2" stroke-linecap="round" stroke-linejoin="round" stroke-miterlimit="10" x1="47.583" y1="351.502" x2="51.583" y2="351.502"/>
	
		<line fill="none" stroke="#E54600" stroke-width="2" stroke-linecap="round" stroke-linejoin="round" stroke-miterlimit="10" x1="57.583" y1="351.502" x2="60.583" y2="351.502"/>
	
		<line fill="none" stroke="#E54600" stroke-width="2" stroke-linecap="round" stroke-linejoin="round" stroke-miterlimit="10" x1="65.583" y1="347.502" x2="67.583" y2="347.502"/>
	
		<line fill="none" stroke="#E54600" stroke-width="2" stroke-linecap="round" stroke-linejoin="round" stroke-miterlimit="10" x1="71.583" y1="347.502" x2="73.583" y2="347.502"/>
	
		<line fill="none" stroke="#E54600" stroke-width="2" stroke-linecap="round" stroke-linejoin="round" stroke-miterlimit="10" x1="65.583" y1="351.502" x2="67.583" y2="351.502"/>
	
		<line fill="none" stroke="#E54600" stroke-width="2" stroke-linecap="round" stroke-linejoin="round" stroke-miterlimit="10" x1="71.583" y1="351.502" x2="73.583" y2="351.502"/>
	
		<line fill="none" stroke="#E54600" stroke-width="2" stroke-linecap="round" stroke-linejoin="round" stroke-miterlimit="10" x1="65.583" y1="355.502" x2="67.583" y2="355.502"/>
	
		<line fill="none" stroke="#E54600" stroke-width="2" stroke-linecap="round" stroke-linejoin="round" stroke-miterlimit="10" x1="68.583" y1="359.502" x2="70.583" y2="359.502"/>
	
		<line fill="none" stroke="#E54600" stroke-width="2" stroke-linecap="round" stroke-linejoin="round" stroke-miterlimit="10" x1="71.583" y1="355.502" x2="73.583" y2="355.502"/>
	
		<path fill="#5A4A42" stroke="#231F20" stroke-width="4" stroke-linecap="round" stroke-linejoin="round" stroke-miterlimit="10" d="
		M30.583,295.502c0-2.409,0-4,0-4h-8c-2.209,0-4,1.591-4,4v82c0,2.409,1.791,4.363,4,4.363h4c2.209,0,4-1.954,4-4.363V295.502z"/>
	
		<path fill="#5A4A42" stroke="#231F20" stroke-width="4" stroke-linecap="round" stroke-linejoin="round" stroke-miterlimit="10" d="
		M78.583,295.502c0-2.409,0-4,0-4h8c2.209,0,4,1.591,4,4v82c0,2.409-1.791,4.363-4,4.363h-4c-2.209,0-4-1.954-4-4.363V295.502z"/>
</g>
<line fill="none" stroke="#AB9473" stroke-width="20" stroke-linecap="round" stroke-linejoin="round" stroke-miterlimit="10" x1="38.583" y1="233.502" x2="76.583" y2="233.502"/>
<path fill="#454545" stroke="#231F20" stroke-width="4" stroke-linecap="round" stroke-linejoin="round" stroke-miterlimit="10" d="
	M328.583,225.502c0-2.409-1.791-4-4-4h-60c-2.209,0-4,1.591-4,4v27.637c0,2.409,1.791,4.363,4,4.363h60c2.209,0,4-1.954,4-4.363
	V225.502z"/>
<line fill="none" stroke="#ECECEC" stroke-width="8" stroke-linecap="round" stroke-linejoin="round" stroke-miterlimit="10" x1="270.583" y1="231.502" x2="282.583" y2="231.502"/>
<line fill="none" stroke="#ECECEC" stroke-width="8" stroke-linecap="round" stroke-linejoin="round" stroke-miterlimit="10" x1="294.583" y1="231.502" x2="318.583" y2="231.502"/>
<line fill="none" stroke="#ECECEC" stroke-width="4" stroke-linecap="round" stroke-linejoin="round" stroke-miterlimit="10" x1="278.583" y1="241.502" x2="284.583" y2="241.502"/>
<line fill="none" stroke="#ECECEC" stroke-width="4" stroke-linecap="round" stroke-linejoin="round" stroke-miterlimit="10" x1="292.583" y1="241.502" x2="318.583" y2="241.502"/>
<line fill="none" stroke="#ECECEC" stroke-width="4" stroke-linecap="round" stroke-linejoin="round" stroke-miterlimit="10" x1="268.583" y1="249.502" x2="272.583" y2="249.502"/>
<line fill="none" stroke="#ECECEC" stroke-width="4" stroke-linecap="round" stroke-linejoin="round" stroke-miterlimit="10" x1="282.583" y1="249.502" x2="296.583" y2="249.502"/>
<line fill="none" stroke="#ECECEC" stroke-width="4" stroke-linecap="round" stroke-linejoin="round" stroke-miterlimit="10" x1="304.583" y1="249.502" x2="310.583" y2="249.502"/>
<line fill="none" stroke="#ECECEC" stroke-width="4" stroke-linecap="round" stroke-linejoin="round" stroke-miterlimit="10" x1="318.583" y1="249.502" x2="318.583" y2="249.502"/>
<path fill="none" stroke="#231F20" stroke-width="4" stroke-linecap="round" stroke-linejoin="round" stroke-miterlimit="10" d="
	M264.583,219.502v-22c0-2.209,1.791-4,4-4h18c2.209,0,4,1.791,4,4v22"/>
<path fill="none" stroke="#231F20" stroke-width="4" stroke-linecap="round" stroke-linejoin="round" stroke-miterlimit="10" d="
	M286.583,193.502L286.583,193.502c0-2.209-1.791-6-4-6h-10c-2.209,0-4,3.791-4,6l0,0H286.583z"/>
<path fill="none" stroke="#231F20" stroke-width="4" stroke-linecap="round" stroke-linejoin="round" stroke-miterlimit="10" d="
	M298.583,219.502v-22c0-2.209,1.791-4,4-4h18c2.209,0,4,1.791,4,4v22"/>
<path fill="none" stroke="#231F20" stroke-width="4" stroke-linecap="round" stroke-linejoin="round" stroke-miterlimit="10" d="
	M320.583,193.502L320.583,193.502c0-2.209-1.791-6-4-6h-10c-2.209,0-4,3.791-4,6l0,0H320.583z"/>
<rect x="266.583" y="203.502" fill="#FFDCAE" width="22" height="16"/>
<rect x="300.583" y="211.502" fill="#6A1501" width="22" height="8"/>
<polygon fill="#6A1501" stroke="#231F20" stroke-width="4" stroke-linecap="round" stroke-linejoin="round" stroke-miterlimit="10" points="
	198.416,257.502 194.416,241.502 208.416,241.502 204.416,257.502 "/>
<line fill="#939A9F" stroke="#231F20" stroke-width="4" stroke-linecap="round" stroke-linejoin="round" stroke-miterlimit="10" x1="201.416" y1="241.503" x2="201.416" y2="235.503"/>
<polygon fill="#FFDCAE" stroke="#231F20" stroke-width="4" stroke-linecap="round" stroke-linejoin="round" stroke-miterlimit="10" points="
	220.583,257.502 216.583,241.502 230.583,241.502 226.583,257.502 "/>
<line fill="#939A9F" stroke="#231F20" stroke-width="4" stroke-linecap="round" stroke-linejoin="round" stroke-miterlimit="10" x1="223.583" y1="241.503" x2="223.583" y2="235.503"/>
<rect x="136.583" y="251.502" fill="#AB9473" stroke="#231F20" stroke-width="4" stroke-linecap="round" stroke-linejoin="round" stroke-miterlimit="10" width="46" height="6"/>
</svg>
