<svg xmlns="http://www.w3.org/2000/svg" width="424" height="400" viewBox="0 0 424 400"><path fill="#444646" stroke="#231F20" stroke-width="4" stroke-linecap="round" stroke-linejoin="round" stroke-miterlimit="10" d="M418 106h-4c-52-8-168-60-168-72 0 12-116 64-168 72h-4c-2.21 0-4 1.79-4 4v40h352v-40c0-2.21-1.79-4-4-4z"/><path fill="#2B2E31" stroke="#231F20" stroke-width="4" stroke-linecap="round" stroke-linejoin="round" stroke-miterlimit="10" d="M422 146c0 2.21-1.79 4-4 4H74c-2.21 0-4-1.79-4-4v-36c0-2.21 1.79-4 4-4h344c2.21 0 4 1.79 4 4v36z"/><path fill="#C1BEB4" stroke="#231F20" stroke-width="4" stroke-linecap="round" stroke-linejoin="round" stroke-miterlimit="10" d="M70 150h12v124H70zM410 150h12v124h-12z"/><path fill="#2B2E31" stroke="#231F20" stroke-width="4" stroke-linecap="round" stroke-linejoin="round" stroke-miterlimit="10" d="M422 378c0 2.21-1.79 4-4 4H74c-2.21 0-4-1.79-4-4V274h352v104z"/><path fill="#454545" stroke="#231F20" stroke-width="4" stroke-linecap="round" stroke-linejoin="round" stroke-miterlimit="10" d="M418 106h-4c-52-8-168-60-168-72 0 12-116 64-168 72h-4c-2.21 0-4 1.79-4 4v40h352v-40c0-2.21-1.79-4-4-4z"/><path fill="#333" stroke="#231F20" stroke-width="4" stroke-linecap="round" stroke-linejoin="round" stroke-miterlimit="10" d="M422 146c0 2.21-1.79 4-4 4H74c-2.21 0-4-1.79-4-4v-36c0-2.21 1.79-4 4-4h344c2.21 0 4 1.79 4 4v36zM422 378c0 2.21-1.79 4-4 4H74c-2.21 0-4-1.79-4-4V274h352v104z"/><path fill="none" stroke="#231F20" stroke-width="4" stroke-linecap="round" stroke-linejoin="round" stroke-miterlimit="10" d="M418 106h-4c-52-8-168-60-168-72 0 12-116 64-168 72h-4c-2.21 0-4 1.79-4 4v40h352v-40c0-2.21-1.79-4-4-4zM422 146c0 2.21-1.79 4-4 4H74c-2.21 0-4-1.79-4-4v-36c0-2.21 1.79-4 4-4h344c2.21 0 4 1.79 4 4v36zM422 378c0 2.21-1.79 4-4 4H74c-2.21 0-4-1.79-4-4V274h352v104z"/><path fill="#5B5663" stroke="#231F20" stroke-width="4" stroke-linecap="round" stroke-linejoin="round" stroke-miterlimit="10" d="M82 262h328v12H82z"/><path fill="#9E5145" stroke="#231F20" stroke-width="4" stroke-miterlimit="10" d="M392 278c0-2.41-1.79-4.363-4-4.363H104c-2.21 0-4 1.954-4 4.363v99.637c0 2.41 1.79 4.363 4 4.363h284c2.21 0 4-1.954 4-4.363V278z"/><g fill="#DBC6A5"><path d="M302 340H178c-12.15 0-22-9.85-22-22s9.85-22 22-22h124c12.15 0 22 9.85 22 22s-9.85 22-22 22zM242 360h-28.842c-3.313 0-6-2.687-6-6s2.687-6 6-6H242c3.313 0 6 2.687 6 6s-2.687 6-6 6zM286.42 360H262c-3.314 0-6-2.687-6-6s2.686-6 6-6h24.42c3.314 0 6 2.687 6 6s-2.686 6-6 6zM330 360h-24c-3.314 0-6-2.687-6-6s2.686-6 6-6h24c3.313 0 6 2.687 6 6s-2.687 6-6 6z"/></g><path fill="#C8C8C0" stroke="#231F20" stroke-width="4" stroke-miterlimit="10" d="M138 260c0-32.032 25.967-58 58-58s58 25.968 58 58"/><path fill="#6F3726" stroke="#231F20" stroke-width="4" stroke-miterlimit="10" d="M162 260c0-18.777 15.22-34 34-34 18.778 0 34 15.223 34 34"/><path fill="#231F20" stroke="#231F20" stroke-width="4" stroke-miterlimit="10" d="M170 260c0-14.36 11.64-26 26-26s26 11.64 26 26"/><path fill="#333" stroke="#231F20" stroke-width="4" stroke-miterlimit="10" d="M188 174h16v28h-16z"/><g fill="none" stroke-width="4" stroke-linecap="round" stroke-linejoin="round" stroke-miterlimit="10"><g stroke="#EC2127"><path d="M184 242c0 6 12 8.268 12 16M180 252c0 6 16-1.732 16 6M212 252c0 6-16-1.732-16 6M196 240v18M208 242c0 6-12 8.268-12 16"/></g><g stroke="#F16624"><path d="M185.318 245.314C188.436 249.166 196 251.86 196 258M183.314 254.472c4.688.325 12.686-1.94 12.686 3.528M208.733 254.468c-4.68.344-12.733-1.954-12.733 3.532M196 244v14M206.682 245.314C203.564 249.166 196 251.86 196 258"/></g><g stroke="#FEDE0F"><path d="M190.522 249.75c2.815 2.18 5.478 4.608 5.478 8.25M187.918 254.354c4.027-.22 8.082-.247 8.082 3.646M203.414 254.32c-3.795-.178-7.414.002-7.414 3.68M196 249v9M201.463 249.763c-2.81 2.175-5.463 4.602-5.463 8.237"/></g></g><path fill="#6C7071" stroke="#231F20" stroke-width="4" stroke-linecap="round" stroke-linejoin="round" stroke-miterlimit="10" d="M314 258l-4-12h24l-4 12zM346 258l-4-20h24l-4 20zM378 258l-4-20h24l-4 20zM282 258l-4-12h24l-4 12z"/><g stroke-miterlimit="10"><path fill="#9E5145" stroke="#231F20" stroke-width="4" d="M392 134.363c0-2.41-1.79-4.363-4-4.363H104c-2.21 0-4 1.954-4 4.363v39.273c0 2.41 1.79 4.363 4 4.363h284c2.21 0 4-1.955 4-4.364v-39.273z"/><g fill="none" stroke="#DBC6A5" stroke-width="12" stroke-linecap="round" stroke-linejoin="round"><path d="M132 154h60M216 154h60M300 154h60"/></g></g><path fill="#9E5145" stroke="#231F20" stroke-width="4" stroke-miterlimit="10" d="M90 230.363c0-2.41-1.79-4.363-4-4.363H6c-2.21 0-4 1.954-4 4.363v147.273C2 380.046 3.79 382 6 382h80c2.21 0 4-1.954 4-4.363V230.363z"/><path fill="none" stroke="#67533E" stroke-width="12" stroke-linecap="round" stroke-linejoin="round" stroke-miterlimit="10" d="M18 286h36"/><circle fill="#231F20" cx="74" cy="286" r="8"/><path fill="none" stroke="#BC6811" stroke-width="12" stroke-linecap="round" stroke-linejoin="round" stroke-miterlimit="10" d="M18 306h36"/><circle fill="#8A3824" cx="74" cy="306" r="8"/><path fill="none" stroke="#90291E" stroke-width="12" stroke-linecap="round" stroke-linejoin="round" stroke-miterlimit="10" d="M18 326h36"/><circle fill="#8A3824" cx="74" cy="326" r="8"/><path fill="none" stroke="#A15B20" stroke-width="12" stroke-linecap="round" stroke-linejoin="round" stroke-miterlimit="10" d="M18 346h36"/><circle fill="#8A3824" cx="74" cy="346" r="8"/><path fill="none" stroke="#231F20" stroke-width="12" stroke-linecap="round" stroke-linejoin="round" stroke-miterlimit="10" d="M18 366h36"/><circle fill="#231F20" cx="74" cy="366" r="8"/><path fill="none" stroke="#ccc" stroke-width="2" stroke-linecap="round" stroke-miterlimit="10" d="M70 286h8M70 306h8M70 326h8M70 346h8M70 366h8"/><path fill="none" stroke="#DBC6A5" stroke-width="12" stroke-linecap="round" stroke-linejoin="round" stroke-miterlimit="10" d="M18 242h56"/><path fill="none" stroke="#DBC6A5" stroke-width="8" stroke-linecap="round" stroke-linejoin="round" stroke-miterlimit="10" d="M18 258h8M42 258h8M66 258h8"/></svg>