<svg xmlns="http://www.w3.org/2000/svg" viewBox="0 0 356.167 400"><path fill="#444646" stroke="#231F20" stroke-width="4" stroke-linecap="round" stroke-linejoin="round" stroke-miterlimit="10" d="M350.167 106h-4c-52-8-168-60-168-72 0 12-116 64-168 72h-4c-2.21 0-4 1.79-4 4v40h352v-40c0-2.21-1.79-4-4-4z"/><path fill="#2B2E31" stroke="#231F20" stroke-width="4" stroke-linecap="round" stroke-linejoin="round" stroke-miterlimit="10" d="M354.167 146c0 2.21-1.79 4-4 4h-344c-2.21 0-4-1.79-4-4v-36c0-2.21 1.79-4 4-4h344c2.21 0 4 1.79 4 4v36z"/><path fill="#C1BEB4" stroke="#231F20" stroke-width="4" stroke-linecap="round" stroke-linejoin="round" stroke-miterlimit="10" d="M2.167 150h12v124h-12zM342.167 150h12v124h-12z"/><path fill="#2B2E31" stroke="#231F20" stroke-width="4" stroke-linecap="round" stroke-linejoin="round" stroke-miterlimit="10" d="M354.167 378c0 2.21-1.79 4-4 4h-344c-2.21 0-4-1.79-4-4V274h352v104z"/><path fill="#454545" stroke="#231F20" stroke-width="4" stroke-linecap="round" stroke-linejoin="round" stroke-miterlimit="10" d="M350.167 106h-4c-52-8-168-60-168-72 0 12-116 64-168 72h-4c-2.21 0-4 1.79-4 4v40h352v-40c0-2.21-1.79-4-4-4z"/><path fill="#333" stroke="#231F20" stroke-width="4" stroke-linecap="round" stroke-linejoin="round" stroke-miterlimit="10" d="M354.167 146c0 2.21-1.79 4-4 4h-344c-2.21 0-4-1.79-4-4v-36c0-2.21 1.79-4 4-4h344c2.21 0 4 1.79 4 4v36zM354.167 378c0 2.21-1.79 4-4 4h-344c-2.21 0-4-1.79-4-4V274h352v104z"/><path fill="none" stroke="#231F20" stroke-width="4" stroke-linecap="round" stroke-linejoin="round" stroke-miterlimit="10" d="M350.167 106h-4c-52-8-168-60-168-72 0 12-116 64-168 72h-4c-2.21 0-4 1.79-4 4v40h352v-40c0-2.21-1.79-4-4-4zM354.167 146c0 2.21-1.79 4-4 4h-344c-2.21 0-4-1.79-4-4v-36c0-2.21 1.79-4 4-4h344c2.21 0 4 1.79 4 4v36zM354.167 378c0 2.21-1.79 4-4 4h-344c-2.21 0-4-1.79-4-4V274h352v104z"/><path fill="#5A4A42" stroke="#231F20" stroke-width="4" stroke-linecap="round" stroke-linejoin="round" stroke-miterlimit="10" d="M14.167 262h328v12h-328z"/><g stroke="#231F20" stroke-miterlimit="10"><path fill="#FFBB67" stroke-width="4" d="M324.167 134.363c0-2.41-1.79-4.363-4-4.363h-284c-2.21 0-4 1.954-4 4.363v39.273c0 2.41 1.79 4.363 4 4.363h284c2.21 0 4-1.955 4-4.364v-39.273z"/><g fill="none" stroke-width="12" stroke-linecap="round" stroke-linejoin="round"><path d="M106.167 154h60M190.167 154h60"/></g></g></svg>