<svg xmlns="http://www.w3.org/2000/svg" width="400" height="400" viewBox="0 0 400 400"><path fill="#444646" stroke="#231F20" stroke-width="4" stroke-linecap="round" stroke-linejoin="round" stroke-miterlimit="10" d="M372 98h-4c-52-8-168-60-168-72 0 12-116 64-168 72h-4c-2.21 0-4 1.79-4 4v40h352v-40c0-2.21-1.79-4-4-4z"/><path fill="#2B2E31" stroke="#231F20" stroke-width="4" stroke-linecap="round" stroke-linejoin="round" stroke-miterlimit="10" d="M376 138c0 2.21-1.79 4-4 4H28c-2.21 0-4-1.79-4-4v-36c0-2.21 1.79-4 4-4h344c2.21 0 4 1.79 4 4v36z"/><path fill="#C1BEB4" stroke="#231F20" stroke-width="4" stroke-linecap="round" stroke-linejoin="round" stroke-miterlimit="10" d="M24 142h12v124H24zM364 142h12v124h-12z"/><path fill="#2B2E31" stroke="#231F20" stroke-width="4" stroke-linecap="round" stroke-linejoin="round" stroke-miterlimit="10" d="M376 370c0 2.21-1.79 4-4 4H28c-2.21 0-4-1.79-4-4V266h352v104z"/><path fill="#454545" stroke="#231F20" stroke-width="4" stroke-linecap="round" stroke-linejoin="round" stroke-miterlimit="10" d="M372 98h-4c-52-8-168-60-168-72 0 12-116 64-168 72h-4c-2.21 0-4 1.79-4 4v40h352v-40c0-2.21-1.79-4-4-4z"/><path fill="#333" stroke="#231F20" stroke-width="4" stroke-linecap="round" stroke-linejoin="round" stroke-miterlimit="10" d="M376 138c0 2.21-1.79 4-4 4H28c-2.21 0-4-1.79-4-4v-36c0-2.21 1.79-4 4-4h344c2.21 0 4 1.79 4 4v36zM376 370c0 2.21-1.79 4-4 4H28c-2.21 0-4-1.79-4-4V266h352v104z"/><path stroke="#231F20" stroke-width="4" stroke-linecap="round" stroke-linejoin="round" stroke-miterlimit="10" d="M372 98h-4c-52-8-168-60-168-72 0 12-116 64-168 72h-4c-2.21 0-4 1.79-4 4v40h352v-40c0-2.21-1.79-4-4-4zM376 138c0 2.21-1.79 4-4 4H28c-2.21 0-4-1.79-4-4v-36c0-2.21 1.79-4 4-4h344c2.21 0 4 1.79 4 4v36zM376 370c0 2.21-1.79 4-4 4H28c-2.21 0-4-1.79-4-4V266h352v104z" fill="none"/><path fill="#5A4A42" stroke="#231F20" stroke-width="4" stroke-linecap="round" stroke-linejoin="round" stroke-miterlimit="10" d="M36 254h328v12H36z"/><g stroke="#231F20" stroke-miterlimit="10"><path fill="#FFBB67" stroke-width="4" d="M346 126.363c0-2.41-1.79-4.363-4-4.363H58c-2.21 0-4 1.954-4 4.363v39.273c0 2.41 1.79 4.363 4 4.363h284c2.21 0 4-1.955 4-4.364v-39.273z"/><g stroke-width="12" stroke-linecap="round" stroke-linejoin="round" fill="none"><path d="M128 146h60M212 146h60"/></g></g></svg>