<svg xmlns="http://www.w3.org/2000/svg" width="614" height="400" viewBox="-0.5 0 614 400" enable-background="new -0.5 0 614 400"><g class="wheel"><circle fill="#5E6363" stroke="#231F20" stroke-width="4" stroke-miterlimit="10" cx="501.5" cy="354" r="44"/><circle fill="#A01D1D" stroke="#231F20" stroke-width="4" stroke-linecap="round" stroke-linejoin="round" stroke-miterlimit="10" cx="501.5" cy="354" r="24"/><path fill="#111" d="M491.6 332.787c1.563 1.562 1.563 4.095 0 5.656l-5.655 5.656c-1.562 1.56-4.096 1.56-5.656 0l11.31-11.313zm19.8 42.426c-1.563-1.562-1.563-4.094 0-5.656l5.657-5.656c1.562-1.56 4.094-1.56 5.655 0L511.4 375.214zm-31.114-11.315c1.562-1.562 4.095-1.562 5.656 0l5.656 5.656c1.56 1.562 1.56 4.096 0 5.654l-11.312-11.31zm42.427-19.798c-1.562 1.562-4.096 1.562-5.657 0l-5.656-5.656c-1.563-1.562-1.563-4.094 0-5.653l11.313 11.31z"/><circle fill="#6D1414" cx="501.5" cy="354" r="8"/><circle fill="none" stroke="#231F20" stroke-width="4" stroke-miterlimit="10" cx="501.5" cy="354" r="24"/><path fill="#231F20" d="M503.502 342c-.004 1.104-.897 2.002-2 2-1.104-.002-1.998-.896-2-2-.004-1.105.896-2.004 2-2 1.104 0 1.998.896 2 2zm-13.396 16.266c.96-.55 2.185-.224 2.732.73.55.958.223 2.18-.734 2.734-.953.555-2.183.225-2.73-.733-.553-.956-.223-2.18.73-2.73h.002zm20.786 3.466c-.955-.56-1.285-1.78-.732-2.732s1.773-1.28 2.732-.73c.957.55 1.285 1.777.73 2.73-.55.957-1.775 1.283-2.73.732z"/></g><g class="wheel"><circle fill="#5E6363" stroke="#231F20" stroke-width="4" stroke-miterlimit="10" cx="129.5" cy="354" r="44"/><circle fill="#A01D1D" stroke="#231F20" stroke-width="4" stroke-linecap="round" stroke-linejoin="round" stroke-miterlimit="10" cx="129.5" cy="354" r="24"/><path fill="#111" d="M119.6 332.787c1.563 1.562 1.563 4.095 0 5.656l-5.656 5.656c-1.562 1.56-4.095 1.56-5.656 0l11.312-11.313zm19.8 42.426c-1.562-1.562-1.562-4.094 0-5.656l5.657-5.656c1.562-1.56 4.095-1.56 5.656 0L139.4 375.214zm-31.114-11.315c1.562-1.562 4.095-1.562 5.657 0l5.656 5.656c1.56 1.562 1.56 4.096 0 5.654l-11.314-11.31zm42.427-19.798c-1.562 1.562-4.096 1.562-5.657 0l-5.657-5.656c-1.564-1.562-1.564-4.094 0-5.653l11.313 11.31z"/><circle fill="#6D1414" cx="129.5" cy="354" r="8"/><circle fill="none" stroke="#231F20" stroke-width="4" stroke-miterlimit="10" cx="129.5" cy="354" r="24"/><path fill="#231F20" d="M131.502 342c-.004 1.104-.898 2.002-2 2-1.104-.002-1.998-.896-2-2-.004-1.105.896-2.004 2-2 1.104 0 1.998.896 2 2zm-13.396 16.266c.96-.55 2.185-.224 2.733.73.55.958.22 2.18-.735 2.734-.954.555-2.183.225-2.73-.733-.553-.956-.223-2.18.73-2.73zm20.786 3.466c-.956-.56-1.286-1.78-.733-2.732.552-.953 1.773-1.28 2.73-.73.96.55 1.287 1.777.73 2.73-.55.957-1.774 1.283-2.728.732z"/></g><path fill="none" stroke="#B9529F" stroke-width="4" stroke-linecap="round" stroke-linejoin="round" stroke-miterlimit="10" d="M277.5 160.07"/><path fill="#ECECEC" stroke="#231F20" stroke-width="4" stroke-miterlimit="10" d="M279.5 74c2.21 0 4 1.79 4 4v10h-11.998V78c-.002-2.21 1.79-4 3.998-4h4z"/><path fill="#eee" stroke="#231F20" stroke-width="4" stroke-linecap="round" stroke-linejoin="round" stroke-miterlimit="10" d="M15.5 266h-4s-4 0-4 4v12s0 4 4 4"/><path fill="#D52524" stroke="#231F20" stroke-width="4" stroke-linecap="round" stroke-linejoin="round" stroke-miterlimit="10" d="M11.5 292v14l4 22 70 10s6-22 24-22h40c18 0 24 22 24 22s4 14 4 22h276s6-36 36-36h24c30 0 36 36 36 36h48l8-52-4-72-12-84s-10-66-74-66h-352s-66 2-88 54h-8v12l-44 102s-8 0-8 12"/><path fill="#ECECEC" stroke="#231F20" stroke-width="4" stroke-linecap="round" stroke-linejoin="round" stroke-miterlimit="10" d="M605.5 298h-140c-22 0-20 20-20 20v24h-258v-32c0-20-22-20-22-20h-136c-8 0-6-8-6-8v-28s-8 0-8 12c0 0-4 18-4 26v14l4 22 70 10s6-22 24-22h40c18 0 24 22 24 22s4 14 4 22h276s6-36 36-36h24c30 0 36 36 36 36h48l8-52-4-72"/><path fill="#ECECEC" stroke="#231F20" stroke-width="4" stroke-linecap="round" stroke-linejoin="round" stroke-miterlimit="10" d="M515.5 86h-352s-66 2-88 54h-8v8h126V98h320v48h74l.656-.09C583.852 129.57 567.5 86 515.5 86zm46 256v24h36s10 0 10-6v-18h-46z"/><path fill="#ECECEC" stroke="#231F20" stroke-width="4" stroke-miterlimit="10" d="M287.5 72c0 2.21-1.79 4-4 4h-12c-2.21 0-4-1.79-4-4v-4c0-2.21 1.79-4 4-4h12c2.21 0 4 1.79 4 4v4zm-20-2h22"/><path fill="none" stroke="#231F20" stroke-width="4" stroke-linecap="round" stroke-linejoin="round" stroke-miterlimit="10" d="M165.5 148v142h-120v-66l32-76h88z"/><path fill="#ECECEC" stroke="#231F20" stroke-width="4" stroke-linecap="round" stroke-linejoin="round" stroke-miterlimit="10" d="M1.5 322s0 20.5 8 22l58 6s12 2 16-2l2-10-84-16z"/><g stroke="#231F20" stroke-width="4" stroke-linecap="round" stroke-linejoin="round" stroke-miterlimit="10"><path fill="#C1BFB5" d="M505.5 125.575l12-19.575h-330l12 19.575h306z"/><path fill="#FFF6E3" d="M187.5 98h330v8h-330v-8z"/><path fill="#444646" d="M199.5 126h306v116h-306V126z"/><path fill="#966943" d="M199.5 234h306v8h-306v-8zm0-36h306v8h-306v-8z"/></g><path fill="#454646" stroke="#231F20" stroke-width="4" stroke-linecap="round" stroke-linejoin="round" stroke-miterlimit="10" d="M155.5 234c2.21 0 4-1.79 4-4s-1.79-4-4-4-4 1.79-4 4 1.79 4 4 4zm-4-4h-16"/><path fill="#4CABC2" stroke="#231F20" stroke-width="4" stroke-linecap="round" stroke-linejoin="round" stroke-miterlimit="10" d="M88.03 216h66c2.21 0 4-1.79 4-4v-52c0-2.21-1.79-4-4-4H85.5s-6 0-10 12l-16 40s-2 8 10 8h18.53z"/><path opacity=".2" fill="#fff" enable-background="new" d="M107.5 156l-45 45 9-25 20-20h16zm8 0l-54 56-3-1 53-55h4zm44 26l-30 34h-4l32-36 2 2zm0-10l-38 44h-42l52-60h26l2 16z"/><path fill="none" stroke="#231F20" stroke-width="4" stroke-linecap="round" stroke-linejoin="round" stroke-miterlimit="10" d="M88.03 216h66c2.21 0 4-1.79 4-4v-52c0-2.21-1.79-4-4-4H85.5s-6 0-10 12l-16 40s-2 8 10 8h18.53z"/><path fill="#ECECEC" d="M11.5 310h12v6h-12v-6z"/><path fill="#F79520" d="M11.5 304h12v6h-12v-6z"/><path fill="none" stroke="#231F20" stroke-width="4" stroke-linecap="round" stroke-linejoin="round" stroke-miterlimit="10" d="M13.5 316h10v-12h-12l2 12z"/><path fill="#454646" stroke="#231F20" stroke-width="4" stroke-linecap="round" stroke-linejoin="round" stroke-miterlimit="10" d="M70.113 214.387c.378 1.424-.616 2.922-2.217 3.348-1.6.427-3.206-.387-3.583-1.81l-2.732-10.312c-.376-1.424.617-2.922 2.22-3.346 1.6-.43 3.204.385 3.58 1.81l2.733 10.31z"/><path fill="none" stroke="#231F20" stroke-width="4" stroke-linecap="round" stroke-linejoin="round" stroke-miterlimit="10" d="M61.5 212l-8 12v6"/><path fill="#0084AF" stroke="#231F20" stroke-width="4" stroke-linecap="round" stroke-linejoin="round" stroke-miterlimit="10" d="M593.5 158.363c0-2.41-1.79-4.363-4-4.363h-70c-2.21 0-4 1.954-4 4.363v95.274c0 2.41 1.79 4.362 4 4.362h70c2.21 0 4-1.956 4-4.365v-95.272z"/><path fill="#9A6F4A" d="M545.5 238l2 12h16l2-12h-20z"/><path fill="none" stroke="#ECECEC" stroke-width="8" stroke-linecap="round" stroke-linejoin="round" stroke-miterlimit="10" d="M529.5 164h10m30 0h14"/><path fill="none" stroke="#ECECEC" stroke-width="2" stroke-linecap="round" stroke-linejoin="round" stroke-miterlimit="10" d="M573.5 182h4m-50 6h4m-4 4h8m-12 8h12m-12 4h12m-12 10h4m4 0h6m-14 8h6m4 0h6m-6 4h6m-12 22h12m36-52h8m-10 10h4m4 0h4m-12 6h12m-12 18h12m-12 4h2m4 0h6m-4-52h6"/><circle fill="#D52524" cx="554.5" cy="167" r="7"/><path fill="#ECECEC" d="M545.5 228h20v6h-20v-6z"/><path fill="#F1F2B0" d="M541.5 214h28v4h-28v-4z"/><path fill="#E68896" d="M541.5 206h28v6h-28v-6z"/><path fill="#A9D07D" d="M545.5 222h10v2h-10v-2z"/><path fill="#D97F51" d="M555.5 222h10v2h-10v-2z"/><path fill="#35874F" d="M539.5 200h10.667v2H539.5v-2z"/><path fill="#F3D6A7" d="M539.5 194h2.667v2H539.5v-2zm5.333 0h2.667v2h-2.667v-2zm6 0h2.667v2h-2.667v-2zm6 0h2.667v2h-2.667v-2zm6 0h2.667v2h-2.667v-2zm6 0h2.667v2h-2.667v-2z"/><path fill="#82A94F" d="M550.167 200h10.667v2h-10.667v-2z"/><path fill="#35874F" d="M560.834 200H571.5v2h-10.666v-2z"/><path fill="none" stroke="#D52524" stroke-width="2" stroke-linecap="round" stroke-linejoin="round" stroke-miterlimit="10" d="M539.5 190h2v-4l4 4v-4l4 4v-4l4 4v-4l4 4v-4l4 4v-4l4 4v-4l4 4"/><path fill="#ECECEC" d="M549.5 244s2 2 4 0c0 0 2-2 4 0 0 0 2 2 4 0 0 0 1.445-1.436 3.107-.643L565.5 238h-20l.898 5.395c.77-.366 1.935-.562 3.102.605z"/><path fill="#F79520" stroke="#231F20" stroke-width="4" stroke-linecap="round" stroke-linejoin="round" stroke-miterlimit="10" d="M604.906 296h6.594v-12h-7.344l.75 12z"/><path fill="#0084AF" stroke="#231F20" stroke-width="4" stroke-linecap="round" stroke-linejoin="round" stroke-miterlimit="10" d="M505.5 194c0-2.41-1.79-4-4-4h-70c-2.21 0-4 1.59-4 4v36c0 2.41 1.79 4 4 4h70c2.21 0 4-1.59 4-4v-36z"/><circle fill="#ECECEC" cx="448.5" cy="212" r="16"/><g fill="none" stroke="#0084AF" stroke-width="2" stroke-linecap="round" stroke-linejoin="round" stroke-miterlimit="10"><path d="M446.5 223v-11m4 11v-11m-10 0h16m-12-4h8m-6-4h4"/><circle cx="448.5" cy="212" r="12"/></g><path fill="none" stroke="#ECECEC" stroke-width="8" stroke-linecap="round" stroke-linejoin="round" stroke-miterlimit="10" d="M471.5 204h16m-16 12h24"/><path fill="#ECECEC" stroke="#231F20" stroke-width="4" stroke-linecap="round" stroke-linejoin="round" stroke-miterlimit="10" d="M307.5 196h-12l-4-16h20l-4 16z"/><path fill="#D81E08" stroke="#231F20" stroke-width="4" stroke-linecap="round" stroke-linejoin="round" stroke-miterlimit="10" d="M331.5 170v20c0 2.21-1.79 4-4 4s-4-1.79-4-4v-20l4-4 4 4z"/><path fill="#CE3746" stroke="#00B133" stroke-width="4" stroke-linecap="round" stroke-linejoin="round" stroke-miterlimit="10" d="M327.5 162v-4"/><path fill="#6C7071" stroke="#231F20" stroke-width="4" stroke-linecap="round" stroke-linejoin="round" stroke-miterlimit="10" d="M259.5 194l-4-20h24l-4 20h-16zm-44 0l-4-28h32l-4 28h-24z"/><g class="wheel"><path fill="#454545" stroke="#231F20" stroke-width="4" stroke-linecap="round" stroke-linejoin="round" stroke-miterlimit="10" d="M277.5 234c0-2.41-1.79-4-4-4h-88c-2.21 0-4 1.59-4 4v160c0 2.41 1.79 4 4 4h88c2.21 0 4-1.59 4-4V234z"/><path fill="none" stroke="#ECECEC" stroke-width="8" stroke-linecap="round" stroke-linejoin="round" stroke-miterlimit="10" d="M219.5 276h20m-48 24h32m-26 12h8m-14 52h4"/><path fill="none" stroke="#ECECEC" stroke-width="12" stroke-linecap="round" stroke-linejoin="round" stroke-miterlimit="10" d="M193.5 386h40"/><path fill="none" stroke="#ECECEC" stroke-width="8" stroke-linecap="round" stroke-linejoin="round" stroke-miterlimit="10" d="M221.5 364h16m12 0h16m-58 0h2m8-52h14m12 0h6m-14-12h12m12 0h8m-52-12h28"/><path fill="none" stroke="#ECECEC" stroke-width="4" stroke-linecap="round" stroke-linejoin="round" stroke-miterlimit="10" d="M189.5 322h18m-18 8h12m-12 8h6m-6 8h8m8 0h14m-8 8h12m8 0h8m-12-8h10m8 0h10m-52-8h14m8 0h4m8 0h8m8 0h14m-18 40h4m4 12h4m-12-6h16m-56-54h8m8 0h8m8 0h16m-42-8h4m8 0h16m8 0h14"/><circle fill="#D52524" cx="229.5" cy="252" r="16"/><path fill="#454545" stroke="#ECECEC" stroke-width="2" stroke-linecap="round" stroke-linejoin="round" stroke-miterlimit="10" d="M227.5 263v-11m4 11v-11m-10 0h16m-12-4h8m-6-4h4"/><circle fill="none" stroke="#ECECEC" stroke-width="2" stroke-linecap="round" stroke-linejoin="round" stroke-miterlimit="10" cx="229.5" cy="252" r="12"/><g><path fill="#454545" stroke="#231F20" stroke-width="4" stroke-linecap="round" stroke-linejoin="round" stroke-miterlimit="10" d="M563.5 308c0-2.41-1.79-4-4-4h-60c-2.21 0-4 1.59-4 4v85.637c0 2.41 1.79 4.363 4 4.363h60c2.21 0 4-1.954 4-4.363V308z"/><path fill="none" stroke="#ECECEC" stroke-width="8" stroke-linecap="round" stroke-linejoin="round" stroke-miterlimit="10" d="M533.5 361.637h6m-32 12h16m12 0h16m-44-12h14"/><path fill="none" stroke="#ECECEC" stroke-width="4" stroke-linecap="round" stroke-linejoin="round" stroke-miterlimit="10" d="M505.5 387.637h14m8.25 0h5.5m8.25 0h6"/><circle fill="#D52524" cx="529.5" cy="331.637" r="16"/><path fill="#454545" stroke="#ECECEC" stroke-width="2" stroke-linecap="round" stroke-linejoin="round" stroke-miterlimit="10" d="M527.5 342.637v-11m4 11v-11m-10 0h16m-12-4h8m-6-4h4"/><circle fill="none" stroke="#ECECEC" stroke-width="2" stroke-linecap="round" stroke-linejoin="round" stroke-miterlimit="10" cx="529.5" cy="331.637" r="12"/></g></g></svg>