<svg xmlns="http://www.w3.org/2000/svg" width="614" height="400" viewBox="82.501 0 614 400" enable-background="new 82.501 0 614 400"><path fill="none" stroke="#B9529F" stroke-width="4" stroke-linecap="round" stroke-linejoin="round" stroke-miterlimit="10" d="M360.5 160.07"/><path fill="#5E6363" stroke="#231F20" stroke-width="4" stroke-miterlimit="10" d="M256.5 354c0 24.3-19.7 44-44 44s-44-19.7-44-44 19.7-41 44-41 44 16.7 44 41z"/><circle fill="#A01D1D" stroke="#231F20" stroke-width="4" stroke-linecap="round" stroke-linejoin="round" stroke-miterlimit="10" cx="212.5" cy="354" r="24"/><g fill="#111"><path d="M202.6 332.787c1.563 1.562 1.563 4.095 0 5.656l-5.656 5.657c-1.562 1.562-4.095 1.562-5.656 0l11.313-11.313zM222.4 375.213c-1.562-1.562-1.562-4.094 0-5.656l5.657-5.656c1.562-1.56 4.095-1.56 5.656 0L222.4 375.214zM191.286 363.898c1.562-1.562 4.095-1.562 5.657 0l5.656 5.657c1.56 1.562 1.56 4.095 0 5.657l-11.314-11.314zM233.713 344.1c-1.562 1.562-4.096 1.562-5.657 0l-5.657-5.656c-1.563-1.562-1.563-4.095 0-5.657l11.313 11.313z"/></g><circle fill="#6D1414" cx="212.5" cy="354" r="8"/><circle fill="none" stroke="#231F20" stroke-width="4" stroke-miterlimit="10" cx="212.5" cy="354" r="24"/><path fill="#231F20" d="M214.502 342c-.004 1.104-.898 2.002-2 2-1.104-.002-1.998-.896-2-2-.004-1.105.896-2.004 2-2 1.104 0 1.998.896 2 2zM201.106 358.266c.96-.55 2.185-.224 2.733.73.55.958.222 2.18-.734 2.734-.954.555-2.183.225-2.73-.733-.553-.956-.223-2.18.73-2.73zM221.892 361.733c-.956-.557-1.286-1.78-.733-2.733.553-.953 1.774-1.28 2.732-.73.958.55 1.286 1.777.73 2.73-.55.957-1.775 1.283-2.73.733z"/><path fill="#ECECEC" stroke="#231F20" stroke-width="4" stroke-miterlimit="10" d="M362.5 74c2.21 0 4 1.79 4 4v10h-11.998V78c-.002-2.21 1.79-4 3.998-4h4zM360.5 74M360.5 72M360.5 74"/><path fill="#eee" stroke="#231F20" stroke-width="4" stroke-linecap="round" stroke-linejoin="round" stroke-miterlimit="10" d="M98.5 266h-4s-4 0-4 4v12s0 4 4 4"/><path fill="#5E6363" stroke="#231F20" stroke-width="4" stroke-miterlimit="10" d="M628.5 354c0 24.3-19.7 44-44 44s-44-19.7-44-44 19.7-41 44-41 44 16.7 44 41z"/><circle fill="#A01D1D" stroke="#231F20" stroke-width="4" stroke-linecap="round" stroke-linejoin="round" stroke-miterlimit="10" cx="584.5" cy="354" r="24"/><g fill="#111"><path d="M574.6 332.787c1.563 1.562 1.563 4.095 0 5.656l-5.656 5.657c-1.562 1.562-4.095 1.562-5.656 0l11.313-11.313zM594.4 375.213c-1.562-1.562-1.562-4.094 0-5.656l5.657-5.656c1.562-1.56 4.094-1.56 5.656 0L594.4 375.214zM563.286 363.898c1.562-1.562 4.095-1.562 5.657 0l5.656 5.657c1.56 1.562 1.56 4.095 0 5.657l-11.314-11.314zM605.713 344.1c-1.562 1.562-4.096 1.562-5.657 0l-5.657-5.656c-1.563-1.562-1.563-4.095 0-5.657l11.313 11.313z"/></g><circle fill="#6D1414" cx="584.5" cy="354" r="8"/><circle fill="none" stroke="#231F20" stroke-width="4" stroke-miterlimit="10" cx="584.5" cy="354" r="24"/><path fill="#231F20" d="M586.502 342c-.004 1.104-.898 2.002-2 2-1.104-.002-1.998-.896-2-2-.004-1.105.896-2.004 2-2 1.104 0 1.998.896 2 2zM573.106 358.266c.96-.55 2.185-.224 2.733.73.55.958.222 2.18-.734 2.734-.955.555-2.183.225-2.73-.733-.553-.956-.223-2.18.73-2.73zM593.892 361.733c-.956-.557-1.286-1.78-.733-2.733.553-.953 1.774-1.28 2.732-.73.958.55 1.286 1.777.73 2.73-.55.957-1.775 1.283-2.73.733z"/><path fill="#D52524" stroke="#231F20" stroke-width="4" stroke-linecap="round" stroke-linejoin="round" stroke-miterlimit="10" d="M94.5 292v14l4 22 70 10s6-22 24-22h40c18 0 24 22 24 22s4 14 4 22h276s6-36 36-36h24c30 0 36 36 36 36h48l8-52-4-72-12-84s-10-66-74-66h-352s-66 2-88 54h-8v12l-44 102s-8 0-8 12"/><path fill="#ECECEC" stroke="#231F20" stroke-width="4" stroke-linecap="round" stroke-linejoin="round" stroke-miterlimit="10" d="M688.5 298h-140c-22 0-20 20-20 20v24h-258v-32c0-20-22-20-22-20h-136c-8 0-6-8-6-8v-28s-8 0-8 12c0 0-4 18-4 26v14l4 22 70 10s6-22 24-22h40c18 0 24 22 24 22s4 14 4 22h276s6-36 36-36h24c30 0 36 36 36 36h48l8-52-4-72"/><path fill="#ECECEC" stroke="#231F20" stroke-width="4" stroke-linecap="round" stroke-linejoin="round" stroke-miterlimit="10" d="M598.5 86h-352s-66 2-88 54h-8v8h126V98h320v48h74l.656-.09C666.852 129.57 650.5 86 598.5 86zM644.5 342v24h36s10 0 10-6v-18h-46z"/><path fill="#ECECEC" stroke="#231F20" stroke-width="4" stroke-miterlimit="10" d="M370.5 72c0 2.21-1.79 4-4 4h-12c-2.21 0-4-1.79-4-4v-4c0-2.21 1.79-4 4-4h12c2.21 0 4 1.79 4 4v4zM350.5 70h22"/><path fill="none" stroke="#231F20" stroke-width="4" stroke-linecap="round" stroke-linejoin="round" stroke-miterlimit="10" d="M248.5 148v142h-120v-66l32-76z"/><path fill="#ECECEC" stroke="#231F20" stroke-width="4" stroke-linecap="round" stroke-linejoin="round" stroke-miterlimit="10" d="M84.5 322s0 20.5 8 22l58 6s12 2 16-2l2-10-84-16z"/><g stroke="#231F20" stroke-width="4" stroke-linecap="round" stroke-linejoin="round" stroke-miterlimit="10"><path fill="#C1BFB5" d="M588.5 125.575l12-19.575h-330l12 19.575z"/><path fill="#FFF6E3" d="M270.5 98h330v8h-330z"/><path fill="#444646" d="M282.5 126h306v116h-306z"/><path fill="#966943" d="M282.5 234h306v8h-306zM282.5 198h306v8h-306z"/></g><path fill="#454646" stroke="#231F20" stroke-width="4" stroke-linecap="round" stroke-linejoin="round" stroke-miterlimit="10" d="M238.5 234c2.21 0 4-1.79 4-4s-1.79-4-4-4-4 1.79-4 4 1.79 4 4 4zM234.5 230h-16"/><path fill="#4CABC2" stroke="#231F20" stroke-width="4" stroke-linecap="round" stroke-linejoin="round" stroke-miterlimit="10" d="M171.03 216h66c2.21 0 4-1.79 4-4v-52c0-2.21-1.79-4-4-4H168.5s-6 0-10 12l-16 40s-2 8 10 8h18.53z"/><path opacity=".2" fill="#fff" d="M190.5 156l-45 45 9-25 20-20zM198.5 156l-54 56-3-1 53-55zM242.5 182l-30 34h-4l32-36zM242.5 172l-38 44h-42l52-60h26z"/><path fill="none" stroke="#231F20" stroke-width="4" stroke-linecap="round" stroke-linejoin="round" stroke-miterlimit="10" d="M171.03 216h66c2.21 0 4-1.79 4-4v-52c0-2.21-1.79-4-4-4H168.5s-6 0-10 12l-16 40s-2 8 10 8h18.53z"/><path fill="#ECECEC" d="M94.5 310h12v6h-12z"/><path fill="#F79520" d="M94.5 304h12v6h-12z"/><path fill="none" stroke="#231F20" stroke-width="4" stroke-linecap="round" stroke-linejoin="round" stroke-miterlimit="10" d="M96.5 316h10v-12h-12z"/><path fill="#454646" stroke="#231F20" stroke-width="4" stroke-linecap="round" stroke-linejoin="round" stroke-miterlimit="10" d="M153.113 214.387c.378 1.424-.616 2.922-2.217 3.347-1.6.424-3.206-.386-3.583-1.81l-2.732-10.31c-.377-1.425.616-2.923 2.218-3.347 1.6-.425 3.205.385 3.582 1.81l2.733 10.31z"/><path fill="none" stroke="#231F20" stroke-width="4" stroke-linecap="round" stroke-linejoin="round" stroke-miterlimit="10" d="M144.5 212l-8 12v6"/><path fill="#0084AF" stroke="#231F20" stroke-width="4" stroke-linecap="round" stroke-linejoin="round" stroke-miterlimit="10" d="M676.5 158.363c0-2.41-1.79-4.363-4-4.363h-70c-2.21 0-4 1.954-4 4.363v95.273c0 2.41 1.79 4.363 4 4.363h70c2.21 0 4-1.955 4-4.364v-95.273z"/><path fill="#9A6F4A" d="M628.5 238l2 12h16l2-12z"/><path fill="none" stroke="#ECECEC" stroke-width="8" stroke-linecap="round" stroke-linejoin="round" stroke-miterlimit="10" d="M612.5 164h10M652.5 164h14"/><path fill="none" stroke="#ECECEC" stroke-width="2" stroke-linecap="round" stroke-linejoin="round" stroke-miterlimit="10" d="M656.5 182h4M610.5 188h4M610.5 192h8M606.5 200h12M606.5 204h12M606.5 214h4M614.5 214h6M606.5 222h6M616.5 222h6M616.5 226h6M610.5 248h12M658.5 196h8M656.5 206h4M664.5 206h4M656.5 212h12M656.5 230h12M656.5 234h2M662.5 234h6M664.5 182h6"/><circle fill="#D52524" cx="637.5" cy="167" r="7"/><path fill="#ECECEC" d="M628.5 228h20v6h-20z"/><path fill="#F1F2B0" d="M624.5 214h28v4h-28z"/><path fill="#E68896" d="M624.5 206h28v6h-28z"/><path fill="#A9D07D" d="M628.5 222h10v2h-10z"/><path fill="#D97F51" d="M638.5 222h10v2h-10z"/><path fill="#35874F" d="M622.5 200h10.667v2H622.5z"/><path fill="#F3D6A7" d="M622.5 194h2.667v2H622.5zM627.833 194h2.667v2h-2.667zM633.833 194h2.667v2h-2.667zM639.833 194h2.667v2h-2.667zM645.833 194h2.667v2h-2.667zM651.833 194h2.667v2h-2.667z"/><path fill="#82A94F" d="M633.167 200h10.667v2h-10.667z"/><path fill="#35874F" d="M643.834 200H654.5v2h-10.666z"/><path fill="none" stroke="#D52524" stroke-width="2" stroke-linecap="round" stroke-linejoin="round" stroke-miterlimit="10" d="M622.5 190h2v-4l4 4v-4l4 4v-4l4 4v-4l4 4v-4l4 4v-4l4 4v-4l4 4"/><path fill="#ECECEC" d="M632.5 244s2 2 4 0c0 0 2-2 4 0 0 0 2 2 4 0 0 0 1.445-1.436 3.107-.643L648.5 238h-20l.898 5.395c.77-.366 1.935-.562 3.102.605z"/><path fill="#454545" stroke="#231F20" stroke-width="4" stroke-linecap="round" stroke-linejoin="round" stroke-miterlimit="10" d="M360.5 224c0-2.41-1.79-4-4-4h-88c-2.21 0-4 1.59-4 4v160c0 2.41 1.79 4 4 4h88c2.21 0 4-1.59 4-4V224z"/><path fill="none" stroke="#ECECEC" stroke-width="8" stroke-linecap="round" stroke-linejoin="round" stroke-miterlimit="10" d="M302.5 266h20M274.5 290h32M280.5 302h8M274.5 354h4"/><path fill="none" stroke="#ECECEC" stroke-width="12" stroke-linecap="round" stroke-linejoin="round" stroke-miterlimit="10" d="M276.5 376h40"/><path fill="none" stroke="#ECECEC" stroke-width="8" stroke-linecap="round" stroke-linejoin="round" stroke-miterlimit="10" d="M304.5 354h16M332.5 354h16M290.5 354h2M300.5 302h14M326.5 302h6M318.5 290h12M342.5 290h8M298.5 278h28"/><path fill="none" stroke="#ECECEC" stroke-width="4" stroke-linecap="round" stroke-linejoin="round" stroke-miterlimit="10" d="M272.5 312h18M272.5 320h12M272.5 328h6M272.5 336h8M288.5 336h14M294.5 344h12M314.5 344h8M310.5 336h10M328.5 336h10M286.5 328h14M308.5 328h4M320.5 328h8M336.5 328h14M332.5 368h4M340.5 380h4M332.5 374h16M292.5 320h8M308.5 320h8M324.5 320h16M298.5 312h4M310.5 312h16M334.5 312h14"/><circle fill="#D52524" cx="312.5" cy="242" r="16"/><path fill="#454545" stroke="#ECECEC" stroke-width="2" stroke-linecap="round" stroke-linejoin="round" stroke-miterlimit="10" d="M310.5 253v-11M314.5 253v-11M304.5 242h16M308.5 238h8M310.5 234h4"/><circle fill="none" stroke="#ECECEC" stroke-width="2" stroke-linecap="round" stroke-linejoin="round" stroke-miterlimit="10" cx="312.5" cy="242" r="12"/><path fill="#F79520" stroke="#231F20" stroke-width="4" stroke-linecap="round" stroke-linejoin="round" stroke-miterlimit="10" d="M687.906 296h6.594v-12h-7.344z"/><path fill="#454545" stroke="#231F20" stroke-width="4" stroke-linecap="round" stroke-linejoin="round" stroke-miterlimit="10" d="M646.5 298c0-2.41-1.79-4-4-4h-60c-2.21 0-4 1.59-4 4v85.637c0 2.41 1.79 4.363 4 4.363h60c2.21 0 4-1.954 4-4.363V298z"/><path fill="none" stroke="#ECECEC" stroke-width="8" stroke-linecap="round" stroke-linejoin="round" stroke-miterlimit="10" d="M616.5 351.637h6M590.5 363.637h16M618.5 363.637h16M590.5 351.637h14"/><path fill="none" stroke="#ECECEC" stroke-width="4" stroke-linecap="round" stroke-linejoin="round" stroke-miterlimit="10" d="M588.5 377.637h14M610.75 377.637h5.5M624.5 377.637h6"/><circle fill="#D52524" cx="612.5" cy="321.637" r="16"/><path fill="#454545" stroke="#ECECEC" stroke-width="2" stroke-linecap="round" stroke-linejoin="round" stroke-miterlimit="10" d="M610.5 332.637v-11M614.5 332.637v-11M604.5 321.637h16M608.5 317.637h8M610.5 313.637h4"/><circle fill="none" stroke="#ECECEC" stroke-width="2" stroke-linecap="round" stroke-linejoin="round" stroke-miterlimit="10" cx="612.5" cy="321.637" r="12"/><path fill="#0084AF" stroke="#231F20" stroke-width="4" stroke-linecap="round" stroke-linejoin="round" stroke-miterlimit="10" d="M588.5 194c0-2.41-1.79-4-4-4h-70c-2.21 0-4 1.59-4 4v36c0 2.41 1.79 4 4 4h70c2.21 0 4-1.59 4-4v-36z"/><circle fill="#ECECEC" cx="531.5" cy="212" r="16"/><g fill="none" stroke="#0084AF" stroke-width="2" stroke-linecap="round" stroke-linejoin="round" stroke-miterlimit="10"><path d="M529.5 223v-11M533.5 223v-11M523.5 212h16M527.5 208h8M529.5 204h4"/><circle cx="531.5" cy="212" r="12"/></g><path fill="none" stroke="#ECECEC" stroke-width="8" stroke-linecap="round" stroke-linejoin="round" stroke-miterlimit="10" d="M554.5 204h16M554.5 216h24"/><path fill="#ECECEC" stroke="#231F20" stroke-width="4" stroke-linecap="round" stroke-linejoin="round" stroke-miterlimit="10" d="M390.5 196h-12l-4-16h20z"/><path fill="#D81E08" stroke="#231F20" stroke-width="4" stroke-linecap="round" stroke-linejoin="round" stroke-miterlimit="10" d="M414.5 170v20c0 2.21-1.79 4-4 4s-4-1.79-4-4v-20l4-4 4 4z"/><path fill="#CE3746" stroke="#00B133" stroke-width="4" stroke-linecap="round" stroke-linejoin="round" stroke-miterlimit="10" d="M410.5 162v-4"/><path fill="#6C7071" stroke="#231F20" stroke-width="4" stroke-linecap="round" stroke-linejoin="round" stroke-miterlimit="10" d="M342.5 194l-4-20h24l-4 20zM298.5 194l-4-28h32l-4 28z"/></svg>