<?xml version="1.0" encoding="utf-8"?>
<!-- Generator: Adobe Illustrator 16.0.1, SVG Export Plug-In . SVG Version: 6.00 Build 0)  -->
<!DOCTYPE svg PUBLIC "-//W3C//DTD SVG 1.1//EN" "http://www.w3.org/Graphics/SVG/1.1/DTD/svg11.dtd">
<svg version="1.1" id="Layer_1" xmlns="http://www.w3.org/2000/svg" xmlns:xlink="http://www.w3.org/1999/xlink" x="0px" y="0px"
	 width="614px" height="400px" viewBox="0 0 614 400" enable-background="new 0 0 614 400" xml:space="preserve">
<path fill="none" stroke="#B9529F" stroke-width="4" stroke-linecap="round" stroke-linejoin="round" stroke-miterlimit="10" d="
	M278,160.07"/>
<g class="wheel">
	<path fill="#5E6363" stroke="#231F20" stroke-width="4" stroke-miterlimit="10" d="M174,354c0,24.3-19.7,44-44,44s-44-19.7-44-44
		s19.7-41,44-41S174,329.7,174,354z"/>
	
		<circle fill="#A01D1D" stroke="#231F20" stroke-width="4" stroke-linecap="round" stroke-linejoin="round" stroke-miterlimit="10" cx="130" cy="354" r="24"/>
	<g>
		<path fill="#111111" d="M120.1,332.787c1.563,1.562,1.563,4.095,0,5.656l-5.656,5.656c-1.562,1.562-4.095,1.562-5.656,0
			L120.1,332.787L120.1,332.787z M139.9,375.213c-1.562-1.562-1.562-4.094,0-5.656l5.657-5.656c1.562-1.56,4.095-1.56,5.656,0
			L139.9,375.213L139.9,375.213z M108.786,363.898c1.562-1.562,4.095-1.562,5.657,0l5.656,5.656c1.56,1.562,1.56,4.096,0,5.657
			L108.786,363.898L108.786,363.898z M151.213,344.1c-1.562,1.562-4.096,1.562-5.657,0l-5.657-5.656
			c-1.563-1.562-1.563-4.094,0-5.656L151.213,344.1L151.213,344.1z"/>
	</g>
	<circle fill="#6D1414" cx="130" cy="354" r="8"/>
	<circle fill="none" stroke="#231F20" stroke-width="4" stroke-miterlimit="10" cx="130" cy="354" r="24"/>
	<path fill="#231F20" d="M132.002,342c-0.004,1.104-0.898,2.002-2,2c-1.104-0.002-1.998-0.896-2-2c-0.004-1.105,0.896-2.004,2-2
		C131.106,340,132,340.896,132.002,342z M118.606,358.266c0.96-0.55,2.185-0.224,2.733,0.73c0.55,0.958,0.222,2.18-0.734,2.734
		c-0.954,0.555-2.183,0.225-2.73-0.733c-0.553-0.956-0.223-2.181,0.73-2.729L118.606,358.266z M139.392,361.732
		c-0.956-0.557-1.286-1.779-0.733-2.732c0.553-0.953,1.774-1.279,2.732-0.73c0.958,0.551,1.286,1.777,0.73,2.73
		C141.571,361.957,140.346,362.283,139.392,361.732L139.392,361.732z"/>
</g>
<path fill="#ECECEC" stroke="#231F20" stroke-width="4" stroke-miterlimit="10" d="M280,74c2.21,0,4,1.79,4,4v10h-11.998V78
	c-0.002-2.21,1.79-4,3.998-4H280z"/>
<path fill="#EEEEEE" stroke="#231F20" stroke-width="4" stroke-linecap="round" stroke-linejoin="round" stroke-miterlimit="10" d="
	M16,266h-4c0,0-4,0-4,4v12c0,0,0,4,4,4"/>
<circle fill="#6D1414" cx="502" cy="354" r="8"/>
<g class="wheel">
	<path fill="#5E6363" stroke="#231F20" stroke-width="4" stroke-miterlimit="10" d="M546,354c0,24.3-19.7,44-44,44s-44-19.7-44-44
		s19.7-41,44-41S546,329.7,546,354z"/>
	
		<circle fill="#A01D1D" stroke="#231F20" stroke-width="4" stroke-linecap="round" stroke-linejoin="round" stroke-miterlimit="10" cx="502" cy="354" r="24"/>
	<g>
		<path fill="#111111" d="M492.1,332.787c1.563,1.562,1.563,4.095,0,5.656l-5.655,5.656c-1.562,1.562-4.096,1.562-5.656,0
			L492.1,332.787L492.1,332.787z M511.9,375.213c-1.562-1.562-1.562-4.094,0-5.656l5.656-5.656c1.562-1.56,4.095-1.56,5.656,0
			L511.9,375.213L511.9,375.213z M480.786,363.898c1.562-1.562,4.095-1.562,5.657,0l5.655,5.656c1.561,1.562,1.561,4.096,0,5.657
			L480.786,363.898L480.786,363.898z M523.213,344.1c-1.562,1.562-4.096,1.562-5.657,0l-5.656-5.656
			c-1.563-1.562-1.563-4.094,0-5.656L523.213,344.1L523.213,344.1z"/>
	</g>
	<circle fill="none" stroke="#231F20" stroke-width="4" stroke-miterlimit="10" cx="502" cy="354" r="24"/>
</g>
<path fill="#231F20" d="M504.002,342c-0.004,1.104-0.898,2.002-2,2c-1.104-0.002-1.998-0.896-2-2c-0.004-1.105,0.896-2.004,2-2
	C503.106,340,504,340.896,504.002,342z M490.606,358.266c0.96-0.55,2.185-0.224,2.732,0.73c0.55,0.958,0.222,2.18-0.733,2.734
	s-2.184,0.225-2.73-0.733c-0.553-0.956-0.223-2.181,0.73-2.729L490.606,358.266z M511.392,361.732
	c-0.956-0.557-1.285-1.779-0.732-2.732s1.773-1.279,2.731-0.73c0.958,0.551,1.286,1.777,0.73,2.73
	C513.571,361.957,512.346,362.283,511.392,361.732L511.392,361.732z"/>
<path fill="#D52524" stroke="#231F20" stroke-width="4" stroke-linecap="round" stroke-linejoin="round" stroke-miterlimit="10" d="
	M12,292v14l4,22l70,10c0,0,6-22,24-22h40c18,0,24,22,24,22s4,14,4,22h276c0,0,6-36,36-36h24c30,0,36,36,36,36h48l8-52l-4-72l-12-84
	c0,0-10-66-74-66H164c0,0-66,2-88,54h-8v12L24,254c0,0-8,0-8,12"/>
<path fill="#ECECEC" stroke="#231F20" stroke-width="4" stroke-linecap="round" stroke-linejoin="round" stroke-miterlimit="10" d="
	M606,298H466c-22,0-20,20-20,20v24H188v-32c0-20-22-20-22-20H30c-8,0-6-8-6-8v-28c0,0-8,0-8,12c0,0-4,18-4,26v14l4,22l70,10
	c0,0,6-22,24-22h40c18,0,24,22,24,22s4,14,4,22h276c0,0,6-36,36-36h24c30,0,36,36,36,36h48l8-52l-4-72"/>
<path fill="#ECECEC" stroke="#231F20" stroke-width="4" stroke-linecap="round" stroke-linejoin="round" stroke-miterlimit="10" d="
	M516,86H164c0,0-66,2-88,54h-8v8h126V98h320v48h74l0.656-0.09C584.352,129.57,568,86,516,86z M562,342v24h36c0,0,10,0,10-6v-18H562z
	"/>
<path fill="#ECECEC" stroke="#231F20" stroke-width="4" stroke-miterlimit="10" d="M288,72c0,2.21-1.79,4-4,4h-12
	c-2.21,0-4-1.79-4-4v-4c0-2.21,1.79-4,4-4h12c2.21,0,4,1.79,4,4V72z M268,70h22"/>
<path fill="none" stroke="#231F20" stroke-width="4" stroke-linecap="round" stroke-linejoin="round" stroke-miterlimit="10" d="
	M166,148v142H46v-66l32-76H166z"/>
<path fill="#ECECEC" stroke="#231F20" stroke-width="4" stroke-linecap="round" stroke-linejoin="round" stroke-miterlimit="10" d="
	M2,322c0,0,0,20.5,8,22l58,6c0,0,12,2,16-2l2-10L2,322z"/>
<g>
	
		<path fill="#C1BFB5" stroke="#231F20" stroke-width="4" stroke-linecap="round" stroke-linejoin="round" stroke-miterlimit="10" d="
		M506,125.575L518,106H188l12,19.575H506z"/>
	
		<path fill="#FFF6E3" stroke="#231F20" stroke-width="4" stroke-linecap="round" stroke-linejoin="round" stroke-miterlimit="10" d="
		M188,98h330v8H188V98z"/>
	
		<path fill="#444646" stroke="#231F20" stroke-width="4" stroke-linecap="round" stroke-linejoin="round" stroke-miterlimit="10" d="
		M200,126h306v116H200V126z"/>
	
		<path fill="#966943" stroke="#231F20" stroke-width="4" stroke-linecap="round" stroke-linejoin="round" stroke-miterlimit="10" d="
		M200,234h306v8H200V234z M200,198h306v8H200V198z"/>
</g>
<path fill="#454646" stroke="#231F20" stroke-width="4" stroke-linecap="round" stroke-linejoin="round" stroke-miterlimit="10" d="
	M156,234c2.21,0,4-1.79,4-4s-1.79-4-4-4s-4,1.79-4,4S153.79,234,156,234z M152,230h-16"/>
<path fill="#4CABC2" stroke="#231F20" stroke-width="4" stroke-linecap="round" stroke-linejoin="round" stroke-miterlimit="10" d="
	M88.53,216h66c2.21,0,4-1.79,4-4v-52c0-2.21-1.79-4-4-4H86c0,0-6,0-10,12l-16,40c0,0-2,8,10,8H88.53z"/>
<path opacity="0.2" fill="#FFFFFF" enable-background="new    " d="M108,156l-45,45l9-25l20-20H108z M116,156l-54,56l-3-1l53-55H116
	z M160,182l-30,34h-4l32-36L160,182z M160,172l-38,44H80l52-60h26L160,172z"/>
<path fill="none" stroke="#231F20" stroke-width="4" stroke-linecap="round" stroke-linejoin="round" stroke-miterlimit="10" d="
	M88.53,216h66c2.21,0,4-1.79,4-4v-52c0-2.21-1.79-4-4-4H86c0,0-6,0-10,12l-16,40c0,0-2,8,10,8H88.53z"/>
<path fill="#ECECEC" d="M12,310h12v6H12V310z"/>
<path fill="#F79520" d="M12,304h12v6H12V304z"/>
<path fill="none" stroke="#231F20" stroke-width="4" stroke-linecap="round" stroke-linejoin="round" stroke-miterlimit="10" d="
	M14,316h10v-12H12L14,316z"/>
<path fill="#454646" stroke="#231F20" stroke-width="4" stroke-linecap="round" stroke-linejoin="round" stroke-miterlimit="10" d="
	M70.613,214.387c0.378,1.424-0.616,2.922-2.217,3.348c-1.6,0.424-3.206-0.387-3.583-1.811l-2.732-10.311
	c-0.377-1.424,0.616-2.922,2.218-3.346c1.6-0.426,3.205,0.385,3.582,1.81l2.733,10.31H70.613z"/>
<path fill="none" stroke="#231F20" stroke-width="4" stroke-linecap="round" stroke-linejoin="round" stroke-miterlimit="10" d="
	M62,212l-8,12v6"/>
<path fill="#0084AF" stroke="#231F20" stroke-width="4" stroke-linecap="round" stroke-linejoin="round" stroke-miterlimit="10" d="
	M594,158.363c0-2.41-1.79-4.363-4-4.363h-70c-2.21,0-4,1.954-4,4.363v95.274c0,2.409,1.79,4.362,4,4.362h70c2.21,0,4-1.955,4-4.364
	V158.363L594,158.363z"/>
<path fill="#9A6F4A" d="M546,238l2,12h16l2-12H546z"/>
<path fill="none" stroke="#ECECEC" stroke-width="8" stroke-linecap="round" stroke-linejoin="round" stroke-miterlimit="10" d="
	M530,164h10 M570,164h14"/>
<path fill="none" stroke="#ECECEC" stroke-width="2" stroke-linecap="round" stroke-linejoin="round" stroke-miterlimit="10" d="
	M574,182h4 M528,188h4 M528,192h8 M524,200h12 M524,204h12 M524,214h4 M532,214h6 M524,222h6 M534,222h6 M534,226h6 M528,248h12
	 M576,196h8 M574,206h4 M582,206h4 M574,212h12 M574,230h12 M574,234h2 M580,234h6 M582,182h6"/>
<circle fill="#D52524" cx="555" cy="167" r="7"/>
<path fill="#ECECEC" d="M546,228h20v6h-20V228z"/>
<path fill="#F1F2B0" d="M542,214h28v4h-28V214z"/>
<path fill="#E68896" d="M542,206h28v6h-28V206z"/>
<path fill="#A9D07D" d="M546,222h10v2h-10V222z"/>
<path fill="#D97F51" d="M556,222h10v2h-10V222z"/>
<path fill="#35874F" d="M540,200h10.667v2H540V200z"/>
<path fill="#F3D6A7" d="M540,194h2.667v2H540V194z M545.333,194H548v2h-2.667V194z M551.333,194H554v2h-2.667V194z M557.333,194H560
	v2h-2.667V194z M563.333,194H566v2h-2.667V194z M569.333,194H572v2h-2.667V194z"/>
<path fill="#82A94F" d="M550.667,200h10.667v2h-10.667V200z"/>
<path fill="#35874F" d="M561.334,200H572v2h-10.666V200z"/>
<path fill="none" stroke="#D52524" stroke-width="2" stroke-linecap="round" stroke-linejoin="round" stroke-miterlimit="10" d="
	M540,190h2v-4l4,4v-4l4,4v-4l4,4v-4l4,4v-4l4,4v-4l4,4v-4l4,4"/>
<path fill="#ECECEC" d="M550,244c0,0,2,2,4,0c0,0,2-2,4,0c0,0,2,2,4,0c0,0,1.445-1.436,3.107-0.643L566,238h-20l0.898,5.395
	C547.668,243.029,548.833,242.833,550,244z"/>
<path fill="#454545" stroke="#231F20" stroke-width="4" stroke-linecap="round" stroke-linejoin="round" stroke-miterlimit="10" d="
	M278,224c0-2.41-1.79-4-4-4h-88c-2.21,0-4,1.59-4,4v160c0,2.41,1.79,4,4,4h88c2.21,0,4-1.59,4-4V224z"/>
<path fill="none" stroke="#ECECEC" stroke-width="8" stroke-linecap="round" stroke-linejoin="round" stroke-miterlimit="10" d="
	M220,266h20 M192,290h32 M198,302h8 M192,354h4"/>
<path fill="none" stroke="#ECECEC" stroke-width="12" stroke-linecap="round" stroke-linejoin="round" stroke-miterlimit="10" d="
	M194,376h40"/>
<path fill="none" stroke="#ECECEC" stroke-width="8" stroke-linecap="round" stroke-linejoin="round" stroke-miterlimit="10" d="
	M222,354h16 M250,354h16 M208,354h2 M218,302h14 M244,302h6 M236,290h12 M260,290h8 M216,278h28"/>
<path fill="none" stroke="#ECECEC" stroke-width="4" stroke-linecap="round" stroke-linejoin="round" stroke-miterlimit="10" d="
	M190,312h18 M190,320h12 M190,328h6 M190,336h8 M206,336h14 M212,344h12 M232,344h8 M228,336h10 M246,336h10 M204,328h14 M226,328h4
	 M238,328h8 M254,328h14 M250,368h4 M258,380h4 M250,374h16 M210,320h8 M226,320h8 M242,320h16 M216,312h4 M228,312h16 M252,312h14"
	/>
<circle fill="#D52524" cx="230" cy="242" r="16"/>
<path fill="#454545" stroke="#ECECEC" stroke-width="2" stroke-linecap="round" stroke-linejoin="round" stroke-miterlimit="10" d="
	M228,253v-11 M232,253v-11 M222,242h16 M226,238h8 M228,234h4"/>
<circle fill="none" stroke="#ECECEC" stroke-width="2" stroke-linecap="round" stroke-linejoin="round" stroke-miterlimit="10" cx="230" cy="242" r="12"/>
<path fill="#F79520" stroke="#231F20" stroke-width="4" stroke-linecap="round" stroke-linejoin="round" stroke-miterlimit="10" d="
	M605.406,296H612v-12h-7.344L605.406,296z"/>
<path fill="#454545" stroke="#231F20" stroke-width="4" stroke-linecap="round" stroke-linejoin="round" stroke-miterlimit="10" d="
	M564,298c0-2.41-1.79-4-4-4h-60c-2.21,0-4,1.59-4,4v85.637c0,2.41,1.79,4.363,4,4.363h60c2.21,0,4-1.954,4-4.363V298z"/>
<path fill="none" stroke="#ECECEC" stroke-width="8" stroke-linecap="round" stroke-linejoin="round" stroke-miterlimit="10" d="
	M534,351.637h6 M508,363.637h16 M536,363.637h16 M508,351.637h14"/>
<path fill="none" stroke="#ECECEC" stroke-width="4" stroke-linecap="round" stroke-linejoin="round" stroke-miterlimit="10" d="
	M506,377.637h14 M528.25,377.637h5.5 M542,377.637h6"/>
<circle fill="#D52524" cx="530" cy="321.637" r="16"/>
<path fill="#454545" stroke="#ECECEC" stroke-width="2" stroke-linecap="round" stroke-linejoin="round" stroke-miterlimit="10" d="
	M528,332.637v-11 M532,332.637v-11 M522,321.637h16 M526,317.637h8 M528,313.637h4"/>
<circle fill="none" stroke="#ECECEC" stroke-width="2" stroke-linecap="round" stroke-linejoin="round" stroke-miterlimit="10" cx="530" cy="321.637" r="12"/>
<path fill="#0084AF" stroke="#231F20" stroke-width="4" stroke-linecap="round" stroke-linejoin="round" stroke-miterlimit="10" d="
	M506,194c0-2.41-1.79-4-4-4h-70c-2.21,0-4,1.59-4,4v36c0,2.41,1.79,4,4,4h70c2.21,0,4-1.59,4-4V194z"/>
<circle fill="#ECECEC" cx="449" cy="212" r="16"/>
<g>
	<path fill="none" stroke="#0084AF" stroke-width="2" stroke-linecap="round" stroke-linejoin="round" stroke-miterlimit="10" d="
		M447,223v-11 M451,223v-11 M441,212h16 M445,208h8 M447,204h4"/>
	
		<circle fill="none" stroke="#0084AF" stroke-width="2" stroke-linecap="round" stroke-linejoin="round" stroke-miterlimit="10" cx="449" cy="212" r="12"/>
</g>
<path fill="none" stroke="#ECECEC" stroke-width="8" stroke-linecap="round" stroke-linejoin="round" stroke-miterlimit="10" d="
	M472,204h16 M472,216h24"/>
<path fill="#ECECEC" stroke="#231F20" stroke-width="4" stroke-linecap="round" stroke-linejoin="round" stroke-miterlimit="10" d="
	M308,196h-12l-4-16h20L308,196z"/>
<path fill="#D81E08" stroke="#231F20" stroke-width="4" stroke-linecap="round" stroke-linejoin="round" stroke-miterlimit="10" d="
	M332,170v20c0,2.21-1.79,4-4,4s-4-1.79-4-4v-20l4-4L332,170z"/>
<path fill="#CE3746" stroke="#00B133" stroke-width="4" stroke-linecap="round" stroke-linejoin="round" stroke-miterlimit="10" d="
	M328,162v-4"/>
<path fill="#6C7071" stroke="#231F20" stroke-width="4" stroke-linecap="round" stroke-linejoin="round" stroke-miterlimit="10" d="
	M260,194l-4-20h24l-4,20H260z M216,194l-4-28h32l-4,28H216z"/>
</svg>
