<svg xmlns="http://www.w3.org/2000/svg" width="614" height="400" viewBox="0 0 614 400"><path stroke="#B9529F" stroke-width="4" stroke-linecap="round" stroke-linejoin="round" stroke-miterlimit="10" d="M278 160.07" fill="none"/><g class="wheel"><path fill="#5E6363" stroke="#231F20" stroke-width="4" stroke-miterlimit="10" d="M174 354c0 24.3-19.7 44-44 44s-44-19.7-44-44 19.7-41 44-41 44 16.7 44 41z"/><circle fill="#A01D1D" stroke="#231F20" stroke-width="4" stroke-linecap="round" stroke-linejoin="round" stroke-miterlimit="10" cx="130" cy="354" r="24"/><path fill="#111" d="M120.1 332.787c1.563 1.562 1.563 4.095 0 5.656l-5.656 5.656c-1.562 1.56-4.095 1.56-5.656 0l11.312-11.313zm19.8 42.426c-1.562-1.562-1.562-4.094 0-5.656l5.657-5.656c1.562-1.56 4.095-1.56 5.656 0L139.9 375.214zm-31.114-11.315c1.562-1.562 4.095-1.562 5.657 0l5.656 5.656c1.56 1.562 1.56 4.096 0 5.657L108.785 363.9zm42.427-19.798c-1.562 1.562-4.096 1.562-5.657 0l-5.657-5.656c-1.564-1.562-1.564-4.094 0-5.656l11.313 11.312z"/><circle fill="#6D1414" cx="130" cy="354" r="8"/><circle stroke="#231F20" stroke-width="4" stroke-miterlimit="10" cx="130" cy="354" r="24" fill="none"/><path fill="#231F20" d="M132.002 342c-.004 1.104-.898 2.002-2 2-1.104-.002-1.998-.896-2-2-.004-1.105.896-2.004 2-2 1.104 0 1.998.896 2 2zm-13.396 16.266c.96-.55 2.185-.224 2.733.73.55.958.22 2.18-.735 2.734-.954.555-2.183.225-2.73-.733-.553-.956-.223-2.18.73-2.73zm20.786 3.466c-.956-.557-1.286-1.78-.733-2.732.552-.953 1.773-1.28 2.73-.73.96.55 1.287 1.777.73 2.73-.55.957-1.774 1.283-2.728.732z"/></g><path fill="#ECECEC" stroke="#231F20" stroke-width="4" stroke-miterlimit="10" d="M280 74c2.21 0 4 1.79 4 4v10h-11.998V78c-.002-2.21 1.79-4 3.998-4h4z"/><path fill="#eee" stroke="#231F20" stroke-width="4" stroke-linecap="round" stroke-linejoin="round" stroke-miterlimit="10" d="M16 266h-4s-4 0-4 4v12s0 4 4 4"/><circle fill="#6D1414" cx="502" cy="354" r="8"/><g class="wheel"><path fill="#5E6363" stroke="#231F20" stroke-width="4" stroke-miterlimit="10" d="M546 354c0 24.3-19.7 44-44 44s-44-19.7-44-44 19.7-41 44-41 44 16.7 44 41z"/><circle fill="#A01D1D" stroke="#231F20" stroke-width="4" stroke-linecap="round" stroke-linejoin="round" stroke-miterlimit="10" cx="502" cy="354" r="24"/><path fill="#111" d="M492.1 332.787c1.563 1.562 1.563 4.095 0 5.656l-5.655 5.656c-1.562 1.56-4.096 1.56-5.656 0l11.31-11.313zm19.8 42.426c-1.562-1.562-1.562-4.094 0-5.656l5.656-5.656c1.562-1.56 4.095-1.56 5.656 0L511.9 375.214zm-31.114-11.315c1.562-1.562 4.095-1.562 5.657 0l5.655 5.656c1.56 1.562 1.56 4.096 0 5.657L480.786 363.9zm42.427-19.798c-1.562 1.562-4.096 1.562-5.657 0l-5.656-5.656c-1.563-1.562-1.563-4.094 0-5.656l11.313 11.312z"/><circle stroke="#231F20" stroke-width="4" stroke-miterlimit="10" cx="502" cy="354" r="24" fill="none"/></g><path fill="#231F20" d="M504.002 342c-.004 1.104-.898 2.002-2 2-1.104-.002-1.998-.896-2-2-.004-1.105.896-2.004 2-2 1.104 0 1.998.896 2 2zm-13.396 16.266c.96-.55 2.185-.224 2.732.73.55.958.222 2.18-.733 2.734s-2.184.225-2.73-.733c-.553-.956-.223-2.18.73-2.73zm20.786 3.466c-.956-.557-1.285-1.78-.732-2.732s1.773-1.28 2.73-.73c.96.55 1.287 1.777.73 2.73-.55.957-1.774 1.283-2.728.732z"/><path fill="#D52524" stroke="#231F20" stroke-width="4" stroke-linecap="round" stroke-linejoin="round" stroke-miterlimit="10" d="M12 292v14l4 22 70 10s6-22 24-22h40c18 0 24 22 24 22s4 14 4 22h276s6-36 36-36h24c30 0 36 36 36 36h48l8-52-4-72-12-84s-10-66-74-66H164s-66 2-88 54h-8v12L24 254s-8 0-8 12"/><path fill="#ECECEC" stroke="#231F20" stroke-width="4" stroke-linecap="round" stroke-linejoin="round" stroke-miterlimit="10" d="M606 298H466c-22 0-20 20-20 20v24H188v-32c0-20-22-20-22-20H30c-8 0-6-8-6-8v-28s-8 0-8 12c0 0-4 18-4 26v14l4 22 70 10s6-22 24-22h40c18 0 24 22 24 22s4 14 4 22h276s6-36 36-36h24c30 0 36 36 36 36h48l8-52-4-72"/><path fill="#ECECEC" stroke="#231F20" stroke-width="4" stroke-linecap="round" stroke-linejoin="round" stroke-miterlimit="10" d="M516 86H164s-66 2-88 54h-8v8h126V98h320v48h74l.656-.09C584.352 129.57 568 86 516 86zm46 256v24h36s10 0 10-6v-18h-46z"/><path fill="#ECECEC" stroke="#231F20" stroke-width="4" stroke-miterlimit="10" d="M288 72c0 2.21-1.79 4-4 4h-12c-2.21 0-4-1.79-4-4v-4c0-2.21 1.79-4 4-4h12c2.21 0 4 1.79 4 4v4zm-20-2h22"/><path stroke="#231F20" stroke-width="4" stroke-linecap="round" stroke-linejoin="round" stroke-miterlimit="10" d="M166 148v142H46v-66l32-76h88z" fill="none"/><path fill="#ECECEC" stroke="#231F20" stroke-width="4" stroke-linecap="round" stroke-linejoin="round" stroke-miterlimit="10" d="M2 322s0 20.5 8 22l58 6s12 2 16-2l2-10-84-16z"/><g stroke="#231F20" stroke-width="4" stroke-linecap="round" stroke-linejoin="round" stroke-miterlimit="10"><path fill="#C1BFB5" d="M506 125.575L518 106H188l12 19.575h306z"/><path fill="#FFF6E3" d="M188 98h330v8H188v-8z"/><path fill="#444646" d="M200 126h306v116H200V126z"/><path fill="#966943" d="M200 234h306v8H200v-8zm0-36h306v8H200v-8z"/></g><path fill="#454646" stroke="#231F20" stroke-width="4" stroke-linecap="round" stroke-linejoin="round" stroke-miterlimit="10" d="M156 234c2.21 0 4-1.79 4-4s-1.79-4-4-4-4 1.79-4 4 1.79 4 4 4zm-4-4h-16"/><path fill="#4CABC2" stroke="#231F20" stroke-width="4" stroke-linecap="round" stroke-linejoin="round" stroke-miterlimit="10" d="M88.53 216h66c2.21 0 4-1.79 4-4v-52c0-2.21-1.79-4-4-4H86s-6 0-10 12l-16 40s-2 8 10 8h18.53z"/><path opacity=".2" fill="#fff" enable-background="new" d="M108 156l-45 45 9-25 20-20h16zm8 0l-54 56-3-1 53-55h4zm44 26l-30 34h-4l32-36 2 2zm0-10l-38 44H80l52-60h26l2 16z"/><path stroke="#231F20" stroke-width="4" stroke-linecap="round" stroke-linejoin="round" stroke-miterlimit="10" d="M88.53 216h66c2.21 0 4-1.79 4-4v-52c0-2.21-1.79-4-4-4H86s-6 0-10 12l-16 40s-2 8 10 8h18.53z" fill="none"/><path fill="#ECECEC" d="M12 310h12v6H12v-6z"/><path fill="#F79520" d="M12 304h12v6H12v-6z"/><path stroke="#231F20" stroke-width="4" stroke-linecap="round" stroke-linejoin="round" stroke-miterlimit="10" d="M14 316h10v-12H12l2 12z" fill="none"/><path fill="#454646" stroke="#231F20" stroke-width="4" stroke-linecap="round" stroke-linejoin="round" stroke-miterlimit="10" d="M70.613 214.387c.378 1.424-.616 2.922-2.217 3.348-1.6.424-3.206-.387-3.583-1.81l-2.732-10.312c-.376-1.424.617-2.922 2.22-3.346 1.6-.426 3.204.385 3.58 1.81l2.734 10.31z"/><path stroke="#231F20" stroke-width="4" stroke-linecap="round" stroke-linejoin="round" stroke-miterlimit="10" d="M62 212l-8 12v6" fill="none"/><path fill="#0084AF" stroke="#231F20" stroke-width="4" stroke-linecap="round" stroke-linejoin="round" stroke-miterlimit="10" d="M594 158.363c0-2.41-1.79-4.363-4-4.363h-70c-2.21 0-4 1.954-4 4.363v95.274c0 2.41 1.79 4.362 4 4.362h70c2.21 0 4-1.956 4-4.365v-95.272z"/><path fill="#9A6F4A" d="M546 238l2 12h16l2-12h-20z"/><path stroke="#ECECEC" stroke-width="8" stroke-linecap="round" stroke-linejoin="round" stroke-miterlimit="10" d="M530 164h10m30 0h14" fill="none"/><path stroke="#ECECEC" stroke-width="2" stroke-linecap="round" stroke-linejoin="round" stroke-miterlimit="10" d="M574 182h4m-50 6h4m-4 4h8m-12 8h12m-12 4h12m-12 10h4m4 0h6m-14 8h6m4 0h6m-6 4h6m-12 22h12m36-52h8m-10 10h4m4 0h4m-12 6h12m-12 18h12m-12 4h2m4 0h6m-4-52h6" fill="none"/><circle fill="#D52524" cx="555" cy="167" r="7"/><path fill="#ECECEC" d="M546 228h20v6h-20v-6z"/><path fill="#F1F2B0" d="M542 214h28v4h-28v-4z"/><path fill="#E68896" d="M542 206h28v6h-28v-6z"/><path fill="#A9D07D" d="M546 222h10v2h-10v-2z"/><path fill="#D97F51" d="M556 222h10v2h-10v-2z"/><path fill="#35874F" d="M540 200h10.667v2H540v-2z"/><path fill="#F3D6A7" d="M540 194h2.667v2H540v-2zm5.333 0H548v2h-2.667v-2zm6 0H554v2h-2.667v-2zm6 0H560v2h-2.667v-2zm6 0H566v2h-2.667v-2zm6 0H572v2h-2.667v-2z"/><path fill="#82A94F" d="M550.667 200h10.667v2h-10.667v-2z"/><path fill="#35874F" d="M561.334 200H572v2h-10.666v-2z"/><path stroke="#D52524" stroke-width="2" stroke-linecap="round" stroke-linejoin="round" stroke-miterlimit="10" d="M540 190h2v-4l4 4v-4l4 4v-4l4 4v-4l4 4v-4l4 4v-4l4 4v-4l4 4" fill="none"/><path fill="#ECECEC" d="M550 244s2 2 4 0c0 0 2-2 4 0 0 0 2 2 4 0 0 0 1.445-1.436 3.107-.643L566 238h-20l.898 5.395c.77-.366 1.935-.562 3.102.605z"/><path fill="#454545" stroke="#231F20" stroke-width="4" stroke-linecap="round" stroke-linejoin="round" stroke-miterlimit="10" d="M278 224c0-2.41-1.79-4-4-4h-88c-2.21 0-4 1.59-4 4v160c0 2.41 1.79 4 4 4h88c2.21 0 4-1.59 4-4V224z"/><path stroke="#ECECEC" stroke-width="8" stroke-linecap="round" stroke-linejoin="round" stroke-miterlimit="10" d="M220 266h20m-48 24h32m-26 12h8m-14 52h4" fill="none"/><path stroke="#ECECEC" stroke-width="12" stroke-linecap="round" stroke-linejoin="round" stroke-miterlimit="10" d="M194 376h40" fill="none"/><path stroke="#ECECEC" stroke-width="8" stroke-linecap="round" stroke-linejoin="round" stroke-miterlimit="10" d="M222 354h16m12 0h16m-58 0h2m8-52h14m12 0h6m-14-12h12m12 0h8m-52-12h28" fill="none"/><path stroke="#ECECEC" stroke-width="4" stroke-linecap="round" stroke-linejoin="round" stroke-miterlimit="10" d="M190 312h18m-18 8h12m-12 8h6m-6 8h8m8 0h14m-8 8h12m8 0h8m-12-8h10m8 0h10m-52-8h14m8 0h4m8 0h8m8 0h14m-18 40h4m4 12h4m-12-6h16m-56-54h8m8 0h8m8 0h16m-42-8h4m8 0h16m8 0h14" fill="none"/><circle fill="#D52524" cx="230" cy="242" r="16"/><path fill="#454545" stroke="#ECECEC" stroke-width="2" stroke-linecap="round" stroke-linejoin="round" stroke-miterlimit="10" d="M228 253v-11m4 11v-11m-10 0h16m-12-4h8m-6-4h4"/><circle stroke="#ECECEC" stroke-width="2" stroke-linecap="round" stroke-linejoin="round" stroke-miterlimit="10" cx="230" cy="242" r="12" fill="none"/><path fill="#F79520" stroke="#231F20" stroke-width="4" stroke-linecap="round" stroke-linejoin="round" stroke-miterlimit="10" d="M605.406 296H612v-12h-7.344l.75 12z"/><path fill="#454545" stroke="#231F20" stroke-width="4" stroke-linecap="round" stroke-linejoin="round" stroke-miterlimit="10" d="M564 298c0-2.41-1.79-4-4-4h-60c-2.21 0-4 1.59-4 4v85.637c0 2.41 1.79 4.363 4 4.363h60c2.21 0 4-1.954 4-4.363V298z"/><path stroke="#ECECEC" stroke-width="8" stroke-linecap="round" stroke-linejoin="round" stroke-miterlimit="10" d="M534 351.637h6m-32 12h16m12 0h16m-44-12h14" fill="none"/><path stroke="#ECECEC" stroke-width="4" stroke-linecap="round" stroke-linejoin="round" stroke-miterlimit="10" d="M506 377.637h14m8.25 0h5.5m8.25 0h6" fill="none"/><circle fill="#D52524" cx="530" cy="321.637" r="16"/><path fill="#454545" stroke="#ECECEC" stroke-width="2" stroke-linecap="round" stroke-linejoin="round" stroke-miterlimit="10" d="M528 332.637v-11m4 11v-11m-10 0h16m-12-4h8m-6-4h4"/><circle stroke="#ECECEC" stroke-width="2" stroke-linecap="round" stroke-linejoin="round" stroke-miterlimit="10" cx="530" cy="321.637" r="12" fill="none"/><path fill="#0084AF" stroke="#231F20" stroke-width="4" stroke-linecap="round" stroke-linejoin="round" stroke-miterlimit="10" d="M506 194c0-2.41-1.79-4-4-4h-70c-2.21 0-4 1.59-4 4v36c0 2.41 1.79 4 4 4h70c2.21 0 4-1.59 4-4v-36z"/><circle fill="#ECECEC" cx="449" cy="212" r="16"/><g stroke="#0084AF" stroke-width="2" stroke-linecap="round" stroke-linejoin="round" stroke-miterlimit="10" fill="none"><path d="M447 223v-11m4 11v-11m-10 0h16m-12-4h8m-6-4h4"/><circle cx="449" cy="212" r="12"/></g><path stroke="#ECECEC" stroke-width="8" stroke-linecap="round" stroke-linejoin="round" stroke-miterlimit="10" d="M472 204h16m-16 12h24" fill="none"/><path fill="#ECECEC" stroke="#231F20" stroke-width="4" stroke-linecap="round" stroke-linejoin="round" stroke-miterlimit="10" d="M308 196h-12l-4-16h20l-4 16z"/><path fill="#D81E08" stroke="#231F20" stroke-width="4" stroke-linecap="round" stroke-linejoin="round" stroke-miterlimit="10" d="M332 170v20c0 2.21-1.79 4-4 4s-4-1.79-4-4v-20l4-4 4 4z"/><path fill="#CE3746" stroke="#00B133" stroke-width="4" stroke-linecap="round" stroke-linejoin="round" stroke-miterlimit="10" d="M328 162v-4"/><path fill="#6C7071" stroke="#231F20" stroke-width="4" stroke-linecap="round" stroke-linejoin="round" stroke-miterlimit="10" d="M260 194l-4-20h24l-4 20h-16zm-44 0l-4-28h32l-4 28h-24z"/></svg>