<svg xmlns="http://www.w3.org/2000/svg" width="596" height="400" viewBox="-1.5 0 596 400" enable-background="new -1.5 0 596 400"><g class="wheel"><circle fill="#5E6363" stroke="#231F20" stroke-width="4" stroke-miterlimit="10" cx="422.5" cy="354.5" r="44"/><circle fill="#A01D1D" stroke="#231F20" stroke-width="4" stroke-linecap="round" stroke-linejoin="round" stroke-miterlimit="10" cx="422.5" cy="354.5" r="24"/><circle fill="#ECECEC" cx="422.5" cy="354.5" r="8"/><path fill="#6B1515" d="M409.12 348.598c1.05.344 1.626 1.473 1.282 2.52-.34 1.05-1.47 1.626-2.52 1.283-1.05-.335-1.625-1.468-1.284-2.516.343-1.05 1.47-1.625 2.52-1.284v-.002zm3.76 16.726c.655-.895 1.905-1.094 2.798-.443.892.65 1.09 1.9.44 2.795-.646.896-1.9 1.093-2.792.443-.892-.647-1.09-1.9-.445-2.794zm16 2.352c-.645-.896-.45-2.148.444-2.795.893-.645 2.145-.446 2.795.445.648.89.448 2.146-.444 2.793-.893.65-2.145.446-2.795-.44v-.002zm8.237-15.272c-1.053.338-2.182-.236-2.52-1.285-.34-1.052.234-2.18 1.285-2.52 1.05-.347 2.182.23 2.518 1.282.344 1.05-.234 2.178-1.283 2.52v.002zm-12.615-11.906c-.004 1.105-.897 2.004-2 2.002-1.104-.002-1.998-.896-2-2.002-.004-1.104.896-2.002 2-1.998 1.104-.002 1.998.896 2 1.998z"/><path fill="#231F20" d="M424.502 354.498c-.004 1.105-.897 2.004-2 2.002-1.104-.002-2-.896-2-2.002-.004-1.104.896-2.002 2-1.998 1.102-.002 1.996.896 2 1.998z"/></g><path fill="#D52524" d="M240.502 100.5c-1.523 0-2.895-.846-3.577-2.207l-14.54-27.73-5.885 8.56V96.5c0 2.206-1.794 4-4 4s-4-1.794-4-4V45.878c0-2.206 1.794-4 4-4s4 1.794 4 4V65l14.704-21.387c.747-1.085 1.98-1.733 3.3-1.733.81 0 1.592.243 2.26.7 1.82 1.252 2.282 3.747 1.034 5.564l-10.265 14.93 16.526 31.602c1.004 2 .205 4.408-1.765 5.4-.555.277-1.175.424-1.793.424z"/><path fill="#231F20" d="M212.5 43.878c1.104 0 2 .896 2 2v25.56l18.352-26.693c.39-.564 1.016-.866 1.65-.866.392 0 .786.112 1.13.35.91.625 1.143 1.87.518 2.78L225.203 62.93 242.288 95.6c.496.99.097 2.19-.89 2.687-.288.145-.596.213-.896.213-.733 0-1.438-.404-1.79-1.104l-16.097-30.7L214.5 78.5v18c0 1.104-.896 2-2 2s-2-.896-2-2V45.878c0-1.104.896-2 2-2m0-4c-3.31 0-6 2.69-6 6V96.5c0 3.31 2.69 6 6 6s6-2.69 6-6V79.742l3.653-5.314 13.004 24.8c1.03 2.02 3.074 3.272 5.344 3.272.93 0 1.86-.22 2.69-.638 2.96-1.487 4.154-5.1 2.67-8.055l-.03-.06-15.966-30.533 9.582-13.937c1.873-2.728 1.18-6.47-1.545-8.343-1.007-.69-2.18-1.055-3.396-1.055-1.978 0-3.827.97-4.947 2.6L218.5 58.56V45.88c0-3.308-2.69-6-6-6v-.002z"/><path fill="#D52524" d="M252.5 100.5c-2.206 0-4-1.794-4-4v-50c0-2.206 1.794-4 4-4s4 1.794 4 4v50c0 2.206-1.794 4-4 4z"/><path fill="#231F20" d="M252.5 44.5c1.104 0 2 .896 2 2v50c0 1.104-.896 2-2 2s-2-.896-2-2v-50c0-1.105.896-2 2-2m0-4c-3.31 0-6 2.69-6 6v50c0 3.31 2.69 6 6 6s6-2.69 6-6v-50c0-3.31-2.69-6-6-6z"/><path fill="#D52524" d="M288.5 100.5c-2.206 0-4-1.794-4-4V56.156l-3.172 3.172c-.756.756-1.76 1.172-2.828 1.172s-2.072-.416-2.828-1.172l-3.172-3.172V96.5c0 2.206-1.794 4-4 4s-4-1.794-4-4v-50c0-1.624.97-3.074 2.47-3.695.487-.203 1.002-.305 1.53-.305 1.07 0 2.075.417 2.83 1.173l7.17 7.17 7.172-7.17c.754-.757 1.76-1.173 2.826-1.173.528 0 1.044.103 1.532.305 1.5.622 2.47 2.072 2.47 3.695v50c0 2.206-1.794 4-4 4z"/><path fill="#231F20" d="M288.498 44.5c.26 0 .52.05.768.152.747.31 1.234 1.04 1.234 1.848v50c0 1.105-.896 2-2 2s-2-.895-2-2V51.328l-6.586 6.586c-.39.39-.902.586-1.414.586s-1.023-.195-1.414-.586l-6.586-6.586V96.5c0 1.105-.896 2-2 2s-2-.895-2-2v-50c0-.81.487-1.538 1.234-1.848.248-.103.508-.153.766-.153.52 0 1.03.2 1.414.584l8.586 8.586 8.586-8.585c.383-.383.893-.586 1.412-.585m0-4c-1.604 0-3.11.623-4.243 1.76l-5.755 5.753-5.758-5.758c-1.13-1.133-2.64-1.758-4.24-1.758-.794 0-1.568.154-2.3.458-2.248.93-3.702 3.107-3.702 5.542v50c0 3.31 2.69 6 6 6s6-2.69 6-6V60.972c1.102.988 2.51 1.528 4 1.528s2.898-.54 4-1.528V96.5c0 3.31 2.69 6 6 6s6-2.69 6-6v-50c0-2.435-1.453-4.61-3.703-5.543-.733-.304-1.507-.458-2.3-.458z"/><path fill="#D52524" d="M314.5 98.5c-8.647 0-14-6.23-14-12v-32c0-5.77 5.353-12 14-12 8.05 0 13.116 7.463 13.328 7.78 1.223 1.836.726 4.325-1.11 5.548-.66.44-1.426.67-2.216.67-1.338 0-2.58-.662-3.325-1.773-.014-.02-2.955-4.226-6.677-4.226-3.915 0-6 2.32-6 4v32c0 1.675 2.085 4 6 4 3.717 0 6.658-4.203 6.688-4.246.738-1.095 1.98-1.755 3.313-1.755.8 0 1.57.235 2.23.68 1.822 1.22 2.317 3.705 1.1 5.535-.213.32-5.28 7.784-13.33 7.785z"/><path fill="#231F20" d="M314.5 44.5c6.99 0 11.477 6.61 11.664 6.89.612.92.364 2.162-.555 2.775-.344.227-.73.335-1.11.335-.644 0-1.277-.312-1.662-.887-.062-.088-3.527-5.113-8.34-5.113-4.94 0-8 3.114-8 6v32c0 2.885 3.06 6 8 6 4.83 0 8.305-5.064 8.34-5.115.386-.573 1.02-.883 1.66-.883.384 0 .77.11 1.112.34.916.613 1.163 1.85.552 2.768-.188.28-4.674 6.89-11.664 6.89-7.412 0-12-5.19-12-10v-32c0-4.81 4.588-10 12-10m0-4c-4.413 0-8.49 1.508-11.48 4.247-2.87 2.63-4.52 6.185-4.52 9.754v32c0 3.57 1.646 7.125 4.52 9.755 2.99 2.74 7.067 4.247 11.48 4.247 8.952 0 14.4-7.783 14.992-8.67 1.83-2.75 1.087-6.476-1.654-8.31-.98-.664-2.14-1.018-3.337-1.018-2 0-3.86.99-4.98 2.647-.592.844-2.84 3.35-5.02 3.35-2.798 0-4-1.517-4-2v-32c0-.406 1.043-2 4-2 2.176 0 4.416 2.49 5.04 3.38 1.12 1.642 2.97 2.62 4.96 2.62 1.188 0 2.336-.347 3.324-1.004 2.755-1.837 3.502-5.57 1.668-8.322-.592-.89-6.04-8.673-14.994-8.674z"/><path fill="#D52524" d="M360.5 100.5c-2.206 0-4-1.794-4-4V77.402c-4.947 1.67-11.52 5.146-13.998 6.56L342.5 96.5c0 2.205-1.794 4-4 4s-4-1.794-4-4v-50c0-2.206 1.794-4 4-4s4 1.794 4 4v28.368c3.84-1.99 9.438-4.64 14-5.79V46.5c0-2.206 1.794-4 4-4s4 1.794 4 4v50c0 2.206-1.794 4-4 4z"/><path fill="#231F20" d="M360.5 44.5c1.104 0 2 .896 2 2v50c0 1.104-.896 2-2 2s-2-.896-2-2V74.756c-5.12 1.117-13.722 5.604-17.008 7.48-.313.178-.654.264-.99.264h-.002v14c0 1.104-.896 2-2 2s-2-.896-2-2v-50c0-1.104.896-2 2-2s2 .896 2 2v31.708c3.134-1.734 12.12-6.496 18-7.514V46.5c0-1.105.896-2 2-2m0-4c-3.31 0-6 2.69-6 6v21.062c-3.304 1-6.917 2.575-10 4.067V46.5c0-3.31-2.69-6-6-6s-6 2.69-6 6v50c0 3.31 2.69 6 6 6s6-2.69 6-6V85.136c2.704-1.49 6.573-3.436 10-4.84V96.5c0 3.31 2.69 6 6 6s6-2.69 6-6v-50c0-3.31-2.69-6-6-6z"/><path fill="#D52524" d="M376.5 100.5c-2.206 0-4-1.794-4-4v-50c0-2.206 1.794-4 4-4s4 1.794 4 4v50c0 2.206-1.794 4-4 4z"/><path fill="#231F20" d="M376.5 44.5c1.104 0 2 .896 2 2v50c0 1.104-.896 2-2 2s-2-.896-2-2v-50c0-1.105.896-2 2-2m0-4c-3.31 0-6 2.69-6 6v50c0 3.31 2.69 6 6 6s6-2.69 6-6v-50c0-3.31-2.69-6-6-6z"/><path fill="#D52524" d="M414.5 100.5c-2.206 0-4-1.794-4-4v-30c0-3.76-6.64-9.158-14-13.405V96.5c0 2.206-1.794 4-4 4s-4-1.794-4-4v-50c0-1.366.686-2.623 1.834-3.363.648-.417 1.397-.637 2.166-.637.574 0 1.13.12 1.654.358 1.833.833 9.992 4.693 16.346 10.16V46.5c0-2.206 1.794-4 4-4s4 1.794 4 4v50c0 2.206-1.794 4-4 4z"/><path fill="#231F20" d="M414.5 44.5c1.104 0 2 .896 2 2v50c0 1.104-.896 2-2 2s-2-.896-2-2v-30c0-6.105-11.363-13.314-18-16.787V96.5c0 1.104-.896 2-2 2s-2-.896-2-2v-50c0-.68.346-1.313.917-1.682.328-.21.705-.318 1.083-.318.28 0 .562.06.827.18 1.71.776 13.007 6.076 19.173 13.085V46.5c0-1.105.896-2 2-2m0-4c-3.31 0-6 2.69-6 6v2.396c-5.816-4.247-11.94-7.14-13.52-7.857-.784-.36-1.62-.54-2.48-.54-1.152 0-2.274.33-3.244.952-1.728 1.113-2.756 3-2.756 5.047v50c0 3.31 2.69 6 6 6s6-2.69 6-6V56.646c6.356 4.083 10 7.947 10 9.853v30c0 3.31 2.69 6 6 6s6-2.69 6-6v-50c0-3.31-2.69-6-6-6z"/><path fill="#D52524" d="M458.498 100.5c-1.456 0-2.798-.793-3.502-2.07-.065-.117-7.11-12.29-20.696-13.677l-3.978 12.923c-.52 1.688-2.055 2.824-3.82 2.824-.4 0-.798-.06-1.182-.18-1.02-.312-1.855-1.005-2.355-1.95-.5-.944-.602-2.026-.287-3.047l16-52c.52-1.688 2.056-2.824 3.822-2.824s3.305 1.133 3.823 2.823l16 52c.605 1.967-.366 4.056-2.265 4.857-.493.213-1.02.32-1.56.32zM436.69 76.984c4.65.69 9.096 2.376 13.15 4.976L442.5 58.1l-5.81 18.884z"/><path fill="#231F20" d="M442.5 42.5c.878 0 1.653.572 1.91 1.412l16 52c.303.98-.187 2.03-1.13 2.428-.254.108-.52.16-.782.16-.71 0-1.39-.38-1.75-1.035-.078-.143-8.07-14.186-23.893-14.818l-4.444 14.44c-.262.86-1.054 1.413-1.91 1.413-.193 0-.392-.03-.587-.09-1.056-.324-1.648-1.443-1.323-2.498l16-52c.257-.84 1.032-1.412 1.91-1.412m11.105 44.893L442.5 51.3l-8.433 27.407c8.737.623 15.213 4.7 19.54 8.686M442.5 38.5c-2.652 0-4.957 1.703-5.735 4.238l-16 51.998c-.47 1.53-.316 3.153.434 4.57s2.007 2.457 3.54 2.928c.564.175 1.162.266 1.763.266 2.652 0 4.956-1.704 5.734-4.24l3.476-11.292c11.385 2.016 17.423 12.236 17.552 12.46 1.066 1.9 3.066 3.072 5.235 3.072.81 0 1.6-.16 2.348-.48 2.84-1.198 4.298-4.332 3.388-7.287l-16-51.998c-.78-2.532-3.084-4.235-5.736-4.235zm-3.237 36.922l3.237-10.52 3.98 12.94c-2.322-1.07-4.737-1.88-7.217-2.42z"/><path fill="#D52524" d="M492.5 100.5c-1.643 0-3.143-1.03-3.733-2.565L479.753 74.5H474.5v22c0 2.206-1.794 4-4 4s-4-1.794-4-4v-52c0-2.206 1.794-4 4-4h16c.618 0 1.236.146 1.79.422.418.21 10.21 5.238 10.21 15.58 0 7.515-3.805 18-10 18h-.176l7.908 20.562c.385.996.356 2.083-.077 3.06-.435.977-1.224 1.726-2.22 2.11-.455.175-.94.266-1.435.266zm-4.902-34c.87-1.05 2.902-4.69 2.902-10 0-4.183-3.466-6.94-5.093-8H474.5v18h13.098z"/><path fill="#231F20" d="M486.5 42.5c.31 0 .617.072.895.21.372.188 9.105 4.66 9.105 13.79 0 7.202-3.69 16-8 16h-3.088l8.954 23.282c.396 1.03-.117 2.188-1.148 2.584-.235.092-.48.135-.718.135-.803 0-1.56-.486-1.866-1.28l-9.507-24.72H472.5v24c0 1.104-.896 2-2 2s-2-.896-2-2v-52c0-1.104.896-2 2-2h16m-14 26h15.83c1.066-.598 4.17-5.115 4.17-12 0-5.718-5.076-9.142-6.52-10H472.5v22m14-30h-16c-3.31 0-6 2.69-6 6v52c0 3.31 2.69 6 6 6s6-2.69 6-6v-20h1.88l8.52 22.153c.887 2.3 3.137 3.847 5.6 3.847.745 0 1.475-.137 2.168-.406 1.483-.57 2.666-1.693 3.316-3.157.65-1.465.692-3.097.115-4.594l-7.04-18.3c6.104-2.25 9.44-12.32 9.44-19.542 0-9.23-7.11-15.257-11.313-17.363-.833-.417-1.76-.636-2.687-.637zm-10 12h8.282c1.376 1 3.718 3.125 3.718 6 0 3.897-1.188 6.668-1.98 8H476.5v-14z"/><path fill="#D52524" d="M520.5 100.502c-2.206 0-4-1.794-4-4V71.004l-13.52-25.112c-1.048-1.943-.317-4.374 1.623-5.418.578-.313 1.234-.48 1.896-.48 1.472 0 2.82.807 3.52 2.105l10.203 18.947 8.644-18.728c.652-1.413 2.08-2.325 3.636-2.325.58 0 1.142.123 1.67.366 2.005.926 2.883 3.307 1.96 5.31L524.5 70.874v25.627c0 2.206-1.794 4-4 4z"/><path fill="#231F20" d="M506.498 41.994c.712 0 1.4.382 1.763 1.053l12.105 22.474 10.32-22.362c.34-.732 1.063-1.162 1.82-1.162.28 0 .563.06.834.183 1.002.462 1.44 1.65.98 2.653L522.5 70.436v26.066c0 1.104-.896 2-2 2s-2-.896-2-2V70.5l-13.76-25.556c-.523-.973-.16-2.186.812-2.71.302-.163.626-.24.946-.24m0-4c-.99 0-1.98.25-2.852.724-2.903 1.562-3.997 5.208-2.43 8.122L514.5 71.508v24.994c0 3.31 2.69 6 6 6s6-2.69 6-6V71.314l11.448-24.804c1.385-3.006.066-6.577-2.936-7.962-.798-.367-1.64-.55-2.51-.55-2.334 0-4.474 1.366-5.45 3.483l-6.967 15.095-8.305-15.422c-1.046-1.95-3.07-3.158-5.282-3.16z"/><path fill="#2B2E31" stroke="#231F20" stroke-width="4" stroke-linecap="round" stroke-linejoin="round" stroke-miterlimit="10" d="M20.5 300.5h132v52h-132v-52z"/><g class="wheel"><circle fill="#5E6363" stroke="#231F20" stroke-width="4" stroke-miterlimit="10" cx="86.5" cy="354.5" r="44"/><circle fill="#A01D1D" stroke="#231F20" stroke-width="4" stroke-linecap="round" stroke-linejoin="round" stroke-miterlimit="10" cx="86.5" cy="354.5" r="24"/><circle fill="#ECECEC" cx="86.5" cy="354.5" r="8"/><path fill="#6B1515" d="M73.118 348.598c1.052.344 1.628 1.473 1.284 2.52-.34 1.05-1.47 1.626-2.52 1.283-1.048-.335-1.625-1.468-1.284-2.516.343-1.05 1.47-1.625 2.52-1.284v-.002zm3.762 16.726c.654-.895 1.905-1.094 2.797-.443.892.65 1.09 1.9.44 2.795-.645.896-1.9 1.093-2.792.443-.892-.647-1.09-1.9-.445-2.794zm16 2.352c-.646-.896-.45-2.148.443-2.795.894-.645 2.145-.446 2.795.445.65.89.45 2.146-.443 2.793-.893.65-2.144.446-2.794-.44v-.002zm8.237-15.272c-1.053.338-2.182-.236-2.52-1.285-.34-1.052.234-2.18 1.285-2.52 1.05-.347 2.182.23 2.518 1.282.343 1.05-.234 2.178-1.283 2.52v.002zm-12.615-11.906c-.004 1.105-.898 2.004-2 2.002-1.104-.002-1.998-.896-2-2.002-.004-1.104.896-2.002 2-1.998 1.104-.002 1.998.896 2 1.998z"/><path fill="#231F20" d="M88.502 354.498c-.004 1.105-.898 2.004-2 2.002-1.105-.002-2-.896-2-2.002-.004-1.104.895-2.002 2-1.998 1.102-.002 1.996.896 2 1.998z"/></g><path fill="#D52524" stroke="#231F20" stroke-width="4" stroke-linecap="round" stroke-linejoin="round" stroke-miterlimit="10" d="M222.5 338.5h166l14-14h38l12 14h136v-236c0-2.21-1.79-4-4-4h-550c-3.314 0-6 2.686-6 6h6v22l-26 118v106h12l38-38h58l28 38h8v28h6v6h64v-46z"/><path fill="none" stroke="#B9529F" stroke-width="4" stroke-linecap="round" stroke-linejoin="round" stroke-miterlimit="10" d="M268.5 170.57"/><path fill="#B09A85" stroke="#231F20" stroke-width="4" stroke-miterlimit="10" d="M144.502 278.527"/><path fill="#D52524" stroke="#231F20" stroke-width="4" stroke-linecap="round" stroke-linejoin="round" stroke-miterlimit="10" d="M572.5 350.5h20v8h-20v-8zm-572 0h20v8H.5v-8zm34-246h552"/><path fill="#2B2E31" stroke="#231F20" stroke-width="4" stroke-linecap="round" stroke-linejoin="round" stroke-miterlimit="10" d="M222.5 338.5h130v46h-130v-46z"/><path fill="#ECECEC" stroke="#231F20" stroke-width="4" stroke-linecap="round" stroke-linejoin="round" stroke-miterlimit="10" d="M8.5 294.5v24h44l6-6h58l4.42 6H586.5v-24H8.5z"/><path fill="#444646" stroke="#231F20" stroke-width="4" stroke-linecap="round" stroke-linejoin="round" stroke-miterlimit="10" d="M216.5 122.5h296v100h-296v-100z"/><path fill="#C1BFB5" stroke="#231F20" stroke-width="4" stroke-linecap="round" stroke-linejoin="round" stroke-miterlimit="10" d="M216.5 212.5h296v50h-296v-50zm0 0h24v50h-24v-50zm24 0h24v50h-24v-50z"/><path fill="#966943" stroke="#231F20" stroke-width="4" stroke-linecap="round" stroke-linejoin="round" stroke-miterlimit="10" d="M216.5 212.5h24.666v50H216.5v-50z"/><path fill="#5A4A42" stroke="#231F20" stroke-width="4" stroke-linecap="round" stroke-linejoin="round" stroke-miterlimit="10" d="M241.166 212.5h24.668v50h-24.668v-50z"/><path fill="#966943" stroke="#231F20" stroke-width="4" stroke-linecap="round" stroke-linejoin="round" stroke-miterlimit="10" d="M265.834 212.5H290.5v50h-24.666v-50z"/><path fill="#5A4A42" stroke="#231F20" stroke-width="4" stroke-linecap="round" stroke-linejoin="round" stroke-miterlimit="10" d="M290.5 212.5h24.666v50H290.5v-50z"/><path fill="#966943" stroke="#231F20" stroke-width="4" stroke-linecap="round" stroke-linejoin="round" stroke-miterlimit="10" d="M315.166 212.5h24.668v50h-24.668v-50z"/><path fill="#5A4A42" stroke="#231F20" stroke-width="4" stroke-linecap="round" stroke-linejoin="round" stroke-miterlimit="10" d="M339.834 212.5H364.5v50h-24.666v-50z"/><path fill="#966943" stroke="#231F20" stroke-width="4" stroke-linecap="round" stroke-linejoin="round" stroke-miterlimit="10" d="M364.5 212.5h24.666v50H364.5v-50z"/><path fill="#5A4A42" stroke="#231F20" stroke-width="4" stroke-linecap="round" stroke-linejoin="round" stroke-miterlimit="10" d="M389.166 212.5h24.668v50h-24.668v-50z"/><path fill="#966943" stroke="#231F20" stroke-width="4" stroke-linecap="round" stroke-linejoin="round" stroke-miterlimit="10" d="M413.834 212.5H438.5v50h-24.666v-50z"/><path fill="#5A4A42" stroke="#231F20" stroke-width="4" stroke-linecap="round" stroke-linejoin="round" stroke-miterlimit="10" d="M438.5 212.5h24.666v50H438.5v-50z"/><path fill="#966943" stroke="#231F20" stroke-width="4" stroke-linecap="round" stroke-linejoin="round" stroke-miterlimit="10" d="M463.166 212.5h24.668v50h-24.668v-50z"/><path fill="#5A4A42" stroke="#231F20" stroke-width="4" stroke-linecap="round" stroke-linejoin="round" stroke-miterlimit="10" d="M487.834 212.5H512.5v50h-24.666v-50z"/><path fill="#A01D1D" stroke="#231F20" stroke-width="4" stroke-linecap="round" stroke-linejoin="round" stroke-miterlimit="10" d="M216.5 122.5h296v10h-296v-10z"/><path fill="#ECECEC" d="M229.906 221.008c-2.232 1.31-2.35 4.994.435 5.76 2.94.81 5.17-3.058 3.022-5.207-.917-.917-2.412-1.128-3.538-.468-1.38.807-1.456 2.32-1.19 3.717.23 1.22-.104 1.602-.89 2.497-.77.877-1.686 1.61-2.823 1.865-3.145.705-1.81 5.525 1.33 4.822 2.364-.53 4.18-2.127 5.71-3.943.842-1.002 1.53-2.004 1.663-3.342.112-1.135-.142-2.167-.158-3.272-.114.42-.228.84-.34 1.262l.12-.188c-.5.383-.997.766-1.495 1.15.098-.02.196-.037.295-.055l-1.926-.252-.57-.52-.34-1.264c0 .097.002.194.004.292.114-.42.23-.84.34-1.262l.52-.43c.42-.113.84-.23 1.26-.342-.107.008-.217.016-.326.02l1.262.343.59.573c.115.42.23.84.343 1.262-.257.43-.515.86-.77 1.293 2.775-1.63.262-5.95-2.526-4.314v.004zm-.822 1.576c-.304.002-.607.008-.91 0-.287-.023-.248-.014.117.027-.563-.09.433.28-.053.003.522.574.653.683.392.322-.33-.48-.078-.62-.004.373-.037-.496-.065-.996-.214-1.474-.405-1.3-1.727-2.116-3.074-1.746-1.28.353-2.153 1.774-1.746 3.076.206.657.006-.488.035.144.027.59.112 1.096.385 1.62.39.747.887 1.388 1.563 1.896 1 .75 2.315.768 3.512.76 1.363-.01 2.5-1.13 2.5-2.5 0-1.355-1.138-2.508-2.5-2.5h-.003zm-.416 2.5c-.75.025-1.56.184-2.188.24-.58.052-.148.06.11.168-.234-.145-.233-.13.002.047-.11-.1-.22-.2-.326-.31-.975-.95-2.562-.972-3.534 0-.955.955-.976 2.584 0 3.535.707.69 1.533 1.303 2.532 1.465 1.19.195 2.318-.11 3.403-.147 1.362-.047 2.5-1.103 2.5-2.5 0-1.327-1.136-2.547-2.5-2.5z"/><path fill="none" stroke="#ECECEC" stroke-width="8" stroke-linecap="round" stroke-linejoin="round" stroke-miterlimit="10" d="M240.5 226.5h38m-52 16h74"/><path fill="#4CABC2" stroke="#231F20" stroke-width="4" stroke-linecap="round" stroke-linejoin="round" stroke-miterlimit="10" d="M96.5 244.5h44c2.21 0 4-1.79 4-4v-90c0-2.21-1.79-4-4-4h-90c-8 0-10 10-10 10l-18 80s2 8 10 8h64z"/><path opacity=".2" fill="#fff" enable-background="new" d="M93.5 146.5L27.502 216 33 194.5l44.5-48h16zm51 72l-26 26h-14l40-42v16zm-43-72l-76.5 82 .5-4.5 72-77.5h4zm44 26l-63 72h-4l65-74 2 2zm0-10L70 244H28l89.5-97.5h26l2 16z"/><path fill="none" stroke="#231F20" stroke-width="4" stroke-linecap="round" stroke-linejoin="round" stroke-miterlimit="10" d="M96.5 244.5h44c2.21 0 4-1.79 4-4v-90c0-2.21-1.79-4-4-4h-90c-8 0-10 10-10 10l-18 80s2 8 10 8h64z"/><path fill="#454646" stroke="#231F20" stroke-width="4" stroke-linecap="round" stroke-linejoin="round" stroke-miterlimit="10" d="M32.5 180.5c0-4.418 3.582-8 8-8l-4-4c-4.418 0-8 3.582-8 8l4 4z"/><path fill="#F79520" stroke="#231F20" stroke-width="4" stroke-linecap="round" stroke-linejoin="round" stroke-miterlimit="10" d="M576.5 339.5h12v11h-12v-11z"/><path fill="#454646" stroke="#231F20" stroke-width="4" stroke-linecap="round" stroke-linejoin="round" stroke-miterlimit="10" d="M48.5 172.5h-4c-4.418 0-8-3.582-8-8v-20c0-4.418 3.582-8 8-8h4v36z"/><path fill="#444646" stroke="#231F20" stroke-width="4" stroke-linecap="round" stroke-linejoin="round" stroke-miterlimit="10" d="M436.5 178.5l-8-16"/><circle fill="#454646" stroke="#231F20" stroke-width="4" stroke-linecap="round" stroke-linejoin="round" stroke-miterlimit="10" cx="32.5" cy="176.5" r="4"/><path fill="#6C7071" stroke="#231F20" stroke-width="4" stroke-linecap="round" stroke-linejoin="round" stroke-miterlimit="10" d="M476.5 180.5c0 15.463-12.537 28-28 28s-28-12.537-28-28h56z"/><path fill="none" stroke="#231F20" stroke-width="4" stroke-linecap="round" stroke-linejoin="round" stroke-miterlimit="10" d="M34.5 126.5h130v168"/><path fill="#2B2E31" stroke="#231F20" stroke-width="4" stroke-linecap="round" stroke-linejoin="round" stroke-miterlimit="10" d="M460.5 122.5h128v140h-128v-140z"/><path fill="none" stroke="#D52524" stroke-width="12" stroke-linecap="round" stroke-linejoin="round" stroke-miterlimit="10" d="M506.5 138.5h36"/><path fill="none" stroke="#ECECEC" stroke-width="4" stroke-linecap="round" stroke-linejoin="round" stroke-miterlimit="10" d="M472.5 170.5h8m-8 8h26m-26 8h26m-4 12h8m8 0h4m8 0h13m7.5 0h13m-61.5 8h14m8 0h22m8 0h9.5m-61.5 8h8m8 0h4m8 0h13m7.5 0h13m-61.5 8h14m8 0h22"/><path fill="none" stroke="#ECECEC" stroke-width="12" stroke-linecap="round" stroke-linejoin="round" stroke-miterlimit="10" d="M526.5 238.5h.625"/><path fill="none" stroke="#ECECEC" stroke-width="4" stroke-linecap="round" stroke-linejoin="round" stroke-miterlimit="10" d="M546.5 222.5h9.5m-45.5-44h14m8 0h4m-26 8h26m-26-16h26m12 0h26m-26 8h26m-26 8h6m8 0h12m-86-16h10"/><path fill="none" stroke="#ECECEC" stroke-width="12" stroke-linecap="round" stroke-linejoin="round" stroke-miterlimit="10" d="M506.5 154.5h36"/><path fill="none" stroke="#231F20" stroke-width="4" stroke-linecap="round" stroke-linejoin="round" stroke-miterlimit="10" d="M568.5 104.5v18m-88-18v18"/><path fill="#6C7071" stroke="#231F20" stroke-width="4" stroke-linecap="round" stroke-linejoin="round" stroke-miterlimit="10" d="M326.5 208.5l-4-12h24l-4 12h-16z"/><path fill="#966943" stroke="#231F20" stroke-width="4" stroke-linecap="round" stroke-linejoin="round" stroke-miterlimit="10" d="M218.5 200.5h40.666v8H218.5v-8zm34-8h20.666v8H252.5v-8zm13.334-8H286.5v8h-20.666v-8zm-47.334 8h22.666v8H218.5v-8zm0-8h22.666v8H218.5v-8zm16-8.666h8V208.5h-8v-32.666z"/><path fill="#6A1501" stroke="#231F20" stroke-width="4" stroke-linecap="round" stroke-linejoin="round" stroke-miterlimit="10" d="M252.5 190.5v-14c0-2.21 1.79-4 4-4s4 1.79 4 4v14h-8z"/><path fill="#939A9F" stroke="#231F20" stroke-width="4" stroke-linecap="round" stroke-linejoin="round" stroke-miterlimit="10" d="M256.5 172.5v-6"/><path fill="#966943" stroke="#231F20" stroke-width="4" stroke-linecap="round" stroke-linejoin="round" stroke-miterlimit="10" d="M310.5 200.5c0 4.418-3.582 8-8 8s-8-3.582-8-8h16z"/><path fill="none" stroke="#01A64F" stroke-width="4" stroke-linecap="round" stroke-linejoin="round" stroke-miterlimit="10" d="M296.5 196.5h12"/><path fill="none" stroke="#F79520" stroke-width="4" stroke-linecap="round" stroke-linejoin="round" stroke-miterlimit="10" d="M326.5 192.5h16"/></svg>