<?xml version="1.0" encoding="utf-8"?>
<!-- Generator: Adobe Illustrator 16.0.1, SVG Export Plug-In . SVG Version: 6.00 Build 0)  -->
<!DOCTYPE svg PUBLIC "-//W3C//DTD SVG 1.1//EN" "http://www.w3.org/Graphics/SVG/1.1/DTD/svg11.dtd">
<svg version="1.1" id="Layer_1" xmlns="http://www.w3.org/2000/svg" xmlns:xlink="http://www.w3.org/1999/xlink" x="0px" y="0px"
	 width="596px" height="400px" viewBox="74.5 0.5 596 400" enable-background="new 74.5 0.5 596 400" xml:space="preserve">
<g>
	<g>
		<path fill="#D52524" d="M316.502,100.5c-1.524,0-2.895-0.846-3.577-2.207l-14.541-27.731l-5.884,8.56V96.5c0,2.206-1.794,4-4,4
			s-4-1.794-4-4V45.878c0-2.206,1.794-4,4-4s4,1.794,4,4V65l14.704-21.387c0.747-1.085,1.979-1.733,3.299-1.733
			c0.811,0,1.593,0.243,2.262,0.701c1.818,1.251,2.281,3.746,1.033,5.563l-10.265,14.931l16.527,31.601
			c1.004,2,0.206,4.408-1.764,5.399C317.74,100.353,317.12,100.5,316.502,100.5z"/>
		<path fill="#231F20" d="M288.5,43.878c1.104,0,2,0.896,2,2v25.561l18.352-26.694c0.388-0.564,1.015-0.866,1.651-0.866
			c0.391,0,0.785,0.114,1.13,0.351c0.91,0.626,1.141,1.871,0.516,2.781l-10.946,15.922l17.085,32.668
			c0.496,0.988,0.097,2.189-0.89,2.686c-0.288,0.145-0.595,0.213-0.896,0.213c-0.733,0-1.438-0.404-1.789-1.104l-16.098-30.701
			L290.5,78.5v18c0,1.104-0.896,2-2,2s-2-0.896-2-2V45.878C286.5,44.774,287.396,43.878,288.5,43.878 M288.5,39.878
			c-3.309,0-6,2.691-6,6V96.5c0,3.309,2.691,6,6,6s6-2.691,6-6V79.742l3.653-5.314l13.004,24.801
			c1.031,2.019,3.074,3.271,5.344,3.271c0.928,0,1.857-0.221,2.689-0.638c2.958-1.487,4.154-5.101,2.671-8.055
			c-0.01-0.02-0.02-0.04-0.03-0.059l-15.968-30.534l9.582-13.937c1.873-2.728,1.179-6.469-1.545-8.343
			c-1.007-0.691-2.181-1.055-3.397-1.055c-1.978,0-3.827,0.972-4.947,2.6L294.5,58.561V45.878
			C294.5,42.57,291.809,39.878,288.5,39.878L288.5,39.878z"/>
	</g>
	<g>
		<path fill="#D52524" d="M328.5,100.5c-2.206,0-4-1.794-4-4v-50c0-2.206,1.794-4,4-4s4,1.794,4,4v50
			C332.5,98.706,330.706,100.5,328.5,100.5z"/>
		<path fill="#231F20" d="M328.5,44.5c1.104,0,2,0.896,2,2v50c0,1.104-0.896,2-2,2s-2-0.896-2-2v-50
			C326.5,45.395,327.396,44.5,328.5,44.5 M328.5,40.5c-3.309,0-6,2.691-6,6v50c0,3.309,2.691,6,6,6s6-2.691,6-6v-50
			C334.5,43.191,331.809,40.5,328.5,40.5L328.5,40.5z"/>
	</g>
	<g>
		<path fill="#D52524" d="M364.5,100.5c-2.206,0-4-1.794-4-4V56.156l-3.172,3.172c-0.756,0.756-1.76,1.172-2.828,1.172
			s-2.072-0.416-2.828-1.172l-3.172-3.172V96.5c0,2.206-1.794,4-4,4s-4-1.794-4-4v-50c0-1.624,0.969-3.074,2.469-3.695
			c0.488-0.203,1.003-0.305,1.532-0.305c1.069,0,2.074,0.417,2.829,1.173l7.17,7.17l7.172-7.171
			c0.754-0.756,1.759-1.172,2.826-1.172c0.528,0,1.044,0.103,1.532,0.305c1.501,0.622,2.47,2.072,2.47,3.695v50
			C368.5,98.706,366.706,100.5,364.5,100.5z"/>
		<path fill="#231F20" d="M364.498,44.499c0.259,0,0.519,0.05,0.768,0.153c0.747,0.31,1.234,1.039,1.234,1.848v50
			c0,1.105-0.896,2-2,2s-2-0.895-2-2V51.328l-6.586,6.586c-0.391,0.391-0.902,0.586-1.414,0.586s-1.023-0.195-1.414-0.586
			l-6.586-6.586V96.5c0,1.105-0.896,2-2,2s-2-0.895-2-2v-50c0-0.809,0.487-1.538,1.234-1.848c0.248-0.103,0.508-0.153,0.766-0.153
			c0.52,0,1.031,0.203,1.414,0.586l8.586,8.586l8.586-8.586C363.469,44.702,363.979,44.499,364.498,44.499 M364.498,40.499
			c-1.603,0-3.109,0.625-4.243,1.76l-5.755,5.755l-5.758-5.758c-1.13-1.133-2.638-1.758-4.241-1.758c-0.793,0-1.567,0.154-2.3,0.458
			c-2.247,0.931-3.701,3.107-3.701,5.542v50c0,3.309,2.691,6,6,6s6-2.691,6-6V60.972c1.102,0.988,2.51,1.528,4,1.528
			s2.898-0.54,4-1.528V96.5c0,3.309,2.691,6,6,6s6-2.691,6-6v-50c0-2.435-1.453-4.611-3.703-5.543
			C366.064,40.653,365.29,40.499,364.498,40.499L364.498,40.499z"/>
	</g>
	<g>
		<path fill="#D52524" d="M390.5,98.5c-8.647,0-14-6.229-14-12v-32c0-5.771,5.353-12,14-12c8.049,0,13.116,7.463,13.328,7.781
			c1.223,1.835,0.726,4.324-1.109,5.547c-0.661,0.439-1.427,0.671-2.217,0.671c-1.338,0-2.581-0.663-3.325-1.774
			c-0.014-0.021-2.955-4.226-6.677-4.226c-3.915,0-6,2.323-6,4v32c0,1.677,2.085,4,6,4c3.717,0,6.658-4.201,6.688-4.244
			c0.738-1.095,1.979-1.755,3.313-1.755c0.797,0,1.567,0.236,2.229,0.682c1.822,1.22,2.317,3.704,1.099,5.534
			C403.616,91.037,398.548,98.5,390.5,98.5z"/>
		<path fill="#231F20" d="M390.5,44.5c6.99,0,11.477,6.609,11.664,6.891c0.612,0.919,0.364,2.161-0.555,2.774
			c-0.341,0.227-0.727,0.335-1.107,0.335c-0.645,0-1.278-0.312-1.663-0.887c-0.061-0.088-3.526-5.113-8.339-5.113
			c-4.941,0-8,3.114-8,6v2v28v2c0,2.885,3.059,6,8,6c4.83,0,8.305-5.064,8.339-5.115c0.387-0.573,1.019-0.883,1.662-0.883
			c0.383,0,0.77,0.11,1.111,0.34c0.916,0.613,1.163,1.85,0.552,2.768c-0.188,0.281-4.674,6.891-11.664,6.891
			c-7.412,0-12-5.191-12-10v-2v-28v-2C378.5,49.69,383.088,44.5,390.5,44.5 M390.5,40.5c-4.413,0-8.491,1.508-11.481,4.247
			c-2.871,2.63-4.519,6.185-4.519,9.754v2v28v2c0,3.568,1.647,7.123,4.519,9.753c2.991,2.739,7.068,4.247,11.481,4.247
			c8.952,0,14.4-7.784,14.992-8.672c1.83-2.748,1.087-6.475-1.654-8.31c-0.982-0.663-2.14-1.017-3.337-1.017
			c-2,0-3.861,0.989-4.979,2.647c-0.592,0.844-2.839,3.351-5.022,3.351c-2.797,0-4-1.518-4-2v-2v-28v-2c0-0.407,1.044-2,4-2
			c2.177,0,4.417,2.491,5.042,3.378c1.118,1.643,2.969,2.622,4.96,2.622c1.186,0,2.335-0.348,3.323-1.005
			c2.755-1.837,3.502-5.569,1.668-8.322C404.901,48.284,399.452,40.5,390.5,40.5L390.5,40.5z"/>
	</g>
	<g>
		<path fill="#D52524" d="M436.5,100.5c-2.206,0-4-1.794-4-4V77.402c-4.947,1.67-11.521,5.146-13.998,6.561L418.5,96.5
			c0,2.205-1.794,4-4,4s-4-1.794-4-4v-50c0-2.206,1.794-4,4-4s4,1.794,4,4v28.368c3.839-1.99,9.437-4.641,14-5.789V46.5
			c0-2.206,1.794-4,4-4s4,1.794,4,4v50C440.5,98.706,438.706,100.5,436.5,100.5z"/>
		<path fill="#231F20" d="M436.5,44.5c1.104,0,2,0.896,2,2v50c0,1.104-0.896,2-2,2s-2-0.896-2-2V74.756
			c-5.119,1.117-13.722,5.604-17.008,7.48c-0.313,0.178-0.654,0.264-0.99,0.264c-0.001,0-0.001,0-0.002,0v14c0,1.104-0.896,2-2,2
			s-2-0.896-2-2v-50c0-1.104,0.896-2,2-2s2,0.896,2,2v31.708c3.134-1.734,12.12-6.496,18-7.514V46.5
			C434.5,45.395,435.396,44.5,436.5,44.5 M436.5,40.5c-3.309,0-6,2.691-6,6v21.062c-3.304,1-6.917,2.575-10,4.067V46.5
			c0-3.309-2.691-6-6-6s-6,2.691-6,6v50c0,3.309,2.691,6,6,6s6-2.691,6-6V85.136c2.704-1.489,6.573-3.436,10-4.84V96.5
			c0,3.309,2.691,6,6,6s6-2.691,6-6v-50C442.5,43.191,439.809,40.5,436.5,40.5L436.5,40.5z"/>
	</g>
	<g>
		<path fill="#D52524" d="M452.5,100.5c-2.206,0-4-1.794-4-4v-50c0-2.206,1.794-4,4-4s4,1.794,4,4v50
			C456.5,98.706,454.706,100.5,452.5,100.5z"/>
		<path fill="#231F20" d="M452.5,44.5c1.104,0,2,0.896,2,2v50c0,1.104-0.896,2-2,2s-2-0.896-2-2v-50
			C450.5,45.395,451.396,44.5,452.5,44.5 M452.5,40.5c-3.309,0-6,2.691-6,6v50c0,3.309,2.691,6,6,6s6-2.691,6-6v-50
			C458.5,43.191,455.809,40.5,452.5,40.5L452.5,40.5z"/>
	</g>
	<g>
		<path fill="#D52524" d="M490.5,100.5c-2.206,0-4-1.794-4-4v-30c0-3.759-6.641-9.158-14-13.405V96.5c0,2.206-1.794,4-4,4
			s-4-1.794-4-4v-50c0-1.366,0.686-2.623,1.834-3.363c0.648-0.417,1.397-0.637,2.166-0.637c0.574,0,1.131,0.121,1.654,0.358
			c1.833,0.833,9.992,4.693,16.346,10.159V46.5c0-2.206,1.794-4,4-4s4,1.794,4,4v50C494.5,98.706,492.706,100.5,490.5,100.5z"/>
		<path fill="#231F20" d="M490.5,44.5c1.104,0,2,0.896,2,2v50c0,1.104-0.896,2-2,2s-2-0.896-2-2v-30
			c0-6.105-11.363-13.314-18-16.787V96.5c0,1.104-0.896,2-2,2s-2-0.896-2-2v-50c0-0.68,0.346-1.313,0.917-1.682
			c0.328-0.211,0.705-0.318,1.083-0.318c0.281,0,0.563,0.06,0.827,0.179c1.711,0.777,13.007,6.077,19.173,13.086V46.5
			C488.5,45.395,489.396,44.5,490.5,44.5 M490.5,40.5c-3.309,0-6,2.691-6,6v2.396c-5.816-4.247-11.941-7.141-13.519-7.857
			c-0.785-0.357-1.62-0.538-2.481-0.538c-1.152,0-2.274,0.329-3.244,0.952c-1.728,1.113-2.756,2.999-2.756,5.047v50
			c0,3.309,2.691,6,6,6s6-2.691,6-6V56.647c6.356,4.083,10,7.947,10,9.853v30c0,3.309,2.691,6,6,6s6-2.691,6-6v-50
			C496.5,43.191,493.809,40.5,490.5,40.5L490.5,40.5z"/>
	</g>
	<g>
		<path fill="#D52524" d="M534.498,100.5c-1.456,0-2.798-0.793-3.502-2.07c-0.065-0.117-7.109-12.291-20.696-13.677l-3.978,12.923
			c-0.518,1.688-2.054,2.824-3.821,2.824c-0.399,0-0.797-0.061-1.181-0.18c-1.018-0.312-1.855-1.005-2.355-1.95
			c-0.5-0.944-0.602-2.026-0.287-3.047l16-52c0.518-1.688,2.055-2.824,3.822-2.824s3.305,1.135,3.823,2.825l15.999,51.999
			c0.607,1.968-0.365,4.057-2.263,4.858C535.566,100.393,535.038,100.5,534.498,100.5C534.498,100.5,534.498,100.5,534.498,100.5z
			 M512.691,76.984c4.649,0.69,9.095,2.376,13.151,4.976L518.5,58.101L512.691,76.984z"/>
		<path fill="#231F20" d="M518.5,42.5c0.878,0,1.653,0.572,1.911,1.412l16,52c0.302,0.979-0.187,2.029-1.13,2.428
			c-0.255,0.108-0.521,0.16-0.783,0.16c-0.709,0-1.389-0.379-1.75-1.035c-0.078-0.143-8.069-14.186-23.893-14.818l-4.444,14.441
			c-0.264,0.859-1.056,1.412-1.91,1.412c-0.195,0-0.394-0.029-0.589-0.09c-1.056-0.324-1.648-1.443-1.323-2.498l16-52
			C516.847,43.072,517.622,42.5,518.5,42.5 M529.606,87.393L518.5,51.3l-8.433,27.407C518.805,79.33,525.28,83.406,529.606,87.393
			 M518.5,38.5c-2.652,0-4.957,1.703-5.735,4.238l-15.999,51.998c-0.472,1.529-0.318,3.153,0.432,4.57s2.008,2.457,3.54,2.928
			c0.566,0.175,1.163,0.266,1.764,0.266c2.652,0,4.956-1.704,5.734-4.239l3.476-11.293c11.385,2.016,17.423,12.236,17.552,12.46
			c1.066,1.899,3.066,3.072,5.235,3.072c0.811,0,1.601-0.161,2.349-0.479c2.838-1.199,4.298-4.333,3.387-7.288l-15.999-51.998
			C523.457,40.203,521.153,38.5,518.5,38.5L518.5,38.5z M515.263,75.422l3.237-10.52l3.981,12.94
			C520.158,76.772,517.743,75.961,515.263,75.422L515.263,75.422z"/>
	</g>
	<g>
		<path fill="#D52524" d="M568.5,100.5c-1.643,0-3.143-1.031-3.733-2.565L555.753,74.5H550.5v22c0,2.206-1.794,4-4,4s-4-1.794-4-4
			v-52c0-2.206,1.794-4,4-4h16c0.618,0,1.236,0.146,1.789,0.422c0.419,0.21,10.211,5.238,10.211,15.579c0,7.516-3.805,18-10,18
			h-0.176l7.908,20.563c0.385,0.996,0.357,2.083-0.077,3.061c-0.434,0.976-1.223,1.725-2.22,2.108
			C569.48,100.409,568.995,100.5,568.5,100.5z M563.598,66.5c0.869-1.051,2.902-4.689,2.902-10c0-4.183-3.466-6.939-5.093-8H550.5
			v18H563.598z"/>
		<path fill="#231F20" d="M562.5,42.5c0.311,0,0.617,0.072,0.895,0.211c0.372,0.187,9.105,4.658,9.105,13.79c0,7.201-3.691,16-8,16
			h-3.088l8.954,23.281c0.397,1.031-0.117,2.188-1.148,2.584c-0.236,0.092-0.479,0.135-0.718,0.135
			c-0.803,0-1.561-0.488-1.866-1.283L557.127,72.5H548.5v24c0,1.104-0.896,2-2,2s-2-0.896-2-2v-52c0-1.104,0.896-2,2-2H562.5
			 M548.5,68.5h15.83c1.066-0.598,4.17-5.115,4.17-12c0-5.718-5.076-9.142-6.521-10H548.5V68.5 M562.5,38.5h-16
			c-3.309,0-6,2.691-6,6v52c0,3.309,2.691,6,6,6s6-2.691,6-6v-20h1.88l8.521,22.153c0.885,2.301,3.135,3.847,5.6,3.847
			c0.743,0,1.473-0.137,2.166-0.406c1.483-0.57,2.666-1.693,3.316-3.157c0.652-1.465,0.693-3.097,0.116-4.594l-7.038-18.3
			c6.104-2.25,9.439-12.321,9.439-19.542c0-9.231-7.111-15.259-11.312-17.365C564.355,38.719,563.427,38.5,562.5,38.5L562.5,38.5z
			 M552.5,50.5h8.282c1.376,1,3.718,3.125,3.718,6c0,3.897-1.187,6.668-1.981,8H552.5V50.5L552.5,50.5z"/>
	</g>
	<g>
		<path fill="#D52524" d="M596.5,100.502c-2.206,0-4-1.794-4-4V71.004l-13.521-25.112c-1.046-1.943-0.316-4.374,1.625-5.418
			c0.578-0.313,1.234-0.479,1.895-0.479c1.474,0,2.823,0.806,3.523,2.104l10.203,18.949l8.643-18.728
			c0.653-1.412,2.079-2.324,3.636-2.324c0.579,0,1.142,0.123,1.67,0.366c2.005,0.925,2.883,3.306,1.96,5.308L600.5,70.875v25.627
			C600.5,98.708,598.706,100.502,596.5,100.502z"/>
		<path fill="#231F20" d="M582.498,41.994c0.712,0,1.401,0.382,1.763,1.053l12.102,22.474l10.321-22.364
			c0.339-0.732,1.063-1.162,1.819-1.162c0.28,0,0.564,0.059,0.835,0.183c1.003,0.463,1.44,1.651,0.979,2.654L598.5,70.436v26.066
			c0,1.104-0.896,2-2,2s-2-0.896-2-2V70.5L580.74,44.944c-0.523-0.973-0.16-2.186,0.812-2.709
			C581.854,42.071,582.178,41.994,582.498,41.994 M582.498,37.994L582.498,37.994c-0.991,0-1.978,0.25-2.852,0.724
			c-2.903,1.562-3.997,5.208-2.43,8.122L590.5,71.508v24.994c0,3.309,2.691,6,6,6s6-2.691,6-6V71.314l11.448-24.804
			c1.385-3.006,0.067-6.577-2.935-7.962c-0.798-0.367-1.641-0.551-2.511-0.551c-2.333,0-4.473,1.367-5.45,3.484l-6.966,15.093
			l-8.305-15.422C586.733,39.203,584.708,37.994,582.498,37.994L582.498,37.994z"/>
	</g>
</g>
<g>
	<path fill="#5E6363" stroke="#231F20" stroke-width="4" stroke-miterlimit="10" d="M542.5,354.5c0,24.301-19.699,44-44,44
		s-44-19.699-44-44s19.699-41,44-41S542.5,330.199,542.5,354.5z"/>
	
		<circle fill="#A01D1D" stroke="#231F20" stroke-width="4" stroke-linecap="round" stroke-linejoin="round" stroke-miterlimit="10" cx="498.5" cy="354.5" r="24"/>
	<circle fill="#ECECEC" cx="498.5" cy="354.5" r="8"/>
	<circle fill="none" stroke="#231F20" stroke-width="4" stroke-miterlimit="10" cx="498.5" cy="354.5" r="24"/>
	<g>
		<path fill="#6B1515" d="M485.118,348.598c1.052,0.344,1.628,1.473,1.284,2.52c-0.341,1.051-1.469,1.625-2.521,1.283
			c-1.047-0.338-1.624-1.471-1.283-2.518C482.941,348.832,484.069,348.258,485.118,348.598z"/>
		<path fill="#6B1515" d="M488.881,365.324c0.653-0.895,1.904-1.094,2.796-0.443c0.892,0.648,1.089,1.9,0.441,2.793
			c-0.646,0.895-1.902,1.092-2.793,0.443C488.433,367.469,488.235,366.217,488.881,365.324z"/>
		<path fill="#6B1515" d="M504.881,367.676c-0.647-0.896-0.45-2.148,0.442-2.795c0.894-0.648,2.145-0.449,2.795,0.443
			c0.65,0.891,0.45,2.146-0.443,2.793C506.782,368.766,505.531,368.564,504.881,367.676z"/>
		<path fill="#6B1515" d="M513.117,352.404c-1.053,0.338-2.182-0.236-2.52-1.285c-0.34-1.049,0.234-2.178,1.285-2.52
			c1.049-0.344,2.182,0.234,2.518,1.285C514.743,350.932,514.166,352.061,513.117,352.404z"/>
		<path fill="#6B1515" d="M500.502,340.498c-0.004,1.105-0.898,2.004-2,2.002c-1.104-0.002-1.998-0.896-2-2.002
			c-0.004-1.104,0.896-2.002,2-1.998C499.606,338.498,500.5,339.396,500.502,340.498z"/>
		<path fill="#252526" d="M500.502,354.498c-0.004,1.105-0.898,2.004-2,2.002c-1.105-0.002-2-0.896-2-2.002
			c-0.004-1.104,0.895-2.002,2-1.998C499.604,352.498,500.498,353.396,500.502,354.498z"/>
	</g>
</g>
<rect x="96.5" y="300.5" fill="#2B2E31" stroke="#231F20" stroke-width="4" stroke-linecap="round" stroke-linejoin="round" stroke-miterlimit="10" width="132" height="52"/>
<path fill="#D52524" stroke="#231F20" stroke-width="4" stroke-linecap="round" stroke-linejoin="round" stroke-miterlimit="10" d="
	M298.5,338.5h166l14-14h38l12,14h136v-236c0-2.209-1.791-4-4-4h-550c-3.314,0-6,2.686-6,6h6v22l-26,118v106h12l38-38h58l28,38h8v28
	h6v6h64V338.5z"/>
<path fill="none" stroke="#B9529F" stroke-width="4" stroke-linecap="round" stroke-linejoin="round" stroke-miterlimit="10" d="
	M344.5,170.57"/>
<g>
	<path fill="#5E6363" stroke="#231F20" stroke-width="4" stroke-miterlimit="10" d="M206.5,354.5c0,24.301-19.699,44-44,44
		s-44-19.699-44-44s19.699-41,44-41S206.5,330.199,206.5,354.5z"/>
	
		<circle fill="#A01D1D" stroke="#231F20" stroke-width="4" stroke-linecap="round" stroke-linejoin="round" stroke-miterlimit="10" cx="162.5" cy="354.5" r="24"/>
	<circle fill="#ECECEC" cx="162.5" cy="354.5" r="8"/>
	<circle fill="none" stroke="#231F20" stroke-width="4" stroke-miterlimit="10" cx="162.5" cy="354.5" r="24"/>
	<g>
		<path fill="#6B1515" d="M149.118,348.598c1.052,0.344,1.628,1.473,1.284,2.52c-0.341,1.051-1.469,1.625-2.521,1.283
			c-1.047-0.338-1.624-1.471-1.283-2.518C146.941,348.832,148.069,348.258,149.118,348.598z"/>
		<path fill="#6B1515" d="M152.881,365.324c0.653-0.895,1.904-1.094,2.796-0.443c0.892,0.648,1.089,1.9,0.441,2.793
			c-0.646,0.895-1.902,1.092-2.793,0.443C152.433,367.469,152.235,366.217,152.881,365.324z"/>
		<path fill="#6B1515" d="M168.881,367.676c-0.647-0.896-0.45-2.148,0.442-2.795c0.894-0.648,2.145-0.449,2.795,0.443
			c0.65,0.891,0.45,2.146-0.443,2.793C170.782,368.766,169.531,368.564,168.881,367.676z"/>
		<path fill="#6B1515" d="M177.117,352.404c-1.053,0.338-2.182-0.236-2.52-1.285c-0.34-1.049,0.234-2.178,1.285-2.52
			c1.049-0.344,2.182,0.234,2.518,1.285C178.743,350.932,178.166,352.061,177.117,352.404z"/>
		<path fill="#6B1515" d="M164.502,340.498c-0.004,1.105-0.898,2.004-2,2.002c-1.104-0.002-1.998-0.896-2-2.002
			c-0.004-1.104,0.896-2.002,2-1.998C163.606,338.498,164.5,339.396,164.502,340.498z"/>
		<path fill="#252526" d="M164.502,354.498c-0.004,1.105-0.898,2.004-2,2.002c-1.105-0.002-2-0.896-2-2.002
			c-0.004-1.104,0.895-2.002,2-1.998C163.604,352.498,164.498,353.396,164.502,354.498z"/>
	</g>
</g>
<path fill="#B09A85" stroke="#231F20" stroke-width="4" stroke-miterlimit="10" d="M664.5,278.527"/>
<path fill="#B09A85" stroke="#231F20" stroke-width="4" stroke-miterlimit="10" d="M220.502,278.527"/>
<rect x="648.5" y="350.5" fill="#D52524" stroke="#231F20" stroke-width="4" stroke-linecap="round" stroke-linejoin="round" stroke-miterlimit="10" width="20" height="8"/>
<rect x="76.5" y="350.5" fill="#D52524" stroke="#231F20" stroke-width="4" stroke-linecap="round" stroke-linejoin="round" stroke-miterlimit="10" width="20" height="8"/>
<line fill="#D52524" stroke="#231F20" stroke-width="4" stroke-linecap="round" stroke-linejoin="round" stroke-miterlimit="10" x1="110.5" y1="104.5" x2="662.5" y2="104.5"/>
<rect x="298.5" y="338.5" fill="#2B2E31" stroke="#231F20" stroke-width="4" stroke-linecap="round" stroke-linejoin="round" stroke-miterlimit="10" width="130" height="46"/>
<polygon fill="#ECECEC" stroke="#231F20" stroke-width="4" stroke-linecap="round" stroke-linejoin="round" stroke-miterlimit="10" points="
	84.5,294.5 84.5,318.5 128.5,318.5 134.5,312.5 192.5,312.5 196.921,318.5 662.5,318.5 662.5,294.5 "/>
<rect x="292.5" y="122.5" fill="#444646" stroke="#231F20" stroke-width="4" stroke-linecap="round" stroke-linejoin="round" stroke-miterlimit="10" width="296" height="100"/>
<rect x="292.5" y="212.5" fill="#C1BFB5" stroke="#231F20" stroke-width="4" stroke-linecap="round" stroke-linejoin="round" stroke-miterlimit="10" width="296" height="50"/>
<rect x="292.5" y="212.5" fill="#C1BFB5" stroke="#231F20" stroke-width="4" stroke-linecap="round" stroke-linejoin="round" stroke-miterlimit="10" width="24" height="50"/>
<rect x="316.5" y="212.5" fill="#C1BFB5" stroke="#231F20" stroke-width="4" stroke-linecap="round" stroke-linejoin="round" stroke-miterlimit="10" width="24" height="50"/>
<rect x="292.5" y="212.5" fill="#966943" stroke="#231F20" stroke-width="4" stroke-linecap="round" stroke-linejoin="round" stroke-miterlimit="10" width="24.666" height="50"/>
<rect x="317.166" y="212.5" fill="#5A4A42" stroke="#231F20" stroke-width="4" stroke-linecap="round" stroke-linejoin="round" stroke-miterlimit="10" width="24.668" height="50"/>
<rect x="341.834" y="212.5" fill="#966943" stroke="#231F20" stroke-width="4" stroke-linecap="round" stroke-linejoin="round" stroke-miterlimit="10" width="24.666" height="50"/>
<rect x="366.5" y="212.5" fill="#5A4A42" stroke="#231F20" stroke-width="4" stroke-linecap="round" stroke-linejoin="round" stroke-miterlimit="10" width="24.666" height="50"/>
<rect x="391.166" y="212.5" fill="#966943" stroke="#231F20" stroke-width="4" stroke-linecap="round" stroke-linejoin="round" stroke-miterlimit="10" width="24.668" height="50"/>
<rect x="415.834" y="212.5" fill="#5A4A42" stroke="#231F20" stroke-width="4" stroke-linecap="round" stroke-linejoin="round" stroke-miterlimit="10" width="24.666" height="50"/>
<rect x="440.5" y="212.5" fill="#966943" stroke="#231F20" stroke-width="4" stroke-linecap="round" stroke-linejoin="round" stroke-miterlimit="10" width="24.666" height="50"/>
<rect x="465.166" y="212.5" fill="#5A4A42" stroke="#231F20" stroke-width="4" stroke-linecap="round" stroke-linejoin="round" stroke-miterlimit="10" width="24.668" height="50"/>
<rect x="489.834" y="212.5" fill="#966943" stroke="#231F20" stroke-width="4" stroke-linecap="round" stroke-linejoin="round" stroke-miterlimit="10" width="24.666" height="50"/>
<rect x="514.5" y="212.5" fill="#5A4A42" stroke="#231F20" stroke-width="4" stroke-linecap="round" stroke-linejoin="round" stroke-miterlimit="10" width="24.666" height="50"/>
<rect x="539.166" y="212.5" fill="#966943" stroke="#231F20" stroke-width="4" stroke-linecap="round" stroke-linejoin="round" stroke-miterlimit="10" width="24.668" height="50"/>
<rect x="563.834" y="212.5" fill="#5A4A42" stroke="#231F20" stroke-width="4" stroke-linecap="round" stroke-linejoin="round" stroke-miterlimit="10" width="24.666" height="50"/>
<rect x="292.5" y="122.5" fill="#A01D1D" stroke="#231F20" stroke-width="4" stroke-linecap="round" stroke-linejoin="round" stroke-miterlimit="10" width="296" height="10"/>
<g>
	<g>
		<g>
			<path fill="#ECECEC" d="M305.906,221.008c-2.232,1.309-2.35,4.994,0.435,5.76c2.939,0.809,5.17-3.058,3.019-5.208
				c-0.917-0.918-2.412-1.128-3.538-0.468c-1.379,0.807-1.456,2.32-1.191,3.717c0.231,1.221-0.104,1.603-0.889,2.498
				c-0.768,0.878-1.685,1.611-2.823,1.866c-3.146,0.705-1.812,5.525,1.329,4.822c2.365-0.53,4.18-2.127,5.709-3.943
				c0.844-1.003,1.532-2.005,1.665-3.343c0.112-1.134-0.142-2.166-0.158-3.271c-0.114,0.421-0.228,0.841-0.341,1.262
				c0.04-0.062,0.08-0.126,0.12-0.188c-0.498,0.383-0.996,0.766-1.494,1.149c0.099-0.019,0.197-0.036,0.296-0.054
				c-0.642-0.084-1.284-0.168-1.926-0.252c-0.189-0.174-0.379-0.347-0.568-0.521c-0.114-0.421-0.228-0.842-0.341-1.262
				c0.001,0.098,0.003,0.196,0.005,0.294c0.114-0.42,0.228-0.841,0.341-1.262c0.172-0.144,0.345-0.287,0.518-0.43
				c0.42-0.114,0.841-0.229,1.262-0.342c-0.109,0.008-0.219,0.016-0.328,0.022c0.42,0.114,0.841,0.228,1.262,0.342
				c0.197,0.19,0.394,0.382,0.591,0.572c0.114,0.421,0.228,0.841,0.341,1.262c-0.257,0.431-0.514,0.861-0.771,1.292
				C311.208,223.694,308.694,219.372,305.906,221.008L305.906,221.008z"/>
		</g>
	</g>
	<g>
		<g>
			<path fill="#ECECEC" d="M305.084,222.584c-0.304,0.002-0.607,0.008-0.911-0.001c-0.286-0.022-0.247-0.013,0.118,0.028
				c-0.565-0.092,0.431,0.28-0.055,0.001c0.523,0.575,0.654,0.683,0.392,0.323c-0.329-0.482-0.077-0.621-0.003,0.373
				c-0.037-0.496-0.065-0.996-0.214-1.474c-0.406-1.299-1.728-2.116-3.075-1.746c-1.279,0.353-2.153,1.775-1.746,3.076
				c0.206,0.657,0.006-0.488,0.035,0.144c0.027,0.59,0.112,1.095,0.385,1.619c0.388,0.748,0.886,1.389,1.563,1.896
				c1.001,0.751,2.316,0.768,3.512,0.76c1.363-0.009,2.5-1.131,2.5-2.5C307.584,223.728,306.447,222.575,305.084,222.584
				L305.084,222.584z"/>
		</g>
	</g>
	<g>
		<g>
			<path fill="#ECECEC" d="M304.668,225.084c-0.749,0.025-1.559,0.183-2.188,0.239c-0.579,0.053-0.148,0.06,0.11,0.169
				c-0.234-0.144-0.233-0.128,0.003,0.047c-0.112-0.099-0.221-0.2-0.326-0.307c-0.975-0.951-2.563-0.972-3.535,0
				c-0.955,0.954-0.975,2.584,0,3.535c0.707,0.69,1.534,1.302,2.533,1.465c1.191,0.195,2.318-0.111,3.403-0.148
				c1.362-0.047,2.5-1.102,2.5-2.5C307.168,226.257,306.031,225.037,304.668,225.084L304.668,225.084z"/>
		</g>
	</g>
</g>
<line fill="none" stroke="#ECECEC" stroke-width="8" stroke-linecap="round" stroke-linejoin="round" stroke-miterlimit="10" x1="316.5" y1="226.5" x2="354.5" y2="226.5"/>
<line fill="none" stroke="#ECECEC" stroke-width="8" stroke-linecap="round" stroke-linejoin="round" stroke-miterlimit="10" x1="302.5" y1="242.5" x2="376.5" y2="242.5"/>
<path fill="#4CABC2" stroke="#231F20" stroke-width="4" stroke-linecap="round" stroke-linejoin="round" stroke-miterlimit="10" d="
	M172.5,244.5h44c2.209,0,4-1.791,4-4v-90c0-2.209-1.791-4-4-4h-52h-38c-8,0-10,10-10,10l-18,80c0,0,2,8,10,8H172.5z"/>
<polygon opacity="0.2" fill="#FFFFFF" points="169.5,146.5 103.502,216 109,194.5 153.5,146.5 "/>
<polygon opacity="0.2" fill="#FFFFFF" points="220.5,218.5 194.5,244.5 180.5,244.5 220.5,202.5 "/>
<polygon opacity="0.2" fill="#FFFFFF" points="177.5,146.5 101,228.5 101.5,224 173.5,146.5 "/>
<polygon opacity="0.2" fill="#FFFFFF" points="221.5,172.5 158.5,244.5 154.5,244.5 219.5,170.5 "/>
<polygon opacity="0.2" fill="#FFFFFF" points="221.499,162.5 146,244 104,244 193.499,146.5 219.499,146.5 "/>
<path fill="none" stroke="#231F20" stroke-width="4" stroke-linecap="round" stroke-linejoin="round" stroke-miterlimit="10" d="
	M172.5,244.5h44c2.209,0,4-1.791,4-4v-90c0-2.209-1.791-4-4-4h-52h-38c-8,0-10,10-10,10l-18,80c0,0,2,8,10,8H172.5z"/>
<path fill="#454646" stroke="#231F20" stroke-width="4" stroke-linecap="round" stroke-linejoin="round" stroke-miterlimit="10" d="
	M108.5,180.5c0-4.418,3.582-8,8-8l-4-4c-4.418,0-8,3.582-8,8L108.5,180.5z"/>
<rect x="652.5" y="339.5" fill="#F79520" stroke="#231F20" stroke-width="4" stroke-linecap="round" stroke-linejoin="round" stroke-miterlimit="10" width="12" height="11"/>
<path fill="#454646" stroke="#231F20" stroke-width="4" stroke-linecap="round" stroke-linejoin="round" stroke-miterlimit="10" d="
	M124.5,172.5h-4c-4.418,0-8-3.582-8-8v-20c0-4.418,3.582-8,8-8h4V172.5z"/>
<line fill="#444646" stroke="#231F20" stroke-width="4" stroke-linecap="round" stroke-linejoin="round" stroke-miterlimit="10" x1="512.5" y1="178.5" x2="504.5" y2="162.5"/>
<circle fill="#454646" stroke="#231F20" stroke-width="4" stroke-linecap="round" stroke-linejoin="round" stroke-miterlimit="10" cx="108.5" cy="176.5" r="4"/>
<path fill="#6C7071" stroke="#231F20" stroke-width="4" stroke-linecap="round" stroke-linejoin="round" stroke-miterlimit="10" d="
	M552.5,180.5c0,15.463-12.537,28-28,28s-28-12.537-28-28H552.5z"/>
<polyline fill="none" stroke="#231F20" stroke-width="4" stroke-linecap="round" stroke-linejoin="round" stroke-miterlimit="10" points="
	110.5,126.5 240.5,126.5 240.5,294.5 "/>
<rect x="536.5" y="122.5" fill="#2B2E31" stroke="#231F20" stroke-width="4" stroke-linecap="round" stroke-linejoin="round" stroke-miterlimit="10" width="128" height="140"/>
<line fill="none" stroke="#D52524" stroke-width="12" stroke-linecap="round" stroke-linejoin="round" stroke-miterlimit="10" x1="582.5" y1="138.5" x2="618.5" y2="138.5"/>
<line fill="none" stroke="#ECECEC" stroke-width="4" stroke-linecap="round" stroke-linejoin="round" stroke-miterlimit="10" x1="548.5" y1="170.5" x2="556.5" y2="170.5"/>
<line fill="none" stroke="#ECECEC" stroke-width="4" stroke-linecap="round" stroke-linejoin="round" stroke-miterlimit="10" x1="548.5" y1="178.5" x2="574.5" y2="178.5"/>
<line fill="none" stroke="#ECECEC" stroke-width="4" stroke-linecap="round" stroke-linejoin="round" stroke-miterlimit="10" x1="548.5" y1="186.5" x2="574.5" y2="186.5"/>
<line fill="none" stroke="#ECECEC" stroke-width="4" stroke-linecap="round" stroke-linejoin="round" stroke-miterlimit="10" x1="570.5" y1="198.5" x2="578.5" y2="198.5"/>
<line fill="none" stroke="#ECECEC" stroke-width="4" stroke-linecap="round" stroke-linejoin="round" stroke-miterlimit="10" x1="586.5" y1="198.5" x2="590.5" y2="198.5"/>
<line fill="none" stroke="#ECECEC" stroke-width="4" stroke-linecap="round" stroke-linejoin="round" stroke-miterlimit="10" x1="598.5" y1="198.5" x2="611.5" y2="198.5"/>
<line fill="none" stroke="#ECECEC" stroke-width="4" stroke-linecap="round" stroke-linejoin="round" stroke-miterlimit="10" x1="619" y1="198.5" x2="632" y2="198.5"/>
<line fill="none" stroke="#ECECEC" stroke-width="4" stroke-linecap="round" stroke-linejoin="round" stroke-miterlimit="10" x1="570.5" y1="206.5" x2="584.5" y2="206.5"/>
<line fill="none" stroke="#ECECEC" stroke-width="4" stroke-linecap="round" stroke-linejoin="round" stroke-miterlimit="10" x1="592.5" y1="206.5" x2="614.5" y2="206.5"/>
<line fill="none" stroke="#ECECEC" stroke-width="4" stroke-linecap="round" stroke-linejoin="round" stroke-miterlimit="10" x1="622.5" y1="206.5" x2="632" y2="206.5"/>
<line fill="none" stroke="#ECECEC" stroke-width="4" stroke-linecap="round" stroke-linejoin="round" stroke-miterlimit="10" x1="570.5" y1="214.5" x2="578.5" y2="214.5"/>
<line fill="none" stroke="#ECECEC" stroke-width="4" stroke-linecap="round" stroke-linejoin="round" stroke-miterlimit="10" x1="586.5" y1="214.5" x2="590.5" y2="214.5"/>
<line fill="none" stroke="#ECECEC" stroke-width="4" stroke-linecap="round" stroke-linejoin="round" stroke-miterlimit="10" x1="598.5" y1="214.5" x2="611.5" y2="214.5"/>
<line fill="none" stroke="#ECECEC" stroke-width="4" stroke-linecap="round" stroke-linejoin="round" stroke-miterlimit="10" x1="619" y1="214.5" x2="632" y2="214.5"/>
<line fill="none" stroke="#ECECEC" stroke-width="4" stroke-linecap="round" stroke-linejoin="round" stroke-miterlimit="10" x1="570.5" y1="222.5" x2="584.5" y2="222.5"/>
<line fill="none" stroke="#ECECEC" stroke-width="4" stroke-linecap="round" stroke-linejoin="round" stroke-miterlimit="10" x1="592.5" y1="222.5" x2="614.5" y2="222.5"/>
<line fill="none" stroke="#ECECEC" stroke-width="12" stroke-linecap="round" stroke-linejoin="round" stroke-miterlimit="10" x1="602.5" y1="238.5" x2="603.125" y2="238.5"/>
<line fill="none" stroke="#ECECEC" stroke-width="4" stroke-linecap="round" stroke-linejoin="round" stroke-miterlimit="10" x1="622.5" y1="222.5" x2="632" y2="222.5"/>
<line fill="none" stroke="#ECECEC" stroke-width="4" stroke-linecap="round" stroke-linejoin="round" stroke-miterlimit="10" x1="586.5" y1="178.5" x2="600.5" y2="178.5"/>
<line fill="none" stroke="#ECECEC" stroke-width="4" stroke-linecap="round" stroke-linejoin="round" stroke-miterlimit="10" x1="608.5" y1="178.5" x2="612.5" y2="178.5"/>
<line fill="none" stroke="#ECECEC" stroke-width="4" stroke-linecap="round" stroke-linejoin="round" stroke-miterlimit="10" x1="586.5" y1="186.5" x2="612.5" y2="186.5"/>
<line fill="none" stroke="#ECECEC" stroke-width="4" stroke-linecap="round" stroke-linejoin="round" stroke-miterlimit="10" x1="586.5" y1="170.5" x2="612.5" y2="170.5"/>
<line fill="none" stroke="#ECECEC" stroke-width="4" stroke-linecap="round" stroke-linejoin="round" stroke-miterlimit="10" x1="624.5" y1="170.5" x2="650.5" y2="170.5"/>
<line fill="none" stroke="#ECECEC" stroke-width="4" stroke-linecap="round" stroke-linejoin="round" stroke-miterlimit="10" x1="624.5" y1="178.5" x2="650.5" y2="178.5"/>
<line fill="none" stroke="#ECECEC" stroke-width="4" stroke-linecap="round" stroke-linejoin="round" stroke-miterlimit="10" x1="624.5" y1="186.5" x2="630.5" y2="186.5"/>
<line fill="none" stroke="#ECECEC" stroke-width="4" stroke-linecap="round" stroke-linejoin="round" stroke-miterlimit="10" x1="638.5" y1="186.5" x2="650.5" y2="186.5"/>
<line fill="none" stroke="#ECECEC" stroke-width="4" stroke-linecap="round" stroke-linejoin="round" stroke-miterlimit="10" x1="564.5" y1="170.5" x2="574.5" y2="170.5"/>
<line fill="none" stroke="#ECECEC" stroke-width="12" stroke-linecap="round" stroke-linejoin="round" stroke-miterlimit="10" x1="582.5" y1="154.5" x2="618.5" y2="154.5"/>
<line fill="none" stroke="#231F20" stroke-width="4" stroke-linecap="round" stroke-linejoin="round" stroke-miterlimit="10" x1="644.5" y1="104.5" x2="644.5" y2="122.5"/>
<line fill="none" stroke="#231F20" stroke-width="4" stroke-linecap="round" stroke-linejoin="round" stroke-miterlimit="10" x1="556.5" y1="104.5" x2="556.5" y2="122.5"/>
<polygon fill="#6C7071" stroke="#231F20" stroke-width="4" stroke-linecap="round" stroke-linejoin="round" stroke-miterlimit="10" points="
	402.5,208.5 398.5,196.5 422.5,196.5 418.5,208.5 "/>
<rect x="294.5" y="200.5" fill="#966943" stroke="#231F20" stroke-width="4" stroke-linecap="round" stroke-linejoin="round" stroke-miterlimit="10" width="40.666" height="8"/>
<rect x="328.5" y="192.5" fill="#966943" stroke="#231F20" stroke-width="4" stroke-linecap="round" stroke-linejoin="round" stroke-miterlimit="10" width="20.666" height="8"/>
<rect x="341.834" y="184.5" fill="#966943" stroke="#231F20" stroke-width="4" stroke-linecap="round" stroke-linejoin="round" stroke-miterlimit="10" width="20.666" height="8"/>
<rect x="294.5" y="192.5" fill="#966943" stroke="#231F20" stroke-width="4" stroke-linecap="round" stroke-linejoin="round" stroke-miterlimit="10" width="22.666" height="8"/>
<rect x="294.5" y="184.5" fill="#966943" stroke="#231F20" stroke-width="4" stroke-linecap="round" stroke-linejoin="round" stroke-miterlimit="10" width="22.666" height="8"/>
<rect x="310.5" y="175.834" fill="#966943" stroke="#231F20" stroke-width="4" stroke-linecap="round" stroke-linejoin="round" stroke-miterlimit="10" width="8" height="32.666"/>
<g>
	<g>
		<g>
			<g>
				
					<path fill="#6A1501" stroke="#231F20" stroke-width="4" stroke-linecap="round" stroke-linejoin="round" stroke-miterlimit="10" d="
					M328.5,190.5v-14c0-2.209,1.791-4,4-4l0,0c2.209,0,4,1.791,4,4v14h-4H328.5z"/>
			</g>
		</g>
	</g>
	
		<line fill="#939A9F" stroke="#231F20" stroke-width="4" stroke-linecap="round" stroke-linejoin="round" stroke-miterlimit="10" x1="332.5" y1="172.5" x2="332.5" y2="166.5"/>
</g>
<path fill="#966943" stroke="#231F20" stroke-width="4" stroke-linecap="round" stroke-linejoin="round" stroke-miterlimit="10" d="
	M386.5,200.5c0,4.418-3.582,8-8,8s-8-3.582-8-8H386.5z"/>
<line fill="none" stroke="#01A64F" stroke-width="4" stroke-linecap="round" stroke-linejoin="round" stroke-miterlimit="10" x1="372.5" y1="196.5" x2="384.5" y2="196.5"/>
<line fill="none" stroke="#F79520" stroke-width="4" stroke-linecap="round" stroke-linejoin="round" stroke-miterlimit="10" x1="402.5" y1="192.5" x2="418.5" y2="192.5"/>
</svg>
