<?xml version="1.0" encoding="utf-8"?>
<!-- Generator: Adobe Illustrator 16.0.1, SVG Export Plug-In . SVG Version: 6.00 Build 0)  -->
<!DOCTYPE svg PUBLIC "-//W3C//DTD SVG 1.1//EN" "http://www.w3.org/Graphics/SVG/1.1/DTD/svg11.dtd">
<svg version="1.1" id="Layer_1" xmlns="http://www.w3.org/2000/svg" xmlns:xlink="http://www.w3.org/1999/xlink" x="0px" y="0px"
	 width="356px" height="400px" viewBox="0.5 0.5 356 400" enable-background="new 0.5 0.5 356 400" xml:space="preserve">
<rect x="2.5" y="150.5" fill="#C1BEB4" stroke="#231F20" stroke-width="4" stroke-linecap="round" stroke-linejoin="round" stroke-miterlimit="10" width="12" height="148"/>
<rect x="342.5" y="150.5" fill="#C1BEB4" stroke="#231F20" stroke-width="4" stroke-linecap="round" stroke-linejoin="round" stroke-miterlimit="10" width="12" height="148"/>
<path fill="#454545" stroke="#231F20" stroke-width="4" stroke-linecap="round" stroke-linejoin="round" stroke-miterlimit="10" d="
	M350.5,106.5h-4c-52-8-168-60-168-72c0,12-116,64-168,72h-4c-2.209,0-4,1.791-4,4v40h176h176v-40
	C354.5,108.291,352.709,106.5,350.5,106.5z"/>
<path fill="#333333" stroke="#231F20" stroke-width="4" stroke-linecap="round" stroke-linejoin="round" stroke-miterlimit="10" d="
	M354.5,146.5c0,2.209-1.791,4-4,4H6.5c-2.209,0-4-1.791-4-4v-36c0-2.209,1.791-4,4-4h344c2.209,0,4,1.791,4,4V146.5z"/>
<path fill="#333333" stroke="#231F20" stroke-width="4" stroke-linecap="round" stroke-linejoin="round" stroke-miterlimit="10" d="
	M354.5,378.5c0,2.209-1.791,4-4,4H6.5c-2.209,0-4-1.791-4-4v-104c0,0,1.791,0,4,0h344c2.209,0,4,0,4,0V378.5z"/>
<rect x="14.5" y="262.5" fill="#5B5663" stroke="#231F20" stroke-width="4" stroke-linecap="round" stroke-linejoin="round" stroke-miterlimit="10" width="328" height="12"/>
<path fill="#F7B019" stroke="#231F20" stroke-width="4" stroke-miterlimit="10" d="M342.5,214.5c0,2.209-1.791,4-4,4h-46
	c-2.209,0-4-1.791-4-4v-60c0-2.209,1.791-4,4-4h46c2.209,0,4,1.791,4,4V214.5z"/>
<g>
	<path fill="#F7B019" stroke="#231F20" stroke-width="4" stroke-miterlimit="10" d="M102.5,348.5c0,2.209,1.791,4,4,4h144
		c2.209,0,4-1.791,4-4v-70c0-2.209-1.791-4-4-4H108.48H106.5c-2.209,0-4,1.791-4,4V348.5z"/>
	
		<line fill="none" stroke="#EA6A29" stroke-width="16" stroke-linecap="round" stroke-linejoin="round" stroke-miterlimit="10" x1="120.5" y1="298.5" x2="168.5" y2="298.5"/>
	
		<line fill="none" stroke="#CE494A" stroke-width="12" stroke-linecap="round" stroke-linejoin="round" stroke-miterlimit="10" x1="146.5" y1="320.5" x2="154.5" y2="320.5"/>
	
		<line fill="none" stroke="#CE494A" stroke-width="12" stroke-linecap="round" stroke-linejoin="round" stroke-miterlimit="10" x1="172.5" y1="320.5" x2="210.5" y2="320.5"/>
	
		<line fill="none" stroke="#CE494A" stroke-width="12" stroke-linecap="round" stroke-linejoin="round" stroke-miterlimit="10" x1="124.5" y1="336.5" x2="180.5" y2="336.5"/>
	
		<line fill="none" stroke="#CE494A" stroke-width="12" stroke-linecap="round" stroke-linejoin="round" stroke-miterlimit="10" x1="200.5" y1="336.5" x2="232.5" y2="336.5"/>
	<path fill="#CE494A" d="M120.5,290.5h48c4.418,0,8,3.582,8,8s-3.582,8-8,8"/>
	
		<line fill="none" stroke="#CE494A" stroke-width="16" stroke-linecap="round" stroke-linejoin="round" stroke-miterlimit="10" x1="188.5" y1="298.5" x2="236.5" y2="298.5"/>
	<path fill="#A39A34" d="M188.5,306.5h48c4.418,0,8-3.582,8-8s-3.582-8-8-8"/>
	<path fill="#EA6A29" d="M120.5,322.5c-1.104,0-2-0.895-2-2c0-1.104,0.896-2,2-2l12-2c2.209,0,4,1.791,4,4s-1.791,4-4,4L120.5,322.5
		z"/>
	<path fill="#EA6A29" d="M236.5,318.5c1.104,0,2,0.896,2,2c0,1.105-0.896,2-2,2l-12,2c-2.209,0-4-1.791-4-4s1.791-4,4-4L236.5,318.5
		z"/>
	<g>
		<circle fill="#7A454B" cx="175.5" cy="284.5" r="4"/>
		<circle fill="#CB5C65" cx="175.5" cy="284.5" r="2"/>
		<circle fill="#7A454B" cx="181.5" cy="286.5" r="4"/>
		<circle fill="#CB5C65" cx="181.5" cy="286.5" r="2"/>
	</g>
</g>
<g>
	<circle fill="#7A454B" cx="312.5" cy="160.5" r="4"/>
	<circle fill="#CB5C65" cx="312.5" cy="160.5" r="2"/>
	<circle fill="#7A454B" cx="318.5" cy="162.5" r="4"/>
	<circle fill="#CB5C65" cx="318.5" cy="162.5" r="2"/>
</g>
<line fill="none" stroke="#EA6A29" stroke-width="12" stroke-linecap="round" stroke-linejoin="round" stroke-miterlimit="10" x1="304.5" y1="174.5" x2="326.5" y2="174.5"/>
<path fill="#CE494A" d="M304.5,168.5h22c3.313,0,6,2.688,6,6c0,3.314-2.687,6-6,6"/>
<line fill="none" stroke="#CE494A" stroke-width="12" stroke-linecap="round" stroke-linejoin="round" stroke-miterlimit="10" x1="304.5" y1="198.5" x2="326.5" y2="198.5"/>
<path fill="#A39A34" d="M304.5,192.5h22c3.313,0,6,2.688,6,6c0,3.314-2.687,6-6,6"/>
<line fill="none" stroke="#CE494A" stroke-width="4" stroke-linecap="round" stroke-linejoin="round" stroke-miterlimit="10" x1="302.5" y1="186.5" x2="312.5" y2="186.5"/>
<line fill="none" stroke="#CE494A" stroke-width="4" stroke-linecap="round" stroke-linejoin="round" stroke-miterlimit="10" x1="318.5" y1="186.5" x2="328.5" y2="186.5"/>
<line fill="none" stroke="#CE494A" stroke-width="4" stroke-linecap="round" stroke-linejoin="round" stroke-miterlimit="10" x1="302.5" y1="210.5" x2="312.5" y2="210.5"/>
<line fill="none" stroke="#CE494A" stroke-width="4" stroke-linecap="round" stroke-linejoin="round" stroke-miterlimit="10" x1="318.5" y1="210.5" x2="328.5" y2="210.5"/>
<g>
	
		<path fill="#454545" stroke="#231F20" stroke-width="4" stroke-linecap="round" stroke-linejoin="round" stroke-miterlimit="10" d="
		M72.5,188.5c0-2.408-1.791-4-4-4h-50c-2.209,0-4,1.592-4,4v81.637c0,2.41,1.791,4.363,4,4.363h50c2.209,0,4-1.953,4-4.363V188.5z"
		/>
	
		<line fill="none" stroke="#ECECEC" stroke-width="2" stroke-linecap="round" stroke-linejoin="round" stroke-miterlimit="10" x1="22.5" y1="218.5" x2="34.5" y2="218.5"/>
	
		<line fill="none" stroke="#ECECEC" stroke-width="2" stroke-linecap="round" stroke-linejoin="round" stroke-miterlimit="10" x1="40.499" y1="218.5" x2="44.5" y2="218.5"/>
	
		<line fill="none" stroke="#ECECEC" stroke-width="2" stroke-linecap="round" stroke-linejoin="round" stroke-miterlimit="10" x1="48.5" y1="218.5" x2="64.5" y2="218.5"/>
	
		<line fill="none" stroke="#ECECEC" stroke-width="2" stroke-linecap="round" stroke-linejoin="round" stroke-miterlimit="10" x1="22.5" y1="222.5" x2="34.5" y2="222.5"/>
	
		<line fill="none" stroke="#ECECEC" stroke-width="2" stroke-linecap="round" stroke-linejoin="round" stroke-miterlimit="10" x1="40.499" y1="222.5" x2="50.5" y2="222.5"/>
	
		<line fill="none" stroke="#ECECEC" stroke-width="2" stroke-linecap="round" stroke-linejoin="round" stroke-miterlimit="10" x1="54.5" y1="222.5" x2="64.501" y2="222.5"/>
	
		<line fill="none" stroke="#ECECEC" stroke-width="8" stroke-linecap="round" stroke-linejoin="round" stroke-miterlimit="10" x1="36.5" y1="196.5" x2="52.5" y2="196.5"/>
	
		<line fill="none" stroke="#ECECEC" stroke-width="8" stroke-linecap="round" stroke-linejoin="round" stroke-miterlimit="10" x1="36.5" y1="208.5" x2="52.5" y2="208.5"/>
	
		<line fill="none" stroke="#ECECEC" stroke-width="4" stroke-linecap="round" stroke-linejoin="round" stroke-miterlimit="10" x1="22.499" y1="232.5" x2="36.5" y2="232.5"/>
	
		<line fill="none" stroke="#ECECEC" stroke-width="4" stroke-linecap="round" stroke-linejoin="round" stroke-miterlimit="10" x1="22.499" y1="238.5" x2="30.5" y2="238.5"/>
	
		<line fill="none" stroke="#ECECEC" stroke-width="4" stroke-linecap="round" stroke-linejoin="round" stroke-miterlimit="10" x1="58.5" y1="232.5" x2="64" y2="232.5"/>
	
		<line fill="none" stroke="#ECECEC" stroke-width="4" stroke-linecap="round" stroke-linejoin="round" stroke-miterlimit="10" x1="22.499" y1="246.5" x2="36.5" y2="246.5"/>
	
		<line fill="none" stroke="#ECECEC" stroke-width="4" stroke-linecap="round" stroke-linejoin="round" stroke-miterlimit="10" x1="22.499" y1="252.5" x2="30.5" y2="252.5"/>
	
		<line fill="none" stroke="#ECECEC" stroke-width="4" stroke-linecap="round" stroke-linejoin="round" stroke-miterlimit="10" x1="58.5" y1="246.5" x2="64" y2="246.5"/>
	
		<line fill="none" stroke="#ECECEC" stroke-width="4" stroke-linecap="round" stroke-linejoin="round" stroke-miterlimit="10" x1="22.499" y1="260.5" x2="42.5" y2="260.5"/>
	
		<line fill="none" stroke="#ECECEC" stroke-width="4" stroke-linecap="round" stroke-linejoin="round" stroke-miterlimit="10" x1="22.499" y1="266.5" x2="30.5" y2="266.5"/>
	
		<line fill="none" stroke="#ECECEC" stroke-width="4" stroke-linecap="round" stroke-linejoin="round" stroke-miterlimit="10" x1="58.5" y1="260.5" x2="64" y2="260.5"/>
</g>
<line fill="none" stroke="#231F20" stroke-width="4" stroke-linecap="round" stroke-linejoin="round" stroke-miterlimit="10" x1="146.5" y1="240.5" x2="150.5" y2="252.5"/>
<rect x="338.5" y="194.5" fill="#333333" stroke="#231F20" stroke-width="4" stroke-linecap="round" stroke-linejoin="round" stroke-miterlimit="10" width="16" height="8"/>
<rect x="338.5" y="166.5" fill="#333333" stroke="#231F20" stroke-width="4" stroke-linecap="round" stroke-linejoin="round" stroke-miterlimit="10" width="16" height="8"/>
<path fill="#939A9F" stroke="#231F20" stroke-width="4" stroke-linecap="round" stroke-linejoin="round" stroke-miterlimit="10" d="
	M326.5,240.5h-56c-2.209,0-4,1.791-4,4l0,0v2v4c0,2.209,1.791,4,4,4h56c2.209,0,4-1.791,4-4v-4v-2l0,0
	C330.5,242.291,328.709,240.5,326.5,240.5z"/>
<rect x="270.5" y="254.5" fill="#939A9F" stroke="#231F20" stroke-width="4" stroke-linecap="round" stroke-linejoin="round" stroke-miterlimit="10" width="8" height="8"/>
<rect x="318.5" y="254.5" fill="#939A9F" stroke="#231F20" stroke-width="4" stroke-linecap="round" stroke-linejoin="round" stroke-miterlimit="10" width="8" height="8"/>
<path fill="none" stroke="#231F20" stroke-width="4" stroke-linecap="round" stroke-linejoin="round" stroke-miterlimit="10" d="
	M254.5,242.5"/>
<path fill="none" stroke="#231F20" stroke-width="4" stroke-linecap="round" stroke-linejoin="round" stroke-miterlimit="10" d="
	M254.5,258.5v-22c0,0,0-4,4-4h2v4"/>
<path fill="none" stroke="#231F20" stroke-width="4" stroke-linecap="round" stroke-linejoin="round" stroke-miterlimit="10" d="
	M248.5,242.5"/>
<path fill="none" stroke="#231F20" stroke-width="4" stroke-linecap="round" stroke-linejoin="round" stroke-miterlimit="10" d="
	M248.5,258.5v-22c0,0,0-4-4-4h-2v4"/>
<g>
	<g>
		<g>
			<g>
				
					<path fill="#EEEEEE" stroke="#231F20" stroke-width="4" stroke-linecap="round" stroke-linejoin="round" stroke-miterlimit="10" d="
					M224.5,258.5v-14c0-2.209,1.791-4,4-4l0,0c2.209,0,4,1.791,4,4v14h-4H224.5z"/>
			</g>
		</g>
		
			<rect x="226.5" y="236.5" fill="#939A9F" stroke="#231F20" stroke-width="4" stroke-linecap="round" stroke-linejoin="round" stroke-miterlimit="10" width="4" height="4"/>
	</g>
	
		<line fill="#939A9F" stroke="#231F20" stroke-width="4" stroke-linecap="round" stroke-linejoin="round" stroke-miterlimit="10" x1="228.5" y1="236.5" x2="228.5" y2="232.5"/>
</g>
<g>
	
		<polygon fill="#937855" stroke="#231F20" stroke-width="4" stroke-linecap="round" stroke-linejoin="round" stroke-miterlimit="10" points="
		88.5,258.5 84.5,246.5 110.5,246.5 106.5,258.5 	"/>
	
		<rect x="90.5" y="240.5" fill="#937855" stroke="#231F20" stroke-width="4" stroke-linecap="round" stroke-linejoin="round" stroke-miterlimit="10" width="14" height="6"/>
</g>
<polygon fill="#939A9F" stroke="#231F20" stroke-width="4" stroke-linecap="round" stroke-linejoin="round" stroke-miterlimit="10" points="
	191.5,258.5 187.5,252.5 201.5,252.5 197.5,258.5 "/>
<polygon fill="#939A9F" stroke="#231F20" stroke-width="4" stroke-linecap="round" stroke-linejoin="round" stroke-miterlimit="10" points="
	169.5,258.5 165.5,252.5 179.5,252.5 175.5,258.5 "/>
<polygon fill="#939A9F" stroke="#231F20" stroke-width="4" stroke-linecap="round" stroke-linejoin="round" stroke-miterlimit="10" points="
	144.5,258.5 140.5,248.5 158.5,248.5 154.5,258.5 "/>
<path fill="#016938" stroke="#01A64F" stroke-width="2" stroke-linecap="round" stroke-linejoin="round" stroke-miterlimit="10" d="
	M172.5,245.5c0,2.209-1.791,4-4,4s-4-1.791-4-4H172.5z"/>
<path fill="#016938" stroke="#01A64F" stroke-width="2" stroke-linecap="round" stroke-linejoin="round" stroke-miterlimit="10" d="
	M180.5,245.5c0,2.209-1.791,4-4,4s-4-1.791-4-4H180.5z"/>
<line fill="none" stroke="#CE494A" stroke-width="4" stroke-linecap="round" stroke-linejoin="round" stroke-miterlimit="10" x1="189.5" y1="248.5" x2="199.5" y2="248.5"/>
</svg>
