<svg xmlns="http://www.w3.org/2000/svg" width="356" height="400" viewBox="0.5 0.5 356 400" enable-background="new 0.5 0.5 356 400"><path fill="#C1BEB4" stroke="#231F20" stroke-width="4" stroke-linecap="round" stroke-linejoin="round" stroke-miterlimit="10" d="M2.5 150.5h12v148h-12zM342.5 150.5h12v148h-12z"/><path fill="#454545" stroke="#231F20" stroke-width="4" stroke-linecap="round" stroke-linejoin="round" stroke-miterlimit="10" d="M350.5 106.5h-4c-52-8-168-60-168-72 0 12-116 64-168 72h-4c-2.21 0-4 1.79-4 4v40h352v-40c0-2.21-1.79-4-4-4z"/><path fill="#333" stroke="#231F20" stroke-width="4" stroke-linecap="round" stroke-linejoin="round" stroke-miterlimit="10" d="M354.5 146.5c0 2.21-1.79 4-4 4H6.5c-2.21 0-4-1.79-4-4v-36c0-2.21 1.79-4 4-4h344c2.21 0 4 1.79 4 4v36zM354.5 378.5c0 2.21-1.79 4-4 4H6.5c-2.21 0-4-1.79-4-4v-104h352v104z"/><path fill="#5B5663" stroke="#231F20" stroke-width="4" stroke-linecap="round" stroke-linejoin="round" stroke-miterlimit="10" d="M14.5 262.5h328v12h-328z"/><path fill="#F7B019" stroke="#231F20" stroke-width="4" stroke-miterlimit="10" d="M342.5 214.5c0 2.21-1.79 4-4 4h-46c-2.21 0-4-1.79-4-4v-60c0-2.21 1.79-4 4-4h46c2.21 0 4 1.79 4 4v60zM102.5 348.5c0 2.21 1.79 4 4 4h144c2.21 0 4-1.79 4-4v-70c0-2.21-1.79-4-4-4h-144c-2.21 0-4 1.79-4 4v70z"/><path fill="none" stroke="#EA6A29" stroke-width="16" stroke-linecap="round" stroke-linejoin="round" stroke-miterlimit="10" d="M120.5 298.5h48"/><path fill="none" stroke="#CE494A" stroke-width="12" stroke-linecap="round" stroke-linejoin="round" stroke-miterlimit="10" d="M146.5 320.5h8M172.5 320.5h38M124.5 336.5h56M200.5 336.5h32"/><path fill="#CE494A" d="M120.5 290.5h48c4.418 0 8 3.582 8 8s-3.582 8-8 8"/><path fill="none" stroke="#CE494A" stroke-width="16" stroke-linecap="round" stroke-linejoin="round" stroke-miterlimit="10" d="M188.5 298.5h48"/><path fill="#A39A34" d="M188.5 306.5h48c4.418 0 8-3.582 8-8s-3.582-8-8-8"/><path fill="#EA6A29" d="M120.5 322.5c-1.104 0-2-.895-2-2 0-1.104.896-2 2-2l12-2c2.21 0 4 1.79 4 4s-1.79 4-4 4l-12-2zM236.5 318.5c1.104 0 2 .896 2 2 0 1.105-.896 2-2 2l-12 2c-2.21 0-4-1.79-4-4s1.79-4 4-4l12 2z"/><circle fill="#7A454B" cx="175.5" cy="284.5" r="4"/><circle fill="#CB5C65" cx="175.5" cy="284.5" r="2"/><circle fill="#7A454B" cx="181.5" cy="286.5" r="4"/><circle fill="#CB5C65" cx="181.5" cy="286.5" r="2"/><circle fill="#7A454B" cx="312.5" cy="160.5" r="4"/><circle fill="#CB5C65" cx="312.5" cy="160.5" r="2"/><circle fill="#7A454B" cx="318.5" cy="162.5" r="4"/><circle fill="#CB5C65" cx="318.5" cy="162.5" r="2"/><path fill="none" stroke="#EA6A29" stroke-width="12" stroke-linecap="round" stroke-linejoin="round" stroke-miterlimit="10" d="M304.5 174.5h22"/><path fill="#CE494A" d="M304.5 168.5h22c3.313 0 6 2.688 6 6 0 3.314-2.687 6-6 6"/><path fill="none" stroke="#CE494A" stroke-width="12" stroke-linecap="round" stroke-linejoin="round" stroke-miterlimit="10" d="M304.5 198.5h22"/><path fill="#A39A34" d="M304.5 192.5h22c3.313 0 6 2.688 6 6 0 3.314-2.687 6-6 6"/><path fill="none" stroke="#CE494A" stroke-width="4" stroke-linecap="round" stroke-linejoin="round" stroke-miterlimit="10" d="M302.5 186.5h10M318.5 186.5h10M302.5 210.5h10M318.5 210.5h10"/><g stroke-linecap="round" stroke-linejoin="round" stroke-miterlimit="10"><path fill="#454545" stroke="#231F20" stroke-width="4" d="M72.5 188.5c0-2.408-1.79-4-4-4h-50c-2.21 0-4 1.592-4 4v81.637c0 2.41 1.79 4.363 4 4.363h50c2.21 0 4-1.953 4-4.363V188.5z"/><path fill="none" stroke="#ECECEC" stroke-width="2" d="M22.5 218.5h12M40.5 218.5h4M48.5 218.5h16M22.5 222.5h12M40.5 222.5h10M54.5 222.5h10"/><path fill="none" stroke="#ECECEC" stroke-width="8" d="M36.5 196.5h16M36.5 208.5h16"/><path fill="none" stroke="#ECECEC" stroke-width="4" d="M22.5 232.5h14M22.5 238.5h8M58.5 232.5H64M22.5 246.5h14M22.5 252.5h8M58.5 246.5H64M22.5 260.5h20M22.5 266.5h8M58.5 260.5H64"/></g><path fill="none" stroke="#231F20" stroke-width="4" stroke-linecap="round" stroke-linejoin="round" stroke-miterlimit="10" d="M146.5 240.5l4 12"/><path fill="#333" stroke="#231F20" stroke-width="4" stroke-linecap="round" stroke-linejoin="round" stroke-miterlimit="10" d="M338.5 194.5h16v8h-16zM338.5 166.5h16v8h-16z"/><path fill="#939A9F" stroke="#231F20" stroke-width="4" stroke-linecap="round" stroke-linejoin="round" stroke-miterlimit="10" d="M326.5 240.5h-56c-2.21 0-4 1.79-4 4v6c0 2.21 1.79 4 4 4h56c2.21 0 4-1.79 4-4v-6c0-2.21-1.79-4-4-4zM270.5 254.5h8v8h-8zM318.5 254.5h8v8h-8z"/><path fill="none" stroke="#231F20" stroke-width="4" stroke-linecap="round" stroke-linejoin="round" stroke-miterlimit="10" d="M254.5 242.5M254.5 258.5v-22s0-4 4-4h2v4M248.5 242.5M248.5 258.5v-22s0-4-4-4h-2v4"/><path fill="#eee" stroke="#231F20" stroke-width="4" stroke-linecap="round" stroke-linejoin="round" stroke-miterlimit="10" d="M224.5 258.5v-14c0-2.21 1.79-4 4-4s4 1.79 4 4v14h-8z"/><path fill="#939A9F" stroke="#231F20" stroke-width="4" stroke-linecap="round" stroke-linejoin="round" stroke-miterlimit="10" d="M226.5 236.5h4v4h-4zM228.5 236.5v-4"/><g fill="#937855" stroke="#231F20" stroke-width="4" stroke-linecap="round" stroke-linejoin="round" stroke-miterlimit="10"><path d="M88.5 258.5l-4-12h26l-4 12zM90.5 240.5h14v6h-14z"/></g><path fill="#939A9F" stroke="#231F20" stroke-width="4" stroke-linecap="round" stroke-linejoin="round" stroke-miterlimit="10" d="M191.5 258.5l-4-6h14l-4 6zM169.5 258.5l-4-6h14l-4 6zM144.5 258.5l-4-10h18l-4 10z"/><path fill="#016938" stroke="#01A64F" stroke-width="2" stroke-linecap="round" stroke-linejoin="round" stroke-miterlimit="10" d="M172.5 245.5c0 2.21-1.79 4-4 4s-4-1.79-4-4h8zM180.5 245.5c0 2.21-1.79 4-4 4s-4-1.79-4-4h8z"/><path fill="none" stroke="#CE494A" stroke-width="4" stroke-linecap="round" stroke-linejoin="round" stroke-miterlimit="10" d="M189.5 248.5h10"/></svg>