<svg xmlns="http://www.w3.org/2000/svg" width="728" height="400" viewBox="14.5 0 728 400" enable-background="new 14.5 0 728 400"><path fill="#444646" stroke="#231F20" stroke-width="4" stroke-linecap="round" stroke-linejoin="round" stroke-miterlimit="10" d="M374.5 294.5h128v60h-128z"/><path fill="#ECECEC" stroke="#231F20" stroke-width="4" stroke-linecap="round" stroke-linejoin="round" stroke-miterlimit="10" d="M604.5 322.5l12-2 4 36 122-12-8-76-126-6 2 18 4 32-12 2"/><path fill="#444646" stroke="#231F20" stroke-width="4" stroke-linecap="round" stroke-linejoin="round" stroke-miterlimit="10" d="M34.5 298.5h130v56h-130z"/><path opacity=".5" fill="none" stroke="#B9529F" stroke-width="4" stroke-linecap="round" stroke-linejoin="round" stroke-miterlimit="10" d="M376.5 170.5"/><circle fill="#5E6363" stroke="#231F20" stroke-width="4" stroke-miterlimit="10" cx="440.501" cy="354.5" r="44"/><circle fill="#ECECEC" stroke="#231F20" stroke-width="4" stroke-miterlimit="10" cx="440.501" cy="354.5" r="24"/><circle fill="#111" cx="440.501" cy="354.5" r="8"/><g fill="#111"><circle cx="440.501" cy="342.5" r="2"/><circle cx="440.501" cy="366.5" r="2"/></g><g fill="#111"><circle cx="448.987" cy="346.015" r="2"/><circle cx="432.017" cy="362.986" r="2"/></g><g fill="#111"><circle cx="452.501" cy="354.501" r="2.001"/><circle cx="428.501" cy="354.501" r="2"/></g><g fill="#111"><circle cx="448.986" cy="362.986" r="2"/><circle cx="432.016" cy="346.016" r="2.001"/></g><g fill="#111"><path d="M419.183 357.572c1.912-1.105 4.357-.45 5.463 1.463l4 6.928c1.104 1.914.45 4.36-1.463 5.465-1.914 1.104-4.36.45-5.465-1.465l-4-6.928c-1.106-1.912-.45-4.36 1.465-5.463zM453.823 337.572c1.912-1.105 4.36-.45 5.463 1.463l4 6.928c1.104 1.914.45 4.36-1.463 5.467-1.914 1.103-4.36.447-5.465-1.467l-4-6.928c-1.105-1.912-.45-4.36 1.465-5.463z"/></g><g fill="#111"><path d="M427.18 337.572c1.915 1.104 2.57 3.55 1.466 5.464l-4 6.928c-1.105 1.913-3.55 2.57-5.465 1.465-1.91-1.105-2.567-3.553-1.462-5.466l4-6.928c1.103-1.913 3.55-2.568 5.463-1.464zM461.82 357.572c1.915 1.104 2.57 3.55 1.466 5.464l-4 6.928c-1.104 1.913-3.55 2.57-5.465 1.465-1.91-1.105-2.567-3.553-1.462-5.466l4-6.928c1.104-1.913 3.55-2.568 5.463-1.464z"/></g><g fill="#111"><path d="M448.5 334.5c0 2.21-1.79 4-4 4h-8c-2.208 0-4-1.79-4-4s1.792-4 4-4h8c2.21 0 4 1.79 4 4zM448.5 374.5c0 2.21-1.79 4-4 4h-8c-2.208 0-4-1.79-4-4s1.792-4 4-4h8c2.21 0 4 1.79 4 4z"/></g><circle fill="none" stroke="#231F20" stroke-width="4" stroke-miterlimit="10" cx="440.501" cy="354.5" r="24"/><circle fill="#231F20" cx="440.501" cy="350.5" r="2"/><circle fill="#231F20" cx="444.501" cy="354.5" r="2"/><circle fill="#231F20" cx="440.501" cy="358.5" r="2"/><circle fill="#231F20" cx="436.501" cy="354.5" r="2"/><circle fill="#5E6363" stroke="#231F20" stroke-width="4" stroke-miterlimit="10" cx="101.501" cy="354.5" r="44"/><circle fill="#ECECEC" stroke="#231F20" stroke-width="4" stroke-miterlimit="10" cx="101.501" cy="354.5" r="24"/><circle fill="#111" cx="101.501" cy="354.5" r="8"/><g fill="#111"><circle cx="101.501" cy="342.5" r="2"/><circle cx="101.501" cy="366.5" r="2"/></g><g fill="#111"><circle cx="109.987" cy="346.015" r="2"/><circle cx="93.017" cy="362.986" r="2"/></g><g fill="#111"><circle cx="113.501" cy="354.501" r="2.001"/><circle cx="89.501" cy="354.501" r="2"/></g><g fill="#111"><circle cx="109.986" cy="362.986" r="2"/><circle cx="93.016" cy="346.016" r="2.001"/></g><g fill="#111"><path d="M80.183 357.572c1.912-1.105 4.357-.45 5.463 1.463l4 6.928c1.104 1.914.45 4.36-1.463 5.465-1.914 1.104-4.36.45-5.465-1.465l-4-6.928c-1.106-1.912-.45-4.36 1.465-5.463zM114.823 337.572c1.912-1.105 4.36-.45 5.463 1.463l4 6.928c1.104 1.914.45 4.36-1.463 5.467-1.914 1.103-4.36.447-5.465-1.467l-4-6.928c-1.105-1.912-.45-4.36 1.465-5.463z"/></g><g fill="#111"><path d="M88.18 337.572c1.915 1.104 2.57 3.55 1.466 5.464l-4 6.928c-1.105 1.913-3.55 2.57-5.465 1.465-1.91-1.105-2.567-3.553-1.462-5.466l4-6.928c1.103-1.913 3.55-2.568 5.463-1.464zM122.82 357.572c1.915 1.104 2.57 3.55 1.466 5.464l-4 6.928c-1.104 1.913-3.55 2.57-5.465 1.465-1.91-1.105-2.567-3.553-1.462-5.466l4-6.928c1.104-1.913 3.55-2.568 5.463-1.464z"/></g><g fill="#111"><path d="M109.5 334.5c0 2.21-1.79 4-4 4h-8c-2.208 0-4-1.79-4-4s1.792-4 4-4h8c2.21 0 4 1.79 4 4zM109.5 374.5c0 2.21-1.79 4-4 4h-8c-2.208 0-4-1.79-4-4s1.792-4 4-4h8c2.21 0 4 1.79 4 4z"/></g><circle fill="none" stroke="#231F20" stroke-width="4" stroke-miterlimit="10" cx="101.501" cy="354.5" r="24"/><circle fill="#231F20" cx="101.501" cy="350.5" r="2"/><circle fill="#231F20" cx="105.501" cy="354.5" r="2"/><circle fill="#231F20" cx="101.501" cy="358.5" r="2"/><circle fill="#231F20" cx="97.501" cy="354.5" r="2"/><path fill="#ECECEC" stroke="#231F20" stroke-width="4" stroke-linecap="round" stroke-linejoin="round" stroke-miterlimit="10" d="M536.5 56.5h-408s-48-2-48 46l-6 46-20 74s-34 0-34 28v8c-2.208 0-4 1.79-4 3.998V312.5c0 2.21 1.792 4 4 4l10 38h16v-7c0-19 14-33 41-33h28c27 0 41 14 41 33v15h228v-9c0-17.12 13.88-31 31-31h50c17.122 0 31 13.88 31 31l.002 9 110-6-4-50c2.208 0 4-1.79 4-4l-2-30c0-2.21-1.792-4-4-4l-16-156-4-26s-2-30-44-30z"/><circle fill="none" stroke="#EB2177" stroke-width="4" stroke-linecap="round" stroke-linejoin="round" stroke-miterlimit="10" cx="515.501" cy="185.5" r="41"/><ellipse fill="none" stroke="#EB2177" stroke-width="4" stroke-linecap="round" stroke-linejoin="round" stroke-miterlimit="10" cx="510.501" cy="217.5" rx="4" ry="8"/><ellipse fill="none" stroke="#EB2177" stroke-width="4" stroke-linecap="round" stroke-linejoin="round" stroke-miterlimit="10" cx="524.001" cy="220.5" rx="2.5" ry="5"/><path fill="none" stroke="#EB2177" stroke-width="20" stroke-linecap="round" stroke-linejoin="round" stroke-miterlimit="10" d="M510.5 164.5M500.5 192.5l24-4"/><path fill="#ECECEC" stroke="#231F20" stroke-width="8" stroke-linecap="round" stroke-linejoin="round" stroke-miterlimit="10" d="M246.5 99.5c0 17.12 13.88 27 31 27h104c17.122 0 31-13.88 31-31v-32c0-17.12-13.878-31-31-31h-104c-17.12 0-31 13.88-31 31v36z"/><path fill="#ECECEC" stroke="#231F20" stroke-width="16" stroke-linecap="round" stroke-linejoin="round" stroke-miterlimit="10" d="M268.5 64.5h16M310.5 64.5h80M292.5 94.5h74"/><path fill="#C1BFB5" stroke="#231F20" stroke-width="4" stroke-linecap="round" stroke-linejoin="round" stroke-miterlimit="10" d="M462.5 140.075l12-19.575h-272l12 19.575z"/><path fill="#FFF6E3" stroke="#231F20" stroke-width="4" stroke-linecap="round" stroke-linejoin="round" stroke-miterlimit="10" d="M202.5 112.5h272v8h-272z"/><path fill="#444646" stroke="#231F20" stroke-width="4" stroke-linecap="round" stroke-linejoin="round" stroke-miterlimit="10" d="M214.5 140.5h248v96h-248z"/><path opacity=".5" fill="#FFF6E3" stroke="#231F20" stroke-width="4" stroke-miterlimit="10" d="M564.5 154.5"/><path fill="#C1BFB5" stroke="#231F20" stroke-width="4" stroke-linecap="round" stroke-linejoin="round" stroke-miterlimit="10" d="M460.5 208.5"/><path fill="#C1BFB5" stroke="#231F20" stroke-width="4" stroke-linecap="round" stroke-linejoin="round" stroke-miterlimit="10" d="M214.5 228.5h248v8h-248zM462.5 140.075l12-19.575h-272l12 19.575z"/><path fill="#FFF6E3" stroke="#231F20" stroke-width="4" stroke-linecap="round" stroke-linejoin="round" stroke-miterlimit="10" d="M202.5 112.5h272v8h-272z"/><path fill="#444646" stroke="#231F20" stroke-width="4" stroke-linecap="round" stroke-linejoin="round" stroke-miterlimit="10" d="M214.5 140.5h248v96h-248z"/><path opacity=".5" fill="#FFF6E3" stroke="#231F20" stroke-width="4" stroke-miterlimit="10" d="M564.5 154.5"/><path fill="#C1BFB5" stroke="#231F20" stroke-width="4" stroke-linecap="round" stroke-linejoin="round" stroke-miterlimit="10" d="M460.5 208.5"/><path fill="#C1BFB5" stroke="#231F20" stroke-width="4" stroke-linecap="round" stroke-linejoin="round" stroke-miterlimit="10" d="M214.5 228.5h248v8h-248z"/><path fill="none" stroke="#231F20" stroke-width="4" stroke-linecap="round" stroke-linejoin="round" stroke-miterlimit="10" d="M114.502 314.5v-172h88v220"/><path fill="none" stroke="#231F20" stroke-width="4" stroke-linecap="round" stroke-linejoin="round" stroke-miterlimit="10" d="M330.502 358.5v4h-116v-26c0-2.21 1.79-4 4-4h108c2.21 0 4 1.79 4 4v22z"/><path fill="#6C7071" stroke="#231F20" stroke-width="4" stroke-linecap="round" stroke-linejoin="round" stroke-miterlimit="10" d="M214.5 358.5c0 2.21-1.79 4-4 4h-50c-2.208 0-4-1.79-4-4v-8c0-2.21 1.792-4 4-4h50c2.21 0 4 1.79 4 4v8z"/><path fill="#4CABC2" stroke="#231F20" stroke-width="4" stroke-linecap="round" stroke-linejoin="round" stroke-miterlimit="10" d="M77.03 230.5H97.5c3.866 0 7-3.134 7-7v-68c0-3.866-3.133-7-7-7H77.03c-2.21 0-4 1.79-4 4l-16 64s-4 14 10 14h10zM192.5 170.5v39c0 3.865-3.132 7-7 7h-54c-3.864 0-7-3.135-7-7v-50c0-3.866 3.134-7 7-7h54c3.867 0 7 3.134 7 7v11z"/><path opacity=".2" fill="#fff" d="M182.5 152.5l-58 60v-16l42-44zM190.5 152.5l-61 63h-4l61-63zM108.5 148.5l-44 46 4-20 25-25zM104.5 208.5l-20 22h-16l36-38zM104.5 188.5L65 229h-4l43-45zM192.5 202.5l-12 14h-22l34-38z"/><path fill="none" stroke="#231F20" stroke-width="4" stroke-linecap="round" stroke-linejoin="round" stroke-miterlimit="10" d="M77.03 230.5H97.5c3.866 0 7-3.134 7-7v-68c0-3.866-3.133-7-7-7H77.03c-2.21 0-4 1.79-4 4l-16 64s-4 14 10 14h10zM192.5 170.5v39c0 3.865-3.132 7-7 7h-54c-3.864 0-7-3.135-7-7v-50c0-3.866 3.134-7 7-7h54c3.867 0 7 3.134 7 7v11z"/><path fill="#454646" stroke="#231F20" stroke-width="4" stroke-linecap="round" stroke-linejoin="round" stroke-miterlimit="10" d="M64.5 230.938l-3.816 1.195c-4.215 1.32-8.705-1.027-10.025-5.243l-5.382-17.177c-1.32-4.216 1.027-8.705 5.243-10.025l3.818-1.195L64.5 230.938zM54.5 247.5c0 1.656-1.343 3-3 3-1.655 0-3-1.344-3-3v-8c0-1.656 1.345-3 3-3 1.657 0 3 1.344 3 3v8zM51.5 236.5v-8"/><path fill="#454646" stroke="#231F20" stroke-width="4" stroke-linecap="round" stroke-linejoin="round" stroke-miterlimit="10" d="M192.5 236.5c0 5.523-10 12-10 12s-10-6.477-10-12 4.478-8 10-8 10 2.477 10 8zM172.5 236.5h20"/><path fill="#00245E" stroke="#231F20" stroke-width="4" stroke-linecap="round" stroke-linejoin="round" stroke-miterlimit="10" d="M208.5 44.5c0-4.418-3.58-8-8-8s-8 3.582-8 8v12h16v-12z"/><path fill="#ECECEC" stroke="#231F20" stroke-width="4" stroke-linecap="round" stroke-linejoin="round" stroke-miterlimit="10" d="M740.5 104.5c0-2.41-1.79-4-4-4h-128c-2.208 0-4 1.59-4 4v171.637c0 2.41 1.792 4.363 4 4.363h128c2.21 0 4-1.954 4-4.363V104.5z"/><path fill="none" stroke="#333" stroke-width="8" stroke-linecap="round" stroke-linejoin="round" stroke-miterlimit="10" d="M614.5 128.5h6"/><path fill="none" stroke="#EB2177" stroke-width="8" stroke-linecap="round" stroke-linejoin="round" stroke-miterlimit="10" d="M614.5 110.5h4M630.5 110.5h4M646.5 110.5h8M666.5 110.5h8M686.5 110.5h6M704.5 110.5h6M722.5 110.5h6"/><path fill="none" stroke="#333" stroke-width="8" stroke-linecap="round" stroke-linejoin="round" stroke-miterlimit="10" d="M632.5 128.5h16M614.5 142.5M730.5 144.5M730.5 160.5M730.5 178.5M730.5 224.5M614.5 164.5M626.5 142.5h4M626.5 164.5h4M614.5 178.5h4M630.5 178.5h4M646.5 178.5h14M614.5 198.5h6M632.5 198.5h10M654.5 198.5h8M674.5 198.5h8M694.5 198.5h12M614.5 222.5h10M636.5 222.5h4M652.5 222.5h4M668.5 222.5h12"/><path fill="none" stroke="#333" stroke-width="4" stroke-linecap="round" stroke-linejoin="round" stroke-miterlimit="10" d="M690.5 222.5h6M626.5 238.5h10M644.5 238.5h4M656.5 238.5h4M668.5 238.5h8M684.5 238.5h8M640.5 262.5h10M658.5 262.5h4M670.5 262.5h4M682.5 262.5h8M698.5 262.5h8M650.5 270.5h2M660.5 270.5h4M672.5 270.5h8M688.5 270.5h8M704.5 222.5h6"/><path fill="none" stroke="#333" stroke-width="8" stroke-linecap="round" stroke-linejoin="round" stroke-miterlimit="10" d="M642.5 164.5h2"/><path fill="none" stroke="#333" stroke-width="2" stroke-linecap="round" stroke-linejoin="round" stroke-miterlimit="10" d="M611.5 151.5h11.835M629.5 151.5h6.085M639.5 151.5h6.085M649.5 151.5h3.938M657.5 151.5h5.876M667.5 151.5h2M673.5 151.5h14.168M691.5 151.5h7.92M703.5 151.5h7.92M611.5 155.5h11.835M629.5 155.5h6.085M639.5 155.5h6.085M649.5 155.5h3.938M657.5 155.5h5.876M667.5 155.5h2M673.5 155.5h14.168M691.5 155.5h7.92M703.5 155.5h7.92M611.5 187.5h11.835M629.5 187.5h6.085M639.5 187.5h6.085M649.5 187.5h3.938M657.5 187.5h5.876M667.5 187.5h2M673.5 187.5h14.168M691.5 187.5h7.92M703.5 187.5h7.92M611.5 207.5h11.835M629.5 207.5h6.085M639.5 207.5h6.085M649.5 207.5h3.938M657.5 207.5h5.876M667.5 207.5h2M673.5 207.5h14.168M691.5 207.5h7.92M703.5 207.5h7.92M611.5 211.5h11.835M629.5 211.5h6.085M639.5 211.5h6.085M649.5 211.5h3.938M657.5 211.5h5.876M667.5 211.5h2M673.5 211.5h14.168M691.5 211.5h7.92M703.5 211.5h7.92"/><path fill="none" stroke="#333" stroke-width="8" stroke-linecap="round" stroke-linejoin="round" stroke-miterlimit="10" d="M642.5 142.5h10M728.5 198.5h2M728.5 238.5h2"/><path fill="none" stroke="#333" stroke-width="4" stroke-linecap="round" stroke-linejoin="round" stroke-miterlimit="10" d="M612.5 239.37l5.743-1.74"/><path fill="none" stroke="#EB2177" stroke-width="8" stroke-linecap="round" stroke-linejoin="round" stroke-miterlimit="10" d="M710.5 250.5h20"/><path fill="none" stroke="#333" stroke-width="8" stroke-linecap="round" stroke-linejoin="round" stroke-miterlimit="10" d="M646.5 250.5h10M692.5 250.5h6M680.5 250.5M668.5 250.5"/><path fill="#EB2177" d="M617.907 245.01c-2.234 1.306-2.348 4.992.435 5.758 2.94.81 5.17-3.058 3.02-5.208-.917-.917-2.412-1.128-3.538-.468-1.38.808-1.455 2.32-1.19 3.717.23 1.22-.104 1.603-.89 2.497-.768.878-1.685 1.612-2.823 1.866-3.145.704-1.81 5.524 1.33 4.822 2.365-.53 4.18-2.128 5.71-3.943.845-1.002 1.532-2.005 1.664-3.342.112-1.134-.14-2.167-.157-3.27l-.342 1.26c.04-.06.08-.124.12-.187l-1.494 1.15c.1-.02.198-.036.297-.054-.643-.085-1.284-.17-1.927-.253l-.568-.52-.342-1.263.005.295.342-1.263.518-.43c.42-.115.84-.23 1.262-.343-.11.008-.22.016-.328.022l1.26.342.592.572c.114.42.23.84.342 1.262l-.77 1.293c2.777-1.627.262-5.95-2.527-4.316zM617.085 246.584c-.304.002-.607.008-.91 0-.287-.023-.247-.014.117.028-.564-.092.432.28-.055 0 .522.575.653.684.392.324-.33-.483-.077-.62-.005.373-.036-.497-.064-.998-.213-1.476-.406-1.3-1.73-2.116-3.076-1.746-1.28.353-2.15 1.775-1.746 3.076.206.658.007-.488.035.145.027.588.112 1.094.385 1.618.39.748.886 1.39 1.563 1.896 1 .75 2.316.767 3.512.76 1.362-.01 2.5-1.13 2.5-2.5 0-1.355-1.137-2.51-2.5-2.5zM616.67 249.084c-.75.025-1.56.183-2.19.24-.578.052-.147.06.11.168-.233-.144-.232-.128.004.047-.112-.1-.22-.2-.326-.308-.975-.95-2.563-.972-3.535 0-.955.954-.975 2.584 0 3.535.707.69 1.533 1.302 2.532 1.465 1.19.195 2.318-.11 3.403-.148 1.36-.047 2.5-1.102 2.5-2.5 0-1.327-1.137-2.547-2.5-2.5zM638.5 252.5c0 2.21-1.79 4-4 4h-4c-2.208 0-4-1.79-4-4v-4c0-2.21 1.792-4 4-4h4c2.21 0 4 1.79 4 4v4zM674.5 146.5c-7.72 0-14-6.28-14-14s6.28-14 14-14 14 6.28 14 14-6.278 14-14 14zm0-26.695c-7 0-12.696 5.693-12.696 12.695s5.695 12.698 12.697 12.698c7.004 0 12.7-5.696 12.7-12.698s-5.696-12.695-12.7-12.695zM672.873 146.176c-1.112 0-1.953-1.4-1.953-3.258 0-1.855.84-3.256 1.953-3.256 1.114 0 1.952 1.4 1.952 3.256 0 1.856-.838 3.258-1.952 3.258zm0-5.212c-.162 0-.65.693-.65 1.954 0 1.262.488 1.954.65 1.954.164 0 .653-.692.653-1.954 0-1.26-.49-1.954-.653-1.954zM677.27 146.176c-.85 0-1.466-.96-1.466-2.28 0-1.32.615-2.28 1.465-2.28s1.464.96 1.464 2.28c0 1.32-.616 2.28-1.465 2.28zm0-3.124c-.078.164-.163.45-.163.845 0 .394.085.68.162.846.078-.167.16-.452.16-.846 0-.396-.082-.68-.16-.845zM672.873 128.918c-.856 0-1.695-.347-2.3-.953-.608-.605-.954-1.444-.954-2.303 0-.854.345-1.696.953-2.3.604-.607 1.443-.955 2.3-.955s1.696.348 2.302.954c.605.605.954 1.448.954 2.302 0 .858-.35 1.697-.955 2.303-.606.606-1.446.953-2.302.953zM669.614 138.036c-1.563 0-2.943-1.13-3.21-2.723-.294-1.772.905-3.45 2.68-3.746l7.812-1.3c1.77-.3 3.45.9 3.747 2.675.296 1.772-.903 3.45-2.676 3.746l-7.814 1.302c-.18.03-.36.046-.54.046z"/><path fill="#CE3746" stroke="#231F20" stroke-width="4" stroke-linecap="round" stroke-linejoin="round" stroke-miterlimit="10" d="M382.5 202.5v20c0 2.21-1.79 4-4 4-2.208 0-4-1.79-4-4v-20l4-4 4 4zM378.5 198.5v-4"/><path fill="#ECECEC" stroke="#231F20" stroke-width="4" stroke-linecap="round" stroke-linejoin="round" stroke-miterlimit="10" d="M450.5 218.5h-20v8h20v-8zM450.5 210.5h-20v8h20v-8zM450.5 202.5h-20v8h20v-8z"/><path fill="#939A9F" stroke="#231F20" stroke-width="4" stroke-linecap="round" stroke-linejoin="round" stroke-miterlimit="10" d="M398.5 226.5l-4-24h24l-4 24zM266.5 216.5h-40v8h40v-8zM266.5 198.5h-40v18h40v-18z"/><path fill="#00245E" stroke="#231F20" stroke-width="4" stroke-linecap="round" stroke-linejoin="round" stroke-miterlimit="10" d="M192.5 52.5h16v4h-16z"/></svg>