<?xml version="1.0" encoding="utf-8"?>
<!-- Generator: Adobe Illustrator 16.0.1, SVG Export Plug-In . SVG Version: 6.00 Build 0)  -->
<!DOCTYPE svg PUBLIC "-//W3C//DTD SVG 1.1//EN" "http://www.w3.org/Graphics/SVG/1.1/DTD/svg11.dtd">
<svg version="1.1" id="Layer_1" xmlns="http://www.w3.org/2000/svg" xmlns:xlink="http://www.w3.org/1999/xlink" x="0px" y="0px"
	 width="728px" height="400px" viewBox="14.5 0 728 400" enable-background="new 14.5 0 728 400" xml:space="preserve">
<rect x="374.499" y="294.5" fill="#444646" stroke="#231F20" stroke-width="4" stroke-linecap="round" stroke-linejoin="round" stroke-miterlimit="10" width="128" height="60"/>
<polyline fill="#ECECEC" stroke="#231F20" stroke-width="4" stroke-linecap="round" stroke-linejoin="round" stroke-miterlimit="10" points="
	604.501,322.5 616.501,320.5 620.501,356.5 742.501,344.5 734.501,268.5 608.501,262.5 610.501,280.5 614.501,312.5 602.501,314.5 
	"/>
<rect x="34.501" y="298.5" fill="#444646" stroke="#231F20" stroke-width="4" stroke-linecap="round" stroke-linejoin="round" stroke-miterlimit="10" width="130" height="56"/>
<path opacity="0.5" fill="none" stroke="#B9529F" stroke-width="4" stroke-linecap="round" stroke-linejoin="round" stroke-miterlimit="10" d="
	M376.501,170.5"/>
<g>
	<circle fill="#5E6363" stroke="#231F20" stroke-width="4" stroke-miterlimit="10" cx="440.501" cy="354.5" r="44"/>
	<circle fill="#ECECEC" stroke="#231F20" stroke-width="4" stroke-miterlimit="10" cx="440.501" cy="354.5" r="24"/>
	<circle fill="#111111" cx="440.501" cy="354.5" r="8"/>
	<g>
		<circle fill="#111111" cx="440.501" cy="342.5" r="2"/>
		<circle fill="#111111" cx="440.501" cy="366.5" r="2"/>
	</g>
	<g>
		<circle fill="#111111" cx="448.987" cy="346.015" r="2"/>
		<circle fill="#111111" cx="432.017" cy="362.986" r="2"/>
	</g>
	<g>
		<circle fill="#111111" cx="452.501" cy="354.501" r="2.001"/>
		<circle fill="#111111" cx="428.501" cy="354.501" r="2"/>
	</g>
	<g>
		<circle fill="#111111" cx="448.986" cy="362.986" r="2"/>
		<circle fill="#111111" cx="432.016" cy="346.016" r="2.001"/>
	</g>
	<g>
		<path fill="#111111" d="M419.183,357.572c1.912-1.105,4.357-0.449,5.463,1.463l4,6.928c1.104,1.914,0.449,4.36-1.463,5.465l0,0
			c-1.914,1.104-4.361,0.449-5.465-1.465l-4-6.928C416.612,361.123,417.269,358.676,419.183,357.572L419.183,357.572z"/>
		<path fill="#111111" d="M453.823,337.572c1.912-1.105,4.359-0.449,5.463,1.463l4,6.928c1.104,1.914,0.449,4.36-1.463,5.467l0,0
			c-1.914,1.103-4.361,0.447-5.465-1.467l-4-6.928C451.253,341.123,451.909,338.676,453.823,337.572L453.823,337.572z"/>
	</g>
	<g>
		<path fill="#111111" d="M427.181,337.572c1.914,1.104,2.568,3.551,1.465,5.464l-4,6.928c-1.105,1.913-3.551,2.569-5.465,1.465l0,0
			c-1.912-1.104-2.568-3.552-1.463-5.465l4-6.928C422.821,337.123,425.269,336.468,427.181,337.572L427.181,337.572z"/>
		<path fill="#111111" d="M461.821,357.572c1.914,1.104,2.569,3.551,1.465,5.464l-4,6.928c-1.104,1.913-3.551,2.569-5.465,1.465l0,0
			c-1.912-1.104-2.568-3.552-1.463-5.465l4-6.928C457.462,357.123,459.909,356.468,461.821,357.572L461.821,357.572z"/>
	</g>
	<g>
		<path fill="#111111" d="M448.501,334.5c0,2.209-1.791,4-4,4h-8c-2.209,0-4-1.791-4-4l0,0c0-2.209,1.791-4,4-4h8
			C446.71,330.5,448.501,332.291,448.501,334.5L448.501,334.5z"/>
		<path fill="#111111" d="M448.501,374.5c0,2.209-1.791,4-4,4h-8c-2.209,0-4-1.791-4-4l0,0c0-2.209,1.791-4,4-4h8
			C446.71,370.5,448.501,372.291,448.501,374.5L448.501,374.5z"/>
	</g>
	<circle fill="none" stroke="#231F20" stroke-width="4" stroke-miterlimit="10" cx="440.501" cy="354.5" r="24"/>
	<circle fill="#231F20" cx="440.501" cy="350.5" r="2"/>
	<circle fill="#231F20" cx="444.501" cy="354.5" r="2"/>
	<circle fill="#231F20" cx="440.501" cy="358.5" r="2"/>
	<circle fill="#231F20" cx="436.501" cy="354.5" r="2"/>
</g>
<g>
	<circle fill="#5E6363" stroke="#231F20" stroke-width="4" stroke-miterlimit="10" cx="101.501" cy="354.5" r="44"/>
	<circle fill="#ECECEC" stroke="#231F20" stroke-width="4" stroke-miterlimit="10" cx="101.501" cy="354.5" r="24"/>
	<circle fill="#111111" cx="101.501" cy="354.5" r="8"/>
	<g>
		<circle fill="#111111" cx="101.501" cy="342.5" r="2"/>
		<circle fill="#111111" cx="101.501" cy="366.5" r="2"/>
	</g>
	<g>
		<circle fill="#111111" cx="109.987" cy="346.015" r="2"/>
		<circle fill="#111111" cx="93.017" cy="362.986" r="2"/>
	</g>
	<g>
		<circle fill="#111111" cx="113.501" cy="354.501" r="2.001"/>
		<circle fill="#111111" cx="89.501" cy="354.501" r="2"/>
	</g>
	<g>
		<circle fill="#111111" cx="109.986" cy="362.986" r="2"/>
		<circle fill="#111111" cx="93.016" cy="346.016" r="2.001"/>
	</g>
	<g>
		<path fill="#111111" d="M80.183,357.572c1.912-1.105,4.357-0.449,5.463,1.463l4,6.928c1.104,1.914,0.449,4.36-1.463,5.465l0,0
			c-1.914,1.104-4.361,0.449-5.465-1.465l-4-6.928C77.612,361.123,78.269,358.676,80.183,357.572L80.183,357.572z"/>
		<path fill="#111111" d="M114.823,337.572c1.912-1.105,4.359-0.449,5.463,1.463l4,6.928c1.104,1.914,0.449,4.36-1.463,5.467l0,0
			c-1.914,1.103-4.361,0.447-5.465-1.467l-4-6.928C112.253,341.123,112.909,338.676,114.823,337.572L114.823,337.572z"/>
	</g>
	<g>
		<path fill="#111111" d="M88.181,337.572c1.914,1.104,2.568,3.551,1.465,5.464l-4,6.928c-1.105,1.913-3.551,2.569-5.465,1.465l0,0
			c-1.912-1.104-2.568-3.552-1.463-5.465l4-6.928C83.821,337.123,86.269,336.468,88.181,337.572L88.181,337.572z"/>
		<path fill="#111111" d="M122.821,357.572c1.914,1.104,2.569,3.551,1.465,5.464l-4,6.928c-1.104,1.913-3.551,2.569-5.465,1.465l0,0
			c-1.912-1.104-2.568-3.552-1.463-5.465l4-6.928C118.462,357.123,120.909,356.468,122.821,357.572L122.821,357.572z"/>
	</g>
	<g>
		<path fill="#111111" d="M109.501,334.5c0,2.209-1.791,4-4,4h-8c-2.209,0-4-1.791-4-4l0,0c0-2.209,1.791-4,4-4h8
			C107.71,330.5,109.501,332.291,109.501,334.5L109.501,334.5z"/>
		<path fill="#111111" d="M109.501,374.5c0,2.209-1.791,4-4,4h-8c-2.209,0-4-1.791-4-4l0,0c0-2.209,1.791-4,4-4h8
			C107.71,370.5,109.501,372.291,109.501,374.5L109.501,374.5z"/>
	</g>
	<circle fill="none" stroke="#231F20" stroke-width="4" stroke-miterlimit="10" cx="101.501" cy="354.5" r="24"/>
	<circle fill="#231F20" cx="101.501" cy="350.5" r="2"/>
	<circle fill="#231F20" cx="105.501" cy="354.5" r="2"/>
	<circle fill="#231F20" cx="101.501" cy="358.5" r="2"/>
	<circle fill="#231F20" cx="97.501" cy="354.5" r="2"/>
</g>
<path fill="#ECECEC" stroke="#231F20" stroke-width="4" stroke-linecap="round" stroke-linejoin="round" stroke-miterlimit="10" d="
	M536.501,56.5h-408c0,0-48-2-48,46l-6,46.001l-20,73.999c0,0-34.002,0-34.002,28v8c-2.207,0-3.998,1.789-3.998,3.998v0.002v50v0.001
	c0,2.209,1.791,3.999,3.998,3.999l10.002,38h14h2v-7c0-19,13.999-33,41-33h28c26.999,0,41,14,41,33v15H384.5l0.001-9
	c0-17.121,13.879-31,31-31h50c17.121,0,31,13.879,31,31l0.001,9l109.999-6l-4-50c2.209,0,4-1.791,4-4l-2-30c0-2.209-1.791-4-4-4
	l-16-156l-4-26C580.501,86.5,578.501,56.5,536.501,56.5z"/>
<circle fill="none" stroke="#EB2177" stroke-width="4" stroke-linecap="round" stroke-linejoin="round" stroke-miterlimit="10" cx="515.501" cy="185.5" r="41"/>
<ellipse fill="none" stroke="#EB2177" stroke-width="4" stroke-linecap="round" stroke-linejoin="round" stroke-miterlimit="10" cx="510.501" cy="217.5" rx="4" ry="8"/>
<ellipse fill="none" stroke="#EB2177" stroke-width="4" stroke-linecap="round" stroke-linejoin="round" stroke-miterlimit="10" cx="524.001" cy="220.5" rx="2.5" ry="5"/>
<line fill="none" stroke="#EB2177" stroke-width="20" stroke-linecap="round" stroke-linejoin="round" stroke-miterlimit="10" x1="510.501" y1="164.5" x2="510.501" y2="164.5"/>
<line fill="none" stroke="#EB2177" stroke-width="20" stroke-linecap="round" stroke-linejoin="round" stroke-miterlimit="10" x1="500.501" y1="192.5" x2="524.501" y2="188.5"/>
<path fill="#ECECEC" stroke="#231F20" stroke-width="8" stroke-linecap="round" stroke-linejoin="round" stroke-miterlimit="10" d="
	M246.501,99.5c0,17.121,13.879,27,31,27h104c17.121,0,31-13.879,31-31v-32c0-17.121-13.879-31-31-31h-104c-17.121,0-31,13.879-31,31
	V99.5z"/>
<line fill="#ECECEC" stroke="#231F20" stroke-width="16" stroke-linecap="round" stroke-linejoin="round" stroke-miterlimit="10" x1="268.501" y1="64.5" x2="284.501" y2="64.5"/>
<line fill="#ECECEC" stroke="#231F20" stroke-width="16" stroke-linecap="round" stroke-linejoin="round" stroke-miterlimit="10" x1="310.501" y1="64.5" x2="390.501" y2="64.5"/>
<line fill="#ECECEC" stroke="#231F20" stroke-width="16" stroke-linecap="round" stroke-linejoin="round" stroke-miterlimit="10" x1="292.501" y1="94.5" x2="366.501" y2="94.5"/>
<polygon fill="#C1BFB5" stroke="#231F20" stroke-width="4" stroke-linecap="round" stroke-linejoin="round" stroke-miterlimit="10" points="
	462.501,140.075 474.501,120.5 202.501,120.5 214.501,140.075 "/>
<rect x="202.501" y="112.5" fill="#FFF6E3" stroke="#231F20" stroke-width="4" stroke-linecap="round" stroke-linejoin="round" stroke-miterlimit="10" width="272" height="8"/>
<rect x="214.501" y="140.5" fill="#444646" stroke="#231F20" stroke-width="4" stroke-linecap="round" stroke-linejoin="round" stroke-miterlimit="10" width="248" height="96"/>
<path opacity="0.5" fill="#FFF6E3" stroke="#231F20" stroke-width="4" stroke-miterlimit="10" d="M564.501,154.5"/>
<path fill="#C1BFB5" stroke="#231F20" stroke-width="4" stroke-linecap="round" stroke-linejoin="round" stroke-miterlimit="10" d="
	M460.501,208.5"/>
<rect x="214.501" y="228.5" fill="#C1BFB5" stroke="#231F20" stroke-width="4" stroke-linecap="round" stroke-linejoin="round" stroke-miterlimit="10" width="248" height="8"/>
<polygon fill="#C1BFB5" stroke="#231F20" stroke-width="4" stroke-linecap="round" stroke-linejoin="round" stroke-miterlimit="10" points="
	462.501,140.075 474.501,120.5 202.501,120.5 214.501,140.075 "/>
<rect x="202.501" y="112.5" fill="#FFF6E3" stroke="#231F20" stroke-width="4" stroke-linecap="round" stroke-linejoin="round" stroke-miterlimit="10" width="272" height="8"/>
<rect x="214.501" y="140.5" fill="#444646" stroke="#231F20" stroke-width="4" stroke-linecap="round" stroke-linejoin="round" stroke-miterlimit="10" width="248" height="96"/>
<path opacity="0.5" fill="#FFF6E3" stroke="#231F20" stroke-width="4" stroke-miterlimit="10" d="M564.501,154.5"/>
<path fill="#C1BFB5" stroke="#231F20" stroke-width="4" stroke-linecap="round" stroke-linejoin="round" stroke-miterlimit="10" d="
	M460.501,208.5"/>
<rect x="214.501" y="228.5" fill="#C1BFB5" stroke="#231F20" stroke-width="4" stroke-linecap="round" stroke-linejoin="round" stroke-miterlimit="10" width="248" height="8"/>
<polyline fill="none" stroke="#231F20" stroke-width="4" stroke-linecap="round" stroke-linejoin="round" stroke-miterlimit="10" points="
	114.502,314.5 114.501,142.5 202.502,142.5 202.502,362.5 "/>
<path fill="none" stroke="#231F20" stroke-width="4" stroke-linecap="round" stroke-linejoin="round" stroke-miterlimit="10" d="
	M330.502,358.5c0,2.209-0.001,4-0.001,4H214.502c0,0,0-1.791,0-4v-22c0-2.209,1.791-4,4-4h108c2.209,0,4,1.791,4,4V358.5z"/>
<path fill="#6C7071" stroke="#231F20" stroke-width="4" stroke-linecap="round" stroke-linejoin="round" stroke-miterlimit="10" d="
	M214.501,358.5c0,2.209-1.791,4-4,4h-50c-2.209,0-4-1.791-4-4v-8c0-2.209,1.791-4,4-4h50c2.209,0,4,1.791,4,4V358.5z"/>
<path fill="#4CABC2" stroke="#231F20" stroke-width="4" stroke-linecap="round" stroke-linejoin="round" stroke-miterlimit="10" d="
	M77.03,230.5h20.471c3.865,0,7-3.134,7-7v-57v-11c0-3.866-3.134-7-7-7H87.03h-10c-2.209,0-4,1.791-4,4l-16,64c0,0-4,14,10,14H77.03z
	"/>
<path fill="#4CABC2" stroke="#231F20" stroke-width="4" stroke-linecap="round" stroke-linejoin="round" stroke-miterlimit="10" d="
	M192.501,170.5v39c0,3.865-3.133,7-7,7h-11h-32h-11c-3.865,0-7-3.135-7-7v-39v-11c0-3.866,3.133-7,7-7h11h32h11c3.866,0,7,3.134,7,7
	V170.5z"/>
<polygon opacity="0.2" fill="#FFFFFF" points="182.501,152.5 124.501,212.5 124.501,196.5 166.501,152.5 "/>
<polygon opacity="0.2" fill="#FFFFFF" points="190.501,152.5 129.501,215.5 125.501,215.5 186.501,152.5 "/>
<polygon opacity="0.2" fill="#FFFFFF" points="108.501,148.5 64.501,194.5 68.501,174.5 93.501,149.5 "/>
<polygon opacity="0.2" fill="#FFFFFF" points="104.501,208.5 84.501,230.5 68.501,230.5 104.501,192.5 "/>
<polygon opacity="0.2" fill="#FFFFFF" points="104.501,188.5 65.001,229 61.001,229 104.001,184 "/>
<polygon opacity="0.2" fill="#FFFFFF" points="192.501,202.5 180.501,216.5 158.501,216.5 192.501,178.5 "/>
<path fill="none" stroke="#231F20" stroke-width="4" stroke-linecap="round" stroke-linejoin="round" stroke-miterlimit="10" d="
	M77.03,230.5h20.471c3.865,0,7-3.134,7-7v-57v-11c0-3.866-3.134-7-7-7H87.03h-10c-2.209,0-4,1.791-4,4l-16,64c0,0-4,14,10,14H77.03z
	"/>
<path fill="none" stroke="#231F20" stroke-width="4" stroke-linecap="round" stroke-linejoin="round" stroke-miterlimit="10" d="
	M192.501,170.5v39c0,3.865-3.133,7-7,7h-11h-32h-11c-3.865,0-7-3.135-7-7v-39v-11c0-3.866,3.133-7,7-7h11h32h11c3.866,0,7,3.134,7,7
	V170.5z"/>
<path fill="#454646" stroke="#231F20" stroke-width="4" stroke-linecap="round" stroke-linejoin="round" stroke-miterlimit="10" d="
	M64.501,230.938l-3.817,1.195c-4.215,1.32-8.705-1.027-10.025-5.243l-5.381-17.177c-1.32-4.216,1.027-8.705,5.243-10.025
	l3.817-1.195L64.501,230.938z"/>
<path fill="#454646" stroke="#231F20" stroke-width="4" stroke-linecap="round" stroke-linejoin="round" stroke-miterlimit="10" d="
	M54.501,247.5c0,1.656-1.344,3-3,3l0,0c-1.656,0-3-1.344-3-3v-8c0-1.656,1.344-3,3-3l0,0c1.656,0,3,1.344,3,3V247.5z"/>
<line fill="#454646" stroke="#231F20" stroke-width="4" stroke-linecap="round" stroke-linejoin="round" stroke-miterlimit="10" x1="51.501" y1="236.5" x2="51.501" y2="228.501"/>
<path fill="#454646" stroke="#231F20" stroke-width="4" stroke-linecap="round" stroke-linejoin="round" stroke-miterlimit="10" d="
	M192.501,236.5c0,5.523-10,12-10,12s-10-6.477-10-12s4.477-8,10-8S192.501,230.977,192.501,236.5z"/>
<line fill="#454646" stroke="#231F20" stroke-width="4" stroke-linecap="round" stroke-linejoin="round" stroke-miterlimit="10" x1="172.501" y1="236.5" x2="192.501" y2="236.5"/>
<path fill="#00245E" stroke="#231F20" stroke-width="4" stroke-linecap="round" stroke-linejoin="round" stroke-miterlimit="10" d="
	M208.501,44.5c0-4.418-3.582-8-8-8s-8,3.582-8,8v12h16V44.5z"/>
<path fill="#ECECEC" stroke="#231F20" stroke-width="4" stroke-linecap="round" stroke-linejoin="round" stroke-miterlimit="10" d="
	M740.501,104.5c0-2.409-1.791-4-4-4h-128c-2.209,0-4,1.591-4,4v171.637c0,2.409,1.791,4.363,4,4.363h128c2.209,0,4-1.954,4-4.363
	V104.5z"/>
<line fill="none" stroke="#333333" stroke-width="8" stroke-linecap="round" stroke-linejoin="round" stroke-miterlimit="10" x1="614.501" y1="128.5" x2="620.501" y2="128.5"/>
<line fill="none" stroke="#EB2177" stroke-width="8" stroke-linecap="round" stroke-linejoin="round" stroke-miterlimit="10" x1="614.501" y1="110.5" x2="618.501" y2="110.5"/>
<line fill="none" stroke="#EB2177" stroke-width="8" stroke-linecap="round" stroke-linejoin="round" stroke-miterlimit="10" x1="630.501" y1="110.5" x2="634.501" y2="110.5"/>
<line fill="none" stroke="#EB2177" stroke-width="8" stroke-linecap="round" stroke-linejoin="round" stroke-miterlimit="10" x1="646.501" y1="110.5" x2="654.501" y2="110.5"/>
<line fill="none" stroke="#EB2177" stroke-width="8" stroke-linecap="round" stroke-linejoin="round" stroke-miterlimit="10" x1="666.501" y1="110.5" x2="674.501" y2="110.5"/>
<line fill="none" stroke="#EB2177" stroke-width="8" stroke-linecap="round" stroke-linejoin="round" stroke-miterlimit="10" x1="686.501" y1="110.5" x2="692.501" y2="110.5"/>
<line fill="none" stroke="#EB2177" stroke-width="8" stroke-linecap="round" stroke-linejoin="round" stroke-miterlimit="10" x1="704.501" y1="110.5" x2="710.501" y2="110.5"/>
<line fill="none" stroke="#EB2177" stroke-width="8" stroke-linecap="round" stroke-linejoin="round" stroke-miterlimit="10" x1="722.501" y1="110.5" x2="728.501" y2="110.5"/>
<line fill="none" stroke="#333333" stroke-width="8" stroke-linecap="round" stroke-linejoin="round" stroke-miterlimit="10" x1="632.501" y1="128.5" x2="648.501" y2="128.5"/>
<line fill="none" stroke="#333333" stroke-width="8" stroke-linecap="round" stroke-linejoin="round" stroke-miterlimit="10" x1="614.501" y1="142.5" x2="614.501" y2="142.5"/>
<line fill="none" stroke="#333333" stroke-width="8" stroke-linecap="round" stroke-linejoin="round" stroke-miterlimit="10" x1="730.501" y1="144.5" x2="730.501" y2="144.5"/>
<line fill="none" stroke="#333333" stroke-width="8" stroke-linecap="round" stroke-linejoin="round" stroke-miterlimit="10" x1="730.501" y1="160.5" x2="730.501" y2="160.5"/>
<line fill="none" stroke="#333333" stroke-width="8" stroke-linecap="round" stroke-linejoin="round" stroke-miterlimit="10" x1="730.501" y1="178.5" x2="730.501" y2="178.5"/>
<line fill="none" stroke="#333333" stroke-width="8" stroke-linecap="round" stroke-linejoin="round" stroke-miterlimit="10" x1="730.501" y1="224.5" x2="730.501" y2="224.5"/>
<line fill="none" stroke="#333333" stroke-width="8" stroke-linecap="round" stroke-linejoin="round" stroke-miterlimit="10" x1="614.501" y1="164.5" x2="614.501" y2="164.5"/>
<line fill="none" stroke="#333333" stroke-width="8" stroke-linecap="round" stroke-linejoin="round" stroke-miterlimit="10" x1="626.501" y1="142.5" x2="630.501" y2="142.5"/>
<line fill="none" stroke="#333333" stroke-width="8" stroke-linecap="round" stroke-linejoin="round" stroke-miterlimit="10" x1="626.501" y1="164.5" x2="630.501" y2="164.5"/>
<line fill="none" stroke="#333333" stroke-width="8" stroke-linecap="round" stroke-linejoin="round" stroke-miterlimit="10" x1="614.501" y1="178.5" x2="618.501" y2="178.5"/>
<line fill="none" stroke="#333333" stroke-width="8" stroke-linecap="round" stroke-linejoin="round" stroke-miterlimit="10" x1="630.501" y1="178.5" x2="634.501" y2="178.5"/>
<line fill="none" stroke="#333333" stroke-width="8" stroke-linecap="round" stroke-linejoin="round" stroke-miterlimit="10" x1="646.501" y1="178.5" x2="660.501" y2="178.5"/>
<line fill="none" stroke="#333333" stroke-width="8" stroke-linecap="round" stroke-linejoin="round" stroke-miterlimit="10" x1="614.501" y1="198.5" x2="620.501" y2="198.5"/>
<line fill="none" stroke="#333333" stroke-width="8" stroke-linecap="round" stroke-linejoin="round" stroke-miterlimit="10" x1="632.501" y1="198.5" x2="642.501" y2="198.5"/>
<line fill="none" stroke="#333333" stroke-width="8" stroke-linecap="round" stroke-linejoin="round" stroke-miterlimit="10" x1="654.501" y1="198.5" x2="662.501" y2="198.5"/>
<line fill="none" stroke="#333333" stroke-width="8" stroke-linecap="round" stroke-linejoin="round" stroke-miterlimit="10" x1="674.501" y1="198.5" x2="682.501" y2="198.5"/>
<line fill="none" stroke="#333333" stroke-width="8" stroke-linecap="round" stroke-linejoin="round" stroke-miterlimit="10" x1="694.501" y1="198.5" x2="706.501" y2="198.5"/>
<line fill="none" stroke="#333333" stroke-width="8" stroke-linecap="round" stroke-linejoin="round" stroke-miterlimit="10" x1="614.501" y1="222.5" x2="624.501" y2="222.5"/>
<line fill="none" stroke="#333333" stroke-width="8" stroke-linecap="round" stroke-linejoin="round" stroke-miterlimit="10" x1="636.501" y1="222.5" x2="640.501" y2="222.5"/>
<line fill="none" stroke="#333333" stroke-width="8" stroke-linecap="round" stroke-linejoin="round" stroke-miterlimit="10" x1="652.501" y1="222.5" x2="656.501" y2="222.5"/>
<line fill="none" stroke="#333333" stroke-width="8" stroke-linecap="round" stroke-linejoin="round" stroke-miterlimit="10" x1="668.501" y1="222.5" x2="680.501" y2="222.5"/>
<line fill="none" stroke="#333333" stroke-width="4" stroke-linecap="round" stroke-linejoin="round" stroke-miterlimit="10" x1="690.501" y1="222.5" x2="696.501" y2="222.5"/>
<line fill="none" stroke="#333333" stroke-width="4" stroke-linecap="round" stroke-linejoin="round" stroke-miterlimit="10" x1="626.501" y1="238.5" x2="636.501" y2="238.5"/>
<line fill="none" stroke="#333333" stroke-width="4" stroke-linecap="round" stroke-linejoin="round" stroke-miterlimit="10" x1="644.501" y1="238.5" x2="648.501" y2="238.5"/>
<line fill="none" stroke="#333333" stroke-width="4" stroke-linecap="round" stroke-linejoin="round" stroke-miterlimit="10" x1="656.501" y1="238.5" x2="660.501" y2="238.5"/>
<line fill="none" stroke="#333333" stroke-width="4" stroke-linecap="round" stroke-linejoin="round" stroke-miterlimit="10" x1="668.501" y1="238.5" x2="676.501" y2="238.5"/>
<line fill="none" stroke="#333333" stroke-width="4" stroke-linecap="round" stroke-linejoin="round" stroke-miterlimit="10" x1="684.501" y1="238.5" x2="692.501" y2="238.5"/>
<line fill="none" stroke="#333333" stroke-width="4" stroke-linecap="round" stroke-linejoin="round" stroke-miterlimit="10" x1="640.501" y1="262.5" x2="650.501" y2="262.5"/>
<line fill="none" stroke="#333333" stroke-width="4" stroke-linecap="round" stroke-linejoin="round" stroke-miterlimit="10" x1="658.501" y1="262.5" x2="662.501" y2="262.5"/>
<line fill="none" stroke="#333333" stroke-width="4" stroke-linecap="round" stroke-linejoin="round" stroke-miterlimit="10" x1="670.501" y1="262.5" x2="674.501" y2="262.5"/>
<line fill="none" stroke="#333333" stroke-width="4" stroke-linecap="round" stroke-linejoin="round" stroke-miterlimit="10" x1="682.501" y1="262.5" x2="690.501" y2="262.5"/>
<line fill="none" stroke="#333333" stroke-width="4" stroke-linecap="round" stroke-linejoin="round" stroke-miterlimit="10" x1="698.501" y1="262.5" x2="706.501" y2="262.5"/>
<line fill="none" stroke="#333333" stroke-width="4" stroke-linecap="round" stroke-linejoin="round" stroke-miterlimit="10" x1="650.501" y1="270.5" x2="652.501" y2="270.5"/>
<line fill="none" stroke="#333333" stroke-width="4" stroke-linecap="round" stroke-linejoin="round" stroke-miterlimit="10" x1="660.501" y1="270.5" x2="664.501" y2="270.5"/>
<line fill="none" stroke="#333333" stroke-width="4" stroke-linecap="round" stroke-linejoin="round" stroke-miterlimit="10" x1="672.501" y1="270.5" x2="680.501" y2="270.5"/>
<line fill="none" stroke="#333333" stroke-width="4" stroke-linecap="round" stroke-linejoin="round" stroke-miterlimit="10" x1="688.501" y1="270.5" x2="696.501" y2="270.5"/>
<line fill="none" stroke="#333333" stroke-width="4" stroke-linecap="round" stroke-linejoin="round" stroke-miterlimit="10" x1="704.501" y1="222.5" x2="710.501" y2="222.5"/>
<line fill="none" stroke="#333333" stroke-width="8" stroke-linecap="round" stroke-linejoin="round" stroke-miterlimit="10" x1="642.501" y1="164.5" x2="644.501" y2="164.5"/>
<line fill="none" stroke="#333333" stroke-width="2" stroke-linecap="round" stroke-linejoin="round" stroke-miterlimit="10" x1="611.501" y1="151.5" x2="623.335" y2="151.5"/>
<line fill="none" stroke="#333333" stroke-width="2" stroke-linecap="round" stroke-linejoin="round" stroke-miterlimit="10" x1="629.501" y1="151.5" x2="635.585" y2="151.5"/>
<line fill="none" stroke="#333333" stroke-width="2" stroke-linecap="round" stroke-linejoin="round" stroke-miterlimit="10" x1="639.501" y1="151.5" x2="645.585" y2="151.5"/>
<line fill="none" stroke="#333333" stroke-width="2" stroke-linecap="round" stroke-linejoin="round" stroke-miterlimit="10" x1="649.501" y1="151.5" x2="653.438" y2="151.5"/>
<line fill="none" stroke="#333333" stroke-width="2" stroke-linecap="round" stroke-linejoin="round" stroke-miterlimit="10" x1="657.501" y1="151.5" x2="663.376" y2="151.5"/>
<line fill="none" stroke="#333333" stroke-width="2" stroke-linecap="round" stroke-linejoin="round" stroke-miterlimit="10" x1="667.501" y1="151.5" x2="669.501" y2="151.5"/>
<line fill="none" stroke="#333333" stroke-width="2" stroke-linecap="round" stroke-linejoin="round" stroke-miterlimit="10" x1="673.501" y1="151.5" x2="687.668" y2="151.5"/>
<line fill="none" stroke="#333333" stroke-width="2" stroke-linecap="round" stroke-linejoin="round" stroke-miterlimit="10" x1="691.501" y1="151.5" x2="699.419" y2="151.5"/>
<line fill="none" stroke="#333333" stroke-width="2" stroke-linecap="round" stroke-linejoin="round" stroke-miterlimit="10" x1="703.501" y1="151.5" x2="711.419" y2="151.5"/>
<line fill="none" stroke="#333333" stroke-width="2" stroke-linecap="round" stroke-linejoin="round" stroke-miterlimit="10" x1="611.501" y1="155.5" x2="623.335" y2="155.5"/>
<line fill="none" stroke="#333333" stroke-width="2" stroke-linecap="round" stroke-linejoin="round" stroke-miterlimit="10" x1="629.501" y1="155.5" x2="635.585" y2="155.5"/>
<line fill="none" stroke="#333333" stroke-width="2" stroke-linecap="round" stroke-linejoin="round" stroke-miterlimit="10" x1="639.501" y1="155.5" x2="645.585" y2="155.5"/>
<line fill="none" stroke="#333333" stroke-width="2" stroke-linecap="round" stroke-linejoin="round" stroke-miterlimit="10" x1="649.501" y1="155.5" x2="653.438" y2="155.5"/>
<line fill="none" stroke="#333333" stroke-width="2" stroke-linecap="round" stroke-linejoin="round" stroke-miterlimit="10" x1="657.501" y1="155.5" x2="663.376" y2="155.5"/>
<line fill="none" stroke="#333333" stroke-width="2" stroke-linecap="round" stroke-linejoin="round" stroke-miterlimit="10" x1="667.501" y1="155.5" x2="669.501" y2="155.5"/>
<line fill="none" stroke="#333333" stroke-width="2" stroke-linecap="round" stroke-linejoin="round" stroke-miterlimit="10" x1="673.501" y1="155.5" x2="687.668" y2="155.5"/>
<line fill="none" stroke="#333333" stroke-width="2" stroke-linecap="round" stroke-linejoin="round" stroke-miterlimit="10" x1="691.501" y1="155.5" x2="699.419" y2="155.5"/>
<line fill="none" stroke="#333333" stroke-width="2" stroke-linecap="round" stroke-linejoin="round" stroke-miterlimit="10" x1="703.501" y1="155.5" x2="711.419" y2="155.5"/>
<line fill="none" stroke="#333333" stroke-width="2" stroke-linecap="round" stroke-linejoin="round" stroke-miterlimit="10" x1="611.501" y1="187.5" x2="623.335" y2="187.5"/>
<line fill="none" stroke="#333333" stroke-width="2" stroke-linecap="round" stroke-linejoin="round" stroke-miterlimit="10" x1="629.501" y1="187.5" x2="635.585" y2="187.5"/>
<line fill="none" stroke="#333333" stroke-width="2" stroke-linecap="round" stroke-linejoin="round" stroke-miterlimit="10" x1="639.501" y1="187.5" x2="645.585" y2="187.5"/>
<line fill="none" stroke="#333333" stroke-width="2" stroke-linecap="round" stroke-linejoin="round" stroke-miterlimit="10" x1="649.501" y1="187.5" x2="653.438" y2="187.5"/>
<line fill="none" stroke="#333333" stroke-width="2" stroke-linecap="round" stroke-linejoin="round" stroke-miterlimit="10" x1="657.501" y1="187.5" x2="663.376" y2="187.5"/>
<line fill="none" stroke="#333333" stroke-width="2" stroke-linecap="round" stroke-linejoin="round" stroke-miterlimit="10" x1="667.501" y1="187.5" x2="669.501" y2="187.5"/>
<line fill="none" stroke="#333333" stroke-width="2" stroke-linecap="round" stroke-linejoin="round" stroke-miterlimit="10" x1="673.501" y1="187.5" x2="687.668" y2="187.5"/>
<line fill="none" stroke="#333333" stroke-width="2" stroke-linecap="round" stroke-linejoin="round" stroke-miterlimit="10" x1="691.501" y1="187.5" x2="699.419" y2="187.5"/>
<line fill="none" stroke="#333333" stroke-width="2" stroke-linecap="round" stroke-linejoin="round" stroke-miterlimit="10" x1="703.501" y1="187.5" x2="711.419" y2="187.5"/>
<line fill="none" stroke="#333333" stroke-width="2" stroke-linecap="round" stroke-linejoin="round" stroke-miterlimit="10" x1="611.501" y1="207.5" x2="623.335" y2="207.5"/>
<line fill="none" stroke="#333333" stroke-width="2" stroke-linecap="round" stroke-linejoin="round" stroke-miterlimit="10" x1="629.501" y1="207.5" x2="635.585" y2="207.5"/>
<line fill="none" stroke="#333333" stroke-width="2" stroke-linecap="round" stroke-linejoin="round" stroke-miterlimit="10" x1="639.501" y1="207.5" x2="645.585" y2="207.5"/>
<line fill="none" stroke="#333333" stroke-width="2" stroke-linecap="round" stroke-linejoin="round" stroke-miterlimit="10" x1="649.501" y1="207.5" x2="653.438" y2="207.5"/>
<line fill="none" stroke="#333333" stroke-width="2" stroke-linecap="round" stroke-linejoin="round" stroke-miterlimit="10" x1="657.501" y1="207.5" x2="663.376" y2="207.5"/>
<line fill="none" stroke="#333333" stroke-width="2" stroke-linecap="round" stroke-linejoin="round" stroke-miterlimit="10" x1="667.501" y1="207.5" x2="669.501" y2="207.5"/>
<line fill="none" stroke="#333333" stroke-width="2" stroke-linecap="round" stroke-linejoin="round" stroke-miterlimit="10" x1="673.501" y1="207.5" x2="687.668" y2="207.5"/>
<line fill="none" stroke="#333333" stroke-width="2" stroke-linecap="round" stroke-linejoin="round" stroke-miterlimit="10" x1="691.501" y1="207.5" x2="699.419" y2="207.5"/>
<line fill="none" stroke="#333333" stroke-width="2" stroke-linecap="round" stroke-linejoin="round" stroke-miterlimit="10" x1="703.501" y1="207.5" x2="711.419" y2="207.5"/>
<line fill="none" stroke="#333333" stroke-width="2" stroke-linecap="round" stroke-linejoin="round" stroke-miterlimit="10" x1="611.501" y1="211.5" x2="623.335" y2="211.5"/>
<line fill="none" stroke="#333333" stroke-width="2" stroke-linecap="round" stroke-linejoin="round" stroke-miterlimit="10" x1="629.501" y1="211.5" x2="635.585" y2="211.5"/>
<line fill="none" stroke="#333333" stroke-width="2" stroke-linecap="round" stroke-linejoin="round" stroke-miterlimit="10" x1="639.501" y1="211.5" x2="645.585" y2="211.5"/>
<line fill="none" stroke="#333333" stroke-width="2" stroke-linecap="round" stroke-linejoin="round" stroke-miterlimit="10" x1="649.501" y1="211.5" x2="653.438" y2="211.5"/>
<line fill="none" stroke="#333333" stroke-width="2" stroke-linecap="round" stroke-linejoin="round" stroke-miterlimit="10" x1="657.501" y1="211.5" x2="663.376" y2="211.5"/>
<line fill="none" stroke="#333333" stroke-width="2" stroke-linecap="round" stroke-linejoin="round" stroke-miterlimit="10" x1="667.501" y1="211.5" x2="669.501" y2="211.5"/>
<line fill="none" stroke="#333333" stroke-width="2" stroke-linecap="round" stroke-linejoin="round" stroke-miterlimit="10" x1="673.501" y1="211.5" x2="687.668" y2="211.5"/>
<line fill="none" stroke="#333333" stroke-width="2" stroke-linecap="round" stroke-linejoin="round" stroke-miterlimit="10" x1="691.501" y1="211.5" x2="699.419" y2="211.5"/>
<line fill="none" stroke="#333333" stroke-width="2" stroke-linecap="round" stroke-linejoin="round" stroke-miterlimit="10" x1="703.501" y1="211.5" x2="711.419" y2="211.5"/>
<line fill="none" stroke="#333333" stroke-width="8" stroke-linecap="round" stroke-linejoin="round" stroke-miterlimit="10" x1="642.501" y1="142.5" x2="652.501" y2="142.5"/>
<line fill="none" stroke="#333333" stroke-width="8" stroke-linecap="round" stroke-linejoin="round" stroke-miterlimit="10" x1="728.501" y1="198.5" x2="730.501" y2="198.5"/>
<line fill="none" stroke="#333333" stroke-width="8" stroke-linecap="round" stroke-linejoin="round" stroke-miterlimit="10" x1="728.501" y1="238.5" x2="730.501" y2="238.5"/>
<line fill="none" stroke="#333333" stroke-width="4" stroke-linecap="round" stroke-linejoin="round" stroke-miterlimit="10" x1="612.501" y1="239.37" x2="618.243" y2="237.63"/>
<line fill="none" stroke="#EB2177" stroke-width="8" stroke-linecap="round" stroke-linejoin="round" stroke-miterlimit="10" x1="710.501" y1="250.5" x2="730.501" y2="250.5"/>
<line fill="none" stroke="#333333" stroke-width="8" stroke-linecap="round" stroke-linejoin="round" stroke-miterlimit="10" x1="646.501" y1="250.5" x2="656.501" y2="250.5"/>
<line fill="none" stroke="#333333" stroke-width="8" stroke-linecap="round" stroke-linejoin="round" stroke-miterlimit="10" x1="692.501" y1="250.5" x2="698.501" y2="250.5"/>
<line fill="none" stroke="#333333" stroke-width="8" stroke-linecap="round" stroke-linejoin="round" stroke-miterlimit="10" x1="680.501" y1="250.5" x2="680.501" y2="250.5"/>
<line fill="none" stroke="#333333" stroke-width="8" stroke-linecap="round" stroke-linejoin="round" stroke-miterlimit="10" x1="668.501" y1="250.5" x2="668.501" y2="250.5"/>
<g>
	<g>
		<g>
			<path fill="#EB2177" d="M617.907,245.009c-2.234,1.307-2.348,4.993,0.435,5.759c2.939,0.809,5.17-3.058,3.02-5.208
				c-0.917-0.917-2.412-1.128-3.538-0.468c-1.379,0.808-1.455,2.32-1.19,3.717c0.23,1.22-0.104,1.604-0.889,2.498
				c-0.769,0.878-1.686,1.612-2.824,1.866c-3.146,0.704-1.812,5.524,1.33,4.822c2.364-0.529,4.179-2.128,5.709-3.943
				c0.845-1.002,1.532-2.005,1.664-3.342c0.112-1.134-0.141-2.167-0.157-3.271c-0.114,0.421-0.228,0.842-0.342,1.262
				c0.04-0.062,0.08-0.125,0.12-0.188c-0.498,0.383-0.996,0.766-1.494,1.149c0.099-0.018,0.197-0.035,0.296-0.053
				c-0.643-0.084-1.284-0.168-1.927-0.252c-0.189-0.174-0.379-0.348-0.568-0.521c-0.113-0.42-0.228-0.841-0.342-1.262
				c0.002,0.099,0.004,0.196,0.005,0.295c0.114-0.421,0.228-0.842,0.342-1.262c0.173-0.144,0.345-0.287,0.518-0.431
				c0.421-0.114,0.841-0.228,1.262-0.342c-0.109,0.008-0.219,0.016-0.328,0.022c0.421,0.114,0.841,0.228,1.262,0.342
				c0.197,0.19,0.395,0.382,0.591,0.572c0.114,0.421,0.229,0.841,0.342,1.262c-0.257,0.431-0.514,0.862-0.771,1.293
				C623.211,247.698,620.696,243.376,617.907,245.009L617.907,245.009z"/>
		</g>
	</g>
	<g>
		<g>
			<path fill="#EB2177" d="M617.085,246.584c-0.304,0.002-0.607,0.008-0.911-0.001c-0.286-0.022-0.246-0.013,0.118,0.029
				c-0.564-0.092,0.432,0.28-0.055,0.001c0.522,0.574,0.653,0.683,0.392,0.323c-0.329-0.483-0.076-0.62-0.004,0.373
				c-0.036-0.496-0.064-0.997-0.213-1.475c-0.406-1.3-1.729-2.116-3.076-1.746c-1.279,0.353-2.151,1.775-1.746,3.076
				c0.206,0.658,0.007-0.488,0.035,0.145c0.027,0.589,0.112,1.095,0.385,1.619c0.39,0.748,0.886,1.389,1.563,1.896
				c1.001,0.751,2.316,0.767,3.512,0.759c1.362-0.009,2.5-1.13,2.5-2.5C619.585,247.729,618.448,246.575,617.085,246.584
				L617.085,246.584z"/>
		</g>
	</g>
	<g>
		<g>
			<path fill="#EB2177" d="M616.669,249.084c-0.749,0.025-1.559,0.183-2.188,0.239c-0.579,0.053-0.148,0.06,0.109,0.169
				c-0.233-0.144-0.232-0.128,0.004,0.047c-0.112-0.099-0.221-0.2-0.326-0.307c-0.975-0.951-2.563-0.972-3.535,0
				c-0.955,0.954-0.975,2.584,0,3.535c0.707,0.69,1.533,1.302,2.532,1.465c1.191,0.195,2.318-0.111,3.403-0.148
				c1.361-0.047,2.5-1.102,2.5-2.5C619.169,250.257,618.031,249.037,616.669,249.084L616.669,249.084z"/>
		</g>
	</g>
</g>
<path fill="#EB2177" d="M638.501,252.5c0,2.209-1.791,4-4,4h-4c-2.209,0-4-1.791-4-4v-4c0-2.209,1.791-4,4-4h4c2.209,0,4,1.791,4,4
	V252.5z"/>
<path fill="#EB2177" d="M674.501,146.5c-7.721,0-14-6.28-14-14c0-7.719,6.279-14,14-14s14,6.281,14,14
	C688.501,140.22,682.222,146.5,674.501,146.5z M674.501,119.805c-7.002,0-12.697,5.693-12.697,12.695s5.695,12.698,12.697,12.698
	c7.003,0,12.698-5.696,12.698-12.698S681.504,119.805,674.501,119.805z"/>
<path fill="#EB2177" d="M672.873,146.176c-1.112,0-1.953-1.401-1.953-3.258c0-1.855,0.841-3.256,1.953-3.256
	c1.114,0,1.952,1.4,1.952,3.256C674.825,144.774,673.987,146.176,672.873,146.176z M672.873,140.964
	c-0.162,0-0.651,0.693-0.651,1.954c0,1.262,0.489,1.954,0.651,1.954c0.164,0,0.653-0.692,0.653-1.954
	C673.526,141.657,673.037,140.964,672.873,140.964z"/>
<path fill="#EB2177" d="M677.269,146.176c-0.85,0-1.465-0.961-1.465-2.279c0-1.321,0.615-2.28,1.465-2.28s1.465,0.959,1.465,2.28
	C678.733,145.215,678.118,146.176,677.269,146.176z M677.269,143.052c-0.077,0.164-0.162,0.449-0.162,0.845
	c0,0.394,0.085,0.679,0.162,0.846c0.079-0.167,0.162-0.452,0.162-0.846C677.431,143.501,677.348,143.216,677.269,143.052z"/>
<path fill="#EB2177" d="M672.873,128.918c-0.856,0-1.695-0.347-2.3-0.953c-0.608-0.605-0.954-1.444-0.954-2.303
	c0-0.854,0.346-1.696,0.954-2.301c0.604-0.606,1.443-0.954,2.3-0.954s1.696,0.348,2.302,0.954c0.605,0.604,0.954,1.447,0.954,2.301
	c0,0.858-0.349,1.697-0.954,2.303C674.569,128.571,673.729,128.918,672.873,128.918z"/>
<path fill="#EB2177" d="M669.614,138.036c-1.563,0-2.943-1.129-3.209-2.723c-0.295-1.772,0.904-3.45,2.678-3.746l7.813-1.301
	c1.771-0.299,3.45,0.902,3.747,2.676c0.296,1.772-0.903,3.449-2.676,3.746l-7.814,1.302
	C669.972,138.021,669.792,138.036,669.614,138.036z"/>
<g>
	<g>
		
			<path fill="#CE3746" stroke="#231F20" stroke-width="4" stroke-linecap="round" stroke-linejoin="round" stroke-miterlimit="10" d="
			M382.501,202.5v20c0,2.209-1.791,4-4,4l0,0c-2.209,0-4-1.791-4-4v-20l4-4L382.501,202.5z"/>
	</g>
	
		<line fill="#CE3746" stroke="#231F20" stroke-width="4" stroke-linecap="round" stroke-linejoin="round" stroke-miterlimit="10" x1="378.501" y1="198.5" x2="378.501" y2="194.5"/>
</g>
<path fill="#ECECEC" stroke="#231F20" stroke-width="4" stroke-linecap="round" stroke-linejoin="round" stroke-miterlimit="10" d="
	M450.501,218.5L450.501,218.5c0,0-1.791,0-4,0h-12c-2.209,0,0,0-4,0l0,0v8h20V218.5z"/>
<path fill="#ECECEC" stroke="#231F20" stroke-width="4" stroke-linecap="round" stroke-linejoin="round" stroke-miterlimit="10" d="
	M450.501,210.5L450.501,210.5c0,0-1.791,0-4,0h-12c-2.209,0,0,0-4,0l0,0v8h20V210.5z"/>
<path fill="#ECECEC" stroke="#231F20" stroke-width="4" stroke-linecap="round" stroke-linejoin="round" stroke-miterlimit="10" d="
	M450.501,202.5L450.501,202.5c0,0-1.791,0-4,0h-12c-2.209,0,0,0-4,0l0,0v8h20V202.5z"/>
<polygon fill="#939A9F" stroke="#231F20" stroke-width="4" stroke-linecap="round" stroke-linejoin="round" stroke-miterlimit="10" points="
	398.501,226.5 394.501,202.5 418.501,202.5 414.501,226.5 "/>
<path fill="#939A9F" stroke="#231F20" stroke-width="4" stroke-linecap="round" stroke-linejoin="round" stroke-miterlimit="10" d="
	M266.501,216.5h-20c0,0-1.791,0-4,0h-12c-2.209,0,0,0-4,0l0,0v8h40V216.5z"/>
<path fill="#939A9F" stroke="#231F20" stroke-width="4" stroke-linecap="round" stroke-linejoin="round" stroke-miterlimit="10" d="
	M266.501,198.5h-20c0,0-1.791,0-4,0h-12c-2.209,0,0,0-4,0l0,0v18h40V198.5z"/>
<rect x="192.501" y="52.5" fill="#00245E" stroke="#231F20" stroke-width="4" stroke-linecap="round" stroke-linejoin="round" stroke-miterlimit="10" width="16" height="4"/>
</svg>
