<?xml version="1.0" encoding="utf-8"?>
<!-- Generator: Adobe Illustrator 16.0.1, SVG Export Plug-In . SVG Version: 6.00 Build 0)  -->
<!DOCTYPE svg PUBLIC "-//W3C//DTD SVG 1.1//EN" "http://www.w3.org/Graphics/SVG/1.1/DTD/svg11.dtd">
<svg version="1.1" id="Layer_1" xmlns="http://www.w3.org/2000/svg" xmlns:xlink="http://www.w3.org/1999/xlink" x="0px" y="0px"
	 width="356px" height="400px" viewBox="6.5 0 356 400" enable-background="new 6.5 0 356 400" xml:space="preserve">
<rect x="8.5" y="150" fill="#C1BEB4" stroke="#231F20" stroke-width="4" stroke-linecap="round" stroke-linejoin="round" stroke-miterlimit="10" width="12" height="168"/>
<rect x="348.5" y="150" fill="#C1BEB4" stroke="#231F20" stroke-width="4" stroke-linecap="round" stroke-linejoin="round" stroke-miterlimit="10" width="12" height="168"/>
<path fill="#FF5700" stroke="#231F20" stroke-width="4" stroke-linecap="round" stroke-linejoin="round" stroke-miterlimit="10" d="
	M356.5,106h-4c-52-8-168-60-168-72c0,12-116,64-168,72h-4c-2.209,0-4,1.791-4,4v40h176h176v-40C360.5,107.791,358.709,106,356.5,106
	z"/>
<path fill="#E54600" stroke="#231F20" stroke-width="4" stroke-linecap="round" stroke-linejoin="round" stroke-miterlimit="10" d="
	M360.5,146c0,2.209-1.791,4-4,4h-344c-2.209,0-4-1.791-4-4v-36c0-2.209,1.791-4,4-4h344c2.209,0,4,1.791,4,4V146z"/>
<path fill="#333333" stroke="#231F20" stroke-width="4" stroke-linecap="round" stroke-linejoin="round" stroke-miterlimit="10" d="
	M360.5,378c0,2.209-1.791,4-4,4h-344c-2.209,0-4-1.791-4-4v-84c0,0,1.791,0,4,0h344c2.209,0,4,0,4,0V378z"/>
<rect x="20.5" y="282" fill="#5B5663" stroke="#231F20" stroke-width="4" stroke-linecap="round" stroke-linejoin="round" stroke-miterlimit="10" width="328" height="12"/>
<rect x="248.5" y="266" fill="#AB9473" stroke="#231F20" stroke-width="4" stroke-linecap="round" stroke-linejoin="round" stroke-miterlimit="10" width="79.999" height="14"/>
<line fill="none" stroke="#ECECEC" stroke-width="20" stroke-linecap="round" stroke-linejoin="round" stroke-miterlimit="10" x1="28.5" y1="314" x2="50.5" y2="314"/>
<line fill="none" stroke="#ECECEC" stroke-width="20" stroke-linecap="round" stroke-linejoin="round" stroke-miterlimit="10" x1="78.5" y1="314" x2="100.5" y2="314"/>
<line fill="none" stroke="#ECECEC" stroke-width="20" stroke-linecap="round" stroke-linejoin="round" stroke-miterlimit="10" x1="28.5" y1="338" x2="50.5" y2="338"/>
<line fill="none" stroke="#ECECEC" stroke-width="12" stroke-linecap="round" stroke-linejoin="round" stroke-miterlimit="10" x1="24.5" y1="358" x2="24.5" y2="358"/>
<line fill="none" stroke="#ECECEC" stroke-width="12" stroke-linecap="round" stroke-linejoin="round" stroke-miterlimit="10" x1="40.5" y1="358" x2="40.5" y2="358"/>
<line fill="none" stroke="#ECECEC" stroke-width="12" stroke-linecap="round" stroke-linejoin="round" stroke-miterlimit="10" x1="56.5" y1="358" x2="56.5" y2="358"/>
<line fill="none" stroke="#ECECEC" stroke-width="12" stroke-linecap="round" stroke-linejoin="round" stroke-miterlimit="10" x1="74.5" y1="358" x2="74.5" y2="358"/>
<line fill="none" stroke="#ECECEC" stroke-width="12" stroke-linecap="round" stroke-linejoin="round" stroke-miterlimit="10" x1="90.5" y1="358" x2="90.5" y2="358"/>
<line fill="none" stroke="#ECECEC" stroke-width="12" stroke-linecap="round" stroke-linejoin="round" stroke-miterlimit="10" x1="106.5" y1="358" x2="106.5" y2="358"/>
<line fill="none" stroke="#ECECEC" stroke-width="12" stroke-linecap="round" stroke-linejoin="round" stroke-miterlimit="10" x1="304.5" y1="318" x2="304.5" y2="318"/>
<line fill="none" stroke="#ECECEC" stroke-width="12" stroke-linecap="round" stroke-linejoin="round" stroke-miterlimit="10" x1="320.5" y1="318" x2="320.5" y2="318"/>
<line fill="none" stroke="#ECECEC" stroke-width="12" stroke-linecap="round" stroke-linejoin="round" stroke-miterlimit="10" x1="336.5" y1="318" x2="336.5" y2="318"/>
<line fill="none" stroke="#ECECEC" stroke-width="20" stroke-linecap="round" stroke-linejoin="round" stroke-miterlimit="10" x1="78.5" y1="338" x2="86.5" y2="338"/>
<line fill="none" stroke="#ECECEC" stroke-width="8" stroke-linecap="round" stroke-linejoin="round" stroke-miterlimit="10" x1="104.5" y1="332" x2="106.5" y2="332"/>
<line fill="none" stroke="#ECECEC" stroke-width="8" stroke-linecap="round" stroke-linejoin="round" stroke-miterlimit="10" x1="302.5" y1="332" x2="338.5" y2="332"/>
<line fill="none" stroke="#ECECEC" stroke-width="2" stroke-linecap="round" stroke-linejoin="round" stroke-miterlimit="10" x1="102.5" y1="338" x2="108.5" y2="338"/>
<path fill="#454545" stroke="#231F20" stroke-width="4" stroke-linecap="round" stroke-linejoin="round" stroke-miterlimit="10" d="
	M348.5,154c0-2.409-1.791-4-4-4h-64c-2.209,0-4,1.591-4,4v123.637c0,2.409,1.791,4.363,4,4.363h64c2.209,0,4-1.954,4-4.363V154z"/>
<line fill="none" stroke="#ECECEC" stroke-width="8" stroke-linecap="round" stroke-linejoin="round" stroke-miterlimit="10" x1="298.5" y1="158" x2="306.5" y2="158"/>
<line fill="none" stroke="#ECECEC" stroke-width="8" stroke-linecap="round" stroke-linejoin="round" stroke-miterlimit="10" x1="318.5" y1="158" x2="326.5" y2="158"/>
<line fill="none" stroke="#ECECEC" stroke-width="8" stroke-linecap="round" stroke-linejoin="round" stroke-miterlimit="10" x1="298.5" y1="168" x2="306.5" y2="168"/>
<line fill="none" stroke="#ECECEC" stroke-width="12" stroke-linecap="round" stroke-linejoin="round" stroke-miterlimit="10" x1="288.5" y1="184" x2="320.5" y2="184"/>
<line fill="none" stroke="#ECECEC" stroke-width="12" stroke-linecap="round" stroke-linejoin="round" stroke-miterlimit="10" x1="288.5" y1="200" x2="310.5" y2="200"/>
<line fill="none" stroke="#ECECEC" stroke-width="8" stroke-linecap="round" stroke-linejoin="round" stroke-miterlimit="10" x1="286.5" y1="218" x2="308.5" y2="218"/>
<line fill="none" stroke="#ECECEC" stroke-width="24" stroke-linecap="round" stroke-linejoin="round" stroke-miterlimit="10" x1="294.5" y1="256" x2="294.5" y2="256"/>
<line fill="none" stroke="#ECECEC" stroke-width="8" stroke-linecap="round" stroke-linejoin="round" stroke-miterlimit="10" x1="286.5" y1="230" x2="308.5" y2="230"/>
<line fill="none" stroke="#ECECEC" stroke-width="8" stroke-linecap="round" stroke-linejoin="round" stroke-miterlimit="10" x1="320.5" y1="230" x2="332.5" y2="230"/>
<line fill="none" stroke="#ECECEC" stroke-width="8" stroke-linecap="round" stroke-linejoin="round" stroke-miterlimit="10" x1="312.5" y1="250" x2="316.5" y2="250"/>
<line fill="none" stroke="#ECECEC" stroke-width="8" stroke-linecap="round" stroke-linejoin="round" stroke-miterlimit="10" x1="324.5" y1="262" x2="338.5" y2="262"/>
<line fill="none" stroke="#ECECEC" stroke-width="8" stroke-linecap="round" stroke-linejoin="round" stroke-miterlimit="10" x1="328.5" y1="250" x2="328.5" y2="250"/>
<line fill="none" stroke="#ECECEC" stroke-width="8" stroke-linecap="round" stroke-linejoin="round" stroke-miterlimit="10" x1="312.5" y1="262" x2="312.5" y2="262"/>
<line fill="none" stroke="#ECECEC" stroke-width="8" stroke-linecap="round" stroke-linejoin="round" stroke-miterlimit="10" x1="320.5" y1="218" x2="338.5" y2="218"/>
<line fill="none" stroke="#ECECEC" stroke-width="12" stroke-linecap="round" stroke-linejoin="round" stroke-miterlimit="10" x1="326.5" y1="200" x2="336.5" y2="200"/>
<line fill="none" stroke="#ECECEC" stroke-width="8" stroke-linecap="round" stroke-linejoin="round" stroke-miterlimit="10" x1="318.5" y1="168" x2="326.5" y2="168"/>
<polygon fill="#ECECEC" stroke="#231F20" stroke-width="4" stroke-linecap="round" stroke-linejoin="round" stroke-miterlimit="10" points="
	102.5,266 98.5,256 112.5,256 108.5,266 "/>
<g>
	<path fill="none" stroke="#01A64F" stroke-width="4" stroke-linecap="round" stroke-linejoin="round" stroke-miterlimit="10" d="
		M39.5,256"/>
	
		<line fill="none" stroke="#01A64F" stroke-width="4" stroke-linecap="round" stroke-linejoin="round" stroke-miterlimit="10" x1="39.5" y1="248" x2="39.5" y2="256"/>
</g>
<line fill="none" stroke="#01A64F" stroke-width="4" stroke-linecap="round" stroke-linejoin="round" stroke-miterlimit="10" x1="37.166" y1="256" x2="32.5" y2="252"/>
<line fill="none" stroke="#01A64F" stroke-width="4" stroke-linecap="round" stroke-linejoin="round" stroke-miterlimit="10" x1="41.834" y1="256" x2="46.5" y2="252"/>
<polygon fill="#ECECEC" stroke="#231F20" stroke-width="4" stroke-linecap="round" stroke-linejoin="round" stroke-miterlimit="10" points="
	80.5,266 76.5,256 90.5,256 86.5,266 "/>
<polygon fill="#ECECEC" stroke="#231F20" stroke-width="4" stroke-linecap="round" stroke-linejoin="round" stroke-miterlimit="10" points="
	58.5,266 54.5,256 68.5,256 64.5,266 "/>
<polygon fill="#ECECEC" stroke="#231F20" stroke-width="4" stroke-linecap="round" stroke-linejoin="round" stroke-miterlimit="10" points="
	36.5,266 32.5,256 46.5,256 42.5,266 "/>
<rect x="32.5" y="266" fill="#AB9473" stroke="#231F20" stroke-width="4" stroke-linecap="round" stroke-linejoin="round" stroke-miterlimit="10" width="79.999" height="14"/>
<g>
	<g>
		
			<path fill="#D81E08" stroke="#231F20" stroke-width="4" stroke-linecap="round" stroke-linejoin="round" stroke-miterlimit="10" d="
			M132.5,254v20c0,2.209-1.791,4-4,4l0,0c-2.209,0-4-1.791-4-4v-20l4-4L132.5,254z"/>
	</g>
	
		<line fill="#CE3746" stroke="#00B133" stroke-width="4" stroke-linecap="round" stroke-linejoin="round" stroke-miterlimit="10" x1="128.5" y1="246" x2="128.5" y2="242"/>
</g>
</svg>
