<svg xmlns="http://www.w3.org/2000/svg" width="356" height="400" viewBox="6.5 0 356 400" enable-background="new 6.5 0 356 400"><path fill="#C1BEB4" stroke="#231F20" stroke-width="4" stroke-linecap="round" stroke-linejoin="round" stroke-miterlimit="10" d="M8.5 150h12v168h-12zM348.5 150h12v168h-12z"/><path fill="#FF5700" stroke="#231F20" stroke-width="4" stroke-linecap="round" stroke-linejoin="round" stroke-miterlimit="10" d="M356.5 106h-4c-52-8-168-60-168-72 0 12-116 64-168 72h-4c-2.21 0-4 1.79-4 4v40h352v-40c0-2.21-1.79-4-4-4z"/><path fill="#E54600" stroke="#231F20" stroke-width="4" stroke-linecap="round" stroke-linejoin="round" stroke-miterlimit="10" d="M360.5 146c0 2.21-1.79 4-4 4h-344c-2.21 0-4-1.79-4-4v-36c0-2.21 1.79-4 4-4h344c2.21 0 4 1.79 4 4v36z"/><path fill="#333" stroke="#231F20" stroke-width="4" stroke-linecap="round" stroke-linejoin="round" stroke-miterlimit="10" d="M360.5 378c0 2.21-1.79 4-4 4h-344c-2.21 0-4-1.79-4-4v-84h352v84z"/><path fill="#5B5663" stroke="#231F20" stroke-width="4" stroke-linecap="round" stroke-linejoin="round" stroke-miterlimit="10" d="M20.5 282h328v12h-328z"/><path fill="#AB9473" stroke="#231F20" stroke-width="4" stroke-linecap="round" stroke-linejoin="round" stroke-miterlimit="10" d="M248.5 266h80v14h-80z"/><path fill="none" stroke="#ECECEC" stroke-width="20" stroke-linecap="round" stroke-linejoin="round" stroke-miterlimit="10" d="M28.5 314h22M78.5 314h22M28.5 338h22"/><path fill="none" stroke="#ECECEC" stroke-width="12" stroke-linecap="round" stroke-linejoin="round" stroke-miterlimit="10" d="M24.5 358M40.5 358M56.5 358M74.5 358M90.5 358M106.5 358M304.5 318M320.5 318M336.5 318"/><path fill="none" stroke="#ECECEC" stroke-width="20" stroke-linecap="round" stroke-linejoin="round" stroke-miterlimit="10" d="M78.5 338h8"/><path fill="none" stroke="#ECECEC" stroke-width="8" stroke-linecap="round" stroke-linejoin="round" stroke-miterlimit="10" d="M104.5 332h2M302.5 332h36"/><path fill="none" stroke="#ECECEC" stroke-width="2" stroke-linecap="round" stroke-linejoin="round" stroke-miterlimit="10" d="M102.5 338h6"/><path fill="#454545" stroke="#231F20" stroke-width="4" stroke-linecap="round" stroke-linejoin="round" stroke-miterlimit="10" d="M348.5 154c0-2.41-1.79-4-4-4h-64c-2.21 0-4 1.59-4 4v123.637c0 2.41 1.79 4.363 4 4.363h64c2.21 0 4-1.954 4-4.363V154z"/><path fill="none" stroke="#ECECEC" stroke-width="8" stroke-linecap="round" stroke-linejoin="round" stroke-miterlimit="10" d="M298.5 158h8M318.5 158h8M298.5 168h8"/><path fill="none" stroke="#ECECEC" stroke-width="12" stroke-linecap="round" stroke-linejoin="round" stroke-miterlimit="10" d="M288.5 184h32M288.5 200h22"/><path fill="none" stroke="#ECECEC" stroke-width="8" stroke-linecap="round" stroke-linejoin="round" stroke-miterlimit="10" d="M286.5 218h22"/><path fill="none" stroke="#ECECEC" stroke-width="24" stroke-linecap="round" stroke-linejoin="round" stroke-miterlimit="10" d="M294.5 256"/><path fill="none" stroke="#ECECEC" stroke-width="8" stroke-linecap="round" stroke-linejoin="round" stroke-miterlimit="10" d="M286.5 230h22M320.5 230h12M312.5 250h4M324.5 262h14M328.5 250M312.5 262M320.5 218h18"/><path fill="none" stroke="#ECECEC" stroke-width="12" stroke-linecap="round" stroke-linejoin="round" stroke-miterlimit="10" d="M326.5 200h10"/><path fill="none" stroke="#ECECEC" stroke-width="8" stroke-linecap="round" stroke-linejoin="round" stroke-miterlimit="10" d="M318.5 168h8"/><path fill="#ECECEC" stroke="#231F20" stroke-width="4" stroke-linecap="round" stroke-linejoin="round" stroke-miterlimit="10" d="M102.5 266l-4-10h14l-4 10z"/><g fill="none" stroke="#01A64F" stroke-width="4" stroke-linecap="round" stroke-linejoin="round" stroke-miterlimit="10"><path d="M39.5 256M39.5 248v8"/></g><path fill="none" stroke="#01A64F" stroke-width="4" stroke-linecap="round" stroke-linejoin="round" stroke-miterlimit="10" d="M37.166 256l-4.666-4M41.834 256l4.666-4"/><path fill="#ECECEC" stroke="#231F20" stroke-width="4" stroke-linecap="round" stroke-linejoin="round" stroke-miterlimit="10" d="M80.5 266l-4-10h14l-4 10zM58.5 266l-4-10h14l-4 10zM36.5 266l-4-10h14l-4 10z"/><path fill="#AB9473" stroke="#231F20" stroke-width="4" stroke-linecap="round" stroke-linejoin="round" stroke-miterlimit="10" d="M32.5 266h80v14h-80z"/><path fill="#D81E08" stroke="#231F20" stroke-width="4" stroke-linecap="round" stroke-linejoin="round" stroke-miterlimit="10" d="M132.5 254v20c0 2.21-1.79 4-4 4s-4-1.79-4-4v-20l4-4 4 4z"/><path fill="#CE3746" stroke="#00B133" stroke-width="4" stroke-linecap="round" stroke-linejoin="round" stroke-miterlimit="10" d="M128.5 246v-4"/></svg>