<svg xmlns="http://www.w3.org/2000/svg" width="674.002" height="400" viewBox="0 0 674.002 400"><g class="wheel"><circle fill="#5E6363" stroke="#231F20" stroke-width="4" stroke-miterlimit="10" cx="103" cy="354" r="44"/><circle fill="#A89863" cx="103" cy="354" r="24"/><circle fill="none" stroke="#231F20" stroke-width="4" stroke-miterlimit="10" cx="103" cy="354" r="24"/><circle fill="#B2B2B2" cx="103" cy="354.02" r="8"/><path fill="none" stroke="#231F20" stroke-width="2" stroke-miterlimit="10" d="M90.3 347.79c1.054.344 1.63 1.474 1.287 2.52-.343 1.052-1.47 1.626-2.52 1.284-1.05-.34-1.628-1.47-1.284-2.52.342-1.05 1.47-1.623 2.517-1.284zm2.85 16.38c.653-.895 1.904-1.092 2.796-.44.893.648 1.09 1.898.44 2.792-.646.896-1.9 1.094-2.793.442-.89-.65-1.09-1.9-.443-2.794zm16.46 2.353c-.65-.896-.45-2.148.442-2.795.894-.648 2.143-.45 2.793.44.652.896.45 2.147-.443 2.795-.89.65-2.142.45-2.792-.44zm7.323-14.925c-1.053.34-2.182-.236-2.52-1.285-.34-1.05.235-2.178 1.285-2.52 1.05-.345 2.182.232 2.52 1.284.34 1.048-.237 2.177-1.285 2.52zm-11.93-11.578c-.005 1.104-.9 2.002-2 2-1.105-.002-2-.896-2-2-.005-1.104.895-2.004 2-2 1.1 0 1.997.896 2 2zm-.003 14c-.004 1.104-.898 2.002-2 2-1.104-.002-1.998-.896-2-2-.004-1.104.896-2.004 2.002-2 1.1 0 1.996.896 1.998 2z"/></g><g class="wheel"><circle fill="#5E6363" stroke="#231F20" stroke-width="4" stroke-miterlimit="10" cx="430" cy="354" r="44"/><circle fill="#A89863" cx="430" cy="354" r="24"/><circle fill="none" stroke="#231F20" stroke-width="4" stroke-miterlimit="10" cx="430" cy="354" r="24"/><circle fill="#B2B2B2" cx="430" cy="354.02" r="8"/><path fill="none" stroke="#231F20" stroke-width="2" stroke-miterlimit="10" d="M417.3 347.79c1.055.344 1.63 1.474 1.287 2.52-.343 1.052-1.47 1.626-2.52 1.284-1.05-.34-1.63-1.47-1.284-2.52.342-1.05 1.47-1.623 2.517-1.284zm2.85 16.38c.653-.895 1.903-1.092 2.796-.44.893.648 1.09 1.898.44 2.792-.647.896-1.9 1.094-2.794.442-.89-.65-1.09-1.9-.443-2.794zm16.46 2.353c-.65-.896-.45-2.148.44-2.795.896-.648 2.144-.45 2.794.44.652.896.45 2.147-.443 2.795-.887.65-2.14.45-2.79-.44zm7.323-14.925c-1.053.34-2.182-.236-2.52-1.285-.34-1.05.234-2.178 1.285-2.52 1.05-.345 2.182.232 2.52 1.284.34 1.048-.237 2.177-1.285 2.52zm-11.93-11.578c-.005 1.104-.9 2.002-2 2-1.105-.002-2-.896-2-2-.005-1.104.895-2.004 2-2 1.1 0 1.997.896 2 2zm-.003 14c-.004 1.104-.897 2.002-2 2-1.104-.002-1.998-.896-2-2-.004-1.104.896-2.004 2.002-2 1.1 0 1.996.896 1.998 2z"/></g><path opacity=".7" fill="none" stroke="#B9529F" stroke-width="4" stroke-linecap="round" stroke-linejoin="round" stroke-miterlimit="10" enable-background="new" d="M270 178"/><path opacity=".7" fill="#EBEDED" stroke="#231F20" stroke-width="4" stroke-linecap="round" stroke-linejoin="round" stroke-miterlimit="10" enable-background="new" d="M154 370v-2c0 .67-.026 1.33-.05 1.994l.05.006z"/><path fill="#D71667" stroke="#231F20" stroke-width="4" stroke-linecap="round" stroke-linejoin="round" stroke-miterlimit="10" d="M434.002 98V86h-52L370 98H154v28c-40 0-80 28-80 28v8l-8 4-20 64-28 4L2 338l40 20 4.846.52C51.33 333.22 73.412 314 100 314c29.823 0 54 24.177 54 54v2h229.52c-.985-3.836-1.52-7.855-1.52-12 0-26.51 21.49-48 48-48s48 21.49 48 48c0 4.146-.537 8.163-1.525 12H582V98H434.002z"/><path fill="#E0277B" stroke="#EB8BB3" stroke-width="4" stroke-linecap="round" stroke-linejoin="round" stroke-miterlimit="10" d="M34 274s-16 72 28 52c0 0 16-24 32-24 0 0 48-20 32-44s-52-16-56 24-24-28-36-8z"/><path fill="none" stroke="#EB8BB3" stroke-width="4" stroke-linecap="round" stroke-linejoin="round" stroke-miterlimit="10" d="M198 298s-16-4-20 4c0 0 16 4 20-4"/><path fill="#E0277B" stroke="#EB8BB3" stroke-width="4" stroke-linecap="round" stroke-linejoin="round" stroke-miterlimit="10" d="M354 322c-20 12-28-4-28-4-20 24-28 0-28 0 0 4-24 16-24 16s-8 16-16 16c-7.998 0-16-12-16-12-4-8 0-20 8-24 8.002-4 16 8 16 16 0 0 0-28 8-36v-4s-24 16-16-8c0 0 40-36 44-24 0 0-12 52-8 48 0 0 12-20 12-44 0 0 20-12 20 0 0 0 16-12 20-8 0 0 4-16 16-12 0 0 8 0 8 8 0 0 8-8 24-12 0 0 16-4 12 8 0 0 20-20 28-4 0 0 4 28-16 28 0 0-12-4-4-16 0 0-20 8-20 52 0 0 8 0 8 4 0 0-32 16-32 8 0 0-11.998 12-16 4z"/><path fill="#D71667" stroke="#EB8BB3" stroke-width="4" stroke-linecap="round" stroke-linejoin="round" stroke-miterlimit="10" d="M358 286s4-16-4-12c0 0-16 16-12 36 0 0 12 4 16-24z"/><path fill="none" stroke="#EB8BB3" stroke-width="4" stroke-linecap="round" stroke-linejoin="round" stroke-miterlimit="10" d="M326 262l-8 52"/><path fill="#E0277B" stroke="#EB8BB3" stroke-width="4" stroke-linecap="round" stroke-linejoin="round" stroke-miterlimit="10" d="M494 294v-12c0-60 36-48 36-48 36 16 4 64 4 64-24 28-40-4-40-4-24 24-24-8-24-8-8 16-28 16-28 16-40 4 0-56 8-64s28-4 28 4l4-8h20s-8 28-8 40"/><path fill="#E0277B" stroke="#EB8BB3" stroke-width="4" stroke-linecap="round" stroke-linejoin="round" stroke-miterlimit="10" d="M172 208l6 22 24-4-6-20-24 2z"/><path fill="#D71667" stroke="#EB8BB3" stroke-width="4" stroke-linecap="round" stroke-linejoin="round" stroke-miterlimit="10" d="M462 250s-12 8-12 28c0 0 9.576 20.844 24-8 12.002-24-8-24-12-20zm56.002 16s-8 16-4 24 22.257-9.75 20-24c-2.26-14.25-8-16-16 0z"/><path fill="#E0277B" stroke="#EB8BB3" stroke-width="4" stroke-linecap="round" stroke-linejoin="round" stroke-miterlimit="10" d="M534 298c0 48 48 40 48 40v-72c-24-20-16-28-16-28 8 0 16 12 16 12v-24c-36-20-40 16-40 16s8 28 28 36c0 0-16-12-36 20z"/><path fill="#D71667" stroke="#EB8BB3" stroke-width="4" stroke-linecap="round" stroke-linejoin="round" stroke-miterlimit="10" d="M558 294s-12 8 0 16 16-4 16-8-8-8-16-8z"/><path fill="#E0277B" stroke="#EB8BB3" stroke-width="4" stroke-linecap="round" stroke-linejoin="round" stroke-miterlimit="10" d="M582 338s-44 8-68-20c0 0-40-16-56-4 0 0 16 12 16 16s32-12 40 12-12 8-16 4-20 4 0 20h84v-28z"/><path fill="none" stroke="#EB8BB3" stroke-width="4" stroke-linecap="round" stroke-linejoin="round" stroke-miterlimit="10" d="M386 330s-48 12-88 32c0 0-24 0-20-12s28-16 36-8 60 28 64 8-40 0-40 16"/><path fill="#E0277B" stroke="#EB8BB3" stroke-width="4" stroke-linecap="round" stroke-linejoin="round" stroke-miterlimit="10" d="M246 238c-12-24-72-8-72-8s-20 32-24 52c0 0 44-28 60-28s36-16 36-16zm288-44s48-16 44-36-36-8-36 4-17.47-22.903 12-36c18-8 28-4 28 16v32s0 4-8 8 12 24-12 24-12-4-12-12-16 0-16 0z"/><path fill="none" stroke="#EB8BB3" stroke-width="4" stroke-linecap="round" stroke-linejoin="round" stroke-miterlimit="10" d="M158 146s8-15 28-15"/><path fill="#E0277B" stroke="#EB8BB3" stroke-width="4" stroke-linecap="round" stroke-linejoin="round" stroke-miterlimit="10" d="M100 314c-12-24 2-40 2-40 16-16 32 0 32 12s-20 4-20 4c0 24 36 8 36 8 0-8-3.998-56 40.002-52S262 230 262 230h40s0 12-36 24c0 0-24 28-32 84v24h-44c32-44 36-100 36-100-48 0-48 28-48 28 20-8 20.498-3.917 32-2 12 2-8 34-8 34-28 16-48-4-48-4-9.026 3.01-17.047 4.006-23.998 3.81"/><path fill="none" stroke="#EB8BB3" stroke-width="4" stroke-linecap="round" stroke-linejoin="round" stroke-miterlimit="10" d="M262 122"/><path fill="#E0277B" stroke="#EB8BB3" stroke-width="4" stroke-linecap="round" stroke-linejoin="round" stroke-miterlimit="10" d="M218 130s32-4 64-32h64s-56 36-92 40-36-8-36-8zm104 2s46-18 78-46h32s-38 50-74 54-36-8-36-8zm74 12s42-18 74-46h36s-56 50-92 54-18-8-18-8z"/><path fill="none" stroke="#EB8BB3" stroke-width="4" stroke-linecap="round" stroke-linejoin="round" stroke-miterlimit="10" d="M156.79 143.767C160.975 132.237 172.026 124 185 124c1.295 0 2.57.082 3.82.24M154 144.917c0-22.69 18.394-41.083 41.084-41.083M154 150.04c0-19.857 16.1-35.957 35.96-35.957.69 0 1.38.02 2.063.06m-67.668 80.267c-2.91-25.357 15.246-48.267 35.945-50.644m-46.21 50.644c-2.98-25.963 15.65-49.424 41.61-52.404m-52.61 52.404c-2.98-25.963 15.65-49.424 41.61-52.404 3.243-.372 6.45-.406 9.58-.132M96.09 190.41c-2.98-25.963 15.65-49.424 41.61-52.404 5.596-.643 11.076-.28 16.26.943m-64.87 46.46c-2.98-25.964 15.65-49.425 41.61-52.405 11.046-1.268 21.64 1.378 30.397 6.836"/><circle fill="#E0277B" stroke="#EB8BB3" stroke-width="4" stroke-linecap="round" stroke-linejoin="round" stroke-miterlimit="10" cx="176" cy="176" r="36"/><path fill="#C1BFB5" stroke="#231F20" stroke-width="4" stroke-linecap="round" stroke-linejoin="round" stroke-miterlimit="10" d="M534 157.575L546 138H194l12 19.575h328z"/><path fill="#FFF6E3" stroke="#231F20" stroke-width="4" stroke-linecap="round" stroke-linejoin="round" stroke-miterlimit="10" d="M194 130h352v8H194v-8z"/><path fill="#444646" stroke="#231F20" stroke-width="4" stroke-linecap="round" stroke-linejoin="round" stroke-miterlimit="10" d="M206 158h328v72H206v-72z"/><path fill="#FFF6E3" stroke="#231F20" stroke-width="4" stroke-miterlimit="10" d="M566 162"/><path fill="#C1BFB5" stroke="#231F20" stroke-width="4" stroke-linecap="round" stroke-linejoin="round" stroke-miterlimit="10" d="M532 202"/><path fill="#C1BFB5" stroke="#231F20" stroke-width="4" stroke-linecap="round" stroke-linejoin="round" stroke-miterlimit="10" d="M206 222h328v8H206v-8zm328-64.425L546 138H194l12 19.575h328z"/><path fill="#FFF6E3" stroke="#231F20" stroke-width="4" stroke-linecap="round" stroke-linejoin="round" stroke-miterlimit="10" d="M194 130h352v8H194v-8z"/><path fill="#444646" stroke="#231F20" stroke-width="4" stroke-linecap="round" stroke-linejoin="round" stroke-miterlimit="10" d="M206 158h328v72H206v-72z"/><path fill="#FFF6E3" stroke="#231F20" stroke-width="4" stroke-miterlimit="10" d="M566 162"/><path fill="#C1BFB5" stroke="#231F20" stroke-width="4" stroke-linecap="round" stroke-linejoin="round" stroke-miterlimit="10" d="M532 202"/><path fill="#C1BFB5" stroke="#231F20" stroke-width="4" stroke-linecap="round" stroke-linejoin="round" stroke-miterlimit="10" d="M206 222h328v8H206v-8z"/><path fill="none" stroke="#231F20" stroke-width="4" stroke-linecap="round" stroke-linejoin="round" stroke-miterlimit="10" d="M434.002 98V86h-52L370 98H154v28c-40 0-80 28-80 28v8l-8 4-20 64-28 4L2 338l40 20 4.846.52C51.33 333.22 73.412 314 100 314c29.823 0 54 24.177 54 54v2h229.52c-.985-3.836-1.52-7.855-1.52-12 0-26.51 21.49-48 48-48s48 21.49 48 48c0 4.146-.537 8.163-1.525 12H582V98H434.002z"/><path fill="#CDD4C8" stroke="#231F20" stroke-width="4" stroke-linecap="round" stroke-linejoin="round" stroke-miterlimit="10" d="M66 194h-4c-4.418 0-8-3.582-8-8v-6c0-4.418 3.582-8 8-8h4v22z"/><path fill="none" stroke="#231F20" stroke-width="4" stroke-miterlimit="10" d="M162.002 370L154 126"/><path fill="#ECEDE7" stroke="#231F20" stroke-width="4" stroke-miterlimit="10" d="M238 354c0 2.21-1.79 4-4 4h-24c-2.21 0-4-1.79-4-4v-4c0-2.21 1.79-4 4-4h24c2.21 0 4 1.79 4 4v4zm232-76c0 2.21-1.79 4-4 4h-84c-2.21 0-4-1.79-4-4s1.79-4 4-4h84c2.21 0 4 1.79 4 4zM44.55 336.393c-.954 1.992-3.34 2.836-5.334 1.883l-3.608-1.728c-1.993-.952-2.836-3.34-1.883-5.333l1.727-3.607c.95-1.993 3.342-2.836 5.334-1.883l3.61 1.727c1.99.955 2.833 3.343 1.88 5.335l-1.726 3.606z"/><path fill="none" stroke="#231F20" stroke-width="4" stroke-miterlimit="10" d="M46 230L14 346"/><path fill="#4CABC2" stroke="#000" stroke-width="4" stroke-miterlimit="10" d="M242 138"/><path fill="#4CABC2" stroke="#231F20" stroke-width="4" stroke-linecap="round" stroke-linejoin="round" stroke-miterlimit="10" d="M136.002 234c5.52 0 9.998-4.475 9.998-10v-42c0-5.522-4.477-10-10-10H78l-16 54s0 8 8 8h66.002z"/><path opacity=".2" fill="#fff" enable-background="new" d="M138 170l-61.998 65h-4L134 170h4zm8 32l-28 32h-12l40-48v16zm-16-32l-61.998 65-7.668-9L114 170h16z"/><path fill="none" stroke="#231F20" stroke-width="4" stroke-linecap="round" stroke-linejoin="round" stroke-miterlimit="10" d="M136.002 234c5.52 0 9.998-4.475 9.998-10v-42c0-5.522-4.477-10-10-10H78l-16 54s0 8 8 8h66.002z"/><path fill="none" stroke="#231F20" stroke-width="4" stroke-miterlimit="10" d="M118.316 172v63"/><path fill="#F79520" stroke="#231F20" stroke-width="4" stroke-linecap="round" stroke-linejoin="round" stroke-miterlimit="10" d="M16.984 334c-3.777-1.12-5.934-5.092-4.814-8.87s5.092-5.935 8.87-4.813L16.984 334z"/><path fill="#CDD4C8" stroke="#231F20" stroke-width="4" stroke-linecap="round" stroke-linejoin="round" stroke-miterlimit="10" d="M65.75 172h6.252"/><path fill="#D71667" stroke="#231F20" stroke-width="4" stroke-linecap="round" stroke-linejoin="round" stroke-miterlimit="10" d="M30 264c0 5.52-12.477 10-18 10s-10-4.48-10-10 4.477-10 10-10 18 4.48 18 10z"/><path fill="#ECEDE7" stroke="#231F20" stroke-width="4" stroke-miterlimit="10" d="M12 274c-5.523 0-10-4.48-10-10s6.477-10 12-10l-2 20z"/><path fill="#D71667" stroke="#231F20" stroke-width="4" stroke-linecap="round" stroke-linejoin="round" stroke-miterlimit="10" d="M-6 254"/><path fill="#ECECEC" stroke="#231F20" stroke-width="4" stroke-linecap="round" stroke-linejoin="round" stroke-miterlimit="10" d="M312 194v20c0 2.21-1.79 4-4 4s-4-1.79-4-4v-20l4-4 4 4zm-4-4v-4"/><path fill="#FCEE22" stroke="#231F20" stroke-width="4" stroke-linecap="round" stroke-linejoin="round" stroke-miterlimit="10" d="M408 194v20c0 2.21-1.79 4-4 4s-4-1.79-4-4v-20l4-4 4 4zm-4-4v-4"/><path fill="#27F47A" stroke="#231F20" stroke-width="4" stroke-linecap="round" stroke-linejoin="round" stroke-miterlimit="10" d="M392 194v20c0 2.21-1.79 4-4 4s-4-1.79-4-4v-20l4-4 4 4zm-4-4v-4"/><path fill="#CE3746" stroke="#231F20" stroke-width="4" stroke-linecap="round" stroke-linejoin="round" stroke-miterlimit="10" d="M376 194v20c0 2.21-1.79 4-4 4s-4-1.79-4-4v-20l4-4 4 4zm-4-4v-4"/><path fill="#ECECEC" stroke="#231F20" stroke-width="4" stroke-linecap="round" stroke-linejoin="round" stroke-miterlimit="10" d="M232 210h-20v8h20v-8zm0-8h-20v8h20v-8zm0-8h-20v8h20v-8z"/><path fill="#939A9F" stroke="#231F20" stroke-width="4" stroke-linecap="round" stroke-linejoin="round" stroke-miterlimit="10" d="M244 218l-4-24h24l-4 24h-16zm32 0l-4-24h24l-4 24h-16zm232 0l12-24c0-2.21-1.79-4-4-4h-48c-2.21 0-4 1.79-4 4l12 24h32zm-24-32c0-4.418 3.582-8 8-8s8 3.582 8 8"/><path fill="#939A9F" stroke="#231F20" stroke-width="4" stroke-linecap="round" stroke-linejoin="round" stroke-miterlimit="10" d="M464 186h56v8h-56v-8z"/><g class="menu"><path fill="#AE7F38" stroke="#231F20" stroke-width="4" stroke-linecap="round" stroke-linejoin="round" stroke-miterlimit="10" d="M617.062 148c-4.62-7.217-12.885-12-22.09-12s-17.293 4.783-21.91 12l8 8h28l8-8z"/><path fill="#124467" stroke="#231F20" stroke-width="4" stroke-linecap="round" stroke-linejoin="round" stroke-miterlimit="10" d="M558 204c18-10 14-33 14-33 0-12.703 10.297-23 23-23s23 10.297 23 23c0 0-6 27-14 27"/><path fill="#124467" stroke="#231F20" stroke-width="4" stroke-linecap="round" stroke-linejoin="round" stroke-miterlimit="10" d="M630 238c0-24.3-19.7-44-44-44s-44 19.7-44 44l2 60s1 33-10 44c0 0-13 11 0 24 0 0 4 6 10 0 0 0 0 28 12 28h58s10 0 10-6l6-150z"/><path fill="#7B2226" stroke="#231F20" stroke-width="4" stroke-linecap="round" stroke-linejoin="round" stroke-miterlimit="10" d="M606 200s-12 20 4 34l12 34-6 96s2 16-2 18c0 0-4 2-2 12h-58s-2-26 4-34 16-52 6-72c0 0 12 10 12-24 0 0-8 6-12 4 0 0 6-24 10-24 0 0-4-36 8-50 0 0 18.043-.5 24 6zm-32 44h6"/><ellipse fill="none" stroke="#231F20" stroke-width="4" stroke-linecap="round" stroke-linejoin="round" stroke-miterlimit="10" cx="580" cy="254" rx="4" ry="10"/><path fill="none" stroke="#ECECEC" stroke-width="4" stroke-linecap="round" stroke-linejoin="round" stroke-miterlimit="10" d="M603.798 252c-2.522 2.475-5.98 4-9.798 4-3.828 0-7.298-1.537-9.825-4.027h-7.216"/><circle fill="#77B0D6" stroke="#231F20" stroke-width="4" stroke-linecap="round" stroke-linejoin="round" stroke-miterlimit="10" cx="594" cy="242" r="10"/><circle fill="none" stroke="#231F20" stroke-width="4" stroke-linecap="round" stroke-linejoin="round" stroke-miterlimit="10" cx="594" cy="242" r="10"/><path fill="none" stroke="#231F20" stroke-width="4" stroke-linecap="round" stroke-linejoin="round" stroke-miterlimit="10" d="M580 264c-2.21 0-4-4.48-4-10s1.79-10 4-10"/><path fill="#ECECEC" stroke="#231F20" stroke-width="4" stroke-linecap="round" stroke-linejoin="round" stroke-miterlimit="10" d="M608 169c0 7.18-5.82 21-13 21s-13-13.82-13-21 5.82-13 13-13 13 5.82 13 13z"/><circle fill="#124467" stroke="#231F20" stroke-width="4" stroke-linecap="round" stroke-linejoin="round" stroke-miterlimit="10" cx="590" cy="168" r="2"/><circle fill="#124467" stroke="#231F20" stroke-width="4" stroke-linecap="round" stroke-linejoin="round" stroke-miterlimit="10" cx="600" cy="168" r="2"/><path fill="#124467" stroke="#231F20" stroke-width="4" stroke-linecap="round" stroke-linejoin="round" stroke-miterlimit="10" d="M592 180h6"/><circle fill="#231F20" cx="595" cy="174" r="2"/><path fill="#454545" stroke="#231F20" stroke-width="4" stroke-linecap="round" stroke-linejoin="round" stroke-miterlimit="10" d="M672 244.363c0-2.41-1.79-4.363-4-4.363h-52c-2.21 0-4 1.954-4 4.363v117.273c0 2.41 1.79 4.36 4 4.36h52c2.21 0 4-1.954 4-4.363v-117.27z"/><path fill="none" stroke="#ECECEC" stroke-width="12" stroke-linecap="round" stroke-linejoin="round" stroke-miterlimit="10" d="M626 252h32"/><path fill="none" stroke="#ECECEC" stroke-width="8" stroke-linecap="round" stroke-linejoin="round" stroke-miterlimit="10" d="M622 268h24"/><path fill="none" stroke="#ECECEC" stroke-width="4" stroke-linecap="round" stroke-linejoin="round" stroke-miterlimit="10" d="M620 276h6m6 0h4m6 0h10"/><path fill="none" stroke="#ECECEC" stroke-width="8" stroke-linecap="round" stroke-linejoin="round" stroke-miterlimit="10" d="M662 274h.5M622 322h24m-24 22h28m-28 12h14"/><path fill="none" stroke="#ECECEC" stroke-width="4" stroke-linecap="round" stroke-linejoin="round" stroke-miterlimit="10" d="M620 330h6m6 0h4m6 0h10"/><path fill="none" stroke="#ECECEC" stroke-width="8" stroke-linecap="round" stroke-linejoin="round" stroke-miterlimit="10" d="M662 328h.5m-.5 16h.5m-.5 12h.5M622 304h14"/><path fill="none" stroke="#ECECEC" stroke-width="4" stroke-linecap="round" stroke-linejoin="round" stroke-miterlimit="10" d="M620 312h4m6 0h4m6 0h4m6 0h4"/><path fill="none" stroke="#ECECEC" stroke-width="8" stroke-linecap="round" stroke-linejoin="round" stroke-miterlimit="10" d="M662 310h.5M622 286h14m10 0h8"/><path fill="none" stroke="#ECECEC" stroke-width="4" stroke-linecap="round" stroke-linejoin="round" stroke-miterlimit="10" d="M620 294h6m6 0h4m6 0h10"/><path fill="none" stroke="#ECECEC" stroke-width="8" stroke-linecap="round" stroke-linejoin="round" stroke-miterlimit="10" d="M662 292h.5"/></g></svg>