<svg xmlns="http://www.w3.org/2000/svg" width="356.167" height="400" viewBox="0 0 356.167 400"><path fill="#C1BEB4" stroke="#231F20" stroke-width="4" stroke-linecap="round" stroke-linejoin="round" stroke-miterlimit="10" d="M2.167 150h12v148h-12zM342.166 150h12v148h-12z"/><path fill="#454545" stroke="#231F20" stroke-width="4" stroke-linecap="round" stroke-linejoin="round" stroke-miterlimit="10" d="M350.166 106h-4c-52-8-168-60-168-72 0 12-116 64-168 72h-4c-2.208 0-4 1.79-4 4v40h352v-40c0-2.21-1.79-4-4-4z"/><path fill="#333" stroke="#231F20" stroke-width="4" stroke-linecap="round" stroke-linejoin="round" stroke-miterlimit="10" d="M354.166 186c0 2.21-1.79 4-4 4h-344c-2.208 0-4-1.79-4-4v-76c0-2.21 1.792-4 4-4h344c2.21 0 4 1.79 4 4v76zM354.166 378c0 2.21-1.79 4-4 4h-344c-2.208 0-4-1.79-4-4v-80h352v80z"/><path fill="#5A4A42" stroke="#231F20" stroke-width="4" stroke-linecap="round" stroke-linejoin="round" stroke-miterlimit="10" d="M14.167 286h328v12h-328z"/><path fill="#939A9F" stroke="#231F20" stroke-width="4" stroke-linecap="round" stroke-linejoin="round" stroke-miterlimit="10" d="M96.167 262c0-2.21-1.79-4-4-4h-56c-2.21 0-4 1.79-4 4v8h64v-8z"/><path fill="#6C7071" stroke="#231F20" stroke-width="4" stroke-linecap="round" stroke-linejoin="round" stroke-miterlimit="10" d="M36.167 282l-4-12h64l-4 12z"/><path fill="#CE3746" stroke="#231F20" stroke-width="4" stroke-linecap="round" stroke-linejoin="round" stroke-miterlimit="10" d="M116.167 278h48"/><path fill="#CE3746" d="M116.167 282c-2.206 0-4-1.794-4-4s1.794-4 4-4h48c2.206 0 4 1.794 4 4s-1.794 4-4 4h-48z"/><path fill="#231F20" d="M164.167 276c1.104 0 2 .896 2 2s-.896 2-2 2h-48c-1.104 0-2-.896-2-2s.896-2 2-2h48m0-4h-48c-3.31 0-6 2.69-6 6s2.69 6 6 6h48c3.31 0 6-2.69 6-6s-2.69-6-6-6z"/><path fill="#FCEE22" stroke="#231F20" stroke-width="4" stroke-linecap="round" stroke-linejoin="round" stroke-miterlimit="10" d="M208.166 258v20c0 2.21-1.79 4-4 4s-4-1.79-4-4v-20l4-4 4 4zM204.166 254v-4"/><path fill="#CE3746" stroke="#231F20" stroke-width="4" stroke-linecap="round" stroke-linejoin="round" stroke-miterlimit="10" d="M192.166 258v20c0 2.21-1.79 4-4 4s-4-1.79-4-4v-20l4-4 4 4zM188.166 254v-4"/><path fill="#FCEE22" stroke="#231F20" stroke-width="4" stroke-linecap="round" stroke-linejoin="round" stroke-miterlimit="10" d="M252.166 258v20c0 2.21-1.79 4-4 4s-4-1.79-4-4v-20l4-4 4 4zM248.166 254v-4"/><path fill="#CE3746" stroke="#231F20" stroke-width="4" stroke-linecap="round" stroke-linejoin="round" stroke-miterlimit="10" d="M236.166 258v20c0 2.21-1.79 4-4 4s-4-1.79-4-4v-20l4-4 4 4zM232.166 254v-4"/><path fill="#454545" stroke="#231F20" stroke-width="4" stroke-linecap="round" stroke-linejoin="round" stroke-miterlimit="10" d="M332.166 282.363c0-2.41-1.79-4.363-4-4.363h-52c-2.21 0-4 1.954-4 4.363v95.273c0 2.41 1.79 4.363 4 4.363h52c2.21 0 4-1.955 4-4.364v-95.273z"/><path fill="none" stroke="#fff" stroke-width="4" stroke-linecap="round" stroke-linejoin="round" stroke-miterlimit="10" d="M280.166 302h8"/><path fill="none" stroke="#FF034B" stroke-width="8" stroke-linecap="round" stroke-linejoin="round" stroke-miterlimit="10" d="M280.166 290h12M302.166 290h4M316.166 290h8"/><path fill="none" stroke="#fff" stroke-width="4" stroke-linecap="round" stroke-linejoin="round" stroke-miterlimit="10" d="M296.166 302h4M280.166 330h8M296.166 330h4M296.166 314h28M296.166 346h28"/><path fill="#4C81B7" d="M285.572 309.426c-2.234 1.307-2.348 4.993.435 5.76 2.94.808 5.17-3.06 3.02-5.21-.917-.916-2.412-1.127-3.538-.467-1.38.807-1.456 2.32-1.19 3.716.23 1.22-.105 1.604-.89 2.498-.77.878-1.686 1.612-2.824 1.866-3.146.704-1.812 5.524 1.33 4.822 2.364-.53 4.18-2.128 5.71-3.943.844-1.003 1.53-2.006 1.663-3.343.11-1.134-.142-2.167-.158-3.27l-.342 1.26c.04-.06.08-.124.12-.187-.5.383-.996.766-1.494 1.15.1-.02.197-.036.296-.054l-1.927-.252-.568-.52c-.114-.42-.228-.842-.34-1.263 0 .1.002.197.003.296l.342-1.262.518-.43c.42-.115.84-.23 1.262-.343-.11.01-.22.017-.328.023l1.262.342.592.572.34 1.262-.77 1.292c2.777-1.627.263-5.95-2.526-4.316zM284.75 311c-.304.003-.607.01-.91 0-.287-.022-.247-.013.117.03-.564-.093.432.28-.055 0 .522.574.653.683.392.323-.33-.483-.076-.62-.004.373-.036-.496-.064-.997-.213-1.475-.406-1.3-1.73-2.115-3.076-1.745-1.278.353-2.15 1.775-1.745 3.076.206.66.007-.487.035.146.027.59.112 1.095.386 1.62.39.747.885 1.388 1.562 1.895 1 .752 2.316.768 3.512.76 1.362-.01 2.5-1.13 2.5-2.5 0-1.354-1.137-2.508-2.5-2.5zM284.333 313.5c-.75.026-1.56.184-2.188.24-.58.053-.148.06.11.17-.234-.145-.233-.13.003.046-.112-.1-.22-.2-.326-.307-.975-.952-2.563-.973-3.535 0-.955.953-.975 2.583 0 3.534.707.69 1.533 1.302 2.532 1.465 1.19.193 2.317-.112 3.402-.15 1.36-.046 2.5-1.1 2.5-2.5 0-1.326-1.136-2.546-2.5-2.5zM288.166 346c0 2.21-1.79 4-4 4h-4c-2.21 0-4-1.79-4-4v-4c0-2.21 1.79-4 4-4h4c2.21 0 4 1.79 4 4v4z"/><g fill="none" stroke="#FF034B" stroke-width="20" stroke-linecap="round" stroke-linejoin="round" stroke-miterlimit="10"><path d="M48.167 134h80M156.167 134h24M208.166 134h104"/></g><g fill="none" stroke="#FF034B" stroke-width="12" stroke-linecap="round" stroke-linejoin="round" stroke-miterlimit="10"><path d="M84.167 174h60M164.167 174h12M196.166 174h84"/></g></svg>