<svg xmlns="http://www.w3.org/2000/svg" width="548" height="400" viewBox="-1.5 0.5 548 400" enable-background="new -1.5 0.5 548 400"><path fill="#333" stroke="#231F20" stroke-width="4" stroke-linecap="round" stroke-linejoin="round" stroke-miterlimit="10" d="M440.5 372.5h74v-50h-84l10 50z"/><path fill="#333" stroke="#231F20" stroke-width="4" stroke-miterlimit="10" d="M90.5 374.5h362c10.514-13.28-12-58-46-60-57.39-3.376-240.865 0-262 0-50 0-54 48-54 60z"/><circle fill="none" stroke="#231F20" stroke-width="4" stroke-miterlimit="10" cx="143.395" cy="361.606" r="20.124"/><g class="wheel"><path fill="#5E6363" stroke="#231F20" stroke-width="4" stroke-miterlimit="10" d="M437.393 361.23c0 20.584-16.117 37.27-36 37.27s-36-16.686-36-37.27c0-20.582 16.115-34.73 35.998-34.73 19.885.002 36.002 14.148 36.003 34.73z"/><circle fill="#89D9CE" stroke="#231F20" stroke-width="4" stroke-linecap="round" stroke-linejoin="round" stroke-miterlimit="10" cx="401.393" cy="362.5" r="20"/><circle fill="#6AA59B" cx="401.392" cy="362.5" r="6"/><path fill="#6AA59B" d="M390.17 357.55c.884.287 1.365 1.234 1.078 2.113-.285.877-1.23 1.357-2.112 1.072-.877-.285-1.36-1.232-1.075-2.11.29-.88 1.233-1.36 2.114-1.08l-.002.004h-.002zm3.154 14.027c.55-.75 1.598-.918 2.346-.373s.912 1.597.37 2.344c-.542.752-1.595.916-2.34.373-.75-.546-.915-1.595-.374-2.34l-.002-.003zm13.418 1.97c-.543-.753-.377-1.802.37-2.345.75-.543 1.8-.377 2.345.373.545.746.377 1.8-.373 2.342-.748.543-1.797.373-2.342-.37zm6.907-12.804c-.885.282-1.83-.2-2.113-1.078-.287-.88.194-1.826 1.074-2.11.882-.29 1.83.192 2.113 1.075.288.88-.197 1.824-1.074 2.113zm-10.58-9.984c-.004.927-.754 1.68-1.678 1.68-.926-.005-1.674-.754-1.678-1.68-.002-.927.75-1.68 1.678-1.677.927 0 1.677.75 1.678 1.672v.004z"/><path fill="#89D9CE" d="M405.07 362.5c-.01 2.028-1.65 3.68-3.677 3.677-2.033-.006-3.676-1.648-3.676-3.678-.01-2.036 1.643-3.686 3.676-3.677 2.024-.005 3.668 1.645 3.676 3.672v.004z"/></g><g class="wheel"><path fill="#5E6363" stroke="#231F20" stroke-width="4" stroke-miterlimit="10" d="M178.5 361.23c0 20.584-16.118 37.27-36 37.27s-36-16.686-36-37.27c0-20.582 16.116-34.73 35.998-34.73 19.884.002 36 14.148 36.002 34.73z"/><circle fill="#89D9CE" stroke="#231F20" stroke-width="4" stroke-linecap="round" stroke-linejoin="round" stroke-miterlimit="10" cx="142.5" cy="362.5" r="20"/><circle fill="#6AA59B" cx="142.499" cy="362.5" r="6"/><path fill="#6AA59B" d="M131.278 357.55c.883.287 1.365 1.234 1.078 2.113-.285.877-1.23 1.357-2.113 1.072-.877-.285-1.36-1.232-1.075-2.11.29-.88 1.232-1.36 2.113-1.08l-.002.005zm3.154 14.027c.55-.75 1.598-.918 2.346-.373s.912 1.597.37 2.344c-.542.752-1.595.916-2.342.373-.747-.546-.913-1.595-.373-2.34v-.003zm13.418 1.97c-.543-.753-.377-1.802.37-2.345.75-.543 1.8-.377 2.345.373.544.746.377 1.8-.373 2.342-.748.543-1.797.373-2.342-.37zm6.907-12.804c-.884.282-1.83-.2-2.113-1.078-.287-.88.195-1.826 1.075-2.11.88-.29 1.83.192 2.11 1.075.288.88-.196 1.824-1.073 2.113zm-10.58-9.984c-.003.927-.753 1.68-1.677 1.68-.926-.005-1.674-.754-1.677-1.68-.003-.927.75-1.68 1.677-1.677.927 0 1.677.75 1.678 1.672v.003z"/><path fill="#89D9CE" d="M146.177 362.5c-.008 2.028-1.65 3.68-3.676 3.677-2.032-.006-3.675-1.648-3.675-3.678-.008-2.036 1.643-3.686 3.676-3.677 2.025-.005 3.67 1.645 3.677 3.672v.004z"/></g><path fill="#89D9CE" stroke="#231F20" stroke-width="4" stroke-linecap="round" stroke-linejoin="round" stroke-miterlimit="10" d="M542.5 170.5v-4c0-2.21-1.79-4-4-4h-24v-6c0-2.21-1.79-4-4-4h-474c-3.314 0-6 2.687-6 6v8h4l-8 110-6 4-6 18 6 6-12 36v12l-8-2v10l84 24 20-62h8l34-10 24 10h32v62h142v-62h26l30-8 34 8h80v34h14v-10h-6v-130l20-46z"/><path fill="#D9295F" stroke="#231F20" stroke-width="4" stroke-linecap="round" stroke-linejoin="round" stroke-miterlimit="10" d="M542.5 170.5v-4c0-2.21-1.79-4-4-4h-24v-6c0-2.21-1.79-4-4-4h-474c-3.314 0-6 2.687-6 6l92 12h420z"/><path fill="#231F20" d="M76.5 368.438c-.194 0-.39-.028-.58-.086l-46-13.938c-.89-.27-1.477-1.117-1.416-2.046l12-182c.037-.562.31-1.08.748-1.432.44-.35 1.007-.5 1.562-.412l88 14c1.043.166 1.778 1.116 1.676 2.167l-11.595 120c-.076.79-.61 1.46-1.364 1.708-25.308 8.35-41.03 29.08-41.03 54.102v5.938c0 .633-.3 1.23-.81 1.606-.347.26-.766.394-1.19.394zm-43.9-17.39l41.9 12.694V360.5c0-26.395 16.262-48.31 42.54-57.48l11.29-116.84-83.978-13.36L32.6 351.046z"/><path fill="#ECECEC" stroke="#231F20" stroke-width="4" stroke-linecap="round" stroke-linejoin="round" stroke-miterlimit="10" d="M84.5 362.973V384.5s14 0 14-12v-9.242c0-26.016 18.163-42.758 44.18-42.758s45.82 16.742 45.82 42.758v9.242c0 12 14 12 14 12v-21.527c0-33.04-26.782-54.473-59.82-54.473-33.04 0-58.18 21.434-58.18 54.473zm258 0V384.5s14 0 14-12v-9.242c0-26.016 18.163-32.758 44.18-32.758 26.018 0 45.82 6.742 45.82 32.758v9.242c0 12 14 12 14 12v-21.527c0-33.04-26.78-54.473-59.82-54.473s-58.18 21.434-58.18 54.473z"/><path fill="#89D9CE" d="M346.5 292.5h112v28h-112v-28z"/><path fill="#89D9CE" stroke="#231F20" stroke-width="4" stroke-linecap="round" stroke-linejoin="round" stroke-miterlimit="10" d="M458.5 322.5h-112"/><path fill="#444646" stroke="#231F20" stroke-width="4" stroke-linecap="round" stroke-linejoin="round" stroke-miterlimit="10" d="M180.5 178.5h334v128h-334v-128z"/><path fill="#C1BFB5" stroke="#231F20" stroke-width="4" stroke-linecap="round" stroke-linejoin="round" stroke-miterlimit="10" d="M194.5 298.5h310v8h-310v-8z"/><path fill="#9E9683" stroke="#231F20" stroke-width="4" stroke-linecap="round" stroke-linejoin="round" stroke-miterlimit="10" d="M194.5 178.5h310v28h-310v-28z"/><g stroke="#231F20" stroke-width="4" stroke-linecap="round" stroke-linejoin="round" stroke-miterlimit="10"><path fill="#333" d="M214.5 184.5h34v16h-34v-16z"/><path fill="#ECECEC" d="M214.5 184.5h12v16h-12v-16z"/><path fill="#333" d="M260.5 184.5h34v16h-34v-16z"/><path fill="#ECECEC" d="M260.5 184.5h12v16h-12v-16z"/><path fill="#333" d="M306.5 184.5h34v16h-34v-16z"/><path fill="#ECECEC" d="M306.5 184.5h12v16h-12v-16z"/><path fill="#333" d="M360.5 184.5h34v16h-34v-16z"/><path fill="#ECECEC" d="M360.5 184.5h12v16h-12v-16z"/><path fill="#333" d="M406.5 184.5h34v16h-34v-16z"/><path fill="#ECECEC" d="M406.5 184.5h12v16h-12v-16z"/><path fill="#333" d="M450.5 184.5h34v16h-34v-16z"/><path fill="#ECECEC" d="M450.5 184.5h12v16h-12v-16z"/></g><path fill="#89D9CE" stroke="#231F20" stroke-width="4" stroke-linecap="round" stroke-linejoin="round" stroke-miterlimit="10" d="M60.5 278.5h-16"/><path fill="#4CABC2" stroke="#231F20" stroke-width="4" stroke-linecap="round" stroke-linejoin="round" stroke-miterlimit="10" d="M44.5 266.5h66c2.21 0 4-1.79 4-4l6.653-68c0-2.21-1.79-4-4-4l-68.653-10-4 86zm2-28h70m-72 28h66c2.21 0 4-1.79 4-4l6.653-68c0-2.21-1.79-4-4-4l-68.653-10-4 86zm2-28h70"/><path opacity=".2" fill="#fff" enable-background="new" d="M92.5 186.5l-46.25 49.75L46 220.5l30.5-34h16zm12 2l-60 64v-4l56-60h4zm14 30l-44 48h-30l68.5-76 7.5 2-2 26z"/><path fill="none" stroke="#231F20" stroke-width="4" stroke-linecap="round" stroke-linejoin="round" stroke-miterlimit="10" d="M44.5 266.5h66c2.21 0 4-1.79 4-4l6.653-68c0-2.21-1.79-4-4-4l-68.653-10-4 86zm2-28h70"/><path fill="#F79520" stroke="#231F20" stroke-width="4" stroke-linecap="round" stroke-linejoin="round" stroke-miterlimit="10" d="M140.5 152.5v-8c0-2.21-1.79-4-4-4h-4c-2.21 0-4 1.79-4 4v8h12zm-124 160h-6c-2.21 0-4 1.79-4 4v4c0 2.21 1.79 4 4 4h2l4-12zm498 22h8c2.21 0 4-1.79 4-4v-4c0-2.21-1.79-4-4-4h-8v12z"/><g fill="#454646" stroke="#231F20" stroke-width="4" stroke-linecap="round" stroke-linejoin="round" stroke-miterlimit="10"><path d="M34.5 222.5c0-4.418 3.582-8 8-8l-4-4c-4.418 0-8 3.582-8 8l4 4zm16-8h-4c-4.418 0-8-3.582-8-8v-20c0-4.418 3.582-8 8-8h4v36z"/><circle cx="34.5" cy="218.5" r="4"/></g><path fill="#454545" stroke="#231F20" stroke-width="4" stroke-linecap="round" stroke-linejoin="round" stroke-miterlimit="10" d="M544.5 174.5c0-2.41-1.79-4-4-4h-40c-2.21 0-4 1.59-4 4v135.637c0 2.41 1.79 4.363 4 4.363h40c2.21 0 4-1.954 4-4.363V174.5z"/><path fill="none" stroke="#D9295F" stroke-width="8" stroke-linecap="round" stroke-linejoin="round" stroke-miterlimit="10" d="M508.5 182.5h24"/><path fill="none" stroke="#D9295F" stroke-width="4" stroke-linecap="round" stroke-linejoin="round" stroke-miterlimit="10" d="M516.5 226.5h8m-8 8h8m-20 8h12m8 0h12"/><g stroke-width="4" stroke-linecap="round" stroke-linejoin="round" stroke-miterlimit="10"><path fill="none" stroke="#D9295F" d="M519.5 196.5h2m-4 4h6m-8 4h10"/><path fill="#ECECEC" stroke="#ECECEC" d="M527.5 208.5h-14l4 6h6l4-6z"/></g><path fill="none" stroke="#ECECEC" stroke-width="4" stroke-linecap="round" stroke-linejoin="round" stroke-miterlimit="10" d="M506.5 298.5h10m8 0h10m-18.334-16h8.334m-20 8h12m8 0h12m-24 16h16m-24-52h32"/><path fill="none" stroke="#ECECEC" stroke-width="8" stroke-linecap="round" stroke-linejoin="round" stroke-miterlimit="10" d="M506.5 268.5h28"/><path fill="#454545" stroke="#231F20" stroke-width="4" stroke-linecap="round" stroke-linejoin="round" stroke-miterlimit="10" d="M202.5 174.5c0-2.41-1.79-4-4-4h-40c-2.21 0-4 1.59-4 4v135.637c0 2.41 1.79 4.363 4 4.363h40c2.21 0 4-1.954 4-4.363V174.5z"/><path fill="none" stroke="#D9295F" stroke-width="8" stroke-linecap="round" stroke-linejoin="round" stroke-miterlimit="10" d="M166.5 182.5h24"/><path fill="none" stroke="#ECECEC" stroke-width="4" stroke-linecap="round" stroke-linejoin="round" stroke-miterlimit="10" d="M164.5 234.5h28m-28 8h10m8 0h10m-28 8h10m8 0h10m-28 12h28m-28 8h10m8 0h10m-10 8h10m-28 0h10m-10 12h28m-28 8h10m8 0h10m-10 8h10m-28 0h10"/><path fill="none" stroke="#ECECEC" stroke-width="8" stroke-linecap="round" stroke-linejoin="round" stroke-miterlimit="10" d="M166.5 194.5h24m-24 12h24m-24 12h24"/><path fill="#00245E" stroke="#231F20" stroke-width="4" stroke-linecap="round" stroke-linejoin="round" stroke-miterlimit="10" d="M202.5 242.5h36v56h-36v-56z"/><path fill="#D9295F" stroke="#231F20" stroke-width="4" stroke-linecap="round" stroke-linejoin="round" stroke-miterlimit="10" d="M258.5 278.5h28l-4 20h-20l-4-20zm0-8h28v8h-28v-8z"/><path fill="#C1BFB5" stroke="#231F20" stroke-width="4" stroke-linecap="round" stroke-linejoin="round" stroke-miterlimit="10" d="M410.5 224.5h66v74h-66v-74z"/><path fill="#ECECEC" stroke="#231F20" stroke-width="4" stroke-linecap="round" stroke-linejoin="round" stroke-miterlimit="10" d="M410.5 224.5h66v20h-66v-20zm16 20h34v20h-34v-20z"/><path fill="#444646" stroke="#231F20" stroke-width="4" stroke-linecap="round" stroke-linejoin="round" stroke-miterlimit="10" d="M434.5 258.5v-12m9 12v-12m9 12v-12"/><path fill="none" stroke="#D9295F" stroke-width="8" stroke-linecap="round" stroke-linejoin="round" stroke-miterlimit="10" d="M432.5 234.5h24"/><path fill="#ECECEC" stroke="#231F20" stroke-width="4" stroke-linecap="round" stroke-linejoin="round" stroke-miterlimit="10" d="M306.5 236.5h54v62h-54v-62zm4-6h46v6h-46v-6zm4-6h36v6h-36v-6zm34 44c0 2.21-1.79 4-4 4h-4c-2.21 0-4-1.79-4-4v-6c0-2.21 1.79-4 4-4h4c2.21 0 4 1.79 4 4v6z"/><path fill="#444646" stroke="#231F20" stroke-width="4" stroke-linecap="round" stroke-linejoin="round" stroke-miterlimit="10" d="M344.5 260.5c0 1.104-.896 2-2 2s-2-.896-2-2v-14c0-1.104.896-2 2-2s2 .896 2 2v14z"/><path fill="#ECECEC" stroke="#231F20" stroke-width="4" stroke-linecap="round" stroke-linejoin="round" stroke-miterlimit="10" d="M396.5 294.5h-6l-2-8h10l-2 8zm0-8h-6l-2-8h10l-2 8zm0-8h-6l-2-8h10l-2 8zm0-8h-6l-2-8h10l-2 8zm0-8h-6l-2-8h10l-2 8z"/></svg>