<svg xmlns="http://www.w3.org/2000/svg" width="548" height="400" viewBox="98.5 0.5 548 400" enable-background="new 98.5 0.5 548 400"><path fill="#333" stroke="#231F20" stroke-width="4" stroke-linecap="round" stroke-linejoin="round" stroke-miterlimit="10" d="M540.5 373h74v-50h-84z"/><path fill="#333" stroke="#231F20" stroke-width="4" stroke-miterlimit="10" d="M190.5 375h362c10.514-13.28-12-58-46-60-57.39-3.376-240.865 0-262 0-50 0-54 48-54 60z"/><path fill="#5E6363" stroke="#231F20" stroke-width="4" stroke-miterlimit="10" d="M280.288 362.106c0 20.376-16.518 36.894-36.895 36.894-20.375 0-36.894-16.518-36.894-36.894s16.517-34.38 36.893-34.38c20.378 0 36.895 14.004 36.895 34.38z"/><circle fill="#89D9CE" stroke="#231F20" stroke-width="4" stroke-linecap="round" stroke-linejoin="round" stroke-miterlimit="10" cx="243.395" cy="362.106" r="20.124"/><circle fill="#6AA59B" cx="243.394" cy="362.106" r="6.708"/><circle fill="none" stroke="#231F20" stroke-width="4" stroke-miterlimit="10" cx="243.395" cy="362.106" r="20.124"/><path fill="#6AA59B" d="M232.173 357.156c.883.288 1.365 1.235 1.078 2.113-.286.88-1.23 1.36-2.114 1.075-.877-.285-1.36-1.232-1.075-2.11.29-.88 1.232-1.362 2.113-1.08zM235.327 371.183c.55-.75 1.598-.918 2.346-.373s.912 1.595.37 2.342c-.542.752-1.595.917-2.342.373-.748-.545-.914-1.595-.373-2.342zM248.745 373.153c-.543-.753-.377-1.802.37-2.344.75-.544 1.8-.378 2.345.372.544.746.377 1.8-.373 2.342-.748.543-1.797.374-2.342-.37zM255.652 360.35c-.884.282-1.83-.2-2.113-1.078-.286-.88.196-1.826 1.076-2.112.88-.29 1.83.194 2.112 1.077.287.878-.197 1.824-1.076 2.113zM245.073 350.365c-.004.928-.754 1.682-1.678 1.68-.926-.004-1.674-.753-1.677-1.68-.003-.925.75-1.68 1.677-1.676.927 0 1.677.75 1.678 1.675z"/><path fill="#89D9CE" d="M247.072 362.105c-.008 2.03-1.65 3.68-3.676 3.678-2.033-.005-3.676-1.648-3.676-3.678-.008-2.034 1.643-3.683 3.676-3.676 2.024-.002 3.668 1.646 3.676 3.675z"/><path fill="#5E6363" stroke="#231F20" stroke-width="4" stroke-miterlimit="10" d="M538.288 362.106c0 20.376-16.518 36.894-36.895 36.894-20.376 0-36.894-16.518-36.894-36.894s16.517-34.38 36.893-34.38c20.378 0 36.895 14.004 36.895 34.38z"/><circle fill="#89D9CE" stroke="#231F20" stroke-width="4" stroke-linecap="round" stroke-linejoin="round" stroke-miterlimit="10" cx="501.394" cy="362.106" r="20.124"/><circle fill="#6AA59B" cx="501.394" cy="362.106" r="6.708"/><circle fill="none" stroke="#231F20" stroke-width="4" stroke-miterlimit="10" cx="501.394" cy="362.106" r="20.124"/><circle fill="#6AA59B" cx="489.656" cy="358.751" r="1.677"/><path fill="#6AA59B" d="M493.328 371.183c.55-.75 1.598-.918 2.345-.373s.913 1.595.37 2.342c-.542.752-1.596.917-2.342.373-.747-.545-.913-1.595-.372-2.342zM506.744 373.153c-.543-.753-.377-1.802.37-2.344.75-.544 1.8-.378 2.345.372.544.746.378 1.8-.372 2.342-.75.543-1.8.374-2.344-.37zM513.65 360.35c-.882.282-1.827-.2-2.11-1.078-.287-.88.195-1.826 1.076-2.112.88-.29 1.83.194 2.11 1.077.288.878-.196 1.824-1.075 2.113zM503.073 350.365c-.003.928-.753 1.682-1.677 1.68-.925-.004-1.675-.753-1.677-1.68-.005-.925.75-1.68 1.676-1.676.926 0 1.675.75 1.677 1.675z"/><path fill="#89D9CE" d="M505.073 362.105c-.008 2.03-1.652 3.68-3.677 3.678-2.033-.005-3.677-1.648-3.677-3.678-.008-2.034 1.643-3.683 3.676-3.676 2.024-.002 3.67 1.646 3.677 3.675z"/><path fill="#89D9CE" stroke="#231F20" stroke-width="4" stroke-linecap="round" stroke-linejoin="round" stroke-miterlimit="10" d="M642.5 171v-4c0-2.21-1.79-4-4-4h-24v-6c0-2.21-1.79-4-4-4h-474c-3.314 0-6 2.687-6 6v8h4l-8 110-6 4-6 18 6 6-12 36v12l-8-2v10l84 24 20-62h8l34-10 24 10h32v62h142v-62h26l30-8 34 8h80v34h14v-10h-6V217l20-46zM218.905 305c-24.185 7.977-42.405 27.93-42.405 56v5.938L130.5 353l12-182 88 14-11.595 120z"/><path fill="#D9295F" stroke="#231F20" stroke-width="4" stroke-linecap="round" stroke-linejoin="round" stroke-miterlimit="10" d="M642.5 171v-4c0-2.21-1.79-4-4-4h-24v-6c0-2.21-1.79-4-4-4h-474c-3.314 0-6 2.687-6 6l92 12h420z"/><path fill="#ECECEC" stroke="#231F20" stroke-width="4" stroke-linecap="round" stroke-linejoin="round" stroke-miterlimit="10" d="M184.5 363.472V385s14 0 14-12v-9.242c0-26.016 18.163-42.758 44.18-42.758s45.82 16.742 45.82 42.758V373c0 12 14 12 14 12v-21.528c0-33.038-26.782-54.472-59.82-54.472-33.04 0-58.18 21.434-58.18 54.472zM442.5 363.472V385s14 0 14-12v-9.242c0-26.016 18.163-32.758 44.18-32.758 26.016 0 45.82 6.742 45.82 32.758V373c0 12 14 12 14 12v-21.528c0-33.038-26.78-54.472-59.82-54.472s-58.18 21.434-58.18 54.472z"/><path fill="#89D9CE" d="M446.5 293h112v28h-112z"/><path fill="#89D9CE" stroke="#231F20" stroke-width="4" stroke-linecap="round" stroke-linejoin="round" stroke-miterlimit="10" d="M558.5 323h-112"/><path fill="#444646" stroke="#231F20" stroke-width="4" stroke-linecap="round" stroke-linejoin="round" stroke-miterlimit="10" d="M280.5 179h334v128h-334z"/><path fill="#C1BFB5" stroke="#231F20" stroke-width="4" stroke-linecap="round" stroke-linejoin="round" stroke-miterlimit="10" d="M294.5 299h310v8h-310z"/><path fill="#9E9683" stroke="#231F20" stroke-width="4" stroke-linecap="round" stroke-linejoin="round" stroke-miterlimit="10" d="M294.5 179h310v28h-310z"/><g stroke="#231F20" stroke-width="4" stroke-linecap="round" stroke-linejoin="round" stroke-miterlimit="10"><path fill="#333" d="M314.5 185h34v16h-34z"/><path fill="#ECECEC" d="M314.5 185h12v16h-12z"/><path fill="#333" d="M360.5 185h34v16h-34z"/><path fill="#ECECEC" d="M360.5 185h12v16h-12z"/><path fill="#333" d="M406.5 185h34v16h-34z"/><path fill="#ECECEC" d="M406.5 185h12v16h-12z"/><path fill="#333" d="M460.5 185h34v16h-34z"/><path fill="#ECECEC" d="M460.5 185h12v16h-12z"/><path fill="#333" d="M506.5 185h34v16h-34z"/><path fill="#ECECEC" d="M506.5 185h12v16h-12z"/><path fill="#333" d="M550.5 185h34v16h-34z"/><path fill="#ECECEC" d="M550.5 185h12v16h-12z"/></g><path fill="#89D9CE" stroke="#231F20" stroke-width="4" stroke-linecap="round" stroke-linejoin="round" stroke-miterlimit="10" d="M160.5 279h-16"/><g fill="#4CABC2" stroke="#231F20" stroke-width="4" stroke-linecap="round" stroke-linejoin="round" stroke-miterlimit="10"><path d="M144.5 267h66c2.21 0 4-1.79 4-4l6.653-68c0-2.21-1.79-4-4-4L148.5 181l-4 86zM146.5 239h70"/></g><g fill="#4CABC2" stroke="#231F20" stroke-width="4" stroke-linecap="round" stroke-linejoin="round" stroke-miterlimit="10"><path d="M144.5 267h66c2.21 0 4-1.79 4-4l6.653-68c0-2.21-1.79-4-4-4L148.5 181l-4 86zM146.5 239h70"/></g><path opacity=".2" fill="#fff" d="M192.5 187l-46.25 49.75L146 221l30.5-34zM204.5 189l-60 64v-4l56-60zM218.5 219l-44 48h-30l68.5-76 7.5 2z"/><g fill="none" stroke="#231F20" stroke-width="4" stroke-linecap="round" stroke-linejoin="round" stroke-miterlimit="10"><path d="M144.5 267h66c2.21 0 4-1.79 4-4l6.653-68c0-2.21-1.79-4-4-4L148.5 181l-4 86zM146.5 239h70"/></g><path fill="#F79520" stroke="#231F20" stroke-width="4" stroke-linecap="round" stroke-linejoin="round" stroke-miterlimit="10" d="M240.5 153v-8c0-2.21-1.79-4-4-4h-4c-2.21 0-4 1.79-4 4v8h12zM116.5 313h-6c-2.21 0-4 1.79-4 4v4c0 2.21 1.79 4 4 4h2l4-12zM614.5 335h8c2.21 0 4-1.79 4-4v-4c0-2.21-1.79-4-4-4h-8v12z"/><g fill="#454646" stroke="#231F20" stroke-width="4" stroke-linecap="round" stroke-linejoin="round" stroke-miterlimit="10"><path d="M134.5 223c0-4.418 3.582-8 8-8l-4-4c-4.418 0-8 3.582-8 8l4 4zM150.5 215h-4c-4.418 0-8-3.582-8-8v-20c0-4.418 3.582-8 8-8h4v36z"/><circle cx="134.5" cy="219" r="4"/></g><path fill="#454545" stroke="#231F20" stroke-width="4" stroke-linecap="round" stroke-linejoin="round" stroke-miterlimit="10" d="M644.5 175c0-2.41-1.79-4-4-4h-40c-2.21 0-4 1.59-4 4v135.637c0 2.41 1.79 4.363 4 4.363h40c2.21 0 4-1.954 4-4.363V175z"/><path fill="none" stroke="#D9295F" stroke-width="8" stroke-linecap="round" stroke-linejoin="round" stroke-miterlimit="10" d="M608.5 183h24"/><path fill="none" stroke="#D9295F" stroke-width="4" stroke-linecap="round" stroke-linejoin="round" stroke-miterlimit="10" d="M616.5 227h8M616.5 235h8M604.5 243h12M624.5 243h12"/><g stroke-width="4" stroke-linecap="round" stroke-linejoin="round" stroke-miterlimit="10"><path fill="none" stroke="#D9295F" d="M619.5 197h2M617.5 201h6M615.5 205h10"/><path fill="#ECECEC" stroke="#ECECEC" d="M627.5 209h-14l4 6h6z"/></g><path fill="none" stroke="#ECECEC" stroke-width="4" stroke-linecap="round" stroke-linejoin="round" stroke-miterlimit="10" d="M606.5 299h10M624.5 299h10M616.166 283h8.334M604.5 291h12M624.5 291h12M612.5 307h16M604.5 255h32"/><path fill="none" stroke="#ECECEC" stroke-width="8" stroke-linecap="round" stroke-linejoin="round" stroke-miterlimit="10" d="M606.5 269h28"/><path fill="#454545" stroke="#231F20" stroke-width="4" stroke-linecap="round" stroke-linejoin="round" stroke-miterlimit="10" d="M302.5 175c0-2.41-1.79-4-4-4h-40c-2.21 0-4 1.59-4 4v135.637c0 2.41 1.79 4.363 4 4.363h40c2.21 0 4-1.954 4-4.363V175z"/><path fill="none" stroke="#D9295F" stroke-width="8" stroke-linecap="round" stroke-linejoin="round" stroke-miterlimit="10" d="M266.5 183h24"/><path fill="none" stroke="#ECECEC" stroke-width="4" stroke-linecap="round" stroke-linejoin="round" stroke-miterlimit="10" d="M264.5 235h28M264.5 243h10M282.5 243h10M264.5 251h10M282.5 251h10M264.5 263h28M264.5 271h10M282.5 271h10M282.5 279h10M264.5 279h10M264.5 291h28M264.5 299h10M282.5 299h10M282.5 307h10M264.5 307h10"/><path fill="none" stroke="#ECECEC" stroke-width="8" stroke-linecap="round" stroke-linejoin="round" stroke-miterlimit="10" d="M266.5 195h24M266.5 207h24M266.5 219h24"/><path fill="#00245E" stroke="#231F20" stroke-width="4" stroke-linecap="round" stroke-linejoin="round" stroke-miterlimit="10" d="M302.5 243h36v56h-36z"/><path fill="#D9295F" stroke="#231F20" stroke-width="4" stroke-linecap="round" stroke-linejoin="round" stroke-miterlimit="10" d="M358.5 279h28l-4 20h-20zM358.5 271h28v8h-28z"/><path fill="#C1BFB5" stroke="#231F20" stroke-width="4" stroke-linecap="round" stroke-linejoin="round" stroke-miterlimit="10" d="M510.5 225h66v74h-66z"/><path fill="#ECECEC" stroke="#231F20" stroke-width="4" stroke-linecap="round" stroke-linejoin="round" stroke-miterlimit="10" d="M510.5 225h66v20h-66zM526.5 245h34v20h-34z"/><path fill="#444646" stroke="#231F20" stroke-width="4" stroke-linecap="round" stroke-linejoin="round" stroke-miterlimit="10" d="M534.5 241M534.5 259v-12M543.5 259v-12M552.5 259v-12"/><path fill="none" stroke="#D9295F" stroke-width="8" stroke-linecap="round" stroke-linejoin="round" stroke-miterlimit="10" d="M532.5 235h24"/><path fill="#ECECEC" stroke="#231F20" stroke-width="4" stroke-linecap="round" stroke-linejoin="round" stroke-miterlimit="10" d="M406.5 237h54v62h-54zM410.5 231h46v6h-46zM414.5 225h36v6h-36zM448.5 269c0 2.21-1.79 4-4 4h-4c-2.21 0-4-1.79-4-4v-6c0-2.21 1.79-4 4-4h4c2.21 0 4 1.79 4 4v6z"/><path fill="#444646" stroke="#231F20" stroke-width="4" stroke-linecap="round" stroke-linejoin="round" stroke-miterlimit="10" d="M444.5 261c0 1.104-.896 2-2 2s-2-.896-2-2v-14c0-1.104.896-2 2-2s2 .896 2 2v14z"/><path fill="#ECECEC" stroke="#231F20" stroke-width="4" stroke-linecap="round" stroke-linejoin="round" stroke-miterlimit="10" d="M496.5 295h-6l-2-8h10zM496.5 287h-6l-2-8h10zM496.5 279h-6l-2-8h10zM496.5 271h-6l-2-8h10zM496.5 263h-6l-2-8h10z"/></svg>