<svg xmlns="http://www.w3.org/2000/svg" width="356" height="400" viewBox="-1.417 -0.5 356 400" enable-background="new -1.417 -0.5 356 400"><path fill="#C1BEB4" d="M.583 149.502h12v148h-12v-148zm340 0h12v148h-12v-148z"/><path fill="#231F20" d="M352.583 299.502h-12c-1.104 0-2-.896-2-2v-148c0-1.104.896-2 2-2h12c1.104 0 2 .896 2 2v148c0 1.104-.896 2-2 2zm-10-4h8v-144h-8v144zm-330 4h-12c-1.104 0-2-.896-2-2v-148c0-1.104.896-2 2-2h12c1.104 0 2 .896 2 2v148c0 1.104-.896 2-2 2zm-10-4h8v-144h-8v144z"/><path fill="#454545" d="M348.583 105.502h-4c-52-8-168-60-168-72 0 12-116 64-168 72h-4c-2.21 0-4 1.79-4 4v40h352v-40c0-2.21-1.79-4-4-4z"/><path fill="#231F20" d="M352.583 151.502h-352c-1.104 0-2-.896-2-2v-40c0-3.31 2.69-6 6-6H8.43c27.59-4.28 71.03-20.457 102.52-34.188 43.55-18.99 63.426-32.374 63.633-35.814v-.05c.025-1.082.91-1.95 2-1.95 1.104 0 2 .898 2 2.003.202 3.435 20.078 16.82 63.63 35.812 31.493 13.73 74.933 29.91 102.523 34.188h3.847c3.31 0 6 2.69 6 6v40c0 1.103-.896 2-2 2zm-350-4h348v-38c0-1.103-.897-2-2-2h-4c-.102 0-.203-.008-.304-.023-28.064-4.318-72.123-20.728-103.998-34.645-17.938-7.833-34.188-15.79-45.755-22.41-10.5-6.01-15.564-9.945-17.944-12.69-2.38 2.745-7.443 6.68-17.944 12.69-11.567 6.62-27.817 14.577-45.756 22.41C81.01 86.752 36.95 103.16 8.887 107.48c-.1.015-.203.022-.304.022h-4c-1.103 0-2 .897-2 2v38z"/><path fill="#333" d="M352.583 145.502c0 2.21-1.79 4-4 4h-344c-2.21 0-4-1.79-4-4v-36c0-2.21 1.79-4 4-4h344c2.21 0 4 1.79 4 4v36zm0 232c0 2.21-1.79 4-4 4h-344c-2.21 0-4-1.79-4-4v-104h352v104z"/><path fill="#231F20" d="M348.583 383.502h-344c-3.31 0-6-2.69-6-6v-104c0-1.104.896-2 2-2h352c1.104 0 2 .896 2 2v104c0 3.31-2.692 6-6 6zm-346-108v102c0 1.103.897 2 2 2h344c1.103 0 2-.897 2-2v-102h-348zm346-124h-344c-3.31 0-6-2.69-6-6v-36c0-3.31 2.69-6 6-6h344c3.31 0 6 2.69 6 6v36c0 3.31-2.692 6-6 6zm-344-44c-1.103 0-2 .897-2 2v36c0 1.103.897 2 2 2h344c1.103 0 2-.897 2-2v-36c0-1.103-.897-2-2-2h-344z"/><path fill="#5B5663" d="M12.583 261.502h328v12h-328v-12z"/><path fill="#231F20" d="M340.584 275.502h-328c-1.105 0-2-.896-2-2v-12c0-1.104.895-2 2-2h328c1.104 0 2 .896 2 2v12c0 1.104-.896 2-2 2zm-326-4h324v-8h-324v8z"/><circle fill="#EEC37F" cx="176.583" cy="327.502" r="38"/><path fill="#AE4937" d="M176.583 366.502c-21.505 0-39-17.495-39-39s17.495-39 39-39 39 17.495 39 39-17.495 39-39 39zm0-76c-20.402 0-37 16.598-37 37s16.598 37 37 37 37-16.598 37-37-16.598-37-37-37z"/><circle fill="#EEC37F" cx="176.583" cy="327.502" r="34"/><path fill="#AE4937" d="M176.583 362.502c-19.3 0-35-15.7-35-35s15.7-35 35-35 35 15.7 35 35-15.7 35-35 35zm0-68c-18.196 0-33 14.804-33 33s14.804 33 33 33 33-14.804 33-33-14.804-33-33-33zM144.583 314.502h64v2h-64z"/><path fill="#EEC37F" d="M145.583 339.502h62"/><path fill="#AE4937" d="M145.583 338.502h62v2h-62z"/><path fill="#333" d="M151.583 327.502h4"/><path fill="#AE4937" d="M155.583 333.502h-4c-3.313 0-6-2.687-6-6s2.687-6 6-6h4c3.313 0 6 2.687 6 6s-2.687 6-6 6z"/><path fill="#333" d="M201.583 327.502"/><path fill="#AE4937" d="M201.58 333.502c-1.58 0-3.12-.64-4.24-1.76-1.12-1.11-1.76-2.66-1.76-4.24s.64-3.13 1.76-4.24c1.12-1.12 2.66-1.76 4.24-1.76s3.13.64 4.25 1.76c1.11 1.11 1.75 2.66 1.75 4.24s-.64 3.13-1.75 4.24c-1.12 1.12-2.67 1.76-4.25 1.76z"/><path fill="#333" d="M170.583 327.502h16"/><path fill="#AE4937" d="M186.583 333.502h-16c-3.313 0-6-2.687-6-6s2.687-6 6-6h16c3.313 0 6 2.687 6 6s-2.687 6-6 6zM176.834 358.502c-.265 0-.52-.105-.707-.293l-3.25-3.25c-.22-.22-.325-.53-.285-.837l1.918-14.75c.07-.548.57-.936 1.12-.862.55.07.935.573.864 1.12l-1.854 14.263 2.195 2.195 2.567-2.568-1.85-13.886c-.074-.547.31-1.05.858-1.123.543-.07 1.05.312 1.124.86l1.916 14.375c.04.31-.063.618-.284.84l-3.624 3.624c-.19.186-.443.292-.708.292zm18.736-5.965c-.052 0-.104-.004-.156-.013l-4.542-.72c-.307-.05-.573-.237-.722-.51l-6.163-11.31c-.265-.485-.086-1.093.4-1.356.486-.266 1.092-.085 1.355.4l5.928 10.877 3.067.486.567-3.587-6.297-6.613c-.38-.4-.365-1.033.035-1.414.4-.378 1.03-.364 1.414.035l6.637 6.972c.214.226.312.538.263.846l-.8 5.064c-.04.262-.185.497-.4.652-.17.127-.376.193-.586.193zm-37.398-.223c-.483 0-.91-.35-.987-.844l-.72-4.54c-.048-.306.048-.617.26-.843l6.883-7.273c.38-.4 1.014-.417 1.414-.04.4.38.418 1.014.04 1.415l-6.544 6.915.486 3.065 3.587-.566 5.724-10.578c.263-.486.872-.663 1.355-.404.485.263.666.87.403 1.355l-5.958 11.014c-.148.275-.416.465-.724.513l-5.06.8c-.054.008-.107.01-.158.01zm11.01-35.807c-.353 0-.697-.188-.878-.52l-5.935-10.89-3.067-.485-.567 3.588 6.297 6.615c.38.4.365 1.033-.035 1.414-.398.38-1.032.363-1.414-.036l-6.638-6.973c-.215-.225-.312-.537-.264-.845l.8-5.064c.043-.26.187-.496.4-.65.215-.157.482-.225.746-.18l4.54.72c.307.05.573.237.72.51l6.17 11.32c.266.483.086 1.09-.398 1.355-.15.083-.315.122-.477.122zm20.524 0c-.247 0-.494-.09-.688-.273-.4-.38-.42-1.013-.04-1.414l6.55-6.923-.485-3.065-3.59.567-5.72 10.578c-.26.485-.867.666-1.354.404-.487-.263-.668-.87-.405-1.355l5.955-11.014c.148-.274.416-.464.724-.512l5.064-.8c.546-.09 1.06.286 1.144.83l.718 4.54c.05.307-.048.618-.26.844l-6.887 7.28c-.197.208-.463.313-.727.313zm-14.207-.005c-.494 0-.924-.365-.99-.868l-1.92-14.375c-.04-.31.065-.62.285-.84l3.624-3.625c.374-.375 1.038-.375 1.413 0l3.25 3.25c.22.22.324.528.284.836l-1.918 14.75c-.072.55-.57.938-1.12.863-.55-.07-.935-.572-.864-1.12l1.855-14.262-2.194-2.194-2.567 2.568 1.852 13.886c.073.547-.312 1.05-.86 1.123-.044.006-.088.01-.133.01z"/><circle fill="#EEC37F" cx="176.582" cy="73.502" r="19.487"/><path fill="#AE4937" d="M176.583 93.502c-11.026 0-20-8.973-20-20s8.974-20 20-20c11.027 0 20 8.973 20 20s-8.973 20-20 20zm0-38.975c-10.463 0-18.975 8.512-18.975 18.975s8.513 18.975 18.976 18.975 18.974-8.512 18.974-18.975-8.51-18.975-18.975-18.975z"/><circle fill="#EEC37F" cx="176.583" cy="73.502" r="17.436"/><path fill="#AE4937" d="M176.583 91.452c-9.896 0-17.948-8.054-17.948-17.95s8.053-17.95 17.948-17.95c9.896 0 17.95 8.054 17.95 17.95s-8.054 17.95-17.95 17.95zm0-34.873c-9.332 0-16.923 7.59-16.923 16.922s7.59 16.923 16.923 16.923c9.33 0 16.923-7.592 16.923-16.923s-7.593-16.923-16.923-16.923zm-16.41 10.255h32.82v1.026h-32.82v-1.025z"/><path fill="#EEC37F" d="M160.684 79.656h31.796"/><path fill="#AE4937" d="M160.684 79.142h31.796v1.027h-31.796V79.14z"/><path fill="#333" d="M163.762 73.502h2.05"/><path fill="#AE4937" d="M165.813 76.58h-2.05c-1.7 0-3.08-1.38-3.08-3.078s1.38-3.077 3.08-3.077h2.05c1.7 0 3.077 1.378 3.077 3.077s-1.378 3.077-3.077 3.077z"/><path fill="#333" d="M189.403 73.502"/><path fill="#AE4937" d="M189.403 76.58c-.81 0-1.604-.33-2.174-.903-.575-.57-.904-1.364-.904-2.175s.328-1.604.902-2.175c.57-.573 1.362-.902 2.174-.902.81 0 1.604.33 2.174.902.574.57.903 1.364.903 2.175s-.33 1.604-.904 2.175c-.574.573-1.363.902-2.173.902z"/><path fill="#333" d="M173.507 73.502h8.204"/><path fill="#AE4937" d="M181.71 76.58h-8.204c-1.7 0-3.077-1.38-3.077-3.078s1.38-3.077 3.075-3.077h8.204c1.7 0 3.076 1.378 3.076 3.077s-1.377 3.077-3.075 3.077zm-4.123-8.718c-.02 0-.044-.003-.065-.005-.28-.037-.48-.295-.442-.575l.95-7.313-1.125-1.127-1.316 1.317.95 7.12c.036.28-.16.54-.44.576-.286.038-.538-.16-.577-.44l-.982-7.37c-.02-.16.034-.32.147-.432l1.86-1.857c.2-.2.523-.2.726 0l1.666 1.667c.11.11.165.27.145.428l-.983 7.564c-.036.26-.257.447-.51.447h-.005zM176.71 89.4c-.13 0-.26-.05-.36-.15l-1.668-1.668c-.11-.11-.165-.27-.146-.428l.98-7.564c.04-.28.295-.48.576-.443.28.036.48.295.44.575l-.95 7.313 1.126 1.126 1.317-1.316-.948-7.12c-.038-.28.16-.54.44-.576.28-.035.538.16.574.44l.984 7.37c.02.16-.033.32-.146.432l-1.858 1.857c-.1.1-.23.15-.362.15l.003.002z"/><path fill="none" stroke="#AE4937" stroke-width="2" stroke-linecap="round" stroke-linejoin="round" stroke-miterlimit="10" d="M177.545 79.335"/><path fill="#AE4937" d="M172.79 67.862c-.184 0-.358-.096-.45-.266l-3.045-5.584-1.57-.25-.29 1.84 3.227 3.393c.195.206.188.53-.018.726-.204.194-.53.188-.727-.02l-3.403-3.575c-.11-.116-.16-.276-.135-.434l.41-2.596c.043-.278.308-.47.586-.426l2.327.37c.158.024.295.12.37.26l3.163 5.806c.137.25.045.56-.204.695-.078.043-.162.063-.243.062zm13.53 18.48c-.027 0-.054-.003-.08-.008l-2.33-.368c-.157-.025-.294-.122-.37-.262l-3.16-5.8c-.136-.25-.045-.56.205-.697.25-.135.56-.043.695.205l3.04 5.58 1.573.248.29-1.84-3.23-3.39c-.194-.207-.187-.53.022-.727.203-.193.525-.187.724.02l3.4 3.575c.11.116.16.276.136.434l-.41 2.598c-.02.134-.095.254-.205.334-.09.064-.194.1-.3.098zm-19.18-.115c-.247 0-.467-.18-.507-.433l-.367-2.328c-.026-.157.023-.316.133-.433l3.53-3.73c.193-.204.52-.212.724-.02.205.193.215.52.02.727l-3.356 3.546.252 1.573 1.84-.293 2.934-5.425c.137-.25.446-.34.694-.208.25.135.344.445.21.695l-3.058 5.646c-.076.14-.212.238-.37.263l-2.597.41c-.028.005-.054.007-.082.007zm16.172-18.365c-.128 0-.253-.046-.354-.14-.205-.194-.215-.52-.02-.725l3.357-3.55-.25-1.573-1.84.293-2.933 5.425c-.135.248-.446.34-.695.206-.25-.134-.342-.445-.208-.695l3.054-5.645c.074-.14.213-.237.37-.263l2.598-.412c.134-.02.27.012.382.092s.184.2.203.334l.37 2.33c.023.155-.025.315-.137.43l-3.53 3.734c-.1.108-.235.16-.37.16l.002-.002z"/><path fill="#EEC37F" d="M122.825 129.502H98.583c-4.418 0-8-3.582-8-8s3.582-8 8-8h24.242c4.418 0 8 3.582 8 8s-3.582 8-8 8zM258.585 139.502h-160c-1.104 0-2-.896-2-2s.896-2 2-2h160c1.104 0 2 .896 2 2s-.896 2-2 2zM258.583 129.502h-14.546c-4.418 0-8-3.582-8-8s3.582-8 8-8h14.546c4.418 0 8 3.582 8 8s-3.582 8-8 8zm-43.637 0h-24.242c-4.418 0-8-3.582-8-8s3.582-8 8-8h24.242c4.418 0 8 3.582 8 8s-3.582 8-8 8zm-53.332 0h-9.697c-4.418 0-8-3.582-8-8s3.582-8 8-8h9.697c4.418 0 8 3.582 8 8s-3.582 8-8 8z"/><path fill="#939A9F" d="M230.583 257.502l-4-16h20l-4 16h-12zm-28 0l-4-16h20l-4 16h-12z"/><path fill="#231F20" d="M242.583 259.502h-12c-.918 0-1.718-.625-1.94-1.515l-4-16c-.15-.598-.015-1.23.364-1.716s.96-.77 1.576-.77h20c.616 0 1.197.285 1.576.77s.513 1.12.363 1.717l-4 16c-.222.89-1.022 1.515-1.94 1.515zm-10.44-4h8.878l3-12h-14.876l3 12zm-17.56 4h-12c-.918 0-1.718-.625-1.94-1.515l-4-16c-.15-.598-.015-1.23.364-1.716s.96-.77 1.576-.77h20c.616 0 1.197.285 1.576.77s.513 1.12.363 1.717l-4 16c-.222.89-1.022 1.515-1.94 1.515zm-10.44-4h8.878l3-12h-14.876l3 12z"/><path fill="#5D3E28" d="M186.583 237.502c0 12.15-9.85 20-22 20s-22-7.85-22-20h44z"/><path fill="#231F20" d="M164.583 259.502c-13.907 0-24-9.252-24-22 0-1.104.896-2 2-2h44c1.104 0 2 .896 2 2 0 12.748-10.093 22-24 22zm-19.895-20c1.003 9.384 9.06 16 19.895 16s18.89-6.616 19.895-16h-39.79zM110.584 247.502c-.733 0-1.44-.404-1.79-1.105l-12-24c-.495-.988-.094-2.19.894-2.684.986-.494 2.19-.095 2.684.895l12 24c.494.988.093 2.19-.895 2.684-.287.143-.592.21-.893.21z"/><path fill="#8E9A36" d="M98.583 257.502l-8-20h40l-8 20h-24z"/><path fill="#231F20" d="M122.583 259.502h-24c-.818 0-1.553-.498-1.857-1.257l-8-20c-.247-.616-.17-1.314.2-1.864s.994-.878 1.657-.878h40c.664 0 1.284.33 1.656.88s.446 1.247.2 1.863l-8 20c-.304.76-1.04 1.257-1.857 1.257zm-22.646-4h21.292l6.4-16H93.536l6.4 16z"/><path fill="#5D658A" d="M46.583 253.502c0 2.21-1.79 4-4 4h-12c-2.21 0-4-1.79-4-4v-20c0-2.21 1.79-4 4-4h12c2.21 0 4 1.79 4 4v20z"/><path fill="#231F20" d="M42.583 259.502h-12c-3.31 0-6-2.69-6-6v-20c0-3.31 2.69-6 6-6h12c3.31 0 6 2.69 6 6v20c0 3.31-2.692 6-6 6zm-12-28c-1.103 0-2 .897-2 2v20c0 1.103.897 2 2 2h12c1.103 0 2-.897 2-2v-20c0-1.103-.897-2-2-2h-12z"/><path fill="#EEC37F" d="M74.583 233.502v20c0 2.21-1.79 4-4 4s-4-1.79-4-4v-20l4-4 4 4zm-4-4v-4"/><path fill="#231F20" d="M70.583 259.502c-3.31 0-6-2.69-6-6v-20c0-.53.21-1.04.586-1.414l3.413-3.414v-3.172c0-1.104.896-2 2-2s2 .896 2 2v3.172l3.414 3.414c.375.375.586.884.586 1.414v20c0 3.31-2.692 6-6 6zm-2-25.172v19.172c0 1.103.897 2 2 2s2-.897 2-2V234.33l-2-2-2 2z"/><path fill="#454545" d="M326.583 233.865c0-2.41-1.79-4.363-4-4.363h-59.998c-2.21 0-4 1.954-4 4.363v143.273c0 2.41 1.79 4.362 4 4.362h59.998c2.21 0 4-1.955 4-4.364v-143.27z"/><path fill="#231F20" d="M322.583 383.5h-59.998c-3.31 0-6-2.853-6-6.36V233.864c0-3.51 2.69-6.363 6-6.363h59.998c3.31 0 6 2.854 6 6.363v143.27c0 3.51-2.692 6.366-6 6.366zm-59.998-151.998c-1.103 0-2 1.06-2 2.363v143.273c0 1.303.897 2.362 2 2.362h59.998c1.103 0 2-1.06 2-2.364v-143.27c0-1.304-.897-2.364-2-2.364h-59.998z"/><path fill="#B24B50" d="M314.586 347.502h-20c-1.105 0-2-.896-2-2s.895-2 2-2h20c1.104 0 2 .896 2 2s-.896 2-2 2zm-28 0h-4c-1.105 0-2-.896-2-2s.895-2 2-2h4c1.103 0 2 .896 2 2s-.897 2-2 2zm-12 0h-4c-1.105 0-2-.896-2-2s.895-2 2-2h4c1.103 0 2 .896 2 2s-.897 2-2 2zm9.333-72h-17.335c-1.104 0-2-.896-2-2s.896-2 2-2h17.334c1.103 0 2 .896 2 2s-.897 2-2 2z"/><path fill="#ECECEC" d="M298.586 323.502h-8.003c-1.104 0-2-.896-2-2s.896-2 2-2h8.003c1.104 0 2 .896 2 2s-.896 2-2 2zm-16 0h-12c-1.105 0-2-.896-2-2s.895-2 2-2h12c1.103 0 2 .896 2 2s-.897 2-2 2zm4-8h-8c-1.105 0-2-.896-2-2s.895-2 2-2h8c1.103 0 2 .896 2 2s-.897 2-2 2zm16-16h-16c-1.105 0-2-.896-2-2s.895-2 2-2h16c1.104 0 2 .896 2 2s-.896 2-2 2z"/><path fill="#DDAE4E" d="M302.586 373.502h-4c-2.21 0-4-1.79-4-4s1.79-4 4-4h4c2.21 0 4 1.79 4 4s-1.79 4-4 4zm-28 0h-4c-2.21 0-4-1.79-4-4s1.79-4 4-4h4c2.208 0 4 1.79 4 4s-1.792 4-4 4zm32-12h-28c-2.21 0-4-1.79-4-4s1.79-4 4-4h28c2.21 0 4 1.79 4 4s-1.79 4-4 4z"/><path fill="#ECECEC" d="M314.586 323.502h-8.003c-1.104 0-2-.896-2-2s.896-2 2-2h8.003c1.104 0 2 .896 2 2s-.896 2-2 2zm-12-8h-8c-1.105 0-2-.896-2-2s.895-2 2-2h8c1.104 0 2 .896 2 2s-.896 2-2 2zM314.586 337.502h-4c-2.21 0-4-1.79-4-4s1.79-4 4-4h4c2.21 0 4 1.79 4 4s-1.79 4-4 4zm-16 0h-4.003c-2.21 0-4-1.79-4-4s1.79-4 4-4h4.003c2.21 0 4 1.79 4 4s-1.79 4-4 4zm-16 0h-12c-2.21 0-4-1.79-4-4s1.79-4 4-4h12c2.208 0 4 1.79 4 4s-1.792 4-4 4zm28-48h-7.2c-2.21 0-4-1.79-4-4s1.79-4 4-4h7.2c2.208 0 4 1.79 4 4s-1.792 4-4 4zm-18 0h-18c-2.21 0-4-1.79-4-4s1.79-4 4-4h18c2.208 0 4 1.79 4 4s-1.792 4-4 4z"/><path fill="#B24B50" d="M318.586 275.502h-8.666c-1.104 0-2-.896-2-2s.896-2 2-2h8.666c1.104 0 2 .896 2 2s-.896 2-2 2zm-17.332 0h-8.67c-1.105 0-2-.896-2-2s.895-2 2-2h8.67c1.104 0 2 .896 2 2s-.896 2-2 2z"/><path fill="#DDAE4E" d="M314.586 263.502h-44c-3.314 0-6-2.687-6-6s2.686-6 6-6h44c3.313 0 6 2.687 6 6s-2.687 6-6 6zm-12-16c-3.313 0-6-2.687-6-6s2.684-6 5.997-6h.003c3.313 0 6 2.687 6 6s-2.687 6-6 6zm-24 0h-8c-3.314 0-6-2.687-6-6s2.686-6 6-6h8c3.312 0 6 2.687 6 6s-2.688 6-6 6z"/><path fill="#ECECEC" d="M314.586 307.502h-8.003c-1.104 0-2-.896-2-2s.896-2 2-2h8.003c1.104 0 2 .896 2 2s-.896 2-2 2zm-16 0h-8.003c-1.104 0-2-.896-2-2s.896-2 2-2h8.003c1.104 0 2 .896 2 2s-.896 2-2 2zm-16 0h-12c-1.105 0-2-.896-2-2s.895-2 2-2h12c1.103 0 2 .896 2 2s-.897 2-2 2z"/></svg>