<svg xmlns="http://www.w3.org/2000/svg" width="356.166" height="400" viewBox="0 0 356.166 400"><path fill="#C1BEB4" stroke="#231F20" stroke-width="4" stroke-linecap="round" stroke-linejoin="round" stroke-miterlimit="10" d="M2.166 150h12v148h-12zM342.166 150h12v148h-12z"/><path fill="#454545" stroke="#231F20" stroke-width="4" stroke-linecap="round" stroke-linejoin="round" stroke-miterlimit="10" d="M350.166 106h-4c-52-8-168-60-168-72 0 12-116 64-168 72h-4c-2.21 0-4 1.79-4 4v40h352v-40c0-2.21-1.79-4-4-4z"/><path fill="#333" stroke="#231F20" stroke-width="4" stroke-linecap="round" stroke-linejoin="round" stroke-miterlimit="10" d="M354.166 146c0 2.21-1.79 4-4 4h-344c-2.21 0-4-1.79-4-4v-36c0-2.21 1.79-4 4-4h344c2.21 0 4 1.79 4 4v36zM354.166 378c0 2.21-1.79 4-4 4h-344c-2.21 0-4-1.79-4-4V274h352v104z"/><path fill="#5B5663" stroke="#231F20" stroke-width="4" stroke-linecap="round" stroke-linejoin="round" stroke-miterlimit="10" d="M14.166 262h328v12h-328z"/><circle fill="#EEC37F" stroke="#AE4937" stroke-width="2" stroke-miterlimit="10" cx="178.166" cy="328" r="38"/><circle fill="#EEC37F" stroke="#AE4937" stroke-width="2" stroke-miterlimit="10" cx="178.166" cy="328" r="34"/><path fill="none" stroke="#AE4937" stroke-width="2" stroke-miterlimit="10" d="M146.166 316h64"/><path fill="#EEC37F" stroke="#AE4937" stroke-width="2" stroke-miterlimit="10" d="M147.166 340h62"/><path fill="#333" stroke="#AE4937" stroke-width="12" stroke-linecap="round" stroke-linejoin="round" stroke-miterlimit="10" d="M153.166 328h4"/><path fill="#333" d="M203.166 328"/><path fill="#AE4937" d="M203.163 334c-1.58 0-3.12-.64-4.24-1.76-1.12-1.11-1.76-2.66-1.76-4.24s.64-3.13 1.76-4.24c1.12-1.12 2.66-1.76 4.24-1.76s3.13.64 4.25 1.76c1.11 1.11 1.75 2.66 1.75 4.24s-.64 3.13-1.75 4.24c-1.12 1.12-2.67 1.76-4.25 1.76z"/><path fill="#333" stroke="#AE4937" stroke-width="12" stroke-linecap="round" stroke-linejoin="round" stroke-miterlimit="10" d="M172.166 328h16"/><path fill="none" stroke="#AE4937" stroke-width="2" stroke-linecap="round" stroke-linejoin="round" stroke-miterlimit="10" d="M177.084 316l-1.918-14.375L178.79 298l3.25 3.25-1.918 14.75M180.125 340l1.916 14.375-3.624 3.625-3.25-3.25 1.918-14.75M180.04 339.375M165.892 316.002l-6.637-6.973.8-5.064 4.54.72 6.17 11.32M191.316 340l6.637 6.97-.8 5.065-4.542-.72-6.163-11.31M170.776 340l-5.958 11.013-5.062.8-.72-4.54 6.882-7.273M186.437 316l5.955-11.013 5.065-.802.718 4.54-6.886 7.28"/><circle fill="#EEC37F" cx="178.165" cy="74" r="19.487"/><path fill="#AE4937" d="M178.166 94c-11.027 0-20-8.973-20-20s8.973-20 20-20 20 8.973 20 20-8.973 20-20 20zm0-38.975c-10.463 0-18.975 8.512-18.975 18.975s8.513 18.975 18.976 18.975S197.14 84.463 197.14 74s-8.51-18.975-18.974-18.975z"/><circle fill="#EEC37F" cx="178.166" cy="74" r="17.436"/><path fill="#AE4937" d="M178.166 91.95c-9.896 0-17.948-8.054-17.948-17.95s8.052-17.95 17.948-17.95 17.95 8.054 17.95 17.95-8.054 17.95-17.95 17.95zm0-34.873c-9.332 0-16.923 7.592-16.923 16.923s7.59 16.923 16.923 16.923c9.33 0 16.923-7.592 16.923-16.923s-7.593-16.923-16.924-16.923zM161.756 67.333h32.82v1.026h-32.82z"/><path fill="#EEC37F" d="M162.267 80.154h31.796"/><path fill="#AE4937" d="M162.267 79.64h31.796v1.027h-31.796z"/><path fill="#333" d="M165.345 74h2.05"/><path fill="#AE4937" d="M167.396 77.077h-2.05c-1.7 0-3.08-1.378-3.08-3.077s1.38-3.077 3.08-3.077h2.05c1.7 0 3.077 1.378 3.077 3.077s-1.378 3.077-3.077 3.077z"/><path fill="#333" d="M190.986 74"/><path fill="#AE4937" d="M190.986 77.077c-.81 0-1.604-.33-2.174-.902-.574-.57-.903-1.364-.903-2.175s.328-1.604.902-2.175c.57-.573 1.363-.902 2.174-.902s1.604.33 2.174.902c.574.57.903 1.364.903 2.175s-.33 1.604-.903 2.175c-.574.573-1.363.902-2.174.902z"/><path fill="#333" d="M175.09 74h8.204"/><path fill="#AE4937" d="M183.294 77.077h-8.205c-1.7 0-3.078-1.378-3.078-3.077s1.38-3.077 3.077-3.077h8.204c1.7 0 3.077 1.378 3.077 3.077s-1.377 3.077-3.076 3.077zM179.17 68.36c-.022 0-.044-.003-.066-.005-.28-.037-.48-.295-.442-.575l.95-7.313-1.125-1.126-1.316 1.317.95 7.12c.037.28-.16.54-.44.576-.286.038-.538-.16-.577-.44l-.982-7.37c-.02-.16.033-.32.146-.432l1.86-1.857c.2-.2.524-.2.726 0l1.666 1.667c.112.11.166.27.146.428l-.984 7.564c-.036.26-.256.447-.51.447zM178.294 89.897c-.13 0-.262-.05-.362-.15l-1.668-1.667c-.11-.11-.165-.27-.145-.428l.98-7.564c.04-.28.295-.48.577-.443.28.036.48.295.44.575l-.95 7.313 1.126 1.126 1.317-1.317-.948-7.12c-.038-.28.16-.54.44-.576.28-.035.538.16.575.44l.983 7.37c.02.16-.033.32-.146.432l-1.858 1.857c-.1.1-.23.15-.362.15z"/><path fill="none" stroke="#AE4937" stroke-width="2" stroke-linecap="round" stroke-linejoin="round" stroke-miterlimit="10" d="M179.128 79.833"/><path fill="#AE4937" d="M174.372 68.36c-.183 0-.358-.096-.45-.266l-3.044-5.584-1.572-.25-.29 1.84 3.228 3.393c.195.206.188.53-.018.726-.204.193-.53.187-.726-.02l-3.404-3.575c-.11-.116-.16-.276-.134-.434l.41-2.597c.044-.278.308-.47.587-.426l2.327.37c.158.024.295.12.37.26l3.163 5.806c.137.25.045.56-.204.695-.078.043-.162.063-.244.063zM187.902 86.84c-.026 0-.053-.003-.08-.008l-2.328-.368c-.158-.025-.295-.122-.37-.262l-3.162-5.8c-.135-.25-.044-.56.206-.697.25-.135.56-.043.695.205l3.04 5.58 1.573.248.29-1.84-3.228-3.39c-.195-.207-.188-.53.02-.727.203-.193.526-.187.724.02l3.402 3.574c.11.116.16.276.135.434l-.41 2.598c-.02.134-.095.254-.205.334-.09.065-.195.1-.303.1zM168.724 86.725c-.248 0-.467-.18-.507-.433l-.368-2.328c-.026-.157.024-.316.133-.433l3.53-3.73c.195-.205.52-.213.725-.02s.215.52.02.727l-3.357 3.546.252 1.573 1.84-.292 2.934-5.425c.136-.25.446-.34.694-.208.25.135.344.445.21.695l-3.058 5.647c-.076.14-.212.238-.37.263l-2.597.41c-.027.006-.053.008-.08.008zM184.895 68.36c-.128 0-.253-.046-.353-.14-.205-.194-.215-.52-.02-.725l3.358-3.55-.25-1.573-1.84.293-2.933 5.425c-.135.248-.446.34-.695.206-.25-.134-.342-.445-.208-.695l3.055-5.645c.074-.14.212-.237.37-.263l2.597-.412c.134-.022.27.012.382.092s.184.2.203.334l.37 2.33c.024.156-.025.316-.136.432l-3.53 3.733c-.1.108-.236.16-.372.16z"/><path fill="none" stroke="#EEC37F" stroke-width="16" stroke-linecap="round" stroke-linejoin="round" stroke-miterlimit="10" d="M100.166 122h24.242"/><path fill="none" stroke="#EEC37F" stroke-width="4" stroke-linecap="round" stroke-linejoin="round" stroke-miterlimit="10" d="M100.168 138h160"/><path fill="none" stroke="#EEC37F" stroke-width="16" stroke-linecap="round" stroke-linejoin="round" stroke-miterlimit="10" d="M192.287 122h24.242M245.62 122h14.546M153.5 122h9.697"/><path fill="#939A9F" stroke="#231F20" stroke-width="4" stroke-linecap="round" stroke-linejoin="round" stroke-miterlimit="10" d="M232.166 258l-4-16h20l-4 16zM204.166 258l-4-16h20l-4 16z"/><path fill="#5D3E28" stroke="#231F20" stroke-width="4" stroke-linecap="round" stroke-linejoin="round" stroke-miterlimit="10" d="M188.166 238c0 12.15-9.85 20-22 20s-22-7.85-22-20h44z"/><path fill="none" stroke="#231F20" stroke-width="4" stroke-linecap="round" stroke-linejoin="round" stroke-miterlimit="10" d="M112.166 246l-12-24"/><path fill="#8E9A36" stroke="#231F20" stroke-width="4" stroke-linecap="round" stroke-linejoin="round" stroke-miterlimit="10" d="M100.166 258l-8-20h40l-8 20z"/><path fill="#5D658A" stroke="#231F20" stroke-width="4" stroke-linecap="round" stroke-linejoin="round" stroke-miterlimit="10" d="M48.166 254c0 2.21-1.79 4-4 4h-12c-2.21 0-4-1.79-4-4v-20c0-2.21 1.79-4 4-4h12c2.21 0 4 1.79 4 4v20z"/><path fill="#EEC37F" stroke="#231F20" stroke-width="4" stroke-linecap="round" stroke-linejoin="round" stroke-miterlimit="10" d="M76.166 234v20c0 2.21-1.79 4-4 4s-4-1.79-4-4v-20l4-4 4 4zM72.166 230v-4"/><path fill="#454545" stroke="#231F20" stroke-width="4" stroke-linecap="round" stroke-linejoin="round" stroke-miterlimit="10" d="M328.166 234.363c0-2.41-1.79-4.363-4-4.363h-59.998c-2.21 0-4 1.954-4 4.363v143.273c0 2.41 1.79 4.363 4 4.363h59.998c2.21 0 4-1.955 4-4.364V234.363z"/><path fill="none" stroke="#B24B50" stroke-width="4" stroke-linecap="round" stroke-linejoin="round" stroke-miterlimit="10" d="M268.168 274h17.334M272.168 346h4M284.168 346h4M296.168 346h20"/><path fill="none" stroke="#ECECEC" stroke-width="4" stroke-linecap="round" stroke-linejoin="round" stroke-miterlimit="10" d="M288.168 298h16M280.168 314h8M272.168 322h12M292.166 322h8.002"/><path fill="none" stroke="#DDAE4E" stroke-width="8" stroke-linecap="round" stroke-linejoin="round" stroke-miterlimit="10" d="M280.168 358h28M272.168 370h4M300.168 370h4M316.168 370M288.168 370"/><path fill="none" stroke="#ECECEC" stroke-width="4" stroke-linecap="round" stroke-linejoin="round" stroke-miterlimit="10" d="M308.166 322h8.002M296.168 314h8"/><path fill="none" stroke="#ECECEC" stroke-width="8" stroke-linecap="round" stroke-linejoin="round" stroke-miterlimit="10" d="M276.168 286h18M272.168 334h12M296.166 334h4.002M312.168 334h4M304.967 286h7.2"/><path fill="none" stroke="#B24B50" stroke-width="4" stroke-linecap="round" stroke-linejoin="round" stroke-miterlimit="10" d="M294.166 274h8.67M311.502 274h8.666"/><path fill="none" stroke="#DDAE4E" stroke-width="12" stroke-linecap="round" stroke-linejoin="round" stroke-miterlimit="10" d="M272.168 242h8M304.166 242h.002M272.168 258h44"/><path fill="none" stroke="#ECECEC" stroke-width="4" stroke-linecap="round" stroke-linejoin="round" stroke-miterlimit="10" d="M272.168 306h12M292.166 306h8.002M308.166 306h8.002"/></svg>