<svg xmlns="http://www.w3.org/2000/svg" width="688" height="400" viewBox="8.5 0.5 688 400" enable-background="new 8.5 0.5 688 400"><path fill="#2B2E31" stroke="#231F20" stroke-width="4" stroke-linecap="round" stroke-linejoin="round" stroke-miterlimit="10" d="M24.5 346.5l18 8 80 12h30v-60l-66-16-48 14z"/><path fill="#333" stroke="#231F20" stroke-width="4" stroke-linecap="round" stroke-linejoin="round" stroke-miterlimit="10" d="M10.5 352.5v-60c0-14 10-12 10-12v-14c0-16 16-14 16-14l126-8c8 0 14-8 14-8l18-36c12-22 36-22 36-22h52c30 0 30 32 30 32v160h-160c-16 0-14-16-14-16 0-28.72-23.28-52-52-52-21.632 0-40.18 13.21-48.015 32 0 0-11.985 18-27.985 18z"/><circle fill="#5E6363" stroke="#231F20" stroke-width="4" stroke-miterlimit="10" cx="86.5" cy="354.5" r="44"/><circle fill="#C1D0D3" stroke="#231F20" stroke-width="4" stroke-miterlimit="10" cx="86.5" cy="354.5" r="24"/><circle fill="#929D9E" cx="86.5" cy="354.5" r="8"/><g fill="#111"><path d="M65.18 357.572c1.914-1.105 4.36-.45 5.465 1.463l4 6.928c1.104 1.914.45 4.36-1.464 5.465-1.912 1.104-4.36.45-5.464-1.465l-4-6.928c-1.104-1.912-.448-4.36 1.465-5.463zM99.822 337.572c1.913-1.105 4.36-.45 5.464 1.463l4 6.928c1.104 1.914.45 4.36-1.464 5.467-1.913 1.103-4.36.447-5.464-1.467l-4-6.928c-1.106-1.912-.45-4.36 1.464-5.463z"/></g><g fill="#111"><path d="M73.18 337.572c1.914 1.104 2.568 3.55 1.465 5.464l-4 6.928c-1.105 1.913-3.55 2.57-5.465 1.465-1.912-1.105-2.568-3.553-1.464-5.466l4-6.928c1.105-1.913 3.552-2.568 5.464-1.464zM107.82 357.572c1.915 1.104 2.57 3.55 1.466 5.464l-4 6.928c-1.104 1.913-3.55 2.57-5.465 1.465-1.91-1.105-2.567-3.553-1.462-5.466l4-6.928c1.103-1.913 3.55-2.568 5.463-1.464z"/></g><g fill="#111"><path d="M94.5 334.5c0 2.21-1.79 4-4 4h-8c-2.21 0-4-1.79-4-4s1.79-4 4-4h8c2.21 0 4 1.79 4 4zM94.5 374.5c0 2.21-1.79 4-4 4h-8c-2.21 0-4-1.79-4-4s1.79-4 4-4h8c2.21 0 4 1.79 4 4z"/></g><circle fill="none" stroke="#231F20" stroke-width="4" stroke-miterlimit="10" cx="86.5" cy="354.5" r="24"/><path fill="none" stroke="#231F20" stroke-width="4" stroke-linecap="round" stroke-linejoin="round" stroke-miterlimit="10" d="M20.5 280.5h112s28 0 40 28c0 0 8 18 8 52M140.5 360.5h172M180.5 228.5v116h112v-164"/><path fill="#333" stroke="#231F20" stroke-width="4" stroke-linecap="round" stroke-linejoin="round" stroke-miterlimit="10" d="M312.5 344.5h348M674.5 370.5h20"/><circle fill="#5E6363" stroke="#231F20" stroke-width="4" stroke-miterlimit="10" cx="504.5" cy="354.5" r="44"/><path fill="#333" stroke="#231F20" stroke-width="4" stroke-linecap="round" stroke-linejoin="round" stroke-miterlimit="10" d="M666.5 102.5h-294s-60 2-60 68v200h146v-8c0-26.51 19.49-46 46-46s46 19.49 46 46v8h124v-260c0-8-8-8-8-8z"/><circle fill="#C1D0D3" stroke="#231F20" stroke-width="4" stroke-miterlimit="10" cx="504.5" cy="354.5" r="24"/><circle fill="#929D9E" cx="504.5" cy="354.5" r="8"/><g fill="#111"><path d="M483.18 357.572c1.914-1.105 4.36-.45 5.465 1.463l4 6.928c1.104 1.914.45 4.36-1.464 5.465-1.912 1.104-4.36.45-5.464-1.465l-4-6.928c-1.104-1.912-.448-4.36 1.465-5.463zM517.822 337.572c1.913-1.105 4.36-.45 5.464 1.463l4 6.928c1.104 1.914.45 4.36-1.464 5.467-1.913 1.103-4.36.447-5.464-1.467l-4-6.928c-1.106-1.912-.45-4.36 1.464-5.463z"/></g><g fill="#111"><path d="M491.18 337.572c1.914 1.104 2.568 3.55 1.465 5.464l-4 6.928c-1.105 1.913-3.55 2.57-5.465 1.465-1.912-1.105-2.568-3.553-1.464-5.466l4-6.928c1.105-1.913 3.552-2.568 5.464-1.464zM525.82 357.572c1.915 1.104 2.57 3.55 1.466 5.464l-4 6.928c-1.104 1.913-3.55 2.57-5.465 1.465-1.91-1.105-2.567-3.553-1.462-5.466l4-6.928c1.103-1.913 3.55-2.568 5.463-1.464z"/></g><g fill="#111"><path d="M512.5 334.5c0 2.21-1.79 4-4 4h-8c-2.21 0-4-1.79-4-4s1.79-4 4-4h8c2.21 0 4 1.79 4 4zM512.5 374.5c0 2.21-1.79 4-4 4h-8c-2.21 0-4-1.79-4-4s1.79-4 4-4h8c2.21 0 4 1.79 4 4z"/></g><circle fill="none" stroke="#231F20" stroke-width="4" stroke-miterlimit="10" cx="504.5" cy="354.5" r="24"/><path fill="none" stroke="#231F20" stroke-width="4" stroke-linecap="round" stroke-linejoin="round" stroke-miterlimit="10" d="M434.5 264.5v106M374.5 264.5v106M554.5 264.5v106M614.5 264.5v106M494.5 266.5v50"/><path fill="#ECECEC" stroke="#231F20" stroke-width="4" stroke-linecap="round" stroke-linejoin="round" stroke-miterlimit="10" d="M396.5 102.5v-10h40s10 2 10 10h-50z"/><path fill="none" stroke="#231F20" stroke-width="4" stroke-linecap="round" stroke-linejoin="round" stroke-miterlimit="10" d="M464.5 338.5h-152M674.5 338.5h-130"/><path fill="#454545" stroke="#231F20" stroke-width="4" stroke-linecap="round" stroke-linejoin="round" stroke-miterlimit="10" d="M658.5 118.5c0-2.41-1.79-4-4-4h-58c-2.21 0-4 1.59-4 4v141.637c0 2.41 1.79 4.363 4 4.363h58c2.21 0 4-1.954 4-4.363V118.5z"/><path fill="none" stroke="#ECECEC" stroke-width="8" stroke-linecap="round" stroke-linejoin="round" stroke-miterlimit="10" d="M614.5 126.5h22"/><path fill="none" stroke="#01A64F" stroke-width="4" stroke-linecap="round" stroke-linejoin="round" stroke-miterlimit="10" d="M600.5 140.5h24M634.5 140.5h14"/><path fill="none" stroke="#FCEE22" stroke-width="4" stroke-linecap="round" stroke-linejoin="round" stroke-miterlimit="10" d="M612.5 152.5h8M628.5 152.5h8M612.5 160.5h8M628.5 160.5h8"/><path fill="none" stroke="#F35EBB" stroke-width="4" stroke-linecap="round" stroke-linejoin="round" stroke-miterlimit="10" d="M600.5 172.5h18M626.748 172.5h3.502M638.5 172.5h10"/><path fill="none" stroke="#ECECEC" stroke-width="4" stroke-linecap="round" stroke-linejoin="round" stroke-miterlimit="10" d="M600.5 184.5h8M616.5 184.5h6M630.5 184.5h6M644.5 184.5h4"/><path fill="none" stroke="#F35EBB" stroke-width="4" stroke-linecap="round" stroke-linejoin="round" stroke-miterlimit="10" d="M600.5 210.5h8M616.5 210.5h6M630.5 210.5h6"/><path fill="none" stroke="#2AACE3" stroke-width="4" stroke-linecap="round" stroke-linejoin="round" stroke-miterlimit="10" d="M616.5 246.5h6M630.5 246.5h6M610.5 254.5h32"/><path fill="none" stroke="#ECECEC" stroke-width="4" stroke-linecap="round" stroke-linejoin="round" stroke-miterlimit="10" d="M600.5 228.5h14M622.166 228.5h8.334M638.5 228.5h12M600.5 236.5h14M622.166 236.5h8.334M638.5 236.5h12"/><path fill="none" stroke="#F35EBB" stroke-width="4" stroke-linecap="round" stroke-linejoin="round" stroke-miterlimit="10" d="M616.5 218.5h6M630.5 218.5h6M644.5 210.5h4"/><path fill="none" stroke="#ECECEC" stroke-width="4" stroke-linecap="round" stroke-linejoin="round" stroke-miterlimit="10" d="M600.5 192.5h8M616.5 192.5h6M630.5 192.5h6M644.5 192.5h4M600.5 200.5h20M628.5 200.5H648"/><g stroke="#231F20" stroke-width="4" stroke-linecap="round" stroke-linejoin="round" stroke-miterlimit="10"><path fill="#C1BFB5" d="M592.5 142.075l12-19.575h-242l12 19.575z"/><path fill="#FFF6E3" d="M362.5 114.5h242v8h-242z"/><path fill="#444646" d="M374.5 142.5h218v122h-218z"/><path fill="#C1BFB5" d="M374.5 256.5h218v8h-218z"/></g><path fill="#C1D0D3" stroke="#231F20" stroke-width="4" stroke-linecap="round" stroke-linejoin="round" stroke-miterlimit="10" d="M374.5 224.5h152v32h-152z"/><path fill="#454646" stroke="#C1D0D3" stroke-width="4" stroke-linecap="round" stroke-linejoin="round" stroke-miterlimit="10" d="M280.5 264.5h-16"/><path fill="none" stroke="#C1D0D3" stroke-width="4" stroke-linecap="round" stroke-linejoin="round" stroke-miterlimit="10" d="M152.5 258.5h-84s-12 0-12 6 12 6 12 6h84M56.5 264.5h104"/><path fill="#4CABC2" stroke="#231F20" stroke-width="4" stroke-linecap="round" stroke-linejoin="round" stroke-miterlimit="10" d="M276.5 240.5c2.21 0 4-1.79 4-4v-38c0-2.21-1.79-4-4-4h-44s-22-2-32 18l-10 22s-2 6 8 6h78zM276.5 240.5c2.21 0 4-1.79 4-4v-38c0-2.21-1.79-4-4-4h-44s-22-2-32 18l-10 22s-2 6 8 6h78z"/><path opacity=".2" fill="#fff" d="M250.5 194.5l-44 46-14-2 42-44zM258.5 194.5l-44 46h-4l44-46zM280.5 210.5l-28 30h-32l42-46 18 2z"/><path fill="none" stroke="#231F20" stroke-width="4" stroke-linecap="round" stroke-linejoin="round" stroke-miterlimit="10" d="M276.5 240.5c2.21 0 4-1.79 4-4v-38c0-2.21-1.79-4-4-4h-44s-22-2-32 18l-10 22s-2 6 8 6h78z"/><path fill="#C1D0D3" stroke="#231F20" stroke-width="4" stroke-linecap="round" stroke-linejoin="round" stroke-miterlimit="10" d="M202.5 240.5c-4.418 0-8-3.582-8-8v-10c0-4.418 3.582-8 8-8v26zM190.5 246.5h12v6h-12z"/><path fill="#454646" stroke="#231F20" stroke-width="4" stroke-linecap="round" stroke-linejoin="round" stroke-miterlimit="10" d="M198.5 240.5h4v6h-4z"/><path fill="#F79520" stroke="#231F20" stroke-width="4" stroke-linecap="round" stroke-linejoin="round" stroke-miterlimit="10" d="M234.5 178.5v-4c0-2.21-1.79-4-4-4h-2c-2.21 0-4 1.79-4 4v4h10z"/><path fill="#FCEE22" stroke="#231F20" stroke-width="4" stroke-linecap="round" stroke-linejoin="round" stroke-miterlimit="10" d="M562.5 248.5v-12l-6-12-6 12v12s2 4 6 4 6-4 6-4z"/><path fill="#ECECEC" stroke="#231F20" stroke-width="4" stroke-linecap="round" stroke-linejoin="round" stroke-miterlimit="10" d="M562.5 236.5l-4-12h-4l-4 12z"/><path fill="#FCEE22" stroke="#231F20" stroke-width="4" stroke-linecap="round" stroke-linejoin="round" stroke-miterlimit="10" d="M556.5 224.5v-4"/><path fill="#FCEE22" stroke="#231F20" stroke-width="4" stroke-linecap="round" stroke-linejoin="round" stroke-miterlimit="10" d="M560.5 223.5c0 1.657-1.344 3-3 3h-2c-1.656 0-3-1.343-3-3s1.344-3 3-3h2c1.656 0 3 1.343 3 3z"/><path fill="#6A1501" stroke="#231F20" stroke-width="4" stroke-linecap="round" stroke-linejoin="round" stroke-miterlimit="10" d="M572.5 252.5v-22c0-2.21 1.79-4 4-4s4 1.79 4 4v22h-8z"/><path fill="#939A9F" stroke="#231F20" stroke-width="4" stroke-linecap="round" stroke-linejoin="round" stroke-miterlimit="10" d="M576.5 226.5v-6"/><path fill="#01A64F" stroke="#231F20" stroke-width="4" stroke-linecap="round" stroke-linejoin="round" stroke-miterlimit="10" d="M474.5 210.5c0 5.522-4.478 10-10 10s-10-4.478-10-10h20z"/><path fill="#CE3746" stroke="#231F20" stroke-width="4" stroke-linecap="round" stroke-linejoin="round" stroke-miterlimit="10" d="M506.5 210.5c0 5.522-4.478 10-10 10s-10-4.478-10-10h20z"/><path fill="#444646" stroke="#231F20" stroke-width="4" stroke-linecap="round" stroke-linejoin="round" stroke-miterlimit="10" d="M592.5 143.5c0 7.18-24.176 13-54 13s-54-5.82-54-13c0 7.18-24.176 13-54 13s-54-5.82-54-13"/><circle fill="#FCEE22" stroke="#231F20" stroke-width="4" stroke-linecap="round" stroke-linejoin="round" stroke-miterlimit="10" cx="484.5" cy="154.5" r="6"/><circle fill="#2AACE3" stroke="#231F20" stroke-width="4" stroke-linecap="round" stroke-linejoin="round" stroke-miterlimit="10" cx="508.5" cy="162.5" r="6"/><circle fill="#01A64F" stroke="#231F20" stroke-width="4" stroke-linecap="round" stroke-linejoin="round" stroke-miterlimit="10" cx="532.5" cy="164.5" r="6"/><circle fill="#FF5700" stroke="#231F20" stroke-width="4" stroke-linecap="round" stroke-linejoin="round" stroke-miterlimit="10" cx="556.5" cy="162.5" r="6"/><circle fill="#6B3359" stroke="#231F20" stroke-width="4" stroke-linecap="round" stroke-linejoin="round" stroke-miterlimit="10" cx="580.5" cy="158.5" r="6"/><circle fill="#CE3746" stroke="#231F20" stroke-width="4" stroke-linecap="round" stroke-linejoin="round" stroke-miterlimit="10" cx="460.5" cy="162.5" r="6"/><circle fill="#6B3359" stroke="#231F20" stroke-width="4" stroke-linecap="round" stroke-linejoin="round" stroke-miterlimit="10" cx="436.5" cy="164.5" r="6"/><circle fill="#FF5700" stroke="#231F20" stroke-width="4" stroke-linecap="round" stroke-linejoin="round" stroke-miterlimit="10" cx="412.5" cy="162.5" r="6"/><circle fill="#01A64F" stroke="#231F20" stroke-width="4" stroke-linecap="round" stroke-linejoin="round" stroke-miterlimit="10" cx="388.5" cy="158.5" r="6"/></svg>