<svg xmlns="http://www.w3.org/2000/svg" width="393.995" height="400" viewBox="0.166 0 393.995 400" enable-background="new 0.166 0 393.995 400"><path fill="#C1BEB4" d="M2.166 150h12v148h-12z"/><path fill="#231F20" d="M14.166 300h-12c-1.104 0-2-.896-2-2V150c0-1.104.896-2 2-2h12c1.104 0 2 .896 2 2v148c0 1.104-.895 2-2 2zm-10-4h8V152h-8v144z"/><path fill="#5F4A39" d="M354.166 378c0 2.21-1.79 4-4 4h-344c-2.21 0-4-1.79-4-4V245h352v133z"/><path fill="#AB9473" d="M342.166 257v113h-328V257h328m12-12h-352v133c0 2.21 1.79 4 4 4h344c2.21 0 4-1.79 4-4V245z"/><path fill="#C1BEB4" d="M342.166 150h12v148h-12z"/><path fill="#231F20" d="M354.166 300h-12c-1.104 0-2-.896-2-2V150c0-1.104.896-2 2-2h12c1.104 0 2 .896 2 2v148c0 1.104-.895 2-2 2zm-10-4h8V152h-8v144z"/><path fill="#454545" d="M350.166 106h-4c-52-8-168-60-168-72 0 12-116 64-168 72h-4c-2.21 0-4 1.79-4 4v14h352v-14c0-2.21-1.79-4-4-4z"/><path fill="#231F20" d="M354.166 126h-352c-1.104 0-2-.896-2-2v-14c0-3.31 2.69-6 6-6h3.846c27.592-4.28 71.03-20.457 102.522-34.188 43.548-18.988 63.424-32.373 63.63-35.814v-.05c.026-1.082.912-1.95 2-1.95 1.105 0 2 .898 2 2.003.203 3.436 20.08 16.822 63.632 35.813C275.29 83.543 318.73 99.72 346.32 104h3.847c3.31 0 6 2.69 6 6v14c0 1.104-.896 2-2 2zm-350-4h348v-12c0-1.103-.897-2-2-2h-4c-.102 0-.203-.008-.304-.023C317.8 103.66 273.74 87.25 241.865 73.333c-17.938-7.833-34.188-15.79-45.755-22.41-10.5-6.01-15.564-9.945-17.944-12.69-2.38 2.745-7.443 6.68-17.944 12.69-11.566 6.62-27.816 14.577-45.755 22.41C82.592 87.25 38.533 103.66 10.47 107.977c-.1.015-.202.023-.304.023h-4c-1.103 0-2 .897-2 2v12zM350.166 384h-344c-3.31 0-6-2.69-6-6V245c0-1.104.895-2 2-2h352c1.104 0 2 .896 2 2v133c0 3.31-2.69 6-6 6zm-346-137v131c0 1.103.897 2 2 2h344c1.102 0 2-.897 2-2V247h-348z"/><path fill="#333" d="M354.166 146c0 2.21-1.79 4-4 4h-344c-2.21 0-4-1.79-4-4v-36c0-2.21 1.79-4 4-4h344c2.21 0 4 1.79 4 4v36z"/><path fill="#231F20" d="M350.166 152h-344c-3.31 0-6-2.69-6-6v-36c0-3.31 2.69-6 6-6h344c3.31 0 6 2.69 6 6v36c0 3.31-2.69 6-6 6zm-344-44c-1.103 0-2 .897-2 2v36c0 1.103.897 2 2 2h344c1.103 0 2-.897 2-2v-36c0-1.103-.897-2-2-2h-344z"/><path fill="#5F4A39" d="M178.166 249.666v127.667"/><path fill="#AB9473" d="M172.166 249.666h12v127.667h-12z"/><path fill="#A4875D" d="M288.166 231c0 2.21-1.79 4-4 4h-212c-2.21 0-4-1.79-4-4v-68c0-2.21 1.79-4 4-4h212c2.21 0 4 1.79 4 4v68z"/><path fill="#231F20" d="M284.166 237h-212c-3.31 0-6-2.69-6-6v-68c0-3.31 2.69-6 6-6h212c3.31 0 6 2.69 6 6v68c0 3.31-2.69 6-6 6zm-212-76c-1.103 0-2 .897-2 2v68c0 1.103.897 2 2 2h212c1.103 0 2-.897 2-2v-68c0-1.103-.897-2-2-2h-212z"/><path fill="#A4875D" d="M132.166 188h93"/><path fill="#2E1B0B" d="M225.166 190h-93c-1.104 0-2-.896-2-2s.896-2 2-2h93c1.104 0 2 .896 2 2s-.895 2-2 2z"/><path fill="#453620" d="M225.166 191h-93c-1.658 0-3-1.343-3-3s1.342-3 3-3h93c1.657 0 3 1.343 3 3s-1.343 3-3 3z"/><path fill="#2E1B0B" d="M225.166 185c1.657 0 3 1.343 3 3s-1.343 3-3 3h-93c-1.658 0-3-1.343-3-3s1.342-3 3-3h93m0-4h-93c-3.86 0-7 3.14-7 7s3.14 7 7 7h93c3.86 0 7-3.14 7-7s-3.14-7-7-7z"/><g fill="#2E1B0B"><path d="M144.166 227h24"/><path d="M168.166 229h-24c-1.104 0-2-.896-2-2s.896-2 2-2h24c1.104 0 2 .896 2 2s-.895 2-2 2zM184.166 227h24"/><path d="M208.166 229h-24c-1.104 0-2-.896-2-2s.896-2 2-2h24c1.104 0 2 .896 2 2s-.895 2-2 2zM176.166 227"/><path d="M176.163 229c-.52 0-1.04-.21-1.41-.59-.37-.37-.59-.89-.59-1.41 0-.53.22-1.04.59-1.41.75-.75 2.08-.75 2.83-.01.37.38.58.89.58 1.42s-.21 1.04-.58 1.41c-.38.38-.89.59-1.42.59z"/></g><g fill="#2E1B0B"><path d="M144.166 167h24"/><path d="M168.166 169h-24c-1.104 0-2-.896-2-2s.896-2 2-2h24c1.104 0 2 .896 2 2s-.895 2-2 2z"/></g><g fill="#2E1B0B"><path d="M184.166 167h24"/><path d="M208.166 169h-24c-1.104 0-2-.896-2-2s.896-2 2-2h24c1.104 0 2 .896 2 2s-.895 2-2 2z"/></g><g fill="#2E1B0B"><path d="M176.166 167"/><path d="M176.163 169c-.52 0-1.04-.21-1.41-.59-.37-.37-.59-.88-.59-1.41 0-.52.22-1.04.59-1.41.75-.75 2.08-.75 2.83-.01.37.38.58.89.58 1.42 0 .53-.21 1.04-.58 1.41-.37.38-.89.59-1.42.59z"/></g><g fill="#2E1B0B"><path d="M148.166 207h24"/><path d="M172.166 211h-24c-2.21 0-4-1.79-4-4s1.79-4 4-4h24c2.21 0 4 1.79 4 4s-1.79 4-4 4zM184.166 207h16"/><path d="M200.166 211h-16c-2.21 0-4-1.79-4-4s1.79-4 4-4h16c2.21 0 4 1.79 4 4s-1.79 4-4 4z"/></g><path fill="#672F39" d="M105.166 218l3.428 18.285c0 3.156-2.56 5.715-5.715 5.715s-5.714-2.56-5.714-5.715l4-18.285 2-4 2 4z"/><path fill="#231F20" d="M102.88 244c-4.254 0-7.714-3.46-7.714-7.715 0-.144.016-.287.046-.428l4-18.285c.035-.16.09-.318.165-.467l2-4c.34-.678 1.032-1.105 1.79-1.105s1.45.428 1.788 1.105l2 4c.083.166.143.344.177.526l3.428 18.286c.023.12.034.244.034.368 0 4.255-3.46 7.716-7.715 7.716zm-3.71-7.52c.102 1.958 1.727 3.52 3.71 3.52 1.992 0 3.623-1.577 3.71-3.55l-3.338-17.807-.086-.172-.1.2-3.895 17.81z"/><path fill="#672F39" d="M103.166 214v-4"/><path fill="#231F20" d="M103.166 216c-1.104 0-2-.896-2-2v-4c0-1.104.896-2 2-2s2 .896 2 2v4c0 1.104-.895 2-2 2z"/><path fill="#CE3746" d="M89.166 218v20c0 2.21-1.79 4-4 4s-4-1.79-4-4v-20l4-4 4 4z"/><path fill="#231F20" d="M85.166 244c-3.31 0-6-2.69-6-6v-20c0-.53.21-1.04.586-1.414l4-4c.78-.78 2.048-.78 2.828 0l4 4c.375.375.586.884.586 1.414v20c0 3.31-2.69 6-6 6zm-2-25.172V238c0 1.103.897 2 2 2s2-.897 2-2v-19.172l-2-2-2 2z"/><path fill="#CE3746" d="M85.166 214v-4"/><path fill="#231F20" d="M85.166 216c-1.104 0-2-.896-2-2v-4c0-1.104.896-2 2-2s2 .896 2 2v4c0 1.104-.895 2-2 2z"/><path fill="#ECECEC" d="M120.166 219c-2.21 0-4 1.79-4 4v16c0 2.21 1.79 2 4 2s4 .21 4-2v-16c0-2.21-1.79-4-4-4z"/><path fill="#231F20" d="M121.184 243.005l-1.018-.005-1.017.005c-1.233 0-4.984 0-4.984-4.005v-16c0-3.31 2.69-6 6-6s6 2.69 6 6v16c0 2.174-1.218 3.115-1.944 3.483-.95.482-2.022.522-3.038.522zM120.166 239l1.017.005c.487 0 .792-.017.982-.04V223c0-1.103-.897-2-2-2s-2 .897-2 2v15.965c.19.023.496.04.983.04l1.018-.005z"/><path fill="#454545" d="M392.166 238.363c0-2.41-1.79-4.363-4-4.363h-80c-2.21 0-4 1.954-4 4.363v139.273c0 2.41 1.79 4.363 4 4.363h80c2.21 0 4-1.955 4-4.364V238.363z"/><path fill="#231F20" d="M388.166 384h-80c-3.31 0-6-2.854-6-6.363V238.363c0-3.51 2.69-6.363 6-6.363h80c3.31 0 6 2.854 6 6.363v139.273c0 3.51-2.69 6.364-6 6.364zm-80-148c-1.103 0-2 1.06-2 2.363v139.273c0 1.303.897 2.363 2 2.363h80c1.103 0 2-1.062 2-2.364V238.363c0-1.303-.897-2.363-2-2.363h-80z"/><path fill="#ECECEC" d="M344.166 270h-20c-2.21 0-4-1.79-4-4s1.79-4 4-4h20c2.21 0 4 1.79 4 4s-1.79 4-4 4zM363.365 270h-7.2c-2.208 0-4-1.79-4-4s1.792-4 4-4h7.2c2.21 0 4 1.79 4 4s-1.79 4-4 4zM320.166 292h-8c-1.104 0-2-.896-2-2s.896-2 2-2h8c1.104 0 2 .896 2 2s-.895 2-2 2zM320.166 300h-8c-1.104 0-2-.896-2-2s.896-2 2-2h8c1.104 0 2 .896 2 2s-.895 2-2 2zM336.166 300h-8c-1.104 0-2-.896-2-2s.896-2 2-2h8c1.104 0 2 .896 2 2s-.895 2-2 2zM348.166 302h-4c-2.21 0-4-1.79-4-4s1.79-4 4-4h4c2.21 0 4 1.79 4 4s-1.79 4-4 4zM340.166 292h-12c-1.104 0-2-.896-2-2s.896-2 2-2h12c1.104 0 2 .896 2 2s-.895 2-2 2zM352.166 292h-4c-1.104 0-2-.896-2-2s.896-2 2-2h4c1.104 0 2 .896 2 2s-.895 2-2 2zM364.166 292h-4c-1.104 0-2-.896-2-2s.896-2 2-2h4c1.104 0 2 .896 2 2s-.895 2-2 2zM384.166 292h-12c-1.104 0-2-.896-2-2s.896-2 2-2h12c1.104 0 2 .896 2 2s-.895 2-2 2zM328.168 284h-16.002c-1.104 0-2-.896-2-2s.896-2 2-2h16.002c1.104 0 2 .896 2 2s-.895 2-2 2zM344.168 284h-8.002c-1.104 0-2-.896-2-2s.896-2 2-2h8.002c1.104 0 2 .896 2 2s-.895 2-2 2zM360.166 284h-8.002c-1.104 0-2-.896-2-2s.896-2 2-2h8.002c1.104 0 2 .896 2 2s-.895 2-2 2zM380.168 284h-12.004c-1.104 0-2-.896-2-2s.896-2 2-2h12.004c1.104 0 2 .896 2 2s-.895 2-2 2zM320.166 324h-8c-1.104 0-2-.896-2-2s.896-2 2-2h8c1.104 0 2 .896 2 2s-.895 2-2 2zM320.166 332h-8c-1.104 0-2-.896-2-2s.896-2 2-2h8c1.104 0 2 .896 2 2s-.895 2-2 2zM332.166 334h-4c-2.21 0-4-1.79-4-4s1.79-4 4-4h4c2.21 0 4 1.79 4 4s-1.79 4-4 4zM340.166 324h-12c-1.104 0-2-.896-2-2s.896-2 2-2h12c1.104 0 2 .896 2 2s-.895 2-2 2zM352.166 324h-4c-1.104 0-2-.896-2-2s.896-2 2-2h4c1.104 0 2 .896 2 2s-.895 2-2 2zM364.166 324h-4c-1.104 0-2-.896-2-2s.896-2 2-2h4c1.104 0 2 .896 2 2s-.895 2-2 2zM384.166 324h-12c-1.104 0-2-.896-2-2s.896-2 2-2h12c1.104 0 2 .896 2 2s-.895 2-2 2zM320.166 316h-8c-1.104 0-2-.896-2-2s.896-2 2-2h8c1.104 0 2 .896 2 2s-.895 2-2 2zM336.168 316h-8.002c-1.104 0-2-.896-2-2s.896-2 2-2h8.002c1.104 0 2 .896 2 2s-.895 2-2 2zM356.168 316h-8.002c-1.104 0-2-.896-2-2s.896-2 2-2h8.002c1.104 0 2 .896 2 2s-.895 2-2 2zM376.166 316h-12.004c-1.104 0-2-.896-2-2s.896-2 2-2h12.004c1.104 0 2 .896 2 2s-.895 2-2 2zM320.166 362h-4c-2.21 0-4-1.79-4-4s1.79-4 4-4h4c2.21 0 4 1.79 4 4s-1.79 4-4 4zM332.166 348h-20c-1.104 0-2-.896-2-2s.896-2 2-2h20c1.104 0 2 .896 2 2s-.895 2-2 2zM348.168 348h-8.002c-1.104 0-2-.896-2-2s.896-2 2-2h8.002c1.104 0 2 .896 2 2s-.895 2-2 2zM380.166 348h-24c-1.104 0-2-.896-2-2s.896-2 2-2h24c1.104 0 2 .896 2 2s-.895 2-2 2zM376.166 258h-56c-4.418 0-8-3.582-8-8s3.582-8 8-8h56c4.418 0 8 3.582 8 8s-3.582 8-8 8z"/></svg>