<svg xmlns="http://www.w3.org/2000/svg" width="696" height="400" viewBox="0 0 696 400"><circle fill="#5E6363" stroke="#231F20" stroke-width="4" stroke-miterlimit="10" cx="498" cy="354" r="44"/><circle fill="#C1D0D3" stroke="#231F20" stroke-width="4" stroke-miterlimit="10" cx="498" cy="354" r="24"/><circle fill="#929D9E" cx="498" cy="354" r="8"/><g fill="#111"><path d="M476.68 357.072c1.914-1.105 4.36-.45 5.465 1.463l4 6.928c1.104 1.914.45 4.36-1.464 5.465-1.912 1.104-4.36.45-5.464-1.465l-4-6.928c-1.105-1.912-.448-4.36 1.465-5.463zM511.32 337.072c1.914-1.105 4.36-.45 5.465 1.463l4 6.928c1.104 1.914.45 4.36-1.464 5.467-1.912 1.103-4.36.447-5.463-1.467l-4-6.928c-1.105-1.912-.45-4.36 1.464-5.463z"/></g><g fill="#111"><path d="M484.68 337.072c1.914 1.104 2.568 3.55 1.465 5.464l-4 6.928c-1.105 1.913-3.55 2.57-5.465 1.465-1.912-1.105-2.568-3.553-1.464-5.466l4-6.928c1.104-1.913 3.552-2.568 5.464-1.464zM519.32 357.072c1.914 1.104 2.57 3.55 1.465 5.464l-4 6.928c-1.104 1.913-3.55 2.57-5.465 1.465-1.912-1.105-2.568-3.553-1.463-5.466l4-6.928c1.104-1.913 3.55-2.568 5.463-1.464z"/></g><g fill="#111"><path d="M506 334c0 2.21-1.79 4-4 4h-8c-2.21 0-4-1.79-4-4s1.79-4 4-4h8c2.21 0 4 1.79 4 4zM506 374c0 2.21-1.79 4-4 4h-8c-2.21 0-4-1.79-4-4s1.79-4 4-4h8c2.21 0 4 1.79 4 4z"/></g><circle fill="none" stroke="#231F20" stroke-width="4" stroke-miterlimit="10" cx="498" cy="354" r="24"/><path fill="none" stroke="#B9529F" stroke-width="4" stroke-linecap="round" stroke-linejoin="round" stroke-miterlimit="10" d="M254 170"/><path fill="#0C0C0C" stroke="#231F20" stroke-width="4" stroke-linecap="round" stroke-linejoin="round" stroke-miterlimit="10" d="M254 86v232h440V86H438V50h8v-8H274v8h8v36z"/><path fill="#EBEDED" stroke="#231F20" stroke-width="4" stroke-linecap="round" stroke-linejoin="round" stroke-miterlimit="10" d="M170 166s-14 2-20 8l-60 60s-80 32-80 52v68h28c0-28.72 23.28-52 52-52s52 23.28 52 52h112V166h-84z"/><path fill="#918A7D" stroke="#231F20" stroke-width="4" stroke-linecap="round" stroke-linejoin="round" stroke-miterlimit="10" d="M254 310v44h195.99c7.838-18.79 26.38-32 48.01-32s40.172 13.21 48.01 32H614l80-8v-36H254z"/><path fill="#FFF6E3" stroke="#231F20" stroke-width="4" stroke-linecap="round" stroke-linejoin="round" stroke-miterlimit="10" d="M273.667 42h171.666v8H273.667zM310 74v-8h-28v8h28"/><path fill="#FFF6E3" stroke="#231F20" stroke-width="4" stroke-linecap="round" stroke-linejoin="round" stroke-miterlimit="10" d="M270.334 58.5H322v8h-51.666z"/><path fill="#C1BFB5" stroke="#231F20" stroke-width="4" stroke-linecap="round" stroke-linejoin="round" stroke-miterlimit="10" d="M602 101.575L614 82H250l12 19.575z"/><path fill="#FFF6E3" stroke="#231F20" stroke-width="4" stroke-linecap="round" stroke-linejoin="round" stroke-miterlimit="10" d="M250 74h364v8H250z"/><path fill="#444646" stroke="#231F20" stroke-width="4" stroke-linecap="round" stroke-linejoin="round" stroke-miterlimit="10" d="M262 102h340v116H262z"/><path fill="#FFF6E3" stroke="#231F20" stroke-width="4" stroke-miterlimit="10" d="M550 154"/><path fill="#C1BFB5" stroke="#231F20" stroke-width="4" stroke-linecap="round" stroke-linejoin="round" stroke-miterlimit="10" d="M578 194"/><circle fill="#5E6363" stroke="#231F20" stroke-width="4" stroke-miterlimit="10" cx="90" cy="354" r="44"/><circle fill="#C1D0D3" stroke="#231F20" stroke-width="4" stroke-miterlimit="10" cx="90" cy="354" r="24"/><circle fill="#929D9E" cx="90" cy="354" r="8"/><g fill="#111"><path d="M68.68 357.072c1.914-1.105 4.36-.45 5.465 1.463l4 6.928c1.104 1.914.45 4.36-1.464 5.465-1.912 1.104-4.36.45-5.464-1.465l-4-6.928c-1.105-1.912-.448-4.36 1.465-5.463zM103.32 337.072c1.914-1.105 4.36-.45 5.465 1.463l4 6.928c1.104 1.914.45 4.36-1.464 5.467-1.912 1.103-4.36.447-5.463-1.467l-4-6.928c-1.105-1.912-.45-4.36 1.464-5.463z"/></g><g fill="#111"><path d="M76.68 337.072c1.914 1.104 2.568 3.55 1.465 5.464l-4 6.928c-1.105 1.913-3.55 2.57-5.465 1.465-1.912-1.105-2.568-3.553-1.464-5.466l4-6.928c1.104-1.913 3.552-2.568 5.464-1.464zM111.32 357.072c1.914 1.104 2.57 3.55 1.465 5.464l-4 6.928c-1.104 1.913-3.55 2.57-5.465 1.465-1.912-1.105-2.568-3.553-1.463-5.466l4-6.928c1.104-1.913 3.55-2.568 5.463-1.464z"/></g><g fill="#111"><path d="M98 334c0 2.21-1.79 4-4 4h-8c-2.21 0-4-1.79-4-4s1.79-4 4-4h8c2.21 0 4 1.79 4 4zM98 374c0 2.21-1.79 4-4 4h-8c-2.21 0-4-1.79-4-4s1.79-4 4-4h8c2.21 0 4 1.79 4 4z"/></g><circle fill="none" stroke="#231F20" stroke-width="4" stroke-miterlimit="10" cx="90" cy="354" r="24"/><path fill="#C1BFB5" stroke="#231F20" stroke-width="4" stroke-linecap="round" stroke-linejoin="round" stroke-miterlimit="10" d="M314 190h72v48h-72zM262 218h340v20H262z"/><path fill="#E5E6E5" stroke="#231F20" stroke-width="4" stroke-linecap="round" stroke-linejoin="round" stroke-miterlimit="10" d="M10 306h24l8-20H10z"/><path fill="#454646" stroke="#231F20" stroke-width="4" stroke-linecap="round" stroke-linejoin="round" stroke-miterlimit="10" d="M56.808 313.97C45.318 323.508 38 337.9 38 354H10v-16c-4.418 0-8-3.582-8-8v-8c0-4.418 3.582-8 8-8h20l26.808-.03zM106 226l-36 36s-4 4 0 8h68l12-12-44-32z"/><path fill="none" stroke="#231F20" stroke-width="4" stroke-miterlimit="10" d="M98 270l-.002 20.495C129.568 294.43 154 321.36 154 354h48l32-64v-64"/><path fill="#454646" stroke="#231F20" stroke-width="4" stroke-linecap="round" stroke-linejoin="round" stroke-miterlimit="10" d="M234 286c0 2.21-1.79 4-4 4s-4-1.79-4-4v-8c0-2.21 1.79-4 4-4s4 1.79 4 4v8z"/><g fill="none" stroke-miterlimit="10"><path stroke="#231F20" stroke-width="4" d="M314 290c0 2.21-1.79 4-4 4h-20c-2.21 0-4-1.79-4-4v-8c0-2.21 1.79-4 4-4h20c2.21 0 4 1.79 4 4v8z"/><path stroke="#4C5463" d="M290 286h9M290 284h9M290 282h9M290 288h9M290 290h9M301.062 286h9M301.062 284h9M301.062 282h9M301.062 288h9M301.062 290h9"/></g><g fill="none" stroke-miterlimit="10"><path stroke="#231F20" stroke-width="4" d="M418 290c0 2.21-1.79 4-4 4h-20c-2.21 0-4-1.79-4-4v-8c0-2.21 1.79-4 4-4h20c2.21 0 4 1.79 4 4v8z"/><path stroke="#4C5463" d="M394 286h9M394 284h9M394 282h9M394 288h9M394 290h9M405.062 286h9M405.062 284h9M405.062 282h9M405.062 288h9M405.062 290h9"/></g><path fill="#4CABC2" stroke="#000" stroke-width="4" stroke-miterlimit="10" d="M214 178v68c0 2.21-1.79 4-4 4h-52l-12 12h-36c-2.21 0-4-1.79-4-4v-32l52-52h52c2.21 0 4 1.79 4 4zM226 206M226 130"/><path opacity=".2" fill="#fff" d="M206 174l-84 88h-16l84-88zM214 218l-28 32h-12l40-48zM214 174l-84 88h-4l84-88z"/><path fill="none" stroke="#231F20" stroke-width="4" stroke-miterlimit="10" d="M158 174v76M186 174v76"/><path fill="none" stroke="#231F20" stroke-width="4" stroke-miterlimit="10" d="M214 178v68c0 2.21-1.79 4-4 4h-52l-12 12h-36c-2.21 0-4-1.79-4-4v-32l52-52h52c2.21 0 4 1.79 4 4z"/><path opacity=".8" fill="#fff" d="M34 286.125L26 306h-8l8-19.875zM22 286.125L14 306h-4l8-19.875z"/><path fill="none" stroke="#231F20" stroke-width="4" stroke-linecap="round" stroke-linejoin="round" stroke-miterlimit="10" d="M10 306h24l8-20H10z"/><path fill="#454646" stroke="#231F20" stroke-width="4" stroke-linecap="round" stroke-linejoin="round" stroke-miterlimit="10" d="M98 258c0-4.418 3.582-8 8-8l-4-4c-4.418 0-8 3.582-8 8l4 4z"/><path fill="#F79520" stroke="#231F20" stroke-width="4" stroke-linecap="round" stroke-linejoin="round" stroke-miterlimit="10" d="M82 258h8v7h-8z"/><path fill="#454646" stroke="#231F20" stroke-width="4" stroke-linecap="round" stroke-linejoin="round" stroke-miterlimit="10" d="M114 250h-4c-4.418 0-8-3.582-8-8v-20c0-4.418 3.582-8 8-8h4v36z"/><circle fill="#454646" stroke="#231F20" stroke-width="4" stroke-linecap="round" stroke-linejoin="round" stroke-miterlimit="10" cx="98" cy="254" r="4"/><path fill="#FCEE22" stroke="#231F20" stroke-width="4" stroke-linecap="round" stroke-linejoin="round" stroke-miterlimit="10" d="M418 210v20c0 2.21-1.79 4-4 4s-4-1.79-4-4v-20l4-4 4 4zM414 206v-4"/><circle fill="#016938" stroke="#01A64F" stroke-width="4" stroke-linecap="round" stroke-linejoin="round" stroke-miterlimit="10" cx="580" cy="208" r="10"/><path fill="#CE3746" stroke="#231F20" stroke-width="4" stroke-linecap="round" stroke-linejoin="round" stroke-miterlimit="10" d="M402 210v20c0 2.21-1.79 4-4 4s-4-1.79-4-4v-20l4-4 4 4zM398 206v-4"/><g fill="none" stroke="#01A64F" stroke-width="4" stroke-linecap="round" stroke-linejoin="round" stroke-miterlimit="10"><path d="M498 202c7.732 0 12 8.268 12 16M510 198v20M522 202c-7.732 0-12 8.268-12 16"/></g><g fill="none" stroke="#01A64F" stroke-width="4" stroke-linecap="round" stroke-linejoin="round" stroke-miterlimit="10"><path d="M492 214M492 206v8"/></g><path fill="none" stroke="#01A64F" stroke-width="4" stroke-linecap="round" stroke-linejoin="round" stroke-miterlimit="10" d="M490 214l-4-4M494 214l4-4"/><circle fill="#016938" stroke="#01A64F" stroke-width="4" stroke-linecap="round" stroke-linejoin="round" stroke-miterlimit="10" cx="540" cy="212" r="14"/><path fill="none" stroke="#01A64F" stroke-width="4" stroke-linecap="round" stroke-linejoin="round" stroke-miterlimit="10" d="M492 214"/><path fill="#97BFE2" stroke="#231F20" stroke-width="4" stroke-linecap="round" stroke-linejoin="round" stroke-miterlimit="10" d="M558 214v16c0 4.418-3.582 8-8 8h-64c-4.418 0-8-3.582-8-8v-16h80z"/><path fill="#BDBDBD" stroke="#707070" stroke-width="4" stroke-linecap="round" stroke-linejoin="round" stroke-miterlimit="10" d="M570 214l4 20h12l4-20z"/><path fill="#6C7071" stroke="#231F20" stroke-width="4" stroke-linecap="round" stroke-linejoin="round" stroke-miterlimit="10" d="M362 190l-4-12h24l-4 12zM350 190h-28v-12c0-4.418 3.582-8 8-8h12c4.418 0 8 3.582 8 8v12zM322 178h28"/><path fill="#2B2E31" stroke="#231F20" stroke-width="4" stroke-linecap="round" stroke-linejoin="round" stroke-miterlimit="10" d="M186 102h128v136H186z"/><path opacity=".8" fill="none" stroke="#fff" stroke-width="8" stroke-linecap="round" stroke-linejoin="round" stroke-miterlimit="10" d="M198 118h67M198 134h36M246 134h20M282 134h20M282 146h20M198 146h44M198 162h12M222 162h36"/><path opacity=".8" fill="none" stroke="#fff" stroke-width="12" stroke-linecap="round" stroke-linejoin="round" stroke-miterlimit="10" d="M274 162h16M266 222h16M298 222h4"/><path opacity=".8" fill="none" stroke="#fff" stroke-width="16" stroke-linecap="round" stroke-linejoin="round" stroke-miterlimit="10" d="M274 194h16M202 194h44"/><path opacity=".8" fill="none" stroke="#fff" stroke-width="8" stroke-linecap="round" stroke-linejoin="round" stroke-miterlimit="10" d="M279 118h23"/><circle fill="#285B52" cx="648" cy="157" r="34"/><circle fill="#285B52" stroke="#fff" stroke-width="4" stroke-linecap="round" stroke-linejoin="round" stroke-miterlimit="10" cx="648" cy="157" r="26.842"/><circle fill="#fff" cx="648" cy="157" r="23.264"/><circle fill="#285B52" cx="648" cy="157" r="8.947"/><path fill="none" stroke="#285B52" stroke-width="5" stroke-linecap="round" stroke-miterlimit="10" d="M664.006 158.79c-.39 3.506-1.93 6.91-4.617 9.6-2.69 2.687-6.093 4.227-9.6 4.616M649.79 140.993c1.348.15 2.68.47 3.962.96M631.896 156.77c.057-4.045 1.63-8.072 4.716-11.158 1.8-1.8 3.92-3.086 6.18-3.856"/><circle fill="#285B52" cx="464" cy="276" r="26"/><circle fill="#285B52" stroke="#fff" stroke-width="4" stroke-linecap="round" stroke-linejoin="round" stroke-miterlimit="10" cx="464" cy="276" r="20.526"/><circle fill="#fff" cx="464" cy="276" r="17.79"/><circle fill="#285B52" cx="464" cy="276" r="6.842"/><path fill="none" stroke="#285B52" stroke-width="5" stroke-linecap="round" stroke-miterlimit="10" d="M476.24 277.368c-.3 2.682-1.476 5.284-3.53 7.34-2.057 2.057-4.66 3.233-7.34 3.532M465.37 263.76c1.03.114 2.05.36 3.028.733M451.686 275.825c.043-3.094 1.246-6.174 3.606-8.533 1.377-1.377 2.998-2.36 4.725-2.95"/></svg>