<svg xmlns="http://www.w3.org/2000/svg" width="696" height="400" viewBox="0 0 696 400"><path fill="#2B2E31" stroke="#231F20" stroke-width="4" stroke-linecap="round" stroke-linejoin="round" stroke-miterlimit="10" d="M24 296h132v52H24v-52z"/><g class="wheel"><circle fill="#5E6363" stroke="#231F20" stroke-width="4" stroke-miterlimit="10" cx="90" cy="354" r="44"/><circle fill="#C1D0D3" stroke="#231F20" stroke-width="4" stroke-miterlimit="10" cx="90" cy="354" r="24"/><circle fill="#929D9E" cx="90" cy="354" r="8"/><path fill="#111" d="M68.68 357.072c1.914-1.105 4.36-.45 5.465 1.463l4 6.928c1.104 1.914.45 4.36-1.464 5.465-1.91 1.104-4.36.45-5.463-1.465l-4-6.928c-1.105-1.912-.448-4.36 1.465-5.463h-.002zm34.64-20c1.914-1.105 4.36-.45 5.465 1.463l4 6.928c1.104 1.914.45 4.36-1.464 5.467-1.91 1.104-4.36.447-5.462-1.467l-4-6.928c-1.105-1.912-.45-4.36 1.464-5.463h-.002zM76.68 337.072c1.914 1.104 2.568 3.55 1.465 5.464l-4 6.928c-1.105 1.913-3.55 2.57-5.465 1.466-1.912-1.105-2.568-3.554-1.464-5.467l4-6.928c1.104-1.913 3.552-2.568 5.464-1.465v.002zm34.64 20c1.914 1.104 2.57 3.55 1.465 5.464l-4 6.928c-1.104 1.913-3.55 2.57-5.465 1.466-1.912-1.105-2.568-3.554-1.463-5.467l4-6.928c1.104-1.913 3.55-2.568 5.463-1.465v.002zM98 334c0 2.21-1.79 4-4 4h-8c-2.21 0-4-1.79-4-4s1.79-4 4-4h8c2.21 0 4 1.79 4 4zm0 40c0 2.21-1.79 4-4 4h-8c-2.21 0-4-1.79-4-4s1.79-4 4-4h8c2.21 0 4 1.79 4 4z"/><circle fill="none" stroke="#231F20" stroke-width="4" stroke-miterlimit="10" cx="90" cy="354" r="24"/></g><g class="wheel"><circle fill="#5E6363" stroke="#231F20" stroke-width="4" stroke-miterlimit="10" cx="498" cy="354" r="44"/><circle fill="#C1D0D3" stroke="#231F20" stroke-width="4" stroke-miterlimit="10" cx="498" cy="354" r="24"/><circle fill="#929D9E" cx="498" cy="354" r="8"/><path fill="#111" d="M476.68 357.072c1.914-1.105 4.36-.45 5.465 1.463l4 6.928c1.104 1.914.45 4.36-1.464 5.465-1.91 1.104-4.358.45-5.463-1.465l-4-6.928c-1.104-1.912-.448-4.36 1.465-5.463h-.002zm34.64-20c1.914-1.105 4.36-.45 5.465 1.463l4 6.928c1.104 1.914.45 4.36-1.464 5.467-1.91 1.104-4.36.447-5.462-1.467l-4-6.928c-1.105-1.912-.45-4.36 1.464-5.463h-.002zM484.68 337.072c1.914 1.104 2.568 3.55 1.465 5.464l-4 6.928c-1.104 1.913-3.55 2.57-5.465 1.466-1.912-1.105-2.567-3.554-1.464-5.467l4-6.928c1.104-1.913 3.552-2.568 5.464-1.465v.002zm34.64 20c1.914 1.104 2.57 3.55 1.465 5.464l-4 6.928c-1.104 1.913-3.55 2.57-5.465 1.466-1.912-1.105-2.568-3.554-1.463-5.467l4-6.928c1.104-1.913 3.55-2.568 5.463-1.465v.002zM506 334c0 2.21-1.79 4-4 4h-8c-2.21 0-4-1.79-4-4s1.79-4 4-4h8c2.21 0 4 1.79 4 4zm0 40c0 2.21-1.79 4-4 4h-8c-2.21 0-4-1.79-4-4s1.79-4 4-4h8c2.21 0 4 1.79 4 4z"/><circle fill="none" stroke="#231F20" stroke-width="4" stroke-miterlimit="10" cx="498" cy="354" r="24"/></g><path fill="none" stroke="#B9529F" stroke-width="4" stroke-linecap="round" stroke-linejoin="round" stroke-miterlimit="10" d="M254 170"/><path fill="#0C0C0C" stroke="#231F20" stroke-width="4" stroke-linecap="round" stroke-linejoin="round" stroke-miterlimit="10" d="M254 86v232h440V86H438V50h8v-8H274v8h8v36h-28z"/><path fill="#EBEDED" stroke="#231F20" stroke-width="4" stroke-linecap="round" stroke-linejoin="round" stroke-miterlimit="10" d="M170 166s-14 2-20 8l-60 60s-80 32-80 52v68h28c0-28.72 23.28-52 52-52s52 23.28 52 52h112V166h-84z"/><path fill="#918A7D" stroke="#231F20" stroke-width="4" stroke-linecap="round" stroke-linejoin="round" stroke-miterlimit="10" d="M254 310v44h195.99c7.838-18.79 26.38-32 48.01-32s40.172 13.21 48.01 32H614l80-8v-36H254z"/><path fill="#FFF6E3" stroke="#231F20" stroke-width="4" stroke-linecap="round" stroke-linejoin="round" stroke-miterlimit="10" d="M273.667 42h171.666v8H273.667v-8zM310 74v-8h-28v8h28"/><path fill="#FFF6E3" stroke="#231F20" stroke-width="4" stroke-linecap="round" stroke-linejoin="round" stroke-miterlimit="10" d="M270.334 58.5H322v8h-51.666v-8z"/><path fill="#C1BFB5" stroke="#231F20" stroke-width="4" stroke-linecap="round" stroke-linejoin="round" stroke-miterlimit="10" d="M602 101.575L614 82H250l12 19.575h340z"/><path fill="#FFF6E3" stroke="#231F20" stroke-width="4" stroke-linecap="round" stroke-linejoin="round" stroke-miterlimit="10" d="M250 74h364v8H250v-8z"/><path fill="#444646" stroke="#231F20" stroke-width="4" stroke-linecap="round" stroke-linejoin="round" stroke-miterlimit="10" d="M262 102h340v116H262V102z"/><path fill="#FFF6E3" stroke="#231F20" stroke-width="4" stroke-miterlimit="10" d="M550 154"/><path fill="#C1BFB5" stroke="#231F20" stroke-width="4" stroke-linecap="round" stroke-linejoin="round" stroke-miterlimit="10" d="M578 194"/><path fill="#C1BFB5" stroke="#231F20" stroke-width="4" stroke-linecap="round" stroke-linejoin="round" stroke-miterlimit="10" d="M314 190h72v48h-72v-48zm-52 28h340v20H262v-20z"/><path fill="#E5E6E5" stroke="#231F20" stroke-width="4" stroke-linecap="round" stroke-linejoin="round" stroke-miterlimit="10" d="M10 306h24l8-20H10v20z"/><path fill="#454646" stroke="#231F20" stroke-width="4" stroke-linecap="round" stroke-linejoin="round" stroke-miterlimit="10" d="M56.808 313.97C45.318 323.51 38 337.9 38 354H10v-16c-4.418 0-8-3.582-8-8v-8c0-4.418 3.582-8 8-8h20l26.808-.03zM106 226l-36 36s-4 4 0 8h68l12-12-44-32z"/><path fill="none" stroke="#231F20" stroke-width="4" stroke-miterlimit="10" d="M98 270l-.002 20.495C129.568 294.43 154 321.36 154 354h48l32-64v-64"/><path fill="#454646" stroke="#231F20" stroke-width="4" stroke-linecap="round" stroke-linejoin="round" stroke-miterlimit="10" d="M234 286c0 2.21-1.79 4-4 4s-4-1.79-4-4v-8c0-2.21 1.79-4 4-4s4 1.79 4 4v8z"/><g fill="none" stroke-miterlimit="10"><path stroke="#231F20" stroke-width="4" d="M314 290c0 2.21-1.79 4-4 4h-20c-2.21 0-4-1.79-4-4v-8c0-2.21 1.79-4 4-4h20c2.21 0 4 1.79 4 4v8z"/><path stroke="#4C5463" d="M290 286h9m-9-2h9m-9-2h9m-9 6h9m-9 2h9m2.062-4h9m-9-2h9m-9-2h9m-9 6h9m-9 2h9"/></g><g fill="none" stroke-miterlimit="10"><path stroke="#231F20" stroke-width="4" d="M418 290c0 2.21-1.79 4-4 4h-20c-2.21 0-4-1.79-4-4v-8c0-2.21 1.79-4 4-4h20c2.21 0 4 1.79 4 4v8z"/><path stroke="#4C5463" d="M394 286h9m-9-2h9m-9-2h9m-9 6h9m-9 2h9m2.062-4h9m-9-2h9m-9-2h9m-9 6h9m-9 2h9"/></g><path fill="#4CABC2" stroke="#000" stroke-width="4" stroke-miterlimit="10" d="M214 178v68c0 2.21-1.79 4-4 4h-52l-12 12h-36c-2.21 0-4-1.79-4-4v-32l52-52h52c2.21 0 4 1.79 4 4z"/><path opacity=".2" fill="#fff" enable-background="new" d="M206 174l-84 88h-16l84-88h16zm8 44l-28 32h-12l40-48v16zm0-44l-84 88h-4l84-88h4z"/><path fill="none" stroke="#231F20" stroke-width="4" stroke-miterlimit="10" d="M158 174v76m28-76v76"/><path fill="none" stroke="#231F20" stroke-width="4" stroke-miterlimit="10" d="M214 178v68c0 2.21-1.79 4-4 4h-52l-12 12h-36c-2.21 0-4-1.79-4-4v-32l52-52h52c2.21 0 4 1.79 4 4z"/><path opacity=".8" fill="#fff" enable-background="new" d="M34 286.125L26 306h-8l8-19.875h8zm-12 0L14 306h-4l8-19.875h4z"/><path fill="none" stroke="#231F20" stroke-width="4" stroke-linecap="round" stroke-linejoin="round" stroke-miterlimit="10" d="M10 306h24l8-20H10v20z"/><path fill="#454646" stroke="#231F20" stroke-width="4" stroke-linecap="round" stroke-linejoin="round" stroke-miterlimit="10" d="M98 258c0-4.418 3.582-8 8-8l-4-4c-4.418 0-8 3.582-8 8l4 4z"/><path fill="#F79520" stroke="#231F20" stroke-width="4" stroke-linecap="round" stroke-linejoin="round" stroke-miterlimit="10" d="M82 258h8v7h-8v-7z"/><path fill="#454646" stroke="#231F20" stroke-width="4" stroke-linecap="round" stroke-linejoin="round" stroke-miterlimit="10" d="M114 250h-4c-4.418 0-8-3.582-8-8v-20c0-4.418 3.582-8 8-8h4v36z"/><circle fill="#454646" stroke="#231F20" stroke-width="4" stroke-linecap="round" stroke-linejoin="round" stroke-miterlimit="10" cx="98" cy="254" r="4"/><path fill="#FCEE22" stroke="#231F20" stroke-width="4" stroke-linecap="round" stroke-linejoin="round" stroke-miterlimit="10" d="M418 210v20c0 2.21-1.79 4-4 4s-4-1.79-4-4v-20l4-4 4 4zm-4-4v-4"/><circle fill="#016938" stroke="#01A64F" stroke-width="4" stroke-linecap="round" stroke-linejoin="round" stroke-miterlimit="10" cx="580" cy="208" r="10"/><path fill="#CE3746" stroke="#231F20" stroke-width="4" stroke-linecap="round" stroke-linejoin="round" stroke-miterlimit="10" d="M402 210v20c0 2.21-1.79 4-4 4s-4-1.79-4-4v-20l4-4 4 4zm-4-4v-4"/><path fill="none" stroke="#01A64F" stroke-width="4" stroke-linecap="round" stroke-linejoin="round" stroke-miterlimit="10" d="M498 202c7.732 0 12 8.268 12 16m0-20v20m12-16c-7.732 0-12 8.268-12 16M492 206v8M490 214l-4-4m8 4l4-4"/><circle fill="#016938" stroke="#01A64F" stroke-width="4" stroke-linecap="round" stroke-linejoin="round" stroke-miterlimit="10" cx="540" cy="212" r="14"/><path fill="none" stroke="#01A64F" stroke-width="4" stroke-linecap="round" stroke-linejoin="round" stroke-miterlimit="10" d="M492 214"/><path fill="#97BFE2" stroke="#231F20" stroke-width="4" stroke-linecap="round" stroke-linejoin="round" stroke-miterlimit="10" d="M558 214v16c0 4.418-3.582 8-8 8h-64c-4.418 0-8-3.582-8-8v-16h80z"/><path fill="#BDBDBD" stroke="#707070" stroke-width="4" stroke-linecap="round" stroke-linejoin="round" stroke-miterlimit="10" d="M570 214l4 20h12l4-20h-20z"/><path fill="#6C7071" stroke="#231F20" stroke-width="4" stroke-linecap="round" stroke-linejoin="round" stroke-miterlimit="10" d="M362 190l-4-12h24l-4 12h-16zm-12 0h-28v-12c0-4.418 3.582-8 8-8h12c4.418 0 8 3.582 8 8v12zm-28-12h28"/><path fill="#2B2E31" stroke="#231F20" stroke-width="4" stroke-linecap="round" stroke-linejoin="round" stroke-miterlimit="10" d="M186 102h128v136H186V102z"/><path opacity=".8" fill="none" stroke="#fff" stroke-width="8" stroke-linecap="round" stroke-linejoin="round" stroke-miterlimit="10" enable-background="new" d="M198 118h67m-67 16h36m12 0h20m16 0h20m-20 12h20m-104 0h44m-44 16h12m12 0h36"/><path opacity=".8" fill="none" stroke="#fff" stroke-width="12" stroke-linecap="round" stroke-linejoin="round" stroke-miterlimit="10" enable-background="new" d="M274 162h16m-24 60h16m16 0h4"/><path opacity=".8" fill="none" stroke="#fff" stroke-width="16" stroke-linecap="round" stroke-linejoin="round" stroke-miterlimit="10" enable-background="new" d="M274 194h16m-88 0h44"/><path opacity=".8" fill="none" stroke="#fff" stroke-width="8" stroke-linecap="round" stroke-linejoin="round" stroke-miterlimit="10" enable-background="new" d="M279 118h23"/><circle fill="#285B52" cx="648" cy="157" r="34"/><circle fill="#285B52" stroke="#fff" stroke-width="4" stroke-linecap="round" stroke-linejoin="round" stroke-miterlimit="10" cx="648" cy="157" r="26.842"/><circle fill="#fff" cx="648" cy="157" r="23.264"/><circle fill="#285B52" cx="648" cy="157" r="8.947"/><path fill="none" stroke="#285B52" stroke-width="5" stroke-linecap="round" stroke-miterlimit="10" d="M664.006 158.79c-.39 3.506-1.93 6.91-4.617 9.6-2.69 2.687-6.094 4.227-9.6 4.616m0-32.013c1.348.15 2.68.47 3.962.96m-21.856 14.817c.057-4.045 1.63-8.072 4.716-11.158 1.8-1.8 3.92-3.086 6.18-3.856"/><circle fill="#285B52" cx="464" cy="276" r="26"/><circle fill="#285B52" stroke="#fff" stroke-width="4" stroke-linecap="round" stroke-linejoin="round" stroke-miterlimit="10" cx="464" cy="276" r="20.525"/><circle fill="#fff" cx="464" cy="276" r="17.79"/><circle fill="#285B52" cx="464" cy="276" r="6.842"/><path fill="none" stroke="#285B52" stroke-width="5" stroke-linecap="round" stroke-miterlimit="10" d="M476.24 277.368c-.3 2.682-1.477 5.284-3.53 7.34-2.057 2.058-4.66 3.233-7.34 3.532m0-24.48c1.03.114 2.05.36 3.028.733m-16.712 11.332c.043-3.095 1.246-6.175 3.606-8.533 1.377-1.377 2.998-2.36 4.725-2.95"/></svg>