<?xml version="1.0" encoding="utf-8"?>
<!-- Generator: Adobe Illustrator 16.0.1, SVG Export Plug-In . SVG Version: 6.00 Build 0)  -->
<!DOCTYPE svg PUBLIC "-//W3C//DTD SVG 1.1//EN" "http://www.w3.org/Graphics/SVG/1.1/DTD/svg11.dtd">
<svg version="1.1" id="Layer_1" xmlns="http://www.w3.org/2000/svg" xmlns:xlink="http://www.w3.org/1999/xlink" x="0px" y="0px"
	 width="368px" height="400px" viewBox="6.5 0 368 400" enable-background="new 6.5 0 368 400" xml:space="preserve">
<path fill="#454545" stroke="#231F20" stroke-width="4" stroke-linecap="round" stroke-linejoin="round" stroke-miterlimit="10" d="
	M356.5,106h-4c-52-8-168-60-168-72c0,12-116,64-168,72h-4c-2.209,0-4,1.791-4,4v40h176h176v-40C360.5,107.791,358.709,106,356.5,106
	z"/>
<rect x="20.5" y="262" fill="#5B5663" stroke="#231F20" stroke-width="4" stroke-linecap="round" stroke-linejoin="round" stroke-miterlimit="10" width="328" height="12"/>
<path fill="#333333" stroke="#231F20" stroke-width="4" stroke-linecap="round" stroke-linejoin="round" stroke-miterlimit="10" d="
	M360.5,108c-0.693-1.19-1.969-2-3.445-2H12.5c-1.477,0-2.752,0.81-3.445,2H8.5v2v36v128v6v98c0,2.209,1.791,4,4,4h344
	c2.209,0,4-1.791,4-4V108 M60.5,150h248v124h-248V150z"/>
<rect x="60.5" y="276" fill="#3F3F3F" width="8" height="104"/>
<rect x="76.5" y="276" fill="#3F3F3F" width="8" height="104"/>
<rect x="92.5" y="276" fill="#3F3F3F" width="8" height="104"/>
<rect x="108.5" y="276" fill="#3F3F3F" width="8" height="104"/>
<rect x="124.5" y="276" fill="#3F3F3F" width="8" height="104"/>
<rect x="140.5" y="276" fill="#3F3F3F" width="8" height="104"/>
<rect x="156.5" y="276" fill="#3F3F3F" width="8" height="104"/>
<rect x="172.5" y="276" fill="#3F3F3F" width="8" height="104"/>
<rect x="188.5" y="276" fill="#3F3F3F" width="8" height="104"/>
<rect x="204.5" y="276" fill="#3F3F3F" width="8" height="104"/>
<rect x="220.5" y="276" fill="#3F3F3F" width="8" height="104"/>
<rect x="236.5" y="276" fill="#3F3F3F" width="8" height="104"/>
<rect x="252.5" y="276" fill="#3F3F3F" width="8" height="104"/>
<rect x="268.5" y="276" fill="#3F3F3F" width="8" height="104"/>
<rect x="284.5" y="276" fill="#3F3F3F" width="8" height="104"/>
<rect x="284.5" y="276" fill="#3F3F3F" width="8" height="104"/>
<rect x="300.5" y="276" fill="#3F3F3F" width="8" height="104"/>
<rect x="12.5" y="108" fill="#3F3F3F" width="8" height="272"/>
<rect x="28.5" y="108" fill="#3F3F3F" width="8" height="272"/>
<rect x="44.5" y="108" fill="#3F3F3F" width="8" height="272"/>
<rect x="60.5" y="108" fill="#3F3F3F" width="8" height="40"/>
<rect x="76.5" y="108" fill="#3F3F3F" width="8" height="40"/>
<rect x="92.5" y="108" fill="#3F3F3F" width="8" height="40"/>
<rect x="108.5" y="108" fill="#3F3F3F" width="8" height="40"/>
<rect x="124.5" y="108" fill="#3F3F3F" width="8" height="40"/>
<rect x="140.5" y="108" fill="#3F3F3F" width="8" height="40"/>
<rect x="156.5" y="108" fill="#3F3F3F" width="8" height="40"/>
<rect x="172.5" y="108" fill="#3F3F3F" width="8" height="40"/>
<rect x="188.5" y="108" fill="#3F3F3F" width="8" height="40"/>
<rect x="204.5" y="108" fill="#3F3F3F" width="8" height="40"/>
<rect x="220.5" y="108" fill="#3F3F3F" width="8" height="40"/>
<rect x="236.5" y="108" fill="#3F3F3F" width="8" height="40"/>
<rect x="252.5" y="108" fill="#3F3F3F" width="8" height="40"/>
<rect x="268.5" y="108" fill="#3F3F3F" width="8" height="40"/>
<rect x="284.5" y="108" fill="#3F3F3F" width="8" height="40"/>
<rect x="284.5" y="108" fill="#3F3F3F" width="8" height="40"/>
<rect x="300.5" y="108" fill="#3F3F3F" width="8" height="40"/>
<rect x="316.5" y="108" fill="#3F3F3F" width="8" height="272"/>
<rect x="332.5" y="108" fill="#3F3F3F" width="8" height="272"/>
<rect x="348.5" y="108" fill="#3F3F3F" width="8" height="272"/>
<rect x="108.5" y="138" fill="#966943" stroke="#231F20" stroke-width="4" stroke-linecap="round" stroke-linejoin="round" stroke-miterlimit="10" width="152" height="24"/>
<line fill="none" stroke="#ECECEC" stroke-width="12" stroke-linecap="round" stroke-linejoin="round" stroke-miterlimit="10" x1="124.5" y1="150" x2="168.5" y2="150"/>
<line fill="none" stroke="#ECECEC" stroke-width="12" stroke-linecap="round" stroke-linejoin="round" stroke-miterlimit="10" x1="200.5" y1="150" x2="244.5" y2="150"/>
<line fill="none" stroke="#ECECEC" stroke-width="12" stroke-linecap="round" stroke-linejoin="round" stroke-miterlimit="10" x1="184.5" y1="150" x2="184.5" y2="150"/>
<rect x="94.5" y="274" fill="#966943" stroke="#231F20" stroke-width="4" stroke-linecap="round" stroke-linejoin="round" stroke-miterlimit="10" width="180" height="108"/>
<line fill="none" stroke="#ECECEC" stroke-width="24" stroke-linecap="round" stroke-linejoin="round" stroke-miterlimit="10" x1="128.5" y1="356" x2="178.5" y2="356"/>
<line fill="none" stroke="#C95B97" stroke-width="16" stroke-linecap="round" stroke-linejoin="round" stroke-miterlimit="10" x1="206.5" y1="356" x2="238.5" y2="356"/>
<g>
	
		<path fill="#ECECEC" stroke="#231F20" stroke-width="4" stroke-linecap="round" stroke-linejoin="round" stroke-miterlimit="10" d="
		M204.5,296c-1.539,0-2.938,0.39-4,1.024V296v-2l28-8l-32,4c0,0-8-2-12-2s-12,2-12,2l-32-4l28,8v2v1.024
		c-1.062-0.635-2.461-1.024-4-1.024c-3.314,0-6,1.791-6,4s2.686,4,6,4c1.539,0,2.938-0.39,4-1.024V304l8,16v10c0,2.209,1.791,4,4,4
		h4h4c2.209,0,4-1.791,4-4v-10l8-16v-1.024c1.062,0.635,2.461,1.024,4,1.024c3.313,0,6-1.791,6-4S207.813,296,204.5,296z"/>
	<g>
		
			<line fill="#966943" stroke="#231F20" stroke-width="4" stroke-linecap="round" stroke-linejoin="round" stroke-miterlimit="10" x1="187.5" y1="300" x2="192.5" y2="305"/>
		
			<line fill="#966943" stroke="#231F20" stroke-width="4" stroke-linecap="round" stroke-linejoin="round" stroke-miterlimit="10" x1="192.5" y1="300" x2="187.5" y2="305"/>
		
			<line fill="#966943" stroke="#231F20" stroke-width="4" stroke-linecap="round" stroke-linejoin="round" stroke-miterlimit="10" x1="176.5" y1="300" x2="181.5" y2="305"/>
		
			<line fill="#966943" stroke="#231F20" stroke-width="4" stroke-linecap="round" stroke-linejoin="round" stroke-miterlimit="10" x1="181.5" y1="300" x2="176.5" y2="305"/>
	</g>
	
		<circle fill="#966943" stroke="#231F20" stroke-width="4" stroke-linecap="round" stroke-linejoin="round" stroke-miterlimit="10" cx="181.5" cy="329" r="1"/>
	
		<circle fill="#966943" stroke="#231F20" stroke-width="4" stroke-linecap="round" stroke-linejoin="round" stroke-miterlimit="10" cx="187.5" cy="329" r="1"/>
</g>
<g>
	
		<polygon fill="#454545" stroke="#231F20" stroke-width="4" stroke-linecap="round" stroke-linejoin="round" stroke-miterlimit="10" points="
		304.5,382 300.5,382 296.5,358 304.5,358 	"/>
	
		<polygon fill="#454545" stroke="#231F20" stroke-width="4" stroke-linecap="round" stroke-linejoin="round" stroke-miterlimit="10" points="
		355.75,382 351.75,382 347.75,358 355.75,358 	"/>
	
		<path fill="#454545" stroke="#231F20" stroke-width="4" stroke-linecap="round" stroke-linejoin="round" stroke-miterlimit="10" d="
		M276.502,342c0,16,19.998,20,19.998,20h50c14.359,0,26-11.641,26-26s-11.641-26-26-26h-54C292.5,310,276.502,314,276.502,342z"/>
	
		<path fill="#454545" stroke="#231F20" stroke-width="4" stroke-linecap="round" stroke-linejoin="round" stroke-miterlimit="10" d="
		M290.778,308.527c-6.224-4.586-14.989-3.259-19.577,2.967c-0.383,0.521-0.711,1.065-1.013,1.619l0.003-0.036l-10.673,6.266
		l1.006,6.642l8.816-1.336l0.001-0.011c0.913,2.486,2.535,4.743,4.826,6.432c6.224,4.585,14.989,3.259,19.576-2.966
		S297.002,313.113,290.778,308.527z"/>
	
		<path fill="#454545" stroke="#231F20" stroke-width="4" stroke-linecap="round" stroke-linejoin="round" stroke-miterlimit="10" d="
		M285.75,302c0-2.209-1.791-4-4-4s-4,1.791-4,4v4h8V302z"/>
	
		<path fill="#454545" stroke="#231F20" stroke-width="4" stroke-linecap="round" stroke-linejoin="round" stroke-miterlimit="10" d="
		M298.235,311.171c1.562-1.562,1.562-4.095,0-5.656c-1.562-1.562-4.095-1.562-5.656,0l-2.829,2.828l5.657,5.657L298.235,311.171z"/>
	<g>
		
			<line fill="none" stroke="#C95B97" stroke-width="8" stroke-linecap="round" stroke-linejoin="round" stroke-miterlimit="10" x1="305.75" y1="336" x2="315.75" y2="336"/>
		
			<line fill="none" stroke="#C95B97" stroke-width="8" stroke-linecap="round" stroke-linejoin="round" stroke-miterlimit="10" x1="327.75" y1="336" x2="345.75" y2="336"/>
	</g>
</g>
<g>
	
		<path fill="#454545" stroke="#231F20" stroke-width="4" stroke-linecap="round" stroke-linejoin="round" stroke-miterlimit="10" d="
		M54.5,176c0-2.409-1.791-4-4-4h-32c-2.209,0-4,1.591-4,4v94c0,2.409,1.791,4.363,4,4.363h32c2.209,0,4-1.954,4-4.363V176z"/>
	
		<line fill="none" stroke="#ECECEC" stroke-width="8" stroke-linecap="round" stroke-linejoin="round" stroke-miterlimit="10" x1="22.5" y1="180" x2="40.5" y2="180"/>
	
		<line fill="none" stroke="#ECECEC" stroke-width="8" stroke-linecap="round" stroke-linejoin="round" stroke-miterlimit="10" x1="22.5" y1="190" x2="30.5" y2="190"/>
	
		<line fill="none" stroke="#ECECEC" stroke-width="4" stroke-linecap="round" stroke-linejoin="round" stroke-miterlimit="10" x1="22.5" y1="204" x2="28.5" y2="204"/>
	
		<line fill="none" stroke="#ECECEC" stroke-width="4" stroke-linecap="round" stroke-linejoin="round" stroke-miterlimit="10" x1="22.5" y1="210" x2="28.5" y2="210"/>
	
		<line fill="none" stroke="#ECECEC" stroke-width="4" stroke-linecap="round" stroke-linejoin="round" stroke-miterlimit="10" x1="22.5" y1="228" x2="32.5" y2="228"/>
	
		<line fill="none" stroke="#C95B97" stroke-width="4" stroke-linecap="round" stroke-linejoin="round" stroke-miterlimit="10" x1="22.5" y1="234" x2="32.5" y2="234"/>
	
		<line fill="none" stroke="#ECECEC" stroke-width="4" stroke-linecap="round" stroke-linejoin="round" stroke-miterlimit="10" x1="22.5" y1="250" x2="26.5" y2="250"/>
	
		<line fill="none" stroke="#ECECEC" stroke-width="4" stroke-linecap="round" stroke-linejoin="round" stroke-miterlimit="10" x1="34.5" y1="250" x2="38.5" y2="250"/>
	
		<line fill="none" stroke="#ECECEC" stroke-width="4" stroke-linecap="round" stroke-linejoin="round" stroke-miterlimit="10" x1="46.5" y1="250" x2="46.5" y2="250"/>
	
		<line fill="none" stroke="#ECECEC" stroke-width="4" stroke-linecap="round" stroke-linejoin="round" stroke-miterlimit="10" x1="30.5" y1="242" x2="32.5" y2="242"/>
	
		<line fill="none" stroke="#ECECEC" stroke-width="4" stroke-linecap="round" stroke-linejoin="round" stroke-miterlimit="10" x1="40.5" y1="242" x2="42.5" y2="242"/>
	
		<line fill="none" stroke="#ECECEC" stroke-width="4" stroke-linecap="round" stroke-linejoin="round" stroke-miterlimit="10" x1="22.5" y1="242" x2="22.5" y2="242"/>
	
		<line fill="none" stroke="#C95B97" stroke-width="4" stroke-linecap="round" stroke-linejoin="round" stroke-miterlimit="10" x1="40.5" y1="234" x2="46.5" y2="234"/>
	
		<line fill="none" stroke="#ECECEC" stroke-width="4" stroke-linecap="round" stroke-linejoin="round" stroke-miterlimit="10" x1="22.5" y1="258" x2="32.5" y2="258"/>
	
		<line fill="none" stroke="#ECECEC" stroke-width="4" stroke-linecap="round" stroke-linejoin="round" stroke-miterlimit="10" x1="40.5" y1="258" x2="46.5" y2="258"/>
	
		<line fill="none" stroke="#C95B97" stroke-width="4" stroke-linecap="round" stroke-linejoin="round" stroke-miterlimit="10" x1="28.5" y1="268" x2="40.5" y2="268"/>
	
		<line fill="none" stroke="#ECECEC" stroke-width="4" stroke-linecap="round" stroke-linejoin="round" stroke-miterlimit="10" x1="40.5" y1="228" x2="46.5" y2="228"/>
	
		<line fill="none" stroke="#C95B97" stroke-width="4" stroke-linecap="round" stroke-linejoin="round" stroke-miterlimit="10" x1="36.5" y1="210" x2="46.5" y2="210"/>
	
		<line fill="none" stroke="#ECECEC" stroke-width="4" stroke-linecap="round" stroke-linejoin="round" stroke-miterlimit="10" x1="36.5" y1="204" x2="46.5" y2="204"/>
	
		<line fill="none" stroke="#ECECEC" stroke-width="4" stroke-linecap="round" stroke-linejoin="round" stroke-miterlimit="10" x1="22.5" y1="216" x2="26.5" y2="216"/>
	
		<line fill="none" stroke="#ECECEC" stroke-width="4" stroke-linecap="round" stroke-linejoin="round" stroke-miterlimit="10" x1="34.5" y1="216" x2="36.5" y2="216"/>
	
		<line fill="none" stroke="#ECECEC" stroke-width="4" stroke-linecap="round" stroke-linejoin="round" stroke-miterlimit="10" x1="44.5" y1="216" x2="46.5" y2="216"/>
</g>
<path fill="#454545" stroke="#231F20" stroke-width="4" stroke-linecap="round" stroke-linejoin="round" stroke-miterlimit="10" d="
	M354.5,176c0-2.409-1.791-4-4-4h-32c-2.209,0-4,1.591-4,4v94c0,2.409,1.791,4.363,4,4.363h32c2.209,0,4-1.954,4-4.363V176z"/>
<line fill="none" stroke="#ECECEC" stroke-width="8" stroke-linecap="round" stroke-linejoin="round" stroke-miterlimit="10" x1="324.5" y1="186" x2="330.5" y2="186"/>
<line fill="none" stroke="#ECECEC" stroke-width="8" stroke-linecap="round" stroke-linejoin="round" stroke-miterlimit="10" x1="342.5" y1="186" x2="344.5" y2="186"/>
<line fill="none" stroke="#ECECEC" stroke-width="4" stroke-linecap="round" stroke-linejoin="round" stroke-miterlimit="10" x1="322.5" y1="198" x2="324.5" y2="198"/>
<line fill="none" stroke="#ECECEC" stroke-width="4" stroke-linecap="round" stroke-linejoin="round" stroke-miterlimit="10" x1="332.5" y1="198" x2="338.5" y2="198"/>
<line fill="none" stroke="#ECECEC" stroke-width="4" stroke-linecap="round" stroke-linejoin="round" stroke-miterlimit="10" x1="346.5" y1="198" x2="346.5" y2="198"/>
<line fill="none" stroke="#ECECEC" stroke-width="4" stroke-linecap="round" stroke-linejoin="round" stroke-miterlimit="10" x1="322.5" y1="208" x2="324.5" y2="208"/>
<line fill="none" stroke="#ECECEC" stroke-width="4" stroke-linecap="round" stroke-linejoin="round" stroke-miterlimit="10" x1="332.5" y1="208" x2="338.5" y2="208"/>
<line fill="none" stroke="#ECECEC" stroke-width="4" stroke-linecap="round" stroke-linejoin="round" stroke-miterlimit="10" x1="346.5" y1="208" x2="346.5" y2="208"/>
<line fill="none" stroke="#ECECEC" stroke-width="4" stroke-linecap="round" stroke-linejoin="round" stroke-miterlimit="10" x1="322.5" y1="222" x2="324.5" y2="222"/>
<line fill="none" stroke="#ECECEC" stroke-width="4" stroke-linecap="round" stroke-linejoin="round" stroke-miterlimit="10" x1="330.5" y1="244" x2="332.5" y2="244"/>
<line fill="none" stroke="#ECECEC" stroke-width="4" stroke-linecap="round" stroke-linejoin="round" stroke-miterlimit="10" x1="340.5" y1="244" x2="346.5" y2="244"/>
<line fill="none" stroke="#ECECEC" stroke-width="4" stroke-linecap="round" stroke-linejoin="round" stroke-miterlimit="10" x1="322.5" y1="244" x2="322.5" y2="244"/>
<line fill="none" stroke="#ECECEC" stroke-width="4" stroke-linecap="round" stroke-linejoin="round" stroke-miterlimit="10" x1="330.5" y1="250" x2="332.5" y2="250"/>
<line fill="none" stroke="#ECECEC" stroke-width="4" stroke-linecap="round" stroke-linejoin="round" stroke-miterlimit="10" x1="340.5" y1="250" x2="346.5" y2="250"/>
<line fill="none" stroke="#ECECEC" stroke-width="4" stroke-linecap="round" stroke-linejoin="round" stroke-miterlimit="10" x1="322.5" y1="250" x2="322.5" y2="250"/>
<line fill="none" stroke="#ECECEC" stroke-width="4" stroke-linecap="round" stroke-linejoin="round" stroke-miterlimit="10" x1="330.5" y1="256" x2="332.5" y2="256"/>
<line fill="none" stroke="#ECECEC" stroke-width="4" stroke-linecap="round" stroke-linejoin="round" stroke-miterlimit="10" x1="340.5" y1="256" x2="346.5" y2="256"/>
<line fill="none" stroke="#ECECEC" stroke-width="4" stroke-linecap="round" stroke-linejoin="round" stroke-miterlimit="10" x1="322.5" y1="256" x2="322.5" y2="256"/>
<line fill="none" stroke="#C95B97" stroke-width="4" stroke-linecap="round" stroke-linejoin="round" stroke-miterlimit="10" x1="342.5" y1="236" x2="346.5" y2="236"/>
<line fill="none" stroke="#C95B97" stroke-width="4" stroke-linecap="round" stroke-linejoin="round" stroke-miterlimit="10" x1="334.5" y1="236" x2="334.5" y2="236"/>
<line fill="none" stroke="#C95B97" stroke-width="4" stroke-linecap="round" stroke-linejoin="round" stroke-miterlimit="10" x1="322.5" y1="236" x2="326.5" y2="236"/>
<line fill="none" stroke="#C95B97" stroke-width="4" stroke-linecap="round" stroke-linejoin="round" stroke-miterlimit="10" x1="328.5" y1="268" x2="340.5" y2="268"/>
<line fill="none" stroke="#ECECEC" stroke-width="4" stroke-linecap="round" stroke-linejoin="round" stroke-miterlimit="10" x1="332.5" y1="222" x2="346.5" y2="222"/>
<g>
	<g>
		<g>
			
				<path fill="#6A1501" stroke="#231F20" stroke-width="4" stroke-linecap="round" stroke-linejoin="round" stroke-miterlimit="10" d="
				M84.5,254v-12l-6-12l-6,12v12c0,0,2,4,6,4S84.5,254,84.5,254z"/>
		</g>
		
			<line fill="#FCEE22" stroke="#231F20" stroke-width="4" stroke-linecap="round" stroke-linejoin="round" stroke-miterlimit="10" x1="78.5" y1="230" x2="78.5" y2="226"/>
	</g>
	
		<path fill="#ECECEC" stroke="#231F20" stroke-width="4" stroke-linecap="round" stroke-linejoin="round" stroke-miterlimit="10" d="
		M82.5,229c0,1.657-1.344,3-3,3h-2c-1.656,0-3-1.343-3-3l0,0c0-1.657,1.344-3,3-3h2C81.156,226,82.5,227.343,82.5,229L82.5,229z"/>
</g>
<g>
	
		<rect x="72.5" y="244" fill="#ECECEC" stroke="#231F20" stroke-width="4" stroke-linecap="round" stroke-linejoin="round" stroke-miterlimit="10" width="12" height="6"/>
</g>
<g>
	<g>
		<g>
			
				<path fill="#ECECEC" stroke="#231F20" stroke-width="4" stroke-linecap="round" stroke-linejoin="round" stroke-miterlimit="10" d="
				M96.5,230v12l6,12l6-12v-12c0,0-2-4-6-4S96.5,230,96.5,230z"/>
		</g>
		
			<line fill="#FCEE22" stroke="#231F20" stroke-width="4" stroke-linecap="round" stroke-linejoin="round" stroke-miterlimit="10" x1="102.5" y1="254" x2="102.5" y2="258"/>
	</g>
	
		<path fill="#F7B019" stroke="#231F20" stroke-width="4" stroke-linecap="round" stroke-linejoin="round" stroke-miterlimit="10" d="
		M98.5,255c0-1.657,1.344-3,3-3h2c1.656,0,3,1.343,3,3l0,0c0,1.657-1.344,3-3,3h-2C99.844,258,98.5,256.657,98.5,255L98.5,255z"/>
</g>
<g>
	
		<rect x="96.5" y="232" fill="#F7B019" stroke="#231F20" stroke-width="4" stroke-linecap="round" stroke-linejoin="round" stroke-miterlimit="10" width="12" height="8"/>
</g>
<rect x="120.5" y="252" fill="#AB9473" stroke="#231F20" stroke-width="4" stroke-linecap="round" stroke-linejoin="round" stroke-miterlimit="10" width="46" height="6"/>
<rect x="178.5" y="252" fill="#AB9473" stroke="#231F20" stroke-width="4" stroke-linecap="round" stroke-linejoin="round" stroke-miterlimit="10" width="46" height="6"/>
<path fill="#6C7071" stroke="#231F20" stroke-width="4" stroke-linecap="round" stroke-linejoin="round" stroke-miterlimit="10" d="
	M308.502,258c0,2.209-1.792,4-4,4h-64c-2.209,0-4-1.791-4-4v-34c0-2.209,1.791-4,4-4h64c2.208,0,4,1.791,4,4V258z"/>
</svg>
