<svg xmlns="http://www.w3.org/2000/svg" width="368" height="400" viewBox="6.5 0 368 400" enable-background="new 6.5 0 368 400"><path fill="#454545" stroke="#231F20" stroke-width="4" stroke-linecap="round" stroke-linejoin="round" stroke-miterlimit="10" d="M356.5 106h-4c-52-8-168-60-168-72 0 12-116 64-168 72h-4c-2.21 0-4 1.79-4 4v40h352v-40c0-2.21-1.79-4-4-4z"/><path fill="#5B5663" stroke="#231F20" stroke-width="4" stroke-linecap="round" stroke-linejoin="round" stroke-miterlimit="10" d="M20.5 262h328v12h-328z"/><path fill="#333" stroke="#231F20" stroke-width="4" stroke-linecap="round" stroke-linejoin="round" stroke-miterlimit="10" d="M360.5 108c-.693-1.19-1.97-2-3.445-2H12.5c-1.477 0-2.752.81-3.445 2H8.5v270c0 2.21 1.79 4 4 4h344c2.21 0 4-1.79 4-4V108m-300 42h248v124h-248V150z"/><path fill="#3F3F3F" d="M60.5 276h8v104h-8zM76.5 276h8v104h-8zM92.5 276h8v104h-8zM108.5 276h8v104h-8zM124.5 276h8v104h-8zM140.5 276h8v104h-8zM156.5 276h8v104h-8zM172.5 276h8v104h-8zM188.5 276h8v104h-8zM204.5 276h8v104h-8zM220.5 276h8v104h-8zM236.5 276h8v104h-8zM252.5 276h8v104h-8zM268.5 276h8v104h-8zM284.5 276h8v104h-8zM284.5 276h8v104h-8zM300.5 276h8v104h-8zM12.5 108h8v272h-8zM28.5 108h8v272h-8zM44.5 108h8v272h-8zM60.5 108h8v40h-8zM76.5 108h8v40h-8zM92.5 108h8v40h-8zM108.5 108h8v40h-8zM124.5 108h8v40h-8zM140.5 108h8v40h-8zM156.5 108h8v40h-8zM172.5 108h8v40h-8zM188.5 108h8v40h-8zM204.5 108h8v40h-8zM220.5 108h8v40h-8zM236.5 108h8v40h-8zM252.5 108h8v40h-8zM268.5 108h8v40h-8zM284.5 108h8v40h-8zM284.5 108h8v40h-8zM300.5 108h8v40h-8zM316.5 108h8v272h-8zM332.5 108h8v272h-8zM348.5 108h8v272h-8z"/><path fill="#966943" stroke="#231F20" stroke-width="4" stroke-linecap="round" stroke-linejoin="round" stroke-miterlimit="10" d="M108.5 138h152v24h-152z"/><path fill="none" stroke="#ECECEC" stroke-width="12" stroke-linecap="round" stroke-linejoin="round" stroke-miterlimit="10" d="M124.5 150h44M200.5 150h44M184.5 150"/><path fill="#966943" stroke="#231F20" stroke-width="4" stroke-linecap="round" stroke-linejoin="round" stroke-miterlimit="10" d="M94.5 274h180v108h-180z"/><path fill="none" stroke="#ECECEC" stroke-width="24" stroke-linecap="round" stroke-linejoin="round" stroke-miterlimit="10" d="M128.5 356h50"/><path fill="none" stroke="#C95B97" stroke-width="16" stroke-linecap="round" stroke-linejoin="round" stroke-miterlimit="10" d="M206.5 356h32"/><g stroke="#231F20" stroke-width="4" stroke-linecap="round" stroke-linejoin="round" stroke-miterlimit="10"><path fill="#ECECEC" d="M204.5 296c-1.54 0-2.938.39-4 1.024V294l28-8-32 4s-8-2-12-2-12 2-12 2l-32-4 28 8v3.024c-1.062-.635-2.46-1.024-4-1.024-3.314 0-6 1.79-6 4s2.686 4 6 4c1.54 0 2.938-.39 4-1.024V304l8 16v10c0 2.21 1.79 4 4 4h8c2.21 0 4-1.79 4-4v-10l8-16v-1.024c1.062.635 2.46 1.024 4 1.024 3.313 0 6-1.79 6-4s-2.687-4-6-4z"/><g fill="#966943"><path d="M187.5 300l5 5M192.5 300l-5 5M176.5 300l5 5M181.5 300l-5 5"/></g><circle fill="#966943" cx="181.5" cy="329" r="1"/><circle fill="#966943" cx="187.5" cy="329" r="1"/></g><g stroke-linecap="round" stroke-linejoin="round" stroke-miterlimit="10"><path fill="#454545" stroke="#231F20" stroke-width="4" d="M304.5 382h-4l-4-24h8zM355.75 382h-4l-4-24h8zM276.502 342c0 16 19.998 20 19.998 20h50c14.36 0 26-11.64 26-26s-11.64-26-26-26h-54s-15.998 4-15.998 32zM290.778 308.527c-6.224-4.586-14.99-3.26-19.577 2.967-.382.52-.71 1.065-1.012 1.62l.003-.037-10.672 6.266 1.006 6.642 8.816-1.336v-.012c.914 2.486 2.536 4.743 4.827 6.432 6.224 4.585 14.99 3.26 19.576-2.966s3.26-14.99-2.965-19.577zM285.75 302c0-2.21-1.79-4-4-4s-4 1.79-4 4v4h8v-4zM298.235 311.17c1.562-1.56 1.562-4.094 0-5.655-1.562-1.562-4.095-1.562-5.656 0l-2.83 2.828 5.657 5.657 2.828-2.83z"/><g fill="none" stroke="#C95B97" stroke-width="8"><path d="M305.75 336h10M327.75 336h18"/></g></g><g stroke-linecap="round" stroke-linejoin="round" stroke-miterlimit="10"><path fill="#454545" stroke="#231F20" stroke-width="4" d="M54.5 176c0-2.41-1.79-4-4-4h-32c-2.21 0-4 1.59-4 4v94c0 2.41 1.79 4.363 4 4.363h32c2.21 0 4-1.954 4-4.363v-94z"/><path fill="none" stroke="#ECECEC" stroke-width="8" d="M22.5 180h18M22.5 190h8"/><path fill="none" stroke="#ECECEC" stroke-width="4" d="M22.5 204h6M22.5 210h6M22.5 228h10"/><path fill="none" stroke="#C95B97" stroke-width="4" d="M22.5 234h10"/><path fill="none" stroke="#ECECEC" stroke-width="4" d="M22.5 250h4M34.5 250h4M46.5 250M30.5 242h2M40.5 242h2M22.5 242"/><path fill="none" stroke="#C95B97" stroke-width="4" d="M40.5 234h6"/><path fill="none" stroke="#ECECEC" stroke-width="4" d="M22.5 258h10M40.5 258h6"/><path fill="none" stroke="#C95B97" stroke-width="4" d="M28.5 268h12"/><path fill="none" stroke="#ECECEC" stroke-width="4" d="M40.5 228h6"/><path fill="none" stroke="#C95B97" stroke-width="4" d="M36.5 210h10"/><path fill="none" stroke="#ECECEC" stroke-width="4" d="M36.5 204h10M22.5 216h4M34.5 216h2M44.5 216h2"/></g><path fill="#454545" stroke="#231F20" stroke-width="4" stroke-linecap="round" stroke-linejoin="round" stroke-miterlimit="10" d="M354.5 176c0-2.41-1.79-4-4-4h-32c-2.21 0-4 1.59-4 4v94c0 2.41 1.79 4.363 4 4.363h32c2.21 0 4-1.954 4-4.363v-94z"/><path fill="none" stroke="#ECECEC" stroke-width="8" stroke-linecap="round" stroke-linejoin="round" stroke-miterlimit="10" d="M324.5 186h6M342.5 186h2"/><path fill="none" stroke="#ECECEC" stroke-width="4" stroke-linecap="round" stroke-linejoin="round" stroke-miterlimit="10" d="M322.5 198h2M332.5 198h6M346.5 198M322.5 208h2M332.5 208h6M346.5 208M322.5 222h2M330.5 244h2M340.5 244h6M322.5 244M330.5 250h2M340.5 250h6M322.5 250M330.5 256h2M340.5 256h6M322.5 256"/><path fill="none" stroke="#C95B97" stroke-width="4" stroke-linecap="round" stroke-linejoin="round" stroke-miterlimit="10" d="M342.5 236h4M334.5 236M322.5 236h4M328.5 268h12"/><path fill="none" stroke="#ECECEC" stroke-width="4" stroke-linecap="round" stroke-linejoin="round" stroke-miterlimit="10" d="M332.5 222h14"/><path fill="#6A1501" stroke="#231F20" stroke-width="4" stroke-linecap="round" stroke-linejoin="round" stroke-miterlimit="10" d="M84.5 254v-12l-6-12-6 12v12s2 4 6 4 6-4 6-4z"/><path fill="#FCEE22" stroke="#231F20" stroke-width="4" stroke-linecap="round" stroke-linejoin="round" stroke-miterlimit="10" d="M78.5 230v-4"/><path fill="#ECECEC" stroke="#231F20" stroke-width="4" stroke-linecap="round" stroke-linejoin="round" stroke-miterlimit="10" d="M82.5 229c0 1.657-1.344 3-3 3h-2c-1.656 0-3-1.343-3-3s1.344-3 3-3h2c1.656 0 3 1.343 3 3zM72.5 244h12v6h-12zM96.5 230v12l6 12 6-12v-12s-2-4-6-4-6 4-6 4z"/><path fill="#FCEE22" stroke="#231F20" stroke-width="4" stroke-linecap="round" stroke-linejoin="round" stroke-miterlimit="10" d="M102.5 254v4"/><path fill="#F7B019" stroke="#231F20" stroke-width="4" stroke-linecap="round" stroke-linejoin="round" stroke-miterlimit="10" d="M98.5 255c0-1.657 1.344-3 3-3h2c1.656 0 3 1.343 3 3s-1.344 3-3 3h-2c-1.656 0-3-1.343-3-3zM96.5 232h12v8h-12z"/><path fill="#AB9473" stroke="#231F20" stroke-width="4" stroke-linecap="round" stroke-linejoin="round" stroke-miterlimit="10" d="M120.5 252h46v6h-46zM178.5 252h46v6h-46z"/><path fill="#6C7071" stroke="#231F20" stroke-width="4" stroke-linecap="round" stroke-linejoin="round" stroke-miterlimit="10" d="M308.502 258c0 2.21-1.792 4-4 4h-64c-2.21 0-4-1.79-4-4v-34c0-2.21 1.79-4 4-4h64c2.208 0 4 1.79 4 4v34z"/></svg>