<svg xmlns="http://www.w3.org/2000/svg" width="626" height="400" viewBox="-43.5 0 626 400" enable-background="new -43.5 0 626 400"><circle fill="#5E6363" stroke="#231F20" stroke-width="4" stroke-miterlimit="10" cx="475.5" cy="354.5" r="44"/><circle fill="#ECECEC" stroke="#231F20" stroke-width="4" stroke-linecap="round" stroke-linejoin="round" stroke-miterlimit="10" cx="475.5" cy="354.5" r="24"/><g fill="#111"><path d="M465.602 333.287c1.56 1.562 1.56 4.095 0 5.656l-5.658 5.657c-1.562 1.562-4.094 1.562-5.656 0l11.314-11.313zM485.398 375.713c-1.56-1.562-1.56-4.094 0-5.656l5.658-5.656c1.562-1.56 4.094-1.56 5.656 0l-11.314 11.313zM454.285 364.398c1.562-1.562 4.096-1.562 5.658 0l5.656 5.657c1.56 1.562 1.56 4.095 0 5.657l-11.315-11.314zM496.713 344.6c-1.562 1.562-4.096 1.562-5.656 0l-5.658-5.656c-1.563-1.562-1.563-4.095 0-5.657l11.313 11.313z"/></g><circle fill="#D8D8D8" cx="475.5" cy="354.5" r="8"/><circle fill="none" stroke="#231F20" stroke-width="4" stroke-miterlimit="10" cx="475.5" cy="354.5" r="24"/><path fill="#231F20" d="M477.502 342.5c-.004 1.104-.898 2.002-2 2-1.104-.002-1.998-.896-2-2-.004-1.105.896-2.004 2-2 1.103 0 1.998.896 2 2zM464.105 358.766c.96-.55 2.186-.224 2.734.73.548.958.222 2.18-.735 2.734-.955.555-2.182.225-2.73-.733-.553-.956-.223-2.18.73-2.73zM484.893 362.233c-.957-.557-1.287-1.78-.734-2.733.554-.953 1.774-1.28 2.733-.73.957.55 1.285 1.777.73 2.73-.553.957-1.775 1.283-2.73.733z"/><path fill="none" stroke="#B9529F" stroke-width="4" stroke-linecap="round" stroke-linejoin="round" stroke-miterlimit="10" d="M240.5 160.57"/><path fill="#656893" stroke="#231F20" stroke-width="4" stroke-linecap="round" stroke-linejoin="round" stroke-miterlimit="10" d="M478.502 86.5c52 0 67.693 43.57 71.998 59.91v.09s14 66 14 76c0 0 4 56 4 60 2.21 0 4 1.79 4 4v16c0 2.21-1.79 4-3.998 4l-2.002 54h-40s-2-36-32-36h-38c-30 0-32 36-32 36h-284l-14-24s-8-16-36-16l-22 2s-26-2-26 26h-70l-6-20v-54l8-12 48-106v-8h8c14-56 96-62 96-62h352.002z"/><path opacity=".2" fill="#ECECEC" stroke="#231F20" stroke-width="4" stroke-linecap="round" stroke-linejoin="round" stroke-miterlimit="10" d="M476.5 98.5"/><path fill="#ECECEC" stroke="#231F20" stroke-width="4" stroke-linecap="round" stroke-linejoin="round" stroke-miterlimit="10" d="M534.5 348.5v20h36s10 0 10-6v-14h-46zM42.5 340.5l-8 20h-66s-10 0-10-6v-14h84zM14.5 244.5c-3.313 0-6-2.687-6-6s2.687-6 6-6h551l1 12h-552z"/><circle fill="#5E6363" stroke="#231F20" stroke-width="4" stroke-miterlimit="10" cx="87.5" cy="354.5" r="44"/><circle fill="#ECECEC" stroke="#231F20" stroke-width="4" stroke-linecap="round" stroke-linejoin="round" stroke-miterlimit="10" cx="87.5" cy="354.5" r="24"/><g fill="#111"><path d="M77.6 333.287c1.563 1.562 1.563 4.095 0 5.656l-5.656 5.657c-1.562 1.562-4.095 1.562-5.656 0L77.6 333.287zM97.398 375.713c-1.56-1.562-1.56-4.094 0-5.656l5.658-5.656c1.562-1.56 4.094-1.56 5.656 0l-11.314 11.313zM66.285 364.398c1.562-1.562 4.096-1.562 5.658 0l5.656 5.657c1.56 1.562 1.56 4.095 0 5.657l-11.315-11.314zM108.713 344.6c-1.562 1.562-4.096 1.562-5.657 0l-5.657-5.656c-1.563-1.562-1.563-4.095 0-5.657l11.313 11.313z"/></g><circle fill="#D8D8D8" cx="87.5" cy="354.5" r="8"/><circle fill="none" stroke="#231F20" stroke-width="4" stroke-miterlimit="10" cx="87.5" cy="354.5" r="24"/><path fill="#231F20" d="M89.502 342.5c-.004 1.104-.898 2.002-2 2-1.104-.002-1.998-.896-2-2-.004-1.105.896-2.004 2-2 1.103 0 1.998.896 2 2zM76.105 358.766c.96-.55 2.185-.224 2.733.73.55.958.223 2.18-.733 2.734-.955.555-2.183.225-2.73-.733-.553-.956-.223-2.18.73-2.73zM96.892 362.233c-.956-.557-1.286-1.78-.733-2.733.553-.953 1.774-1.28 2.732-.73.958.55 1.286 1.777.73 2.73-.552.957-1.775 1.283-2.73.733z"/><path fill="none" stroke="#231F20" stroke-width="4" stroke-linecap="round" stroke-linejoin="round" stroke-miterlimit="10" d="M566.5 308.5h-136c-7.732 0-14 6.268-14 14v28h-270v-42h-178M-9.5 228.5v70h74M24.5 154.5h138M506.5 154.5h44"/><path fill="none" stroke="#ECECEC" stroke-width="4" stroke-linecap="round" stroke-linejoin="round" stroke-miterlimit="10" d="M226.5 256.5h146M226.5 300.5h146"/><path fill="none" stroke="#ECECEC" stroke-width="16" stroke-linecap="round" stroke-linejoin="round" stroke-miterlimit="10" d="M236.5 270.5v16"/><path fill="none" stroke="#ECECEC" stroke-width="12" stroke-linecap="round" stroke-linejoin="round" stroke-miterlimit="10" d="M230.5 312.5h10M274.5 312.5h6M296.498 312.498h12M358.5 312.498h10M324.5 312.497h18M256.5 312.502h2"/><path fill="none" stroke="#ECECEC" stroke-width="32" stroke-linecap="round" stroke-linejoin="round" stroke-miterlimit="10" d="M358.5 278.51h-94"/><path fill="#ECECEC" d="M458.682 255.924c-2.234 1.308-2.348 4.994.435 5.76 2.94.81 5.17-3.058 3.02-5.208-.917-.917-2.412-1.128-3.538-.468-1.38.808-1.456 2.32-1.19 3.717.23 1.22-.105 1.604-.89 2.498-.77.878-1.686 1.612-2.824 1.866-3.146.703-1.812 5.523 1.33 4.82 2.364-.528 4.18-2.127 5.71-3.942.844-1.002 1.53-2.005 1.663-3.342.11-1.134-.143-2.167-.158-3.27l-.342 1.26c.04-.06.08-.124.12-.187-.5.382-.997.765-1.494 1.148l.296-.053-1.927-.252-.568-.52c-.114-.422-.228-.842-.34-1.263 0 .1.002.196.003.295l.342-1.262.518-.43c.42-.115.84-.23 1.262-.343-.11.008-.22.016-.328.022l1.262.342.592.572.34 1.262-.77 1.294c2.777-1.628.263-5.95-2.526-4.318zM457.86 257.5c-.305.002-.608.008-.912 0-.286-.023-.246-.014.118.028-.564-.092.432.28-.055 0 .524.575.654.684.393.324-.33-.483-.076-.62-.004.373-.037-.496-.065-.997-.214-1.475-.406-1.3-1.73-2.116-3.076-1.746-1.28.353-2.15 1.775-1.746 3.076.206.658.007-.488.035.145.026.59.11 1.095.385 1.62.39.747.885 1.388 1.562 1.896 1 .75 2.316.767 3.512.76 1.36-.01 2.5-1.13 2.5-2.5 0-1.355-1.137-2.51-2.5-2.5zM457.443 260c-.75.025-1.56.183-2.188.24-.58.052-.148.06.11.168-.234-.144-.233-.128.003.047-.112-.1-.22-.2-.326-.307-.975-.95-2.563-.972-3.535 0-.955.954-.975 2.584 0 3.535.707.69 1.533 1.302 2.532 1.465 1.19.195 2.317-.11 3.402-.148 1.36-.047 2.5-1.102 2.5-2.5 0-1.327-1.136-2.547-2.5-2.5z"/><path fill="none" stroke="#ECECEC" stroke-width="4" stroke-linecap="round" stroke-linejoin="round" stroke-miterlimit="10" d="M468.498 262.5H484.5M468.498 270.5h20.004M468.496 278.498h28.002"/><path fill="#C1BFB5" stroke="#231F20" stroke-width="4" stroke-linecap="round" stroke-linejoin="round" stroke-miterlimit="10" d="M506.5 134.075l12-19.575h-368l12 19.575z"/><path fill="#FFF6E3" stroke="#231F20" stroke-width="4" stroke-linecap="round" stroke-linejoin="round" stroke-miterlimit="10" d="M150.5 106.5h368v8h-368z"/><path fill="#444646" stroke="#231F20" stroke-width="4" stroke-linecap="round" stroke-linejoin="round" stroke-miterlimit="10" d="M162.5 134.5h344v88h-344z"/><path fill="#C1BFB5" stroke="#231F20" stroke-width="4" stroke-linecap="round" stroke-linejoin="round" stroke-miterlimit="10" d="M504.5 194.5"/><path fill="#C1BFB5" stroke="#231F20" stroke-width="4" stroke-linecap="round" stroke-linejoin="round" stroke-miterlimit="10" d="M162.5 214.5h344v8h-344zM506.5 134.5l12-20h-368l12 20z"/><path fill="#FFF6E3" stroke="#231F20" stroke-width="4" stroke-linecap="round" stroke-linejoin="round" stroke-miterlimit="10" d="M150.5 106.5h368v8h-368z"/><path fill="#444646" stroke="#231F20" stroke-width="4" stroke-linecap="round" stroke-linejoin="round" stroke-miterlimit="10" d="M162.5 134.5h344v88h-344z"/><path fill="#C1BFB5" stroke="#231F20" stroke-width="4" stroke-linecap="round" stroke-linejoin="round" stroke-miterlimit="10" d="M504.5 194.5"/><path fill="#C1BFB5" stroke="#231F20" stroke-width="4" stroke-linecap="round" stroke-linejoin="round" stroke-miterlimit="10" d="M162.5 214.5h344v8h-344z"/><path fill="#4CABC2" stroke="#231F20" stroke-width="4" stroke-linecap="round" stroke-linejoin="round" stroke-miterlimit="10" d="M37.153 222.5H80.5c2.21 0 4-1.79 4-4v-52c0-2.21-1.79-4-4-4H34.623s-5.998 0-9.998 12l-16 40s-2 8 10 8h18.528z"/><path opacity=".2" fill="#fff" d="M56.502 162.5l-46.002 50 10.002-30 20-20zM64.502 162.5l-52.002 58-2-2 50.002-56zM84.5 196.5l-21.998 26h-42l51.998-60 12 2z"/><path fill="none" stroke="#231F20" stroke-width="4" stroke-linecap="round" stroke-linejoin="round" stroke-miterlimit="10" d="M37.153 222.5H80.5c2.21 0 4-1.79 4-4v-52c0-2.21-1.79-4-4-4H34.623s-5.998 0-9.998 12l-16 40s-2 8 10 8h18.528z"/><path fill="#ECECEC" d="M-39.5 322.5h16v6h-16z"/><path fill="#F79520" d="M-39.5 316.5h16v6h-16z"/><path fill="none" stroke="#231F20" stroke-width="4" stroke-linecap="round" stroke-linejoin="round" stroke-miterlimit="10" d="M-37.5 328.5h14v-12h-16z"/><path fill="#eee" stroke="#231F20" stroke-width="4" stroke-linecap="round" stroke-linejoin="round" stroke-miterlimit="10" d="M-37.5 294.5c-4 0-4-4-4-4v-12c0-4 4-4 4-4h4v20h-4z"/><path fill="#CE3746" d="M568.498 294.5h6v12H566.5z"/><path fill="#F79520" d="M568.498 282.5h6v12h-6z"/><path fill="none" stroke="#231F20" stroke-width="4" stroke-linecap="round" stroke-linejoin="round" stroke-miterlimit="10" d="M574.5 294.5v-8c0-4-4-4-4-4h-2v24h2s4 0 4-4v-8z"/><path fill="#454646" stroke="#231F20" stroke-width="4" stroke-linecap="round" stroke-linejoin="round" stroke-miterlimit="10" d="M7.112 228.887c.378 1.424-.616 2.922-2.217 3.347-1.6.424-3.206-.386-3.583-1.81l-2.732-10.31c-.38-1.425.615-2.923 2.217-3.347 1.6-.425 3.205.385 3.582 1.81l2.732 10.31z"/><path fill="none" stroke="#231F20" stroke-width="4" stroke-linecap="round" stroke-linejoin="round" stroke-miterlimit="10" d="M-1.5 226.5l-8 12v6"/><g stroke-linecap="round" stroke-linejoin="round" stroke-miterlimit="10"><path fill="#5A4A42" stroke="#231F20" stroke-width="4" d="M254.5 78.5h158v28h-158z"/><g fill="none" stroke="#ECECEC"><path stroke-width="12" d="M296.5 90.5v4"/><path stroke-width="16" d="M370.5 92.51h-56"/></g></g><path fill="#454545" stroke="#231F20" stroke-width="4" stroke-linecap="round" stroke-linejoin="round" stroke-miterlimit="10" d="M154.5 166.5c0-2.41-1.79-4-4-4h-80c-2.21 0-4 1.59-4 4v163.637c0 2.41 1.79 4.363 4 4.363h80c2.21 0 4-1.954 4-4.363V166.5z"/><path fill="none" stroke="#ECECEC" stroke-width="8" stroke-linecap="round" stroke-linejoin="round" stroke-miterlimit="10" d="M76.5 172.5h22.002M122.502 172.5h22M98.5 182.5h24M110.498 172.5h.002"/><path fill="none" stroke="#ECECEC" stroke-width="4" stroke-linecap="round" stroke-linejoin="round" stroke-miterlimit="10" d="M74.5 192.5h8.002M74.5 214.5h10M74.5 226.5h14.002"/><path fill="none" stroke="#ECECEC" stroke-width="2" stroke-linecap="round" stroke-linejoin="round" stroke-miterlimit="10" d="M134.51 275.848l1.89.65"/><path fill="none" stroke="#F7B019" stroke-width="4" stroke-linecap="round" stroke-linejoin="round" stroke-miterlimit="10" d="M125.473 296.006l5.673 1.95M121.573 307.354l3.783 1.3M131.033 310.604l11.348 3.896M123.523 301.68l7.567 2.598M136.765 306.228l7.565 2.598M136.82 299.903l5.676 1.95"/><path fill="none" stroke="#ECECEC" stroke-width="16" stroke-linecap="round" stroke-linejoin="round" stroke-miterlimit="10" d="M135.044 286.605l5.675 1.95"/><path fill="none" stroke="#ECECEC" stroke-width="4" stroke-linecap="round" stroke-linejoin="round" stroke-miterlimit="10" d="M74.5 220.5h4M86.5 220.5h6M100.5 220.5h14M130.5 220.5h16M122.5 220.5"/><path fill="none" stroke="#CE3746" stroke-width="4" stroke-linecap="round" stroke-linejoin="round" stroke-miterlimit="10" d="M82.936 286.5l11.564-3.2"/><path fill="none" stroke="#4C81B7" stroke-width="4" stroke-linecap="round" stroke-linejoin="round" stroke-miterlimit="10" d="M79.658 293.43l9.64-2.668"/><path fill="none" stroke="#ECECEC" stroke-width="4" stroke-linecap="round" stroke-linejoin="round" stroke-miterlimit="10" d="M78.765 311.456l7.374-2.04M88.294 315.756l21.23-5.873M92.5 307.416l3.717-1.028"/><path fill="none" stroke="#4C81B7" stroke-width="4" stroke-linecap="round" stroke-linejoin="round" stroke-miterlimit="10" d="M100.86 287.562l9.64-2.666M95.08 289.162"/><path fill="none" stroke="#ECECEC" stroke-width="8" stroke-linecap="round" stroke-linejoin="round" stroke-miterlimit="10" d="M81.71 278.336l19.274-5.333"/><path fill="none" stroke="#ECECEC" stroke-width="4" stroke-linecap="round" stroke-linejoin="round" stroke-miterlimit="10" d="M92.5 214.5h18M118.5 214.5h8M134.5 214.5h12M90.5 192.5h10.002M112.5 192.5h8.002M128.502 192.5h18M104.5 198.5h12.002"/><path fill="none" stroke="#ECECEC" stroke-width="8" stroke-linecap="round" stroke-linejoin="round" stroke-miterlimit="10" d="M110.5 206.5M98.5 240.5h.002"/><path fill="#4C81B7" d="M79.906 315.924c-2.234 1.308-2.348 4.994.435 5.76 2.94.81 5.17-3.058 3.02-5.208-.917-.917-2.412-1.128-3.538-.468-1.38.808-1.456 2.32-1.19 3.717.23 1.22-.105 1.604-.89 2.498-.77.878-1.685 1.612-2.823 1.866-3.147.703-1.813 5.523 1.328 4.82 2.365-.528 4.18-2.127 5.71-3.942.844-1.002 1.53-2.005 1.664-3.342.112-1.134-.142-2.167-.158-3.27-.114.42-.228.84-.34 1.26.04-.06.08-.124.12-.187-.5.382-.997.765-1.495 1.148l.295-.053-1.926-.252-.57-.52-.34-1.263c0 .1.003.196.005.295.114-.42.228-.842.34-1.262l.52-.43c.42-.115.84-.23 1.26-.343-.108.008-.218.016-.327.022l1.262.342.59.572c.115.42.23.84.342 1.262l-.77 1.294c2.778-1.628.263-5.95-2.526-4.318zM79.084 317.5c-.304.002-.607.008-.91 0-.287-.023-.248-.014.117.028-.564-.092.432.28-.054 0 .523.575.653.684.392.324-.33-.483-.077-.62-.003.373-.037-.496-.065-.997-.214-1.475-.404-1.3-1.727-2.116-3.074-1.746-1.28.353-2.152 1.775-1.746 3.076.206.658.006-.488.035.145.027.59.112 1.095.385 1.62.39.747.886 1.388 1.563 1.896 1 .75 2.316.767 3.512.76 1.363-.01 2.5-1.13 2.5-2.5 0-1.355-1.138-2.51-2.5-2.5zM78.668 320c-.75.025-1.56.183-2.188.24-.58.052-.148.06.11.168-.234-.144-.233-.128.003.047-.112-.1-.22-.2-.326-.307-.975-.95-2.563-.972-3.535 0-.955.954-.975 2.584 0 3.535.707.69 1.534 1.302 2.533 1.465 1.19.195 2.318-.11 3.403-.148 1.362-.047 2.5-1.102 2.5-2.5 0-1.327-1.137-2.547-2.5-2.5z"/><path fill="#656893" stroke="#231F20" stroke-width="4" stroke-linecap="round" stroke-linejoin="round" stroke-miterlimit="10" d="M86.5 162.5v-8M134.5 162.5v-8"/><path fill="none" stroke="#231F20" stroke-width="4" stroke-linecap="round" stroke-linejoin="round" stroke-miterlimit="10" d="M206.5 176.5v-6h8v6"/><path fill="#D7B68D" stroke="#231F20" stroke-width="4" stroke-linecap="round" stroke-linejoin="round" stroke-miterlimit="10" d="M228.5 184.5v22c0 2.21-1.79 4-4 4h-28c-2.21 0-4-1.79-4-4v-22h36zM228.5 184.5c0-3.313-8.06-8-18-8s-18 4.687-18 8h36z"/><path fill="none" stroke="#231F20" stroke-width="4" stroke-linecap="round" stroke-linejoin="round" stroke-miterlimit="10" d="M192.5 184.5h-6M234.5 184.5h-6"/><path fill="#ECECEC" stroke="#231F20" stroke-width="4" stroke-linecap="round" stroke-linejoin="round" stroke-miterlimit="10" d="M266.5 198.5h-16l-4-8h24zM266.5 204.5h-16l-4-8h24zM266.5 210.5h-16l-4-8h24z"/><path fill="#939A9F" stroke="#231F20" stroke-width="4" stroke-linecap="round" stroke-linejoin="round" stroke-miterlimit="10" d="M342.5 210.5l-4-20h36l-4 20z"/><path fill="#AB9473" stroke="#231F20" stroke-width="4" stroke-linecap="round" stroke-linejoin="round" stroke-miterlimit="10" d="M386.5 204.5h56v6h-56zM282.5 204.5h44v6h-44z"/><path fill="#966943" stroke="#231F20" stroke-width="4" stroke-linecap="round" stroke-linejoin="round" stroke-miterlimit="10" d="M454.5 186.5h40v24h-40z"/><path fill="none" stroke="#966943" stroke-width="4" stroke-linecap="round" stroke-linejoin="round" stroke-miterlimit="10" d="M394.5 192.5h16"/><path fill="none" stroke="#F7B019" stroke-width="4" stroke-linecap="round" stroke-linejoin="round" stroke-miterlimit="10" d="M397.7 196.5h9.6"/><path fill="none" stroke="#966943" stroke-width="4" stroke-linecap="round" stroke-linejoin="round" stroke-miterlimit="10" d="M394.5 200.5h16M418.5 192.5h16"/><path fill="none" stroke="#F7B019" stroke-width="4" stroke-linecap="round" stroke-linejoin="round" stroke-miterlimit="10" d="M421.7 196.5h9.6"/><path fill="none" stroke="#966943" stroke-width="4" stroke-linecap="round" stroke-linejoin="round" stroke-miterlimit="10" d="M418.5 200.5h16"/><path fill="#231F20" stroke="#231F20" stroke-width="4" stroke-linecap="round" stroke-linejoin="round" stroke-miterlimit="10" d="M42.5 344.5c0 2.21-1.79 4-4 4H.5c-2.21 0-4-1.79-4-4s1.79-4 4-4h38c2.21 0 4 1.79 4 4z"/></svg>