<?xml version="1.0" encoding="utf-8"?>
<!-- Generator: Adobe Illustrator 16.0.1, SVG Export Plug-In . SVG Version: 6.00 Build 0)  -->
<!DOCTYPE svg PUBLIC "-//W3C//DTD SVG 1.1//EN" "http://www.w3.org/Graphics/SVG/1.1/DTD/svg11.dtd">
<svg version="1.1" id="Layer_1" xmlns="http://www.w3.org/2000/svg" xmlns:xlink="http://www.w3.org/1999/xlink" x="0px" y="0px"
	 width="624px" height="400px" viewBox="0 0 624 400" enable-background="new 0 0 624 400" xml:space="preserve">
<path fill="#FFF6E3" stroke="#231F20" stroke-width="4" stroke-linecap="round" stroke-linejoin="round" stroke-miterlimit="10" d="
	M10,288.5v-218c0-5.904,6.096-12,12-12h392c51.914,0,96,27.55,96,64c0,4.428-3.59,8.018-8.018,8.018l75.938,85.142L614,254.5v20
	c0,5.902-4.787,12-10.69,12H434v8H10v-8.018"/>
<path fill="#24A4DE" stroke="#231F20" stroke-width="4" stroke-linecap="round" stroke-linejoin="round" stroke-miterlimit="10" d="
	M10,258.5c0,0,60,16,112-16h56c0,0-52,52-72,52H10V258.5z M10,222.5c0,0,20-4,40,8v-128l-12-28h48v-16H22c0,0-12,4-12,12V222.5z
	 M406,58.5c0,0-60,36-56,0H406z M318,58.5c0,0-24,16-28,16H126v-16H318z M254,242.5c0,3.312-7.164,10-16,10s-16-6.688-16-10
	 M374,242.5c0,3.312-7.164,10-16,10s-16-6.688-16-10"/>
<path fill="#24A4DE" d="M601.542,253l2.416,1.5c0.287,0.498,0.532,3.225,0.542,5.583c0.002,0.569-0.01,1.11-0.04,1.603l-0.637-1.106
	c0.132,0.479,0.328,1.075,0.498,1.653l0.094,0.058l-0.021,0.192c0.354,1.262,0.505,2.336-0.557,1.779
	c0.002,1.166,1.113,3.363,0.536,2.787l-0.188-0.189c-0.134-0.062-0.364-0.195-0.767-0.463c-18.36-12.207-43.438-10.225-59.613,5.953
	c-7.229,7.231-11.627,16.242-13.186,25.637l-29.622-1.391l-1.042-0.098h-2c0-1.162,0.04-2.316,0.103-3.469
	C484.87,278,465.53,268.5,443.957,268.5c-21.766,0-41.257,9.672-54.454,24.938c4.118,8.135,6.454,17.322,6.454,27.062h-3.428
	c-2.29-6.48-5.665-12.445-9.9-17.688c-4.75,7.721-8.1,16.398-9.657,25.688c-0.654-3.904-1.015-7.91-1.015-12
	c0-7.443,1.13-14.624,3.228-21.38c-10.517-9.103-24.224-14.62-39.228-14.62c-12.38,0-23.877,3.755-33.43,10.182
	c-9.429,6.183-12.61,11.373-12.61,11.373c-4.53,5.422-8.13,11.649-10.532,18.445h-3.428c0-8.7,1.867-16.96,5.198-24.424
	c-8.641-4.825-18.598-7.576-29.198-7.576c-25.502,0-47.273,15.918-55.958,38.354c0.875-32.373,27.374-58.354,59.958-58.354
	c13.314,0,25.612,4.344,35.564,11.684c10.978-12.091,26.82-19.684,44.436-19.684c18.08,0,34.278,8.008,45.278,20.657
	c12.354-21.878,35.806-36.657,62.722-36.657c23.906,0,45.08,11.66,58.174,29.593c3.074-7.94,7.783-15.229,13.985-21.434
	c11.71-11.712,27.28-18.16,43.84-18.16c12.42,0,24.374,3.627,34.515,10.38"/>
<path fill="#231F20" d="M372.973,330.5c-0.977,0-1.81-0.706-1.973-1.67c-0.69-4.12-1.042-8.27-1.042-12.33
	c0-7.04,0.986-13.997,2.935-20.7c-10.376-8.586-23.439-13.3-36.935-13.3c-11.57,0-22.744,3.402-32.312,9.84
	c-8.874,5.82-11.996,10.719-12.027,10.768c-0.05,0.078-0.107,0.16-0.166,0.229c-4.46,5.338-7.887,11.337-10.182,17.83
	c-0.282,0.8-1.038,1.333-1.887,1.333h-3.428c-1.104,0-2-0.896-2-2c0-8.141,1.56-16.046,4.64-23.529
	c-8.188-4.238-17.356-6.471-26.64-6.471c-23.77,0-45.508,14.9-54.093,37.075c-0.352,0.907-1.302,1.43-2.26,1.239
	c-0.953-0.191-1.63-1.043-1.604-2.016c0.438-16.203,7.077-31.365,18.69-42.695c11.64-11.354,27.005-17.604,43.268-17.604
	c12.735,0,24.902,3.81,35.303,11.035c11.66-12.12,27.851-19.035,44.698-19.035c17.021,0,33.24,7.003,44.933,19.306
	c13.433-21.847,37.347-35.306,63.068-35.306c22.365,0,43.666,10.271,57.66,27.64c3.172-7.029,7.562-13.373,13.085-18.895
	c12.087-12.09,28.16-18.746,45.254-18.746c12.778,0,25.097,3.705,35.623,10.716c2.297,1.53,9.42,7.7,10.42,9.284s-1.088,0.912,0,2
	c0.203,0.203-0.497-0.682,0,0v2c0.28,0.174-0.474-3.285-0.31-3c0.75,1.302-1.194,5.705-1.19,6.575
	c0.002,0.614-0.012,1.196-0.042,1.725c-0.008,0.122-0.025-0.76-0.054-0.644c0.004,0.041,0.007,1.08,0.008,1.121
	c-0.446-1.688-0.483,4.84,0.75,3.22c0.021,0.069-0.958,2.13-0.94,2.18c0.266,0.804,2.759,0.298,1.351,1.165
	c-0.63,0.391-1.688,0.53-2.596-0.361c-0.187-0.107-0.402-0.244-0.664-0.42c-17.884-11.889-41.895-9.49-57.091,5.703
	c-6.708,6.711-11.073,15.2-12.626,24.551c-0.18,1.09-1.22,1.83-2.3,1.646c-1.09-0.181-1.827-1.21-1.646-2.3
	c1.688-10.18,6.439-19.42,13.744-26.725c15.861-15.863,40.558-18.91,59.729-7.705c0.08-0.137,0.18-0.264,0.294-0.379l-0.017-0.054
	c-0.068-0.237-0.144-0.478-0.216-0.71c-0.106-0.35-0.21-0.686-0.291-0.98c-0.205-0.744,0.039-1.52,0.588-2.013
	c-0.04-1.385-0.15-2.622-0.258-3.315l-1.736-1.08c-0.255-0.156-0.471-0.369-0.632-0.623c-0.181-0.258,0.38,2.713,0.145,2.425
	c-1.343-1.351,0.99-1.317,1.146-2.25c0.292-1.75-6.165-6.626-7.783-7.704c-9.867-6.572-21.42-10.046-33.405-10.046
	c-16.026,0-31.094,6.239-42.426,17.574c-5.96,5.96-10.513,12.938-13.533,20.739c-0.265,0.685-0.88,1.168-1.604,1.264
	c-0.727,0.093-1.443-0.215-1.876-0.805c-13.155-18.017-34.3-28.771-56.56-28.771c-25.198,0-48.564,13.657-60.98,35.643
	c-0.317,0.564-0.893,0.939-1.539,1.006c-0.65,0.068-1.283-0.189-1.711-0.68c-11.034-12.689-26.989-19.97-43.77-19.97
	c-16.318,0-31.975,6.937-42.953,19.028c-0.689,0.758-1.842,0.873-2.667,0.265c-10.02-7.388-21.907-11.292-34.38-11.292
	c-27.795,0-50.818,19.117-56.587,45.202c11.196-17.83,31.117-29.2,52.588-29.2c10.567,0,21,2.707,30.174,7.83
	c0.903,0.504,1.272,1.615,0.851,2.561c-3.061,6.857-4.735,14.114-4.99,21.6c2.428-6.391,5.892-12.311,10.312-17.622
	c0.604-0.918,4.178-5.99,13.13-11.86c10.211-6.869,22.156-10.508,34.525-10.508c14.885,0,29.28,5.366,40.535,15.109
	c0.602,0.521,0.837,1.346,0.602,2.104c-2.082,6.707-3.138,13.698-3.138,20.783c1.757-5.123,4.086-10.051,6.968-14.73
	c0.34-0.554,0.929-0.906,1.575-0.949c0.66-0.041,1.276,0.235,1.685,0.74c4.145,5.127,7.415,10.819,9.739,16.937
	c-0.285-8.458-2.37-16.574-6.206-24.152c-0.364-0.724-0.26-1.598,0.272-2.21c14.08-16.29,34.479-25.63,55.967-25.63
	c21.277,0,41.545,9.188,55.604,25.212c0.346,0.395,0.521,0.905,0.493,1.428c-0.024,0.473-0.046,0.924-0.062,1.358
	c0.05,0.002,0.098,0.005,0.146,0.01l1.042,0.097c1.101,0.103,1.908,1.076,1.808,2.176s-1.07,1.916-2.173,1.808l-0.95-0.087h-1.91
	c-1.104-0.002-2-0.896-2-2c0-0.863,0.022-1.77,0.065-2.75c-13.276-14.787-32.205-23.25-52.064-23.25
	c-19.884,0-38.785,8.46-52.068,23.255c4.027,8.394,6.068,17.386,6.068,26.745c0,1.104-0.896,2-2,2h-3.428
	c-0.849,0-1.604-0.534-1.886-1.333c-1.868-5.284-4.484-10.245-7.793-14.782c-3.924,7.006-6.58,14.543-7.905,22.446
	c-0.162,0.96-0.996,1.666-1.973,1.666L372.973,330.5z"/>
<path fill="#24A4DE" stroke="#231F20" stroke-width="4" stroke-linecap="round" stroke-linejoin="round" stroke-miterlimit="10" d="
	M374.702,242.859c11.06-20.737,36.95-35.287,67.124-35.287c7.875,0,15.45,1.004,22.553,2.836
	c-13.268-11.027-31.963-17.908-52.697-17.908c-36.52,0-66.766,21.314-72.035,49.113"/>
<path fill="#24A4DE" d="M426.31,112.797c29.816-13.203,61.467-16.14,79.69-9.363C486,74.5,470,70.5,470,70.5c-24-8-92,40-92,40
	v36.407C388.872,134.22,405.743,121.904,426.31,112.797z"/>
<path fill="#231F20" d="M378,148.907c-0.232,0-0.467-0.04-0.693-0.124c-0.784-0.29-1.307-1.04-1.307-1.876V110.5
	c0-0.65,0.315-1.26,0.847-1.634c2.388-1.686,58.783-41.266,86.886-41.266c2.558,0,4.856,2.33,6.838,2.98
	c1.441,0.39,15.822,3.64,35.43,31.92c0.32,0.353,0.02,0.417,0.02,0.933c0,1.104,1.107,2,0.005,2c-0.28-0.008-0.485-0.04-0.721-0.125
	c-5.977-2.224-13.71-3.398-22.364-3.398c-17.48,0-37.303,4.516-55.818,12.716c-19.562,8.66-36.467,20.588-47.602,33.583
	C379.129,148.659,378.572,148.906,378,148.907L378,148.907z M380,111.545v30.18c11.403-11.914,27.356-22.722,45.5-30.757
	c19.016-8.42,39.414-13.058,57.438-13.058c6.69,0,12.721,0.642,18.008,1.91c-17.71-23.71-31.286-27.344-31.431-27.38
	c-0.05-0.013-0.1-0.027-0.146-0.043c-1.586-0.528-3.482-0.797-5.636-0.797C438.688,71.6,387.229,106.548,380,111.545L380,111.545z"
	/>
<path fill="#24A4DE" d="M512.55,145.372c-6.81-0.43-14.756,2.062-21.694,7.403c-12.254,9.433-16.727,24.174-9.989,32.928
	c1.275,1.656,2.861,2.978,4.68,3.97c-2.124-8.604,2.695-19.74,12.63-27.388c7.58-5.835,16.36-8.27,23.552-7.208"/>
<path fill="#231F20" d="M516.378,148.025c-1.642-0.462-3.438-0.7-5.352-0.7c-6.234,0-13.143,2.563-18.95,7.035
	c-11.36,8.744-15.68,22.258-9.625,30.123c0.189,0.246,0.39,0.484,0.596,0.715c0.098-8.508,5.266-17.845,13.91-24.498
	c6.59-5.072,14.185-7.865,21.387-7.865c0.92,0,1.825,0.048,2.712,0.144l2.854,4.62c-1.71-0.504-3.59-0.765-5.564-0.765
	c-6.232,0-13.14,2.564-18.948,7.035c-8.983,6.915-13.882,17.33-11.909,25.324c0.189,0.77-0.093,1.58-0.721,2.064
	c-0.356,0.274-0.788,0.415-1.22,0.415c-0.33,0-0.66-0.08-0.96-0.245c-2.102-1.15-3.886-2.665-5.304-4.505
	c-7.398-9.614-2.754-25.644,10.354-35.733c6.59-5.072,14.188-7.865,21.391-7.865L516.378,148.025L516.378,148.025z"/>
<path fill="none" stroke="#231F20" stroke-width="4" stroke-linecap="round" stroke-linejoin="round" stroke-miterlimit="10" d="
	M10,288.5v-218c0-5.904,6.096-12,12-12h392c51.914,0,96,27.55,96,64c0,4.428-3.59,8.018-8.018,8.018l75.938,85.142L614,254.5v20
	c0,5.902-4.787,12-10.69,12H434v8H10v-8.018"/>
<path fill="#3A3A3A" stroke="#231F20" stroke-width="4" stroke-linecap="round" stroke-linejoin="round" stroke-miterlimit="10" d="
	M78,294.5h116v36H78V294.5z M438,294.5h116v36H438V294.5z"/>
<path fill="#C1BFB5" stroke="#231F20" stroke-width="4" stroke-linecap="round" stroke-linejoin="round" stroke-miterlimit="10" d="
	M50,102.075L38,82.5h352l-12,19.575H50z"/>
<path fill="#FFF6E3" stroke="#231F20" stroke-width="4" stroke-linecap="round" stroke-linejoin="round" stroke-miterlimit="10" d="
	M38,74.5h352v8H38V74.5z"/>
<path fill="#FFF6E3" stroke="#231F20" stroke-width="4" stroke-miterlimit="10" d="M50,102.5h328v92H50V102.5z"/>
<path fill="#C1BFB5" stroke="#231F20" stroke-width="4" stroke-linecap="round" stroke-linejoin="round" stroke-miterlimit="10" d="
	M50,210.5h328v32H50V210.5z"/>
<path fill="none" stroke="#231F20" stroke-width="4" stroke-linecap="round" stroke-linejoin="round" stroke-miterlimit="10" d="
	M38,242.5h352"/>
<g class="wheel">
	<circle fill="#5E6363" stroke="#231F20" stroke-width="4" stroke-miterlimit="10" cx="134" cy="354.5" r="44"/>
	<circle fill="#FFF6E3" stroke="#231F20" stroke-width="4" stroke-miterlimit="10" cx="134" cy="354.5" r="20"/>
	<circle fill="#1EA5DE" cx="134" cy="354.5" r="12"/>
	<circle fill="none" stroke="#231F20" stroke-width="2" stroke-miterlimit="10" cx="134" cy="348.5" r="2"/>
	<circle fill="none" stroke="#231F20" stroke-width="2" stroke-miterlimit="10" cx="128" cy="354.5" r="2"/>
	<circle fill="none" stroke="#231F20" stroke-width="2" stroke-miterlimit="10" cx="134" cy="360.5" r="2"/>
	<circle fill="none" stroke="#231F20" stroke-width="2" stroke-miterlimit="10" cx="140" cy="354.5" r="2"/>
</g>
<g class="wheel">
	<circle fill="#5E6363" stroke="#231F20" stroke-width="4" stroke-miterlimit="10" cx="498" cy="354.5" r="44"/>
	<circle fill="#FFF6E3" stroke="#231F20" stroke-width="4" stroke-miterlimit="10" cx="498" cy="354.5" r="20"/>
	<circle fill="#1EA5DE" cx="498" cy="354.5" r="12"/>
	<circle fill="none" stroke="#231F20" stroke-width="2" stroke-miterlimit="10" cx="498" cy="348.5" r="2"/>
	<circle fill="none" stroke="#231F20" stroke-width="2" stroke-miterlimit="10" cx="492" cy="354.5" r="2"/>
	<circle fill="none" stroke="#231F20" stroke-width="2" stroke-miterlimit="10" cx="498" cy="360.5" r="2"/>
	<circle fill="none" stroke="#231F20" stroke-width="2" stroke-miterlimit="10" cx="504" cy="354.5" r="2"/>
</g>
<path fill="#444646" stroke="#231F20" stroke-width="4" stroke-linecap="round" stroke-linejoin="round" stroke-miterlimit="10" d="
	M58,194.5v-84h312v84"/>
<path fill="#BE202E" stroke="#231F20" stroke-width="4" stroke-linecap="round" stroke-linejoin="round" stroke-miterlimit="10" d="
	M2,266.5h8v28H2V266.5z"/>
<path fill="#FFF6E3" stroke="#231F20" stroke-width="4" stroke-linecap="round" stroke-linejoin="round" stroke-miterlimit="10" d="
	M42,194.5h344v16H42V194.5z"/>
<path fill="#FFF6E3" stroke="#231F20" stroke-width="4" stroke-miterlimit="10" d="M82,170.5"/>
<path fill="#2B2E31" stroke="#231F20" stroke-width="4" stroke-linecap="round" stroke-linejoin="round" stroke-miterlimit="10" d="
	M418,334.5h-84l-151.987-0.003C174.176,315.707,155.63,302.5,134,302.5s-40.163,13.208-48,32H70v-20H26v-20h408v-8h180v48l-68-0.003
	c-7.838-18.79-26.383-31.997-48.014-31.997s-40.163,13.208-48,32H418z M482,130.5h20"/>
<path fill="#C1BFB5" stroke="#231F20" stroke-width="4" stroke-linecap="round" stroke-linejoin="round" stroke-miterlimit="10" d="
	M54,210.5"/>
<g>
	<g>
		
			<path fill="#454646" stroke="#231F20" stroke-width="4" stroke-linecap="round" stroke-linejoin="round" stroke-miterlimit="10" d="
			M578,206.5c0,4.418-3.582,8-8,8h-4v-44h4c4.418,0,8,3.582,8,8V206.5z M566,214.5c0,4.418-3.582,8-8,8"/>
		
			<circle fill="#454646" stroke="#231F20" stroke-width="4" stroke-linecap="round" stroke-linejoin="round" stroke-miterlimit="10" cx="558" cy="222.5" r="4"/>
	</g>
	
		<path fill="#5EC8D8" stroke="#231F20" stroke-width="4" stroke-linecap="round" stroke-linejoin="round" stroke-miterlimit="10" d="
		M558,170.5h8v44h-8V170.5z"/>
</g>
<path opacity="0.2" fill="#FFFFFF" enable-background="new    " d="M558,190.5l8,8v-16l-8-8V190.5z M558,198.5l8,8v-4l-8-8V198.5z"
	/>
<path fill="none" stroke="#231F20" stroke-width="4" stroke-linecap="round" stroke-linejoin="round" stroke-miterlimit="10" d="
	M558,170.5h8v44h-8V170.5z"/>
<path fill="#454646" stroke="#231F20" stroke-width="4" stroke-linecap="round" stroke-linejoin="round" stroke-miterlimit="10" d="
	M622,290.5c0,4.418-3.582,8-8,8h-44c-4.418,0-8-3.582-8-8v-8c0-4.418,3.582-8,8-8h44c4.418,0,8,3.582,8,8V290.5z"/>
<path fill="#E5E6E5" stroke="#231F20" stroke-width="4" stroke-linecap="round" stroke-linejoin="round" stroke-miterlimit="10" d="
	M582,254.5h32v20h-32V254.5z"/>
<path fill="#F79520" stroke="#231F20" stroke-width="4" stroke-linecap="round" stroke-linejoin="round" stroke-miterlimit="10" d="
	M570,254.5h12v20h-12V254.5z M70,279.5h12v7H70V279.5z"/>
<path fill="#4CABC2" stroke="#000000" stroke-width="4" stroke-miterlimit="10" d="M450,146.5v68c0,2.21,1.79,4,4,4h42l6,8h40
	c2.21,0,4-1.79,4-4v-24l-52-56h-40C451.79,142.5,450,144.29,450,146.5z"/>
<path fill="#4CABC2" stroke="#000000" stroke-width="4" stroke-linecap="round" stroke-linejoin="round" stroke-miterlimit="10" d="
	M450,146.5v68c0,2.21,1.79,4,4,4h40l8,8h40c2.21,0,4-1.79,4-4v-24l-52-56h-40C451.79,142.5,450,144.29,450,146.5z"/>
<path fill="#4CABC2" stroke="#000000" stroke-width="4" stroke-miterlimit="10" d="M494,142.5"/>
<path opacity="0.2" fill="#FFFFFF" enable-background="new    " d="M502,142.5l-52,56v-18l36-38H502z M553,203.5l-32,40l-24-18
	l36-42L553,203.5z M502,150.5l-52,58v-4l50-56L502,150.5z M519,167.5l-52,58v-4l50-56L519,167.5z M531,180.667L493,225.5h-4
	l40-46.833L531,180.667z"/>
<path opacity="0.8" fill="#FFFFFF" enable-background="new    " d="M614,254.5l-16,20h-16l16-20H614z"/>
<path opacity="0.2" fill="#FFFFFF" enable-background="new    " d="M594,254.5l-16,20h-8l16-20H594z"/>
<path fill="none" stroke="#231F20" stroke-width="4" stroke-miterlimit="10" d="M494,142.5v76"/>
<path fill="none" stroke="#231F20" stroke-width="4" stroke-linecap="round" stroke-linejoin="round" stroke-miterlimit="10" d="
	M582,254.5h32v20h-32V254.5z M570,254.5h12v20h-12V254.5z M450,146.5v68c0,2.21,1.79,4,4,4h40l8,8h40c2.21,0,4-1.79,4-4v-24l-52-56
	h-40C451.79,142.5,450,144.29,450,146.5z"/>
<path fill="#2B2E31" stroke="#231F20" stroke-width="4" stroke-linecap="round" stroke-linejoin="round" stroke-miterlimit="10" d="
	M386,110.5h24v76h-24V110.5z"/>
<path opacity="0.8" fill="none" stroke="#FCEE22" stroke-width="2" stroke-linecap="round" stroke-linejoin="round" stroke-miterlimit="10" enable-background="new    " d="
	M391,115.5h14"/>
<path opacity="0.8" fill="none" stroke="#FFFFFF" stroke-width="2" stroke-linecap="round" stroke-linejoin="round" stroke-miterlimit="10" enable-background="new    " d="
	M391,119.5h10 M391,123.5h10 M391,127.5h14 M391,131.5h10 M391,135.5h14 M391,139.5h10 M391,143.5h10 M391,147.5h14 M391,151.5h10"
	/>
<path opacity="0.8" fill="none" stroke="#01A64F" stroke-width="2" stroke-linecap="round" stroke-linejoin="round" stroke-miterlimit="10" enable-background="new    " d="
	M391,177.5h14"/>
<path opacity="0.8" fill="none" stroke="#FCEE22" stroke-width="2" stroke-linecap="round" stroke-linejoin="round" stroke-miterlimit="10" enable-background="new    " d="
	M391,181.5h10"/>
<path fill="#2B2E31" stroke="#231F20" stroke-width="4" stroke-linecap="round" stroke-linejoin="round" stroke-miterlimit="10" d="
	M18,110.5h24v76H18V110.5z"/>
<path opacity="0.8" fill="none" stroke="#FCEE22" stroke-width="2" stroke-linecap="round" stroke-linejoin="round" stroke-miterlimit="10" enable-background="new    " d="
	M23,115.5h14 M23,167.667h14"/>
<path opacity="0.8" fill="none" stroke="#FFFFFF" stroke-width="2" stroke-linecap="round" stroke-linejoin="round" stroke-miterlimit="10" enable-background="new    " d="
	M23,119.5h10 M23,123.5h10 M23,127.5h14 M23,131.5h10 M23,135.5h14 M23,139.5h10 M23,143.5h10 M23,147.5h14 M23,151.5h10"/>
<path opacity="0.8" fill="none" stroke="#EC2127" stroke-width="2" stroke-linecap="round" stroke-linejoin="round" stroke-miterlimit="10" enable-background="new    " d="
	M23,159.5h14 M23,163.5h10 M391,155.5h14 M391,159.5h10"/>
<path fill="none" stroke="#231F20" stroke-width="4" stroke-linecap="round" stroke-linejoin="round" stroke-miterlimit="10" d="
	M78,174.5h40"/>
<path fill="#662F90" stroke="#231F20" stroke-width="4" stroke-linecap="round" stroke-linejoin="round" stroke-miterlimit="10" d="
	M82,174.5l4,16h24l4-16H82z"/>
<path fill="none" stroke="#231F20" stroke-width="4" stroke-linecap="round" stroke-linejoin="round" stroke-miterlimit="10" d="
	M126,174.5h40"/>
<path fill="#BE202E" stroke="#231F20" stroke-width="4" stroke-linecap="round" stroke-linejoin="round" stroke-miterlimit="10" d="
	M130,174.5l4,16h24l4-16H130z"/>
<path fill="none" stroke="#231F20" stroke-width="4" stroke-linecap="round" stroke-linejoin="round" stroke-miterlimit="10" d="
	M174,174.5h40"/>
<path fill="#E7EB8F" stroke="#231F20" stroke-width="4" stroke-linecap="round" stroke-linejoin="round" stroke-miterlimit="10" d="
	M178,174.5l4,16h24l4-16H178z"/>
<path fill="#603A17" stroke="#3B2416" stroke-width="4" stroke-linecap="round" stroke-linejoin="round" stroke-miterlimit="10" d="
	M322,174.5l4,16h12l4-16H322z"/>
<circle fill="#016938" stroke="#01A64F" stroke-width="4" stroke-linecap="round" stroke-linejoin="round" stroke-miterlimit="10" cx="332" cy="156.5" r="14"/>
</svg>
