<svg xmlns="http://www.w3.org/2000/svg" width="404" height="400" viewBox="-23.5 0.5 404 400" enable-background="new -23.5 0.5 404 400"><path fill="#444646" stroke="#231F20" stroke-width="4" stroke-linecap="round" stroke-linejoin="round" stroke-miterlimit="10" d="M350.5 106.5h-4c-52-8-168-60-168-72 0 12-116 64-168 72h-4c-2.21 0-4 1.79-4 4v40h352v-40c0-2.21-1.79-4-4-4z"/><path fill="#2B2E31" stroke="#231F20" stroke-width="4" stroke-linecap="round" stroke-linejoin="round" stroke-miterlimit="10" d="M354.5 146.5c0 2.21-1.79 4-4 4H6.5c-2.21 0-4-1.79-4-4v-36c0-2.21 1.79-4 4-4h344c2.21 0 4 1.79 4 4v36z"/><path fill="#C1BEB4" stroke="#231F20" stroke-width="4" stroke-linecap="round" stroke-linejoin="round" stroke-miterlimit="10" d="M2.5 150.5h12v232h-12zM44.5 330.5h12v52h-12zM232.5 330.5h12v52h-12zM342.5 150.5h12v232h-12z"/><path fill="#454545" stroke="#231F20" stroke-width="4" stroke-linecap="round" stroke-linejoin="round" stroke-miterlimit="10" d="M350.5 106.5h-4c-52-8-168-60-168-72 0 12-116 64-168 72h-4c-2.21 0-4 1.79-4 4v40h352v-40c0-2.21-1.79-4-4-4z"/><path fill="#333" stroke="#231F20" stroke-width="4" stroke-linecap="round" stroke-linejoin="round" stroke-miterlimit="10" d="M354.5 146.5c0 2.21-1.79 4-4 4H6.5c-2.21 0-4-1.79-4-4v-36c0-2.21 1.79-4 4-4h344c2.21 0 4 1.79 4 4v36z"/><path fill="none" stroke="#231F20" stroke-width="4" stroke-linecap="round" stroke-linejoin="round" stroke-miterlimit="10" d="M350.5 106.5h-4c-52-8-168-60-168-72 0 12-116 64-168 72h-4c-2.21 0-4 1.79-4 4v40h352v-40c0-2.21-1.79-4-4-4zM354.5 146.5c0 2.21-1.79 4-4 4H6.5c-2.21 0-4-1.79-4-4v-36c0-2.21 1.79-4 4-4h344c2.21 0 4 1.79 4 4v36z"/><path fill="#ECECEC" stroke="#231F20" stroke-width="4" stroke-miterlimit="10" d="M244.5 354.5v-75.637c0-2.41-1.79-4.363-4-4.363h-192c-2.21 0-4 1.954-4 4.363V354.5h200z"/><path fill="#ECECEC" stroke="#231F20" stroke-width="4" stroke-linecap="round" stroke-linejoin="round" stroke-miterlimit="10" d="M173.5 294.5c8.284 0 13 4.716 13 13s-4.716 13-13 13h-13l-6 4-6-4h-22s-4-2-4-8v-18h50"/><path fill="#ECECEC" stroke="#231F20" stroke-width="4" stroke-linecap="round" stroke-linejoin="round" stroke-miterlimit="10" d="M122.5 290.5s0-2-4-2h-4s-4 4-8 6c0 0-4 0-4 4s4 4 4 4 13 1 16-2v-10zM114.5 288.5v-6M120.5 288.5v-6M130.5 320.5v10l-3 3M140.5 320.5v4l-3 3M169.5 320.5v4l-3 3M177.5 320.5v10l-3 3"/><path fill="#966943" stroke="#231F20" stroke-width="4" stroke-linecap="round" stroke-linejoin="round" stroke-miterlimit="10" d="M282.994 247.954l-9.28-9.653 5.8-5.8 10.367 10.513"/><path fill="#016938" stroke="#231F20" stroke-width="4" stroke-linecap="round" stroke-linejoin="round" stroke-miterlimit="10" d="M264.5 288.5h60l-10 60h-40zM324.006 288.968c11.324-11.326 11.326-29.69 0-41.014-11.324-11.325-29.688-11.324-41.012 0l41.012 41.014z"/><path fill="#C1BEB4" stroke="#231F20" stroke-width="4" stroke-linecap="round" stroke-linejoin="round" stroke-miterlimit="10" d="M280.5 348.5l-10 26h10l10-26zM308.5 348.5l10 26h-10l-10-26z"/><circle fill="#333" stroke="#231F20" stroke-width="4" stroke-linecap="round" stroke-linejoin="round" stroke-miterlimit="10" cx="276.5" cy="374.5" r="8"/><circle fill="#333" stroke="#231F20" stroke-width="4" stroke-linecap="round" stroke-linejoin="round" stroke-miterlimit="10" cx="312.5" cy="374.5" r="8"/><g fill="none" stroke="#231F20" stroke-width="8" stroke-linecap="round" stroke-linejoin="round" stroke-miterlimit="10"><path d="M102.5 342.5h14M128.5 342.5h56"/></g><path fill="#fff" stroke="#231F20" stroke-width="4" stroke-linecap="round" stroke-linejoin="round" stroke-miterlimit="10" d="M-21.5 194.5h58v80h-58zM318.5 182.5h60v82h-60z"/><path fill="none" stroke="#231F20" stroke-width="4" stroke-linecap="round" stroke-linejoin="round" stroke-miterlimit="10" d="M-13.5 202.5h8M-9.5 210.5h8M6.5 222.5M6.5 210.5h10M10.5 202.5h18"/><path fill="none" stroke="#CE3746" stroke-width="4" stroke-linecap="round" stroke-linejoin="round" stroke-miterlimit="10" d="M2.5 202.5h12M24.5 210.5"/><path fill="none" stroke="#231F20" stroke-width="4" stroke-linecap="round" stroke-linejoin="round" stroke-miterlimit="10" d="M-9.5 216.5h8M6.5 216.5h10"/><path fill="none" stroke="#CE3746" stroke-width="4" stroke-linecap="round" stroke-linejoin="round" stroke-miterlimit="10" d="M24.5 216.5"/><path fill="none" stroke="#231F20" stroke-width="4" stroke-linecap="round" stroke-linejoin="round" stroke-miterlimit="10" d="M-9.5 228.5h8M6.5 228.5h10M-9.5 244.5h12M-9.5 260.5h12M10.5 260.5h12M-9.5 266.5h12"/><path fill="none" stroke="#CE3746" stroke-width="4" stroke-linecap="round" stroke-linejoin="round" stroke-miterlimit="10" d="M-9.5 252.5h12"/><path fill="none" stroke="#231F20" stroke-width="4" stroke-linecap="round" stroke-linejoin="round" stroke-miterlimit="10" d="M10.5 244.5h12"/><path fill="none" stroke="#CE3746" stroke-width="4" stroke-linecap="round" stroke-linejoin="round" stroke-miterlimit="10" d="M-9.5 236.5h6"/><path fill="none" stroke="#231F20" stroke-width="4" stroke-linecap="round" stroke-linejoin="round" stroke-miterlimit="10" d="M4.5 236.5h6M18.5 236.5h6"/><path fill="none" stroke="#CE3746" stroke-width="4" stroke-linecap="round" stroke-linejoin="round" stroke-miterlimit="10" d="M24.5 228.5M10.5 266.5"/><path fill="none" stroke="#231F20" stroke-width="4" stroke-linecap="round" stroke-linejoin="round" stroke-miterlimit="10" d="M346.5 192.5h16M326.5 236.5h10M344.5 236.5h10M362.5 236.5h8M326.5 242.5h6M340.5 242.5h2M350.5 242.5h2M360.5 242.5h10"/><path fill="none" stroke="#CE3746" stroke-width="4" stroke-linecap="round" stroke-linejoin="round" stroke-miterlimit="10" d="M334.5 192.5h4"/><path fill="none" stroke="#231F20" stroke-width="4" stroke-linecap="round" stroke-linejoin="round" stroke-miterlimit="10" d="M344.5 228.5h-10"/><path fill="none" stroke="#CE3746" stroke-width="4" stroke-linecap="round" stroke-linejoin="round" stroke-miterlimit="10" d="M362.498 228.5h-10"/><g fill="#ECECEC" stroke="#231F20" stroke-width="4" stroke-linecap="round" stroke-linejoin="round" stroke-miterlimit="10"><path d="M356.5 208.34s0-2-4-2h-4s-4 4-8 6c0 0-4 0-4 4s4 4 4 4 13 1 16-2v-10zM348.5 206.34v-6M354.5 206.34v-6"/></g><path fill="#CE3746" stroke="#231F20" stroke-width="4" stroke-linecap="round" stroke-linejoin="round" stroke-miterlimit="10" d="M224.5 246.5v20c0 2.21-1.79 4-4 4s-4-1.79-4-4v-20h8zM220.5 246.5v-4"/><path fill="#6A1501" stroke="#231F20" stroke-width="4" stroke-linecap="round" stroke-linejoin="round" stroke-miterlimit="10" d="M208.5 246.5v20c0 2.21-1.79 4-4 4s-4-1.79-4-4v-20h8zM204.5 246.5v-4"/><path fill="#ECECEC" stroke="#231F20" stroke-width="4" stroke-linecap="round" stroke-linejoin="round" stroke-miterlimit="10" d="M58.5 270.5l-4-8h26l-4 8zM75.115 254.5l3.385 8h-22l3.385-8zM92.5 270.5l-4-8h26l-4 8zM109.115 254.5l3.385 8h-22l3.385-8z"/><path fill="#966943" stroke="#231F20" stroke-width="4" stroke-linecap="round" stroke-linejoin="round" stroke-miterlimit="10" d="M126.5 262.5h60v8h-60z"/><path fill="none" stroke="#231F20" stroke-width="4" stroke-linecap="round" stroke-linejoin="round" stroke-miterlimit="10" d="M168.5 248.5"/></svg>