<svg xmlns="http://www.w3.org/2000/svg" width="624" height="400" viewBox="60.5 0.5 624 400" enable-background="new 60.5 0.5 624 400"><path fill="#FFF6E3" stroke="#231F20" stroke-width="4" stroke-linecap="round" stroke-linejoin="round" stroke-miterlimit="10" d="M70.5 288.5v-218c0-5.904 6.096-12 12-12h392c51.914 0 96 27.55 96 64 0 4.428-3.59 8.018-8.018 8.018l75.938 85.142 36.08 38.84v20c0 5.903-4.787 12-10.69 12H494.5v8h-424v-8.018"/><path fill="#24A4DE" stroke="#231F20" stroke-width="4" stroke-linecap="round" stroke-linejoin="round" stroke-miterlimit="10" d="M70.5 258.5s60 16 112-16h56s-52 52-72 52h-96v-36zM70.5 222.5s20-4 40 8v-128l-12-28h48v-16h-64s-12 4-12 12v152zM466.5 58.5s-60 36-56 0h56zM378.5 58.5s-24 16-28 16h-164v-16h192zM314.5 242.5c0 3.313-7.164 10-16 10s-16-6.687-16-10M434.5 242.5c0 3.313-7.164 10-16 10s-16-6.687-16-10"/><path fill="#24A4DE" d="M662.042 253l2.416 1.5c.287.498.532 3.225.542 5.583.002.57-.01 1.11-.04 1.602l-.637-1.106c.132.48.328 1.075.498 1.654l.094.057-.02.192c.353 1.262.504 2.337-.557 1.78.002 1.166 1.113 3.363.536 2.787l-.187-.19c-.134-.062-.365-.195-.767-.463-18.36-12.206-43.437-10.224-59.613 5.953-7.23 7.232-11.627 16.243-13.186 25.637l-29.622-1.39-1.042-.098h-2c0-1.162.04-2.317.103-3.468C545.37 278 526.03 268.5 504.457 268.5c-21.766 0-41.257 9.672-54.454 24.938 4.118 8.134 6.454 17.322 6.454 27.062h-3.428c-2.29-6.48-5.665-12.445-9.9-17.687-4.75 7.72-8.1 16.398-9.657 25.687-.655-3.904-1.015-7.91-1.015-12 0-7.444 1.13-14.624 3.228-21.38-10.517-9.103-24.224-14.62-39.228-14.62-12.38 0-23.877 3.755-33.43 10.182-9.428 6.182-12.61 11.372-12.61 11.372-4.53 5.422-8.13 11.65-10.532 18.446h-3.428c0-8.7 1.867-16.96 5.198-24.424-8.64-4.825-18.597-7.576-29.198-7.576-25.502 0-47.273 15.918-55.958 38.354.875-32.373 27.374-58.354 59.958-58.354 13.315 0 25.612 4.344 35.565 11.683 10.977-12.09 26.82-19.683 44.435-19.683 18.08 0 34.278 8.008 45.278 20.657 12.354-21.877 35.806-36.657 62.722-36.657 23.906 0 45.08 11.66 58.174 29.593 3.074-7.94 7.783-15.23 13.985-21.434 11.71-11.712 27.28-18.16 43.84-18.16 12.42 0 24.374 3.627 34.515 10.38"/><path fill="#231F20" d="M433.473 330.5c-.977 0-1.81-.706-1.973-1.67-.69-4.12-1.042-8.27-1.042-12.33 0-7.04.986-13.997 2.935-20.7-10.376-8.586-23.44-13.3-36.935-13.3-11.57 0-22.744 3.403-32.312 9.84-8.874 5.82-11.996 10.718-12.027 10.767-.05.078-.107.16-.166.23-4.46 5.338-7.887 11.337-10.182 17.83-.282.8-1.038 1.333-1.886 1.333h-3.428c-1.104 0-2-.896-2-2 0-8.14 1.56-16.046 4.64-23.53-8.188-4.237-17.357-6.47-26.64-6.47-23.77 0-45.508 14.9-54.093 37.075-.352.908-1.302 1.43-2.26 1.24-.953-.192-1.63-1.043-1.604-2.016.438-16.203 7.077-31.366 18.69-42.695 11.64-11.354 27.005-17.605 43.268-17.605 12.735 0 24.902 3.81 35.303 11.035 11.66-12.12 27.85-19.035 44.698-19.035 17.02 0 33.24 7.003 44.933 19.305 13.432-21.846 37.346-35.305 63.068-35.305 22.365 0 43.666 10.27 57.66 27.64 3.172-7.03 7.563-13.373 13.085-18.895 12.087-12.09 28.16-18.746 45.254-18.746 12.778 0 25.097 3.705 35.623 10.716 2.297 1.53 9.42 7.7 10.42 9.284s-1.088.912 0 2c.203.203-.497-.682 0 0v2c.28.174-.474-3.285-.31-3 .75 1.302-1.194 5.705-1.19 6.575.002.615-.012 1.197-.042 1.725-.008.122-.025-.76-.054-.643.004.04.007 1.08.008 1.12-.446-1.687-.483 4.84.75 3.22.022.07-.958 2.13-.94 2.18.265.803 2.758.297 1.35 1.165-.63.39-1.688.53-2.595-.362-.187-.107-.403-.244-.665-.42-17.883-11.888-41.894-9.49-57.09 5.704-6.708 6.71-11.074 15.2-12.626 24.55-.18 1.09-1.22 1.83-2.3 1.646-1.09-.18-1.827-1.21-1.646-2.3 1.688-10.18 6.44-19.42 13.744-26.724 15.862-15.864 40.558-18.91 59.73-7.705.08-.137.18-.264.294-.38l-.017-.053c-.068-.237-.143-.477-.215-.71-.107-.35-.21-.685-.292-.98-.205-.745.04-1.52.588-2.013-.04-1.385-.15-2.622-.257-3.315l-1.737-1.08c-.255-.157-.47-.37-.632-.624-.18-.258.38 2.713.145 2.425-1.343-1.35.99-1.318 1.145-2.25.292-1.75-6.165-6.626-7.783-7.704-9.867-6.572-21.42-10.046-33.405-10.046-16.026 0-31.094 6.24-42.426 17.574-5.96 5.96-10.512 12.938-13.533 20.74-.265.684-.88 1.167-1.604 1.263-.727.093-1.444-.214-1.876-.804-13.156-18.017-34.3-28.772-56.56-28.772-25.198 0-48.564 13.657-60.98 35.642-.318.565-.893.94-1.54 1.007-.65.068-1.283-.19-1.71-.68-11.035-12.69-26.99-19.97-43.77-19.97-16.318 0-31.975 6.936-42.953 19.028-.69.758-1.842.874-2.667.265-10.02-7.387-21.907-11.292-34.38-11.292-27.795 0-50.818 19.117-56.587 45.202 11.196-17.83 31.117-29.2 52.588-29.2 10.567 0 21 2.707 30.174 7.83.903.504 1.272 1.615.85 2.56-3.06 6.858-4.735 14.115-4.99 21.6 2.428-6.39 5.892-12.31 10.312-17.622.603-.918 4.177-5.99 13.13-11.86 10.21-6.87 22.156-10.508 34.525-10.508 14.885 0 29.28 5.366 40.535 15.11.602.52.837 1.345.602 2.103-2.082 6.707-3.138 13.698-3.138 20.783 1.757-5.123 4.086-10.05 6.968-14.73.34-.554.928-.907 1.575-.95.66-.04 1.276.236 1.684.74 4.145 5.128 7.416 10.82 9.74 16.937-.285-8.458-2.37-16.574-6.206-24.152-.365-.724-.26-1.598.272-2.21 14.08-16.29 34.48-25.63 55.967-25.63 21.277 0 41.545 9.188 55.604 25.212.346.394.522.905.494 1.428-.025.472-.046.923-.062 1.358.05.002.098.005.146.01l1.042.097c1.1.102 1.908 1.075 1.807 2.175-.1 1.1-1.07 1.916-2.173 1.808l-.95-.087h-1.91c-1.104-.002-2-.897-2-2 0-.863.022-1.77.065-2.75-13.276-14.787-32.205-23.25-52.064-23.25-19.884 0-38.785 8.46-52.068 23.255 4.027 8.394 6.068 17.385 6.068 26.745 0 1.104-.896 2-2 2h-3.428c-.848 0-1.604-.534-1.886-1.333-1.868-5.284-4.484-10.245-7.793-14.782-3.923 7.005-6.58 14.543-7.905 22.446-.162.96-.996 1.666-1.972 1.666z"/><path fill="#24A4DE" stroke="#231F20" stroke-width="4" stroke-linecap="round" stroke-linejoin="round" stroke-miterlimit="10" d="M435.202 242.86c11.06-20.738 36.95-35.288 67.124-35.288 7.875 0 15.45 1.004 22.553 2.836-13.268-11.027-31.963-17.908-52.697-17.908-36.52 0-66.766 21.314-72.035 49.114"/><path fill="#24A4DE" d="M486.81 112.797c29.816-13.203 61.466-16.14 79.69-9.363-20-28.934-36-32.934-36-32.934-24-8-92 40-92 40v36.407c10.872-12.687 27.743-25.003 48.31-34.11z"/><path fill="#231F20" d="M438.5 148.907c-.232 0-.467-.04-.693-.124-.785-.29-1.307-1.04-1.307-1.876V110.5c0-.65.315-1.26.847-1.634 2.387-1.686 58.783-41.266 86.885-41.266 2.558 0 4.857 2.33 6.838 2.98 1.442.39 15.823 3.64 35.43 31.92.32.353.02.417.02.933 0 1.104 1.107 2 .004 2-.28-.008-.485-.04-.72-.125-5.977-2.224-13.71-3.398-22.365-3.398-17.48 0-37.302 4.516-55.818 12.716-19.562 8.66-36.467 20.588-47.602 33.583-.39.45-.947.697-1.52.697zm2-37.362v30.18c11.403-11.914 27.356-22.722 45.5-30.757 19.016-8.42 39.414-13.058 57.438-13.058 6.69 0 12.72.642 18.007 1.91-17.71-23.71-31.286-27.344-31.43-27.38-.05-.013-.1-.027-.147-.043-1.586-.528-3.482-.797-5.636-.797-25.045 0-76.504 34.948-83.732 39.945z"/><path fill="#24A4DE" d="M573.05 145.372c-6.81-.43-14.756 2.062-21.694 7.403-12.254 9.433-16.727 24.174-9.99 32.928 1.276 1.656 2.862 2.978 4.68 3.97-2.124-8.604 2.695-19.74 12.63-27.388 7.58-5.835 16.36-8.27 23.552-7.208"/><path fill="#231F20" d="M576.878 148.025c-1.642-.462-3.438-.7-5.352-.7-6.234 0-13.142 2.563-18.95 7.035-11.36 8.744-15.68 22.258-9.625 30.123.19.246.39.484.596.715.098-8.508 5.265-17.845 13.91-24.498 6.59-5.072 14.185-7.865 21.387-7.865.92 0 1.825.048 2.712.144l2.853 4.62c-1.71-.504-3.59-.765-5.564-.765-6.233 0-13.14 2.564-18.948 7.035-8.984 6.915-13.882 17.33-11.91 25.324.19.77-.092 1.58-.72 2.064-.357.274-.788.415-1.22.415-.33 0-.66-.08-.96-.245-2.102-1.15-3.886-2.665-5.304-4.505-7.398-9.614-2.754-25.644 10.354-35.733 6.59-5.072 14.187-7.865 21.39-7.865l5.352 4.7zM596.084 137.417"/><path fill="none" stroke="#231F20" stroke-width="4" stroke-linecap="round" stroke-linejoin="round" stroke-miterlimit="10" d="M70.5 288.5v-218c0-5.904 6.096-12 12-12h392c51.914 0 96 27.55 96 64 0 4.428-3.59 8.018-8.018 8.018l75.938 85.142 36.08 38.84v20c0 5.903-4.787 12-10.69 12H494.5v8h-424v-8.018"/><path fill="#3A3A3A" stroke="#231F20" stroke-width="4" stroke-linecap="round" stroke-linejoin="round" stroke-miterlimit="10" d="M138.5 294.5h116v36h-116zM498.5 294.5h116v36h-116z"/><path fill="#C1BFB5" stroke="#231F20" stroke-width="4" stroke-linecap="round" stroke-linejoin="round" stroke-miterlimit="10" d="M110.5 102.075L98.5 82.5h352l-12 19.575z"/><path fill="#FFF6E3" stroke="#231F20" stroke-width="4" stroke-linecap="round" stroke-linejoin="round" stroke-miterlimit="10" d="M98.5 74.5h352v8h-352z"/><path fill="#FFF6E3" stroke="#231F20" stroke-width="4" stroke-miterlimit="10" d="M110.5 102.5h328v92h-328z"/><path fill="#C1BFB5" stroke="#231F20" stroke-width="4" stroke-linecap="round" stroke-linejoin="round" stroke-miterlimit="10" d="M110.5 210.5h328v32h-328z"/><path fill="none" stroke="#231F20" stroke-width="4" stroke-linecap="round" stroke-linejoin="round" stroke-miterlimit="10" d="M98.5 242.5h352"/><circle fill="#5E6363" stroke="#231F20" stroke-width="4" stroke-miterlimit="10" cx="194.5" cy="354.5" r="44"/><circle fill="#FFF6E3" stroke="#231F20" stroke-width="4" stroke-miterlimit="10" cx="194.5" cy="354.5" r="20"/><circle fill="#1EA5DE" cx="194.5" cy="354.5" r="12"/><circle fill="none" stroke="#231F20" stroke-width="2" stroke-miterlimit="10" cx="194.5" cy="348.5" r="2"/><circle fill="none" stroke="#231F20" stroke-width="2" stroke-miterlimit="10" cx="188.5" cy="354.5" r="2"/><circle fill="none" stroke="#231F20" stroke-width="2" stroke-miterlimit="10" cx="194.5" cy="360.5" r="2"/><circle fill="none" stroke="#231F20" stroke-width="2" stroke-miterlimit="10" cx="200.5" cy="354.5" r="2"/><circle fill="#5E6363" stroke="#231F20" stroke-width="4" stroke-miterlimit="10" cx="558.5" cy="354.5" r="44"/><circle fill="#FFF6E3" stroke="#231F20" stroke-width="4" stroke-miterlimit="10" cx="558.5" cy="354.5" r="20"/><circle fill="#1EA5DE" cx="558.5" cy="354.5" r="12"/><circle fill="none" stroke="#231F20" stroke-width="2" stroke-miterlimit="10" cx="558.5" cy="348.5" r="2"/><circle fill="none" stroke="#231F20" stroke-width="2" stroke-miterlimit="10" cx="552.5" cy="354.5" r="2"/><circle fill="none" stroke="#231F20" stroke-width="2" stroke-miterlimit="10" cx="558.5" cy="360.5" r="2"/><circle fill="none" stroke="#231F20" stroke-width="2" stroke-miterlimit="10" cx="564.5" cy="354.5" r="2"/><path fill="#444646" stroke="#231F20" stroke-width="4" stroke-linecap="round" stroke-linejoin="round" stroke-miterlimit="10" d="M118.5 194.5v-84h312v84"/><path fill="#BE202E" stroke="#231F20" stroke-width="4" stroke-linecap="round" stroke-linejoin="round" stroke-miterlimit="10" d="M62.5 266.5h8v28h-8z"/><path fill="#FFF6E3" stroke="#231F20" stroke-width="4" stroke-linecap="round" stroke-linejoin="round" stroke-miterlimit="10" d="M102.5 194.5h344v16h-344z"/><path fill="#FFF6E3" stroke="#231F20" stroke-width="4" stroke-miterlimit="10" d="M142.5 170.5"/><path fill="#2B2E31" stroke="#231F20" stroke-width="4" stroke-linecap="round" stroke-linejoin="round" stroke-miterlimit="10" d="M478.5 334.5h-84l-151.987-.003c-7.837-18.79-26.383-31.997-48.013-31.997s-40.163 13.208-48 32h-16v-20h-44v-20h408v-8h180v48l-68-.003c-7.838-18.79-26.383-31.997-48.014-31.997s-40.163 13.208-48 32H478.5zM542.5 130.5h20"/><path fill="#C1BFB5" stroke="#231F20" stroke-width="4" stroke-linecap="round" stroke-linejoin="round" stroke-miterlimit="10" d="M114.5 210.5"/><g stroke="#231F20" stroke-width="4" stroke-linecap="round" stroke-linejoin="round" stroke-miterlimit="10"><g fill="#454646"><path d="M638.5 206.5c0 4.418-3.582 8-8 8h-4v-44h4c4.418 0 8 3.582 8 8v28zM626.5 214.5c0 4.418-3.582 8-8 8"/><circle cx="618.5" cy="222.5" r="4"/></g><path fill="#5EC8D8" d="M618.5 170.5h8v44h-8z"/></g><path opacity=".2" fill="#fff" d="M618.5 190.5l8 8v-16l-8-8zM618.5 198.5l8 8v-4l-8-8z"/><path fill="none" stroke="#231F20" stroke-width="4" stroke-linecap="round" stroke-linejoin="round" stroke-miterlimit="10" d="M618.5 170.5h8v44h-8z"/><path fill="#454646" stroke="#231F20" stroke-width="4" stroke-linecap="round" stroke-linejoin="round" stroke-miterlimit="10" d="M682.5 290.5c0 4.418-3.582 8-8 8h-44c-4.418 0-8-3.582-8-8v-8c0-4.418 3.582-8 8-8h44c4.418 0 8 3.582 8 8v8z"/><path fill="#E5E6E5" stroke="#231F20" stroke-width="4" stroke-linecap="round" stroke-linejoin="round" stroke-miterlimit="10" d="M642.5 254.5h32v20h-32z"/><path fill="#F79520" stroke="#231F20" stroke-width="4" stroke-linecap="round" stroke-linejoin="round" stroke-miterlimit="10" d="M630.5 254.5h12v20h-12zM130.5 279.5h12v7h-12z"/><path fill="#4CABC2" stroke="#000" stroke-width="4" stroke-miterlimit="10" d="M510.5 146.5v68c0 2.21 1.79 4 4 4h42l6 8h40c2.21 0 4-1.79 4-4v-24l-52-56h-40c-2.21 0-4 1.79-4 4z"/><path fill="#4CABC2" stroke="#000" stroke-width="4" stroke-linecap="round" stroke-linejoin="round" stroke-miterlimit="10" d="M510.5 146.5v68c0 2.21 1.79 4 4 4h40l8 8h40c2.21 0 4-1.79 4-4v-24l-52-56h-40c-2.21 0-4 1.79-4 4z"/><path fill="#4CABC2" stroke="#000" stroke-width="4" stroke-miterlimit="10" d="M554.5 218.5M554.5 142.5"/><path opacity=".2" fill="#fff" d="M562.5 142.5l-52 56v-18l36-38zM613.5 203.5l-32 40-24-18 36-42zM562.5 150.5l-52 58v-4l50-56zM579.5 167.5l-52 58v-4l50-56zM591.5 180.667l-38 44.833h-4l40-46.833z"/><path opacity=".8" fill="#fff" d="M674.5 254.5l-16 20h-16l16-20z"/><path opacity=".2" fill="#fff" d="M654.5 254.5l-16 20h-8l16-20z"/><path fill="none" stroke="#231F20" stroke-width="4" stroke-miterlimit="10" d="M554.5 142.5v76"/><path fill="none" stroke="#231F20" stroke-width="4" stroke-linecap="round" stroke-linejoin="round" stroke-miterlimit="10" d="M642.5 254.5h32v20h-32zM630.5 254.5h12v20h-12zM510.5 146.5v68c0 2.21 1.79 4 4 4h40l8 8h40c2.21 0 4-1.79 4-4v-24l-52-56h-40c-2.21 0-4 1.79-4 4z"/><path fill="#2B2E31" stroke="#231F20" stroke-width="4" stroke-linecap="round" stroke-linejoin="round" stroke-miterlimit="10" d="M446.5 110.5h24v76h-24z"/><path opacity=".8" fill="none" stroke="#FCEE22" stroke-width="2" stroke-linecap="round" stroke-linejoin="round" stroke-miterlimit="10" d="M451.5 115.5h14"/><path opacity=".8" fill="none" stroke="#fff" stroke-width="2" stroke-linecap="round" stroke-linejoin="round" stroke-miterlimit="10" d="M451.5 119.5h10M451.5 123.5h10M451.5 127.5h14M451.5 131.5h10M451.5 135.5h14M451.5 139.5h10M451.5 143.5h10M451.5 147.5h14M451.5 151.5h10"/><path opacity=".8" fill="none" stroke="#01A64F" stroke-width="2" stroke-linecap="round" stroke-linejoin="round" stroke-miterlimit="10" d="M451.5 177.5h14"/><path opacity=".8" fill="none" stroke="#FCEE22" stroke-width="2" stroke-linecap="round" stroke-linejoin="round" stroke-miterlimit="10" d="M451.5 181.5h10"/><path fill="#2B2E31" stroke="#231F20" stroke-width="4" stroke-linecap="round" stroke-linejoin="round" stroke-miterlimit="10" d="M78.5 110.5h24v76h-24z"/><path opacity=".8" fill="none" stroke="#FCEE22" stroke-width="2" stroke-linecap="round" stroke-linejoin="round" stroke-miterlimit="10" d="M83.5 115.5h14M83.5 167.667h14"/><path opacity=".8" fill="none" stroke="#fff" stroke-width="2" stroke-linecap="round" stroke-linejoin="round" stroke-miterlimit="10" d="M83.5 119.5h10M83.5 123.5h10M83.5 127.5h14M83.5 131.5h10M83.5 135.5h14M83.5 139.5h10M83.5 143.5h10M83.5 147.5h14M83.5 151.5h10"/><path opacity=".8" fill="none" stroke="#EC2127" stroke-width="2" stroke-linecap="round" stroke-linejoin="round" stroke-miterlimit="10" d="M83.5 159.5h14M83.5 163.5h10M451.5 155.5h14M451.5 159.5h10"/><path fill="none" stroke="#231F20" stroke-width="4" stroke-linecap="round" stroke-linejoin="round" stroke-miterlimit="10" d="M138.5 174.5h40"/><path fill="#662F90" stroke="#231F20" stroke-width="4" stroke-linecap="round" stroke-linejoin="round" stroke-miterlimit="10" d="M142.5 174.5l4 16h24l4-16z"/><path fill="none" stroke="#231F20" stroke-width="4" stroke-linecap="round" stroke-linejoin="round" stroke-miterlimit="10" d="M186.5 174.5h40"/><path fill="#BE202E" stroke="#231F20" stroke-width="4" stroke-linecap="round" stroke-linejoin="round" stroke-miterlimit="10" d="M190.5 174.5l4 16h24l4-16z"/><path fill="none" stroke="#231F20" stroke-width="4" stroke-linecap="round" stroke-linejoin="round" stroke-miterlimit="10" d="M234.5 174.5h40"/><path fill="#E7EB8F" stroke="#231F20" stroke-width="4" stroke-linecap="round" stroke-linejoin="round" stroke-miterlimit="10" d="M238.5 174.5l4 16h24l4-16z"/><path fill="#603A17" stroke="#3B2416" stroke-width="4" stroke-linecap="round" stroke-linejoin="round" stroke-miterlimit="10" d="M382.5 174.5l4 16h12l4-16z"/><circle fill="#016938" stroke="#01A64F" stroke-width="4" stroke-linecap="round" stroke-linejoin="round" stroke-miterlimit="10" cx="392.5" cy="156.5" r="14"/></svg>