<svg xmlns="http://www.w3.org/2000/svg" width="624" height="400" viewBox="0 0 624 400"><path fill="#FFF6E3" stroke="#231F20" stroke-width="4" stroke-linecap="round" stroke-linejoin="round" stroke-miterlimit="10" d="M10 288.5v-218c0-5.904 6.096-12 12-12h392c51.914 0 96 27.55 96 64 0 4.428-3.59 8.018-8.018 8.018l75.938 85.142L614 254.5v20c0 5.902-4.787 12-10.69 12H434v8H10v-8.018"/><path fill="#24A4DE" stroke="#231F20" stroke-width="4" stroke-linecap="round" stroke-linejoin="round" stroke-miterlimit="10" d="M10 258.5s60 16 112-16h56s-52 52-72 52H10v-36zm0-36s20-4 40 8v-128l-12-28h48v-16H22s-12 4-12 12v152zm396-164s-60 36-56 0h56zm-88 0s-24 16-28 16H126v-16h192zm-64 184c0 3.312-7.164 10-16 10s-16-6.688-16-10m152 0c0 3.312-7.164 10-16 10s-16-6.688-16-10"/><path fill="#24A4DE" d="M601.542 253l2.416 1.5c.287.498.532 3.225.542 5.583.002.57-.01 1.11-.04 1.603l-.637-1.106c.132.48.328 1.075.498 1.653l.095.058-.02.193c.353 1.262.504 2.336-.558 1.78.002 1.165 1.113 3.362.536 2.786l-.188-.19c-.134-.062-.364-.195-.767-.463-18.36-12.207-43.438-10.225-59.613 5.953-7.23 7.23-11.627 16.242-13.186 25.637l-29.623-1.39-1.042-.1h-2c0-1.16.04-2.315.103-3.468-13.188-15.03-32.528-24.53-54.1-24.53-21.767 0-41.258 9.672-54.455 24.938 4.118 8.135 6.454 17.322 6.454 27.062h-3.428c-2.29-6.48-5.666-12.445-9.9-17.688-4.75 7.72-8.1 16.398-9.658 25.688-.654-3.904-1.015-7.91-1.015-12 0-7.443 1.13-14.624 3.228-21.38-10.517-9.103-24.224-14.62-39.228-14.62-12.38 0-23.877 3.755-33.43 10.182-9.43 6.183-12.61 11.373-12.61 11.373-4.53 5.422-8.13 11.65-10.532 18.445h-3.428c0-8.7 1.867-16.96 5.198-24.424-8.64-4.825-18.598-7.576-29.198-7.576-25.502 0-47.273 15.918-55.958 38.354.874-32.373 27.373-58.354 59.957-58.354 13.314 0 25.612 4.344 35.564 11.684 10.98-12.09 26.82-19.684 44.437-19.684 18.08 0 34.278 8.008 45.278 20.657C393.59 259.28 417.04 244.5 443.957 244.5c23.906 0 45.08 11.66 58.174 29.593 3.075-7.94 7.784-15.23 13.986-21.434 11.71-11.713 27.28-18.16 43.84-18.16 12.42 0 24.374 3.626 34.515 10.38"/><path fill="#231F20" d="M372.973 330.5c-.977 0-1.81-.706-1.973-1.67-.69-4.12-1.042-8.27-1.042-12.33 0-7.04.986-13.997 2.935-20.7-10.376-8.586-23.44-13.3-36.935-13.3-11.57 0-22.744 3.402-32.312 9.84-8.874 5.82-11.996 10.72-12.027 10.768-.05.078-.108.16-.167.23-4.46 5.337-7.887 11.336-10.182 17.83-.28.8-1.037 1.332-1.886 1.332h-3.428c-1.104 0-2-.896-2-2 0-8.14 1.56-16.046 4.64-23.53-8.188-4.237-17.356-6.47-26.64-6.47-23.77 0-45.508 14.9-54.093 37.075-.352.907-1.302 1.43-2.26 1.24-.953-.192-1.63-1.044-1.604-2.017.437-16.203 7.076-31.365 18.69-42.695 11.64-11.354 27.004-17.604 43.267-17.604 12.735 0 24.902 3.81 35.303 11.034 11.66-12.12 27.85-19.035 44.698-19.035 17.02 0 33.24 7.002 44.933 19.305 13.434-21.847 37.348-35.306 63.07-35.306 22.364 0 43.665 10.27 57.66 27.64 3.17-7.03 7.56-13.374 13.084-18.896 12.087-12.09 28.16-18.746 45.254-18.746 12.778 0 25.097 3.705 35.623 10.716 2.298 1.53 9.42 7.7 10.42 9.284s-1.087.912 0 2c.204.203-.496-.682 0 0v2c.28.174-.473-3.285-.31-3 .75 1.302-1.193 5.705-1.19 6.575.003.614-.01 1.196-.04 1.725-.01.122-.026-.76-.055-.644.004.04.007 1.08.008 1.12-.446-1.687-.483 4.84.75 3.22.02.07-.958 2.13-.94 2.18.266.805 2.76.3 1.35 1.166-.63.39-1.687.53-2.595-.36-.187-.108-.402-.245-.664-.42-17.884-11.89-41.895-9.49-57.09 5.702-6.71 6.71-11.074 15.2-12.627 24.55-.18 1.09-1.22 1.83-2.3 1.647-1.09-.182-1.827-1.21-1.646-2.3 1.69-10.18 6.44-19.42 13.745-26.726 15.86-15.863 40.558-18.91 59.73-7.705.08-.138.18-.265.293-.38l-.017-.054c-.067-.237-.143-.478-.215-.71-.106-.35-.21-.686-.29-.98-.206-.744.038-1.52.587-2.013-.04-1.385-.15-2.622-.258-3.315l-1.736-1.08c-.255-.156-.47-.37-.632-.623-.18-.258.38 2.713.145 2.425-1.342-1.35.99-1.317 1.147-2.25.292-1.75-6.165-6.626-7.783-7.704-9.867-6.572-21.42-10.046-33.405-10.046-16.027 0-31.095 6.24-42.427 17.574-5.96 5.96-10.513 12.938-13.533 20.74-.265.684-.88 1.167-1.604 1.263-.727.093-1.443-.215-1.876-.805-13.155-18.017-34.3-28.77-56.56-28.77-25.198 0-48.564 13.656-60.98 35.642-.317.564-.893.94-1.54 1.006-.65.068-1.282-.19-1.71-.68-11.034-12.69-26.99-19.97-43.77-19.97-16.318 0-31.975 6.937-42.953 19.028-.69.758-1.842.873-2.667.265-10.02-7.388-21.907-11.292-34.38-11.292-27.795 0-50.818 19.118-56.587 45.203 11.196-17.83 31.117-29.2 52.588-29.2 10.568 0 21 2.707 30.175 7.83.903.504 1.272 1.615.85 2.56-3.06 6.858-4.734 14.115-4.99 21.6 2.43-6.39 5.893-12.31 10.313-17.62.604-.92 4.178-5.99 13.13-11.86 10.21-6.87 22.156-10.51 34.525-10.51 14.885 0 29.28 5.367 40.535 15.11.602.52.837 1.346.602 2.104-2.082 6.707-3.138 13.698-3.138 20.783 1.757-5.123 4.086-10.05 6.968-14.73.34-.554.93-.906 1.575-.95.66-.04 1.276.236 1.685.74 4.145 5.128 7.415 10.82 9.74 16.938-.286-8.458-2.37-16.574-6.207-24.152-.364-.724-.26-1.598.272-2.21 14.08-16.29 34.48-25.63 55.967-25.63 21.277 0 41.545 9.188 55.604 25.212.346.395.52.905.493 1.428-.025.473-.047.924-.063 1.358.05.002.098.005.146.01l1.042.097c1.1.104 1.908 1.077 1.808 2.177s-1.07 1.916-2.173 1.808l-.95-.087h-1.91c-1.104-.002-2-.896-2-2 0-.863.022-1.77.065-2.75-13.276-14.787-32.205-23.25-52.064-23.25-19.883 0-38.784 8.46-52.067 23.255 4.027 8.394 6.068 17.386 6.068 26.745 0 1.104-.895 2-2 2h-3.427c-.85 0-1.604-.534-1.886-1.333-1.868-5.284-4.484-10.245-7.793-14.782-3.924 7.006-6.58 14.543-7.905 22.446-.163.96-.997 1.665-1.974 1.665l-.003-.005z"/><path fill="#24A4DE" stroke="#231F20" stroke-width="4" stroke-linecap="round" stroke-linejoin="round" stroke-miterlimit="10" d="M374.702 242.86c11.06-20.738 36.95-35.288 67.124-35.288 7.875 0 15.45 1.004 22.553 2.836-13.27-11.027-31.964-17.908-52.698-17.908-36.52 0-66.766 21.314-72.035 49.113"/><path fill="#24A4DE" d="M426.31 112.797c29.816-13.203 61.467-16.14 79.69-9.363C486 74.5 470 70.5 470 70.5c-24-8-92 40-92 40v36.407c10.872-12.687 27.743-25.003 48.31-34.11z"/><path fill="#231F20" d="M378 148.907c-.232 0-.467-.04-.693-.124-.784-.29-1.307-1.04-1.307-1.876V110.5c0-.65.315-1.26.847-1.634 2.388-1.686 58.783-41.266 86.886-41.266 2.558 0 4.856 2.33 6.838 2.98 1.442.39 15.823 3.64 35.43 31.92.32.353.02.417.02.933 0 1.104 1.108 2 .006 2-.28-.008-.485-.04-.72-.125-5.978-2.224-13.71-3.398-22.365-3.398-17.48 0-37.302 4.516-55.817 12.716-19.562 8.66-36.467 20.588-47.602 33.583-.39.45-.948.696-1.52.697zm2-37.362v30.18c11.403-11.914 27.356-22.722 45.5-30.757 19.016-8.42 39.414-13.058 57.438-13.058 6.69 0 12.72.642 18.008 1.91-17.71-23.71-31.286-27.344-31.43-27.38-.05-.013-.1-.027-.147-.043-1.587-.528-3.483-.797-5.637-.797-25.045 0-76.504 34.948-83.733 39.945z"/><path fill="#24A4DE" d="M512.55 145.372c-6.81-.43-14.756 2.062-21.694 7.403-12.254 9.433-16.727 24.174-9.99 32.928 1.276 1.656 2.862 2.978 4.68 3.97-2.123-8.604 2.696-19.74 12.63-27.388 7.58-5.835 16.36-8.27 23.553-7.208"/><path fill="#231F20" d="M516.378 148.025c-1.642-.462-3.438-.7-5.352-.7-6.234 0-13.143 2.563-18.95 7.035-11.36 8.744-15.68 22.258-9.625 30.123.19.246.39.484.597.715.098-8.508 5.266-17.845 13.91-24.498 6.59-5.072 14.185-7.865 21.387-7.865.92 0 1.825.048 2.712.144l2.854 4.62c-1.71-.505-3.59-.766-5.564-.766-6.232 0-13.14 2.564-18.948 7.035-8.983 6.914-13.882 17.33-11.91 25.323.19.77-.092 1.58-.72 2.064-.356.274-.788.415-1.22.415-.33 0-.66-.08-.96-.245-2.102-1.15-3.886-2.665-5.304-4.505-7.398-9.614-2.754-25.644 10.354-35.733 6.59-5.073 14.188-7.866 21.39-7.866l5.35 4.7z"/><path stroke="#231F20" stroke-width="4" stroke-linecap="round" stroke-linejoin="round" stroke-miterlimit="10" d="M10 288.5v-218c0-5.904 6.096-12 12-12h392c51.914 0 96 27.55 96 64 0 4.428-3.59 8.018-8.018 8.018l75.938 85.142L614 254.5v20c0 5.902-4.787 12-10.69 12H434v8H10v-8.018" fill="none"/><path fill="#3A3A3A" stroke="#231F20" stroke-width="4" stroke-linecap="round" stroke-linejoin="round" stroke-miterlimit="10" d="M78 294.5h116v36H78v-36zm360 0h116v36H438v-36z"/><path fill="#C1BFB5" stroke="#231F20" stroke-width="4" stroke-linecap="round" stroke-linejoin="round" stroke-miterlimit="10" d="M50 102.075L38 82.5h352l-12 19.575H50z"/><path fill="#FFF6E3" stroke="#231F20" stroke-width="4" stroke-linecap="round" stroke-linejoin="round" stroke-miterlimit="10" d="M38 74.5h352v8H38v-8z"/><path fill="#FFF6E3" stroke="#231F20" stroke-width="4" stroke-miterlimit="10" d="M50 102.5h328v92H50v-92z"/><path fill="#C1BFB5" stroke="#231F20" stroke-width="4" stroke-linecap="round" stroke-linejoin="round" stroke-miterlimit="10" d="M50 210.5h328v32H50v-32z"/><path stroke="#231F20" stroke-width="4" stroke-linecap="round" stroke-linejoin="round" stroke-miterlimit="10" d="M38 242.5h352" fill="none"/><g class="wheel"><circle fill="#5E6363" stroke="#231F20" stroke-width="4" stroke-miterlimit="10" cx="134" cy="354.5" r="44"/><circle fill="#FFF6E3" stroke="#231F20" stroke-width="4" stroke-miterlimit="10" cx="134" cy="354.5" r="20"/><circle fill="#1EA5DE" cx="134" cy="354.5" r="12"/><circle stroke="#231F20" stroke-width="2" stroke-miterlimit="10" cx="134" cy="348.5" r="2" fill="none"/><circle stroke="#231F20" stroke-width="2" stroke-miterlimit="10" cx="128" cy="354.5" r="2" fill="none"/><circle stroke="#231F20" stroke-width="2" stroke-miterlimit="10" cx="134" cy="360.5" r="2" fill="none"/><circle stroke="#231F20" stroke-width="2" stroke-miterlimit="10" cx="140" cy="354.5" r="2" fill="none"/></g><g class="wheel"><circle fill="#5E6363" stroke="#231F20" stroke-width="4" stroke-miterlimit="10" cx="498" cy="354.5" r="44"/><circle fill="#FFF6E3" stroke="#231F20" stroke-width="4" stroke-miterlimit="10" cx="498" cy="354.5" r="20"/><circle fill="#1EA5DE" cx="498" cy="354.5" r="12"/><circle stroke="#231F20" stroke-width="2" stroke-miterlimit="10" cx="498" cy="348.5" r="2" fill="none"/><circle stroke="#231F20" stroke-width="2" stroke-miterlimit="10" cx="492" cy="354.5" r="2" fill="none"/><circle stroke="#231F20" stroke-width="2" stroke-miterlimit="10" cx="498" cy="360.5" r="2" fill="none"/><circle stroke="#231F20" stroke-width="2" stroke-miterlimit="10" cx="504" cy="354.5" r="2" fill="none"/></g><path fill="#444646" stroke="#231F20" stroke-width="4" stroke-linecap="round" stroke-linejoin="round" stroke-miterlimit="10" d="M58 194.5v-84h312v84"/><path fill="#BE202E" stroke="#231F20" stroke-width="4" stroke-linecap="round" stroke-linejoin="round" stroke-miterlimit="10" d="M2 266.5h8v28H2v-28z"/><path fill="#FFF6E3" stroke="#231F20" stroke-width="4" stroke-linecap="round" stroke-linejoin="round" stroke-miterlimit="10" d="M42 194.5h344v16H42v-16z"/><path fill="#FFF6E3" stroke="#231F20" stroke-width="4" stroke-miterlimit="10" d="M82 170.5"/><path fill="#2B2E31" stroke="#231F20" stroke-width="4" stroke-linecap="round" stroke-linejoin="round" stroke-miterlimit="10" d="M418 334.5h-84l-151.987-.003C174.176 315.707 155.63 302.5 134 302.5s-40.163 13.208-48 32H70v-20H26v-20h408v-8h180v48l-68-.003c-7.838-18.79-26.383-31.997-48.014-31.997s-40.163 13.208-48 32H418zm64-204h20"/><path fill="#C1BFB5" stroke="#231F20" stroke-width="4" stroke-linecap="round" stroke-linejoin="round" stroke-miterlimit="10" d="M54 210.5"/><g stroke="#231F20" stroke-width="4" stroke-linecap="round" stroke-linejoin="round" stroke-miterlimit="10"><g fill="#454646"><path d="M578 206.5c0 4.418-3.582 8-8 8h-4v-44h4c4.418 0 8 3.582 8 8v28zm-12 8c0 4.418-3.582 8-8 8"/><circle cx="558" cy="222.5" r="4"/></g><path fill="#5EC8D8" d="M558 170.5h8v44h-8v-44z"/></g><path opacity=".2" fill="#fff" enable-background="new" d="M558 190.5l8 8v-16l-8-8v16zm0 8l8 8v-4l-8-8v4z"/><path stroke="#231F20" stroke-width="4" stroke-linecap="round" stroke-linejoin="round" stroke-miterlimit="10" d="M558 170.5h8v44h-8v-44z" fill="none"/><path fill="#454646" stroke="#231F20" stroke-width="4" stroke-linecap="round" stroke-linejoin="round" stroke-miterlimit="10" d="M622 290.5c0 4.418-3.582 8-8 8h-44c-4.418 0-8-3.582-8-8v-8c0-4.418 3.582-8 8-8h44c4.418 0 8 3.582 8 8v8z"/><path fill="#E5E6E5" stroke="#231F20" stroke-width="4" stroke-linecap="round" stroke-linejoin="round" stroke-miterlimit="10" d="M582 254.5h32v20h-32v-20z"/><path fill="#F79520" stroke="#231F20" stroke-width="4" stroke-linecap="round" stroke-linejoin="round" stroke-miterlimit="10" d="M570 254.5h12v20h-12v-20zm-500 25h12v7H70v-7z"/><path fill="#4CABC2" stroke="#000" stroke-width="4" stroke-miterlimit="10" d="M450 146.5v68c0 2.21 1.79 4 4 4h42l6 8h40c2.21 0 4-1.79 4-4v-24l-52-56h-40c-2.21 0-4 1.79-4 4z"/><path fill="#4CABC2" stroke="#000" stroke-width="4" stroke-linecap="round" stroke-linejoin="round" stroke-miterlimit="10" d="M450 146.5v68c0 2.21 1.79 4 4 4h40l8 8h40c2.21 0 4-1.79 4-4v-24l-52-56h-40c-2.21 0-4 1.79-4 4z"/><path fill="#4CABC2" stroke="#000" stroke-width="4" stroke-miterlimit="10" d="M494 142.5"/><path opacity=".2" fill="#fff" enable-background="new" d="M502 142.5l-52 56v-18l36-38h16zm51 61l-32 40-24-18 36-42 20 20zm-51-53l-52 58v-4l50-56 2 2zm17 17l-52 58v-4l50-56 2 2zm12 13.167L493 225.5h-4l40-46.833 2 2z"/><path opacity=".8" fill="#fff" enable-background="new" d="M614 254.5l-16 20h-16l16-20h16z"/><path opacity=".2" fill="#fff" enable-background="new" d="M594 254.5l-16 20h-8l16-20h8z"/><path stroke="#231F20" stroke-width="4" stroke-miterlimit="10" d="M494 142.5v76" fill="none"/><path stroke="#231F20" stroke-width="4" stroke-linecap="round" stroke-linejoin="round" stroke-miterlimit="10" d="M582 254.5h32v20h-32v-20zm-12 0h12v20h-12v-20zm-120-108v68c0 2.21 1.79 4 4 4h40l8 8h40c2.21 0 4-1.79 4-4v-24l-52-56h-40c-2.21 0-4 1.79-4 4z" fill="none"/><path fill="#2B2E31" stroke="#231F20" stroke-width="4" stroke-linecap="round" stroke-linejoin="round" stroke-miterlimit="10" d="M386 110.5h24v76h-24v-76z"/><path opacity=".8" stroke="#FCEE22" stroke-width="2" stroke-linecap="round" stroke-linejoin="round" stroke-miterlimit="10" enable-background="new" d="M391 115.5h14" fill="none"/><path opacity=".8" stroke="#fff" stroke-width="2" stroke-linecap="round" stroke-linejoin="round" stroke-miterlimit="10" enable-background="new" d="M391 119.5h10m-10 4h10m-10 4h14m-14 4h10m-10 4h14m-14 4h10m-10 4h10m-10 4h14m-14 4h10" fill="none"/><path opacity=".8" stroke="#01A64F" stroke-width="2" stroke-linecap="round" stroke-linejoin="round" stroke-miterlimit="10" enable-background="new" d="M391 177.5h14" fill="none"/><path opacity=".8" stroke="#FCEE22" stroke-width="2" stroke-linecap="round" stroke-linejoin="round" stroke-miterlimit="10" enable-background="new" d="M391 181.5h10" fill="none"/><path fill="#2B2E31" stroke="#231F20" stroke-width="4" stroke-linecap="round" stroke-linejoin="round" stroke-miterlimit="10" d="M18 110.5h24v76H18v-76z"/><path opacity=".8" stroke="#FCEE22" stroke-width="2" stroke-linecap="round" stroke-linejoin="round" stroke-miterlimit="10" enable-background="new" d="M23 115.5h14m-14 52.167h14" fill="none"/><path opacity=".8" stroke="#fff" stroke-width="2" stroke-linecap="round" stroke-linejoin="round" stroke-miterlimit="10" enable-background="new" d="M23 119.5h10m-10 4h10m-10 4h14m-14 4h10m-10 4h14m-14 4h10m-10 4h10m-10 4h14m-14 4h10" fill="none"/><path opacity=".8" stroke="#EC2127" stroke-width="2" stroke-linecap="round" stroke-linejoin="round" stroke-miterlimit="10" enable-background="new" d="M23 159.5h14m-14 4h10m358-8h14m-14 4h10" fill="none"/><path stroke="#231F20" stroke-width="4" stroke-linecap="round" stroke-linejoin="round" stroke-miterlimit="10" d="M78 174.5h40" fill="none"/><path fill="#662F90" stroke="#231F20" stroke-width="4" stroke-linecap="round" stroke-linejoin="round" stroke-miterlimit="10" d="M82 174.5l4 16h24l4-16H82z"/><path stroke="#231F20" stroke-width="4" stroke-linecap="round" stroke-linejoin="round" stroke-miterlimit="10" d="M126 174.5h40" fill="none"/><path fill="#BE202E" stroke="#231F20" stroke-width="4" stroke-linecap="round" stroke-linejoin="round" stroke-miterlimit="10" d="M130 174.5l4 16h24l4-16h-32z"/><path stroke="#231F20" stroke-width="4" stroke-linecap="round" stroke-linejoin="round" stroke-miterlimit="10" d="M174 174.5h40" fill="none"/><path fill="#E7EB8F" stroke="#231F20" stroke-width="4" stroke-linecap="round" stroke-linejoin="round" stroke-miterlimit="10" d="M178 174.5l4 16h24l4-16h-32z"/><path fill="#603A17" stroke="#3B2416" stroke-width="4" stroke-linecap="round" stroke-linejoin="round" stroke-miterlimit="10" d="M322 174.5l4 16h12l4-16h-20z"/><circle fill="#016938" stroke="#01A64F" stroke-width="4" stroke-linecap="round" stroke-linejoin="round" stroke-miterlimit="10" cx="332" cy="156.5" r="14"/></svg>