<svg xmlns="http://www.w3.org/2000/svg" width="396.001" height="400" viewBox="-20 0 396.001 400" enable-background="new -20 0 396.001 400"><path fill="#C1BEB4" stroke="#231F20" stroke-width="4" stroke-linecap="round" stroke-linejoin="round" stroke-miterlimit="10" d="M2 150h12v148H2zM342 150h12v148h-12z"/><path fill="#FF395F" stroke="#231F20" stroke-width="4" stroke-linecap="round" stroke-linejoin="round" stroke-miterlimit="10" d="M350 106h-4c-52-8-168-60-168-72 0 12-116 64-168 72H6c-2.21 0-4 1.79-4 4v40h352v-40c0-2.21-1.792-4-4-4z"/><path fill="#E53355" stroke="#231F20" stroke-width="4" stroke-linecap="round" stroke-linejoin="round" stroke-miterlimit="10" d="M354 146c0 2.21-1.79 4-4 4H6c-2.21 0-4-1.79-4-4v-36c0-2.21 1.79-4 4-4h344c2.21 0 4 1.79 4 4v36z"/><path fill="#fff" stroke="#231F20" stroke-width="4" stroke-linecap="round" stroke-linejoin="round" stroke-miterlimit="10" d="M354 376.773c0 2.21-1.79 4-4 4H6c-2.21 0-4-1.79-4-4v-104h352v104z"/><path fill="#E53355" d="M4 274.77h20.47v20.803H4z"/><path fill="#EF9AAA" d="M4 295.572h20.47v20.8H4z"/><path fill="#E53355" d="M4 316.372h20.47v20.8H4z"/><path fill="#EF9AAA" d="M4 337.172h20.47v20.8H4z"/><path fill="#E53355" d="M4 357.973h20.47v20.8H4z"/><path fill="#EF9AAA" d="M24.47 274.77H44.94v20.803H24.47zM24.47 316.372H44.94v20.8H24.47zM24.47 357.973H44.94v20.8H24.47z"/><path fill="#E53355" d="M44.94 274.77h20.472v20.803h-20.47z"/><path fill="#EF9AAA" d="M44.94 295.572h20.472v20.8h-20.47z"/><path fill="#E53355" d="M44.94 316.372h20.472v20.8h-20.47z"/><path fill="#EF9AAA" d="M44.94 337.172h20.472v20.8h-20.47z"/><path fill="#E53355" d="M44.94 357.973h20.472v20.8h-20.47z"/><path fill="#EF9AAA" d="M65.412 274.77h20.47v20.803H65.41zM65.412 316.372h20.47v20.8H65.41zM65.412 357.973h20.47v20.8H65.41z"/><path fill="#E53355" d="M85.88 274.77h20.473v20.803H85.88z"/><path fill="#EF9AAA" d="M85.88 295.572h20.473v20.8H85.88z"/><path fill="#E53355" d="M85.88 316.372h20.473v20.8H85.88z"/><path fill="#EF9AAA" d="M85.88 337.172h20.473v20.8H85.88z"/><path fill="#E53355" d="M85.88 357.973h20.473v20.8H85.88z"/><path fill="#EF9AAA" d="M106.353 274.77h20.47v20.803h-20.47zM106.353 316.372h20.47v20.8h-20.47zM106.353 357.973h20.47v20.8h-20.47z"/><path fill="#E53355" d="M126.822 274.77h20.473v20.803h-20.473z"/><path fill="#EF9AAA" d="M126.822 295.572h20.473v20.8h-20.473z"/><path fill="#E53355" d="M126.822 316.372h20.473v20.8h-20.473z"/><path fill="#EF9AAA" d="M126.822 337.172h20.473v20.8h-20.473z"/><path fill="#E53355" d="M126.822 357.973h20.473v20.8h-20.473z"/><path fill="#EF9AAA" d="M147.295 274.77h20.47v20.803h-20.47zM147.295 316.372h20.47v20.8h-20.47zM147.295 357.973h20.47v20.8h-20.47z"/><path fill="#E53355" d="M167.764 274.77h20.47v20.803h-20.47z"/><path fill="#EF9AAA" d="M167.764 295.572h20.47v20.8h-20.47z"/><path fill="#E53355" d="M167.764 316.372h20.47v20.8h-20.47z"/><path fill="#EF9AAA" d="M167.764 337.172h20.47v20.8h-20.47z"/><path fill="#E53355" d="M167.764 357.973h20.47v20.8h-20.47z"/><path fill="#EF9AAA" d="M188.234 274.77h20.47v20.803h-20.47zM188.234 316.372h20.47v20.8h-20.47zM188.234 357.973h20.47v20.8h-20.47z"/><path fill="#E53355" d="M208.705 274.77h20.47v20.803h-20.47z"/><path fill="#EF9AAA" d="M208.705 295.572h20.47v20.8h-20.47z"/><path fill="#E53355" d="M208.705 316.372h20.47v20.8h-20.47z"/><path fill="#EF9AAA" d="M208.705 337.172h20.47v20.8h-20.47z"/><path fill="#E53355" d="M208.705 357.973h20.47v20.8h-20.47z"/><path fill="#EF9AAA" d="M229.173 274.77h20.473v20.803h-20.473zM229.173 316.372h20.473v20.8h-20.473zM229.173 357.973h20.473v20.8h-20.473z"/><path fill="#E53355" d="M249.646 274.77h20.47v20.803h-20.47z"/><path fill="#EF9AAA" d="M249.646 295.572h20.47v20.8h-20.47z"/><path fill="#E53355" d="M249.646 316.372h20.47v20.8h-20.47z"/><path fill="#EF9AAA" d="M249.646 337.172h20.47v20.8h-20.47z"/><path fill="#E53355" d="M249.646 357.973h20.47v20.8h-20.47z"/><path fill="#EF9AAA" d="M270.117 274.77h20.47v20.803h-20.47zM270.117 316.372h20.47v20.8h-20.47zM270.117 357.973h20.47v20.8h-20.47z"/><path fill="#E53355" d="M290.587 274.77h20.47v20.803h-20.47z"/><path fill="#EF9AAA" d="M290.587 295.572h20.47v20.8h-20.47z"/><path fill="#E53355" d="M290.587 316.372h20.47v20.8h-20.47z"/><path fill="#EF9AAA" d="M290.587 337.172h20.47v20.8h-20.47z"/><path fill="#E53355" d="M290.587 357.973h20.47v20.8h-20.47z"/><path fill="#EF9AAA" d="M311.056 274.77h20.47v20.803h-20.47zM311.056 316.372h20.47v20.8h-20.47zM311.056 357.973h20.47v20.8h-20.47z"/><path fill="#E53355" d="M331.527 274.77H352v20.803h-20.473z"/><path fill="#EF9AAA" d="M331.527 295.572H352v20.8h-20.473z"/><path fill="#E53355" d="M331.527 316.372H352v20.8h-20.473z"/><path fill="#EF9AAA" d="M331.527 337.172H352v20.8h-20.473z"/><path fill="#E53355" d="M331.527 357.973H352v20.8h-20.473z"/><path fill="none" stroke="#CD8D06" stroke-width="8" stroke-linecap="round" stroke-linejoin="round" stroke-miterlimit="10" d="M142.443 259.217L132 248.773M156 259.217l-10.443-10.444M170.443 259.217L160 248.773M184 259.217l-10.443-10.444"/><path fill="none" stroke="#678D1E" stroke-width="4" stroke-linecap="round" stroke-linejoin="round" stroke-miterlimit="10" d="M284 252.773l2.828 2.83M288 252.188v4M292 252.188v4M296 252.188v4M300 252.188v4M308 252.773l-2.83 2.83M304 252.188v4"/><path fill="#937855" stroke="#231F20" stroke-width="4" stroke-linecap="round" stroke-linejoin="round" stroke-miterlimit="10" d="M132 268.773l-4-12h64l-4 12z"/><path fill="#6C7071" stroke="#231F20" stroke-width="4" stroke-linecap="round" stroke-linejoin="round" stroke-miterlimit="10" d="M288 268.773l-4-12h24l-4 12z"/><path fill="#E53355" stroke="#231F20" stroke-width="4" stroke-linecap="round" stroke-linejoin="round" stroke-miterlimit="10" d="M136 272.773h84v108h-84z"/><circle fill="#CEDBE3" stroke="#231F20" stroke-width="4" stroke-linecap="round" stroke-linejoin="round" stroke-miterlimit="10" cx="180" cy="308.773" r="24"/><path fill="#CEDBE3" stroke="#231F20" stroke-width="4" stroke-linecap="round" stroke-linejoin="round" stroke-miterlimit="10" d="M172 292.773h16M176 302.773h8M179 297.773h2"/><path fill="#DFB949" d="M174 320.773c-3.314 0-6-2.687-6-6s2.686-6 6-6h12c3.314 0 6 2.687 6 6s-2.686 6-6 6h-12z"/><circle fill="#DFB949" cx="192" cy="308.773" r="4"/><path fill="none" stroke="#DFB949" stroke-width="4" stroke-linecap="round" stroke-linejoin="round" stroke-miterlimit="10" d="M172.002 316.773l-.002 8M176.002 316.773l-.002 8M184 320.773v4M188 320.773v4"/><path fill="none" stroke="#DFB949" stroke-miterlimit="10" d="M168 340.773"/><path fill="none" stroke="#fff" stroke-width="4" stroke-linecap="round" stroke-linejoin="round" stroke-miterlimit="10" d="M170 340.773h8"/><path fill="#CEDBE3" stroke="#231F20" stroke-width="4" stroke-linecap="round" stroke-linejoin="round" stroke-miterlimit="10" d="M158 356.773h44M162 364.773h36"/><path fill="none" stroke="#fff" stroke-width="4" stroke-linecap="round" stroke-linejoin="round" stroke-miterlimit="10" d="M178 348.773h12M186 340.773h4"/><path fill="none" stroke="#4C81B7" stroke-width="4" stroke-linecap="round" stroke-linejoin="round" stroke-miterlimit="10" d="M170 348.773h.002"/><path fill="#CEDBE3" d="M60 156.773h52v36H60z"/><path fill="#231F20" d="M112 194.773H60c-1.104 0-2-.896-2-2v-36c0-1.104.896-2 2-2h52c1.104 0 2 .896 2 2v36c0 1.105-.896 2-2 2zm-50-4h48v-32H62v32z"/><path fill="#D1B17A" d="M244 156.773h52v28h-52z"/><path fill="#231F20" d="M296 186.773h-52c-1.104 0-2-.896-2-2v-28c0-1.104.896-2 2-2h52c1.104 0 2 .896 2 2v28c0 1.105-.896 2-2 2zm-50-4h48v-24h-48v24z"/><path fill="#CEDBE3" d="M136 144.773h52v44h-52z"/><path fill="#231F20" d="M188 190.773h-52c-1.104 0-2-.896-2-2v-44c0-1.104.896-2 2-2h52c1.104 0 2 .896 2 2v44c0 1.105-.896 2-2 2zm-50-4h48v-40h-48v40z"/><path fill="#C1BEB4" d="M280 140.773h8v20h-8z"/><path fill="#231F20" d="M288 162.773h-8c-1.104 0-2-.896-2-2v-20c0-1.104.896-2 2-2h8c1.104 0 2 .896 2 2v20c0 1.105-.896 2-2 2zm-6-4h4v-16h-4v16z"/><path fill="#C1BEB4" d="M252 140.773h8v20h-8z"/><path fill="#231F20" d="M260 162.773h-8c-1.104 0-2-.896-2-2v-20c0-1.104.896-2 2-2h8c1.104 0 2 .896 2 2v20c0 1.105-.896 2-2 2zm-6-4h4v-16h-4v16z"/><path fill="#C1BEB4" d="M96 140.773h8v20h-8z"/><path fill="#231F20" d="M104 162.773h-8c-1.104 0-2-.896-2-2v-20c0-1.104.896-2 2-2h8c1.104 0 2 .896 2 2v20c0 1.105-.896 2-2 2zm-6-4h4v-16h-4v16z"/><path fill="#C1BEB4" d="M138.142 140.87l5.657 5.66-14.143 14.14-5.657-5.657z"/><path fill="#231F20" d="M129.657 162.673c-.512 0-1.023-.195-1.414-.586l-5.657-5.657c-.78-.78-.78-2.047 0-2.828l14.142-14.143c.75-.75 2.078-.75 2.828 0l5.658 5.657c.375.375.586.884.586 1.414s-.21 1.04-.586 1.415l-14.143 14.142c-.39.39-.9.586-1.413.586zm-2.828-7.657l2.828 2.83 11.314-11.314-2.83-2.83-11.313 11.314z"/><path fill="#C1BEB4" d="M180.2 146.543l5.657-5.657 14.14 14.144-5.658 5.657z"/><path fill="#231F20" d="M194.34 162.673c-.51 0-1.022-.195-1.413-.586l-14.143-14.142c-.375-.375-.586-.884-.586-1.414 0-.53.21-1.04.586-1.414l5.66-5.658c.78-.78 2.047-.78 2.828 0l14.14 14.143c.376.376.587.885.587 1.415s-.212 1.04-.587 1.415l-5.658 5.657c-.39.39-.902.586-1.414.586zM183.03 146.53l11.313 11.314 2.83-2.83-11.31-11.313-2.832 2.83z"/><path fill="#C1BEB4" d="M68 140.773h8v20h-8z"/><path fill="#231F20" d="M76 162.773h-8c-1.104 0-2-.896-2-2v-20c0-1.104.896-2 2-2h8c1.104 0 2 .896 2 2v20c0 1.105-.896 2-2 2zm-6-4h4v-16h-4v16z"/><path fill="#D1B17A" d="M252 168.773h36"/><path fill="#fff" d="M288 170.773h-36c-1.104 0-2-.896-2-2s.896-2 2-2h36c1.104 0 2 .896 2 2s-.896 2-2 2z"/><path fill="#E53355" d="M180 154.773h-36c-1.104 0-2-.896-2-2s.896-2 2-2h36c1.104 0 2 .896 2 2s-.896 2-2 2z"/><path fill="#BC1178" d="M84 170.773H68c-1.104 0-2-.896-2-2s.896-2 2-2h16c1.104 0 2 .896 2 2s-.896 2-2 2z"/><path fill="#E53355" d="M72 178.773h-4c-1.104 0-2-.896-2-2s.896-2 2-2h4c1.104 0 2 .896 2 2s-.896 2-2 2zM100 178.773H80c-1.104 0-2-.896-2-2s.896-2 2-2h20c1.104 0 2 .896 2 2s-.896 2-2 2z"/><path fill="#BC1178" d="M104 170.773H92c-1.104 0-2-.896-2-2s.896-2 2-2h12c1.104 0 2 .896 2 2s-.896 2-2 2z"/><path fill="#CEDBE3" d="M48 244.773h64v24H48z"/><path fill="#231F20" d="M112 270.773H48c-1.104 0-2-.896-2-2v-24c0-1.104.896-2 2-2h64c1.104 0 2 .896 2 2v24c0 1.105-.896 2-2 2zm-62-4h60v-20H50v20z"/><path fill="#BC1178" d="M72.615 254.773h-14.77c-1.104 0-2-.896-2-2s.896-2 2-2h14.77c1.104 0 2 .896 2 2s-.895 2-2 2zM67.692 262.773h-9.847c-1.104 0-2-.896-2-2s.896-2 2-2h9.847c1.104 0 2 .896 2 2s-.895 2-2 2z"/><path fill="#E53355" d="M164 162.773h-20c-1.104 0-2-.896-2-2s.896-2 2-2h20c1.104 0 2 .896 2 2s-.896 2-2 2z"/><path fill="#CD8D06" d="M172 170.773h-20c-1.104 0-2-.896-2-2s.896-2 2-2h20c1.104 0 2 .896 2 2s-.896 2-2 2z"/><path fill="#4D4012" d="M168 174.773h-12c-1.104 0-2-.896-2-2s.896-2 2-2h12c1.104 0 2 .896 2 2s-.896 2-2 2z"/><path fill="#CD8D06" d="M172 178.773h-20c-1.104 0-2-.896-2-2s.896-2 2-2h20c1.104 0 2 .896 2 2s-.896 2-2 2zM102.153 254.773h-14.77c-1.104 0-2-.896-2-2s.896-2 2-2h14.77c1.104 0 2 .896 2 2s-.895 2-2 2z"/><path fill="#4D4012" d="M99.2 258.773h-8.86c-1.105 0-2-.896-2-2s.895-2 2-2h8.86c1.103 0 2 .896 2 2s-.896 2-2 2z"/><path fill="#CD8D06" d="M102.153 262.773h-14.77c-1.104 0-2-.896-2-2s.896-2 2-2h14.77c1.104 0 2 .896 2 2s-.895 2-2 2z"/><path fill="#CEDBE3" d="M208 244.773h64v24h-64z"/><path fill="#231F20" d="M272 270.773h-64c-1.104 0-2-.896-2-2v-24c0-1.104.896-2 2-2h64c1.104 0 2 .896 2 2v24c0 1.105-.896 2-2 2zm-62-4h60v-20h-60v20z"/><path fill="#CD8D06" d="M230.77 254.773H216c-1.104 0-2-.896-2-2s.896-2 2-2h14.77c1.104 0 2 .896 2 2s-.896 2-2 2z"/><path fill="#4D4012" d="M227.816 258.773h-8.86c-1.105 0-2-.896-2-2s.895-2 2-2h8.86c1.104 0 2 .896 2 2s-.896 2-2 2z"/><path fill="#CD8D06" d="M230.77 262.773H216c-1.104 0-2-.896-2-2s.896-2 2-2h14.77c1.104 0 2 .896 2 2s-.896 2-2 2z"/><path fill="#D1B17A" d="M252 176.773h20"/><path fill="#333" d="M272 178.773h-20c-1.104 0-2-.896-2-2s.896-2 2-2h20c1.104 0 2 .896 2 2s-.896 2-2 2z"/><path fill="#CEDBE3" d="M25.98 180.002l.02.013v-15.24l-9.416 9.416.143.09c-2.73-.973-5.665-1.506-8.727-1.506-3.062 0-5.998.533-8.727 1.506l.145-.09-9.418-9.417v15.24l.02-.012c-4.94 4.734-8.02 11.392-8.02 18.773v182h52v-182c0-7.38-3.08-14.04-8.02-18.77z"/><path fill="#231F20" d="M34 382.773h-52c-1.104 0-2-.896-2-2v-182c0-7.402 2.834-14.322 8-19.585v-14.415c0-.81.487-1.538 1.234-1.848.747-.31 1.607-.14 2.18.434l8.58 8.58c5.19-1.55 10.826-1.55 16.012 0l8.58-8.582c.57-.573 1.433-.744 2.18-.434.747.31 1.234 1.04 1.234 1.848v14.415c5.166 5.264 8 12.184 8 19.585v182c0 1.106-.896 2-2 2zm-50-4h48v-180c0-6.6-2.63-12.753-7.405-17.327-.483-.462-.687-1.115-.595-1.738v-10.106l-5.415 5.415c-.018.044-.037.088-.058.132-.444.918-1.508 1.358-2.472 1.013-5.174-1.844-10.937-1.844-16.11 0-.966.345-2.033-.096-2.475-1.02-.02-.042-.04-.086-.057-.13L-8 169.604v10.167c.075.604-.127 1.228-.595 1.677C-13.37 186.02-16 192.173-16 198.773v180z"/><path fill="#BC1178" d="M18 202.773H-2c-3.313 0-6-2.687-6-6s2.687-6 6-6h20c3.313 0 6 2.687 6 6s-2.687 6-6 6zM14 218.773H2c-3.313 0-6-2.687-6-6s2.687-6 6-6h12c3.313 0 6 2.687 6 6s-2.687 6-6 6zM14 248.773H2c-2.21 0-4-1.79-4-4s1.79-4 4-4h12c2.21 0 4 1.79 4 4s-1.79 4-4 4z"/><path fill="#CD8D06" d="M18 230.773H-2c-1.104 0-2-.896-2-2s.896-2 2-2h20c1.104 0 2 .896 2 2s-.896 2-2 2z"/><path fill="#4D4012" d="M14 234.773H2c-1.104 0-2-.896-2-2s.896-2 2-2h12c1.104 0 2 .896 2 2s-.896 2-2 2z"/><path fill="#CD8D06" d="M18 238.773H-2c-1.104 0-2-.896-2-2s.896-2 2-2h20c1.104 0 2 .896 2 2s-.896 2-2 2z"/><path fill="#BC1178" d="M15.95 277.805l.05.026v-7.057l-4.518 4.516.01.003c-1.107-.336-2.28-.52-3.492-.52-1.22 0-2.395.185-3.504.522l.017-.01L0 270.774v7.057l.048-.027C-2.432 280-4 283.2-4 286.773c0 6.628 5.37 12 12 12 6.627 0 12-5.372 12-12 0-3.572-1.57-6.77-4.05-8.968z"/><path fill="#231F20" d="M8 300.773c-7.72 0-14-6.28-14-14 0-3.66 1.447-7.17 4-9.78v-6.22c0-.81.487-1.538 1.235-1.848.747-.31 1.607-.14 2.18.434l3.71 3.71c1.888-.395 3.856-.395 5.747 0l3.714-3.71c.572-.573 1.43-.745 2.18-.435.747.31 1.234 1.04 1.234 1.848v6.223c2.553 2.61 4 6.12 4 9.777 0 7.72-6.28 14-14 14zm-6-23.3c.122.658-.09 1.353-.625 1.826C-.77 281.2-2 283.925-2 286.772c0 5.514 4.486 10 10 10s10-4.486 10-10c0-2.846-1.23-5.57-3.376-7.473-.56-.496-.78-1.244-.624-1.937V275.6l-.998.996c-.502.584-1.315.846-2.092.61-1.898-.58-3.938-.576-5.832 0-.815.252-1.68-.05-2.175-.702l-.903-.9v1.868z"/><circle fill="#CEDBE3" cx="4" cy="284.773" r="2"/><path fill="#CEDBE3" d="M6 292.898c-1.105 0-2-.896-2-2s.895-2 2-2h4c1.104 0 2 .896 2 2s-.896 2-2 2H6z"/><circle fill="#CEDBE3" cx="12" cy="284.773" r="2"/><circle fill="#BC1178" cx="10" cy="290.898" r="1"/><circle fill="#BC1178" cx="6" cy="290.898" r="1"/><path fill="#CEDBE3" d="M374 194.773c0-14.36-11.64-26-26-26s-26 11.64-26 26v186h52.002l-.002-186z"/><path fill="#231F20" d="M374 382.773h-52c-1.104 0-2-.896-2-2v-186c0-15.44 12.56-28 28-28s28 12.56 28 28l.002 186c0 .53-.21 1.04-.586 1.414s-.884.586-1.415.586zm-50-4h48.002l-.002-184c0-13.234-10.767-24-24-24s-24 10.766-24 24v184z"/><path fill="#CD8D06" d="M362 192.773h-28c-2.21 0-4-1.79-4-4s1.79-4 4-4h28c2.21 0 4 1.79 4 4s-1.792 4-4 4z"/><path fill="#4D4012" d="M356.4 200.773h-16.8c-2.208 0-4-1.79-4-4s1.792-4 4-4h16.8c2.21 0 4 1.79 4 4s-1.79 4-4 4z"/><path fill="#B2B69E" d="M334 242.773c-3.313 0-6-2.687-6-6v-16.8c0-3.312 2.687-6 6-6s6 2.688 6 6v16.8c0 3.314-2.687 6-6 6z"/><path fill="#005727" d="M348 250.773c-3.313 0-6-2.687-6-6v-16.8c0-3.312 2.687-6 6-6s6 2.688 6 6v16.8c0 3.314-2.687 6-6 6z"/><path fill="#D1504F" d="M362 243.572c-3.313 0-6-2.687-6-6v-16.8c0-3.312 2.687-6 6-6s6 2.688 6 6v16.8c0 3.314-2.687 6-6 6z"/><path fill="#CD8D06" d="M362 208.773h-28c-2.21 0-4-1.79-4-4s1.79-4 4-4h28c2.21 0 4 1.79 4 4s-1.792 4-4 4zM362 278.773h-28c-1.104 0-2-.896-2-2s.896-2 2-2h28c1.104 0 2 .896 2 2s-.896 2-2 2z"/><path fill="#333" d="M330.003 314.77c-.53 0-1.05-.21-1.42-.58s-.58-.89-.58-1.42c0-.52.21-1.04.58-1.41.74-.74 2.08-.75 2.83 0 .37.37.59.89.59 1.41 0 .53-.22 1.04-.59 1.42-.37.37-.89.58-1.41.58zM338 330.773h-8c-1.104 0-2-.896-2-2s.896-2 2-2h8c1.104 0 2 .896 2 2s-.896 2-2 2zM334 338.773h-4c-1.104 0-2-.896-2-2s.896-2 2-2h4c1.104 0 2 .896 2 2s-.896 2-2 2zM334 346.773h-4c-1.104 0-2-.896-2-2s.896-2 2-2h4c1.104 0 2 .896 2 2s-.896 2-2 2zM354 338.773h-12c-1.104 0-2-.896-2-2s.896-2 2-2h12c1.104 0 2 .896 2 2s-.896 2-2 2zM358 346.773h-16c-1.104 0-2-.896-2-2s.896-2 2-2h16c1.104 0 2 .896 2 2s-.896 2-2 2zM342 314.773h-4c-1.104 0-2-.896-2-2s.896-2 2-2h4c1.104 0 2 .896 2 2s-.896 2-2 2zM346 322.773h-4c-1.104 0-2-.896-2-2s.896-2 2-2h4c1.104 0 2 .896 2 2s-.896 2-2 2zM354 330.773h-8c-1.104 0-2-.896-2-2s.896-2 2-2h8c1.104 0 2 .896 2 2s-.896 2-2 2zM366 322.773h-12c-1.104 0-2-.896-2-2s.896-2 2-2h12c1.104 0 2 .896 2 2s-.896 2-2 2zM366.003 314.77c-.53 0-1.04-.21-1.42-.58-.37-.38-.58-.89-.58-1.42 0-.52.21-1.04.58-1.41.75-.75 2.08-.75 2.83 0 .37.37.59.89.59 1.41 0 .53-.22 1.04-.59 1.42-.37.37-.89.58-1.41.58zM366 330.773h-4c-1.104 0-2-.896-2-2s.896-2 2-2h4c1.104 0 2 .896 2 2s-.896 2-2 2zM334 322.773h-4c-1.104 0-2-.896-2-2s.896-2 2-2h4c1.104 0 2 .896 2 2s-.896 2-2 2zM358 314.773h-8c-1.104 0-2-.896-2-2s.896-2 2-2h8c1.104 0 2 .896 2 2s-.896 2-2 2z"/><path fill="#4D4012" d="M360.4 282.773h-24.8c-1.103 0-2-.896-2-2s.897-2 2-2h24.8c1.104 0 2 .896 2 2s-.896 2-2 2z"/><path fill="#005727" d="M360.4 286.773h-24.8c-1.103 0-2-.896-2-2s.897-2 2-2h24.8c1.104 0 2 .896 2 2s-.896 2-2 2z"/><path fill="#CD8D06" d="M362 290.773h-28c-1.104 0-2-.896-2-2s.896-2 2-2h28c1.104 0 2 .896 2 2s-.896 2-2 2z"/><path fill="#B2B69E" d="M240 264.38c-2.21 0-4-1.79-4-4v-6.396c0-2.21 1.79-4 4-4s4 1.79 4 4v6.396c0 2.21-1.792 4-4 4z"/><path fill="#005727" d="M252 264.38c-2.21 0-4-1.79-4-4v-6.396c0-2.21 1.79-4 4-4s4 1.79 4 4v6.396c0 2.21-1.792 4-4 4z"/><path fill="#D1504F" d="M264 264.38c-2.21 0-4-1.79-4-4v-6.396c0-2.21 1.79-4 4-4s4 1.79 4 4v6.396c0 2.21-1.792 4-4 4z"/></svg>