<svg xmlns="http://www.w3.org/2000/svg" width="428" height="400" viewBox="-15.833 0 428 400" enable-background="new -15.833 0 428 400"><path fill="#958066" d="M354.167 378c0 2.21-1.79 4-4 4h-344c-2.21 0-4-1.79-4-4V274h352v104z"/><path fill="#FEDE0F" d="M350.167 106h-4c-52-8-168-60-168-72 0 12-116 64-168 72h-4c-2.21 0-4 1.79-4 4v40h352v-40c0-2.21-1.79-4-4-4z"/><path fill="#C4A72E" d="M354.167 146c0 2.21-1.79 4-4 4h-344c-2.21 0-4-1.79-4-4v-36c0-2.21 1.79-4 4-4h344c2.21 0 4 1.79 4 4v36z"/><path fill="#231F20" d="M354.167 152h-352c-1.104 0-2-.896-2-2v-40c0-3.31 2.69-6 6-6h3.846c27.592-4.28 71.03-20.457 102.522-34.188 43.548-18.988 63.424-32.373 63.63-35.814v-.05c.026-1.082.912-1.95 2-1.95 1.106 0 2 .898 2 2.003.204 3.436 20.08 16.822 63.633 35.813C275.29 83.543 318.73 99.72 346.32 104h3.848c3.31 0 6 2.69 6 6v40c0 1.104-.896 2-2 2zm-350-4h348v-38c0-1.103-.897-2-2-2h-4c-.102 0-.203-.008-.304-.023C317.8 103.66 273.74 87.25 241.866 73.333c-17.94-7.833-34.188-15.79-45.756-22.41-10.5-6.01-15.563-9.945-17.944-12.69-2.38 2.745-7.443 6.68-17.944 12.69-11.566 6.62-27.816 14.577-45.755 22.41C82.593 87.25 38.535 103.66 10.472 107.977c-.1.016-.203.023-.304.023h-4c-1.103 0-2 .897-2 2v38zM350.167 152h-344c-3.31 0-6-2.69-6-6v-36c0-3.31 2.69-6 6-6h344c3.31 0 6 2.69 6 6v36c0 3.31-2.69 6-6 6zm-344-44c-1.103 0-2 .897-2 2v36c0 1.103.897 2 2 2h344c1.103 0 2-.897 2-2v-36c0-1.103-.897-2-2-2h-344z"/><path fill="#C1BEB4" d="M2.167 150h12v124h-12z"/><path fill="#231F20" d="M14.167 276h-12c-1.104 0-2-.896-2-2V150c0-1.104.896-2 2-2h12c1.104 0 2 .896 2 2v124c0 1.104-.895 2-2 2zm-10-4h8V152h-8v120z"/><path fill="#C1BEB4" d="M342.167 150h12v124h-12z"/><path fill="#231F20" d="M354.167 276h-12c-1.104 0-2-.896-2-2V150c0-1.104.896-2 2-2h12c1.104 0 2 .896 2 2v124c0 1.104-.895 2-2 2zm-10-4h8V152h-8v120zM350.167 384h-344c-3.31 0-6-2.69-6-6V274c0-1.104.896-2 2-2h352c1.104 0 2 .896 2 2v104c0 3.31-2.69 6-6 6zm-346-108v102c0 1.103.897 2 2 2h344c1.103 0 2-.897 2-2V276h-348z"/><path fill="#5A4A42" d="M14.167 262h328v12h-328z"/><path fill="#231F20" d="M342.167 276h-328c-1.104 0-2-.896-2-2v-12c0-1.104.896-2 2-2h328c1.104 0 2 .896 2 2v12c0 1.104-.895 2-2 2zm-326-4h324v-8h-324v8z"/><path fill="#939A9F" d="M86.167 258c0 2.21-1.79 4-4 4h-56c-2.21 0-4-1.79-4-4v-16c0-2.21 1.79-4 4-4h56c2.21 0 4 1.79 4 4v16z"/><path fill="#231F20" d="M82.167 264h-56c-3.31 0-6-2.69-6-6v-16c0-3.31 2.69-6 6-6h56c3.31 0 6 2.69 6 6v16c0 3.31-2.69 6-6 6zm-56-24c-1.103 0-2 .897-2 2v16c0 1.103.897 2 2 2h56c1.103 0 2-.897 2-2v-16c0-1.103-.897-2-2-2h-56z"/><path fill="#939A9F" d="M126.167 234c0-2.21-1.79-4-4-4h-32c-2.21 0-4 1.79-4 4v8h40v-8z"/><path fill="#231F20" d="M126.167 244h-40c-1.104 0-2-.896-2-2v-8c0-3.31 2.69-6 6-6h32c3.31 0 6 2.69 6 6v8c0 1.104-.895 2-2 2zm-38-4h36v-6c0-1.103-.897-2-2-2h-32c-1.103 0-2 .897-2 2v6z"/><path fill="#442B1B" d="M90.167 262.5c-.276 0-.5-.224-.5-.5v-24c0-.276.224-.5.5-.5s.5.224.5.5v24c0 .276-.223.5-.5.5z"/><path fill="#5D3E28" d="M126.167 258c0 2.21-1.79 4-4 4h-32c-2.21 0-4-1.79-4-4v-20h40v20z"/><path fill="#231F20" d="M122.167 264h-32c-3.31 0-6-2.69-6-6v-20c0-1.104.896-2 2-2h40c1.104 0 2 .896 2 2v20c0 3.31-2.69 6-6 6zm-34-24v18c0 1.103.897 2 2 2h32c1.103 0 2-.897 2-2v-18h-36zM122.167 264h-32c-3.31 0-6-2.69-6-6v-20c0-1.104.896-2 2-2h40c1.104 0 2 .896 2 2v20c0 3.31-2.69 6-6 6zm-34-24v18c0 1.103.897 2 2 2h32c1.103 0 2-.897 2-2v-18h-36z"/><path fill="#939A9F" d="M166.167 234c0-2.21-1.79-4-4-4h-32c-2.21 0-4 1.79-4 4v8h40v-8z"/><path fill="#231F20" d="M166.167 244h-40c-1.104 0-2-.896-2-2v-8c0-3.31 2.69-6 6-6h32c3.31 0 6 2.69 6 6v8c0 1.104-.895 2-2 2zm-38-4h36v-6c0-1.103-.897-2-2-2h-32c-1.103 0-2 .897-2 2v6z"/><path fill="#5D3E28" d="M166.167 258c0 2.21-1.79 4-4 4h-32c-2.21 0-4-1.79-4-4v-20h40v20z"/><path fill="#231F20" d="M162.167 264h-32c-3.31 0-6-2.69-6-6v-20c0-1.104.896-2 2-2h40c1.104 0 2 .896 2 2v20c0 3.31-2.69 6-6 6zm-34-24v18c0 1.103.897 2 2 2h32c1.103 0 2-.897 2-2v-18h-36zM162.167 264h-32c-3.31 0-6-2.69-6-6v-20c0-1.104.896-2 2-2h40c1.104 0 2 .896 2 2v20c0 3.31-2.69 6-6 6zm-34-24v18c0 1.103.897 2 2 2h32c1.103 0 2-.897 2-2v-18h-36z"/><path fill="#FCEE22" d="M290.167 234v20c0 2.21-1.79 4-4 4s-4-1.79-4-4v-20l4-4 4 4z"/><path fill="#231F20" d="M286.167 260c-3.31 0-6-2.69-6-6v-20c0-.53.21-1.04.586-1.414l4-4c.78-.78 2.047-.78 2.828 0l4 4c.376.375.587.884.587 1.414v20c0 3.31-2.69 6-6 6zm-2-25.172V254c0 1.103.897 2 2 2s2-.897 2-2v-19.172l-2-2-2 2z"/><path fill="#FCEE22" d="M286.167 230v-4"/><path fill="#231F20" d="M286.167 232c-1.104 0-2-.896-2-2v-4c0-1.104.896-2 2-2s2 .896 2 2v4c0 1.104-.895 2-2 2z"/><path fill="#FCEE22" d="M274.167 234v20c0 2.21-1.79 4-4 4s-4-1.79-4-4v-20l4-4 4 4z"/><path fill="#231F20" d="M270.167 260c-3.31 0-6-2.69-6-6v-20c0-.53.21-1.04.586-1.414l4-4c.78-.78 2.047-.78 2.828 0l4 4c.376.375.587.884.587 1.414v20c0 3.31-2.69 6-6 6zm-2-25.172V254c0 1.103.897 2 2 2s2-.897 2-2v-19.172l-2-2-2 2z"/><path fill="#FCEE22" d="M270.167 230v-4"/><path fill="#231F20" d="M270.167 232c-1.104 0-2-.896-2-2v-4c0-1.104.896-2 2-2s2 .896 2 2v4c0 1.104-.895 2-2 2z"/><path fill="#5D3E28" d="M254.167 236c0 12.15-9.85 22-22 22s-22-9.85-22-22h44z"/><path fill="#231F20" d="M232.167 260c-13.233 0-24-10.767-24-24 0-1.104.896-2 2-2h44c1.104 0 2 .896 2 2 0 13.233-10.766 24-24 24zm-19.9-22c1.007 10.092 9.548 18 19.9 18s18.894-7.908 19.9-18h-39.8zM232.167 260c-13.233 0-24-10.767-24-24 0-1.104.896-2 2-2h44c1.104 0 2 .896 2 2 0 13.233-10.766 24-24 24zm-19.9-22c1.007 10.092 9.548 18 19.9 18s18.894-7.908 19.9-18h-39.8z"/><path fill="#2B2E31" d="M410.167 110.363c0-2.41-1.79-4.363-4-4.363h-52c-2.21 0-4 1.954-4 4.363v99.273c0 2.41 1.79 4.363 4 4.363h52c2.21 0 4-1.955 4-4.364v-99.273z"/><path fill="#231F20" d="M406.167 216h-52c-3.31 0-6-2.854-6-6.363v-99.273c0-3.51 2.69-6.363 6-6.363h52c3.31 0 6 2.855 6 6.364v99.273c0 3.51-2.69 6.363-6 6.363zm-52-108c-1.103 0-2 1.06-2 2.363v99.273c0 1.303.897 2.363 2 2.363h52c1.103 0 2-1.062 2-2.364v-99.273c0-1.303-.897-2.363-2-2.363h-52z"/><path fill="none" stroke="#231F20" stroke-width="4" stroke-linecap="round" stroke-linejoin="round" stroke-miterlimit="10" d="M238.167 186"/><path fill="#2B2E31" d="M278.167 98.363c0-2.41-1.79-4.363-4-4.363h-184c-2.21 0-4 1.954-4 4.363v39.273c0 2.41 1.79 4.363 4 4.363h184c2.21 0 4-1.955 4-4.364V98.363z"/><path fill="#231F20" d="M274.167 144h-184c-3.31 0-6-2.854-6-6.363V98.363c0-3.51 2.69-6.363 6-6.363h184c3.31 0 6 2.854 6 6.363v39.273c0 3.51-2.69 6.364-6 6.364zm-184-48c-1.103 0-2 1.06-2 2.363v39.273c0 1.303.897 2.363 2 2.363h184c1.103 0 2-1.06 2-2.364V98.363c0-1.303-.897-2.363-2-2.363h-184z"/><g fill="#fff"><path d="M170.167 114h-36c-2.21 0-4-1.79-4-4s1.79-4 4-4h36c2.21 0 4 1.79 4 4s-1.79 4-4 4zM230.167 114h-44c-2.21 0-4-1.79-4-4s1.79-4 4-4h44c2.21 0 4 1.79 4 4s-1.79 4-4 4z"/></g><g fill="#fff"><path d="M142.167 128h-20c-1.104 0-2-.896-2-2s.896-2 2-2h20c1.104 0 2 .896 2 2s-.895 2-2 2zM175.5 128h-20c-1.104 0-2-.896-2-2s.896-2 2-2h20.002c1.104 0 2 .896 2 2s-.896 2-2 2zM208.835 128h-20c-1.104 0-2-.896-2-2s.896-2 2-2h20c1.104 0 2 .896 2 2s-.895 2-2 2zM242.167 128H222.17c-1.105 0-2-.896-2-2s.895-2 2-2h19.997c1.104 0 2 .896 2 2s-.895 2-2 2z"/></g><path fill="#fff" d="M394.167 120h-28c-1.104 0-2-.896-2-2s.896-2 2-2h28c1.104 0 2 .896 2 2s-.895 2-2 2zM388.167 136h-28c-1.104 0-2-.896-2-2s.896-2 2-2h28c1.104 0 2 .896 2 2s-.895 2-2 2zM376.167 144h-16c-1.104 0-2-.896-2-2s.896-2 2-2h16c1.104 0 2 .896 2 2s-.895 2-2 2zM400.167 144h-16c-1.104 0-2-.896-2-2s.896-2 2-2h16c1.104 0 2 .896 2 2s-.895 2-2 2zM372.167 160h-12c-1.104 0-2-.896-2-2s.896-2 2-2h12c1.104 0 2 .896 2 2s-.895 2-2 2zM376.167 168h-16c-1.104 0-2-.896-2-2s.896-2 2-2h16c1.104 0 2 .896 2 2s-.895 2-2 2zM400.167 168h-16c-1.104 0-2-.896-2-2s.896-2 2-2h16c1.104 0 2 .896 2 2s-.895 2-2 2zM368.167 184h-8c-1.104 0-2-.896-2-2s.896-2 2-2h8c1.104 0 2 .896 2 2s-.895 2-2 2zM384.167 199h-28c-.553 0-1-.448-1-1s.447-1 1-1h28c.553 0 1 .448 1 1s-.447 1-1 1zM380.167 203h-24c-.553 0-1-.447-1-1s.447-1 1-1h24c.553 0 1 .447 1 1s-.447 1-1 1zM380.167 207h-24c-.553 0-1-.447-1-1s.447-1 1-1h24c.553 0 1 .447 1 1s-.447 1-1 1zM384.167 184h-8c-1.104 0-2-.896-2-2s.896-2 2-2h8c1.104 0 2 .896 2 2s-.895 2-2 2zM400.167 184h-8c-1.104 0-2-.896-2-2s.896-2 2-2h8c1.104 0 2 .896 2 2s-.895 2-2 2z"/><path fill="#C1BEB4" d="M198.167 78h8v20h-8z"/><path fill="#231F20" d="M206.167 100h-8c-1.104 0-2-.896-2-2V78c0-1.104.896-2 2-2h8c1.104 0 2 .896 2 2v20c0 1.104-.895 2-2 2zm-6-4h4V80h-4v16z"/><path fill="#C1BEB4" d="M171.324 83.427l7.428-2.972 7.43 18.57-7.428 2.972z"/><path fill="#231F20" d="M178.74 104c-.268 0-.537-.054-.788-.162-.488-.21-.873-.603-1.07-1.096l-7.427-18.57c-.41-1.024.088-2.188 1.114-2.6l7.427-2.97c.493-.197 1.042-.19 1.53.018.488.21.873.603 1.07 1.096l7.428 18.57c.41 1.024-.09 2.188-1.114 2.6l-7.427 2.97c-.24.096-.49.144-.743.144zm-4.828-19.455l5.942 14.855 3.714-1.486-5.942-14.855-3.714 1.485z"/><path fill="#C1BEB4" d="M335.616 162.004l-2.97-7.428 18.57-7.425 2.97 7.43z"/><path fill="#231F20" d="M335.6 164c-.794 0-1.545-.476-1.857-1.257l-2.973-7.428c-.197-.493-.19-1.043.02-1.53.207-.49.602-.874 1.094-1.07l18.57-7.428c.495-.196 1.043-.19 1.53.02.488.208.873.602 1.07 1.095l2.97 7.428c.41 1.025-.088 2.19-1.113 2.6l-18.567 7.428c-.245.097-.496.142-.743.142zm-.374-8.313l1.487 3.714 14.854-5.94-1.485-3.715-14.856 5.942z"/><path fill="#C1BEB4" d="M335.616 180.86l-2.97-7.427 18.57-7.426 2.97 7.428z"/><path fill="#231F20" d="M335.6 182.856c-.794 0-1.545-.476-1.857-1.257l-2.973-7.43c-.197-.492-.19-1.042.02-1.53.207-.488.602-.873 1.094-1.07l18.57-7.427c.495-.197 1.043-.19 1.53.02.488.208.873.602 1.07 1.095l2.97 7.428c.41 1.025-.088 2.19-1.113 2.6l-18.567 7.428c-.245.096-.496.142-.743.142zm-.374-8.314l1.487 3.714 14.854-5.942-1.485-3.714-14.856 5.942z"/><path fill="#2B2E31" d="M362.167 246.363c0-2.41-1.79-4.363-4-4.363h-52c-2.21 0-4 1.954-4 4.363v123.273c0 2.41 1.79 4.363 4 4.363h52c2.21 0 4-1.955 4-4.364V246.363z"/><path fill="#231F20" d="M358.167 376h-52c-3.31 0-6-2.854-6-6.363V246.363c0-3.51 2.69-6.363 6-6.363h52c3.31 0 6 2.854 6 6.363v123.273c0 3.51-2.69 6.364-6 6.364zm-52-132c-1.103 0-2 1.06-2 2.363v123.273c0 1.303.897 2.363 2 2.363h52c1.103 0 2-1.062 2-2.364V246.363c0-1.303-.897-2.363-2-2.363h-52z"/><path fill="#fff" d="M346.167 258h-28c-2.21 0-4-1.79-4-4s1.79-4 4-4h28c2.21 0 4 1.79 4 4s-1.79 4-4 4z"/><g fill="#fff"><path d="M319.44 263h-7.272c-.553 0-1-.447-1-1s.447-1 1-1h7.273c.554 0 1 .447 1 1s-.446 1-1 1zM330.35 263h-7.272c-.553 0-1-.447-1-1s.447-1 1-1h7.27c.554 0 1 .447 1 1s-.446 1-1 1zM341.26 263h-7.274c-.553 0-1-.447-1-1s.447-1 1-1h7.273c.552 0 1 .447 1 1s-.448 1-1 1zM352.167 263h-7.27c-.554 0-1-.447-1-1s.446-1 1-1h7.27c.553 0 1 .447 1 1s-.447 1-1 1z"/></g><path fill="#fff" d="M340.167 280h-16c-1.104 0-2-.896-2-2s.896-2 2-2h16c1.104 0 2 .896 2 2s-.895 2-2 2zM340.167 312h-16c-1.104 0-2-.896-2-2s.896-2 2-2h16c1.104 0 2 .896 2 2s-.895 2-2 2z"/><g fill="#fff"><path d="M330.167 328h-20c-1.104 0-2-.896-2-2s.896-2 2-2h20c1.104 0 2 .896 2 2s-.895 2-2 2zM354.167 328h-16c-1.104 0-2-.896-2-2s.896-2 2-2h16c1.104 0 2 .896 2 2s-.895 2-2 2zM330.167 344h-20c-1.104 0-2-.896-2-2s.896-2 2-2h20c1.104 0 2 .896 2 2s-.895 2-2 2zM354.167 344h-16c-1.104 0-2-.896-2-2s.896-2 2-2h16c1.104 0 2 .896 2 2s-.895 2-2 2zM330.167 360h-20c-1.104 0-2-.896-2-2s.896-2 2-2h20c1.104 0 2 .896 2 2s-.895 2-2 2zM354.167 360h-16c-1.104 0-2-.896-2-2s.896-2 2-2h16c1.104 0 2 .896 2 2s-.895 2-2 2z"/></g><g fill="#fff"><path d="M328.167 296h-12c-1.104 0-2-.896-2-2s.896-2 2-2h12c1.104 0 2 .896 2 2s-.895 2-2 2zM348.167 296h-12c-1.104 0-2-.896-2-2s.896-2 2-2h12c1.104 0 2 .896 2 2s-.895 2-2 2z"/></g><path fill="#2B2E31" d="M290.167 278.363c0-2.41-1.79-4.363-4-4.363h-280c-2.21 0-4 1.954-4 4.363v99.273c0 2.41 1.79 4.363 4 4.363h280c2.21 0 4-1.955 4-4.364v-99.273z"/><path fill="#231F20" d="M286.167 384h-280c-3.31 0-6-2.854-6-6.363v-99.273c0-3.51 2.69-6.363 6-6.363h280c3.31 0 6 2.855 6 6.364v99.273c0 3.51-2.69 6.363-6 6.363zm-280-108c-1.103 0-2 1.06-2 2.363v99.273c0 1.303.897 2.363 2 2.363h280c1.103 0 2-1.062 2-2.364v-99.273c0-1.303-.897-2.363-2-2.363h-280z"/><path fill="#fff" d="M46.167 300h-28c-1.104 0-2-.896-2-2s.896-2 2-2h28c1.104 0 2 .896 2 2s-.895 2-2 2zM266.167 296h-40c-1.104 0-2-.896-2-2s.896-2 2-2h40c1.104 0 2 .896 2 2s-.895 2-2 2zM266.167 304h-40c-1.104 0-2-.896-2-2s.896-2 2-2h40c1.104 0 2 .896 2 2s-.895 2-2 2zM254.167 312h-28c-1.104 0-2-.896-2-2s.896-2 2-2h28c1.104 0 2 .896 2 2s-.895 2-2 2zM254.167 320h-28c-1.104 0-2-.896-2-2s.896-2 2-2h28c1.104 0 2 .896 2 2s-.895 2-2 2zM262.167 328h-36c-1.104 0-2-.896-2-2s.896-2 2-2h36c1.104 0 2 .896 2 2s-.895 2-2 2zM274.167 348h-48c-1.104 0-2-.896-2-2s.896-2 2-2h48c1.104 0 2 .896 2 2s-.895 2-2 2zM274.167 356h-48c-1.104 0-2-.896-2-2s.896-2 2-2h48c1.104 0 2 .896 2 2s-.895 2-2 2zM246.167 364h-20c-1.104 0-2-.896-2-2s.896-2 2-2h20c1.104 0 2 .896 2 2s-.895 2-2 2zM274.167 364h-20c-1.104 0-2-.896-2-2s.896-2 2-2h20c1.104 0 2 .896 2 2s-.895 2-2 2zM246.167 336h-20c-1.104 0-2-.896-2-2s.896-2 2-2h20c1.104 0 2 .896 2 2s-.895 2-2 2zM54.167 308h-36c-1.104 0-2-.896-2-2s.896-2 2-2h36c1.104 0 2 .896 2 2s-.895 2-2 2zM46.167 324h-28c-1.104 0-2-.896-2-2s.896-2 2-2h28c1.104 0 2 .896 2 2s-.895 2-2 2zM54.167 332h-36c-1.104 0-2-.896-2-2s.896-2 2-2h36c1.104 0 2 .896 2 2s-.895 2-2 2zM30.167 348h-12c-1.104 0-2-.896-2-2s.896-2 2-2h12c1.104 0 2 .896 2 2s-.895 2-2 2zM66.167 356h-48c-1.104 0-2-.896-2-2s.896-2 2-2h48c1.104 0 2 .896 2 2s-.895 2-2 2z"/><g fill="#fff"><path d="M134.167 318h-36c-2.21 0-4-1.79-4-4s1.79-4 4-4h36c2.21 0 4 1.79 4 4s-1.79 4-4 4zM194.167 318h-44c-2.21 0-4-1.79-4-4s1.79-4 4-4h44c2.21 0 4 1.79 4 4s-1.79 4-4 4z"/></g><g fill="#fff"><path d="M122.167 304h-12c-1.104 0-2-.896-2-2s.896-2 2-2h12c1.104 0 2 .896 2 2s-.895 2-2 2zM142.167 304h-12c-1.104 0-2-.896-2-2s.896-2 2-2h12c1.104 0 2 .896 2 2s-.895 2-2 2zM162.167 304h-12c-1.104 0-2-.896-2-2s.896-2 2-2h12c1.104 0 2 .896 2 2s-.895 2-2 2zM182.167 304h-12c-1.103 0-2-.896-2-2s.897-2 2-2h12c1.104 0 2 .896 2 2s-.895 2-2 2z"/></g><g fill="#fff"><path d="M142.167 360h-20c-1.104 0-2-.896-2-2s.896-2 2-2h20c1.104 0 2 .896 2 2s-.895 2-2 2zM170.167 360h-20c-1.104 0-2-.896-2-2s.896-2 2-2h20c1.104 0 2 .896 2 2s-.895 2-2 2z"/></g><g fill="#fff"><path d="M152.167 336h-12c-1.104 0-2-.896-2-2s.896-2 2-2h12c1.104 0 2 .896 2 2s-.895 2-2 2zM132.167 336h-12c-1.104 0-2-.896-2-2s.896-2 2-2h12c1.104 0 2 .896 2 2s-.895 2-2 2zM112.167 336h-12c-1.104 0-2-.896-2-2s.896-2 2-2h12c1.104 0 2 .896 2 2s-.895 2-2 2zM172.167 336h-12c-1.104 0-2-.896-2-2s.896-2 2-2h12c1.104 0 2 .896 2 2s-.895 2-2 2zM192.167 336h-12c-1.104 0-2-.896-2-2s.896-2 2-2h12c1.104 0 2 .896 2 2s-.895 2-2 2z"/></g><g fill="#fff"><path d="M102.167 348h-8c-1.104 0-2-.896-2-2s.896-2 2-2h8c1.104 0 2 .896 2 2s-.895 2-2 2zM118.167 348h-8c-1.104 0-2-.896-2-2s.896-2 2-2h8c1.104 0 2 .896 2 2s-.895 2-2 2zM134.167 348h-8c-1.104 0-2-.896-2-2s.896-2 2-2h8c1.104 0 2 .896 2 2s-.895 2-2 2zM150.167 348h-8c-1.104 0-2-.896-2-2s.896-2 2-2h8c1.104 0 2 .896 2 2s-.895 2-2 2zM166.167 348h-8c-1.104 0-2-.896-2-2s.896-2 2-2h8c1.104 0 2 .896 2 2s-.895 2-2 2zM182.167 348h-8c-1.104 0-2-.896-2-2s.896-2 2-2h8c1.104 0 2 .896 2 2s-.895 2-2 2zM198.167 348h-8c-1.104 0-2-.896-2-2s.896-2 2-2h8c1.104 0 2 .896 2 2s-.895 2-2 2z"/></g><path fill="#fff" d="M70.168 375.04H13.87c-2.592 0-4.702-2.26-4.702-5.04v-83.96c0-2.78 2.11-5.04 4.703-5.04h56.3c2.593 0 4.703 2.26 4.703 5.04V370c0 2.78-2.11 5.04-4.705 5.04zM13.87 283c-1.49 0-2.702 1.363-2.702 3.04V370c0 1.677 1.212 3.04 2.703 3.04h56.3c1.49 0 2.703-1.363 2.703-3.04v-83.96c0-1.677-1.213-3.04-2.704-3.04h-56.3zM278.464 375.04H221.87c-2.594 0-4.703-2.26-4.703-5.04v-83.96c0-2.78 2.11-5.04 4.703-5.04h56.594c2.594 0 4.703 2.26 4.703 5.04V370c0 2.78-2.11 5.04-4.703 5.04zM221.87 283c-1.49 0-2.702 1.363-2.702 3.04V370c0 1.677 1.213 3.04 2.703 3.04h56.595c1.49 0 2.703-1.363 2.703-3.04v-83.96c0-1.677-1.213-3.04-2.703-3.04H221.87zM210.167 375.04h-128c-2.593 0-4.703-2.26-4.703-5.04v-83.96c0-2.78 2.11-5.04 4.703-5.04h128c2.595 0 4.705 2.26 4.705 5.04V370c0 2.78-2.11 5.04-4.705 5.04zm-128-92.04c-1.49 0-2.703 1.363-2.703 3.04V370c0 1.677 1.212 3.04 2.703 3.04h128c1.49 0 2.705-1.363 2.705-3.04v-83.96c0-1.677-1.214-3.04-2.705-3.04h-128z"/><path fill="#C1BEB4" d="M-13.833 282h20v8h-20z"/><path fill="#231F20" d="M6.167 292h-20c-1.104 0-2-.896-2-2v-8c0-1.104.896-2 2-2h20c1.104 0 2 .896 2 2v8c0 1.104-.895 2-2 2zm-18-4h16v-4h-16v4z"/></svg>