<svg xmlns="http://www.w3.org/2000/svg" width="628" height="400" viewBox="0 0 628 400"><path fill="#C1A88C" stroke="#231F20" stroke-width="4" stroke-linecap="round" stroke-linejoin="round" stroke-miterlimit="10" d="M610 370.5h8v-268c0-2.21-1.79-4-4-4H180c-3.314 0-6 2.687-6 6v266h436z"/><g class="wheel"><circle fill="#5E6363" stroke="#231F20" stroke-width="4" stroke-miterlimit="10" cx="554" cy="354.5" r="44"/><circle fill="#6F7B87" cx="554" cy="354.5" r="24"/><circle fill="#454C55" cx="554" cy="354.5" r="8"/><path fill="#111" d="M575.32 357.572c-1.913-1.105-4.358-.45-5.465 1.463l-4 6.928c-1.104 1.914-.45 4.36 1.463 5.465 1.914 1.104 4.36.45 5.465-1.465l4-6.928c1.105-1.912.45-4.36-1.465-5.463h.002zm-34.642-20c-1.912-1.105-4.36-.45-5.463 1.463l-4 6.928c-1.104 1.914-.45 4.36 1.463 5.467 1.914 1.104 4.36.447 5.465-1.467l4-6.928c1.105-1.912.45-4.36-1.465-5.463zM567.32 337.572c-1.913 1.104-2.567 3.55-1.465 5.464l4 6.928c1.105 1.913 3.55 2.57 5.465 1.466 1.914-1.105 2.57-3.554 1.465-5.467l-4-6.928c-1.104-1.913-3.55-2.568-5.463-1.465l-.002.002zm-34.64 20c-1.914 1.104-2.57 3.55-1.465 5.464l4 6.928c1.104 1.913 3.55 2.57 5.465 1.466 1.912-1.105 2.568-3.554 1.463-5.467l-4-6.928c-1.104-1.913-3.55-2.568-5.463-1.465v.002zM546 334.5c0 2.21 1.79 4 4 4h8c2.21 0 4-1.79 4-4s-1.79-4-4-4h-8c-2.21 0-4 1.79-4 4zm0 40c0 2.21 1.79 4 4 4h8c2.21 0 4-1.79 4-4s-1.79-4-4-4h-8c-2.21 0-4 1.79-4 4z"/><circle fill="none" stroke="#231F20" stroke-width="4" stroke-miterlimit="10" cx="554" cy="354.5" r="24"/><path fill="#252526" d="M542.618 348.598c1.053.344 1.628 1.473 1.284 2.52-.342 1.053-1.47 1.627-2.52 1.285-1.05-.34-1.626-1.47-1.283-2.52.34-1.05 1.468-1.624 2.518-1.285zm1.764 14.727c.652-.896 1.903-1.093 2.795-.443.894.65 1.09 1.9.44 2.794-.645.895-1.9 1.092-2.792.442-.89-.647-1.09-1.9-.443-2.793zm16 2.353c-.647-.896-.45-2.148.44-2.795.896-.648 2.146-.45 2.796.443.65.892.45 2.146-.443 2.793-.893.648-2.144.446-2.793-.442zm6.235-13.274c-1.053.34-2.182-.235-2.52-1.284-.34-1.05.233-2.18 1.284-2.52 1.05-.346 2.184.232 2.52 1.283.343 1.05-.234 2.18-1.283 2.52zm-10.615-9.904c-.004 1.104-.898 2.002-2 2-1.104-.002-1.998-.896-2-2-.004-1.105.896-2.004 2-2 1.103 0 1.998.896 2 2zm0 12c-.004 1.104-.898 2.002-2 2-1.105-.002-2-.896-2-2-.004-1.105.895-2.004 2-2 1.102 0 1.996.896 2 2z"/></g><path fill="#710814" stroke="#231F20" stroke-width="4" stroke-linecap="round" stroke-linejoin="round" stroke-miterlimit="10" d="M618 108.5v-6c0-2.21-1.79-4-4-4H180c-3.314 0-6 2.687-6 6v4h444zm-600 240v8l6 2v-10h-6z"/><path opacity=".6" fill="none" stroke="#B9529F" stroke-width="4" stroke-linecap="round" stroke-linejoin="round" stroke-miterlimit="10" enable-background="new" d="M298 170.57"/><path fill="#C1A88C" stroke="#231F20" stroke-width="4" stroke-linecap="round" stroke-linejoin="round" stroke-miterlimit="10" d="M174 363.797V130.5s-84 4-84 34h-4l-20 64-44 10-12 107.297 164 20"/><g class="wheel"><circle fill="#5E6363" stroke="#231F20" stroke-width="4" stroke-miterlimit="10" cx="122" cy="354.5" r="44"/><circle fill="#6F7B87" cx="122" cy="354.5" r="24"/><circle fill="#454C55" cx="122" cy="354.5" r="8"/><path fill="#111" d="M143.32 357.572c-1.913-1.105-4.358-.45-5.464 1.463l-4 6.928c-1.104 1.914-.45 4.36 1.463 5.465 1.912 1.104 4.36.45 5.463-1.465l4-6.928c1.105-1.912.45-4.36-1.465-5.463h.002zm-34.642-20c-1.912-1.105-4.36-.45-5.463 1.463l-4 6.928c-1.104 1.914-.45 4.36 1.463 5.467 1.914 1.104 4.36.447 5.465-1.467l4-6.928c1.105-1.912.45-4.36-1.465-5.463zM135.32 337.572c-1.913 1.104-2.567 3.55-1.464 5.464l4 6.928c1.105 1.913 3.55 2.57 5.465 1.466 1.914-1.105 2.57-3.554 1.465-5.467l-4-6.928c-1.104-1.913-3.55-2.568-5.463-1.465l-.002.002zm-34.64 20c-1.914 1.104-2.57 3.55-1.465 5.464l4 6.928c1.104 1.913 3.55 2.57 5.465 1.466 1.912-1.105 2.568-3.554 1.463-5.467l-4-6.928c-1.104-1.913-3.55-2.568-5.463-1.465v.002zM114 334.5c0 2.21 1.79 4 4 4h8c2.21 0 4-1.79 4-4s-1.79-4-4-4h-8c-2.21 0-4 1.79-4 4zm0 40c0 2.21 1.79 4 4 4h8c2.21 0 4-1.79 4-4s-1.79-4-4-4h-8c-2.21 0-4 1.79-4 4z"/><circle fill="none" stroke="#231F20" stroke-width="4" stroke-miterlimit="10" cx="122" cy="354.5" r="24"/><path fill="#252526" d="M110.618 348.598c1.053.344 1.628 1.473 1.285 2.52-.342 1.053-1.47 1.627-2.52 1.285-1.05-.34-1.626-1.47-1.284-2.52.34-1.05 1.47-1.624 2.518-1.285zm1.764 14.727c.652-.896 1.903-1.093 2.795-.443.893.65 1.09 1.9.44 2.794-.645.895-1.9 1.092-2.792.442-.892-.647-1.09-1.9-.443-2.793zm16 2.353c-.648-.896-.45-2.148.44-2.795.896-.648 2.146-.45 2.796.443.65.892.45 2.146-.443 2.793-.893.648-2.144.446-2.793-.442zm6.235-13.274c-1.053.34-2.182-.235-2.52-1.284-.34-1.05.234-2.18 1.285-2.52 1.05-.346 2.182.232 2.518 1.283.343 1.05-.234 2.18-1.283 2.52zm-10.615-9.904c-.004 1.104-.898 2.002-2 2-1.104-.002-1.998-.896-2-2-.004-1.105.896-2.004 2-2 1.104 0 1.998.896 2 2zm0 12c-.004 1.104-.898 2.002-2 2-1.105-.002-2-.896-2-2-.004-1.105.895-2.004 2-2 1.102 0 1.996.896 2 2z"/></g><path fill="#ECECEC" stroke="#231F20" stroke-width="4" stroke-miterlimit="10" d="M478 72.5c2.21 0 4 1.79 4 4l.002 22h-28v-22c-.002-2.21 1.79-4 3.998-4h20zm-18 0l-8-12m16 0v10m8 2l8-12"/><path fill="#ECECEC" stroke="#231F20" stroke-width="4" stroke-linecap="round" stroke-linejoin="round" stroke-miterlimit="10" d="M450 60.5h36l-18-8-18 8z"/><path fill="#710814" stroke="#231F20" stroke-width="4" stroke-linecap="round" stroke-linejoin="round" stroke-miterlimit="10" d="M526 326.5c-6 0-8 6-8 6l-16 38v-66c.002-2.21 1.79-4 4.002-4h95.996c2.21 0 4 1.79 4.002 4v66l-16.002-38s-2-6-8-6H526zM52 294.527L92 172.5h82l.002 106.027H122s-38-2-38 28c0 0-30 6-32-12zM176 366.797c0-30.326-24.673-55-55-55-24.922 0-46.237 16.764-52.855 39.848L18.002 340.5 30 236.5l-8 2-12 108 8 2 48.482 11.188c-.155 1.195-.285 2.397-.363 3.615l7.88.495.103.007c1.544-24.56 21.943-44.008 46.896-44.008 25.956 0 47 21.043 47 47 0 1.52.14 2.22 0 3.703h8c.157-1.652 0-1.803 0-3.703zM30 358.5l-28-8v8l28 8v-8zm60-194c4-32 84-34 84-34v34H90z"/><path fill="#B09A85" stroke="#231F20" stroke-width="4" stroke-miterlimit="10" d="M174.002 278.527H618m-331.998-.027v94M406 278.5v92m82-92v92m-422-142l-38 116"/><path fill="#710814" stroke="#231F20" stroke-width="4" stroke-linecap="round" stroke-linejoin="round" stroke-miterlimit="10" d="M38 276.5c0 5.52-8.477 10-14 10s0-4.48 0-10-5.523-10 0-10 14 4.48 14 10z"/><path fill="#ECEDE7" stroke="#231F20" stroke-width="4" stroke-miterlimit="10" d="M24 286.5c-5.523 0-8-4.48-8-10s4.477-10 10-10l-2 20z"/><path fill="#710814" stroke="#231F20" stroke-width="4" stroke-linecap="round" stroke-linejoin="round" stroke-miterlimit="10" d="M40 332.5c0 2.21-4.81 4-7.018 4-2.21 0 0-1.79 0-4s-2.21-4 0-4 7.018 1.79 7.018 4zm566 30h20v8h-20v-8z"/><path fill="#4CABC2" stroke="#231F20" stroke-width="4" stroke-linecap="round" stroke-linejoin="round" stroke-miterlimit="10" d="M106 236.5h56c2.21 0 4-1.79 4-4v-48c0-2.21-1.79-4-4-4h-62c-2.21 0-4 1.79-4 4l-10 38s-4 14 10 14h10z"/><path opacity=".2" fill="#fff" enable-background="new" d="M158 180.5l-54 56H88l54-56h16zm8 0l-54 56h-4l54-56h4zm-42 0l-34 34h-4l34-34h4zm42 42l-12 14h-22l34-38v24z"/><path fill="none" stroke="#231F20" stroke-width="4" stroke-linecap="round" stroke-linejoin="round" stroke-miterlimit="10" d="M106 236.5h56c2.21 0 4-1.79 4-4v-48c0-2.21-1.79-4-4-4h-62c-2.21 0-4 1.79-4 4l-10 38s-4 14 10 14h10zm-28-52h-6l-4 12 6 4"/><path fill="#F79520" stroke="#231F20" stroke-width="4" stroke-linecap="round" stroke-linejoin="round" stroke-miterlimit="10" d="M28 328.5h5.5v8H28v-8z"/><path fill="#454545" stroke="#231F20" stroke-width="4" stroke-linecap="round" stroke-linejoin="round" stroke-miterlimit="10" d="M232 124.863c0-2.41-1.79-4.363-4-4.363h-32c-2.21 0-4 1.954-4 4.363V224.5c0 2.41 1.79 4.363 4 4.363h32c2.21 0 4-1.954 4-4.363v-99.637zm378 0c0-2.41-1.79-4.363-4-4.363H502c-2.21 0-4 1.954-4 4.363V224.5c0 2.41 1.79 4.363 4 4.363h104c2.21 0 4-1.954 4-4.363v-99.637z"/><path fill="none" stroke="#01A64F" stroke-width="8" stroke-linecap="round" stroke-linejoin="round" stroke-miterlimit="10" d="M520 146.5h8m46 0h8"/><path fill="none" stroke="#710814" stroke-width="8" stroke-linecap="round" stroke-linejoin="round" stroke-miterlimit="10" d="M548 146.5h8"/><path fill="none" stroke="#710814" stroke-width="12" stroke-linecap="round" stroke-linejoin="round" stroke-miterlimit="10" d="M190 256.5h16"/><path fill="none" stroke="#710814" stroke-width="4" stroke-linecap="round" stroke-linejoin="round" stroke-miterlimit="10" d="M328 246.5h16m8 0h16m8 0h6m8 0h6m-68 10h9.412m8.588 0h9.412m8.588 0h3.53m8.47 0h24m4-10h16m24 0h12m8 0h26m-62 0h8m-108 20h16m8 0h16m8 0h6m8 0h6m8 0h16m24 0h12m8 0h26m-62 0h8"/><path fill="none" stroke="#710814" stroke-width="24" stroke-linecap="round" stroke-linejoin="round" stroke-miterlimit="10" d="M232 256.5h74"/><path fill="none" stroke="#01A64F" stroke-width="4" stroke-linecap="round" stroke-linejoin="round" stroke-miterlimit="10" d="M512 156.5h8.002m7.996 0H536m9.998 0H560m7.998 0H582m7.998 0H598m-6.002 10H592m10 0h.002m-.002 6h.002m-10.004 0H592m10 10h.002m-10.004 0H592m10 10h.002m-10.004 0H592"/><path fill="none" stroke="#4C81B7" stroke-width="4" stroke-linecap="round" stroke-linejoin="round" stroke-miterlimit="10" d="M512 166.5h2m-2 16h8m-8 8h8m-8 10h8m10 0h6m8 0h8"/><path fill="none" stroke="#4C81B7" stroke-width="8" stroke-linecap="round" stroke-linejoin="round" stroke-miterlimit="10" d="M526 216.5h58"/><path fill="none" stroke="#4C81B7" stroke-width="4" stroke-linecap="round" stroke-linejoin="round" stroke-miterlimit="10" d="M558 200.5h8m8 0h8m-54.002-10H536m7.998 0H552m7.998 0H568m7.998 0H582m-70-14h2m7.998-10H530m-8.002 10H530m7.998 0H542m7.998 0H554m6 0h14m-16.002-10H566m-28.002 0H550"/><path fill="none" stroke="#ECECEC" stroke-width="12" stroke-linecap="round" stroke-linejoin="round" stroke-miterlimit="10" d="M514 132.5h18m20 0h42.002"/><path fill="#4C81B7" d="M516.18 209.924c-2.232 1.31-2.347 4.994.437 5.76 2.94.81 5.17-3.058 3.02-5.207-.917-.918-2.412-1.13-3.538-.47-1.38.81-1.456 2.32-1.19 3.718.23 1.22-.105 1.604-.89 2.498-.77.88-1.686 1.612-2.823 1.866-3.146.702-1.812 5.52 1.33 4.82 2.363-.53 4.18-2.128 5.71-3.943.844-1.002 1.53-2.005 1.663-3.342.11-1.134-.14-2.167-.157-3.27l-.34 1.26c.04-.06.08-.124.12-.188l-1.495 1.148.296-.053-1.926-.252-.568-.52c-.113-.423-.23-.843-.342-1.264l.005.295.34-1.26.52-.432c.42-.114.84-.23 1.26-.343-.107.008-.218.016-.326.02l1.262.343.59.572c.114.42.23.84.343 1.262l-.77 1.295c2.776-1.63.26-5.95-2.528-4.318l-.005.004zm-.82 1.576c-.306.002-.608.008-.912 0-.286-.023-.246-.014.118.027-.564-.092.432.28-.056 0 .523.576.654.685.394.324-.33-.48-.076-.618-.004.374-.037-.496-.065-.996-.215-1.475-.405-1.3-1.73-2.117-3.075-1.747-1.28.354-2.15 1.775-1.746 3.076.206.657.007-.49.035.144.024.59.108 1.096.383 1.62.39.747.886 1.388 1.562 1.897 1 .75 2.316.768 3.513.76 1.36-.01 2.5-1.13 2.5-2.5 0-1.353-1.14-2.51-2.5-2.5h.002zm-.417 2.5c-.75.025-1.56.184-2.188.24-.58.052-.147.06.11.168-.234-.145-.233-.13.003.047-.112-.1-.22-.2-.326-.307-.975-.95-2.563-.973-3.535 0-.955.953-.975 2.584 0 3.535.707.69 1.533 1.3 2.532 1.465 1.188.194 2.316-.11 3.4-.148 1.36-.047 2.5-1.102 2.5-2.5 0-1.327-1.137-2.547-2.5-2.5h.003z"/><path fill="none" stroke="#01A64F" stroke-width="8" stroke-linecap="round" stroke-linejoin="round" stroke-miterlimit="10" d="M202 132.5h20"/><path fill="none" stroke="#4C81B7" stroke-width="4" stroke-linecap="round" stroke-linejoin="round" stroke-miterlimit="10" d="M200 147.5h24m-24 9h4m6 0h4m6 0h4M205 178.5h4m6 0h4"/><g fill="none" stroke="#4C81B7" stroke-linecap="round" stroke-linejoin="round" stroke-miterlimit="10"><path stroke-width="4" d="M206 194.5h10m-16 8h8m6 0h8m-22 8h8m6 0h10"/><path stroke-width="8" d="M206 218.5h10"/></g><path fill="#C1BFB5" stroke="#231F20" stroke-width="4" stroke-linecap="round" stroke-linejoin="round" stroke-miterlimit="10" d="M490 136.075l12-19.575H226l12 19.575h252z"/><path fill="#FFF6E3" stroke="#231F20" stroke-width="4" stroke-linecap="round" stroke-linejoin="round" stroke-miterlimit="10" d="M226 108.5h276v8H226v-8z"/><path fill="#444646" stroke="#231F20" stroke-width="4" stroke-linecap="round" stroke-linejoin="round" stroke-miterlimit="10" d="M238 136.5h252v92H238v-92z"/><path fill="#C1BFB5" stroke="#231F20" stroke-width="4" stroke-linecap="round" stroke-linejoin="round" stroke-miterlimit="10" d="M238 220.5h252v8H238v-8z"/><path fill="#CE3746" stroke="#231F20" stroke-width="4" stroke-linecap="round" stroke-linejoin="round" stroke-miterlimit="10" d="M278 200.5v12c0 2.21-1.79 4-4 4s-4-1.79-4-4v-12h8z"/><path fill="#F79520" stroke="#231F20" stroke-width="4" stroke-linecap="round" stroke-linejoin="round" stroke-miterlimit="10" d="M298 200.5v12c0 2.21-1.79 4-4 4s-4-1.79-4-4v-12h8z"/><path fill="#ccc" stroke="#231F20" stroke-width="4" stroke-linecap="round" stroke-linejoin="round" stroke-miterlimit="10" d="M318 200.5v12c0 2.21-1.79 4-4 4s-4-1.79-4-4v-12h8z"/><path fill="#eee" stroke="#231F20" stroke-width="4" stroke-linecap="round" stroke-linejoin="round" stroke-miterlimit="10" d="M260 194.5v20c0 2.21-1.79 4-4 4h-2c-2.21 0-4-1.79-4-4v-20h10z"/><path fill="#40346E" stroke="#231F20" stroke-width="4" stroke-linecap="round" stroke-linejoin="round" stroke-miterlimit="10" d="M250 202.5h10v8h-10v-8zm2-14h6v6h-6v-6z"/><path fill="#937855" stroke="#231F20" stroke-width="4" stroke-linecap="round" stroke-linejoin="round" stroke-miterlimit="10" d="M445 216.5l-4-12h37l-4 12h-29z"/></svg>