<svg xmlns="http://www.w3.org/2000/svg" width="628" height="400" viewBox="60.5 0.5 628 400" enable-background="new 60.5 0.5 628 400"><path fill="#C1A88C" stroke="#231F20" stroke-width="4" stroke-linecap="round" stroke-linejoin="round" stroke-miterlimit="10" d="M670.5 370.5h8v-268c0-2.21-1.79-4-4-4h-434c-3.314 0-6 2.687-6 6v266h436z"/><circle fill="#5E6363" stroke="#231F20" stroke-width="4" stroke-miterlimit="10" cx="614.5" cy="354.5" r="44"/><circle fill="#6F7B87" cx="614.5" cy="354.5" r="24"/><circle fill="#454C55" cx="614.5" cy="354.5" r="8"/><g fill="#111"><path d="M635.818 357.572c-1.912-1.105-4.357-.45-5.464 1.463l-4 6.928c-1.102 1.914-.448 4.36 1.464 5.465 1.913 1.104 4.36.45 5.465-1.465l4-6.928c1.104-1.912.448-4.36-1.465-5.463zM601.177 337.572c-1.912-1.105-4.36-.45-5.463 1.463l-4 6.928c-1.104 1.914-.45 4.36 1.463 5.467 1.914 1.103 4.36.447 5.465-1.467l4-6.928c1.105-1.912.45-4.36-1.465-5.463z"/></g><g fill="#111"><path d="M627.82 337.572c-1.914 1.104-2.567 3.55-1.466 5.464l4 6.928c1.106 1.913 3.552 2.57 5.465 1.465 1.91-1.105 2.567-3.553 1.463-5.466l-4-6.928c-1.104-1.913-3.552-2.568-5.464-1.464zM593.18 357.572c-1.915 1.104-2.57 3.55-1.466 5.464l4 6.928c1.104 1.913 3.55 2.57 5.465 1.465 1.91-1.105 2.567-3.553 1.462-5.466l-4-6.928c-1.105-1.913-3.55-2.568-5.463-1.464z"/></g><g fill="#111"><path d="M606.5 334.5c0 2.21 1.79 4 4 4h8c2.21 0 4-1.79 4-4s-1.79-4-4-4h-8c-2.21 0-4 1.79-4 4zM606.5 374.5c0 2.21 1.79 4 4 4h8c2.21 0 4-1.79 4-4s-1.79-4-4-4h-8c-2.21 0-4 1.79-4 4z"/></g><circle fill="none" stroke="#231F20" stroke-width="4" stroke-miterlimit="10" cx="614.5" cy="354.5" r="24"/><g fill="#252526"><path d="M603.115 348.598c1.053.344 1.63 1.473 1.285 2.52-.34 1.052-1.47 1.626-2.52 1.284-1.05-.34-1.626-1.47-1.283-2.52.343-1.05 1.47-1.623 2.518-1.284zM604.882 363.325c.652-.895 1.904-1.093 2.796-.443.893.65 1.09 1.9.44 2.794-.646.895-1.9 1.092-2.792.442-.893-.648-1.09-1.9-.444-2.793zM620.882 365.678c-.648-.896-.45-2.148.44-2.795.896-.648 2.146-.45 2.796.443.65.892.45 2.146-.444 2.793-.892.648-2.143.447-2.792-.442zM627.12 352.404c-1.054.34-2.183-.235-2.522-1.284-.34-1.05.234-2.178 1.285-2.52 1.05-.345 2.182.233 2.52 1.284.34 1.05-.236 2.178-1.284 2.52zM616.502 342.5c-.005 1.104-.9 2.002-2 2-1.104-.002-2-.896-2-2-.005-1.105.896-2.004 2-2 1.102 0 1.998.896 2 2zM616.5 354.5c-.003 1.104-.898 2.002-2 2-1.104-.002-1.998-.896-2-2-.003-1.105.896-2.004 2.002-2 1.1 0 1.995.896 1.998 2z"/></g><path fill="#710814" stroke="#231F20" stroke-width="4" stroke-linecap="round" stroke-linejoin="round" stroke-miterlimit="10" d="M678.5 108.5v-6c0-2.21-1.79-4-4-4h-434c-3.314 0-6 2.687-6 6v4h444zM78.5 348.5v8l6 2v-10z"/><path opacity=".6" fill="none" stroke="#B9529F" stroke-width="4" stroke-linecap="round" stroke-linejoin="round" stroke-miterlimit="10" d="M358.5 170.57"/><path fill="#C1A88C" stroke="#231F20" stroke-width="4" stroke-linecap="round" stroke-linejoin="round" stroke-miterlimit="10" d="M234.5 353.797V130.5s-84 4-84 34h-4l-20 64-44 10-12 107.297 164 8"/><path fill="#ECECEC" stroke="#231F20" stroke-width="4" stroke-miterlimit="10" d="M538.5 72.5c2.21 0 4 1.79 4 4l.002 22h-28v-22c-.002-2.21 1.79-4 3.998-4h20zM520.5 72.5l-8-12M528.5 60.5v10M536.5 72.5l8-12"/><path fill="#ECECEC" stroke="#231F20" stroke-width="4" stroke-linecap="round" stroke-linejoin="round" stroke-miterlimit="10" d="M510.5 60.5h36l-18-8z"/><path fill="#710814" stroke="#231F20" stroke-width="4" stroke-linecap="round" stroke-linejoin="round" stroke-miterlimit="10" d="M586.5 326.5c-6 0-8 6-8 6l-16 38v-66c.002-2.21 1.79-4 4.002-4h95.996c2.21 0 4 1.79 4.002 4v66l-16.002-38s-2-6-8-6H586.5zM112.5 294.527l40-122.027h82l.002 106.027H182.5s-38-2-38 28c0 0-30 6-32-12z"/><path fill="#5E6363" stroke="#231F20" stroke-width="4" stroke-miterlimit="10" d="M226.5 354.5c0 24.3-19.7 44-44 44s-44-19.7-44-44 19.7-41 44-41 44 16.7 44 41z"/><circle fill="#6F7B87" cx="182.5" cy="354.5" r="24"/><circle fill="#454C55" cx="182.5" cy="354.5" r="8"/><g fill="#111"><path d="M203.82 357.572c-1.913-1.105-4.358-.45-5.464 1.463l-4 6.928c-1.104 1.914-.45 4.36 1.463 5.465 1.913 1.104 4.36.45 5.464-1.465l4-6.928c1.105-1.912.45-4.36-1.465-5.463zM169.178 337.572c-1.912-1.105-4.36-.45-5.463 1.463l-4 6.928c-1.104 1.914-.45 4.36 1.463 5.467 1.914 1.103 4.36.447 5.465-1.467l4-6.928c1.105-1.912.45-4.36-1.465-5.463z"/></g><g fill="#111"><path d="M195.82 337.572c-1.913 1.104-2.567 3.55-1.464 5.464l4 6.928c1.105 1.913 3.55 2.57 5.465 1.465 1.913-1.105 2.57-3.553 1.464-5.466l-4-6.928c-1.104-1.913-3.55-2.568-5.463-1.464zM161.18 357.572c-1.914 1.104-2.57 3.55-1.465 5.464l4 6.928c1.104 1.913 3.55 2.57 5.465 1.465 1.912-1.105 2.568-3.553 1.463-5.466l-4-6.928c-1.104-1.913-3.55-2.568-5.463-1.464z"/></g><g fill="#111"><path d="M174.5 334.5c0 2.21 1.79 4 4 4h8c2.21 0 4-1.79 4-4s-1.79-4-4-4h-8c-2.21 0-4 1.79-4 4zM174.5 374.5c0 2.21 1.79 4 4 4h8c2.21 0 4-1.79 4-4s-1.79-4-4-4h-8c-2.21 0-4 1.79-4 4z"/></g><circle fill="none" stroke="#231F20" stroke-width="4" stroke-miterlimit="10" cx="182.5" cy="354.5" r="24"/><g fill="#252526"><path d="M171.118 348.598c1.053.344 1.628 1.473 1.285 2.52-.342 1.052-1.47 1.626-2.52 1.284-1.05-.34-1.626-1.47-1.284-2.52.34-1.05 1.47-1.623 2.518-1.284zM172.882 363.325c.652-.895 1.903-1.093 2.795-.443.893.65 1.09 1.9.44 2.794-.645.895-1.9 1.092-2.792.442-.892-.648-1.09-1.9-.443-2.793zM188.882 365.678c-.648-.896-.45-2.148.44-2.795.896-.648 2.146-.45 2.796.443.65.892.45 2.146-.443 2.793-.893.648-2.144.447-2.793-.442zM195.117 352.404c-1.053.34-2.182-.235-2.52-1.284-.34-1.05.234-2.178 1.285-2.52 1.05-.345 2.182.233 2.518 1.284.343 1.05-.234 2.178-1.283 2.52zM184.502 342.5c-.004 1.104-.898 2.002-2 2-1.104-.002-1.998-.896-2-2-.004-1.105.896-2.004 2-2 1.104 0 1.998.896 2 2zM184.502 354.5c-.004 1.104-.898 2.002-2 2-1.105-.002-2-.896-2-2-.004-1.105.895-2.004 2-2 1.102 0 1.996.896 2 2z"/></g><path fill="#710814" stroke="#231F20" stroke-width="4" stroke-linecap="round" stroke-linejoin="round" stroke-miterlimit="10" d="M236.5 366.797c0-30.327-24.673-55-55-55-24.922 0-46.237 16.764-52.855 39.847L78.502 340.5l11.998-104-8 2-12 108 8 2 48.482 11.188c-.155 1.195-.285 2.397-.363 3.615l7.88.495.104.007c1.544-24.56 21.943-44.008 46.896-44.008 25.957 0 47 21.043 47 47 0 1.52.142 2.22 0 3.703h8c.158-1.653 0-1.803 0-3.703zM90.5 358.5l-28-8v8l28 8zM150.5 164.5c4-32 84-34 84-34v34h-84z"/><path fill="#B09A85" stroke="#231F20" stroke-width="4" stroke-miterlimit="10" d="M234.502 278.527H678.5M346.502 278.5v94M466.5 278.5v92M548.5 278.5v92M126.5 228.5l-38 116"/><path fill="#710814" stroke="#231F20" stroke-width="4" stroke-linecap="round" stroke-linejoin="round" stroke-miterlimit="10" d="M98.5 276.5c0 5.522-8.477 10-14 10s0-4.478 0-10-5.523-10 0-10 14 4.478 14 10z"/><path fill="#ECEDE7" stroke="#231F20" stroke-width="4" stroke-miterlimit="10" d="M84.5 286.5c-5.523 0-8-4.478-8-10s4.477-10 10-10l-2 20z"/><path fill="#710814" stroke="#231F20" stroke-width="4" stroke-linecap="round" stroke-linejoin="round" stroke-miterlimit="10" d="M100.5 332.5c0 2.21-4.81 4-7.018 4-2.21 0 0-1.79 0-4s-2.21-4 0-4 7.018 1.79 7.018 4zM666.5 362.5h20v8h-20z"/><path fill="#4CABC2" stroke="#231F20" stroke-width="4" stroke-linecap="round" stroke-linejoin="round" stroke-miterlimit="10" d="M166.5 236.5h56c2.21 0 4-1.79 4-4v-48c0-2.21-1.79-4-4-4h-62c-2.21 0-4 1.79-4 4l-10 38s-4 14 10 14h10z"/><path opacity=".2" fill="#fff" d="M218.5 180.5l-54 56h-16l54-56zM226.5 180.5l-54 56h-4l54-56zM184.5 180.5l-34 34h-4l34-34zM226.5 222.5l-12 14h-22l34-38z"/><path fill="none" stroke="#231F20" stroke-width="4" stroke-linecap="round" stroke-linejoin="round" stroke-miterlimit="10" d="M166.5 236.5h56c2.21 0 4-1.79 4-4v-48c0-2.21-1.79-4-4-4h-62c-2.21 0-4 1.79-4 4l-10 38s-4 14 10 14h10zM138.5 184.5h-6l-4 12 6 4"/><path fill="#F79520" stroke="#231F20" stroke-width="4" stroke-linecap="round" stroke-linejoin="round" stroke-miterlimit="10" d="M88.5 328.5H94v8h-5.5z"/><path fill="#454545" stroke="#231F20" stroke-width="4" stroke-linecap="round" stroke-linejoin="round" stroke-miterlimit="10" d="M292.5 124.863c0-2.41-1.79-4.363-4-4.363h-32c-2.21 0-4 1.954-4 4.363V224.5c0 2.41 1.79 4.363 4 4.363h32c2.21 0 4-1.954 4-4.363v-99.637zM670.5 124.863c0-2.41-1.79-4.363-4-4.363h-104c-2.21 0-4 1.954-4 4.363V224.5c0 2.41 1.79 4.363 4 4.363h104c2.21 0 4-1.954 4-4.363v-99.637z"/><path fill="none" stroke="#01A64F" stroke-width="8" stroke-linecap="round" stroke-linejoin="round" stroke-miterlimit="10" d="M580.5 146.5h8M634.5 146.5h8"/><path fill="none" stroke="#710814" stroke-width="8" stroke-linecap="round" stroke-linejoin="round" stroke-miterlimit="10" d="M608.5 146.5h8"/><path fill="none" stroke="#710814" stroke-width="12" stroke-linecap="round" stroke-linejoin="round" stroke-miterlimit="10" d="M250.5 256.5h16"/><path fill="none" stroke="#710814" stroke-width="4" stroke-linecap="round" stroke-linejoin="round" stroke-miterlimit="10" d="M388.5 246.5h16M412.5 246.5h16M436.5 246.5h6M450.5 246.5h6M388.5 256.5h9.412M406.5 256.5h9.412M424.5 256.5h3.53M436.5 256.5h24M464.5 246.5h16M504.5 246.5h12M524.5 246.5h26M488.5 246.5h8M388.5 266.5h16M412.5 266.5h16M436.5 266.5h6M450.5 266.5h6M464.5 266.5h16M504.5 266.5h12M524.5 266.5h26M488.5 266.5h8"/><path fill="none" stroke="#710814" stroke-width="24" stroke-linecap="round" stroke-linejoin="round" stroke-miterlimit="10" d="M292.5 256.5h74"/><path fill="none" stroke="#01A64F" stroke-width="4" stroke-linecap="round" stroke-linejoin="round" stroke-miterlimit="10" d="M572.5 156.5h8.002M588.498 156.5h8.002M606.498 156.5H620.5M628.498 156.5H642.5M650.498 156.5h8.002M652.498 166.5h.002M662.5 166.5h.002M662.5 172.5h.002M652.498 172.5h.002M662.5 182.5h.002M652.498 182.5h.002M662.5 192.5h.002M652.498 192.5h.002"/><path fill="none" stroke="#4C81B7" stroke-width="4" stroke-linecap="round" stroke-linejoin="round" stroke-miterlimit="10" d="M572.5 166.5h2M572.5 182.5h8M572.5 190.5h8M572.5 200.5h8M590.5 200.5h6M604.5 200.5h8"/><path fill="none" stroke="#4C81B7" stroke-width="8" stroke-linecap="round" stroke-linejoin="round" stroke-miterlimit="10" d="M586.5 216.5h58"/><path fill="none" stroke="#4C81B7" stroke-width="4" stroke-linecap="round" stroke-linejoin="round" stroke-miterlimit="10" d="M618.5 200.5h8M634.5 200.5h8M588.498 190.5h8.002M604.498 190.5h8.002M620.498 190.5h8.002M636.498 190.5h6.002M572.5 176.5h2M582.498 166.5h8.002M582.498 176.5h8.002M598.498 176.5h4.002M610.498 176.5h4.002M620.5 176.5h14M618.498 166.5h8.002M598.498 166.5H610.5"/><path fill="none" stroke="#ECECEC" stroke-width="12" stroke-linecap="round" stroke-linejoin="round" stroke-miterlimit="10" d="M574.5 132.5h18M612.5 132.5h42.002"/><path fill="#4C81B7" d="M576.68 209.924c-2.233 1.308-2.347 4.994.436 5.76 2.94.81 5.17-3.058 3.02-5.208-.917-.917-2.412-1.128-3.538-.468-1.38.808-1.455 2.32-1.19 3.717.23 1.22-.105 1.604-.89 2.498-.768.878-1.685 1.612-2.823 1.866-3.146.703-1.812 5.523 1.33 4.82 2.364-.528 4.18-2.127 5.71-3.942.844-1.002 1.53-2.005 1.663-3.342.112-1.134-.14-2.167-.157-3.27l-.34 1.26c.04-.06.08-.124.12-.187-.5.382-.997.765-1.495 1.148l.296-.053-1.926-.252-.568-.52c-.113-.422-.228-.842-.342-1.263l.005.295.34-1.262.52-.43c.42-.115.84-.23 1.26-.343-.108.008-.218.016-.327.022l1.262.342.59.572c.115.42.23.84.343 1.262l-.77 1.294c2.777-1.628.262-5.95-2.527-4.318zM575.86 211.5c-.305.002-.608.008-.912 0-.286-.023-.246-.014.118.028-.564-.092.432.28-.055 0 .523.575.654.684.393.324-.33-.483-.076-.62-.004.373-.037-.496-.065-.997-.214-1.475-.406-1.3-1.73-2.116-3.076-1.746-1.28.353-2.15 1.775-1.746 3.076.206.658.007-.488.035.145.026.59.11 1.095.384 1.62.39.747.886 1.388 1.563 1.896 1 .75 2.316.767 3.512.76 1.36-.01 2.5-1.13 2.5-2.5 0-1.355-1.138-2.51-2.5-2.5zM575.443 214c-.75.025-1.56.183-2.188.24-.58.052-.148.06.11.168-.234-.144-.233-.128.003.047-.112-.1-.22-.2-.326-.307-.975-.95-2.563-.972-3.535 0-.955.954-.975 2.584 0 3.535.707.69 1.533 1.302 2.532 1.465 1.19.195 2.317-.11 3.402-.148 1.36-.047 2.5-1.102 2.5-2.5 0-1.327-1.137-2.547-2.5-2.5z"/><path fill="none" stroke="#01A64F" stroke-width="8" stroke-linecap="round" stroke-linejoin="round" stroke-miterlimit="10" d="M262.5 132.5h20"/><path fill="none" stroke="#4C81B7" stroke-width="4" stroke-linecap="round" stroke-linejoin="round" stroke-miterlimit="10" d="M260.5 147.5h24M260.5 156.5h4M270.5 156.5h4M280.5 156.5h4"/><g fill="none" stroke="#4C81B7" stroke-width="4" stroke-linecap="round" stroke-linejoin="round" stroke-miterlimit="10"><path d="M265.5 178.5h4M275.5 178.5h4"/></g><g fill="none" stroke="#4C81B7" stroke-linecap="round" stroke-linejoin="round" stroke-miterlimit="10"><path stroke-width="4" d="M266.5 194.5h10M260.5 202.5h8M274.5 202.5h8M260.5 210.5h8M274.5 210.5h10"/><path stroke-width="8" d="M266.5 218.5h10"/></g><path fill="#C1BFB5" stroke="#231F20" stroke-width="4" stroke-linecap="round" stroke-linejoin="round" stroke-miterlimit="10" d="M550.5 136.075l12-19.575h-276l12 19.575z"/><path fill="#FFF6E3" stroke="#231F20" stroke-width="4" stroke-linecap="round" stroke-linejoin="round" stroke-miterlimit="10" d="M286.5 108.5h276v8h-276z"/><path fill="#444646" stroke="#231F20" stroke-width="4" stroke-linecap="round" stroke-linejoin="round" stroke-miterlimit="10" d="M298.5 136.5h252v92h-252z"/><path fill="#C1BFB5" stroke="#231F20" stroke-width="4" stroke-linecap="round" stroke-linejoin="round" stroke-miterlimit="10" d="M298.5 220.5h252v8h-252z"/><path fill="#CE3746" stroke="#231F20" stroke-width="4" stroke-linecap="round" stroke-linejoin="round" stroke-miterlimit="10" d="M338.5 200.5v12c0 2.21-1.79 4-4 4s-4-1.79-4-4v-12h8zM334.5 200.5"/><path fill="#F79520" stroke="#231F20" stroke-width="4" stroke-linecap="round" stroke-linejoin="round" stroke-miterlimit="10" d="M358.5 200.5v12c0 2.21-1.79 4-4 4s-4-1.79-4-4v-12h8zM354.5 200.5"/><path fill="#ccc" stroke="#231F20" stroke-width="4" stroke-linecap="round" stroke-linejoin="round" stroke-miterlimit="10" d="M378.5 200.5v12c0 2.21-1.79 4-4 4s-4-1.79-4-4v-12h8zM374.5 200.5"/><path fill="#eee" stroke="#231F20" stroke-width="4" stroke-linecap="round" stroke-linejoin="round" stroke-miterlimit="10" d="M320.5 194.5v20c0 2.21-1.79 4-4 4h-2c-2.21 0-4-1.79-4-4v-20h10z"/><path fill="#40346E" stroke="#231F20" stroke-width="4" stroke-linecap="round" stroke-linejoin="round" stroke-miterlimit="10" d="M310.5 202.5h10v8h-10zM312.5 188.5h6v6h-6z"/><path fill="#937855" stroke="#231F20" stroke-width="4" stroke-linecap="round" stroke-linejoin="round" stroke-miterlimit="10" d="M505.5 216.5l-4-12h37l-4 12z"/></svg>