<?xml version="1.0" encoding="utf-8"?>
<!-- Generator: Adobe Illustrator 16.0.1, SVG Export Plug-In . SVG Version: 6.00 Build 0)  -->
<!DOCTYPE svg PUBLIC "-//W3C//DTD SVG 1.1//EN" "http://www.w3.org/Graphics/SVG/1.1/DTD/svg11.dtd">
<svg version="1.1" id="Layer_1" xmlns="http://www.w3.org/2000/svg" xmlns:xlink="http://www.w3.org/1999/xlink" x="0px" y="0px"
	 width="386px" height="400px" viewBox="-27.5 0 386 400" enable-background="new -27.5 0 386 400" xml:space="preserve">
<rect x="2.5" y="150.5" fill="#004D17" stroke="#231F20" stroke-width="4" stroke-linecap="round" stroke-linejoin="round" stroke-miterlimit="10" width="12" height="148"/>
<rect x="342.5" y="150.5" fill="#004D17" stroke="#231F20" stroke-width="4" stroke-linecap="round" stroke-linejoin="round" stroke-miterlimit="10" width="12" height="148"/>
<path fill="#D52524" stroke="#231F20" stroke-width="4" stroke-linecap="round" stroke-linejoin="round" stroke-miterlimit="10" d="
	M350.5,106.5h-4c-52-8-168-60-168-72c0,12-116,64-168,72h-4c-2.209,0-4,1.791-4,4v40h176h176v-40
	C354.5,108.291,352.709,106.5,350.5,106.5z"/>
<path fill="#004D17" stroke="#231F20" stroke-width="4" stroke-linecap="round" stroke-linejoin="round" stroke-miterlimit="10" d="
	M354.5,146.5c0,2.209-1.791,4-4,4H6.5c-2.209,0-4-1.791-4-4v-36c0-2.209,1.791-4,4-4h344c2.209,0,4,1.791,4,4V146.5z"/>
<path fill="#00330D" stroke="#231F20" stroke-width="4" stroke-linecap="round" stroke-linejoin="round" stroke-miterlimit="10" d="
	M354.5,378.5c0,2.209-1.791,4-4,4H6.5c-2.209,0-4-1.791-4-4v-104c0,0,1.791,0,4,0h344c2.209,0,4,0,4,0V378.5z"/>
<path fill="#004D17" stroke="#231F20" stroke-width="4" stroke-linecap="round" stroke-linejoin="round" stroke-miterlimit="10" d="
	M43.911,382.5H23.205c0,0,0-1.791,0-4v-104c0,0,1.854,0,4.142,0h16.564V382.5z"/>
<path fill="#00330D" stroke="#231F20" stroke-width="4" stroke-linecap="round" stroke-linejoin="round" stroke-miterlimit="10" d="
	M64.617,382.5H43.911c0,0,0-1.791,0-4v-104c0,0,1.854,0,4.142,0h16.564V382.5z"/>
<path fill="#004D17" stroke="#231F20" stroke-width="4" stroke-linecap="round" stroke-linejoin="round" stroke-miterlimit="10" d="
	M85.323,382.5H64.617c0,0,0-1.791,0-4v-104c0,0,1.854,0,4.141,0h16.565V382.5z"/>
<path fill="#00330D" stroke="#231F20" stroke-width="4" stroke-linecap="round" stroke-linejoin="round" stroke-miterlimit="10" d="
	M106.029,382.5H85.323c0,0,0-1.791,0-4v-104c0,0,1.854,0,4.142,0h16.564V382.5z"/>
<path fill="#004D17" stroke="#231F20" stroke-width="4" stroke-linecap="round" stroke-linejoin="round" stroke-miterlimit="10" d="
	M126.734,382.5h-20.705c0,0,0-1.791,0-4v-104c0,0,1.854,0,4.141,0h16.564V382.5z"/>
<path fill="#00330D" stroke="#231F20" stroke-width="4" stroke-linecap="round" stroke-linejoin="round" stroke-miterlimit="10" d="
	M147.441,382.5h-20.707c0,0,0-1.791,0-4v-104c0,0,1.854,0,4.142,0h16.565V382.5z"/>
<path fill="#004D17" stroke="#231F20" stroke-width="4" stroke-linecap="round" stroke-linejoin="round" stroke-miterlimit="10" d="
	M168.146,382.5h-20.705c0,0,0-1.791,0-4v-104c0,0,1.854,0,4.141,0h16.564V382.5z"/>
<path fill="#00330D" stroke="#231F20" stroke-width="4" stroke-linecap="round" stroke-linejoin="round" stroke-miterlimit="10" d="
	M188.853,382.5h-20.706c0,0,0-1.791,0-4v-104c0,0,1.854,0,4.141,0h16.565V382.5z"/>
<path fill="#004D17" stroke="#231F20" stroke-width="4" stroke-linecap="round" stroke-linejoin="round" stroke-miterlimit="10" d="
	M209.559,382.5h-20.706c0,0,0-1.791,0-4v-104c0,0,1.854,0,4.142,0h16.564V382.5z"/>
<path fill="#00330D" stroke="#231F20" stroke-width="4" stroke-linecap="round" stroke-linejoin="round" stroke-miterlimit="10" d="
	M230.264,382.5h-20.705c0,0,0-1.791,0-4v-104c0,0,1.854,0,4.141,0h16.564V382.5z"/>
<path fill="#004D17" stroke="#231F20" stroke-width="4" stroke-linecap="round" stroke-linejoin="round" stroke-miterlimit="10" d="
	M250.971,382.5h-20.707c0,0,0-1.791,0-4v-104c0,0,1.855,0,4.142,0h16.565V382.5z"/>
<path fill="#00330D" stroke="#231F20" stroke-width="4" stroke-linecap="round" stroke-linejoin="round" stroke-miterlimit="10" d="
	M271.676,382.5h-20.705c0,0,0-1.791,0-4v-104c0,0,1.854,0,4.141,0h16.564V382.5z"/>
<path fill="#004D17" stroke="#231F20" stroke-width="4" stroke-linecap="round" stroke-linejoin="round" stroke-miterlimit="10" d="
	M292.382,382.5h-20.706c0,0,0-1.791,0-4v-104c0,0,1.854,0,4.142,0h16.564V382.5z"/>
<path fill="#00330D" stroke="#231F20" stroke-width="4" stroke-linecap="round" stroke-linejoin="round" stroke-miterlimit="10" d="
	M313.088,382.5h-20.706c0,0,0-1.791,0-4v-104c0,0,1.854,0,4.142,0h16.564V382.5z"/>
<path fill="#004D17" stroke="#231F20" stroke-width="4" stroke-linecap="round" stroke-linejoin="round" stroke-miterlimit="10" d="
	M333.793,382.5h-20.705c0,0,0-1.791,0-4v-104c0,0,1.854,0,4.141,0h16.564V382.5z"/>
<rect x="14.5" y="262.5" fill="#5B5663" stroke="#231F20" stroke-width="4" stroke-linecap="round" stroke-linejoin="round" stroke-miterlimit="10" width="328" height="12"/>
<g>
	
		<line fill="none" stroke="#ECECEC" stroke-width="20" stroke-linecap="round" stroke-linejoin="round" stroke-miterlimit="10" x1="90.5" y1="126.5" x2="122.5" y2="126.5"/>
	
		<line fill="none" stroke="#ECECEC" stroke-width="20" stroke-linecap="round" stroke-linejoin="round" stroke-miterlimit="10" x1="150.5" y1="126.5" x2="168.5" y2="126.5"/>
	
		<line fill="none" stroke="#ECECEC" stroke-width="20" stroke-linecap="round" stroke-linejoin="round" stroke-miterlimit="10" x1="196.5" y1="126.5" x2="264.5" y2="126.5"/>
</g>
<g>
	
		<path fill="#454545" stroke="#231F20" stroke-width="4" stroke-linecap="round" stroke-linejoin="round" stroke-miterlimit="10" d="
		M54.5,130.5c0-2.409-1.791-4-4-4h-72c-2.209,0-4,1.591-4,4v15.637c0,2.409,1.791,4.363,4,4.363h72c2.209,0,4-1.954,4-4.363V130.5z"
		/>
	
		<line fill="none" stroke="#ECECEC" stroke-width="12" stroke-linecap="round" stroke-linejoin="round" stroke-miterlimit="10" x1="-13.5" y1="138.5" x2="42.5" y2="138.5"/>
</g>
<path fill="#454545" stroke="#231F20" stroke-width="4" stroke-linecap="round" stroke-linejoin="round" stroke-miterlimit="10" d="
	M54.5,206.5c0-2.409-1.791-4-4-4h-44c-2.209,0-4,1.591-4,4v63.637c0,2.409,1.791,4.363,4,4.363h44c2.209,0,4-1.954,4-4.363V206.5z"
	/>
<line fill="none" stroke="#ECECEC" stroke-width="4" stroke-linecap="round" stroke-linejoin="round" stroke-miterlimit="10" x1="10.5" y1="210.5" x2="24.5" y2="210.5"/>
<line fill="none" stroke="#F7B019" stroke-width="8" stroke-linecap="round" stroke-linejoin="round" stroke-miterlimit="10" x1="12.5" y1="220.5" x2="44.5" y2="220.5"/>
<line fill="none" stroke="#ECECEC" stroke-width="4" stroke-linecap="round" stroke-linejoin="round" stroke-miterlimit="10" x1="32.5" y1="210.5" x2="46.5" y2="210.5"/>
<line fill="none" stroke="#ECECEC" stroke-width="4" stroke-linecap="round" stroke-linejoin="round" stroke-miterlimit="10" x1="10.5" y1="230.5" x2="16.5" y2="230.5"/>
<line fill="none" stroke="#ECECEC" stroke-width="4" stroke-linecap="round" stroke-linejoin="round" stroke-miterlimit="10" x1="10.5" y1="238.5" x2="14.1" y2="238.5"/>
<line fill="none" stroke="#ECECEC" stroke-width="4" stroke-linecap="round" stroke-linejoin="round" stroke-miterlimit="10" x1="21.299" y1="238.5" x2="24.9" y2="238.5"/>
<line fill="none" stroke="#ECECEC" stroke-width="4" stroke-linecap="round" stroke-linejoin="round" stroke-miterlimit="10" x1="32.1" y1="238.5" x2="35.699" y2="238.5"/>
<line fill="none" stroke="#ECECEC" stroke-width="4" stroke-linecap="round" stroke-linejoin="round" stroke-miterlimit="10" x1="42.9" y1="238.5" x2="46.5" y2="238.5"/>
<line fill="none" stroke="#ECECEC" stroke-width="4" stroke-linecap="round" stroke-linejoin="round" stroke-miterlimit="10" x1="24.5" y1="230.5" x2="30.5" y2="230.5"/>
<line fill="none" stroke="#ECECEC" stroke-width="4" stroke-linecap="round" stroke-linejoin="round" stroke-miterlimit="10" x1="38.5" y1="230.5" x2="46.5" y2="230.5"/>
<line fill="none" stroke="#ECECEC" stroke-width="4" stroke-linecap="round" stroke-linejoin="round" stroke-miterlimit="10" x1="10.5" y1="246.5" x2="16.5" y2="246.5"/>
<line fill="none" stroke="#ECECEC" stroke-width="4" stroke-linecap="round" stroke-linejoin="round" stroke-miterlimit="10" x1="10.5" y1="254.5" x2="14.1" y2="254.5"/>
<line fill="none" stroke="#ECECEC" stroke-width="4" stroke-linecap="round" stroke-linejoin="round" stroke-miterlimit="10" x1="21.299" y1="254.5" x2="24.9" y2="254.5"/>
<line fill="none" stroke="#ECECEC" stroke-width="4" stroke-linecap="round" stroke-linejoin="round" stroke-miterlimit="10" x1="32.1" y1="254.5" x2="35.699" y2="254.5"/>
<line fill="none" stroke="#ECECEC" stroke-width="8" stroke-linecap="round" stroke-linejoin="round" stroke-miterlimit="10" x1="32.1" y1="264.5" x2="44.5" y2="264.5"/>
<line fill="none" stroke="#ECECEC" stroke-width="4" stroke-linecap="round" stroke-linejoin="round" stroke-miterlimit="10" x1="42.9" y1="254.5" x2="46.5" y2="254.5"/>
<line fill="none" stroke="#ECECEC" stroke-width="4" stroke-linecap="round" stroke-linejoin="round" stroke-miterlimit="10" x1="24.5" y1="246.5" x2="30.5" y2="246.5"/>
<line fill="none" stroke="#ECECEC" stroke-width="4" stroke-linecap="round" stroke-linejoin="round" stroke-miterlimit="10" x1="38.5" y1="246.5" x2="46.5" y2="246.5"/>
<path fill="#454545" stroke="#231F20" stroke-width="4" stroke-linecap="round" stroke-linejoin="round" stroke-miterlimit="10" d="
	M342.5,154.5c0-2.409-1.791-4-4-4h-44c-2.209,0-4,1.591-4,4v59.637c0,2.409,1.791,4.363,4,4.363h44c2.209,0,4-1.954,4-4.363V154.5z"
	/>
<path fill="#454545" stroke="#231F20" stroke-width="4" stroke-linecap="round" stroke-linejoin="round" stroke-miterlimit="10" d="
	M342.5,224.5c0-2.409-1.791-4-4-4h-28c-2.209,0-4,1.591-4,4v23.637c0,2.409,1.791,4.363,4,4.363h28c2.209,0,4-1.954,4-4.363V224.5z"
	/>
<path fill="#454545" stroke="#231F20" stroke-width="4" stroke-linecap="round" stroke-linejoin="round" stroke-miterlimit="10" d="
	M342.5,258.5c0-2.409-1.791-4-4-4h-36c-2.209,0-4,1.591-4,4v15.637c0,2.409,1.791,4.363,4,4.363h36c2.209,0,4-1.954,4-4.363V258.5z"
	/>
<line fill="none" stroke="#ECECEC" stroke-width="4" stroke-linecap="round" stroke-linejoin="round" stroke-miterlimit="10" x1="298.5" y1="158.5" x2="312.5" y2="158.5"/>
<line fill="none" stroke="#ECECEC" stroke-width="8" stroke-linecap="round" stroke-linejoin="round" stroke-miterlimit="10" x1="300.5" y1="168.5" x2="312.5" y2="168.5"/>
<line fill="none" stroke="#ECECEC" stroke-width="8" stroke-linecap="round" stroke-linejoin="round" stroke-miterlimit="10" x1="324.5" y1="168.5" x2="332.5" y2="168.5"/>
<line fill="none" stroke="#ECECEC" stroke-width="4" stroke-linecap="round" stroke-linejoin="round" stroke-miterlimit="10" x1="320.5" y1="158.5" x2="334.5" y2="158.5"/>
<line fill="none" stroke="#ECECEC" stroke-width="4" stroke-linecap="round" stroke-linejoin="round" stroke-miterlimit="10" x1="298.5" y1="178.5" x2="304.5" y2="178.5"/>
<line fill="none" stroke="#ECECEC" stroke-width="4" stroke-linecap="round" stroke-linejoin="round" stroke-miterlimit="10" x1="298.5" y1="186.5" x2="302.1" y2="186.5"/>
<line fill="none" stroke="#ECECEC" stroke-width="4" stroke-linecap="round" stroke-linejoin="round" stroke-miterlimit="10" x1="309.299" y1="186.5" x2="312.9" y2="186.5"/>
<line fill="none" stroke="#ECECEC" stroke-width="4" stroke-linecap="round" stroke-linejoin="round" stroke-miterlimit="10" x1="320.1" y1="186.5" x2="323.699" y2="186.5"/>
<line fill="none" stroke="#ECECEC" stroke-width="4" stroke-linecap="round" stroke-linejoin="round" stroke-miterlimit="10" x1="330.9" y1="186.5" x2="334.5" y2="186.5"/>
<line fill="none" stroke="#ECECEC" stroke-width="4" stroke-linecap="round" stroke-linejoin="round" stroke-miterlimit="10" x1="312.5" y1="178.5" x2="318.5" y2="178.5"/>
<line fill="none" stroke="#ECECEC" stroke-width="4" stroke-linecap="round" stroke-linejoin="round" stroke-miterlimit="10" x1="326.5" y1="178.5" x2="334.5" y2="178.5"/>
<line fill="none" stroke="#ECECEC" stroke-width="4" stroke-linecap="round" stroke-linejoin="round" stroke-miterlimit="10" x1="298.5" y1="194.5" x2="304.5" y2="194.5"/>
<line fill="none" stroke="#ECECEC" stroke-width="4" stroke-linecap="round" stroke-linejoin="round" stroke-miterlimit="10" x1="298.5" y1="202.5" x2="302.1" y2="202.5"/>
<line fill="none" stroke="#ECECEC" stroke-width="4" stroke-linecap="round" stroke-linejoin="round" stroke-miterlimit="10" x1="309.299" y1="202.5" x2="312.9" y2="202.5"/>
<line fill="none" stroke="#ECECEC" stroke-width="4" stroke-linecap="round" stroke-linejoin="round" stroke-miterlimit="10" x1="320.1" y1="202.5" x2="323.699" y2="202.5"/>
<line fill="none" stroke="#ECECEC" stroke-width="4" stroke-linecap="round" stroke-linejoin="round" stroke-miterlimit="10" x1="330.9" y1="202.5" x2="334.5" y2="202.5"/>
<line fill="none" stroke="#ECECEC" stroke-width="4" stroke-linecap="round" stroke-linejoin="round" stroke-miterlimit="10" x1="312.5" y1="194.5" x2="318.5" y2="194.5"/>
<line fill="none" stroke="#ECECEC" stroke-width="4" stroke-linecap="round" stroke-linejoin="round" stroke-miterlimit="10" x1="326.5" y1="194.5" x2="334.5" y2="194.5"/>
<line fill="none" stroke="#ECECEC" stroke-width="4" stroke-linecap="round" stroke-linejoin="round" stroke-miterlimit="10" x1="298.5" y1="210.5" x2="304.5" y2="210.5"/>
<line fill="none" stroke="#ECECEC" stroke-width="4" stroke-linecap="round" stroke-linejoin="round" stroke-miterlimit="10" x1="312.5" y1="210.5" x2="318.5" y2="210.5"/>
<line fill="none" stroke="#ECECEC" stroke-width="4" stroke-linecap="round" stroke-linejoin="round" stroke-miterlimit="10" x1="314.5" y1="228.137" x2="320.5" y2="228.137"/>
<line fill="none" stroke="#F7B019" stroke-width="4" stroke-linecap="round" stroke-linejoin="round" stroke-miterlimit="10" x1="306.5" y1="262.863" x2="334.5" y2="262.863"/>
<line fill="none" stroke="#F7B019" stroke-width="4" stroke-linecap="round" stroke-linejoin="round" stroke-miterlimit="10" x1="306.5" y1="270.863" x2="316.5" y2="270.863"/>
<line fill="none" stroke="#F7B019" stroke-width="4" stroke-linecap="round" stroke-linejoin="round" stroke-miterlimit="10" x1="324.5" y1="270.863" x2="334.5" y2="270.863"/>
<path fill="#454545" stroke="#231F20" stroke-width="4" stroke-linecap="round" stroke-linejoin="round" stroke-miterlimit="10" d="
	M46.5,292.5c0-2.409-1.791-4-4-4h-36c-2.209,0-4,1.591-4,4v15.637c0,2.409,1.791,4.363,4,4.363h36c2.209,0,4-1.954,4-4.363V292.5z"
	/>
<line fill="none" stroke="#F7B019" stroke-width="4" stroke-linecap="round" stroke-linejoin="round" stroke-miterlimit="10" x1="18.5" y1="296.5" x2="30.5" y2="296.5"/>
<line fill="none" stroke="#F7B019" stroke-width="4" stroke-linecap="round" stroke-linejoin="round" stroke-miterlimit="10" x1="10.5" y1="304.5" x2="20.5" y2="304.5"/>
<line fill="none" stroke="#F7B019" stroke-width="4" stroke-linecap="round" stroke-linejoin="round" stroke-miterlimit="10" x1="28.5" y1="304.5" x2="38.5" y2="304.5"/>
<line fill="none" stroke="#ECECEC" stroke-width="4" stroke-linecap="round" stroke-linejoin="round" stroke-miterlimit="10" x1="328.5" y1="228.137" x2="334.5" y2="228.137"/>
<line fill="none" stroke="#ECECEC" stroke-width="4" stroke-linecap="round" stroke-linejoin="round" stroke-miterlimit="10" x1="314.5" y1="244.137" x2="320.5" y2="244.137"/>
<line fill="none" stroke="#ECECEC" stroke-width="4" stroke-linecap="round" stroke-linejoin="round" stroke-miterlimit="10" x1="328.5" y1="244.137" x2="334.5" y2="244.137"/>
<line fill="none" stroke="#ECECEC" stroke-width="4" stroke-linecap="round" stroke-linejoin="round" stroke-miterlimit="10" x1="320.5" y1="236.137" x2="328.5" y2="236.137"/>
<line fill="none" stroke="#ECECEC" stroke-width="4" stroke-linecap="round" stroke-linejoin="round" stroke-miterlimit="10" x1="326.5" y1="210.5" x2="334.5" y2="210.5"/>
<rect x="336.5" y="214.5" fill="#C1BEB4" stroke="#231F20" stroke-width="4" stroke-linecap="round" stroke-linejoin="round" stroke-miterlimit="10" width="20" height="8"/>
<rect x="336.5" y="238.5" fill="#C1BEB4" stroke="#231F20" stroke-width="4" stroke-linecap="round" stroke-linejoin="round" stroke-miterlimit="10" width="20" height="8"/>
<rect x="336.5" y="262.5" fill="#C1BEB4" stroke="#231F20" stroke-width="4" stroke-linecap="round" stroke-linejoin="round" stroke-miterlimit="10" width="20" height="8"/>
<rect x="324.884" y="133.267" transform="matrix(0.9192 0.3938 -0.3938 0.9192 82.9939 -117.9383)" fill="#C1BEB4" stroke="#231F20" stroke-width="4" stroke-linecap="round" stroke-linejoin="round" stroke-miterlimit="10" width="8" height="20"/>
<rect x="-2.73" y="293.073" transform="matrix(0.3713 0.9285 -0.9285 0.3713 282.1992 189.3484)" fill="#C1BEB4" stroke="#231F20" stroke-width="4" stroke-linecap="round" stroke-linejoin="round" stroke-miterlimit="10" width="8" height="19.999"/>
<polygon fill="#939A9F" stroke="#231F20" stroke-width="4" stroke-linecap="round" stroke-linejoin="round" stroke-miterlimit="10" points="
	80.5,236.5 80.5,258.5 86.5,258.5 86.5,250.5 108.5,250.5 108.5,258.5 114.5,258.5 114.5,236.5 108.5,236.5 108.5,244.5 86.5,244.5 
	86.5,236.5 "/>
<g>
	<g>
		<g>
			<g>
				
					<path fill="#EEEEEE" stroke="#231F20" stroke-width="4" stroke-linecap="round" stroke-linejoin="round" stroke-miterlimit="10" d="
					M182.5,258.5v-22c0-2.209,1.791-4,4-4l0,0c2.209,0,4,1.791,4,4v22h-4H182.5z"/>
			</g>
		</g>
	</g>
	
		<line fill="#939A9F" stroke="#231F20" stroke-width="4" stroke-linecap="round" stroke-linejoin="round" stroke-miterlimit="10" x1="186.5" y1="232.5" x2="186.5" y2="226.5"/>
</g>
<path fill="#939A9F" stroke="#231F20" stroke-width="4" stroke-linecap="round" stroke-linejoin="round" stroke-miterlimit="10" d="
	M126.5,224.5c0,6.627,0,12-30,12s-30-5.373-30-12H126.5z"/>
<g>
	
		<path fill="#939A9F" stroke="#231F20" stroke-width="4" stroke-linecap="round" stroke-linejoin="round" stroke-miterlimit="10" d="
		M286.5,238.5c0,2.209-1.791,4-4,4h-76c-2.209,0-4-1.791-4-4l0,0c0-2.209,1.791-4,4-4h76C284.709,234.5,286.5,236.291,286.5,238.5
		L286.5,238.5z"/>
	
		<rect x="202.5" y="250.5" fill="#939A9F" stroke="#231F20" stroke-width="4" stroke-linecap="round" stroke-linejoin="round" stroke-miterlimit="10" width="84" height="8"/>
	
		<line fill="#939A9F" stroke="#231F20" stroke-width="4" stroke-linecap="round" stroke-linejoin="round" stroke-miterlimit="10" x1="210.5" y1="242.5" x2="210.5" y2="250.5"/>
	
		<line fill="#939A9F" stroke="#231F20" stroke-width="4" stroke-linecap="round" stroke-linejoin="round" stroke-miterlimit="10" x1="278.5" y1="242.5" x2="278.5" y2="250.5"/>
</g>
<g>
	
		<polygon fill="#937855" stroke="#231F20" stroke-width="4" stroke-linecap="round" stroke-linejoin="round" stroke-miterlimit="10" points="
		130.5,258.5 126.5,246.5 152.5,246.5 148.5,258.5 	"/>
	
		<rect x="132.5" y="240.5" fill="#937855" stroke="#231F20" stroke-width="4" stroke-linecap="round" stroke-linejoin="round" stroke-miterlimit="10" width="14" height="6"/>
</g>
<g>
	<g>
		<g>
			
				<path fill="#EEEEEE" stroke="#231F20" stroke-width="4" stroke-linecap="round" stroke-linejoin="round" stroke-miterlimit="10" d="
				M174.5,234.5v20c0,2.209-1.791,4-4,4h-2c-2.209,0-4-1.791-4-4v-20h6H174.5z"/>
		</g>
	</g>
	
		<rect x="164.5" y="242.5" fill="#40346E" stroke="#231F20" stroke-width="4" stroke-linecap="round" stroke-linejoin="round" stroke-miterlimit="10" width="10" height="8"/>
	
		<rect x="182.5" y="242.5" fill="#6A1501" stroke="#231F20" stroke-width="4" stroke-linecap="round" stroke-linejoin="round" stroke-miterlimit="10" width="8" height="8"/>
	
		<rect x="166.5" y="228.5" fill="#40346E" stroke="#231F20" stroke-width="4" stroke-linecap="round" stroke-linejoin="round" stroke-miterlimit="10" width="6" height="6"/>
</g>
</svg>
