<svg xmlns="http://www.w3.org/2000/svg" width="386" height="400" viewBox="-27.5 0 386 400" enable-background="new -27.5 0 386 400"><path fill="#004D17" stroke="#231F20" stroke-width="4" stroke-linecap="round" stroke-linejoin="round" stroke-miterlimit="10" d="M2.5 150.5h12v148h-12zM342.5 150.5h12v148h-12z"/><path fill="#D52524" stroke="#231F20" stroke-width="4" stroke-linecap="round" stroke-linejoin="round" stroke-miterlimit="10" d="M350.5 106.5h-4c-52-8-168-60-168-72 0 12-116 64-168 72h-4c-2.21 0-4 1.79-4 4v40h352v-40c0-2.21-1.79-4-4-4z"/><path fill="#004D17" stroke="#231F20" stroke-width="4" stroke-linecap="round" stroke-linejoin="round" stroke-miterlimit="10" d="M354.5 146.5c0 2.21-1.79 4-4 4H6.5c-2.21 0-4-1.79-4-4v-36c0-2.21 1.79-4 4-4h344c2.21 0 4 1.79 4 4v36z"/><path fill="#00330D" stroke="#231F20" stroke-width="4" stroke-linecap="round" stroke-linejoin="round" stroke-miterlimit="10" d="M354.5 378.5c0 2.21-1.79 4-4 4H6.5c-2.21 0-4-1.79-4-4v-104h352v104z"/><path fill="#004D17" stroke="#231F20" stroke-width="4" stroke-linecap="round" stroke-linejoin="round" stroke-miterlimit="10" d="M43.91 382.5H23.206v-108H43.91v108z"/><path fill="#00330D" stroke="#231F20" stroke-width="4" stroke-linecap="round" stroke-linejoin="round" stroke-miterlimit="10" d="M64.617 382.5H43.91v-108h20.707v108z"/><path fill="#004D17" stroke="#231F20" stroke-width="4" stroke-linecap="round" stroke-linejoin="round" stroke-miterlimit="10" d="M85.323 382.5H64.617v-108h20.706v108z"/><path fill="#00330D" stroke="#231F20" stroke-width="4" stroke-linecap="round" stroke-linejoin="round" stroke-miterlimit="10" d="M106.03 382.5H85.322v-108h20.706v108z"/><path fill="#004D17" stroke="#231F20" stroke-width="4" stroke-linecap="round" stroke-linejoin="round" stroke-miterlimit="10" d="M126.734 382.5H106.03v-108h20.704v108z"/><path fill="#00330D" stroke="#231F20" stroke-width="4" stroke-linecap="round" stroke-linejoin="round" stroke-miterlimit="10" d="M147.44 382.5h-20.706v-108h20.707v108z"/><path fill="#004D17" stroke="#231F20" stroke-width="4" stroke-linecap="round" stroke-linejoin="round" stroke-miterlimit="10" d="M168.146 382.5H147.44v-108h20.706v108z"/><path fill="#00330D" stroke="#231F20" stroke-width="4" stroke-linecap="round" stroke-linejoin="round" stroke-miterlimit="10" d="M188.853 382.5h-20.706v-108h20.706v108z"/><path fill="#004D17" stroke="#231F20" stroke-width="4" stroke-linecap="round" stroke-linejoin="round" stroke-miterlimit="10" d="M209.56 382.5h-20.707v-108h20.706v108z"/><path fill="#00330D" stroke="#231F20" stroke-width="4" stroke-linecap="round" stroke-linejoin="round" stroke-miterlimit="10" d="M230.264 382.5H209.56v-108h20.704v108z"/><path fill="#004D17" stroke="#231F20" stroke-width="4" stroke-linecap="round" stroke-linejoin="round" stroke-miterlimit="10" d="M250.97 382.5h-20.706v-108h20.707v108z"/><path fill="#00330D" stroke="#231F20" stroke-width="4" stroke-linecap="round" stroke-linejoin="round" stroke-miterlimit="10" d="M271.676 382.5H250.97v-108h20.706v108z"/><path fill="#004D17" stroke="#231F20" stroke-width="4" stroke-linecap="round" stroke-linejoin="round" stroke-miterlimit="10" d="M292.382 382.5h-20.706v-108h20.706v108z"/><path fill="#00330D" stroke="#231F20" stroke-width="4" stroke-linecap="round" stroke-linejoin="round" stroke-miterlimit="10" d="M313.088 382.5h-20.706v-108h20.706v108z"/><path fill="#004D17" stroke="#231F20" stroke-width="4" stroke-linecap="round" stroke-linejoin="round" stroke-miterlimit="10" d="M333.793 382.5h-20.705v-108H333.793v108z"/><path fill="#5B5663" stroke="#231F20" stroke-width="4" stroke-linecap="round" stroke-linejoin="round" stroke-miterlimit="10" d="M14.5 262.5h328v12h-328z"/><g fill="none" stroke="#ECECEC" stroke-width="20" stroke-linecap="round" stroke-linejoin="round" stroke-miterlimit="10"><path d="M90.5 126.5h32M150.5 126.5h18M196.5 126.5h68"/></g><g stroke-linecap="round" stroke-linejoin="round" stroke-miterlimit="10"><path fill="#454545" stroke="#231F20" stroke-width="4" d="M54.5 130.5c0-2.41-1.79-4-4-4h-72c-2.21 0-4 1.59-4 4v15.637c0 2.41 1.79 4.363 4 4.363h72c2.21 0 4-1.954 4-4.363V130.5z"/><path fill="none" stroke="#ECECEC" stroke-width="12" d="M-13.5 138.5h56"/></g><path fill="#454545" stroke="#231F20" stroke-width="4" stroke-linecap="round" stroke-linejoin="round" stroke-miterlimit="10" d="M54.5 206.5c0-2.41-1.79-4-4-4h-44c-2.21 0-4 1.59-4 4v63.637c0 2.41 1.79 4.363 4 4.363h44c2.21 0 4-1.954 4-4.363V206.5z"/><path fill="none" stroke="#ECECEC" stroke-width="4" stroke-linecap="round" stroke-linejoin="round" stroke-miterlimit="10" d="M10.5 210.5h14"/><path fill="none" stroke="#F7B019" stroke-width="8" stroke-linecap="round" stroke-linejoin="round" stroke-miterlimit="10" d="M12.5 220.5h32"/><path fill="none" stroke="#ECECEC" stroke-width="4" stroke-linecap="round" stroke-linejoin="round" stroke-miterlimit="10" d="M32.5 210.5h14M10.5 230.5h6M10.5 238.5h3.6M21.3 238.5h3.6M32.1 238.5h3.6M42.9 238.5h3.6M24.5 230.5h6M38.5 230.5h8M10.5 246.5h6M10.5 254.5h3.6M21.3 254.5h3.6M32.1 254.5h3.6"/><path fill="none" stroke="#ECECEC" stroke-width="8" stroke-linecap="round" stroke-linejoin="round" stroke-miterlimit="10" d="M32.1 264.5h12.4"/><path fill="none" stroke="#ECECEC" stroke-width="4" stroke-linecap="round" stroke-linejoin="round" stroke-miterlimit="10" d="M42.9 254.5h3.6M24.5 246.5h6M38.5 246.5h8"/><path fill="#454545" stroke="#231F20" stroke-width="4" stroke-linecap="round" stroke-linejoin="round" stroke-miterlimit="10" d="M342.5 154.5c0-2.41-1.79-4-4-4h-44c-2.21 0-4 1.59-4 4v59.637c0 2.41 1.79 4.363 4 4.363h44c2.21 0 4-1.954 4-4.363V154.5zM342.5 224.5c0-2.41-1.79-4-4-4h-28c-2.21 0-4 1.59-4 4v23.637c0 2.41 1.79 4.363 4 4.363h28c2.21 0 4-1.954 4-4.363V224.5zM342.5 258.5c0-2.41-1.79-4-4-4h-36c-2.21 0-4 1.59-4 4v15.637c0 2.41 1.79 4.363 4 4.363h36c2.21 0 4-1.954 4-4.363V258.5z"/><path fill="none" stroke="#ECECEC" stroke-width="4" stroke-linecap="round" stroke-linejoin="round" stroke-miterlimit="10" d="M298.5 158.5h14"/><path fill="none" stroke="#ECECEC" stroke-width="8" stroke-linecap="round" stroke-linejoin="round" stroke-miterlimit="10" d="M300.5 168.5h12M324.5 168.5h8"/><path fill="none" stroke="#ECECEC" stroke-width="4" stroke-linecap="round" stroke-linejoin="round" stroke-miterlimit="10" d="M320.5 158.5h14M298.5 178.5h6M298.5 186.5h3.6M309.3 186.5h3.6M320.1 186.5h3.6M330.9 186.5h3.6M312.5 178.5h6M326.5 178.5h8M298.5 194.5h6M298.5 202.5h3.6M309.3 202.5h3.6M320.1 202.5h3.6M330.9 202.5h3.6M312.5 194.5h6M326.5 194.5h8M298.5 210.5h6M312.5 210.5h6M314.5 228.137h6"/><path fill="none" stroke="#F7B019" stroke-width="4" stroke-linecap="round" stroke-linejoin="round" stroke-miterlimit="10" d="M306.5 262.863h28M306.5 270.863h10M324.5 270.863h10"/><path fill="#454545" stroke="#231F20" stroke-width="4" stroke-linecap="round" stroke-linejoin="round" stroke-miterlimit="10" d="M46.5 292.5c0-2.41-1.79-4-4-4h-36c-2.21 0-4 1.59-4 4v15.637c0 2.41 1.79 4.363 4 4.363h36c2.21 0 4-1.954 4-4.363V292.5z"/><path fill="none" stroke="#F7B019" stroke-width="4" stroke-linecap="round" stroke-linejoin="round" stroke-miterlimit="10" d="M18.5 296.5h12M10.5 304.5h10M28.5 304.5h10"/><path fill="none" stroke="#ECECEC" stroke-width="4" stroke-linecap="round" stroke-linejoin="round" stroke-miterlimit="10" d="M328.5 228.137h6M314.5 244.137h6M328.5 244.137h6M320.5 236.137h8M326.5 210.5h8"/><path fill="#C1BEB4" stroke="#231F20" stroke-width="4" stroke-linecap="round" stroke-linejoin="round" stroke-miterlimit="10" d="M336.5 214.5h20v8h-20zM336.5 238.5h20v8h-20zM336.5 262.5h20v8h-20zM329.147 132.5l7.353 3.15-7.876 18.384-7.353-3.15zM9.067 295.632l2.97 7.428-18.568 7.425-2.972-7.428z"/><path fill="#939A9F" stroke="#231F20" stroke-width="4" stroke-linecap="round" stroke-linejoin="round" stroke-miterlimit="10" d="M80.5 236.5v22h6v-8h22v8h6v-22h-6v8h-22v-8z"/><path fill="#eee" stroke="#231F20" stroke-width="4" stroke-linecap="round" stroke-linejoin="round" stroke-miterlimit="10" d="M182.5 258.5v-22c0-2.21 1.79-4 4-4s4 1.79 4 4v22h-8z"/><path fill="#939A9F" stroke="#231F20" stroke-width="4" stroke-linecap="round" stroke-linejoin="round" stroke-miterlimit="10" d="M186.5 232.5v-6"/><path fill="#939A9F" stroke="#231F20" stroke-width="4" stroke-linecap="round" stroke-linejoin="round" stroke-miterlimit="10" d="M126.5 224.5c0 6.627 0 12-30 12s-30-5.373-30-12h60z"/><g fill="#939A9F" stroke="#231F20" stroke-width="4" stroke-linecap="round" stroke-linejoin="round" stroke-miterlimit="10"><path d="M286.5 238.5c0 2.21-1.79 4-4 4h-76c-2.21 0-4-1.79-4-4s1.79-4 4-4h76c2.21 0 4 1.79 4 4zM202.5 250.5h84v8h-84zM210.5 242.5v8M278.5 242.5v8"/></g><g fill="#937855" stroke="#231F20" stroke-width="4" stroke-linecap="round" stroke-linejoin="round" stroke-miterlimit="10"><path d="M130.5 258.5l-4-12h26l-4 12zM132.5 240.5h14v6h-14z"/></g><path fill="#eee" stroke="#231F20" stroke-width="4" stroke-linecap="round" stroke-linejoin="round" stroke-miterlimit="10" d="M174.5 234.5v20c0 2.21-1.79 4-4 4h-2c-2.21 0-4-1.79-4-4v-20h10z"/><path fill="#40346E" stroke="#231F20" stroke-width="4" stroke-linecap="round" stroke-linejoin="round" stroke-miterlimit="10" d="M164.5 242.5h10v8h-10z"/><path fill="#6A1501" stroke="#231F20" stroke-width="4" stroke-linecap="round" stroke-linejoin="round" stroke-miterlimit="10" d="M182.5 242.5h8v8h-8z"/><path fill="#40346E" stroke="#231F20" stroke-width="4" stroke-linecap="round" stroke-linejoin="round" stroke-miterlimit="10" d="M166.5 228.5h6v6h-6z"/></svg>