<svg xmlns="http://www.w3.org/2000/svg" width="356" height="400" viewBox="6.5 0 356 400" enable-background="new 6.5 0 356 400"><path fill="#C1BEB4" stroke="#231F20" stroke-width="4" stroke-linecap="round" stroke-linejoin="round" stroke-miterlimit="10" d="M8.5 150h12v148h-12zM348.5 150h12v148h-12z"/><path fill="#B6D1D8" stroke="#231F20" stroke-width="4" stroke-linecap="round" stroke-linejoin="round" stroke-miterlimit="10" d="M356.5 106h-4c-52-8-168-60-168-72 0 12-116 64-168 72h-4c-2.21 0-4 1.79-4 4v40h352v-40c0-2.21-1.79-4-4-4z"/><path fill="#ECECEC" stroke="#231F20" stroke-width="4" stroke-linecap="round" stroke-linejoin="round" stroke-miterlimit="10" d="M360.5 146c0 2.21-1.79 4-4 4h-344c-2.21 0-4-1.79-4-4v-36c0-2.21 1.79-4 4-4h344c2.21 0 4 1.79 4 4v36z"/><path fill="#333" stroke="#231F20" stroke-width="4" stroke-linecap="round" stroke-linejoin="round" stroke-miterlimit="10" d="M360.5 378c0 2.21-1.79 4-4 4h-344c-2.21 0-4-1.79-4-4V274h352v104z"/><path fill="#5B5663" stroke="#231F20" stroke-width="4" stroke-linecap="round" stroke-linejoin="round" stroke-miterlimit="10" d="M20.5 262h328v12h-328z"/><path fill="none" stroke="#ECECEC" stroke-width="20" stroke-linecap="round" stroke-linejoin="round" stroke-miterlimit="10" d="M160.5 76h48"/><path fill="none" stroke="#ECECEC" stroke-width="4" stroke-linecap="round" stroke-linejoin="round" stroke-miterlimit="10" d="M152.5 92h64"/><g fill="none" stroke="#ECECEC" stroke-linecap="round" stroke-linejoin="round" stroke-miterlimit="10"><path stroke-width="40" d="M160.5 316h48"/><path stroke-width="8" d="M144.5 344h80"/></g><g fill="none" stroke="#B6D1D8" stroke-width="12" stroke-linecap="round" stroke-linejoin="round" stroke-miterlimit="10"><path d="M132.5 128h60M212.5 128h22"/></g><path fill="#454545" stroke="#231F20" stroke-width="4" stroke-linecap="round" stroke-linejoin="round" stroke-miterlimit="10" d="M348.5 154c0-2.41-1.79-4-4-4h-60c-2.21 0-4 1.59-4 4v103.637c0 2.41 1.79 4.363 4 4.363h60c2.21 0 4-1.954 4-4.363V154z"/><path fill="none" stroke="#B6D1D8" stroke-width="8" stroke-linecap="round" stroke-linejoin="round" stroke-miterlimit="10" d="M296.5 160h12M286.5 288h32M308.5 250h12M300.5 172h26M296.5 184h34M320.5 160h10"/><path fill="none" stroke="#ECECEC" stroke-width="4" stroke-linecap="round" stroke-linejoin="round" stroke-miterlimit="10" d="M288.5 198h18M292.5 214h18M318.5 214h18M314.5 198h10M334.5 198h5.5M288.5 206h22M318.5 206h22M288.5 238h22M318.5 238h22M298.5 222h8M314.5 222h16M294.5 230h12M314.5 230h20"/><path fill="#454545" stroke="#231F20" stroke-width="4" stroke-linecap="round" stroke-linejoin="round" stroke-miterlimit="10" d="M90.5 154c0-2.41-1.79-4-4-4h-60c-2.21 0-4 1.59-4 4v103.637c0 2.41 1.79 4.363 4 4.363h60c2.21 0 4-1.954 4-4.363V154z"/><path fill="none" stroke="#B6D1D8" stroke-width="8" stroke-linecap="round" stroke-linejoin="round" stroke-miterlimit="10" d="M50.5 160h10M50.5 250h12M38.5 172h34M38.5 184h34"/><path fill="none" stroke="#ECECEC" stroke-width="4" stroke-linecap="round" stroke-linejoin="round" stroke-miterlimit="10" d="M30.5 198h18M34.5 214h18M60.5 214h18M56.5 198h10M76.5 198H82M30.5 206h22M60.5 206h22M30.5 238h22M60.5 238h22M40.5 222h8M56.5 222h16M36.5 230h12M56.5 230h20"/><g stroke="#231F20" stroke-width="4" stroke-linecap="round" stroke-linejoin="round" stroke-miterlimit="10"><path fill="#ECECEC" d="M130.5 236c0-2.21-1.79-4-4-4h-20c-2.21 0-4 1.79-4 4v18c0 2.21 1.79 4 4 4h20c2.21 0 4-1.79 4-4v-18z"/><path fill="#939A9F" d="M124.5 232l-4 14h-8l-4-14z"/></g><g stroke="#231F20" stroke-width="4" stroke-linecap="round" stroke-linejoin="round" stroke-miterlimit="10"><path fill="#ECECEC" d="M170.5 236c0-2.21-1.79-4-4-4h-20c-2.21 0-4 1.79-4 4v18c0 2.21 1.79 4 4 4h20c2.21 0 4-1.79 4-4v-18z"/><path fill="#939A9F" d="M164.5 232l-4 14h-8l-4-14z"/></g><path fill="#ECECEC" stroke="#231F20" stroke-width="4" stroke-linecap="round" stroke-linejoin="round" stroke-miterlimit="10" d="M232.5 244l-4-6c0-2.21 1.79-4 4-4s4 1.79 4 4l-4 6 4 14h-8l4-14z"/><path fill="#333" stroke="#231F20" stroke-width="4" stroke-linecap="round" stroke-linejoin="round" stroke-miterlimit="10" d="M232.5 244l4 14h-8z"/><path fill="#D52524" stroke="#231F20" stroke-width="4" stroke-linecap="round" stroke-linejoin="round" stroke-miterlimit="10" d="M248.5 254c0 2.21 1.79 4 4 4h12c2.21 0 4-1.79 4-4v-2h-20v2z"/><ellipse fill="#231F20" stroke="#966943" stroke-width="4" stroke-linecap="round" stroke-linejoin="round" stroke-miterlimit="10" cx="250.5" cy="245" rx="2" ry="3"/><ellipse fill="#231F20" stroke="#966943" stroke-width="4" stroke-linecap="round" stroke-linejoin="round" stroke-miterlimit="10" cx="258.5" cy="245" rx="2" ry="3"/><ellipse fill="#231F20" stroke="#966943" stroke-width="4" stroke-linecap="round" stroke-linejoin="round" stroke-miterlimit="10" cx="266.5" cy="245" rx="2" ry="3"/></svg>