<?xml version="1.0" encoding="utf-8"?>
<!-- Generator: Adobe Illustrator 16.0.1, SVG Export Plug-In . SVG Version: 6.00 Build 0)  -->
<!DOCTYPE svg PUBLIC "-//W3C//DTD SVG 1.1//EN" "http://www.w3.org/Graphics/SVG/1.1/DTD/svg11.dtd">
<svg version="1.1" id="Layer_1" xmlns="http://www.w3.org/2000/svg" xmlns:xlink="http://www.w3.org/1999/xlink" x="0px" y="0px"
	 width="752px" height="400px" viewBox="0 0 752 400" enable-background="new 0 0 752 400" xml:space="preserve">
<path fill="#444646" stroke="#231F20" stroke-width="4" stroke-linecap="round" stroke-linejoin="round" stroke-miterlimit="10" d="
	M141.747,350l111.998,10l16.002-70H141.745L141.747,350z M571.747,348l111.998,8l16.002-70H571.745L571.747,348z"/>
<path fill="none" stroke="#B9529F" stroke-width="4" stroke-linecap="round" stroke-linejoin="round" stroke-miterlimit="10" d="
	M471.745,170"/>
<path fill="#6B3359" stroke="#231F20" stroke-width="4" stroke-linecap="round" stroke-linejoin="round" stroke-miterlimit="10" d="
	M433.745,58h-402c-2.21,0-4,1.79-4,4c-2.21,0-4,1.79-4,4v16c-2.21,0-4,1.79-4,4c-2.21,0-4,1.79-4,4l-14,226h8l6,28l140,8
	c0-26.51,21.49-48,48-48s48,21.49,48,48c0,0.037-0.003,0.074-0.003,0.109l0.003,7.891l222-4v-6h112c0-26.51,21.49-48,48-48
	s48,21.49,48,48v8l44-24l20-24l-8-38c0,0-6-10-12-10c0,0-50-22-72-26l-10-6l-44-80c0,0,1-7-2-10l-10-12l-14-26l-62-20l-60-8
	L433.745,58z"/>
<g class="wheel">
	<path fill="#5E6363" stroke="#231F20" stroke-width="4" stroke-miterlimit="10" d="M247.745,354c0,24.3-19.7,44-44,44
		s-44-19.7-44-44s19.7-41,44-41S247.745,329.7,247.745,354z"/>
	<circle fill="#6F7B87" cx="203.745" cy="354" r="24"/>
	<circle fill="#454C55" cx="203.745" cy="354" r="8"/>
	<g>
		<path fill="#111111" d="M225.065,357.072c-1.913-1.105-4.358-0.45-5.464,1.463l-4,6.928c-1.104,1.914-0.45,4.36,1.463,5.465
			c1.913,1.104,4.36,0.45,5.464-1.465l4-6.928c1.105-1.912,0.45-4.36-1.465-5.463H225.065z M190.423,337.072
			c-1.912-1.105-4.36-0.45-5.463,1.463l-4,6.928c-1.104,1.914-0.45,4.36,1.463,5.467c1.914,1.104,4.36,0.447,5.465-1.467l4-6.928
			C192.993,340.623,192.338,338.175,190.423,337.072z"/>
	</g>
	<g>
		<path fill="#111111" d="M217.065,337.072c-1.913,1.104-2.567,3.55-1.464,5.464l4,6.928c1.105,1.913,3.55,2.57,5.465,1.466
			c1.913-1.105,2.57-3.554,1.464-5.467l-4-6.928c-1.104-1.913-3.55-2.568-5.463-1.465L217.065,337.072z M182.425,357.072
			c-1.914,1.104-2.57,3.55-1.465,5.464l4,6.928c1.104,1.913,3.55,2.57,5.465,1.466c1.912-1.105,2.568-3.554,1.463-5.467l-4-6.928
			c-1.104-1.913-3.55-2.568-5.463-1.465V357.072z"/>
	</g>
	<g>
		<path fill="#111111" d="M195.745,334c0,2.21,1.79,4,4,4h8c2.21,0,4-1.79,4-4s-1.79-4-4-4h-8
			C197.535,330,195.745,331.79,195.745,334z M195.745,374c0,2.21,1.79,4,4,4h8c2.21,0,4-1.79,4-4s-1.79-4-4-4h-8
			C197.535,370,195.745,371.79,195.745,374z"/>
	</g>
	<circle fill="none" stroke="#231F20" stroke-width="4" stroke-miterlimit="10" cx="203.745" cy="354" r="24"/>
	<g>
		<path fill="#252526" d="M194.361,346.098c1.052,0.344,1.628,1.473,1.284,2.521c-0.34,1.052-1.47,1.626-2.52,1.284
			c-1.048-0.34-1.625-1.471-1.284-2.521C192.184,346.332,193.311,345.759,194.361,346.098z M192.125,358.824
			c0.653-0.895,1.904-1.094,2.796-0.443c0.892,0.65,1.09,1.9,0.44,2.795c-0.645,0.895-1.9,1.092-2.792,0.442
			C191.677,360.971,191.479,359.718,192.125,358.824L192.125,358.824z M212.125,361.176c-0.646-0.896-0.45-2.148,0.443-2.795
			c0.894-0.646,2.145-0.447,2.795,0.444c0.65,0.892,0.45,2.146-0.443,2.793c-0.893,0.649-2.144,0.448-2.794-0.44L212.125,361.176z
			 M214.362,349.904c-1.053,0.34-2.182-0.235-2.52-1.284c-0.34-1.05,0.234-2.179,1.285-2.521c1.05-0.345,2.182,0.233,2.518,1.284
			C215.988,348.434,215.411,349.562,214.362,349.904z M205.747,342c-0.004,1.104-0.898,2.002-2,2c-1.104-0.002-1.998-0.896-2-2
			c-0.004-1.105,0.896-2.004,2-2C204.851,340,205.745,340.896,205.747,342z M205.747,366c-0.004,1.104-0.898,2.002-2,2
			c-1.104-0.002-1.998-0.896-2-2c-0.004-1.105,0.896-2.004,2-2C204.851,364,205.745,364.896,205.747,366z M205.747,354
			c-0.004,1.104-0.898,2.002-2,2c-1.105-0.002-2-0.896-2-2c-0.004-1.105,0.895-2.004,2-2C204.849,352,205.743,352.896,205.747,354z"
			/>
	</g>
</g>
<g class="wheel">
	<path fill="#5E6363" stroke="#231F20" stroke-width="4" stroke-miterlimit="10" d="M677.745,354c0,24.3-19.7,44-44,44
		s-44-19.7-44-44s19.7-41,44-41S677.745,329.7,677.745,354z"/>
	<circle fill="#6F7B87" cx="633.745" cy="354" r="24"/>
	<circle fill="#454C55" cx="633.745" cy="354" r="8"/>
	<g>
		<path fill="#111111" d="M655.065,357.072c-1.913-1.105-4.358-0.45-5.464,1.463l-4,6.928c-1.104,1.914-0.45,4.36,1.463,5.465
			s4.359,0.45,5.464-1.465l4-6.928c1.104-1.912,0.45-4.36-1.465-5.463H655.065z M620.423,337.072
			c-1.912-1.105-4.359-0.45-5.463,1.463l-4,6.928c-1.104,1.914-0.45,4.36,1.463,5.467c1.914,1.104,4.36,0.447,5.465-1.467l4-6.928
			C622.993,340.623,622.338,338.175,620.423,337.072z"/>
	</g>
	<g>
		<path fill="#111111" d="M647.065,337.072c-1.913,1.104-2.567,3.55-1.464,5.464l4,6.928c1.104,1.913,3.55,2.57,5.465,1.466
			c1.913-1.105,2.569-3.554,1.464-5.467l-4-6.928c-1.104-1.913-3.55-2.568-5.463-1.465L647.065,337.072z M612.425,357.072
			c-1.914,1.104-2.569,3.55-1.465,5.464l4,6.928c1.104,1.913,3.55,2.57,5.465,1.466c1.912-1.105,2.568-3.554,1.463-5.467l-4-6.928
			c-1.104-1.913-3.55-2.568-5.463-1.465V357.072z"/>
	</g>
	<g>
		<path fill="#111111" d="M625.745,334c0,2.21,1.79,4,4,4h8c2.21,0,4-1.79,4-4s-1.79-4-4-4h-8
			C627.535,330,625.745,331.79,625.745,334z M625.745,374c0,2.21,1.79,4,4,4h8c2.21,0,4-1.79,4-4s-1.79-4-4-4h-8
			C627.535,370,625.745,371.79,625.745,374z"/>
	</g>
	<circle fill="none" stroke="#231F20" stroke-width="4" stroke-miterlimit="10" cx="633.745" cy="354" r="24"/>
	<g>
		<path fill="#252526" d="M624.361,346.098c1.052,0.344,1.628,1.473,1.284,2.521c-0.341,1.052-1.471,1.626-2.521,1.284
			c-1.048-0.34-1.625-1.471-1.284-2.521C622.185,346.332,623.312,345.759,624.361,346.098z M622.125,358.824
			c0.653-0.895,1.904-1.094,2.796-0.443c0.893,0.65,1.09,1.9,0.44,2.795c-0.646,0.895-1.9,1.092-2.792,0.442
			C621.677,360.971,621.479,359.718,622.125,358.824L622.125,358.824z M642.125,361.176c-0.646-0.896-0.45-2.148,0.443-2.795
			s2.145-0.447,2.795,0.444c0.649,0.892,0.45,2.146-0.443,2.793c-0.893,0.649-2.144,0.448-2.794-0.44L642.125,361.176z
			 M644.362,349.904c-1.053,0.34-2.183-0.235-2.521-1.284c-0.34-1.05,0.234-2.179,1.285-2.521c1.05-0.345,2.183,0.233,2.519,1.284
			C645.988,348.434,645.411,349.562,644.362,349.904L644.362,349.904z M635.747,342c-0.004,1.104-0.898,2.002-2,2
			c-1.104-0.002-1.998-0.896-2-2c-0.004-1.105,0.896-2.004,2-2C634.852,340,635.745,340.896,635.747,342z M635.747,366
			c-0.004,1.104-0.898,2.002-2,2c-1.104-0.002-1.998-0.896-2-2c-0.004-1.105,0.896-2.004,2-2
			C634.852,364,635.745,364.896,635.747,366z M635.747,354c-0.004,1.104-0.898,2.002-2,2c-1.104-0.002-2-0.896-2-2
			c-0.004-1.105,0.896-2.004,2-2C634.849,352,635.743,352.896,635.747,354z"/>
	</g>
</g>
<path fill="#ECECEC" stroke="#231F20" stroke-width="4" stroke-miterlimit="10" d="M277.743,48c2.21,0,4,1.79,4,4l0.002,6h-95.998
	v-6c-0.002-2.21,1.79-4,3.998-4H277.743z M205.745,34h56v14h-56V34z M187.745,34V24c0,0,14-8,38-8h16c24,0,38,8,38,8v10H187.745z"/>
<path fill="#6B3359" stroke="#231F20" stroke-width="4" stroke-linecap="round" stroke-linejoin="round" stroke-miterlimit="10" d="
	M23.745,82h394l34-8"/>
<path fill="#ECECEC" stroke="#231F20" stroke-width="4" stroke-linecap="round" stroke-linejoin="round" stroke-miterlimit="10" d="
	M203.745,304c25.875,0,46.957,20.37,47.952,46l0.08,10l145.634-6h32.334v-84h-412v46h-8l6,28l140.203,3.674
	C158.138,323.191,178.695,304,203.745,304z"/>
<path fill="#710814" stroke="#231F20" stroke-width="4" stroke-linecap="round" stroke-linejoin="round" stroke-miterlimit="10" d="
	M249.307,336.824c1.38,4.167,2.212,8.584,2.39,13.176l0.02,2.236L429.745,326v-26L249.307,336.824z M349.745,270L235.29,315.779
	c4.162,3.625,7.684,7.959,10.393,12.811L429.745,276v-6H349.745z M229.848,311.686L267.745,270h-26l-20.368,37.34
	C224.359,308.514,227.194,309.971,229.848,311.686L229.848,311.686z M203.745,304c0.887,0,1.766,0.029,2.64,0.076L217.745,270h-28
	l6.904,34.525C198.965,304.182,201.333,304,203.745,304z M182.335,309.037L163.745,270h-32l43.438,43.438
	C177.425,311.771,179.816,310.298,182.335,309.037L182.335,309.037z M171.921,316.088L79.745,270h-52l137.432,53.445
	C167.165,320.766,169.427,318.3,171.921,316.088L171.921,316.088z M159.763,332.787L17.745,304v12h-8l2,12l145.926,10.55
	C158.247,336.572,158.948,334.65,159.763,332.787z"/>
<path fill="#839151" stroke="#231F20" stroke-width="4" stroke-linecap="round" stroke-linejoin="round" stroke-miterlimit="10" d="
	M643.745,230l-44-80c0,0,0.45-3.186-0.174-6.18c-15.028-8.734-30.546-13.82-45.826-13.82c-75.11,0-136,60.89-136,136
	c0,34.7,13.004,66.359,34.395,90.391L473.745,356v-6h112c0-26.51,21.49-48,48-48s48,21.49,48,48v8l26.697-14.562
	c0.85-4.752,1.303-9.881,1.303-15.438c0-24.124-8.354-53.175-22.17-81.502c-12.452-4.654-25.264-8.939-33.83-10.498L643.745,230z"/>
<path fill="#ECECEC" stroke="#231F20" stroke-width="4" stroke-linecap="round" stroke-linejoin="round" stroke-miterlimit="10" d="
	M643.745,230l-34.764-63.206C591.745,148,572.175,144,553.745,144c-67.38,0-122,54.62-122,122c0,35.654,15.298,67.734,39.686,90.042
	l2.314-0.042v-6h112c0-26.51,21.49-48,48-48s48,21.49,48,48v8l9.554-5.21c2.876-6.868,4.446-15.042,4.446-24.79
	c0-25.359-10.574-57.698-27.354-88.167c-5.515-1.728-10.562-3.09-14.646-3.833L643.745,230L643.745,230z"/>
<g>
	
		<path fill="#454646" stroke="#231F20" stroke-width="4" stroke-linecap="round" stroke-linejoin="round" stroke-miterlimit="10" d="
		M681.745,358l-2.24-0.188C680.229,357.934,680.976,358,681.745,358z M741.745,308.029h-20L694.938,308h-37.193l0.02,0.45
		c14.334,8.304,23.98,23.795,23.98,41.55v8l6-2c0,0,54,2,54-20c4.418,0,8-3.582,8-8v-11.971
		C749.745,311.611,746.163,308.029,741.745,308.029z"/>
</g>
<path fill="none" stroke="#ECECEC" stroke-width="24" stroke-linecap="round" stroke-linejoin="round" stroke-miterlimit="10" d="
	M273.745,100h64"/>
<path fill="#B2B2B2" stroke="#231F20" stroke-width="4" stroke-linecap="round" stroke-linejoin="round" stroke-miterlimit="10" d="
	M429.745,276h28v78h-28V276z"/>
<path fill="none" stroke="#ECECEC" stroke-width="24" stroke-linecap="round" stroke-linejoin="round" stroke-miterlimit="10" d="
	M369.745,100h36"/>
<path fill="#839151" d="M48.87,198.375c0.84-0.733,1.38-1.8,1.38-3c0-2.21-1.79-4-4-4c-0.756,0-1.456,0.223-2.06,0.587
	c0.028-0.193,0.06-0.386,0.06-0.587c0-2.21-1.79-4-4-4s-4,1.79-4,4c0,0.2,0.03,0.394,0.06,0.587
	c-0.604-0.364-1.304-0.587-2.06-0.587c-2.21,0-4,1.79-4,4c0,1.2,0.54,2.267,1.38,3"/>
<path fill="#ECECEC" d="M31.63,198.375c-0.84,0.733-1.38,1.8-1.38,3c0,2.21,1.79,4,4,4c0.756,0,1.456-0.223,2.06-0.587
	c-0.028,0.192-0.06,0.386-0.06,0.587c0,2.21,1.79,4,4,4s4-1.79,4-4c0-0.2-0.03-0.395-0.06-0.587c0.604,0.364,1.304,0.587,2.06,0.587
	c2.21,0,4-1.79,4-4c0-1.2-0.54-2.267-1.38-3"/>
<circle fill="#6B3359" cx="40.25" cy="198.375" r="2.375"/>
<path fill="#839151" d="M37.971,155.096c1.11,0.074,2.248-0.297,3.097-1.146c1.562-1.562,1.562-4.095,0-5.656
	c-0.534-0.535-1.188-0.873-1.87-1.04c0.156-0.118,0.313-0.232,0.456-0.374c1.56-1.562,1.56-4.096,0-5.657
	c-1.56-1.561-4.096-1.562-5.658,0c-0.142,0.143-0.256,0.3-0.373,0.456c-0.17-0.685-0.507-1.337-1.042-1.87
	c-1.562-1.563-4.095-1.563-5.656,0c-0.85,0.848-1.22,1.984-1.146,3.096"/>
<path fill="#ECECEC" d="M25.779,142.904c-1.11-0.074-2.247,0.297-3.097,1.146c-1.562,1.562-1.562,4.094,0,5.656
	c0.534,0.534,1.187,0.872,1.87,1.04c-0.155,0.118-0.313,0.23-0.455,0.374c-1.562,1.562-1.562,4.095,0,5.657
	c1.56,1.562,4.094,1.562,5.656,0c0.143-0.143,0.256-0.3,0.373-0.457c0.17,0.684,0.507,1.337,1.042,1.87
	c1.562,1.563,4.095,1.563,5.656,0c0.85-0.85,1.22-1.984,1.146-3.096"/>
<circle fill="#6B3359" cx="31.875" cy="149" r="2.375"/>
<path fill="#839151" d="M31.415,97.542c-1.11-0.074-2.247,0.297-3.096,1.146c-1.562,1.562-1.562,4.095,0,5.656
	c0.534,0.535,1.187,0.873,1.87,1.04c-0.156,0.118-0.313,0.232-0.456,0.374c-1.562,1.562-1.562,4.096,0,5.657s4.095,1.562,5.657,0
	c0.142-0.143,0.256-0.3,0.373-0.456c0.17,0.683,0.506,1.335,1.04,1.87c1.563,1.56,4.096,1.56,5.657,0
	c0.85-0.85,1.22-1.986,1.146-3.098"/>
<path fill="#ECECEC" d="M43.608,109.733c1.11,0.074,2.247-0.297,3.097-1.146c1.562-1.562,1.562-4.094,0-5.656
	c-0.534-0.533-1.187-0.87-1.87-1.04c0.155-0.117,0.313-0.23,0.455-0.373c1.562-1.562,1.562-4.095,0-5.657
	c-1.56-1.562-4.094-1.562-5.656,0c-0.144,0.143-0.257,0.3-0.374,0.457c-0.17-0.684-0.506-1.337-1.04-1.87
	c-1.563-1.563-4.096-1.563-5.657,0c-0.85,0.85-1.222,1.984-1.147,3.096"/>
<circle fill="#6B3359" cx="37.512" cy="103.638" r="2.375"/>
<path fill="#839151" d="M98.832,92.266c0.074-1.11-0.297-2.248-1.146-3.097c-1.56-1.563-4.094-1.563-5.655,0
	c-0.535,0.533-0.873,1.186-1.04,1.87c-0.118-0.157-0.232-0.314-0.374-0.457c-1.56-1.562-4.095-1.562-5.656,0s-1.562,4.095,0,5.657
	c0.143,0.142,0.3,0.256,0.456,0.373c-0.684,0.17-1.336,0.506-1.87,1.04c-1.562,1.563-1.562,4.096,0,5.657
	c0.85,0.85,1.985,1.22,3.097,1.146"/>
<path fill="#ECECEC" d="M86.641,104.457c-0.074,1.11,0.297,2.247,1.146,3.097c1.562,1.562,4.094,1.562,5.656,0
	c0.534-0.534,0.872-1.187,1.04-1.87c0.118,0.155,0.23,0.313,0.374,0.455c1.562,1.56,4.095,1.56,5.657,0
	c1.56-1.562,1.56-4.095-0.002-5.657c-0.142-0.143-0.3-0.256-0.456-0.373c0.684-0.17,1.337-0.506,1.87-1.04
	c1.563-1.563,1.563-4.096,0-5.657c-0.85-0.85-1.984-1.22-3.096-1.146"/>
<circle fill="#6B3359" cx="92.736" cy="98.361" r="2.375"/>
<path fill="#839151" d="M29.537,181.662c0.77,0.05,1.556-0.206,2.145-0.794c1.08-1.08,1.08-2.835,0-3.915
	c-0.37-0.37-0.822-0.605-1.296-0.72c0.11-0.083,0.22-0.162,0.317-0.26c1.08-1.08,1.08-2.836,0-3.917s-2.835-1.08-3.916,0
	c-0.098,0.1-0.176,0.208-0.258,0.316c-0.116-0.474-0.35-0.925-0.72-1.295c-1.082-1.082-2.835-1.082-3.917,0
	c-0.588,0.588-0.844,1.374-0.793,2.144"/>
<path fill="#ECECEC" d="M21.098,173.222c-0.77-0.052-1.557,0.205-2.145,0.794c-1.08,1.08-1.08,2.834,0,3.916
	c0.37,0.37,0.822,0.604,1.295,0.72c-0.107,0.08-0.217,0.16-0.314,0.26c-1.083,1.08-1.083,2.834-0.002,3.915
	c1.08,1.082,2.835,1.082,3.917,0c0.098-0.098,0.177-0.208,0.258-0.316c0.116,0.475,0.35,0.927,0.72,1.297
	c1.083,1.08,2.835,1.08,3.917,0c0.588-0.59,0.845-1.374,0.793-2.144"/>
<circle fill="#6B3359" cx="25.318" cy="177.442" r="1.644"/>
<path fill="#839151" d="M25.318,216.59c-0.508-0.58-1.245-0.953-2.077-0.955c-1.53,0-2.77,1.24-2.77,2.77
	c0,0.525,0.154,1.011,0.408,1.427c-0.136-0.021-0.27-0.04-0.408-0.04c-1.528,0-2.77,1.24-2.77,2.77c0,1.53,1.24,2.771,2.77,2.771
	c0.14,0,0.27-0.022,0.406-0.04c-0.252,0.416-0.406,0.9-0.405,1.424c0,1.53,1.238,2.77,2.77,2.77c0.83,0,1.567-0.375,2.075-0.955"/>
<path fill="#ECECEC" d="M25.317,228.525c0.508,0.58,1.246,0.957,2.078,0.955c1.528,0.002,2.768-1.239,2.77-2.77
	c-0.002-0.521-0.155-1.007-0.407-1.424c0.134,0.02,0.268,0.04,0.405,0.04c1.53,0,2.77-1.24,2.77-2.771c0-1.527-1.24-2.77-2.77-2.77
	c-0.138,0-0.27,0.021-0.406,0.042c0.254-0.417,0.407-0.902,0.407-1.427c-0.002-1.529-1.24-2.77-2.77-2.77
	c-0.832,0-1.57,0.375-2.077,0.955"/>
<circle fill="#6B3359" cx="25.317" cy="222.558" r="1.644"/>
<path fill="#839151" d="M212.967,256.777c-0.05,0.771,0.205,1.554,0.793,2.144c1.08,1.083,2.835,1.083,3.916,0
	c0.372-0.37,0.606-0.819,0.72-1.296c0.084,0.109,0.162,0.221,0.26,0.318c1.082,1.08,2.836,1.08,3.918,0
	c1.08-1.082,1.08-2.836,0-3.918c-0.1-0.1-0.207-0.176-0.316-0.26c0.474-0.115,0.924-0.348,1.295-0.72
	c1.082-1.08,1.083-2.834,0-3.916c-0.588-0.59-1.374-0.845-2.143-0.794"/>
<path fill="#ECECEC" d="M221.408,248.337c0.05-0.771-0.207-1.558-0.795-2.146c-1.08-1.08-2.834-1.08-3.916,0.002
	c-0.37,0.371-0.603,0.82-0.72,1.295c-0.08-0.109-0.16-0.219-0.26-0.316c-1.08-1.082-2.834-1.082-3.915,0
	c-1.082,1.08-1.082,2.835,0,3.916c0.098,0.098,0.207,0.178,0.316,0.258c-0.475,0.114-0.926,0.35-1.296,0.721
	c-1.08,1.082-1.08,2.834,0,3.916c0.59,0.588,1.374,0.846,2.144,0.795"/>
<circle fill="#6B3359" cx="217.187" cy="252.557" r="1.645"/>
<path fill="#839151" d="M54.652,127.222c0.05-0.77-0.206-1.556-0.794-2.145c-1.08-1.08-2.835-1.08-3.915,0
	c-0.37,0.37-0.605,0.822-0.72,1.296c-0.083-0.11-0.162-0.218-0.26-0.316c-1.08-1.08-2.836-1.08-3.917,0
	c-1.081,1.08-1.08,2.835,0,3.916c0.1,0.1,0.21,0.177,0.317,0.26c-0.474,0.115-0.925,0.35-1.295,0.72
	c-1.082,1.08-1.082,2.834,0,3.916c0.588,0.587,1.374,0.843,2.144,0.792"/>
<path fill="#ECECEC" d="M46.212,135.66c-0.052,0.77,0.205,1.558,0.794,2.146c1.08,1.08,2.835,1.08,3.917,0
	c0.37-0.37,0.604-0.822,0.72-1.295c0.08,0.108,0.16,0.218,0.26,0.315c1.08,1.082,2.834,1.082,3.915,0
	c1.082-1.08,1.082-2.834,0-3.916c-0.098-0.1-0.208-0.178-0.316-0.26c0.474-0.115,0.926-0.35,1.296-0.72
	c1.08-1.082,1.08-2.834,0-3.916c-0.59-0.588-1.374-0.845-2.144-0.793"/>
<circle fill="#6B3359" cx="50.432" cy="131.441" r="1.644"/>
<path fill="#839151" d="M56.215,97c-0.58,0.508-0.953,1.246-0.954,2.078c0,1.528,1.24,2.77,2.77,2.768
	c0.522,0,1.008-0.153,1.425-0.406c-0.02,0.135-0.038,0.27-0.04,0.407c0,1.528,1.24,2.77,2.77,2.77c1.53,0,2.768-1.24,2.77-2.77
	c0-0.14-0.02-0.27-0.04-0.407c0.417,0.254,0.9,0.408,1.424,0.406c1.53,0,2.77-1.238,2.77-2.768c0-0.833-0.374-1.568-0.954-2.077"/>
<path fill="#ECECEC" d="M68.152,97c0.58-0.508,0.955-1.244,0.953-2.077c0.002-1.528-1.24-2.768-2.77-2.77
	c-0.522,0.002-1.007,0.155-1.422,0.407c0.018-0.134,0.038-0.268,0.037-0.405c0-1.53-1.238-2.77-2.768-2.77s-2.77,1.24-2.77,2.77
	c0,0.138,0.022,0.272,0.04,0.405c-0.415-0.252-0.9-0.406-1.425-0.405c-1.53,0-2.768,1.238-2.77,2.77
	c0.005,0.83,0.378,1.567,0.958,2.075"/>
<circle fill="#6B3359" cx="62.183" cy="97" r="1.644"/>
<path fill="#839151" d="M52.575,171c0.32-0.283,0.53-0.692,0.53-1.155c0-0.85-0.69-1.537-1.538-1.537
	c-0.292,0-0.56,0.085-0.792,0.226c0.01-0.075,0.02-0.15,0.02-0.226c0.002-0.85-0.688-1.54-1.537-1.54c-0.85,0-1.538,0.69-1.538,1.54
	c0,0.076,0.012,0.15,0.022,0.226c-0.23-0.14-0.5-0.226-0.792-0.226c-0.85,0-1.54,0.688-1.54,1.537c0,0.463,0.21,0.872,0.532,1.154"
	/>
<path fill="#ECECEC" d="M45.943,171c-0.322,0.28-0.53,0.69-0.53,1.153c0,0.85,0.688,1.538,1.538,1.54
	c0.29-0.002,0.56-0.087,0.79-0.228c-0.01,0.074-0.02,0.148-0.02,0.226c0,0.852,0.688,1.54,1.538,1.54s1.54-0.688,1.54-1.54
	c0-0.076-0.014-0.15-0.024-0.225c0.232,0.14,0.502,0.227,0.792,0.227c0.85,0,1.54-0.69,1.54-1.54c0-0.46-0.21-0.87-0.532-1.152"/>
<circle fill="#6B3359" cx="49.259" cy="170.999" r="0.914"/>
<path fill="#839151" d="M48.49,224.314c0.283,0.322,0.692,0.529,1.155,0.529c0.85,0,1.537-0.688,1.537-1.537
	c0-0.291-0.085-0.56-0.226-0.791c0.076,0.01,0.15,0.02,0.227,0.02c0.85,0.002,1.54-0.688,1.54-1.537s-0.69-1.538-1.54-1.538
	c-0.076,0-0.15,0.013-0.226,0.022c0.142-0.23,0.227-0.5,0.227-0.793c0-0.85-0.688-1.539-1.537-1.539
	c-0.463,0-0.872,0.209-1.154,0.531"/>
<path fill="#ECECEC" d="M48.491,217.684c-0.282-0.322-0.692-0.529-1.154-0.529c-0.85,0-1.538,0.688-1.54,1.537
	c0.002,0.291,0.087,0.561,0.228,0.791c-0.074-0.01-0.148-0.021-0.226-0.021c-0.85,0-1.54,0.688-1.54,1.538s0.69,1.54,1.54,1.54
	c0.077,0,0.15-0.015,0.226-0.024c-0.14,0.232-0.227,0.502-0.227,0.793c0,0.85,0.69,1.539,1.54,1.539c0.46,0,0.87-0.209,1.152-0.531"
	/>
<circle fill="#6B3359" cx="48.491" cy="221" r="0.914"/>
<path fill="#839151" d="M39.219,230.9c0.027-0.428-0.114-0.864-0.44-1.19c-0.6-0.603-1.575-0.601-2.176,0
	c-0.206,0.207-0.336,0.457-0.4,0.72c-0.046-0.06-0.09-0.121-0.145-0.175c-0.6-0.603-1.575-0.603-2.176,0
	c-0.601,0.603-0.6,1.574,0,2.175c0.055,0.055,0.115,0.1,0.177,0.145c-0.264,0.064-0.514,0.195-0.72,0.4
	c-0.6,0.602-0.603,1.573-0.002,2.176c0.327,0.326,0.765,0.47,1.192,0.439"/>
<path fill="#ECECEC" d="M34.529,235.59c-0.03,0.428,0.113,0.864,0.44,1.192c0.6,0.6,1.575,0.6,2.177,0
	c0.206-0.207,0.336-0.457,0.4-0.72c0.045,0.06,0.09,0.119,0.144,0.174c0.602,0.601,1.575,0.601,2.176,0
	c0.6-0.602,0.602-1.574,0-2.176c-0.055-0.054-0.116-0.1-0.176-0.144c0.264-0.063,0.515-0.192,0.72-0.397
	c0.6-0.603,0.6-1.576,0-2.179c-0.326-0.325-0.764-0.47-1.19-0.44"/>
<circle fill="#6B3359" cx="36.874" cy="233.245" r="0.914"/>
<path fill="#839151" d="M26.835,122.656c0.027-0.428-0.115-0.865-0.442-1.19c-0.6-0.603-1.574-0.6-2.174,0
	c-0.207,0.206-0.337,0.456-0.4,0.718c-0.047-0.06-0.09-0.12-0.145-0.174c-0.602-0.602-1.577-0.602-2.178-0.002
	c-0.6,0.602-0.6,1.576,0,2.178c0.055,0.053,0.115,0.098,0.177,0.143c-0.264,0.063-0.515,0.194-0.72,0.4
	c-0.602,0.6-0.603,1.573-0.002,2.175c0.327,0.326,0.765,0.47,1.19,0.44"/>
<path fill="#ECECEC" d="M22.145,127.344c-0.028,0.428,0.114,0.865,0.44,1.193c0.602,0.6,1.575,0.6,2.177,0
	c0.205-0.207,0.336-0.457,0.4-0.72c0.044,0.06,0.09,0.12,0.144,0.175c0.603,0.602,1.575,0.602,2.177,0
	c0.6-0.602,0.602-1.576,0-2.176c-0.055-0.055-0.116-0.1-0.176-0.145c0.265-0.063,0.516-0.192,0.72-0.397
	c0.602-0.602,0.602-1.576,0-2.178c-0.326-0.326-0.763-0.47-1.19-0.44"/>
<circle fill="#6B3359" cx="24.49" cy="125" r="0.914"/>
<path fill="#839151" d="M77.475,106.9c0.027-0.427-0.115-0.864-0.442-1.19c-0.6-0.602-1.574-0.6-2.174,0
	c-0.207,0.207-0.337,0.457-0.4,0.72c-0.047-0.062-0.09-0.122-0.145-0.175c-0.602-0.602-1.577-0.602-2.178-0.002
	c-0.6,0.602-0.6,1.576,0,2.178c0.055,0.054,0.115,0.1,0.177,0.144c-0.264,0.064-0.515,0.195-0.72,0.4
	c-0.602,0.602-0.603,1.574-0.002,2.176c0.327,0.326,0.765,0.47,1.19,0.44"/>
<path fill="#ECECEC" d="M72.785,111.59c-0.03,0.427,0.113,0.864,0.44,1.192c0.6,0.6,1.574,0.6,2.176,0
	c0.205-0.207,0.336-0.457,0.4-0.72c0.044,0.06,0.09,0.12,0.144,0.175c0.602,0.602,1.574,0.602,2.176,0
	c0.6-0.602,0.602-1.576,0-2.176c-0.055-0.054-0.116-0.1-0.176-0.144c0.264-0.064,0.515-0.193,0.72-0.398
	c0.6-0.602,0.6-1.576,0-2.178c-0.327-0.326-0.764-0.47-1.19-0.44"/>
<circle fill="#6B3359" cx="75.13" cy="109.245" r="0.914"/>
<path fill="#839151" d="M111.277,99.1c-0.028,0.428,0.114,0.865,0.44,1.19c0.6,0.603,1.575,0.6,2.175,0
	c0.207-0.206,0.337-0.456,0.4-0.718c0.047,0.06,0.09,0.12,0.145,0.174c0.6,0.602,1.576,0.602,2.177,0.002
	c0.6-0.602,0.6-1.576-0.002-2.178c-0.054-0.053-0.114-0.098-0.176-0.143c0.263-0.064,0.514-0.195,0.72-0.4
	c0.6-0.602,0.602-1.574,0-2.176c-0.326-0.325-0.764-0.468-1.19-0.438"/>
<path fill="#ECECEC" d="M115.967,94.412c0.028-0.428-0.114-0.865-0.44-1.193c-0.602-0.6-1.575-0.6-2.177,0
	c-0.205,0.206-0.336,0.456-0.4,0.72c-0.044-0.06-0.09-0.12-0.144-0.176c-0.6-0.602-1.573-0.602-2.175,0
	c-0.6,0.602-0.602,1.576,0,2.176c0.055,0.055,0.116,0.1,0.176,0.145c-0.263,0.064-0.514,0.193-0.72,0.398
	c-0.6,0.602-0.6,1.576,0,2.178c0.328,0.327,0.765,0.47,1.192,0.44"/>
<circle fill="#6B3359" cx="113.622" cy="96.756" r="0.914"/>
<path fill="#839151" d="M137.815,92.755c-0.323,0.282-0.53,0.692-0.53,1.154c-0.002,0.85,0.688,1.536,1.536,1.536
	c0.293,0,0.562-0.085,0.793-0.224c-0.012,0.074-0.023,0.148-0.022,0.224c0,0.85,0.688,1.54,1.537,1.54c0.85,0,1.54-0.69,1.54-1.54
	c0-0.075-0.013-0.15-0.024-0.226c0.233,0.14,0.503,0.226,0.794,0.227c0.85,0,1.538-0.688,1.54-1.538
	c-0.002-0.463-0.21-0.873-0.533-1.154"/>
<path fill="#ECECEC" d="M144.445,92.756c0.322-0.282,0.53-0.692,0.53-1.155c0-0.848-0.688-1.537-1.538-1.538
	c-0.29,0-0.56,0.085-0.792,0.228c0.01-0.075,0.022-0.15,0.022-0.227c0-0.852-0.688-1.54-1.54-1.54
	c-0.85,0.002-1.538,0.69-1.537,1.54c0,0.077,0.012,0.152,0.022,0.227c-0.232-0.14-0.5-0.228-0.79-0.228c-0.85,0-1.54,0.69-1.54,1.54
	c0,0.462,0.208,0.87,0.53,1.153"/>
<circle fill="#6B3359" cx="141.129" cy="92.755" r="0.914"/>
<path fill="#8F8588" stroke="#6A4856" stroke-width="4" stroke-linecap="round" stroke-linejoin="round" stroke-miterlimit="10" d="
	M588.838,333.04c6.854-18.14,24.37-31.04,44.907-31.04c4.328,0,8.518,0.582,12.507,1.656c2.553-5.893,3.977-12.391,3.99-19.221
	c0.058-26.904-21.708-48.767-48.612-48.824l-58.756-0.051c-6.645-0.014-12.978,1.306-18.755,3.703c0,0-10.375-15.264-42.375-3.264
	c0,0-14.25,10.25,2,12h13c0,0,12.192,2.055,6.658,7.59c-5.86,8.02-9.332,17.893-9.357,28.585
	c-0.028,13.634,5.55,25.966,14.561,34.83l-7.188,21.399l14.99,0.035l4.274-12.733c2.806,1.423,5.759,2.59,8.843,3.456l-5.638,16.788
	l14.987,0.032l5.033-14.979L588.838,333.04L588.838,333.04z"/>
<path fill="none" stroke="#231F20" stroke-width="4" stroke-linecap="round" stroke-linejoin="round" stroke-miterlimit="10" d="
	M585.745,350c0-26.51,21.49-48,48-48s48,21.49,48,48v8"/>
<path fill="#8F8588" stroke="#6A4856" stroke-width="4" stroke-linecap="round" stroke-linejoin="round" stroke-miterlimit="10" d="
	M510.745,306l-35.924-14.373l1.873,0.006c-3.104-0.007-5.618-2.529-5.61-5.633l0.027-18.386c0.007-3.105,2.53-5.617,5.633-5.61
	L474.871,262l36.443,0.046"/>
<g>
	<path fill="none" stroke="#6A4856" stroke-width="4" stroke-linecap="round" stroke-miterlimit="10" d="M648.242,267.967
		c0.007-4.138,3.37-7.486,7.51-7.48c4.143,0.014,7.487,3.377,7.48,7.515 M663.232,268c0.008-4.139,3.37-7.486,7.514-7.48"/>
</g>
<circle fill="#231F20" cx="510.769" cy="271.021" r="2.977"/>
<path fill="#8F8588" stroke="#6A4856" stroke-width="4" stroke-linecap="round" stroke-linejoin="round" stroke-miterlimit="10" d="
	M478.745,292c2-2,12-8,16-2s18,4,18,4"/>
<path fill="#6A4856" d="M472.079,263.167h7.667V290h-7.666L472.079,263.167z"/>
<g>
	
		<path fill="#C1BFB5" stroke="#231F20" stroke-width="4" stroke-linecap="round" stroke-linejoin="round" stroke-miterlimit="10" d="
		M339.745,125.575l12-19.575h-270l12,19.575H339.745z"/>
	
		<path fill="#FFF6E3" stroke="#231F20" stroke-width="4" stroke-linecap="round" stroke-linejoin="round" stroke-miterlimit="10" d="
		M81.745,98h270v8h-270V98z"/>
	
		<path fill="#444646" stroke="#231F20" stroke-width="4" stroke-linecap="round" stroke-linejoin="round" stroke-miterlimit="10" d="
		M93.745,126h246v96h-246V126z"/>
	
		<path fill="#C1BFB5" stroke="#231F20" stroke-width="4" stroke-linecap="round" stroke-linejoin="round" stroke-miterlimit="10" d="
		M93.745,214h246v8h-246V214z"/>
</g>
<path fill="none" stroke="#231F20" stroke-width="4" stroke-linecap="round" stroke-linejoin="round" stroke-miterlimit="10" d="
	M501.745,350V164c0-2.21,1.79-4,4-4h86l34,96v40c0,0-46,8-46,54"/>
<path fill="#454646" stroke="#231F20" stroke-width="4" stroke-linecap="round" stroke-linejoin="round" stroke-miterlimit="10" d="
	M521.745,256c2.21,0,4-1.79,4-4v-4c0-2.21-1.79-4-4-4h-4v12H521.745z"/>
<path fill="none" stroke="#231F20" stroke-width="4" stroke-linecap="round" stroke-linejoin="round" stroke-miterlimit="10" d="
	M513.745,256c-2.21,0-4-1.79-4-4v-4c0-2.21,1.79-4,4-4h4v12H513.745z"/>
<path fill="none" stroke="#ECECEC" stroke-width="12" stroke-linecap="round" stroke-linejoin="round" stroke-miterlimit="10" d="
	M235.745,252h72"/>
<path fill="none" stroke="#ECECEC" stroke-width="24" stroke-linecap="round" stroke-linejoin="round" stroke-miterlimit="10" d="
	M83.745,252h32"/>
<path fill="#4C81B7" d="M345.925,245.424c-2.233,1.309-2.347,4.994,0.436,5.76c2.94,0.811,5.17-3.058,3.02-5.207
	c-0.918-0.918-2.413-1.129-3.54-0.469c-1.378,0.809-1.455,2.32-1.19,3.717c0.23,1.221-0.104,1.604-0.89,2.498
	c-0.768,0.879-1.684,1.612-2.822,1.866c-3.146,0.703-1.812,5.522,1.33,4.82c2.364-0.528,4.178-2.128,5.708-3.942
	c0.845-1.002,1.532-2.005,1.665-3.342c0.112-1.134-0.142-2.167-0.158-3.27c-0.115,0.42-0.23,0.84-0.342,1.26
	c0.04-0.061,0.08-0.124,0.12-0.188l-1.494,1.148l0.296-0.053l-1.926-0.252l-0.568-0.521c-0.114-0.422-0.228-0.842-0.34-1.263
	c0,0.1,0.002,0.195,0.004,0.295c0.114-0.42,0.228-0.842,0.34-1.262l0.52-0.431c0.42-0.114,0.84-0.229,1.26-0.343
	c-0.108,0.008-0.218,0.016-0.327,0.021l1.262,0.342l0.59,0.572c0.115,0.42,0.23,0.84,0.342,1.262l-0.77,1.295
	c2.778-1.629,0.263-5.95-2.526-4.318V245.424z M345.105,247c-0.305,0.002-0.608,0.008-0.912,0c-0.286-0.023-0.247-0.014,0.118,0.027
	c-0.565-0.092,0.43,0.281-0.055,0c0.524,0.576,0.654,0.685,0.393,0.324c-0.33-0.482-0.077-0.619-0.003,0.373
	c-0.037-0.496-0.065-0.996-0.214-1.475c-0.405-1.3-1.728-2.116-3.075-1.746c-1.28,0.354-2.15,1.775-1.745,3.076
	c0.206,0.658,0.006-0.488,0.035,0.145c0.027,0.59,0.112,1.096,0.385,1.621c0.39,0.746,0.886,1.387,1.563,1.896
	c1,0.75,2.316,0.767,3.512,0.76c1.363-0.01,2.5-1.13,2.5-2.5c0-1.354-1.14-2.51-2.5-2.5L345.105,247z M344.688,249.5
	c-0.75,0.025-1.56,0.184-2.188,0.24c-0.58,0.052-0.148,0.06,0.11,0.168c-0.234-0.145-0.233-0.129,0.003,0.047
	c-0.112-0.1-0.22-0.2-0.326-0.307c-0.975-0.95-2.563-0.973-3.535,0c-0.955,0.953-0.975,2.584,0,3.535
	c0.707,0.689,1.534,1.301,2.533,1.465c1.19,0.194,2.318-0.11,3.403-0.148c1.362-0.047,2.5-1.102,2.5-2.5
	C347.188,250.673,346.05,249.453,344.688,249.5z M331.745,254c0,2.21-1.79,4-4,4h-4c-2.21,0-4-1.79-4-4v-4c0-2.21,1.79-4,4-4h4
	c2.21,0,4,1.79,4,4V254z"/>
<path fill="#4CABC2" stroke="#231F20" stroke-width="4" stroke-linecap="round" stroke-linejoin="round" stroke-miterlimit="10" d="
	M609.745,238v2c0,2.21-3.79,4-6,4h-24l-20-2l-46-10c-2.21,0-4-1.79-4-4v-56c0-2.21,1.79-4,4-4h70c2.21,0,4,1.79,4,4l18,48
	L609.745,238z"/>
<path opacity="0.2" fill="#FFFFFF" enable-background="new    " d="M541.745,168l-32,32v-16l16-16H541.745z M549.745,168l-38,40h-4
	l38-40H549.745z M603.745,208l-32,36h-4l34-38L603.745,208z M599.745,202l-36,42l-36-8l58-66L599.745,202z"/>
<path fill="none" stroke="#231F20" stroke-width="4" stroke-linecap="round" stroke-linejoin="round" stroke-miterlimit="10" d="
	M609.745,238v2c0,2.21-3.79,4-6,4h-24l-20-2l-46-10c-2.21,0-4-1.79-4-4v-56c0-2.21,1.79-4,4-4h70c2.21,0,4,1.79,4,4l18,48
	L609.745,238z"/>
<path fill="#4CABC2" stroke="#231F20" stroke-width="4" stroke-linecap="round" stroke-linejoin="round" stroke-miterlimit="10" d="
	M579.745,168v74"/>
<path fill="#454646" stroke="#231F20" stroke-width="4" stroke-linecap="round" stroke-linejoin="round" stroke-miterlimit="10" d="
	M607.745,246l-4,10h22l-6-18L607.745,246z"/>
<path fill="#F79520" stroke="#231F20" stroke-width="4" stroke-linecap="round" stroke-linejoin="round" stroke-miterlimit="10" d="
	M725.745,292h16l-4-19h-14L725.745,292z"/>
<path fill="#454646" stroke="#231F20" stroke-width="4" stroke-linecap="round" stroke-linejoin="round" stroke-miterlimit="10" d="
	M603.745,246.128l3.755,1.38c4.146,1.521,8.745-0.605,10.268-4.752l4.483-13.109c1.523-4.146-0.604-8.744-4.75-10.268L613.745,218
	L603.745,246.128z"/>
<path fill="#F79520" stroke="#231F20" stroke-width="4" stroke-linecap="round" stroke-linejoin="round" stroke-miterlimit="10" d="
	M445.745,81h14v7h-14V81z"/>
<path fill="#ECECEC" stroke="#231F20" stroke-width="4" stroke-linecap="round" stroke-linejoin="round" stroke-miterlimit="10" d="
	M235.745,82c0,2.21-1.79,4-4,4h-24c-2.21,0-4-1.79-4-4V70c0-2.21,1.79-4,4-4h24c2.21,0,4,1.79,4,4V82z"/>
<path fill="#937855" d="M231.745,72c-0.004,1.104-0.898,2.002-2,2c-1.104-0.002-1.998-0.896-2-2c-0.004-1.105,0.896-2.004,2-2
	C230.849,70,231.743,70.896,231.745,72z M221.745,72c-0.004,1.104-0.898,2.002-2,2c-1.104-0.002-1.998-0.896-2-2
	c-0.004-1.105,0.896-2.004,2-2C220.849,70,221.743,70.896,221.745,72z M211.745,72c-0.004,1.104-0.898,2.002-2,2
	c-1.104-0.002-1.998-0.896-2-2c-0.004-1.105,0.896-2.004,2-2C210.849,70,211.743,70.896,211.745,72z M231.745,80
	c-0.004,1.104-0.898,2.002-2,2c-1.104-0.002-1.998-0.896-2-2c-0.004-1.105,0.896-2.004,2-2C230.849,78,231.743,78.896,231.745,80z
	 M221.745,80c-0.004,1.104-0.898,2.002-2,2c-1.104-0.002-1.998-0.896-2-2c-0.004-1.105,0.896-2.004,2-2
	C220.849,78,221.743,78.896,221.745,80z M211.745,80c-0.004,1.104-0.898,2.002-2,2c-1.104-0.002-1.998-0.896-2-2
	c-0.004-1.105,0.896-2.004,2-2C210.849,78,211.743,78.896,211.745,80z"/>
<circle fill="#ECECEC" stroke="#231F20" stroke-width="4" stroke-linecap="round" stroke-linejoin="round" stroke-miterlimit="10" cx="443.745" cy="292" r="8"/>
<circle fill="#B2B2B2" stroke="#231F20" stroke-width="4" stroke-linecap="round" stroke-linejoin="round" stroke-miterlimit="10" cx="443.745" cy="292" r="2"/>
<g>
	
		<path fill="#454545" stroke="#231F20" stroke-width="4" stroke-linecap="round" stroke-linejoin="round" stroke-miterlimit="10" d="
		M427.745,126.363c0-2.41-1.79-4.363-4-4.363h-72c-2.21,0-4,1.954-4,4.363V226c0,2.41,1.79,4.363,4,4.363h72c2.21,0,4-1.954,4-4.363
		V126.363z"/>
	<path fill="none" stroke="#839151" stroke-width="8" stroke-linecap="round" stroke-linejoin="round" stroke-miterlimit="10" d="
		M357.745,141h14 M383.745,141h6 M401.745,141h16"/>
	<path fill="none" stroke="#ECECEC" stroke-width="4" stroke-linecap="round" stroke-linejoin="round" stroke-miterlimit="10" d="
		M355.745,130h12 M375.745,130h6 M389.745,130h6 M403.745,130h16"/>
	<path fill="none" stroke="#ECECEC" stroke-width="12" stroke-linecap="round" stroke-linejoin="round" stroke-miterlimit="10" d="
		M415.745,154"/>
	<path fill="none" stroke="#F79520" stroke-width="4" stroke-linecap="round" stroke-linejoin="round" stroke-miterlimit="10" d="
		M355.745,150h8 M371.745,150h8 M387.745,150h8 M383.745,156h8 M367.745,156h8 M355.745,158h4"/>
	<path fill="none" stroke="#839151" stroke-width="8" stroke-linecap="round" stroke-linejoin="round" stroke-miterlimit="10" d="
		M357.745,170h8 M377.745,170h6 M395.745,170h6 M413.745,170h4"/>
	<path fill="none" stroke="#ECECEC" stroke-width="12" stroke-linecap="round" stroke-linejoin="round" stroke-miterlimit="10" d="
		M415.745,183"/>
	<path fill="none" stroke="#F79520" stroke-width="4" stroke-linecap="round" stroke-linejoin="round" stroke-miterlimit="10" d="
		M355.745,179h8 M371.745,179h8 M387.745,179h8 M383.745,185h8 M367.745,185h8 M373.745,192h14 M395.745,192h6 M355.745,185h4
		 M355.745,192h10"/>
	<path fill="none" stroke="#839151" stroke-width="8" stroke-linecap="round" stroke-linejoin="round" stroke-miterlimit="10" d="
		M357.745,204h8 M377.745,204h8 M397.745,204h8"/>
	<path fill="none" stroke="#ECECEC" stroke-width="12" stroke-linecap="round" stroke-linejoin="round" stroke-miterlimit="10" d="
		M415.745,217"/>
	<path fill="none" stroke="#F79520" stroke-width="4" stroke-linecap="round" stroke-linejoin="round" stroke-miterlimit="10" d="
		M355.745,213h8 M371.745,213h8 M387.745,213h8 M383.745,219h8 M367.745,219h8 M355.745,219h4"/>
</g>
<g>
	
		<circle fill="#710814" stroke="#231F20" stroke-width="4" stroke-linecap="round" stroke-linejoin="round" stroke-miterlimit="10" cx="82.745" cy="133" r="17"/>
	
		<ellipse fill="#ECECEC" stroke="#231F20" stroke-width="4" stroke-linecap="round" stroke-linejoin="round" stroke-miterlimit="10" cx="82.745" cy="133" rx="7" ry="17"/>
	
		<path fill="#ECECEC" stroke="#231F20" stroke-width="4" stroke-linecap="round" stroke-linejoin="round" stroke-miterlimit="10" d="
		M82.745,116v-10"/>
</g>
<g>
	
		<circle fill="#710814" stroke="#231F20" stroke-width="4" stroke-linecap="round" stroke-linejoin="round" stroke-miterlimit="10" cx="350.745" cy="133" r="17"/>
	
		<ellipse fill="#ECECEC" stroke="#231F20" stroke-width="4" stroke-linecap="round" stroke-linejoin="round" stroke-miterlimit="10" cx="350.745" cy="133" rx="7" ry="17"/>
	
		<path fill="#ECECEC" stroke="#231F20" stroke-width="4" stroke-linecap="round" stroke-linejoin="round" stroke-miterlimit="10" d="
		M350.745,116v-10"/>
</g>
<path fill="#CE3746" stroke="#231F20" stroke-width="4" stroke-linecap="round" stroke-linejoin="round" stroke-miterlimit="10" d="
	M211.745,194v12c0,2.21-1.79,4-4,4s-4-1.79-4-4v-12H211.745z"/>
<path fill="#FCEE22" stroke="#231F20" stroke-width="4" stroke-linecap="round" stroke-linejoin="round" stroke-miterlimit="10" d="
	M227.745,194v12c0,2.21-1.79,4-4,4s-4-1.79-4-4v-12H227.745z"/>
<path fill="#8E9A36" stroke="#231F20" stroke-width="4" stroke-linecap="round" stroke-linejoin="round" stroke-miterlimit="10" d="
	M243.745,194v12c0,2.21-1.79,4-4,4s-4-1.79-4-4v-12H243.745z"/>
<path fill="#EEEEEE" stroke="#231F20" stroke-width="4" stroke-linecap="round" stroke-linejoin="round" stroke-miterlimit="10" d="
	M195.745,188v20c0,2.21-1.79,4-4,4h-2c-2.21,0-4-1.79-4-4v-20H195.745z"/>
<path fill="#40346E" stroke="#231F20" stroke-width="4" stroke-linecap="round" stroke-linejoin="round" stroke-miterlimit="10" d="
	M185.745,196h10v8h-10V196z M187.745,182h6v6h-6V182z"/>
<path fill="#6C7071" stroke="#231F20" stroke-width="4" stroke-linecap="round" stroke-linejoin="round" stroke-miterlimit="10" d="
	M271.745,210l-4-20h24l-4,20H271.745z"/>
<path fill="#937855" stroke="#231F20" stroke-width="4" stroke-linecap="round" stroke-linejoin="round" stroke-miterlimit="10" d="
	M302.745,212l-4-12h29l-4,12H302.745z"/>
<path fill="#ECECEC" stroke="#231F20" stroke-width="4" stroke-linecap="round" stroke-linejoin="round" stroke-miterlimit="10" d="
	M322.745,192h-20v8h20V192z M322.745,184h-20v8h20V184z M105.745,204h24v6h-24V204z"/>
<g>
	<path fill="none" stroke="#F79520" stroke-width="4" stroke-linecap="round" stroke-linejoin="round" stroke-miterlimit="10" d="
		M141.745,198h16"/>
	
		<path fill="#ECECEC" stroke="#231F20" stroke-width="4" stroke-linecap="round" stroke-linejoin="round" stroke-miterlimit="10" d="
		M157.745,210h-16l-4-8h24L157.745,210z"/>
</g>
<path fill="none" stroke="#CD8D06" stroke-width="4" stroke-linecap="round" stroke-linejoin="round" stroke-miterlimit="10" d="
	M109.745,192h16"/>
<path fill="none" stroke="#4D4012" stroke-width="4" stroke-linecap="round" stroke-linejoin="round" stroke-miterlimit="10" d="
	M112.945,196h9.6"/>
<path fill="none" stroke="#CD8D06" stroke-width="4" stroke-linecap="round" stroke-linejoin="round" stroke-miterlimit="10" d="
	M109.745,200h16"/>
<path fill="#F79520" stroke="#231F20" stroke-width="4" stroke-linecap="round" stroke-linejoin="round" stroke-miterlimit="10" d="
	M1.745,328.5h10l-2-12h-8V328.5z"/>
</svg>
