<svg xmlns="http://www.w3.org/2000/svg" width="752" height="400" viewBox="-55.499 0 752 400" enable-background="new -55.499 0 752 400"><path fill="#444646" stroke="#231F20" stroke-width="4" stroke-linecap="round" stroke-linejoin="round" stroke-miterlimit="10" d="M86.502 350L198.5 360l16.002-70H86.5zM516.502 348l111.998 8 16.002-70H516.5z"/><path fill="none" stroke="#B9529F" stroke-width="4" stroke-linecap="round" stroke-linejoin="round" stroke-miterlimit="10" d="M416.5 170"/><path fill="#6B3359" stroke="#231F20" stroke-width="4" stroke-linecap="round" stroke-linejoin="round" stroke-miterlimit="10" d="M378.5 58h-402c-2.21 0-4 1.79-4 4-2.21 0-4 1.79-4 4v16c-2.21 0-4 1.79-4 4-2.21 0-4 1.79-4 4l-14 226h8l6 28 140 8c0-26.51 21.49-48 48-48s48 21.49 48 48c0 .037-.003.074-.003.11l.003 7.89 222-4v-6h112c0-26.51 21.49-48 48-48s48 21.49 48 48v8l44-24 20-24-8-38s-6-10-12-10c0 0-50-22-72-26l-10-6-44-80s1-7-2-10l-10-12-14-26-62-20-60-8-18-16z"/><path fill="#5E6363" stroke="#231F20" stroke-width="4" stroke-miterlimit="10" d="M192.5 354c0 24.3-19.7 44-44 44s-44-19.7-44-44 19.7-41 44-41 44 16.7 44 41z"/><circle fill="#6F7B87" cx="148.5" cy="354" r="24"/><circle fill="#454C55" cx="148.5" cy="354" r="8"/><g fill="#111"><path d="M169.82 357.072c-1.913-1.105-4.358-.45-5.464 1.463l-4 6.928c-1.104 1.914-.45 4.36 1.463 5.465 1.913 1.104 4.36.45 5.464-1.465l4-6.928c1.105-1.912.45-4.36-1.465-5.463zM135.178 337.072c-1.912-1.105-4.36-.45-5.463 1.463l-4 6.928c-1.104 1.914-.45 4.36 1.463 5.467 1.914 1.103 4.36.447 5.465-1.467l4-6.928c1.105-1.912.45-4.36-1.465-5.463z"/></g><g fill="#111"><path d="M161.82 337.072c-1.913 1.104-2.567 3.55-1.464 5.464l4 6.928c1.105 1.913 3.55 2.57 5.465 1.465 1.913-1.105 2.57-3.553 1.464-5.466l-4-6.928c-1.104-1.913-3.55-2.568-5.463-1.464zM127.18 357.072c-1.914 1.104-2.57 3.55-1.465 5.464l4 6.928c1.104 1.913 3.55 2.57 5.465 1.465 1.912-1.105 2.568-3.553 1.463-5.466l-4-6.928c-1.104-1.913-3.55-2.568-5.463-1.464z"/></g><g fill="#111"><path d="M140.5 334c0 2.21 1.79 4 4 4h8c2.21 0 4-1.79 4-4s-1.79-4-4-4h-8c-2.21 0-4 1.79-4 4zM140.5 374c0 2.21 1.79 4 4 4h8c2.21 0 4-1.79 4-4s-1.79-4-4-4h-8c-2.21 0-4 1.79-4 4z"/></g><circle fill="none" stroke="#231F20" stroke-width="4" stroke-miterlimit="10" cx="148.5" cy="354" r="24"/><g fill="#252526"><path d="M139.116 346.098c1.052.344 1.628 1.473 1.284 2.52-.34 1.052-1.47 1.626-2.52 1.284-1.048-.34-1.625-1.47-1.284-2.52.343-1.05 1.47-1.623 2.52-1.284zM136.88 358.824c.653-.895 1.904-1.093 2.796-.443s1.09 1.9.44 2.795c-.645.895-1.9 1.092-2.792.442-.892-.648-1.09-1.9-.444-2.793zM156.88 361.176c-.646-.896-.45-2.148.443-2.795.894-.647 2.145-.448 2.795.444.65.892.45 2.146-.443 2.793-.893.65-2.144.448-2.794-.44zM159.117 349.904c-1.053.34-2.182-.235-2.52-1.284-.34-1.05.234-2.178 1.285-2.52 1.05-.345 2.182.233 2.518 1.284.343 1.05-.234 2.178-1.283 2.52zM150.502 342c-.004 1.104-.898 2.002-2 2-1.104-.002-1.998-.896-2-2-.004-1.105.896-2.004 2-2 1.104 0 1.998.896 2 2zM150.502 366c-.004 1.104-.898 2.002-2 2-1.104-.002-1.998-.896-2-2-.004-1.105.896-2.004 2-2 1.104 0 1.998.896 2 2zM150.502 354c-.004 1.104-.898 2.002-2 2-1.105-.002-2-.896-2-2-.004-1.105.895-2.004 2-2 1.102 0 1.996.896 2 2z"/></g><path fill="#5E6363" stroke="#231F20" stroke-width="4" stroke-miterlimit="10" d="M622.5 354c0 24.3-19.7 44-44 44s-44-19.7-44-44 19.7-41 44-41 44 16.7 44 41z"/><circle fill="#6F7B87" cx="578.5" cy="354" r="24"/><circle fill="#454C55" cx="578.5" cy="354" r="8"/><g fill="#111"><path d="M599.82 357.072c-1.913-1.105-4.358-.45-5.464 1.463l-4 6.928c-1.104 1.914-.45 4.36 1.463 5.465 1.913 1.104 4.36.45 5.464-1.465l4-6.928c1.105-1.912.45-4.36-1.465-5.463zM565.178 337.072c-1.912-1.105-4.36-.45-5.463 1.463l-4 6.928c-1.104 1.914-.45 4.36 1.463 5.467 1.914 1.103 4.36.447 5.465-1.467l4-6.928c1.105-1.912.45-4.36-1.465-5.463z"/></g><g fill="#111"><path d="M591.82 337.072c-1.913 1.104-2.567 3.55-1.464 5.464l4 6.928c1.105 1.913 3.55 2.57 5.465 1.465 1.913-1.105 2.57-3.553 1.464-5.466l-4-6.928c-1.104-1.913-3.55-2.568-5.463-1.464zM557.18 357.072c-1.914 1.104-2.57 3.55-1.465 5.464l4 6.928c1.104 1.913 3.55 2.57 5.465 1.465 1.912-1.105 2.568-3.553 1.463-5.466l-4-6.928c-1.104-1.913-3.55-2.568-5.463-1.464z"/></g><g fill="#111"><path d="M570.5 334c0 2.21 1.79 4 4 4h8c2.21 0 4-1.79 4-4s-1.79-4-4-4h-8c-2.21 0-4 1.79-4 4zM570.5 374c0 2.21 1.79 4 4 4h8c2.21 0 4-1.79 4-4s-1.79-4-4-4h-8c-2.21 0-4 1.79-4 4z"/></g><circle fill="none" stroke="#231F20" stroke-width="4" stroke-miterlimit="10" cx="578.5" cy="354" r="24"/><g fill="#252526"><path d="M569.116 346.098c1.052.344 1.628 1.473 1.284 2.52-.34 1.052-1.47 1.626-2.52 1.284-1.048-.34-1.625-1.47-1.284-2.52.343-1.05 1.47-1.623 2.52-1.284zM566.88 358.824c.653-.895 1.904-1.093 2.796-.443s1.09 1.9.44 2.795c-.645.895-1.9 1.092-2.792.442-.892-.648-1.09-1.9-.444-2.793zM586.88 361.176c-.646-.896-.45-2.148.443-2.795.894-.647 2.145-.448 2.795.444.65.892.45 2.146-.443 2.793-.893.65-2.144.448-2.794-.44zM589.117 349.904c-1.053.34-2.182-.235-2.52-1.284-.34-1.05.234-2.178 1.285-2.52 1.05-.345 2.182.233 2.518 1.284.343 1.05-.234 2.178-1.283 2.52zM580.502 342c-.004 1.104-.898 2.002-2 2-1.104-.002-1.998-.896-2-2-.004-1.105.896-2.004 2-2 1.104 0 1.998.896 2 2zM580.502 366c-.004 1.104-.898 2.002-2 2-1.104-.002-1.998-.896-2-2-.004-1.105.896-2.004 2-2 1.104 0 1.998.896 2 2zM580.502 354c-.004 1.104-.898 2.002-2 2-1.105-.002-2-.896-2-2-.004-1.105.895-2.004 2-2 1.102 0 1.996.896 2 2z"/></g><path fill="#ECECEC" stroke="#231F20" stroke-width="4" stroke-miterlimit="10" d="M222.498 48c2.21 0 4 1.79 4 4l.002 6h-95.998v-6c-.002-2.21 1.79-4 3.998-4h87.998zM150.5 34h56v14h-56zM132.5 34V24s14-8 38-8h16c24 0 38 8 38 8v10h-92z"/><path fill="#6B3359" stroke="#231F20" stroke-width="4" stroke-linecap="round" stroke-linejoin="round" stroke-miterlimit="10" d="M-31.5 82h394l34-8"/><path fill="#ECECEC" stroke="#231F20" stroke-width="4" stroke-linecap="round" stroke-linejoin="round" stroke-miterlimit="10" d="M148.5 304c25.875 0 46.957 20.37 47.952 46l.08 10 145.634-6H374.5v-84h-412v46h-8l6 28 140.203 3.674C102.893 323.192 123.45 304 148.5 304z"/><path fill="#710814" stroke="#231F20" stroke-width="4" stroke-linecap="round" stroke-linejoin="round" stroke-miterlimit="10" d="M194.062 336.824c1.38 4.167 2.212 8.584 2.39 13.176l.02 2.236L374.5 326v-26l-180.438 36.824zM294.5 270l-114.455 45.78c4.162 3.624 7.684 7.958 10.393 12.81L374.5 276v-6h-80zM174.603 311.686L212.5 270h-26l-20.368 37.34c2.982 1.174 5.817 2.63 8.47 4.346zM148.5 304c.887 0 1.766.03 2.64.076L162.5 270h-28l6.904 34.525c2.316-.343 4.684-.525 7.096-.525zM127.09 309.037L108.5 270h-32l43.438 43.438c2.242-1.666 4.633-3.14 7.152-4.4zM116.676 316.088L24.5 270h-52l137.432 53.445c1.988-2.68 4.25-5.145 6.744-7.357zM104.518 332.787L-37.5 304v12h-8l2 12 145.926 10.55c.576-1.978 1.277-3.9 2.092-5.763z"/><path fill="#839151" stroke="#231F20" stroke-width="4" stroke-linecap="round" stroke-linejoin="round" stroke-miterlimit="10" d="M588.5 230l-44-80s.45-3.186-.174-6.18C529.298 135.086 513.78 130 498.5 130c-75.11 0-136 60.89-136 136 0 34.7 13.004 66.36 34.395 90.39L418.5 356v-6h112c0-26.51 21.49-48 48-48s48 21.49 48 48v8l26.697-14.562c.85-4.753 1.303-9.882 1.303-15.438 0-24.124-8.354-53.175-22.17-81.502-12.452-4.654-25.264-8.94-33.83-10.498l-10-6z"/><path fill="#ECECEC" stroke="#231F20" stroke-width="4" stroke-linecap="round" stroke-linejoin="round" stroke-miterlimit="10" d="M588.5 230l-34.764-63.206C536.5 148 516.93 144 498.5 144c-67.38 0-122 54.62-122 122 0 35.655 15.298 67.734 39.686 90.042L418.5 356v-6h112c0-26.51 21.49-48 48-48s48 21.49 48 48v8l9.554-5.21c2.876-6.868 4.446-15.042 4.446-24.79 0-25.36-10.574-57.698-27.354-88.167-5.514-1.728-10.562-3.09-14.646-3.833l-10-6z"/><g fill="#454646" stroke="#231F20" stroke-width="4" stroke-linecap="round" stroke-linejoin="round" stroke-miterlimit="10"><path d="M626.5 358l-2.24-.187c.723.12 1.47.187 2.24.187zM686.5 308.03h-20l-26.807-.03H602.5l.02.45c14.333 8.304 23.98 23.795 23.98 41.55v8l6-2s54 2 54-20c4.418 0 8-3.582 8-8v-11.97c0-4.418-3.582-8-8-8z"/></g><path fill="none" stroke="#ECECEC" stroke-width="24" stroke-linecap="round" stroke-linejoin="round" stroke-miterlimit="10" d="M218.5 100h64"/><path fill="#B2B2B2" stroke="#231F20" stroke-width="4" stroke-linecap="round" stroke-linejoin="round" stroke-miterlimit="10" d="M374.5 276h28v78h-28z"/><path fill="none" stroke="#ECECEC" stroke-width="24" stroke-linecap="round" stroke-linejoin="round" stroke-miterlimit="10" d="M314.5 100h36"/><path fill="#839151" d="M-17.625 205.375M-25.625 205.375M-6.375 198.375c.84-.733 1.38-1.8 1.38-3 0-2.21-1.79-4-4-4-.756 0-1.456.223-2.06.587.028-.193.06-.386.06-.587 0-2.21-1.79-4-4-4s-4 1.79-4 4c0 .2.03.394.06.587-.604-.364-1.304-.587-2.06-.587-2.21 0-4 1.79-4 4 0 1.2.54 2.267 1.38 3"/><path fill="#ECECEC" d="M-23.615 198.375c-.84.733-1.38 1.8-1.38 3 0 2.21 1.79 4 4 4 .756 0 1.456-.223 2.06-.587-.028.193-.06.386-.06.587 0 2.21 1.79 4 4 4s4-1.79 4-4c0-.2-.03-.394-.06-.587.604.364 1.304.587 2.06.587 2.21 0 4-1.79 4-4 0-1.2-.54-2.267-1.38-3"/><circle fill="#6B3359" cx="-14.995" cy="198.375" r="2.375"/><path fill="#839151" d="M-17.274 155.096c1.11.074 2.248-.297 3.097-1.146 1.562-1.562 1.562-4.095 0-5.656-.534-.535-1.187-.873-1.87-1.04.156-.118.313-.232.456-.374 1.56-1.562 1.56-4.096 0-5.657s-4.096-1.562-5.658 0c-.142.143-.256.3-.373.456-.17-.685-.507-1.337-1.042-1.87-1.562-1.563-4.095-1.563-5.656 0-.85.848-1.22 1.984-1.146 3.096"/><path fill="#ECECEC" d="M-29.466 142.904c-1.11-.074-2.247.297-3.097 1.146-1.562 1.562-1.562 4.094 0 5.656.534.534 1.187.872 1.87 1.04-.155.118-.313.23-.455.374-1.562 1.562-1.562 4.095 0 5.657 1.56 1.562 4.094 1.562 5.656 0 .143-.143.256-.3.373-.457.17.684.507 1.337 1.042 1.87 1.562 1.563 4.095 1.563 5.656 0 .85-.85 1.22-1.984 1.146-3.096"/><circle fill="#6B3359" cx="-23.37" cy="149" r="2.375"/><path fill="#839151" d="M-23.83 97.542c-1.11-.074-2.247.297-3.096 1.146-1.562 1.562-1.562 4.095 0 5.656.534.535 1.187.873 1.87 1.04-.156.118-.313.232-.456.374-1.562 1.562-1.562 4.096 0 5.657s4.095 1.562 5.657 0c.142-.143.256-.3.373-.456.17.683.506 1.335 1.04 1.87 1.563 1.56 4.096 1.56 5.657 0 .85-.85 1.22-1.986 1.146-3.098"/><path fill="#ECECEC" d="M-11.637 109.733c1.11.074 2.247-.297 3.097-1.146 1.562-1.562 1.562-4.094 0-5.656-.534-.533-1.187-.87-1.87-1.04.155-.117.313-.23.455-.373 1.562-1.562 1.562-4.095 0-5.657-1.56-1.562-4.094-1.562-5.656 0-.144.143-.257.3-.374.457-.17-.684-.506-1.337-1.04-1.87-1.563-1.563-4.096-1.563-5.657 0-.85.85-1.222 1.984-1.147 3.096"/><circle fill="#6B3359" cx="-17.733" cy="103.638" r="2.375"/><path fill="#839151" d="M43.587 92.266c.074-1.11-.297-2.248-1.146-3.097-1.56-1.563-4.094-1.563-5.655 0-.535.533-.873 1.186-1.04 1.87-.118-.157-.232-.314-.374-.457-1.56-1.562-4.095-1.562-5.656 0s-1.562 4.095 0 5.657c.143.142.3.256.456.373-.684.17-1.336.506-1.87 1.04-1.562 1.563-1.562 4.096 0 5.657.85.85 1.985 1.22 3.097 1.146"/><path fill="#ECECEC" d="M31.396 104.457c-.074 1.11.297 2.247 1.146 3.097 1.562 1.562 4.094 1.562 5.656 0 .534-.534.872-1.187 1.04-1.87.118.155.23.313.374.455 1.562 1.56 4.095 1.56 5.657 0 1.56-1.562 1.56-4.095-.002-5.657-.142-.143-.3-.256-.456-.373.684-.17 1.337-.506 1.87-1.04 1.563-1.563 1.563-4.096 0-5.657-.85-.85-1.984-1.22-3.096-1.146"/><circle fill="#6B3359" cx="37.491" cy="98.361" r="2.375"/><path fill="#839151" d="M-25.708 181.662c.77.05 1.556-.206 2.145-.794 1.08-1.08 1.08-2.835 0-3.915-.37-.37-.822-.605-1.296-.72.11-.083.22-.162.317-.26 1.08-1.08 1.08-2.836 0-3.917s-2.835-1.08-3.916 0c-.098.1-.176.208-.258.316-.116-.474-.35-.925-.72-1.295-1.082-1.082-2.835-1.082-3.917 0-.588.588-.844 1.374-.793 2.144"/><path fill="#ECECEC" d="M-34.147 173.222c-.77-.052-1.557.205-2.145.794-1.08 1.08-1.08 2.834 0 3.916.37.37.822.604 1.295.72-.107.08-.217.16-.314.26-1.083 1.08-1.083 2.834-.002 3.915 1.08 1.082 2.835 1.082 3.917 0 .098-.098.177-.208.258-.316.116.475.35.927.72 1.297 1.083 1.08 2.835 1.08 3.917 0 .588-.59.845-1.374.793-2.144"/><circle fill="#6B3359" cx="-29.927" cy="177.442" r="1.644"/><path fill="#839151" d="M-29.927 216.59c-.508-.58-1.245-.953-2.077-.955-1.53 0-2.77 1.24-2.77 2.77 0 .524.154 1.01.408 1.426-.136-.02-.27-.04-.408-.04-1.528 0-2.77 1.24-2.77 2.77s1.24 2.77 2.77 2.77c.14 0 .27-.022.406-.04-.252.416-.406.9-.405 1.424 0 1.53 1.238 2.77 2.77 2.77.83 0 1.567-.375 2.075-.955"/><path fill="#ECECEC" d="M-29.928 228.526c.508.58 1.246.956 2.078.955 1.528.002 2.768-1.24 2.77-2.77-.002-.522-.155-1.007-.407-1.424.134.02.268.04.405.04 1.53 0 2.77-1.24 2.77-2.77 0-1.528-1.24-2.77-2.77-2.77-.138 0-.27.022-.406.042.254-.417.407-.902.407-1.426-.002-1.53-1.24-2.77-2.77-2.77-.832 0-1.57.375-2.077.955"/><circle fill="#6B3359" cx="-29.928" cy="222.558" r="1.644"/><path fill="#839151" d="M157.722 256.778c-.05.77.205 1.553.793 2.143 1.08 1.083 2.835 1.083 3.916 0 .372-.37.606-.82.72-1.296.084.11.162.22.26.318 1.082 1.08 2.836 1.08 3.918 0 1.08-1.082 1.08-2.836 0-3.917-.1-.1-.207-.177-.316-.26.474-.116.924-.348 1.295-.72 1.082-1.08 1.083-2.834 0-3.916-.588-.59-1.374-.845-2.143-.794"/><path fill="#ECECEC" d="M166.163 248.337c.05-.77-.207-1.557-.795-2.145-1.08-1.08-2.834-1.08-3.916.002-.37.37-.603.82-.72 1.295-.08-.11-.16-.22-.26-.317-1.08-1.082-2.834-1.082-3.915 0-1.082 1.08-1.082 2.835 0 3.916.098.098.207.177.316.258-.475.114-.926.35-1.296.72-1.08 1.082-1.08 2.834 0 3.916.59.588 1.374.846 2.144.795"/><circle fill="#6B3359" cx="161.942" cy="252.557" r="1.645"/><path fill="#839151" d="M-.593 127.222c.05-.77-.206-1.556-.794-2.145-1.08-1.08-2.835-1.08-3.915 0-.37.37-.605.822-.72 1.296-.083-.11-.162-.218-.26-.316-1.08-1.08-2.836-1.08-3.917 0s-1.08 2.835 0 3.916c.1.1.21.177.317.26-.474.115-.925.35-1.295.72-1.082 1.08-1.082 2.834 0 3.916.588.587 1.374.843 2.144.792"/><path fill="#ECECEC" d="M-9.033 135.66c-.052.77.205 1.558.794 2.146 1.08 1.08 2.835 1.08 3.917 0 .37-.37.604-.822.72-1.295.08.108.16.218.26.315 1.08 1.082 2.834 1.082 3.915 0 1.082-1.08 1.082-2.834 0-3.916-.098-.1-.208-.178-.316-.26.474-.115.926-.35 1.296-.72 1.08-1.082 1.08-2.834 0-3.916-.59-.588-1.374-.845-2.144-.793"/><circle fill="#6B3359" cx="-4.813" cy="131.441" r="1.644"/><path fill="#839151" d="M.97 97c-.58.508-.953 1.246-.954 2.078 0 1.528 1.24 2.77 2.77 2.768.522 0 1.008-.153 1.425-.406-.02.135-.038.27-.04.407 0 1.528 1.24 2.77 2.77 2.77s2.768-1.24 2.77-2.77c0-.14-.02-.27-.04-.407.417.254.9.408 1.424.406 1.53 0 2.77-1.238 2.77-2.768 0-.833-.374-1.568-.954-2.077"/><path fill="#ECECEC" d="M12.907 97c.58-.508.955-1.244.953-2.077.002-1.528-1.24-2.768-2.77-2.77-.522.002-1.007.155-1.422.407.018-.134.038-.268.037-.405 0-1.53-1.238-2.77-2.768-2.77-1.53 0-2.77 1.24-2.77 2.77 0 .138.022.272.04.405-.415-.252-.9-.406-1.425-.405-1.53 0-2.768 1.238-2.77 2.77.005.83.378 1.567.958 2.075"/><circle fill="#6B3359" cx="6.938" cy="97" r="1.644"/><path fill="#839151" d="M-2.67 171c.32-.283.53-.692.53-1.155 0-.85-.69-1.537-1.538-1.537-.292 0-.56.085-.792.226.01-.075.02-.15.02-.226.002-.85-.688-1.54-1.537-1.54-.85 0-1.538.69-1.538 1.54 0 .076.012.15.022.226-.23-.14-.5-.226-.792-.226-.85 0-1.54.688-1.54 1.537 0 .463.21.872.532 1.154"/><path fill="#ECECEC" d="M-9.302 171c-.322.28-.53.69-.53 1.153 0 .85.688 1.538 1.538 1.54.29-.002.56-.087.79-.228-.01.074-.02.148-.02.226 0 .852.688 1.54 1.538 1.54s1.54-.688 1.54-1.54c0-.076-.014-.15-.024-.225.232.14.502.227.792.227.85 0 1.54-.69 1.54-1.54 0-.46-.21-.87-.532-1.152"/><circle fill="#6B3359" cx="-5.986" cy="170.999" r=".914"/><path fill="#839151" d="M-6.755 224.314c.283.322.692.53 1.155.53.85 0 1.537-.688 1.537-1.537 0-.292-.085-.56-.226-.792.076.01.15.02.227.02.85.002 1.54-.688 1.54-1.537 0-.85-.69-1.538-1.54-1.538-.076 0-.15.012-.226.022.142-.23.227-.5.227-.792 0-.85-.688-1.54-1.537-1.54-.463 0-.872.21-1.154.532"/><path fill="#ECECEC" d="M-6.754 217.684c-.282-.322-.692-.53-1.154-.53-.85 0-1.538.688-1.54 1.538.002.29.087.56.228.79-.074-.01-.148-.02-.226-.02-.85 0-1.54.688-1.54 1.538s.69 1.54 1.54 1.54c.077 0 .15-.014.226-.024-.14.232-.227.502-.227.792 0 .85.69 1.54 1.54 1.54.46 0 .87-.21 1.152-.532"/><circle fill="#6B3359" cx="-6.754" cy="221" r=".914"/><path fill="#839151" d="M-16.026 230.9c.027-.427-.114-.864-.44-1.19-.6-.602-1.575-.6-2.176 0-.206.207-.336.457-.4.72-.046-.06-.09-.122-.145-.175-.6-.602-1.575-.602-2.176 0s-.6 1.574 0 2.175c.055.054.115.1.177.144-.264.064-.514.195-.72.4-.6.602-.603 1.574-.002 2.176.327.326.765.47 1.192.44"/><path fill="#ECECEC" d="M-20.716 235.59c-.03.427.113.864.44 1.192.6.6 1.575.6 2.177 0 .206-.207.336-.457.4-.72.045.06.09.12.144.175.602.6 1.575.6 2.176 0 .6-.602.602-1.575 0-2.176-.055-.054-.116-.1-.176-.144.264-.064.515-.193.72-.398.6-.602.6-1.576 0-2.178-.326-.326-.764-.47-1.19-.44"/><circle fill="#6B3359" cx="-18.371" cy="233.245" r=".914"/><path fill="#839151" d="M-28.41 122.656c.027-.428-.115-.865-.442-1.19-.6-.603-1.574-.6-2.174 0-.207.206-.337.456-.4.718-.047-.06-.09-.12-.145-.174-.602-.602-1.577-.602-2.178-.002-.6.602-.6 1.576 0 2.178.055.053.115.098.177.143-.264.063-.515.194-.72.4-.602.6-.603 1.573-.002 2.175.327.326.765.47 1.19.44"/><path fill="#ECECEC" d="M-33.1 127.344c-.028.428.114.865.44 1.193.602.6 1.575.6 2.177 0 .205-.207.336-.457.4-.72.044.06.09.12.144.175.603.602 1.575.602 2.177 0 .6-.602.602-1.576 0-2.176-.055-.055-.116-.1-.176-.145.265-.063.516-.192.72-.397.602-.602.602-1.576 0-2.178-.326-.326-.763-.47-1.19-.44"/><circle fill="#6B3359" cx="-30.755" cy="125" r=".914"/><path fill="#839151" d="M22.23 106.9c.027-.427-.115-.864-.442-1.19-.6-.602-1.574-.6-2.174 0-.207.207-.337.457-.4.72-.047-.062-.09-.122-.145-.175-.602-.602-1.577-.602-2.178-.002-.6.602-.6 1.576 0 2.178.055.054.115.1.177.144-.264.064-.515.195-.72.4-.602.602-.603 1.574-.002 2.176.327.326.765.47 1.19.44"/><path fill="#ECECEC" d="M17.54 111.59c-.03.427.113.864.44 1.192.6.6 1.574.6 2.176 0 .205-.207.336-.457.4-.72.044.06.09.12.144.175.602.602 1.574.602 2.176 0 .6-.602.602-1.576 0-2.176-.055-.054-.116-.1-.176-.144.264-.064.515-.193.72-.398.6-.602.6-1.576 0-2.178-.327-.326-.764-.47-1.19-.44"/><circle fill="#6B3359" cx="19.885" cy="109.245" r=".914"/><path fill="#839151" d="M56.032 99.1c-.028.428.114.865.44 1.19.6.603 1.575.6 2.175 0 .207-.206.337-.456.4-.718.047.06.09.12.145.174.6.602 1.576.602 2.177.002.6-.602.6-1.576-.002-2.178-.054-.053-.114-.098-.176-.143.263-.064.514-.195.72-.4.6-.602.602-1.574 0-2.176-.326-.325-.764-.468-1.19-.438"/><path fill="#ECECEC" d="M60.722 94.412c.028-.428-.114-.865-.44-1.193-.602-.6-1.575-.6-2.177 0-.205.206-.336.456-.4.72-.044-.06-.09-.12-.144-.176-.6-.602-1.573-.602-2.175 0-.6.602-.602 1.576 0 2.176.055.055.116.1.176.145-.263.064-.514.193-.72.398-.6.602-.6 1.576 0 2.178.328.327.765.47 1.192.44"/><circle fill="#6B3359" cx="58.377" cy="96.756" r=".914"/><path fill="#839151" d="M82.57 92.755c-.323.282-.53.692-.53 1.154-.002.85.688 1.536 1.536 1.536.293 0 .562-.085.793-.224-.012.074-.023.148-.022.224 0 .85.688 1.54 1.537 1.54.85 0 1.54-.69 1.54-1.54 0-.075-.013-.15-.024-.226.233.14.503.226.794.227.85 0 1.538-.688 1.54-1.538-.002-.463-.21-.873-.533-1.154"/><path fill="#ECECEC" d="M89.2 92.756c.322-.282.53-.692.53-1.155 0-.848-.688-1.537-1.538-1.538-.29 0-.56.085-.792.228.01-.075.022-.15.022-.227 0-.852-.688-1.54-1.54-1.54-.85.002-1.538.69-1.537 1.54 0 .077.012.152.022.227-.232-.14-.5-.228-.79-.228-.85 0-1.54.69-1.54 1.54 0 .462.208.87.53 1.153"/><circle fill="#6B3359" cx="85.884" cy="92.755" r=".914"/><path fill="#8F8588" stroke="#6A4856" stroke-width="4" stroke-linecap="round" stroke-linejoin="round" stroke-miterlimit="10" d="M533.593 333.04C540.447 314.9 557.963 302 578.5 302c4.328 0 8.518.582 12.507 1.656 2.553-5.893 3.976-12.39 3.99-19.22.058-26.905-21.708-48.767-48.612-48.825l-58.756-.05c-6.645-.014-12.978 1.305-18.755 3.702 0 0-10.375-15.263-42.375-3.263 0 0-14.25 10.25 2 12h13s12.192 2.055 6.658 7.59c-5.86 8.02-9.332 17.892-9.357 28.585-.028 13.634 5.55 25.966 14.56 34.83l-7.188 21.4 14.99.034 4.275-12.733c2.805 1.423 5.758 2.59 8.842 3.456l-5.637 16.788 14.987.033 5.033-14.98 44.93.036z"/><path fill="none" stroke="#231F20" stroke-width="4" stroke-linecap="round" stroke-linejoin="round" stroke-miterlimit="10" d="M530.5 350c0-26.51 21.49-48 48-48s48 21.49 48 48v8"/><path fill="#8F8588" stroke="#6A4856" stroke-width="4" stroke-linecap="round" stroke-linejoin="round" stroke-miterlimit="10" d="M455.5 306l-35.924-14.373 1.873.006c-3.103-.007-5.618-2.53-5.61-5.633l.027-18.386c.007-3.105 2.53-5.617 5.633-5.61l-1.873-.004 36.443.046"/><g fill="none" stroke="#6A4856" stroke-width="4" stroke-linecap="round" stroke-miterlimit="10"><path d="M592.997 267.967c.007-4.138 3.37-7.486 7.51-7.48 4.142.013 7.487 3.376 7.48 7.514M607.987 268c.008-4.138 3.37-7.486 7.514-7.48"/></g><circle fill="#231F20" cx="455.523" cy="271.021" r="2.977"/><path fill="#8F8588" stroke="#6A4856" stroke-width="4" stroke-linecap="round" stroke-linejoin="round" stroke-miterlimit="10" d="M423.5 292c2-2 12-8 16-2s18 4 18 4M417.5 262"/><path fill="#6A4856" d="M416.834 263.167h7.667V290h-7.666z"/><g stroke="#231F20" stroke-width="4" stroke-linecap="round" stroke-linejoin="round" stroke-miterlimit="10"><path fill="#C1BFB5" d="M284.5 125.575l12-19.575h-270l12 19.575z"/><path fill="#FFF6E3" d="M26.5 98h270v8h-270z"/><path fill="#444646" d="M38.5 126h246v96h-246z"/><path fill="#C1BFB5" d="M38.5 214h246v8h-246z"/></g><path fill="none" stroke="#231F20" stroke-width="4" stroke-linecap="round" stroke-linejoin="round" stroke-miterlimit="10" d="M446.5 350V164c0-2.21 1.79-4 4-4h86l34 96v40s-46 8-46 54M504.5 348"/><path fill="#454646" stroke="#231F20" stroke-width="4" stroke-linecap="round" stroke-linejoin="round" stroke-miterlimit="10" d="M466.5 256c2.21 0 4-1.79 4-4v-4c0-2.21-1.79-4-4-4h-4v12h4z"/><path fill="none" stroke="#231F20" stroke-width="4" stroke-linecap="round" stroke-linejoin="round" stroke-miterlimit="10" d="M458.5 256c-2.21 0-4-1.79-4-4v-4c0-2.21 1.79-4 4-4h4v12h-4z"/><path fill="none" stroke="#ECECEC" stroke-width="12" stroke-linecap="round" stroke-linejoin="round" stroke-miterlimit="10" d="M180.5 252h72"/><path fill="none" stroke="#ECECEC" stroke-width="24" stroke-linecap="round" stroke-linejoin="round" stroke-miterlimit="10" d="M-14 252M28.5 252h32"/><path fill="#4C81B7" d="M290.68 245.424c-2.233 1.308-2.347 4.994.436 5.76 2.94.81 5.17-3.058 3.02-5.208-.918-.917-2.413-1.128-3.54-.468-1.378.808-1.455 2.32-1.19 3.717.23 1.22-.104 1.604-.89 2.498-.768.878-1.684 1.612-2.822 1.866-3.146.703-1.812 5.523 1.33 4.82 2.364-.528 4.178-2.127 5.708-3.942.845-1.002 1.532-2.005 1.665-3.342.112-1.134-.142-2.167-.158-3.27-.115.42-.23.84-.342 1.26.04-.06.08-.124.12-.187l-1.494 1.148.296-.053-1.926-.252-.568-.52c-.114-.422-.228-.842-.34-1.263 0 .1.002.196.004.295.114-.42.228-.842.34-1.262l.52-.43c.42-.115.84-.23 1.26-.343-.108.008-.218.016-.327.022l1.262.342.59.572c.115.42.23.84.342 1.262l-.77 1.294c2.778-1.628.263-5.95-2.526-4.318zM289.86 247c-.305.002-.608.008-.912 0-.286-.023-.247-.014.118.028-.565-.092.43.28-.055 0 .524.575.654.684.393.324-.33-.483-.077-.62-.003.373-.037-.496-.065-.997-.214-1.475-.405-1.3-1.728-2.116-3.075-1.746-1.28.353-2.15 1.775-1.745 3.076.206.658.006-.488.035.145.027.59.112 1.095.385 1.62.39.747.886 1.388 1.563 1.896 1 .75 2.316.767 3.512.76 1.363-.01 2.5-1.13 2.5-2.5 0-1.355-1.14-2.51-2.5-2.5zM289.443 249.5c-.75.025-1.56.183-2.188.24-.58.052-.148.06.11.168-.234-.144-.233-.128.003.047-.112-.1-.22-.2-.326-.307-.975-.95-2.563-.972-3.535 0-.955.954-.975 2.584 0 3.535.707.69 1.534 1.302 2.533 1.465 1.19.195 2.318-.11 3.403-.148 1.362-.047 2.5-1.102 2.5-2.5 0-1.327-1.138-2.547-2.5-2.5zM276.5 254c0 2.21-1.79 4-4 4h-4c-2.21 0-4-1.79-4-4v-4c0-2.21 1.79-4 4-4h4c2.21 0 4 1.79 4 4v4z"/><path fill="#4CABC2" stroke="#231F20" stroke-width="4" stroke-linecap="round" stroke-linejoin="round" stroke-miterlimit="10" d="M554.5 238v2c0 2.21-3.79 4-6 4h-24l-20-2-46-10c-2.21 0-4-1.79-4-4v-56c0-2.21 1.79-4 4-4h70c2.21 0 4 1.79 4 4l18 48 4 18z"/><path opacity=".2" fill="#fff" d="M486.5 168l-32 32v-16l16-16zM494.5 168l-38 40h-4l38-40zM548.5 208l-32 36h-4l34-38zM544.5 202l-36 42-36-8 58-66z"/><path fill="none" stroke="#231F20" stroke-width="4" stroke-linecap="round" stroke-linejoin="round" stroke-miterlimit="10" d="M554.5 238v2c0 2.21-3.79 4-6 4h-24l-20-2-46-10c-2.21 0-4-1.79-4-4v-56c0-2.21 1.79-4 4-4h70c2.21 0 4 1.79 4 4l18 48 4 18z"/><path fill="#4CABC2" stroke="#231F20" stroke-width="4" stroke-linecap="round" stroke-linejoin="round" stroke-miterlimit="10" d="M524.5 168v74"/><path fill="#454646" stroke="#231F20" stroke-width="4" stroke-linecap="round" stroke-linejoin="round" stroke-miterlimit="10" d="M552.5 246l-4 10h22l-6-18z"/><path fill="#F79520" stroke="#231F20" stroke-width="4" stroke-linecap="round" stroke-linejoin="round" stroke-miterlimit="10" d="M670.5 292h16l-4-19h-14z"/><path fill="#454646" stroke="#231F20" stroke-width="4" stroke-linecap="round" stroke-linejoin="round" stroke-miterlimit="10" d="M548.5 246.128l3.755 1.38c4.146 1.522 8.745-.605 10.267-4.752l4.484-13.11c1.523-4.145-.604-8.743-4.75-10.267L558.5 218l-10 28.128z"/><path fill="#F79520" stroke="#231F20" stroke-width="4" stroke-linecap="round" stroke-linejoin="round" stroke-miterlimit="10" d="M390.5 81h14v7h-14z"/><path fill="#ECECEC" stroke="#231F20" stroke-width="4" stroke-linecap="round" stroke-linejoin="round" stroke-miterlimit="10" d="M180.5 82c0 2.21-1.79 4-4 4h-24c-2.21 0-4-1.79-4-4V70c0-2.21 1.79-4 4-4h24c2.21 0 4 1.79 4 4v12z"/><path fill="#937855" d="M176.5 72c-.004 1.104-.898 2.002-2 2-1.104-.002-1.998-.896-2-2-.004-1.105.896-2.004 2-2 1.104 0 1.998.896 2 2zM166.5 72c-.004 1.104-.898 2.002-2 2-1.104-.002-1.998-.896-2-2-.004-1.105.896-2.004 2-2 1.104 0 1.998.896 2 2zM156.5 72c-.004 1.104-.898 2.002-2 2-1.104-.002-1.998-.896-2-2-.004-1.105.896-2.004 2-2 1.104 0 1.998.896 2 2zM176.5 80c-.004 1.104-.898 2.002-2 2-1.104-.002-1.998-.896-2-2-.004-1.105.896-2.004 2-2 1.104 0 1.998.896 2 2zM166.5 80c-.004 1.104-.898 2.002-2 2-1.104-.002-1.998-.896-2-2-.004-1.105.896-2.004 2-2 1.104 0 1.998.896 2 2zM156.5 80c-.004 1.104-.898 2.002-2 2-1.104-.002-1.998-.896-2-2-.004-1.105.896-2.004 2-2 1.104 0 1.998.896 2 2z"/><circle fill="#ECECEC" stroke="#231F20" stroke-width="4" stroke-linecap="round" stroke-linejoin="round" stroke-miterlimit="10" cx="388.5" cy="292" r="8"/><circle fill="#B2B2B2" stroke="#231F20" stroke-width="4" stroke-linecap="round" stroke-linejoin="round" stroke-miterlimit="10" cx="388.5" cy="292" r="2"/><g stroke-linecap="round" stroke-linejoin="round" stroke-miterlimit="10"><path fill="#454545" stroke="#231F20" stroke-width="4" d="M372.5 126.363c0-2.41-1.79-4.363-4-4.363h-72c-2.21 0-4 1.954-4 4.363V226c0 2.41 1.79 4.363 4 4.363h72c2.21 0 4-1.954 4-4.363v-99.637z"/><path fill="none" stroke="#839151" stroke-width="8" d="M302.5 141h14M328.5 141h6M346.5 141h16"/><path fill="none" stroke="#ECECEC" stroke-width="4" d="M300.5 130h12M320.5 130h6M334.5 130h6M348.5 130h16"/><path fill="none" stroke="#ECECEC" stroke-width="12" d="M360.5 154"/><path fill="none" stroke="#F79520" stroke-width="4" d="M300.5 150h8M316.5 150h8M332.5 150h8M328.5 156h8M312.5 156h8M300.5 158h4"/><path fill="none" stroke="#839151" stroke-width="8" d="M302.5 170h8M322.5 170h6M340.5 170h6M358.5 170h4"/><path fill="none" stroke="#ECECEC" stroke-width="12" d="M360.5 183"/><path fill="none" stroke="#F79520" stroke-width="4" d="M300.5 179h8M316.5 179h8M332.5 179h8M328.5 185h8M312.5 185h8M318.5 192h14M340.5 192h6M300.5 185h4M300.5 192h10"/><path fill="none" stroke="#839151" stroke-width="8" d="M302.5 204h8M322.5 204h8M342.5 204h8"/><path fill="none" stroke="#ECECEC" stroke-width="12" d="M360.5 217"/><path fill="none" stroke="#F79520" stroke-width="4" d="M300.5 213h8M316.5 213h8M332.5 213h8M328.5 219h8M312.5 219h8M300.5 219h4"/></g><g stroke="#231F20" stroke-width="4" stroke-linecap="round" stroke-linejoin="round" stroke-miterlimit="10"><circle fill="#710814" cx="27.5" cy="133" r="17"/><ellipse fill="#ECECEC" cx="27.5" cy="133" rx="7" ry="17"/><path fill="#ECECEC" d="M27.5 116v-10"/></g><g stroke="#231F20" stroke-width="4" stroke-linecap="round" stroke-linejoin="round" stroke-miterlimit="10"><circle fill="#710814" cx="295.5" cy="133" r="17"/><ellipse fill="#ECECEC" cx="295.5" cy="133" rx="7" ry="17"/><path fill="#ECECEC" d="M295.5 116v-10"/></g><path fill="#CE3746" stroke="#231F20" stroke-width="4" stroke-linecap="round" stroke-linejoin="round" stroke-miterlimit="10" d="M156.5 194v12c0 2.21-1.79 4-4 4s-4-1.79-4-4v-12h8zM152.5 194"/><path fill="#FCEE22" stroke="#231F20" stroke-width="4" stroke-linecap="round" stroke-linejoin="round" stroke-miterlimit="10" d="M172.5 194v12c0 2.21-1.79 4-4 4s-4-1.79-4-4v-12h8zM168.5 194"/><path fill="#8E9A36" stroke="#231F20" stroke-width="4" stroke-linecap="round" stroke-linejoin="round" stroke-miterlimit="10" d="M188.5 194v12c0 2.21-1.79 4-4 4s-4-1.79-4-4v-12h8zM184.5 194"/><path fill="#eee" stroke="#231F20" stroke-width="4" stroke-linecap="round" stroke-linejoin="round" stroke-miterlimit="10" d="M140.5 188v20c0 2.21-1.79 4-4 4h-2c-2.21 0-4-1.79-4-4v-20h10z"/><path fill="#40346E" stroke="#231F20" stroke-width="4" stroke-linecap="round" stroke-linejoin="round" stroke-miterlimit="10" d="M130.5 196h10v8h-10zM132.5 182h6v6h-6z"/><path fill="#6C7071" stroke="#231F20" stroke-width="4" stroke-linecap="round" stroke-linejoin="round" stroke-miterlimit="10" d="M216.5 210l-4-20h24l-4 20z"/><path fill="#937855" stroke="#231F20" stroke-width="4" stroke-linecap="round" stroke-linejoin="round" stroke-miterlimit="10" d="M247.5 212l-4-12h29l-4 12z"/><path fill="#ECECEC" stroke="#231F20" stroke-width="4" stroke-linecap="round" stroke-linejoin="round" stroke-miterlimit="10" d="M267.5 192h-20v8h20v-8zM267.5 184h-20v8h20v-8zM50.5 204h24v6h-24z"/><g stroke-width="4" stroke-linecap="round" stroke-linejoin="round" stroke-miterlimit="10"><path fill="none" stroke="#F79520" d="M86.5 198h16"/><path fill="#ECECEC" stroke="#231F20" d="M102.5 210h-16l-4-8h24z"/></g><path fill="none" stroke="#CD8D06" stroke-width="4" stroke-linecap="round" stroke-linejoin="round" stroke-miterlimit="10" d="M54.5 192h16"/><path fill="none" stroke="#4D4012" stroke-width="4" stroke-linecap="round" stroke-linejoin="round" stroke-miterlimit="10" d="M57.7 196h9.6"/><path fill="none" stroke="#CD8D06" stroke-width="4" stroke-linecap="round" stroke-linejoin="round" stroke-miterlimit="10" d="M54.5 200h16"/><path fill="#F79520" stroke="#231F20" stroke-width="4" stroke-linecap="round" stroke-linejoin="round" stroke-miterlimit="10" d="M-53.5 328.5h10l-2-12h-8z"/></svg>