<?xml version="1.0" encoding="utf-8"?>
<!-- Generator: Adobe Illustrator 16.0.1, SVG Export Plug-In . SVG Version: 6.00 Build 0)  -->
<!DOCTYPE svg PUBLIC "-//W3C//DTD SVG 1.1//EN" "http://www.w3.org/Graphics/SVG/1.1/DTD/svg11.dtd">
<svg version="1.1" id="Layer_1" xmlns="http://www.w3.org/2000/svg" xmlns:xlink="http://www.w3.org/1999/xlink" x="0px" y="0px"
	 width="752px" height="400px" viewBox="-55.499 0 752 400" enable-background="new -55.499 0 752 400" xml:space="preserve">
<polygon fill="#444646" stroke="#231F20" stroke-width="4" stroke-linecap="round" stroke-linejoin="round" stroke-miterlimit="10" points="
	86.502,350 198.5,360 214.502,290 86.5,290 "/>
<polygon fill="#444646" stroke="#231F20" stroke-width="4" stroke-linecap="round" stroke-linejoin="round" stroke-miterlimit="10" points="
	516.502,348 628.5,356 644.502,286 516.5,286 "/>
<path fill="none" stroke="#B9529F" stroke-width="4" stroke-linecap="round" stroke-linejoin="round" stroke-miterlimit="10" d="
	M416.5,170"/>
<path fill="#6B3359" stroke="#231F20" stroke-width="4" stroke-linecap="round" stroke-linejoin="round" stroke-miterlimit="10" d="
	M378.5,58h-402c-2.209,0-4,1.791-4,4c-2.209,0-4,1.791-4,4v16c-2.209,0-4,1.791-4,4c-2.209,0-4,1.791-4,4l-14,226h8l6,28l140,8
	c0-26.51,21.49-48,48-48s48,21.49,48,48c0,0.037-0.003,0.074-0.003,0.111L196.5,360l222-4v-6h112c0-26.51,21.49-48,48-48
	s48,21.49,48,48v8l44-24l20-24l-8-38c0,0-6-10-12-10c0,0-50-22-72-26l-10-6l-44-80c0,0,1-7-2-10l-10-12l-14-26l-62-20l-60.001-8
	L378.5,58z"/>
<g>
	<path fill="#5E6363" stroke="#231F20" stroke-width="4" stroke-miterlimit="10" d="M192.5,354c0,24.301-19.699,44-44,44
		s-44-19.699-44-44s19.699-41,44-41S192.5,329.699,192.5,354z"/>
	<circle fill="#6F7B87" cx="148.5" cy="354" r="24"/>
	<circle fill="#454C55" cx="148.5" cy="354" r="8"/>
	<g>
		<path fill="#111111" d="M169.819,357.072c-1.912-1.105-4.357-0.449-5.463,1.463l-4,6.928c-1.104,1.914-0.449,4.36,1.463,5.465l0,0
			c1.914,1.104,4.361,0.449,5.465-1.465l4-6.928C172.389,360.623,171.733,358.176,169.819,357.072L169.819,357.072z"/>
		<path fill="#111111" d="M135.178,337.072c-1.912-1.105-4.359-0.449-5.463,1.463l-4,6.928c-1.104,1.914-0.449,4.36,1.463,5.467l0,0
			c1.914,1.103,4.361,0.447,5.465-1.467l4-6.928C137.748,340.623,137.092,338.176,135.178,337.072L135.178,337.072z"/>
	</g>
	<g>
		<path fill="#111111" d="M161.821,337.072c-1.914,1.104-2.568,3.551-1.465,5.464l4,6.928c1.105,1.913,3.551,2.569,5.465,1.465l0,0
			c1.912-1.104,2.568-3.552,1.463-5.465l-4-6.928C166.18,336.623,163.733,335.968,161.821,337.072L161.821,337.072z"/>
		<path fill="#111111" d="M127.18,357.072c-1.914,1.104-2.569,3.551-1.465,5.464l4,6.928c1.104,1.913,3.551,2.569,5.465,1.465l0,0
			c1.912-1.104,2.568-3.552,1.463-5.465l-4-6.928C131.539,356.623,129.092,355.968,127.18,357.072L127.18,357.072z"/>
	</g>
	<g>
		<path fill="#111111" d="M140.5,334c0,2.209,1.791,4,4,4h8c2.209,0,4-1.791,4-4l0,0c0-2.209-1.791-4-4-4h-8
			C142.291,330,140.5,331.791,140.5,334L140.5,334z"/>
		<path fill="#111111" d="M140.5,374c0,2.209,1.791,4,4,4h8c2.209,0,4-1.791,4-4l0,0c0-2.209-1.791-4-4-4h-8
			C142.291,370,140.5,371.791,140.5,374L140.5,374z"/>
	</g>
	<circle fill="none" stroke="#231F20" stroke-width="4" stroke-miterlimit="10" cx="148.5" cy="354" r="24"/>
	<g>
		<path fill="#252526" d="M139.116,346.098c1.052,0.344,1.628,1.473,1.284,2.521c-0.341,1.051-1.469,1.625-2.521,1.283
			c-1.047-0.339-1.624-1.471-1.283-2.519C136.939,346.333,138.067,345.759,139.116,346.098z"/>
		<path fill="#252526" d="M136.88,358.824c0.653-0.895,1.904-1.093,2.796-0.443s1.089,1.9,0.441,2.794
			c-0.646,0.895-1.902,1.092-2.793,0.442C136.432,360.969,136.234,359.717,136.88,358.824z"/>
		<path fill="#252526" d="M156.881,361.176c-0.647-0.896-0.45-2.148,0.442-2.795c0.894-0.648,2.145-0.449,2.795,0.443
			c0.65,0.892,0.45,2.146-0.443,2.793C158.782,362.266,157.531,362.065,156.881,361.176z"/>
		<path fill="#252526" d="M159.117,349.904c-1.053,0.339-2.182-0.235-2.52-1.284c-0.34-1.05,0.234-2.178,1.285-2.521
			c1.049-0.344,2.182,0.234,2.518,1.285C160.743,348.433,160.166,349.562,159.117,349.904z"/>
		<path fill="#252526" d="M150.502,341.999c-0.004,1.105-0.898,2.003-2,2.001c-1.104-0.002-1.998-0.896-2-2.001
			c-0.004-1.104,0.896-2.003,2-1.999C149.606,339.999,150.5,340.896,150.502,341.999z"/>
		<path fill="#252526" d="M150.502,365.999c-0.004,1.105-0.898,2.003-2,2.001c-1.104-0.002-1.998-0.896-2-2.001
			c-0.004-1.104,0.896-2.003,2-1.999C149.606,363.999,150.5,364.896,150.502,365.999z"/>
		<path fill="#252526" d="M150.502,353.999c-0.004,1.105-0.898,2.003-2,2.001c-1.105-0.002-2-0.896-2-2.001
			c-0.004-1.104,0.895-2.003,2-1.999C149.604,351.999,150.498,352.896,150.502,353.999z"/>
	</g>
</g>
<g>
	<path fill="#5E6363" stroke="#231F20" stroke-width="4" stroke-miterlimit="10" d="M622.5,354c0,24.301-19.699,44-44,44
		s-44-19.699-44-44s19.699-41,44-41S622.5,329.699,622.5,354z"/>
	<circle fill="#6F7B87" cx="578.5" cy="354" r="24"/>
	<circle fill="#454C55" cx="578.5" cy="354" r="8"/>
	<g>
		<path fill="#111111" d="M599.819,357.072c-1.912-1.105-4.357-0.449-5.463,1.463l-4,6.928c-1.104,1.914-0.449,4.36,1.463,5.465l0,0
			c1.914,1.104,4.361,0.449,5.465-1.465l4-6.928C602.389,360.623,601.733,358.176,599.819,357.072L599.819,357.072z"/>
		<path fill="#111111" d="M565.178,337.072c-1.912-1.105-4.359-0.449-5.463,1.463l-4,6.928c-1.104,1.914-0.449,4.36,1.463,5.467l0,0
			c1.914,1.103,4.361,0.447,5.465-1.467l4-6.928C567.748,340.623,567.092,338.176,565.178,337.072L565.178,337.072z"/>
	</g>
	<g>
		<path fill="#111111" d="M591.821,337.072c-1.914,1.104-2.568,3.551-1.465,5.464l4,6.928c1.105,1.913,3.551,2.569,5.465,1.465l0,0
			c1.912-1.104,2.568-3.552,1.463-5.465l-4-6.928C596.18,336.623,593.733,335.968,591.821,337.072L591.821,337.072z"/>
		<path fill="#111111" d="M557.18,357.072c-1.914,1.104-2.569,3.551-1.465,5.464l4,6.928c1.104,1.913,3.551,2.569,5.465,1.465l0,0
			c1.912-1.104,2.568-3.552,1.463-5.465l-4-6.928C561.539,356.623,559.092,355.968,557.18,357.072L557.18,357.072z"/>
	</g>
	<g>
		<path fill="#111111" d="M570.5,334c0,2.209,1.791,4,4,4h8c2.209,0,4-1.791,4-4l0,0c0-2.209-1.791-4-4-4h-8
			C572.291,330,570.5,331.791,570.5,334L570.5,334z"/>
		<path fill="#111111" d="M570.5,374c0,2.209,1.791,4,4,4h8c2.209,0,4-1.791,4-4l0,0c0-2.209-1.791-4-4-4h-8
			C572.291,370,570.5,371.791,570.5,374L570.5,374z"/>
	</g>
	<circle fill="none" stroke="#231F20" stroke-width="4" stroke-miterlimit="10" cx="578.5" cy="354" r="24"/>
	<g>
		<path fill="#252526" d="M569.116,346.098c1.052,0.344,1.628,1.473,1.284,2.521c-0.341,1.051-1.469,1.625-2.521,1.283
			c-1.047-0.339-1.624-1.471-1.283-2.519C566.939,346.333,568.067,345.759,569.116,346.098z"/>
		<path fill="#252526" d="M566.88,358.824c0.653-0.895,1.904-1.093,2.796-0.443s1.089,1.9,0.441,2.794
			c-0.646,0.895-1.902,1.092-2.793,0.442C566.432,360.969,566.234,359.717,566.88,358.824z"/>
		<path fill="#252526" d="M586.881,361.176c-0.647-0.896-0.45-2.148,0.442-2.795c0.894-0.648,2.145-0.449,2.795,0.443
			c0.65,0.892,0.45,2.146-0.443,2.793C588.782,362.266,587.531,362.065,586.881,361.176z"/>
		<path fill="#252526" d="M589.117,349.904c-1.053,0.339-2.182-0.235-2.52-1.284c-0.34-1.05,0.234-2.178,1.285-2.521
			c1.049-0.344,2.182,0.234,2.518,1.285C590.743,348.433,590.166,349.562,589.117,349.904z"/>
		<path fill="#252526" d="M580.502,341.999c-0.004,1.105-0.898,2.003-2,2.001c-1.104-0.002-1.998-0.896-2-2.001
			c-0.004-1.104,0.896-2.003,2-1.999C579.606,339.999,580.5,340.896,580.502,341.999z"/>
		<path fill="#252526" d="M580.502,365.999c-0.004,1.105-0.898,2.003-2,2.001c-1.104-0.002-1.998-0.896-2-2.001
			c-0.004-1.104,0.896-2.003,2-1.999C579.606,363.999,580.5,364.896,580.502,365.999z"/>
		<path fill="#252526" d="M580.502,353.999c-0.004,1.105-0.898,2.003-2,2.001c-1.105-0.002-2-0.896-2-2.001
			c-0.004-1.104,0.895-2.003,2-1.999C579.604,351.999,580.498,352.896,580.502,353.999z"/>
	</g>
</g>
<path fill="#ECECEC" stroke="#231F20" stroke-width="4" stroke-miterlimit="10" d="M222.498,48c2.209,0,4,1.791,4,4l0.002,6h-95.998
	v-6c-0.002-2.209,1.789-4,3.998-4H222.498z"/>
<rect x="150.5" y="34" fill="#ECECEC" stroke="#231F20" stroke-width="4" stroke-miterlimit="10" width="56" height="14"/>
<path fill="#ECECEC" stroke="#231F20" stroke-width="4" stroke-miterlimit="10" d="M132.501,34V24c0,0,14-8,38-8h15.998
	c24,0,38,8,38,8v10C224.499,34,132.5,34,132.501,34z"/>
<polyline fill="#6B3359" stroke="#231F20" stroke-width="4" stroke-linecap="round" stroke-linejoin="round" stroke-miterlimit="10" points="
	-31.5,82 362.5,82 396.499,74 "/>
<path fill="#ECECEC" stroke="#231F20" stroke-width="4" stroke-linecap="round" stroke-linejoin="round" stroke-miterlimit="10" d="
	M148.5,304c25.875,0,46.957,20.369,47.952,46l0.079,10l145.635-6H374.5v-84h-412v46h-8l6,28l140.203,3.674
	C102.893,323.192,123.449,304,148.5,304z"/>
<path fill="#710814" stroke="#231F20" stroke-width="4" stroke-linecap="round" stroke-linejoin="round" stroke-miterlimit="10" d="
	M194.062,336.824c1.38,4.167,2.212,8.584,2.391,13.176l0.018,2.236L374.5,326v-26L194.062,336.824z"/>
<path fill="#710814" stroke="#231F20" stroke-width="4" stroke-linecap="round" stroke-linejoin="round" stroke-miterlimit="10" d="
	M294.5,270l-114.455,45.781c4.162,3.623,7.684,7.957,10.393,12.809L374.5,276v-6H294.5z"/>
<path fill="#710814" stroke="#231F20" stroke-width="4" stroke-linecap="round" stroke-linejoin="round" stroke-miterlimit="10" d="
	M174.603,311.686L212.5,270h-26l-20.368,37.34C169.114,308.514,171.949,309.969,174.603,311.686z"/>
<path fill="#710814" stroke="#231F20" stroke-width="4" stroke-linecap="round" stroke-linejoin="round" stroke-miterlimit="10" d="
	M148.5,304c0.887,0,1.766,0.029,2.641,0.076L162.5,270h-28l6.904,34.525C143.72,304.182,146.088,304,148.5,304z"/>
<path fill="#710814" stroke="#231F20" stroke-width="4" stroke-linecap="round" stroke-linejoin="round" stroke-miterlimit="10" d="
	M127.09,309.037L108.5,270h-32l43.438,43.438C122.18,311.772,124.571,310.297,127.09,309.037z"/>
<path fill="#710814" stroke="#231F20" stroke-width="4" stroke-linecap="round" stroke-linejoin="round" stroke-miterlimit="10" d="
	M116.676,316.088L24.5,270h-52l137.432,53.445C111.92,320.764,114.183,318.3,116.676,316.088z"/>
<path fill="#710814" stroke="#231F20" stroke-width="4" stroke-linecap="round" stroke-linejoin="round" stroke-miterlimit="10" d="
	M104.518,332.787L-37.5,304v12h-8l2,12l145.926,10.549C103.002,336.572,103.703,334.649,104.518,332.787z"/>
<path fill="#839151" stroke="#231F20" stroke-width="4" stroke-linecap="round" stroke-linejoin="round" stroke-miterlimit="10" d="
	M588.5,230l-44-80c0,0,0.451-3.186-0.174-6.18C529.298,135.086,513.78,130,498.5,130c-75.111,0-136,60.889-136,136
	c0,34.701,13.004,66.361,34.395,90.389L418.5,356v-6h112c0-26.51,21.49-48,48-48s48,21.49,48,48v8l26.697-14.562
	c0.85-4.753,1.303-9.882,1.303-15.438c0-24.124-8.354-53.175-22.17-81.502c-12.452-4.654-25.264-8.94-33.83-10.498L588.5,230z"/>
<path fill="#ECECEC" stroke="#231F20" stroke-width="4" stroke-linecap="round" stroke-linejoin="round" stroke-miterlimit="10" d="
	M588.5,230l-34.764-63.206C536.5,148,516.93,144,498.5,144c-67.379,0-122,54.621-122,122c0,35.655,15.298,67.734,39.686,90.042
	L418.5,356v-6h112c0-26.51,21.49-48,48-48s48,21.49,48,48v8l9.554-5.211c2.876-6.867,4.446-15.041,4.446-24.789
	c0-25.361-10.574-57.698-27.354-88.167c-5.514-1.728-10.562-3.091-14.646-3.833L588.5,230z"/>
<g>
	
		<path fill="#454646" stroke="#231F20" stroke-width="4" stroke-linecap="round" stroke-linejoin="round" stroke-miterlimit="10" d="
		M626.5,358l-2.24-0.187C624.983,357.932,625.729,358,626.5,358z"/>
	
		<path fill="#454646" stroke="#231F20" stroke-width="4" stroke-linecap="round" stroke-linejoin="round" stroke-miterlimit="10" d="
		M686.5,308.03h-20L639.693,308H602.5c0,0,0.007,0.161,0.021,0.45c14.332,8.304,23.979,23.795,23.979,41.55v8l6.001-2
		c0,0,53.999,2,53.999-20c4.418,0,8-3.582,8-8v-11.97C694.5,311.612,690.918,308.03,686.5,308.03z"/>
</g>
<line fill="none" stroke="#ECECEC" stroke-width="24" stroke-linecap="round" stroke-linejoin="round" stroke-miterlimit="10" x1="218.5" y1="100" x2="282.5" y2="100"/>
<rect x="374.5" y="276" fill="#B2B2B2" stroke="#231F20" stroke-width="4" stroke-linecap="round" stroke-linejoin="round" stroke-miterlimit="10" width="28" height="78"/>
<line fill="none" stroke="#ECECEC" stroke-width="24" stroke-linecap="round" stroke-linejoin="round" stroke-miterlimit="10" x1="314.5" y1="100" x2="350.5" y2="100"/>
<path fill="#839151" d="M-17.625,205.375"/>
<path fill="#839151" d="M-25.625,205.375"/>
<g>
	<g>
		<path fill="#839151" d="M-6.375,198.375c0.839-0.733,1.38-1.799,1.38-3c0-2.209-1.791-4-4-4c-0.756,0-1.456,0.223-2.059,0.587
			c0.027-0.193,0.059-0.386,0.059-0.587c0-2.209-1.791-4-4-4s-4,1.791-4,4c0,0.201,0.031,0.394,0.059,0.587
			c-0.603-0.364-1.303-0.587-2.059-0.587c-2.209,0-4,1.791-4,4c0,1.201,0.541,2.267,1.38,3"/>
		<g>
			<path fill="#ECECEC" d="M-23.615,198.375c-0.839,0.733-1.38,1.799-1.38,3c0,2.209,1.791,4,4,4c0.756,0,1.456-0.223,2.059-0.587
				c-0.027,0.193-0.059,0.386-0.059,0.587c0,2.209,1.791,4,4,4s4-1.791,4-4c0-0.201-0.031-0.394-0.059-0.587
				c0.603,0.364,1.303,0.587,2.059,0.587c2.209,0,4-1.791,4-4c0-1.201-0.541-2.267-1.38-3"/>
		</g>
	</g>
	<circle fill="#6B3359" cx="-14.995" cy="198.375" r="2.375"/>
</g>
<g>
	<g>
		<path fill="#839151" d="M-17.274,155.096c1.111,0.074,2.248-0.297,3.097-1.146c1.562-1.562,1.562-4.095,0-5.656
			c-0.534-0.535-1.187-0.873-1.87-1.041c0.156-0.117,0.313-0.231,0.456-0.373c1.562-1.562,1.562-4.096,0-5.657s-4.095-1.562-5.657,0
			c-0.142,0.143-0.256,0.3-0.373,0.456c-0.169-0.684-0.506-1.336-1.041-1.87c-1.562-1.562-4.095-1.562-5.656,0
			c-0.85,0.849-1.221,1.985-1.146,3.097"/>
		<g>
			<path fill="#ECECEC" d="M-29.466,142.904c-1.111-0.074-2.247,0.297-3.097,1.146c-1.562,1.562-1.562,4.094,0,5.656
				c0.534,0.534,1.187,0.872,1.87,1.041c-0.155,0.117-0.313,0.23-0.455,0.373c-1.562,1.562-1.562,4.095-0.001,5.657
				c1.562,1.562,4.095,1.562,5.657-0.001c0.143-0.142,0.256-0.3,0.373-0.456c0.169,0.684,0.506,1.337,1.041,1.871
				c1.562,1.562,4.095,1.562,5.656,0c0.85-0.85,1.221-1.985,1.146-3.097"/>
		</g>
	</g>
	<circle fill="#6B3359" cx="-23.37" cy="149" r="2.375"/>
</g>
<g>
	<g>
		<path fill="#839151" d="M-23.829,97.542c-1.111-0.074-2.248,0.297-3.097,1.146c-1.562,1.562-1.562,4.095,0,5.656
			c0.534,0.535,1.187,0.873,1.87,1.041c-0.156,0.117-0.313,0.231-0.456,0.373c-1.562,1.562-1.562,4.096,0,5.657s4.095,1.562,5.657,0
			c0.142-0.143,0.256-0.3,0.373-0.456c0.169,0.684,0.506,1.336,1.041,1.87c1.562,1.562,4.095,1.562,5.656,0
			c0.85-0.849,1.221-1.985,1.146-3.097"/>
		<g>
			<path fill="#ECECEC" d="M-11.637,109.733c1.111,0.074,2.247-0.297,3.097-1.146c1.562-1.562,1.562-4.094,0-5.656
				c-0.534-0.534-1.187-0.872-1.87-1.041c0.155-0.117,0.313-0.23,0.455-0.373c1.562-1.562,1.562-4.095,0.001-5.657
				c-1.562-1.562-4.095-1.562-5.657,0.001c-0.143,0.142-0.256,0.3-0.373,0.456c-0.169-0.684-0.506-1.337-1.041-1.871
				c-1.562-1.562-4.095-1.562-5.656,0c-0.85,0.85-1.221,1.985-1.146,3.097"/>
		</g>
	</g>
	<circle fill="#6B3359" cx="-17.733" cy="103.638" r="2.375"/>
</g>
<g>
	<g>
		<path fill="#839151" d="M43.587,92.266c0.074-1.111-0.297-2.248-1.146-3.097c-1.562-1.562-4.095-1.562-5.656,0
			c-0.535,0.534-0.873,1.187-1.041,1.87c-0.117-0.156-0.231-0.313-0.373-0.456c-1.562-1.562-4.096-1.562-5.657,0
			s-1.562,4.095,0,5.657c0.143,0.142,0.3,0.256,0.456,0.373c-0.684,0.169-1.336,0.506-1.87,1.041c-1.562,1.562-1.562,4.095,0,5.656
			c0.849,0.85,1.985,1.221,3.097,1.146"/>
		<g>
			<path fill="#ECECEC" d="M31.396,104.457c-0.074,1.111,0.297,2.247,1.146,3.097c1.562,1.562,4.094,1.562,5.656,0
				c0.534-0.534,0.872-1.187,1.041-1.87c0.117,0.155,0.23,0.313,0.373,0.455c1.562,1.562,4.095,1.562,5.657,0.001
				c1.562-1.562,1.562-4.095-0.001-5.657c-0.142-0.143-0.3-0.256-0.456-0.373c0.684-0.169,1.337-0.506,1.871-1.041
				c1.562-1.562,1.562-4.095,0-5.656c-0.85-0.85-1.985-1.221-3.097-1.146"/>
		</g>
	</g>
	<circle fill="#6B3359" cx="37.491" cy="98.361" r="2.375"/>
</g>
<g>
	<g>
		<path fill="#839151" d="M-25.708,181.662c0.77,0.051,1.556-0.206,2.145-0.794c1.081-1.081,1.081-2.835,0-3.915
			c-0.371-0.371-0.822-0.605-1.296-0.721c0.109-0.082,0.218-0.161,0.316-0.26c1.081-1.08,1.081-2.835,0-3.916s-2.835-1.08-3.916,0
			c-0.099,0.099-0.177,0.208-0.259,0.316c-0.116-0.474-0.35-0.925-0.721-1.295c-1.081-1.082-2.834-1.082-3.916-0.001
			c-0.588,0.589-0.844,1.375-0.793,2.145"/>
		<g>
			<path fill="#ECECEC" d="M-34.147,173.222c-0.77-0.052-1.557,0.205-2.145,0.794c-1.081,1.08-1.08,2.834,0.001,3.916
				c0.37,0.369,0.821,0.604,1.294,0.72c-0.107,0.081-0.217,0.161-0.314,0.259c-1.082,1.082-1.082,2.835-0.001,3.916
				c1.081,1.082,2.835,1.082,3.917,0c0.098-0.098,0.177-0.208,0.258-0.316c0.116,0.474,0.351,0.926,0.721,1.296
				c1.082,1.081,2.834,1.081,3.916,0c0.588-0.589,0.845-1.374,0.793-2.144"/>
		</g>
	</g>
	<circle fill="#6B3359" cx="-29.927" cy="177.442" r="1.644"/>
</g>
<g>
	<g>
		<path fill="#839151" d="M-29.927,216.59c-0.508-0.58-1.245-0.953-2.077-0.955c-1.529,0-2.77,1.24-2.769,2.769
			c0,0.525,0.153,1.01,0.407,1.427c-0.136-0.02-0.269-0.041-0.408-0.041c-1.528,0-2.77,1.24-2.77,2.77s1.241,2.769,2.77,2.77
			c0.14,0,0.271-0.022,0.406-0.041c-0.252,0.417-0.406,0.9-0.405,1.425c-0.001,1.53,1.238,2.77,2.769,2.771
			c0.832-0.001,1.568-0.376,2.076-0.956"/>
		<g>
			<path fill="#ECECEC" d="M-29.928,228.526c0.508,0.581,1.246,0.956,2.078,0.955c1.528,0.001,2.768-1.24,2.769-2.771
				c-0.001-0.522-0.154-1.007-0.406-1.424c0.134,0.02,0.268,0.04,0.405,0.04c1.53,0,2.77-1.239,2.77-2.769
				c0.001-1.529-1.239-2.77-2.77-2.77c-0.138,0-0.271,0.021-0.406,0.041c0.254-0.417,0.407-0.902,0.407-1.426
				c-0.001-1.529-1.239-2.769-2.769-2.77c-0.832,0.001-1.569,0.375-2.077,0.955"/>
		</g>
	</g>
	<circle fill="#6B3359" cx="-29.928" cy="222.558" r="1.644"/>
</g>
<g>
	<g>
		<path fill="#839151" d="M157.722,256.778c-0.051,0.77,0.205,1.553,0.793,2.143c1.081,1.082,2.835,1.082,3.916,0
			c0.371-0.371,0.605-0.822,0.72-1.297c0.083,0.111,0.161,0.221,0.26,0.318c1.081,1.081,2.835,1.081,3.917,0
			c1.081-1.082,1.081-2.836,0-3.917c-0.099-0.099-0.207-0.177-0.316-0.259c0.474-0.117,0.924-0.349,1.295-0.721
			c1.082-1.081,1.083-2.834,0-3.916c-0.588-0.589-1.374-0.844-2.143-0.793"/>
		<g>
			<path fill="#ECECEC" d="M166.163,248.337c0.051-0.77-0.207-1.557-0.795-2.145c-1.08-1.08-2.834-1.08-3.916,0.002
				c-0.369,0.369-0.603,0.82-0.721,1.295c-0.08-0.109-0.16-0.219-0.258-0.316c-1.081-1.082-2.835-1.082-3.916,0
				c-1.082,1.081-1.082,2.835,0,3.916c0.098,0.099,0.207,0.178,0.316,0.259c-0.475,0.114-0.926,0.351-1.296,0.721
				c-1.081,1.081-1.081,2.833-0.001,3.915c0.59,0.588,1.375,0.846,2.145,0.795"/>
		</g>
	</g>
	<circle fill="#6B3359" cx="161.942" cy="252.557" r="1.645"/>
</g>
<g>
	<g>
		<path fill="#839151" d="M-0.593,127.222c0.051-0.77-0.206-1.556-0.794-2.145c-1.081-1.081-2.835-1.081-3.915,0
			c-0.371,0.371-0.605,0.822-0.721,1.296c-0.082-0.109-0.161-0.218-0.26-0.316c-1.08-1.081-2.835-1.081-3.916,0s-1.08,2.835,0,3.916
			c0.099,0.099,0.208,0.177,0.316,0.259c-0.474,0.116-0.925,0.35-1.295,0.721c-1.082,1.081-1.082,2.834-0.001,3.916
			c0.589,0.588,1.375,0.844,2.145,0.793"/>
		<g>
			<path fill="#ECECEC" d="M-9.033,135.661c-0.052,0.77,0.205,1.557,0.794,2.145c1.08,1.081,2.834,1.08,3.916-0.001
				c0.369-0.37,0.604-0.821,0.72-1.294c0.081,0.107,0.161,0.217,0.259,0.314c1.082,1.082,2.835,1.082,3.916,0.001
				c1.082-1.081,1.082-2.835,0-3.917c-0.098-0.098-0.208-0.177-0.316-0.258c0.474-0.116,0.926-0.351,1.296-0.721
				c1.081-1.082,1.081-2.834,0-3.916c-0.589-0.588-1.374-0.845-2.144-0.793"/>
		</g>
	</g>
	<circle fill="#6B3359" cx="-4.813" cy="131.441" r="1.644"/>
</g>
<g>
	<g>
		<path fill="#839151" d="M0.97,97c-0.58,0.508-0.953,1.246-0.954,2.078c-0.001,1.528,1.239,2.769,2.769,2.768
			c0.523,0,1.009-0.153,1.426-0.406c-0.02,0.135-0.039,0.269-0.041,0.407c0,1.528,1.241,2.77,2.77,2.769
			c1.529,0.001,2.768-1.24,2.77-2.769c0-0.139-0.021-0.271-0.041-0.407c0.418,0.254,0.901,0.408,1.425,0.406
			c1.53,0.001,2.769-1.238,2.771-2.768c-0.002-0.833-0.375-1.568-0.955-2.077"/>
		<g>
			<path fill="#ECECEC" d="M12.907,97.001c0.58-0.509,0.955-1.245,0.953-2.078c0.002-1.528-1.24-2.768-2.77-2.769
				c-0.522,0.001-1.007,0.154-1.422,0.406c0.018-0.134,0.038-0.268,0.037-0.405c0-1.53-1.238-2.77-2.768-2.771
				c-1.529,0-2.77,1.24-2.77,2.771c0,0.138,0.022,0.272,0.041,0.405c-0.416-0.252-0.902-0.406-1.426-0.405
				c-1.529,0-2.768,1.238-2.769,2.769C0.017,95.755,0.39,96.492,0.97,97"/>
		</g>
	</g>
	<circle fill="#6B3359" cx="6.938" cy="97" r="1.644"/>
</g>
<g>
	<g>
		<path fill="#839151" d="M-2.671,171c0.322-0.283,0.531-0.692,0.531-1.155c0-0.849-0.689-1.537-1.538-1.537
			c-0.292,0-0.561,0.085-0.792,0.226c0.01-0.075,0.021-0.149,0.021-0.226c0.001-0.85-0.689-1.539-1.538-1.539
			c-0.85,0-1.538,0.689-1.538,1.539c0,0.076,0.012,0.15,0.022,0.226c-0.231-0.141-0.501-0.226-0.792-0.226
			c-0.85,0-1.539,0.688-1.539,1.537c0,0.463,0.209,0.872,0.531,1.154"/>
		<g>
			<path fill="#ECECEC" d="M-9.302,170.999c-0.322,0.282-0.531,0.692-0.531,1.154c0,0.85,0.689,1.538,1.539,1.539
				c0.291-0.001,0.561-0.086,0.791-0.227c-0.01,0.074-0.021,0.148-0.021,0.226c0,0.851,0.688,1.539,1.538,1.539
				s1.539-0.688,1.539-1.539c0-0.077-0.013-0.151-0.023-0.226c0.232,0.141,0.502,0.227,0.792,0.227
				c0.85-0.001,1.539-0.689,1.539-1.539c0-0.462-0.208-0.872-0.531-1.153"/>
		</g>
	</g>
	<circle fill="#6B3359" cx="-5.986" cy="170.999" r="0.914"/>
</g>
<g>
	<g>
		<path fill="#839151" d="M-6.755,224.314c0.283,0.322,0.692,0.531,1.155,0.531c0.849,0,1.537-0.689,1.537-1.538
			c0-0.292-0.085-0.561-0.226-0.792c0.075,0.01,0.149,0.021,0.226,0.021c0.85,0.001,1.539-0.689,1.539-1.538
			c0-0.85-0.689-1.538-1.539-1.538c-0.076,0-0.15,0.012-0.226,0.022c0.141-0.231,0.226-0.501,0.226-0.792
			c0-0.85-0.688-1.539-1.537-1.539c-0.463,0-0.872,0.209-1.154,0.531"/>
		<g>
			<path fill="#ECECEC" d="M-6.754,217.684c-0.282-0.322-0.692-0.531-1.154-0.531c-0.85,0-1.538,0.689-1.539,1.539
				c0.001,0.291,0.086,0.561,0.227,0.791c-0.074-0.01-0.148-0.021-0.226-0.021c-0.851,0-1.539,0.688-1.539,1.538
				s0.688,1.539,1.539,1.539c0.077,0,0.151-0.013,0.226-0.023c-0.141,0.232-0.227,0.502-0.227,0.792
				c0.001,0.85,0.689,1.539,1.539,1.539c0.462,0,0.872-0.208,1.153-0.531"/>
		</g>
	</g>
	<circle fill="#6B3359" cx="-6.754" cy="221" r="0.914"/>
</g>
<g>
	<g>
		<path fill="#839151" d="M-16.026,230.901c0.027-0.428-0.114-0.865-0.441-1.192c-0.6-0.601-1.574-0.599-2.175,0.001
			c-0.206,0.207-0.336,0.457-0.4,0.719c-0.046-0.06-0.091-0.121-0.145-0.174c-0.6-0.602-1.575-0.602-2.176-0.001
			s-0.601,1.575,0.001,2.176c0.054,0.054,0.114,0.099,0.176,0.144c-0.264,0.064-0.514,0.195-0.721,0.4
			c-0.6,0.602-0.602,1.574-0.001,2.176c0.327,0.326,0.765,0.469,1.192,0.44"/>
		<g>
			<path fill="#ECECEC" d="M-20.716,235.59c-0.029,0.427,0.113,0.864,0.44,1.192c0.601,0.6,1.575,0.6,2.177-0.001
				c0.205-0.206,0.335-0.456,0.398-0.72c0.046,0.06,0.09,0.121,0.145,0.176c0.602,0.601,1.575,0.601,2.176,0
				c0.601-0.602,0.602-1.575,0-2.176c-0.055-0.055-0.116-0.1-0.176-0.145c0.264-0.064,0.515-0.193,0.72-0.398
				c0.601-0.602,0.601-1.576,0.001-2.178c-0.327-0.326-0.765-0.469-1.191-0.439"/>
		</g>
	</g>
	<circle fill="#6B3359" cx="-18.371" cy="233.245" r="0.914"/>
</g>
<g>
	<g>
		<path fill="#839151" d="M-28.411,122.656c0.028-0.428-0.114-0.865-0.441-1.191c-0.6-0.602-1.574-0.6-2.174,0
			c-0.207,0.207-0.337,0.457-0.401,0.719c-0.046-0.061-0.09-0.121-0.144-0.174c-0.601-0.602-1.576-0.602-2.177-0.002
			c-0.601,0.602-0.6,1.576,0.001,2.178c0.054,0.053,0.114,0.098,0.176,0.143c-0.263,0.064-0.514,0.195-0.72,0.4
			c-0.601,0.602-0.602,1.574-0.001,2.176c0.327,0.326,0.765,0.469,1.191,0.439"/>
		<g>
			<path fill="#ECECEC" d="M-33.1,127.344c-0.028,0.428,0.114,0.865,0.44,1.193c0.602,0.6,1.575,0.6,2.177,0
				c0.205-0.207,0.336-0.457,0.399-0.721c0.045,0.061,0.09,0.121,0.145,0.176c0.602,0.602,1.574,0.602,2.176,0
				c0.601-0.602,0.602-1.576,0-2.176c-0.055-0.055-0.116-0.1-0.176-0.145c0.264-0.064,0.515-0.193,0.72-0.398
				c0.601-0.602,0.601-1.576,0-2.178c-0.327-0.326-0.764-0.469-1.191-0.439"/>
		</g>
	</g>
	<circle fill="#6B3359" cx="-30.755" cy="125" r="0.914"/>
</g>
<g>
	<g>
		<path fill="#839151" d="M22.229,106.901c0.028-0.428-0.114-0.865-0.441-1.191c-0.6-0.602-1.574-0.6-2.174,0
			c-0.207,0.207-0.337,0.457-0.401,0.719c-0.046-0.061-0.09-0.121-0.144-0.174c-0.601-0.602-1.576-0.602-2.177-0.002
			c-0.601,0.602-0.6,1.576,0.001,2.178c0.054,0.053,0.114,0.098,0.176,0.143c-0.263,0.064-0.514,0.195-0.72,0.4
			c-0.601,0.602-0.602,1.574-0.001,2.176c0.327,0.326,0.765,0.469,1.191,0.439"/>
		<g>
			<path fill="#ECECEC" d="M17.539,111.589c-0.028,0.428,0.114,0.865,0.44,1.193c0.602,0.6,1.575,0.6,2.177,0
				c0.205-0.207,0.336-0.457,0.399-0.721c0.045,0.061,0.09,0.121,0.145,0.176c0.602,0.602,1.574,0.602,2.176,0
				c0.601-0.602,0.602-1.576,0-2.176c-0.055-0.055-0.116-0.1-0.176-0.145c0.264-0.064,0.515-0.193,0.72-0.398
				c0.601-0.602,0.601-1.576,0-2.178c-0.327-0.326-0.764-0.469-1.191-0.439"/>
		</g>
	</g>
	<circle fill="#6B3359" cx="19.885" cy="109.245" r="0.914"/>
</g>
<g>
	<g>
		<path fill="#839151" d="M56.032,99.1c-0.028,0.428,0.114,0.865,0.441,1.191c0.6,0.602,1.574,0.6,2.174,0
			c0.207-0.207,0.337-0.457,0.401-0.719c0.046,0.061,0.09,0.121,0.144,0.174c0.601,0.602,1.576,0.602,2.177,0.002
			c0.601-0.602,0.6-1.576-0.001-2.178c-0.054-0.053-0.114-0.098-0.176-0.143c0.263-0.064,0.514-0.195,0.72-0.4
			c0.601-0.602,0.602-1.574,0.001-2.176c-0.327-0.326-0.765-0.469-1.191-0.439"/>
		<g>
			<path fill="#ECECEC" d="M60.722,94.412c0.028-0.428-0.114-0.865-0.44-1.193c-0.602-0.6-1.575-0.6-2.177,0
				c-0.205,0.207-0.336,0.457-0.399,0.721c-0.045-0.061-0.09-0.121-0.145-0.176c-0.602-0.602-1.574-0.602-2.176,0
				c-0.601,0.602-0.602,1.576,0,2.176c0.055,0.055,0.116,0.1,0.176,0.145c-0.264,0.064-0.515,0.193-0.72,0.398
				c-0.601,0.602-0.601,1.576,0,2.178c0.327,0.326,0.764,0.469,1.191,0.439"/>
		</g>
	</g>
	<circle fill="#6B3359" cx="58.377" cy="96.756" r="0.914"/>
</g>
<g>
	<g>
		<path fill="#839151" d="M82.57,92.755c-0.323,0.282-0.531,0.692-0.531,1.154c-0.001,0.85,0.689,1.537,1.537,1.537
			c0.293,0,0.562-0.085,0.793-0.224c-0.011,0.074-0.022,0.148-0.021,0.224c-0.001,0.851,0.688,1.54,1.537,1.54
			c0.851,0,1.539-0.689,1.539-1.54c0-0.075-0.012-0.149-0.023-0.226c0.232,0.141,0.502,0.226,0.793,0.227
			c0.85-0.001,1.538-0.688,1.539-1.538c-0.001-0.462-0.209-0.872-0.532-1.153"/>
		<g>
			<path fill="#ECECEC" d="M89.199,92.756c0.323-0.282,0.531-0.692,0.532-1.155c-0.001-0.849-0.689-1.538-1.539-1.539
				c-0.291,0.001-0.561,0.085-0.792,0.228c0.011-0.075,0.022-0.15,0.022-0.227c0-0.852-0.688-1.539-1.539-1.539
				c-0.85,0.001-1.539,0.689-1.538,1.539c0,0.077,0.012,0.152,0.022,0.227c-0.232-0.141-0.501-0.228-0.791-0.228
				c-0.85,0.001-1.539,0.69-1.54,1.54c0.001,0.462,0.209,0.871,0.532,1.153"/>
		</g>
	</g>
	<circle fill="#6B3359" cx="85.884" cy="92.755" r="0.914"/>
</g>
<path fill="#8F8588" stroke="#6A4856" stroke-width="4" stroke-linecap="round" stroke-linejoin="round" stroke-miterlimit="10" d="
	M533.593,333.039C540.447,314.902,557.963,302,578.5,302c4.328,0,8.518,0.582,12.507,1.656c2.553-5.893,3.976-12.39,3.99-19.22
	c0.058-26.905-21.708-48.767-48.612-48.825l-58.756-0.051c-6.644-0.014-12.977,1.305-18.754,3.702c0,0-10.375-15.263-42.375-3.263
	c0,0-14.25,10.25,2,12h13c0,0,12.192,2.056,6.658,7.59c-5.859,8.02-9.332,17.893-9.357,28.586
	c-0.029,13.634,5.549,25.966,14.559,34.83l-7.188,21.4l14.991,0.034l4.274-12.732c2.805,1.423,5.758,2.589,8.842,3.456
	l-5.636,16.788l14.987,0.032l5.033-14.979L533.593,333.039L533.593,333.039z"/>
<path fill="none" stroke="#231F20" stroke-width="4" stroke-linecap="round" stroke-linejoin="round" stroke-miterlimit="10" d="
	M530.5,350c0-26.51,21.49-48,48-48s48,21.49,48,48v8"/>
<path fill="#8F8588" stroke="#6A4856" stroke-width="4" stroke-linecap="round" stroke-linejoin="round" stroke-miterlimit="10" d="
	M455.5,306l-35.924-14.373l1.873,0.006c-3.102-0.007-5.617-2.53-5.609-5.633l0.027-18.386c0.007-3.105,2.531-5.617,5.633-5.61
	L419.627,262l36.443,0.046"/>
<g>
	<path fill="none" stroke="#6A4856" stroke-width="4" stroke-linecap="round" stroke-miterlimit="10" d="M592.997,267.967
		c0.007-4.138,3.37-7.486,7.509-7.479c4.143,0.012,7.488,3.375,7.48,7.513"/>
	<path fill="none" stroke="#6A4856" stroke-width="4" stroke-linecap="round" stroke-miterlimit="10" d="M607.987,268
		c0.008-4.138,3.369-7.486,7.514-7.479"/>
</g>
<circle fill="#231F20" cx="455.523" cy="271.021" r="2.977"/>
<path fill="#8F8588" stroke="#6A4856" stroke-width="4" stroke-linecap="round" stroke-linejoin="round" stroke-miterlimit="10" d="
	M423.5,292c2-2,12-8,16-2s18,4,18,4"/>
<path fill="#8F8588" stroke="#6A4856" stroke-width="4" stroke-linecap="round" stroke-linejoin="round" stroke-miterlimit="10" d="
	M417.501,262"/>
<rect x="416.834" y="263.167" fill="#6A4856" width="7.667" height="26.833"/>
<g>
	
		<polygon fill="#C1BFB5" stroke="#231F20" stroke-width="4" stroke-linecap="round" stroke-linejoin="round" stroke-miterlimit="10" points="
		284.5,125.575 296.5,106 26.5,106 38.5,125.575 	"/>
	
		<rect x="26.5" y="98" fill="#FFF6E3" stroke="#231F20" stroke-width="4" stroke-linecap="round" stroke-linejoin="round" stroke-miterlimit="10" width="270" height="8"/>
	
		<rect x="38.5" y="126" fill="#444646" stroke="#231F20" stroke-width="4" stroke-linecap="round" stroke-linejoin="round" stroke-miterlimit="10" width="246" height="96"/>
	
		<rect x="38.5" y="214" fill="#C1BFB5" stroke="#231F20" stroke-width="4" stroke-linecap="round" stroke-linejoin="round" stroke-miterlimit="10" width="246" height="8"/>
</g>
<path fill="none" stroke="#231F20" stroke-width="4" stroke-linecap="round" stroke-linejoin="round" stroke-miterlimit="10" d="
	M446.5,350V164c0-2.209,1.791-4,4-4h86l34,96v40c0,0-46,8-46,54"/>
<path fill="none" stroke="#231F20" stroke-width="4" stroke-linecap="round" stroke-linejoin="round" stroke-miterlimit="10" d="
	M504.5,348"/>
<path fill="#454646" stroke="#231F20" stroke-width="4" stroke-linecap="round" stroke-linejoin="round" stroke-miterlimit="10" d="
	M466.5,256c2.209,0,4-1.791,4-4v-4c0-2.209-1.791-4-4-4l0,0h-4v12H466.5z"/>
<path fill="none" stroke="#231F20" stroke-width="4" stroke-linecap="round" stroke-linejoin="round" stroke-miterlimit="10" d="
	M458.5,256c-2.209,0-4-1.791-4-4v-4c0-2.209,1.791-4,4-4l0,0h4v12H458.5z"/>
<line fill="none" stroke="#ECECEC" stroke-width="12" stroke-linecap="round" stroke-linejoin="round" stroke-miterlimit="10" x1="180.5" y1="252" x2="252.5" y2="252"/>
<line fill="none" stroke="#ECECEC" stroke-width="24" stroke-linecap="round" stroke-linejoin="round" stroke-miterlimit="10" x1="-14" y1="252" x2="-14" y2="252"/>
<line fill="none" stroke="#ECECEC" stroke-width="24" stroke-linecap="round" stroke-linejoin="round" stroke-miterlimit="10" x1="28.501" y1="252" x2="60.501" y2="252"/>
<g>
	<g>
		<g>
			<path fill="#4C81B7" d="M290.681,245.424c-2.234,1.308-2.348,4.994,0.435,5.76c2.939,0.809,5.17-3.058,3.019-5.208
				c-0.917-0.917-2.412-1.128-3.538-0.468c-1.379,0.808-1.456,2.32-1.191,3.717c0.231,1.22-0.104,1.604-0.889,2.498
				c-0.769,0.878-1.685,1.612-2.823,1.866c-3.146,0.704-1.812,5.524,1.329,4.822c2.365-0.529,4.179-2.128,5.709-3.943
				c0.845-1.002,1.532-2.005,1.665-3.342c0.112-1.134-0.142-2.167-0.158-3.271c-0.114,0.421-0.228,0.842-0.341,1.262
				c0.04-0.062,0.08-0.125,0.12-0.188c-0.498,0.383-0.996,0.766-1.494,1.149c0.099-0.018,0.197-0.035,0.296-0.053
				c-0.642-0.084-1.284-0.168-1.926-0.252c-0.189-0.174-0.379-0.348-0.568-0.521c-0.114-0.421-0.228-0.841-0.341-1.262
				c0.001,0.099,0.003,0.196,0.005,0.295c0.114-0.421,0.228-0.842,0.341-1.262c0.172-0.144,0.345-0.287,0.518-0.431
				c0.42-0.114,0.841-0.229,1.262-0.342c-0.109,0.008-0.219,0.016-0.328,0.022c0.42,0.114,0.841,0.228,1.262,0.342
				c0.197,0.19,0.394,0.382,0.591,0.572c0.114,0.421,0.228,0.841,0.341,1.262c-0.257,0.431-0.514,0.862-0.771,1.294
				C295.985,248.114,293.47,243.792,290.681,245.424L290.681,245.424z"/>
		</g>
	</g>
	<g>
		<g>
			<path fill="#4C81B7" d="M289.859,247c-0.304,0.002-0.607,0.008-0.911-0.001c-0.286-0.022-0.247-0.013,0.118,0.029
				c-0.565-0.092,0.431,0.28-0.055,0.001c0.523,0.574,0.653,0.683,0.392,0.323c-0.329-0.483-0.077-0.62-0.003,0.373
				c-0.037-0.496-0.065-0.997-0.214-1.475c-0.405-1.3-1.728-2.116-3.075-1.746c-1.28,0.353-2.152,1.775-1.746,3.076
				c0.206,0.658,0.006-0.488,0.035,0.145c0.027,0.589,0.112,1.095,0.385,1.619c0.389,0.748,0.886,1.389,1.563,1.897
				c1.001,0.75,2.316,0.766,3.512,0.758c1.363-0.009,2.5-1.13,2.5-2.5C292.359,248.145,291.221,246.991,289.859,247L289.859,247z"/>
		</g>
	</g>
	<g>
		<g>
			<path fill="#4C81B7" d="M289.443,249.5c-0.749,0.025-1.559,0.183-2.188,0.239c-0.579,0.053-0.148,0.06,0.11,0.169
				c-0.234-0.144-0.233-0.128,0.003,0.047c-0.112-0.099-0.221-0.2-0.326-0.307c-0.975-0.951-2.563-0.972-3.535,0
				c-0.955,0.954-0.975,2.584,0,3.535c0.707,0.69,1.534,1.302,2.533,1.465c1.191,0.195,2.318-0.111,3.403-0.148
				c1.362-0.047,2.5-1.102,2.5-2.5C291.943,250.673,290.805,249.453,289.443,249.5L289.443,249.5z"/>
		</g>
	</g>
</g>
<path fill="#4C81B7" d="M276.5,254c0,2.209-1.791,4-4,4h-4c-2.209,0-4-1.791-4-4v-4c0-2.209,1.791-4,4-4h4c2.209,0,4,1.791,4,4V254z
	"/>
<path fill="#4CABC2" stroke="#231F20" stroke-width="4" stroke-linecap="round" stroke-linejoin="round" stroke-miterlimit="10" d="
	M554.5,238v2c0,2.209-3.791,4-6,4h-24l-20.001-2L458.5,232c-2.209,0-4-1.791-4-4v-56c0-2.209,1.791-4,4-4h70c2.209,0,4,1.791,4,4
	l18,48L554.5,238z"/>
<polygon opacity="0.2" fill="#FFFFFF" points="486.5,168 454.501,200 454.5,184 470.5,168 "/>
<polygon opacity="0.2" fill="#FFFFFF" points="494.5,168 456.5,208 452.5,208 490.5,168 "/>
<polygon opacity="0.2" fill="#FFFFFF" points="548.5,208 516.5,244 512.5,244 546.5,206 "/>
<polygon opacity="0.2" fill="#FFFFFF" points="544.5,202 508.5,244 472.5,236 530.5,170 "/>
<path fill="none" stroke="#231F20" stroke-width="4" stroke-linecap="round" stroke-linejoin="round" stroke-miterlimit="10" d="
	M554.5,238v2c0,2.209-3.791,4-6,4h-24l-20.001-2L458.5,232c-2.209,0-4-1.791-4-4v-56c0-2.209,1.791-4,4-4h70c2.209,0,4,1.791,4,4
	l18,48L554.5,238z"/>
<line fill="#4CABC2" stroke="#231F20" stroke-width="4" stroke-linecap="round" stroke-linejoin="round" stroke-miterlimit="10" x1="524.5" y1="168" x2="524.5" y2="242"/>
<polygon fill="#454646" stroke="#231F20" stroke-width="4" stroke-linecap="round" stroke-linejoin="round" stroke-miterlimit="10" points="
	552.501,246 548.501,256 570.501,256 564.501,238 "/>
<polygon fill="#F79520" stroke="#231F20" stroke-width="4" stroke-linecap="round" stroke-linejoin="round" stroke-miterlimit="10" points="
	670.5,292 686.5,292 682.5,273 668.5,273 "/>
<path fill="#454646" stroke="#231F20" stroke-width="4" stroke-linecap="round" stroke-linejoin="round" stroke-miterlimit="10" d="
	M548.5,246.128l3.755,1.379c4.146,1.523,8.745-0.604,10.267-4.751l4.484-13.109c1.523-4.146-0.604-8.744-4.75-10.268L558.5,218
	L548.5,246.128z"/>
<rect x="390.5" y="81" fill="#F79520" stroke="#231F20" stroke-width="4" stroke-linecap="round" stroke-linejoin="round" stroke-miterlimit="10" width="14" height="7"/>
<path fill="#ECECEC" stroke="#231F20" stroke-width="4" stroke-linecap="round" stroke-linejoin="round" stroke-miterlimit="10" d="
	M180.5,82c0,2.209-1.791,4-4,4h-24c-2.209,0-4-1.791-4-4V70c0-2.209,1.791-4,4-4h24c2.209,0,4,1.791,4,4V82z"/>
<path fill="#937855" d="M176.5,71.999c-0.004,1.105-0.898,2.003-2,2.001c-1.104-0.002-1.998-0.896-2-2.001
	c-0.004-1.104,0.896-2.003,2-1.999C175.604,69.999,176.498,70.896,176.5,71.999z"/>
<path fill="#937855" d="M166.5,71.999c-0.004,1.105-0.898,2.003-2,2.001c-1.104-0.002-1.998-0.896-2-2.001
	c-0.004-1.104,0.896-2.003,2-1.999C165.604,69.999,166.498,70.896,166.5,71.999z"/>
<path fill="#937855" d="M156.5,71.999c-0.004,1.105-0.898,2.003-2,2.001c-1.104-0.002-1.998-0.896-2-2.001
	c-0.004-1.104,0.896-2.003,2-1.999C155.604,69.999,156.498,70.896,156.5,71.999z"/>
<path fill="#937855" d="M176.5,79.999c-0.004,1.105-0.898,2.003-2,2.001c-1.104-0.002-1.998-0.896-2-2.001
	c-0.004-1.104,0.896-2.003,2-1.999C175.604,77.999,176.498,78.896,176.5,79.999z"/>
<path fill="#937855" d="M166.5,79.999c-0.004,1.105-0.898,2.003-2,2.001c-1.104-0.002-1.998-0.896-2-2.001
	c-0.004-1.104,0.896-2.003,2-1.999C165.604,77.999,166.498,78.896,166.5,79.999z"/>
<path fill="#937855" d="M156.5,79.999c-0.004,1.105-0.898,2.003-2,2.001c-1.104-0.002-1.998-0.896-2-2.001
	c-0.004-1.104,0.896-2.003,2-1.999C155.604,77.999,156.498,78.896,156.5,79.999z"/>
<circle fill="#ECECEC" stroke="#231F20" stroke-width="4" stroke-linecap="round" stroke-linejoin="round" stroke-miterlimit="10" cx="388.5" cy="292" r="8"/>
<circle fill="#B2B2B2" stroke="#231F20" stroke-width="4" stroke-linecap="round" stroke-linejoin="round" stroke-miterlimit="10" cx="388.5" cy="292" r="2"/>
<g>
	
		<path fill="#454545" stroke="#231F20" stroke-width="4" stroke-linecap="round" stroke-linejoin="round" stroke-miterlimit="10" d="
		M372.5,126.363c0-2.409-1.791-4.363-4-4.363h-72c-2.209,0-4,1.954-4,4.363V226c0,2.409,1.791,4.363,4,4.363h72
		c2.209,0,4-1.954,4-4.363V126.363z"/>
	
		<line fill="none" stroke="#839151" stroke-width="8" stroke-linecap="round" stroke-linejoin="round" stroke-miterlimit="10" x1="302.5" y1="141" x2="316.5" y2="141"/>
	
		<line fill="none" stroke="#839151" stroke-width="8" stroke-linecap="round" stroke-linejoin="round" stroke-miterlimit="10" x1="328.5" y1="141" x2="334.5" y2="141"/>
	
		<line fill="none" stroke="#839151" stroke-width="8" stroke-linecap="round" stroke-linejoin="round" stroke-miterlimit="10" x1="346.5" y1="141" x2="362.5" y2="141"/>
	
		<line fill="none" stroke="#ECECEC" stroke-width="4" stroke-linecap="round" stroke-linejoin="round" stroke-miterlimit="10" x1="300.5" y1="130" x2="312.5" y2="130"/>
	
		<line fill="none" stroke="#ECECEC" stroke-width="4" stroke-linecap="round" stroke-linejoin="round" stroke-miterlimit="10" x1="320.5" y1="130" x2="326.5" y2="130"/>
	
		<line fill="none" stroke="#ECECEC" stroke-width="4" stroke-linecap="round" stroke-linejoin="round" stroke-miterlimit="10" x1="334.5" y1="130" x2="340.5" y2="130"/>
	
		<line fill="none" stroke="#ECECEC" stroke-width="4" stroke-linecap="round" stroke-linejoin="round" stroke-miterlimit="10" x1="348.5" y1="130" x2="364.5" y2="130"/>
	
		<line fill="none" stroke="#ECECEC" stroke-width="12" stroke-linecap="round" stroke-linejoin="round" stroke-miterlimit="10" x1="360.5" y1="154" x2="360.5" y2="154"/>
	
		<line fill="none" stroke="#F79520" stroke-width="4" stroke-linecap="round" stroke-linejoin="round" stroke-miterlimit="10" x1="300.5" y1="150" x2="308.5" y2="150"/>
	
		<line fill="none" stroke="#F79520" stroke-width="4" stroke-linecap="round" stroke-linejoin="round" stroke-miterlimit="10" x1="316.5" y1="150" x2="324.5" y2="150"/>
	
		<line fill="none" stroke="#F79520" stroke-width="4" stroke-linecap="round" stroke-linejoin="round" stroke-miterlimit="10" x1="332.5" y1="150" x2="340.5" y2="150"/>
	
		<line fill="none" stroke="#F79520" stroke-width="4" stroke-linecap="round" stroke-linejoin="round" stroke-miterlimit="10" x1="328.5" y1="156" x2="336.5" y2="156"/>
	
		<line fill="none" stroke="#F79520" stroke-width="4" stroke-linecap="round" stroke-linejoin="round" stroke-miterlimit="10" x1="312.5" y1="156" x2="320.5" y2="156"/>
	
		<line fill="none" stroke="#F79520" stroke-width="4" stroke-linecap="round" stroke-linejoin="round" stroke-miterlimit="10" x1="300.5" y1="158" x2="304.5" y2="158"/>
	
		<line fill="none" stroke="#839151" stroke-width="8" stroke-linecap="round" stroke-linejoin="round" stroke-miterlimit="10" x1="302.5" y1="170" x2="310.5" y2="170"/>
	
		<line fill="none" stroke="#839151" stroke-width="8" stroke-linecap="round" stroke-linejoin="round" stroke-miterlimit="10" x1="322.5" y1="170" x2="328.5" y2="170"/>
	
		<line fill="none" stroke="#839151" stroke-width="8" stroke-linecap="round" stroke-linejoin="round" stroke-miterlimit="10" x1="340.5" y1="170" x2="346.5" y2="170"/>
	
		<line fill="none" stroke="#839151" stroke-width="8" stroke-linecap="round" stroke-linejoin="round" stroke-miterlimit="10" x1="358.5" y1="170" x2="362.5" y2="170"/>
	
		<line fill="none" stroke="#ECECEC" stroke-width="12" stroke-linecap="round" stroke-linejoin="round" stroke-miterlimit="10" x1="360.5" y1="183" x2="360.5" y2="183"/>
	
		<line fill="none" stroke="#F79520" stroke-width="4" stroke-linecap="round" stroke-linejoin="round" stroke-miterlimit="10" x1="300.5" y1="179" x2="308.5" y2="179"/>
	
		<line fill="none" stroke="#F79520" stroke-width="4" stroke-linecap="round" stroke-linejoin="round" stroke-miterlimit="10" x1="316.5" y1="179" x2="324.5" y2="179"/>
	
		<line fill="none" stroke="#F79520" stroke-width="4" stroke-linecap="round" stroke-linejoin="round" stroke-miterlimit="10" x1="332.5" y1="179" x2="340.5" y2="179"/>
	
		<line fill="none" stroke="#F79520" stroke-width="4" stroke-linecap="round" stroke-linejoin="round" stroke-miterlimit="10" x1="328.5" y1="185" x2="336.5" y2="185"/>
	
		<line fill="none" stroke="#F79520" stroke-width="4" stroke-linecap="round" stroke-linejoin="round" stroke-miterlimit="10" x1="312.5" y1="185" x2="320.5" y2="185"/>
	
		<line fill="none" stroke="#F79520" stroke-width="4" stroke-linecap="round" stroke-linejoin="round" stroke-miterlimit="10" x1="318.5" y1="192" x2="332.5" y2="192"/>
	
		<line fill="none" stroke="#F79520" stroke-width="4" stroke-linecap="round" stroke-linejoin="round" stroke-miterlimit="10" x1="340.5" y1="192" x2="346.5" y2="192"/>
	
		<line fill="none" stroke="#F79520" stroke-width="4" stroke-linecap="round" stroke-linejoin="round" stroke-miterlimit="10" x1="300.5" y1="185" x2="304.5" y2="185"/>
	
		<line fill="none" stroke="#F79520" stroke-width="4" stroke-linecap="round" stroke-linejoin="round" stroke-miterlimit="10" x1="300.5" y1="192" x2="310.5" y2="192"/>
	
		<line fill="none" stroke="#839151" stroke-width="8" stroke-linecap="round" stroke-linejoin="round" stroke-miterlimit="10" x1="302.5" y1="204" x2="310.5" y2="204"/>
	
		<line fill="none" stroke="#839151" stroke-width="8" stroke-linecap="round" stroke-linejoin="round" stroke-miterlimit="10" x1="322.5" y1="204" x2="330.5" y2="204"/>
	
		<line fill="none" stroke="#839151" stroke-width="8" stroke-linecap="round" stroke-linejoin="round" stroke-miterlimit="10" x1="342.5" y1="204" x2="350.5" y2="204"/>
	
		<line fill="none" stroke="#ECECEC" stroke-width="12" stroke-linecap="round" stroke-linejoin="round" stroke-miterlimit="10" x1="360.5" y1="217" x2="360.5" y2="217"/>
	
		<line fill="none" stroke="#F79520" stroke-width="4" stroke-linecap="round" stroke-linejoin="round" stroke-miterlimit="10" x1="300.5" y1="213" x2="308.5" y2="213"/>
	
		<line fill="none" stroke="#F79520" stroke-width="4" stroke-linecap="round" stroke-linejoin="round" stroke-miterlimit="10" x1="316.5" y1="213" x2="324.5" y2="213"/>
	
		<line fill="none" stroke="#F79520" stroke-width="4" stroke-linecap="round" stroke-linejoin="round" stroke-miterlimit="10" x1="332.5" y1="213" x2="340.5" y2="213"/>
	
		<line fill="none" stroke="#F79520" stroke-width="4" stroke-linecap="round" stroke-linejoin="round" stroke-miterlimit="10" x1="328.5" y1="219" x2="336.5" y2="219"/>
	
		<line fill="none" stroke="#F79520" stroke-width="4" stroke-linecap="round" stroke-linejoin="round" stroke-miterlimit="10" x1="312.5" y1="219" x2="320.5" y2="219"/>
	
		<line fill="none" stroke="#F79520" stroke-width="4" stroke-linecap="round" stroke-linejoin="round" stroke-miterlimit="10" x1="300.5" y1="219" x2="304.5" y2="219"/>
</g>
<g>
	
		<circle fill="#710814" stroke="#231F20" stroke-width="4" stroke-linecap="round" stroke-linejoin="round" stroke-miterlimit="10" cx="27.5" cy="133" r="17"/>
	
		<ellipse fill="#ECECEC" stroke="#231F20" stroke-width="4" stroke-linecap="round" stroke-linejoin="round" stroke-miterlimit="10" cx="27.5" cy="133" rx="7" ry="17"/>
	
		<line fill="#ECECEC" stroke="#231F20" stroke-width="4" stroke-linecap="round" stroke-linejoin="round" stroke-miterlimit="10" x1="27.5" y1="116" x2="27.5" y2="106"/>
</g>
<g>
	
		<circle fill="#710814" stroke="#231F20" stroke-width="4" stroke-linecap="round" stroke-linejoin="round" stroke-miterlimit="10" cx="295.5" cy="133" r="17"/>
	
		<ellipse fill="#ECECEC" stroke="#231F20" stroke-width="4" stroke-linecap="round" stroke-linejoin="round" stroke-miterlimit="10" cx="295.5" cy="133" rx="7" ry="17"/>
	
		<line fill="#ECECEC" stroke="#231F20" stroke-width="4" stroke-linecap="round" stroke-linejoin="round" stroke-miterlimit="10" x1="295.5" y1="116" x2="295.5" y2="106"/>
</g>
<g>
	<g>
		
			<path fill="#CE3746" stroke="#231F20" stroke-width="4" stroke-linecap="round" stroke-linejoin="round" stroke-miterlimit="10" d="
			M156.5,194v12c0,2.209-1.791,4-4,4l0,0c-2.209,0-4-1.791-4-4v-12h4H156.5z"/>
	</g>
	
		<path fill="#CE3746" stroke="#231F20" stroke-width="4" stroke-linecap="round" stroke-linejoin="round" stroke-miterlimit="10" d="
		M152.5,194"/>
</g>
<g>
	<g>
		
			<path fill="#FCEE22" stroke="#231F20" stroke-width="4" stroke-linecap="round" stroke-linejoin="round" stroke-miterlimit="10" d="
			M172.5,194v12c0,2.209-1.791,4-4,4l0,0c-2.209,0-4-1.791-4-4v-12h4H172.5z"/>
	</g>
	
		<path fill="#FCEE22" stroke="#231F20" stroke-width="4" stroke-linecap="round" stroke-linejoin="round" stroke-miterlimit="10" d="
		M168.5,194"/>
</g>
<g>
	<g>
		
			<path fill="#8E9A36" stroke="#231F20" stroke-width="4" stroke-linecap="round" stroke-linejoin="round" stroke-miterlimit="10" d="
			M188.5,194v12c0,2.209-1.791,4-4,4l0,0c-2.209,0-4-1.791-4-4v-12h4H188.5z"/>
	</g>
	
		<path fill="#8E9A36" stroke="#231F20" stroke-width="4" stroke-linecap="round" stroke-linejoin="round" stroke-miterlimit="10" d="
		M184.5,194"/>
</g>
<g>
	<g>
		<g>
			
				<path fill="#EEEEEE" stroke="#231F20" stroke-width="4" stroke-linecap="round" stroke-linejoin="round" stroke-miterlimit="10" d="
				M140.5,188v20c0,2.209-1.791,4-4,4h-2c-2.209,0-4-1.791-4-4v-20h6H140.5z"/>
		</g>
	</g>
	
		<rect x="130.5" y="196" fill="#40346E" stroke="#231F20" stroke-width="4" stroke-linecap="round" stroke-linejoin="round" stroke-miterlimit="10" width="10" height="8"/>
	
		<rect x="132.5" y="182" fill="#40346E" stroke="#231F20" stroke-width="4" stroke-linecap="round" stroke-linejoin="round" stroke-miterlimit="10" width="6" height="6"/>
</g>
<polygon fill="#6C7071" stroke="#231F20" stroke-width="4" stroke-linecap="round" stroke-linejoin="round" stroke-miterlimit="10" points="
	216.5,210 212.5,190 236.5,190 232.5,210 "/>
<polygon fill="#937855" stroke="#231F20" stroke-width="4" stroke-linecap="round" stroke-linejoin="round" stroke-miterlimit="10" points="
	247.5,212 243.5,200 272.5,200 268.5,212 "/>
<path fill="#ECECEC" stroke="#231F20" stroke-width="4" stroke-linecap="round" stroke-linejoin="round" stroke-miterlimit="10" d="
	M267.5,192L267.5,192c0,0-1.791,0-4,0h-12c-2.209,0,0,0-4,0l0,0v8h20V192z"/>
<path fill="#ECECEC" stroke="#231F20" stroke-width="4" stroke-linecap="round" stroke-linejoin="round" stroke-miterlimit="10" d="
	M267.5,184L267.5,184c0,0-1.791,0-4,0h-12c-2.209,0,0,0-4,0l0,0v8h20V184z"/>
<g>
	
		<rect x="50.5" y="204" fill="#ECECEC" stroke="#231F20" stroke-width="4" stroke-linecap="round" stroke-linejoin="round" stroke-miterlimit="10" width="24" height="6"/>
</g>
<g>
	
		<line fill="none" stroke="#F79520" stroke-width="4" stroke-linecap="round" stroke-linejoin="round" stroke-miterlimit="10" x1="86.5" y1="198" x2="102.5" y2="198"/>
	
		<polygon fill="#ECECEC" stroke="#231F20" stroke-width="4" stroke-linecap="round" stroke-linejoin="round" stroke-miterlimit="10" points="
		102.5,210 86.5,210 82.5,202 106.5,202 	"/>
</g>
<line fill="none" stroke="#CD8D06" stroke-width="4" stroke-linecap="round" stroke-linejoin="round" stroke-miterlimit="10" x1="54.5" y1="192" x2="70.5" y2="192"/>
<line fill="none" stroke="#4D4012" stroke-width="4" stroke-linecap="round" stroke-linejoin="round" stroke-miterlimit="10" x1="57.7" y1="196" x2="67.3" y2="196"/>
<line fill="none" stroke="#CD8D06" stroke-width="4" stroke-linecap="round" stroke-linejoin="round" stroke-miterlimit="10" x1="54.5" y1="200" x2="70.5" y2="200"/>
<polygon fill="#F79520" stroke="#231F20" stroke-width="4" stroke-linecap="round" stroke-linejoin="round" stroke-miterlimit="10" points="
	-53.5,328.5 -43.5,328.5 -45.5,316.5 -53.5,316.5 "/>
</svg>
