<svg xmlns="http://www.w3.org/2000/svg" width="752" height="400" viewBox="0 0 752 400"><path fill="#444646" stroke="#231F20" stroke-width="4" stroke-linecap="round" stroke-linejoin="round" stroke-miterlimit="10" d="M141.747 350l111.998 10 16.002-70H141.745l.002 60zm430-2l111.998 8 16.002-70H571.745l.002 62z"/><path fill="none" stroke="#B9529F" stroke-width="4" stroke-linecap="round" stroke-linejoin="round" stroke-miterlimit="10" d="M471.745 170"/><path fill="#6B3359" stroke="#231F20" stroke-width="4" stroke-linecap="round" stroke-linejoin="round" stroke-miterlimit="10" d="M433.745 58h-402c-2.21 0-4 1.79-4 4-2.21 0-4 1.79-4 4v16c-2.21 0-4 1.79-4 4-2.21 0-4 1.79-4 4l-14 226h8l6 28 140 8c0-26.51 21.49-48 48-48s48 21.49 48 48c0 .037-.003.074-.003.11l.003 7.89 222-4v-6h112c0-26.51 21.49-48 48-48s48 21.49 48 48v8l44-24 20-24-8-38s-6-10-12-10c0 0-50-22-72-26l-10-6-44-80s1-7-2-10l-10-12-14-26-62-20-60-8-18-16z"/><g class="wheel"><circle fill="#5E6363" stroke="#231F20" stroke-width="4" stroke-miterlimit="10" cx="203.745" cy="354" r="44"/><circle fill="#6F7B87" cx="203.745" cy="354" r="24"/><circle fill="#454C55" cx="203.745" cy="354" r="8"/><path fill="#111" d="M225.065 357.072c-1.913-1.105-4.358-.45-5.464 1.463l-4 6.928c-1.102 1.914-.45 4.36 1.465 5.465 1.913 1.104 4.36.45 5.464-1.465l4-6.928c1.104-1.912.45-4.36-1.465-5.463zm-34.642-20c-1.912-1.105-4.36-.45-5.463 1.463l-4 6.928c-1.104 1.914-.45 4.36 1.463 5.467 1.914 1.104 4.36.447 5.465-1.467l4-6.928c1.105-1.912.45-4.36-1.465-5.463zm26.642 0c-1.913 1.104-2.567 3.55-1.464 5.464l4 6.928c1.107 1.913 3.55 2.57 5.467 1.466 1.913-1.104 2.57-3.554 1.464-5.467l-4-6.928c-1.103-1.913-3.55-2.568-5.462-1.465l-.003.002zm-34.64 20c-1.914 1.104-2.57 3.55-1.465 5.464l4 6.928c1.104 1.913 3.55 2.57 5.465 1.466 1.912-1.104 2.568-3.554 1.463-5.467l-4-6.928c-1.104-1.913-3.55-2.568-5.463-1.465v.002zM195.745 334c0 2.21 1.79 4 4 4h8c2.21 0 4-1.79 4-4s-1.79-4-4-4h-8c-2.21 0-4 1.79-4 4zm0 40c0 2.21 1.79 4 4 4h8c2.21 0 4-1.79 4-4s-1.79-4-4-4h-8c-2.21 0-4 1.79-4 4z"/><circle fill="none" stroke="#231F20" stroke-width="4" stroke-miterlimit="10" cx="203.745" cy="354" r="24"/><path fill="#252526" d="M194.36 346.098c1.053.344 1.63 1.473 1.285 2.52-.34 1.054-1.47 1.628-2.52 1.285-1.048-.34-1.625-1.47-1.284-2.52.345-1.05 1.47-1.624 2.52-1.285zm-2.235 12.726c.653-.895 1.904-1.094 2.796-.443.894.65 1.09 1.9.44 2.797-.643.896-1.9 1.093-2.79.442-.892-.647-1.09-1.9-.445-2.796zm20 2.352c-.646-.896-.45-2.148.443-2.795.894-.644 2.145-.444 2.795.446.65.892.45 2.146-.443 2.793-.893.65-2.144.446-2.794-.44v-.004zm2.237-11.272c-1.053.34-2.182-.235-2.52-1.284-.34-1.05.234-2.18 1.285-2.52 1.05-.347 2.182.23 2.518 1.282.343 1.05-.234 2.18-1.283 2.52v.002zM205.747 342c-.004 1.104-.898 2.002-2 2-1.104-.002-1.998-.896-2-2-.004-1.105.896-2.004 2-2 1.104 0 1.998.896 2 2zm0 24c-.004 1.104-.898 2.002-2 2-1.104-.002-1.998-.896-2-2-.004-1.105.896-2.004 2-2 1.104 0 1.998.896 2 2zm0-12c-.004 1.104-.898 2.002-2 2-1.105-.002-2-.896-2-2-.004-1.105.895-2.004 2-2 1.102 0 1.996.896 2 2z"/></g><path fill="#ECECEC" stroke="#231F20" stroke-width="4" stroke-miterlimit="10" d="M277.743 48c2.21 0 4 1.79 4 4l.002 6h-95.998v-6c-.002-2.21 1.79-4 3.998-4h87.998zm-71.998-14h56v14h-56V34zm-18 0V24s14-8 38-8h16c24 0 38 8 38 8v10h-92z"/><path fill="#6B3359" stroke="#231F20" stroke-width="4" stroke-linecap="round" stroke-linejoin="round" stroke-miterlimit="10" d="M23.745 82h394l34-8"/><path fill="#ECECEC" stroke="#231F20" stroke-width="4" stroke-linecap="round" stroke-linejoin="round" stroke-miterlimit="10" d="M203.745 304c25.875 0 46.957 20.37 47.952 46l.08 10 145.634-6h32.336v-84h-412v46h-8l6 28 140.203 3.674C158.137 323.19 178.694 304 203.744 304z"/><path fill="#710814" stroke="#231F20" stroke-width="4" stroke-linecap="round" stroke-linejoin="round" stroke-miterlimit="10" d="M249.307 336.824c1.38 4.167 2.212 8.584 2.39 13.176l.02 2.236L429.745 326v-26l-180.438 36.824zM349.745 270L235.29 315.78c4.162 3.624 7.684 7.958 10.393 12.81L429.745 276v-6h-80zm-119.897 41.686L267.745 270h-26l-20.368 37.34c2.982 1.174 5.817 2.63 8.47 4.346zM203.745 304c.887 0 1.766.03 2.64.076L217.745 270h-28l6.904 34.525c2.314-.343 4.682-.525 7.095-.525zm-21.41 5.037L163.745 270h-32l43.438 43.438c2.242-1.667 4.633-3.14 7.152-4.4zm-10.414 7.05L79.747 270h-52l137.432 53.445c1.988-2.68 4.25-5.145 6.743-7.358zm-12.156 16.7L17.744 304v12h-8l2 12 145.927 10.55c.578-1.978 1.28-3.9 2.094-5.763z"/><path fill="#839151" stroke="#231F20" stroke-width="4" stroke-linecap="round" stroke-linejoin="round" stroke-miterlimit="10" d="M643.745 230l-44-80s.45-3.186-.174-6.18c-15.026-8.734-30.544-13.82-45.824-13.82-75.11 0-136 60.89-136 136 0 34.7 13.004 66.36 34.395 90.39l21.606-.39v-6h112c0-26.51 21.49-48 48-48s48 21.49 48 48v8l26.697-14.562c.85-4.752 1.303-9.88 1.303-15.438 0-24.124-8.354-53.175-22.17-81.502-12.452-4.654-25.264-8.94-33.83-10.498l-10-6z"/><path fill="#ECECEC" stroke="#231F20" stroke-width="4" stroke-linecap="round" stroke-linejoin="round" stroke-miterlimit="10" d="M643.745 230l-34.764-63.206C591.747 148 572.177 144 553.747 144c-67.38 0-122 54.62-122 122 0 35.654 15.298 67.734 39.686 90.042l2.315-.042v-6h112c0-26.51 21.49-48 48-48s48 21.49 48 48v8l9.554-5.21c2.876-6.868 4.446-15.042 4.446-24.79 0-25.36-10.574-57.698-27.354-88.167-5.514-1.728-10.56-3.09-14.645-3.833l-10-6h-.002z"/><path fill="#454646" stroke="#231F20" stroke-width="4" stroke-linecap="round" stroke-linejoin="round" stroke-miterlimit="10" d="M681.745 358l-2.24-.188c.724.122 1.47.188 2.24.188zm60-49.97h-20l-26.807-.03h-37.192l.02.45c14.334 8.304 23.98 23.795 23.98 41.55v8l6-2s54 2 54-20c4.418 0 8-3.582 8-8v-11.97c0-4.42-3.583-8-8-8z"/><path fill="none" stroke="#ECECEC" stroke-width="24" stroke-linecap="round" stroke-linejoin="round" stroke-miterlimit="10" d="M273.745 100h64"/><path fill="#B2B2B2" stroke="#231F20" stroke-width="4" stroke-linecap="round" stroke-linejoin="round" stroke-miterlimit="10" d="M429.745 276h28v78h-28v-78z"/><path fill="none" stroke="#ECECEC" stroke-width="24" stroke-linecap="round" stroke-linejoin="round" stroke-miterlimit="10" d="M369.745 100h36"/><path fill="#839151" d="M48.87 198.375c.84-.733 1.38-1.8 1.38-3 0-2.21-1.79-4-4-4-.756 0-1.456.223-2.06.587.028-.193.06-.386.06-.587 0-2.21-1.79-4-4-4s-4 1.79-4 4c0 .2.03.394.06.587-.604-.364-1.304-.587-2.06-.587-2.21 0-4 1.79-4 4 0 1.2.54 2.267 1.38 3"/><path fill="#ECECEC" d="M31.63 198.375c-.84.733-1.38 1.8-1.38 3 0 2.21 1.79 4 4 4 .756 0 1.456-.223 2.06-.587-.028.192-.06.386-.06.587 0 2.21 1.79 4 4 4s4-1.79 4-4c0-.2-.03-.395-.06-.587.604.364 1.304.587 2.06.587 2.21 0 4-1.79 4-4 0-1.2-.54-2.267-1.38-3"/><circle fill="#6B3359" cx="40.25" cy="198.375" r="2.375"/><path fill="#839151" d="M37.97 155.096c1.11.074 2.25-.297 3.098-1.146 1.562-1.562 1.562-4.095 0-5.656-.534-.535-1.188-.873-1.87-1.04.156-.118.313-.232.456-.374 1.56-1.562 1.56-4.096 0-5.657-1.56-1.56-4.096-1.562-5.658 0-.142.143-.256.3-.373.456-.17-.687-.507-1.34-1.042-1.87-1.56-1.565-4.093-1.565-5.654 0-.85.846-1.22 1.982-1.146 3.094"/><path fill="#ECECEC" d="M25.78 142.904c-1.11-.074-2.248.297-3.098 1.146-1.562 1.562-1.562 4.094 0 5.656.534.534 1.187.872 1.87 1.04-.155.118-.313.23-.455.374-1.562 1.562-1.562 4.095 0 5.657 1.56 1.562 4.094 1.562 5.656 0 .143-.143.256-.3.373-.457.17.684.507 1.337 1.042 1.87 1.562 1.563 4.095 1.563 5.656 0 .85-.85 1.22-1.984 1.146-3.096"/><circle fill="#6B3359" cx="31.875" cy="149" r="2.375"/><path fill="#839151" d="M31.415 97.542c-1.11-.074-2.247.297-3.096 1.146-1.564 1.562-1.564 4.095 0 5.656.532.535 1.185.873 1.87 1.04-.158.118-.315.232-.458.374-1.562 1.562-1.562 4.096 0 5.657s4.095 1.562 5.657 0c.14-.143.255-.3.372-.456.17.68.506 1.333 1.04 1.87 1.563 1.56 4.096 1.56 5.657 0 .85-.85 1.22-1.988 1.145-3.1"/><path fill="#ECECEC" d="M43.608 109.733c1.11.074 2.247-.297 3.097-1.146 1.562-1.562 1.562-4.094 0-5.656-.534-.53-1.187-.87-1.87-1.04.155-.115.313-.23.455-.37 1.562-1.563 1.562-4.096 0-5.658-1.56-1.56-4.094-1.56-5.656 0-.144.144-.257.3-.374.458-.17-.684-.506-1.337-1.04-1.87-1.563-1.563-4.096-1.563-5.657 0-.85.85-1.222 1.984-1.147 3.096"/><circle fill="#6B3359" cx="37.512" cy="103.638" r="2.375"/><path fill="#839151" d="M98.832 92.266c.074-1.11-.297-2.248-1.146-3.097-1.56-1.565-4.094-1.565-5.655 0-.533.53-.87 1.184-1.04 1.87-.116-.16-.23-.316-.372-.46-1.56-1.56-4.095-1.56-5.656 0s-1.56 4.096 0 5.658c.144.14.3.255.457.372-.685.17-1.337.506-1.87 1.04-1.563 1.563-1.563 4.096 0 5.657.85.85 1.984 1.22 3.096 1.145"/><path fill="#ECECEC" d="M86.64 104.457c-.073 1.11.298 2.247 1.147 3.097 1.562 1.562 4.094 1.562 5.656 0 .534-.534.872-1.187 1.04-1.87.118.155.23.313.374.455 1.562 1.56 4.095 1.56 5.657 0 1.56-1.564 1.56-4.097-.002-5.66-.142-.142-.3-.255-.456-.372.684-.17 1.337-.507 1.87-1.04 1.563-1.564 1.563-4.097 0-5.658-.85-.85-1.984-1.22-3.096-1.146"/><circle fill="#6B3359" cx="92.736" cy="98.361" r="2.375"/><path fill="#839151" d="M29.537 181.662c.77.05 1.556-.206 2.145-.794 1.08-1.08 1.08-2.835 0-3.915-.37-.37-.822-.605-1.296-.72.11-.083.22-.162.317-.26 1.08-1.08 1.08-2.836 0-3.917s-2.835-1.08-3.916 0c-.098.1-.176.208-.258.316-.118-.474-.35-.925-.72-1.295-1.084-1.082-2.837-1.082-3.92 0-.587.588-.843 1.374-.792 2.144"/><path fill="#ECECEC" d="M21.098 173.222c-.77-.052-1.557.205-2.145.794-1.08 1.08-1.08 2.834 0 3.916.37.37.822.604 1.295.72-.107.08-.217.16-.314.26-1.083 1.08-1.083 2.834-.002 3.915 1.08 1.082 2.835 1.082 3.917 0 .096-.098.175-.208.256-.316.116.477.35.93.72 1.3 1.083 1.08 2.835 1.08 3.917 0 .588-.59.845-1.375.793-2.145"/><circle fill="#6B3359" cx="25.318" cy="177.442" r="1.644"/><path fill="#839151" d="M25.318 216.59c-.508-.58-1.245-.953-2.077-.955-1.53 0-2.77 1.24-2.77 2.77 0 .525.156 1.01.41 1.428-.136-.02-.27-.04-.41-.04-1.526 0-2.77 1.24-2.77 2.77s1.24 2.77 2.77 2.77c.14 0 .27-.02.408-.04-.252.418-.406.9-.405 1.426 0 1.53 1.238 2.77 2.77 2.77.83 0 1.567-.376 2.075-.955"/><path fill="#ECECEC" d="M25.317 228.525c.508.58 1.246.957 2.078.955 1.528.002 2.768-1.24 2.77-2.77-.002-.522-.155-1.008-.407-1.425.134.02.268.04.405.04 1.53 0 2.77-1.24 2.77-2.77s-1.24-2.77-2.77-2.77c-.138 0-.27.02-.406.04.254-.417.407-.9.407-1.427-.002-1.53-1.24-2.77-2.77-2.77-.832 0-1.57.374-2.077.954"/><circle fill="#6B3359" cx="25.317" cy="222.558" r="1.644"/><path fill="#839151" d="M212.967 256.777c-.05.77.205 1.554.793 2.144 1.08 1.085 2.835 1.085 3.916 0 .372-.37.606-.816.72-1.294.084.11.162.22.26.317 1.082 1.08 2.836 1.08 3.918 0 1.08-1.082 1.08-2.836 0-3.918-.1-.1-.207-.176-.316-.26.474-.115.924-.348 1.295-.72 1.082-1.08 1.083-2.834 0-3.916-.588-.59-1.374-.847-2.143-.796"/><path fill="#ECECEC" d="M221.408 248.337c.05-.77-.207-1.558-.795-2.146-1.08-1.08-2.834-1.08-3.916.003-.37.37-.603.82-.72 1.296-.08-.11-.16-.22-.26-.317-1.08-1.082-2.834-1.082-3.915 0-1.082 1.08-1.082 2.835 0 3.916.098.098.207.178.316.258-.475.113-.926.35-1.296.72-1.08 1.083-1.08 2.835 0 3.917.59.588 1.374.846 2.144.795"/><circle fill="#6B3359" cx="217.187" cy="252.557" r="1.645"/><path fill="#839151" d="M54.652 127.222c.05-.77-.206-1.556-.794-2.145-1.08-1.08-2.835-1.08-3.915 0-.37.37-.605.822-.72 1.296-.083-.11-.162-.218-.26-.316-1.08-1.08-2.836-1.08-3.917 0-1.08 1.08-1.08 2.835 0 3.916.1.1.21.177.317.26-.474.115-.925.35-1.295.72-1.082 1.08-1.082 2.834 0 3.916.588.585 1.374.84 2.144.79"/><path fill="#ECECEC" d="M46.212 135.66c-.052.77.205 1.558.794 2.146 1.08 1.08 2.835 1.08 3.917 0 .37-.37.604-.822.72-1.295.08.11.16.22.26.317 1.08 1.082 2.834 1.082 3.915 0 1.082-1.08 1.082-2.834 0-3.916-.098-.1-.208-.177-.316-.26.474-.114.926-.35 1.296-.72 1.08-1.08 1.08-2.833 0-3.915-.59-.588-1.374-.845-2.144-.793"/><circle fill="#6B3359" cx="50.432" cy="131.441" r="1.644"/><path fill="#839151" d="M56.215 97c-.58.508-.953 1.246-.954 2.078 0 1.528 1.24 2.77 2.77 2.768.524 0 1.01-.153 1.427-.406-.02.135-.038.27-.04.407 0 1.528 1.24 2.77 2.77 2.77s2.768-1.24 2.77-2.77c0-.14-.02-.27-.04-.407.417.254.9.408 1.424.406 1.53 0 2.77-1.238 2.77-2.768 0-.833-.373-1.568-.953-2.077"/><path fill="#ECECEC" d="M68.152 97c.58-.508.955-1.244.953-2.077.002-1.528-1.24-2.768-2.77-2.77-.522.002-1.007.155-1.422.407.018-.134.038-.268.037-.405 0-1.53-1.238-2.77-2.768-2.77-1.53 0-2.77 1.24-2.77 2.77 0 .138.022.272.04.405-.415-.252-.9-.406-1.425-.405-1.53 0-2.768 1.238-2.77 2.77.005.83.378 1.567.958 2.075"/><circle fill="#6B3359" cx="62.183" cy="97" r="1.644"/><path fill="#839151" d="M52.575 171c.32-.283.53-.692.53-1.155 0-.85-.69-1.537-1.538-1.537-.292 0-.56.085-.792.226.01-.075.02-.15.02-.226.002-.85-.688-1.54-1.537-1.54-.85 0-1.538.69-1.538 1.54 0 .076.012.15.022.226-.23-.14-.5-.226-.792-.226-.85 0-1.54.688-1.54 1.537 0 .463.21.872.532 1.154"/><path fill="#ECECEC" d="M45.943 171c-.322.28-.53.69-.53 1.153 0 .85.688 1.538 1.538 1.54.29-.002.56-.087.79-.228-.01.074-.02.148-.02.226 0 .854.69 1.54 1.54 1.54.85 0 1.54-.686 1.54-1.54 0-.074-.014-.15-.024-.223.232.14.502.227.792.227.85 0 1.54-.69 1.54-1.54 0-.46-.21-.87-.532-1.152"/><circle fill="#6B3359" cx="49.259" cy="170.999" r=".914"/><path fill="#839151" d="M48.49 224.314c.283.322.692.53 1.155.53.85 0 1.537-.69 1.537-1.538 0-.29-.085-.56-.226-.79.076.01.15.02.227.02.85 0 1.54-.69 1.54-1.538s-.69-1.538-1.54-1.538c-.076 0-.15.013-.226.022.142-.23.227-.5.227-.793 0-.852-.688-1.542-1.537-1.542-.463 0-.872.21-1.154.53"/><path fill="#ECECEC" d="M48.49 217.684c-.28-.322-.69-.53-1.153-.53-.85 0-1.538.69-1.54 1.538.002.29.087.56.228.79-.074-.01-.148-.02-.226-.02-.85 0-1.54.688-1.54 1.538s.69 1.54 1.54 1.54c.075 0 .15-.015.224-.024-.14.232-.227.502-.227.793 0 .85.69 1.538 1.54 1.538.46 0 .87-.21 1.152-.53"/><circle fill="#6B3359" cx="48.491" cy="221" r=".914"/><path fill="#839151" d="M39.22 230.9c.026-.428-.115-.864-.44-1.19-.6-.603-1.576-.6-2.177 0-.206.207-.336.457-.4.72-.046-.06-.09-.12-.145-.175-.6-.603-1.575-.603-2.176 0-.6.603-.6 1.574 0 2.175.055.055.115.1.177.146-.266.063-.516.194-.72.4-.6.602-.605 1.572-.004 2.175.327.33.765.472 1.192.44"/><path fill="#ECECEC" d="M34.53 235.59c-.03.428.112.864.44 1.192.6.6 1.574.6 2.176 0 .206-.207.336-.457.4-.72.045.06.09.12.144.174.602.6 1.575.6 2.176 0 .6-.603.602-1.574 0-2.176-.055-.055-.116-.1-.176-.145.264-.062.515-.19.72-.396.6-.605.6-1.58 0-2.182-.326-.325-.764-.47-1.19-.44"/><circle fill="#6B3359" cx="36.874" cy="233.245" r=".914"/><path fill="#839151" d="M26.835 122.656c.027-.428-.115-.865-.442-1.19-.6-.603-1.574-.6-2.174 0-.21.206-.34.456-.4.718-.05-.06-.09-.12-.147-.174-.602-.602-1.577-.602-2.178-.002-.6.602-.6 1.576 0 2.178.055.053.115.098.177.143-.264.06-.515.192-.72.4-.602.6-.603 1.57-.002 2.173.328.326.766.47 1.19.44"/><path fill="#ECECEC" d="M22.145 127.344c-.028.428.114.865.44 1.193.602.6 1.575.6 2.177 0 .205-.207.336-.457.4-.72.044.06.09.12.144.175.603.602 1.575.602 2.177 0 .6-.602.602-1.576 0-2.176-.055-.055-.116-.1-.176-.145.265-.06.516-.19.72-.395.602-.602.602-1.576 0-2.178-.326-.326-.763-.47-1.19-.44"/><circle fill="#6B3359" cx="24.49" cy="125" r=".914"/><path fill="#839151" d="M77.475 106.9c.027-.427-.115-.864-.442-1.19-.6-.602-1.574-.6-2.174 0-.21.207-.34.457-.4.72-.05-.062-.09-.122-.147-.175-.602-.602-1.577-.602-2.178-.002-.6.602-.6 1.576 0 2.178.055.056.115.1.177.146-.264.064-.515.195-.72.4-.602.602-.603 1.574-.002 2.176.328.327.766.47 1.19.44"/><path fill="#ECECEC" d="M72.785 111.59c-.03.427.113.864.44 1.192.6.6 1.574.6 2.176 0 .207-.207.338-.457.4-.72.046.06.09.12.146.175.602.602 1.574.602 2.176 0 .6-.602.603-1.576 0-2.176-.054-.052-.115-.1-.175-.142.264-.064.515-.193.72-.398.6-.603.6-1.577 0-2.18-.327-.325-.764-.47-1.19-.44"/><circle fill="#6B3359" cx="75.13" cy="109.245" r=".914"/><path fill="#839151" d="M111.277 99.1c-.028.428.114.865.44 1.19.6.603 1.575.6 2.175 0 .207-.206.337-.456.4-.718.047.06.09.12.145.174.6.602 1.576.602 2.177.002.6-.602.6-1.576-.002-2.178-.054-.053-.114-.098-.176-.143.263-.064.514-.195.72-.4.6-.602.602-1.574 0-2.176-.326-.323-.764-.466-1.19-.436"/><path fill="#ECECEC" d="M115.967 94.412c.028-.428-.114-.865-.44-1.193-.602-.6-1.575-.6-2.177 0-.205.204-.336.454-.4.72-.044-.06-.09-.12-.144-.178-.6-.602-1.573-.602-2.175 0-.6.602-.6 1.576 0 2.176.057.054.118.1.178.144-.263.064-.514.193-.72.398-.6.602-.6 1.576 0 2.178.328.327.765.47 1.192.44"/><circle fill="#6B3359" cx="113.622" cy="96.756" r=".914"/><path fill="#839151" d="M137.815 92.755c-.323.282-.53.692-.53 1.154-.002.85.688 1.534 1.536 1.534.295 0 .564-.085.795-.224-.012.075-.023.15-.022.225 0 .85.688 1.54 1.537 1.54.85 0 1.54-.69 1.54-1.54 0-.075-.014-.15-.025-.226.233.14.503.224.794.225.85 0 1.536-.688 1.54-1.538-.004-.463-.21-.873-.535-1.154"/><path fill="#ECECEC" d="M144.445 92.756c.322-.282.53-.692.53-1.155 0-.846-.688-1.535-1.538-1.536-.29 0-.56.085-.792.228.01-.074.022-.15.022-.226 0-.852-.688-1.54-1.54-1.54-.85.002-1.538.69-1.537 1.54 0 .077.012.152.022.227-.232-.14-.5-.227-.79-.227-.85 0-1.54.69-1.54 1.54 0 .462.208.87.53 1.153"/><circle fill="#6B3359" cx="141.129" cy="92.755" r=".914"/><path fill="#8F8588" stroke="#6A4856" stroke-width="4" stroke-linecap="round" stroke-linejoin="round" stroke-miterlimit="10" d="M588.838 333.04c6.854-18.14 24.37-31.04 44.907-31.04 4.328 0 8.518.582 12.507 1.656 2.553-5.893 3.977-12.39 3.99-19.22.058-26.905-21.708-48.77-48.612-48.825l-58.756-.05c-6.646-.014-12.978 1.307-18.755 3.703 0 0-10.377-15.264-42.377-3.264 0 0-14.25 10.25 2 12h13s12.19 2.054 6.658 7.59c-5.86 8.02-9.33 17.892-9.356 28.583-.028 13.635 5.55 25.967 14.56 34.83l-7.187 21.4 14.99.033 4.273-12.732c2.807 1.423 5.76 2.59 8.844 3.456l-5.64 16.79 14.988.03 5.033-14.98 44.93.04h.003z"/><path fill="none" stroke="#231F20" stroke-width="4" stroke-linecap="round" stroke-linejoin="round" stroke-miterlimit="10" d="M585.745 350c0-26.51 21.49-48 48-48s48 21.49 48 48v8"/><path fill="#8F8588" stroke="#6A4856" stroke-width="4" stroke-linecap="round" stroke-linejoin="round" stroke-miterlimit="10" d="M510.745 306l-35.924-14.373 1.875.006c-3.104-.007-5.618-2.53-5.61-5.633l.027-18.386c.008-3.105 2.53-5.617 5.634-5.61L474.87 262l36.444.046"/><path fill="none" stroke="#6A4856" stroke-width="4" stroke-linecap="round" stroke-miterlimit="10" d="M648.242 267.967c.007-4.138 3.37-7.486 7.51-7.48 4.143.015 7.487 3.378 7.48 7.516m0-.003c.008-4.14 3.37-7.486 7.514-7.48"/><circle fill="#231F20" cx="510.769" cy="271.021" r="2.977"/><path fill="#8F8588" stroke="#6A4856" stroke-width="4" stroke-linecap="round" stroke-linejoin="round" stroke-miterlimit="10" d="M478.745 292c2-2 12-8 16-2s18 4 18 4"/><path fill="#6A4856" d="M472.08 263.167h7.666V290h-7.666v-26.833z"/><g stroke="#231F20" stroke-width="4" stroke-linecap="round" stroke-linejoin="round" stroke-miterlimit="10"><path fill="#C1BFB5" d="M339.745 125.575l12-19.575h-270l12 19.575h246z"/><path fill="#FFF6E3" d="M81.745 98h270v8h-270v-8z"/><path fill="#444646" d="M93.745 126h246v96h-246v-96z"/><path fill="#C1BFB5" d="M93.745 214h246v8h-246v-8z"/></g><path fill="none" stroke="#231F20" stroke-width="4" stroke-linecap="round" stroke-linejoin="round" stroke-miterlimit="10" d="M501.745 350V164c0-2.21 1.79-4 4-4h86l34 96v40s-46 8-46 54"/><path fill="#454646" stroke="#231F20" stroke-width="4" stroke-linecap="round" stroke-linejoin="round" stroke-miterlimit="10" d="M521.745 256c2.21 0 4-1.79 4-4v-4c0-2.21-1.79-4-4-4h-4v12h4z"/><path fill="none" stroke="#231F20" stroke-width="4" stroke-linecap="round" stroke-linejoin="round" stroke-miterlimit="10" d="M513.745 256c-2.21 0-4-1.79-4-4v-4c0-2.21 1.79-4 4-4h4v12h-4z"/><path fill="none" stroke="#ECECEC" stroke-width="12" stroke-linecap="round" stroke-linejoin="round" stroke-miterlimit="10" d="M235.745 252h72"/><path fill="none" stroke="#ECECEC" stroke-width="24" stroke-linecap="round" stroke-linejoin="round" stroke-miterlimit="10" d="M83.745 252h32"/><path fill="#4C81B7" d="M345.925 245.424c-2.232 1.31-2.347 4.994.437 5.76 2.94.81 5.17-3.058 3.02-5.207-.917-.918-2.412-1.13-3.54-.47-1.377.81-1.454 2.32-1.19 3.718.23 1.22-.103 1.604-.89 2.498-.767.88-1.683 1.612-2.82 1.866-3.146.7-1.812 5.52 1.33 4.82 2.363-.53 4.178-2.13 5.707-3.944.845-1.002 1.53-2.005 1.664-3.342.112-1.134-.142-2.167-.157-3.27-.115.42-.23.84-.343 1.26.04-.06.08-.124.12-.19l-1.494 1.15.296-.054-1.926-.252-.567-.52c-.114-.424-.23-.844-.34-1.266 0 .1.002.195.004.295.113-.42.228-.84.34-1.26l.52-.432c.42-.113.84-.23 1.26-.343-.107.008-.218.016-.326.02l1.263.343.59.572c.114.42.23.84.34 1.262l-.77 1.294c2.78-1.63.264-5.95-2.525-4.317v.007h-.003zm-.82 1.576c-.306.002-.608.008-.912 0-.286-.023-.247-.014.117.027-.563-.092.43.28-.054 0 .524.576.654.685.394.324-.33-.48-.078-.618-.004.374-.037-.496-.065-.996-.215-1.475-.403-1.3-1.727-2.118-3.073-1.748-1.28.354-2.15 1.774-1.745 3.076.206.657.006-.49.035.144.026.59.11 1.096.385 1.62.39.747.886 1.388 1.562 1.897 1 .75 2.316.767 3.513.76 1.362-.01 2.5-1.13 2.5-2.5 0-1.355-1.14-2.51-2.5-2.5h-.002zm-.417 2.5c-.75.025-1.56.184-2.188.24-.58.052-.148.06.11.168-.234-.145-.233-.13.003.047-.112-.1-.22-.2-.326-.307-.976-.95-2.563-.974-3.535 0-.955.953-.975 2.584 0 3.535.707.69 1.534 1.3 2.533 1.465 1.19.193 2.317-.11 3.402-.148 1.362-.047 2.5-1.102 2.5-2.5 0-1.327-1.137-2.547-2.5-2.5zm-12.943 4.5c0 2.21-1.79 4-4 4h-4c-2.21 0-4-1.79-4-4v-4c0-2.21 1.79-4 4-4h4c2.21 0 4 1.79 4 4v4z"/><path fill="#4CABC2" stroke="#231F20" stroke-width="4" stroke-linecap="round" stroke-linejoin="round" stroke-miterlimit="10" d="M609.745 238v2c0 2.21-3.79 4-6 4h-24l-20-2-46-10c-2.21 0-4-1.79-4-4v-56c0-2.21 1.79-4 4-4h70c2.21 0 4 1.79 4 4l18 48 4 18z"/><path opacity=".2" fill="#fff" enable-background="new" d="M541.745 168l-32 32v-16l16-16h16zm8 0l-38 40h-4l38-40h4zm54 40l-32 36h-4l34-38 2 2zm-4-6l-36 42-36-8 58-66 14 32z"/><path fill="none" stroke="#231F20" stroke-width="4" stroke-linecap="round" stroke-linejoin="round" stroke-miterlimit="10" d="M609.745 238v2c0 2.21-3.79 4-6 4h-24l-20-2-46-10c-2.21 0-4-1.79-4-4v-56c0-2.21 1.79-4 4-4h70c2.21 0 4 1.79 4 4l18 48 4 18z"/><path fill="#4CABC2" stroke="#231F20" stroke-width="4" stroke-linecap="round" stroke-linejoin="round" stroke-miterlimit="10" d="M579.745 168v74"/><path fill="#454646" stroke="#231F20" stroke-width="4" stroke-linecap="round" stroke-linejoin="round" stroke-miterlimit="10" d="M607.745 246l-4 10h22l-6-18-12 8z"/><path fill="#F79520" stroke="#231F20" stroke-width="4" stroke-linecap="round" stroke-linejoin="round" stroke-miterlimit="10" d="M725.745 292h16l-4-19h-14l2 19z"/><path fill="#454646" stroke="#231F20" stroke-width="4" stroke-linecap="round" stroke-linejoin="round" stroke-miterlimit="10" d="M603.745 246.128l3.755 1.38c4.146 1.52 8.745-.605 10.268-4.752l4.483-13.11c1.525-4.145-.602-8.743-4.75-10.267l-3.754-1.38-10 28.128z"/><path fill="#F79520" stroke="#231F20" stroke-width="4" stroke-linecap="round" stroke-linejoin="round" stroke-miterlimit="10" d="M445.745 81h14v7h-14v-7z"/><path fill="#ECECEC" stroke="#231F20" stroke-width="4" stroke-linecap="round" stroke-linejoin="round" stroke-miterlimit="10" d="M235.745 82c0 2.21-1.79 4-4 4h-24c-2.21 0-4-1.79-4-4V70c0-2.21 1.79-4 4-4h24c2.21 0 4 1.79 4 4v12z"/><path fill="#937855" d="M231.745 72c-.004 1.104-.898 2.002-2 2-1.104-.002-1.998-.896-2-2-.004-1.105.896-2.004 2-2 1.104 0 1.998.896 2 2zm-10 0c-.004 1.104-.898 2.002-2 2-1.104-.002-1.998-.896-2-2-.004-1.105.896-2.004 2-2 1.104 0 1.998.896 2 2zm-10 0c-.004 1.104-.898 2.002-2 2-1.104-.002-1.998-.896-2-2-.004-1.105.896-2.004 2-2 1.104 0 1.998.896 2 2zm20 8c-.004 1.104-.898 2.002-2 2-1.104-.002-1.998-.896-2-2-.004-1.105.896-2.004 2-2 1.104 0 1.998.896 2 2zm-10 0c-.004 1.104-.898 2.002-2 2-1.104-.002-1.998-.896-2-2-.004-1.105.896-2.004 2-2 1.104 0 1.998.896 2 2zm-10 0c-.004 1.104-.898 2.002-2 2-1.104-.002-1.998-.896-2-2-.004-1.105.896-2.004 2-2 1.104 0 1.998.896 2 2z"/><circle fill="#ECECEC" stroke="#231F20" stroke-width="4" stroke-linecap="round" stroke-linejoin="round" stroke-miterlimit="10" cx="443.745" cy="292" r="8"/><circle fill="#B2B2B2" stroke="#231F20" stroke-width="4" stroke-linecap="round" stroke-linejoin="round" stroke-miterlimit="10" cx="443.745" cy="292" r="2"/><g stroke-linecap="round" stroke-linejoin="round" stroke-miterlimit="10"><path fill="#454545" stroke="#231F20" stroke-width="4" d="M427.745 126.363c0-2.41-1.79-4.363-4-4.363h-72c-2.21 0-4 1.954-4 4.363V226c0 2.41 1.79 4.363 4 4.363h72c2.21 0 4-1.954 4-4.363v-99.637z"/><path fill="none" stroke="#839151" stroke-width="8" d="M357.745 141h14m12 0h6m12 0h16"/><path fill="none" stroke="#ECECEC" stroke-width="4" d="M355.745 130h12m8 0h6m8 0h6m8 0h16"/><path fill="none" stroke="#ECECEC" stroke-width="12" d="M415.745 154"/><path fill="none" stroke="#F79520" stroke-width="4" d="M355.745 150h8m8 0h8m8 0h8m-12 6h8m-24 0h8m-20 2h4"/><path fill="none" stroke="#839151" stroke-width="8" d="M357.745 170h8m12 0h6m12 0h6m12 0h4"/><path fill="none" stroke="#ECECEC" stroke-width="12" d="M415.745 183"/><path fill="none" stroke="#F79520" stroke-width="4" d="M355.745 179h8m8 0h8m8 0h8m-12 6h8m-24 0h8m-2 7h14m8 0h6m-46-7h4m-4 7h10"/><path fill="none" stroke="#839151" stroke-width="8" d="M357.745 204h8m12 0h8m12 0h8"/><path fill="none" stroke="#ECECEC" stroke-width="12" d="M415.745 217"/><path fill="none" stroke="#F79520" stroke-width="4" d="M355.745 213h8m8 0h8m8 0h8m-12 6h8m-24 0h8m-20 0h4"/></g><g stroke="#231F20" stroke-width="4" stroke-linecap="round" stroke-linejoin="round" stroke-miterlimit="10"><circle fill="#710814" cx="82.745" cy="133" r="17"/><ellipse fill="#ECECEC" cx="82.745" cy="133" rx="7" ry="17"/><path fill="#ECECEC" d="M82.745 116v-10"/></g><g stroke="#231F20" stroke-width="4" stroke-linecap="round" stroke-linejoin="round" stroke-miterlimit="10"><circle fill="#710814" cx="350.745" cy="133" r="17"/><ellipse fill="#ECECEC" cx="350.745" cy="133" rx="7" ry="17"/><path fill="#ECECEC" d="M350.745 116v-10"/></g><path fill="#CE3746" stroke="#231F20" stroke-width="4" stroke-linecap="round" stroke-linejoin="round" stroke-miterlimit="10" d="M211.745 194v12c0 2.21-1.79 4-4 4s-4-1.79-4-4v-12h8z"/><path fill="#FCEE22" stroke="#231F20" stroke-width="4" stroke-linecap="round" stroke-linejoin="round" stroke-miterlimit="10" d="M227.745 194v12c0 2.21-1.79 4-4 4s-4-1.79-4-4v-12h8z"/><path fill="#8E9A36" stroke="#231F20" stroke-width="4" stroke-linecap="round" stroke-linejoin="round" stroke-miterlimit="10" d="M243.745 194v12c0 2.21-1.79 4-4 4s-4-1.79-4-4v-12h8z"/><path fill="#eee" stroke="#231F20" stroke-width="4" stroke-linecap="round" stroke-linejoin="round" stroke-miterlimit="10" d="M195.745 188v20c0 2.21-1.79 4-4 4h-2c-2.21 0-4-1.79-4-4v-20h10z"/><path fill="#40346E" stroke="#231F20" stroke-width="4" stroke-linecap="round" stroke-linejoin="round" stroke-miterlimit="10" d="M185.745 196h10v8h-10v-8zm2-14h6v6h-6v-6z"/><path fill="#6C7071" stroke="#231F20" stroke-width="4" stroke-linecap="round" stroke-linejoin="round" stroke-miterlimit="10" d="M271.745 210l-4-20h24l-4 20h-16z"/><path fill="#937855" stroke="#231F20" stroke-width="4" stroke-linecap="round" stroke-linejoin="round" stroke-miterlimit="10" d="M302.745 212l-4-12h29l-4 12h-21z"/><path fill="#ECECEC" stroke="#231F20" stroke-width="4" stroke-linecap="round" stroke-linejoin="round" stroke-miterlimit="10" d="M322.745 192h-20v8h20v-8zm0-8h-20v8h20v-8zm-217 20h24v6h-24v-6z"/><g stroke-width="4" stroke-linecap="round" stroke-linejoin="round" stroke-miterlimit="10"><path fill="none" stroke="#F79520" d="M141.745 198h16"/><path fill="#ECECEC" stroke="#231F20" d="M157.745 210h-16l-4-8h24l-4 8z"/></g><path fill="none" stroke="#CD8D06" stroke-width="4" stroke-linecap="round" stroke-linejoin="round" stroke-miterlimit="10" d="M109.745 192h16"/><path fill="none" stroke="#4D4012" stroke-width="4" stroke-linecap="round" stroke-linejoin="round" stroke-miterlimit="10" d="M112.945 196h9.6"/><path fill="none" stroke="#CD8D06" stroke-width="4" stroke-linecap="round" stroke-linejoin="round" stroke-miterlimit="10" d="M109.745 200h16"/><path fill="#F79520" stroke="#231F20" stroke-width="4" stroke-linecap="round" stroke-linejoin="round" stroke-miterlimit="10" d="M1.745 328.5h10l-2-12h-8v12z"/><g class="wheel"><circle fill="#5E6363" stroke="#231F20" stroke-width="4" stroke-miterlimit="10" cx="633.745" cy="354" r="44"/><circle fill="#6F7B87" cx="633.745" cy="354" r="24"/><circle fill="#454C55" cx="633.745" cy="354" r="8"/><path fill="#111" d="M655.064 357.072c-1.912-1.105-4.357-.45-5.463 1.463l-4 6.928c-1.103 1.914-.45 4.36 1.464 5.465s4.36.45 5.465-1.465l4-6.928c1.104-1.912.45-4.36-1.466-5.463h.002-.002zm-34.64-20c-1.912-1.105-4.36-.45-5.464 1.463l-4 6.928c-1.104 1.914-.45 4.36 1.463 5.467 1.914 1.104 4.36.447 5.466-1.467l4-6.928c1.103-1.912.448-4.36-1.467-5.463zm26.64 0c-1.912 1.104-2.566 3.55-1.463 5.464l4 6.928c1.106 1.913 3.55 2.57 5.466 1.466 1.914-1.104 2.57-3.554 1.465-5.467l-4-6.928c-1.103-1.913-3.55-2.568-5.462-1.465l-.002.002h-.002zm-34.64 20c-1.912 1.104-2.568 3.55-1.464 5.464l4 6.928c1.104 1.913 3.55 2.57 5.465 1.466 1.912-1.104 2.568-3.554 1.464-5.467l-4-6.928c-1.105-1.913-3.552-2.568-5.465-1.465v.002zM625.745 334c0 2.21 1.79 4 4 4h8c2.21 0 4-1.79 4-4s-1.79-4-4-4h-8c-2.21 0-4 1.79-4 4zm0 40c0 2.21 1.79 4 4 4h8c2.21 0 4-1.79 4-4s-1.79-4-4-4h-8c-2.21 0-4 1.79-4 4z"/><circle fill="none" stroke="#231F20" stroke-width="4" stroke-miterlimit="10" cx="633.745" cy="354" r="24"/><path fill="#252526" d="M624.36 346.098c1.053.344 1.63 1.473 1.284 2.52-.34 1.054-1.47 1.628-2.52 1.285-1.048-.34-1.625-1.47-1.284-2.52.345-1.05 1.47-1.624 2.52-1.285zm-2.235 12.726c.652-.895 1.904-1.094 2.796-.443.895.65 1.092 1.9.44 2.797-.644.896-1.9 1.093-2.79.442-.892-.647-1.09-1.9-.445-2.796zm20 2.352c-.646-.896-.45-2.148.443-2.795.894-.644 2.145-.444 2.795.446.65.892.45 2.146-.443 2.793-.893.65-2.145.446-2.794-.44v-.004zm2.236-11.272c-1.052.34-2.18-.235-2.52-1.284-.34-1.05.235-2.18 1.286-2.52 1.05-.347 2.182.23 2.518 1.282.344 1.05-.233 2.18-1.283 2.52v.002zM635.748 342c-.004 1.104-.897 2.002-2 2-1.104-.002-1.998-.896-2-2-.004-1.105.896-2.004 2-2 1.105 0 1.998.896 2 2zm0 24c-.004 1.104-.897 2.002-2 2-1.104-.002-1.998-.896-2-2-.004-1.105.896-2.004 2-2 1.105 0 1.998.896 2 2zm0-12c-.004 1.104-.897 2.002-2 2-1.104-.002-2-.896-2-2-.004-1.105.896-2.004 2-2 1.103 0 1.996.896 2 2z"/></g></svg>