<svg xmlns="http://www.w3.org/2000/svg" width="646" height="362" viewBox="0 0 646 362"><g><path fill="#BCE3E4" stroke="#231F20" stroke-width="4" stroke-linecap="round" stroke-linejoin="round" stroke-miterlimit="10" d="M108 112L154 2h-44L60 118V2H16v274h44v-68l18-32 32 100h52zM228 228v-70h56v-48h-56V50h56V2H184v274h114v-48zM440.058 148C453.348 133.282 462 110 462 83c0-42.157-21.074-77.148-48-81h-82v274h44V162h17.226L430 276h52l-41.942-128zm-26.275-32H384V54h24c2.94 4.673 7.783 19.71 7.783 34 0 4.716-1.22 24.088-2 28zM616 138h-.027c30 0 28-32 28-32V54c0-42-36-52-36-52h-104l.027.033V276h104s36-10 36-52v-54s2-32-28-32zm-26 40v24c0 10-14 14-14 14h-22v-64h22s14 4 14 14v12zm0-110v24c0 10-14 14-14 14h-22V42h22s14 4 14 14v12z"/><path fill="#60A3A2" stroke="#231F20" stroke-width="4" stroke-linecap="round" stroke-linejoin="round" stroke-miterlimit="10" d="M183.973 2L170 234l14 42zM15.973 2L2 234l14 42zM16 276L15.973 2"/><path fill="#60A3A2" stroke="#231F20" stroke-width="4" stroke-linecap="round" stroke-linejoin="round" stroke-miterlimit="10" d="M331.973 2L318 234l14 42zM503.973 2L490 234l14 42z"/><path fill="#B7B7B7" stroke="#231F20" stroke-width="4" stroke-linecap="round" stroke-linejoin="round" stroke-miterlimit="10" d="M295.973 194L282 318l14 42z"/><path fill="#ECEBEB" stroke="#231F20" stroke-width="4" stroke-linecap="round" stroke-linejoin="round" stroke-miterlimit="10" d="M296 194h274v166H296z"/><text transform="translate(316 338)" fill="#333" font-family="'BrandonGrotesque-Black'" font-size="61.174">CLOSED</text><text transform="translate(448 276)" fill="#333" font-family="'BrandonGrotesque-Black'" font-size="34">WE’RE</text><g fill="#AC1F23" font-family="'Shelby-Bold'" font-size="72"><text transform="matrix(.987 -.161 .161 .987 332.038 260)">Sorry</text><text transform="matrix(.987 -.161 .161 .987 356.038 288)">c</text></g></g></svg>