<svg xmlns="http://www.w3.org/2000/svg" width="646" height="362" viewBox="0 0 646 362"><path fill="#BCE3E4" stroke="#231F20" stroke-width="4" stroke-linecap="round" stroke-linejoin="round" stroke-miterlimit="10" d="M108 112L154 2h-44L60 118V2H16v274h44v-68l18-32 32 100h52l-54-164zm120 116v-70h56v-48h-56V50h56V2H184v274h114v-48h-70zm212.058-80C453.348 133.282 462 110 462 83c0-42.157-21.074-77.148-48-81h-82v274h44V162h17.226L430 276h52l-41.942-128zm-26.275-32H384V54h24c2.94 4.673 7.783 19.71 7.783 34 0 4.716-1.22 24.088-2 28zM616 138h-.027c30 0 28-32 28-32V54c0-42-36-52-36-52h-104l.027.033V276h104s36-10 36-52v-54s2-32-28-32zm-26 40v24c0 10-14 14-14 14h-22v-64h22s14 4 14 14v12zm0-110v24c0 10-14 14-14 14h-22V42h22s14 4 14 14v12z"/><path fill="#60A3A2" stroke="#231F20" stroke-width="4" stroke-linecap="round" stroke-linejoin="round" stroke-miterlimit="10" d="M183.973 2L170 234l14 42-.027-274zm-168 0L2 234l14 42-.027-274zM16 276L15.973 2"/><path fill="#60A3A2" stroke="#231F20" stroke-width="4" stroke-linecap="round" stroke-linejoin="round" stroke-miterlimit="10" d="M331.973 2L318 234l14 42-.027-274zm172 0L490 234l14 42-.027-274z"/><path fill="#B7B7B7" stroke="#231F20" stroke-width="4" stroke-linecap="round" stroke-linejoin="round" stroke-miterlimit="10" d="M295.973 194L282 318l14 42-.027-166z"/><path fill="#ECEBEB" stroke="#231F20" stroke-width="4" stroke-linecap="round" stroke-linejoin="round" stroke-miterlimit="10" d="M296 194h274v166H296V194z"/><g enable-background="new" fill="#333"><path d="M340.225 294.567c6.117 0 10.644 1.896 14.803 5.69.55.488.55 1.223.062 1.712l-4.77 4.954c-.43.428-1.103.428-1.53 0-2.264-2.02-5.262-3.12-8.26-3.12-6.912 0-11.988 5.75-11.988 12.602 0 6.79 5.138 12.418 12.05 12.418 2.876 0 5.995-1.04 8.198-2.937.428-.367 1.223-.367 1.59.062l4.77 5.076c.43.428.368 1.224-.06 1.65-4.16 4.04-9.422 5.935-14.865 5.935-12.234 0-22.083-9.725-22.083-21.96 0-12.234 9.848-22.083 22.083-22.083zM362.43 296.342c0-.612.49-1.162 1.163-1.162h7.28c.61 0 1.16.55 1.16 1.162v32.666h14.56c.674 0 1.163.55 1.163 1.162v6.668c0 .61-.49 1.162-1.162 1.162h-23c-.674 0-1.163-.55-1.163-1.162v-40.496zM412.285 294.567c12.235 0 22.022 9.85 22.022 22.083 0 12.235-9.787 21.96-22.022 21.96-12.234 0-21.96-9.725-21.96-21.96 0-12.234 9.726-22.083 21.96-22.083zm0 34.257c6.73 0 12.235-5.506 12.235-12.174 0-6.73-5.506-12.295-12.235-12.295-6.667 0-12.173 5.566-12.173 12.295 0 6.668 5.506 12.174 12.173 12.174zM439.263 332.188l2.876-5.077c.488-.794 1.65-.672 2.078-.366.245.122 4.65 3.364 8.687 3.364 2.447 0 4.222-1.53 4.222-3.67 0-2.57-2.142-4.526-6.3-6.18-5.263-2.08-11.87-6.177-11.87-13.518 0-6.057 4.712-12.174 14.132-12.174 6.36 0 11.255 3.242 13.09 4.588.734.43.612 1.53.367 1.958l-3.12 4.71c-.428.673-1.53 1.224-2.08.795-.55-.306-5.016-3.67-8.747-3.67-2.202 0-3.854 1.468-3.854 3.12 0 2.263 1.835 3.976 6.668 5.934 4.77 1.897 12.356 5.63 12.356 13.948 0 6.3-5.444 12.662-14.437 12.662-7.952 0-12.357-3.303-13.764-4.71-.613-.61-.797-.855-.307-1.712zM475.232 296.342c0-.612.49-1.162 1.162-1.162h25.325c.673 0 1.162.55 1.162 1.162v6.668c0 .61-.49 1.162-1.163 1.162h-16.945v7.585h13.947c.61 0 1.162.55 1.162 1.162v6.667c0 .673-.55 1.162-1.162 1.162h-13.947v8.258h16.944c.673 0 1.162.55 1.162 1.162v6.668c0 .61-.49 1.162-1.163 1.162h-25.326c-.673 0-1.162-.55-1.162-1.162v-40.496zM511.08 296.342c0-.612.49-1.162 1.103-1.162h14.926c11.806 0 21.47 9.604 21.47 21.35 0 11.866-9.664 21.47-21.47 21.47h-14.927c-.612 0-1.102-.55-1.102-1.16V296.34zm15.417 32.604c6.912 0 11.928-5.444 11.928-12.418 0-6.912-5.016-12.356-11.928-12.356h-5.873v24.774h5.873z"/></g><g enable-background="new" fill="#333"><path d="M448.816 253.02c-.137-.478.136-.817.61-.817h3.98c.27 0 .543.238.61.477l2.925 11.524h.137l5.27-11.967c.103-.204.306-.374.577-.374h.613c.305 0 .51.17.577.374l5.27 11.967h.136l2.924-11.524c.068-.238.34-.477.612-.477h3.978c.476 0 .748.34.61.816l-6.424 22.845c-.067.27-.34.476-.612.476h-.543c-.238 0-.477-.17-.578-.373l-6.222-13.904h-.103l-6.188 13.904c-.102.204-.34.374-.578.374h-.543c-.272 0-.545-.203-.612-.475l-6.424-22.846zM481.286 252.85c0-.34.272-.647.646-.647h14.075c.374 0 .646.307.646.646v3.704c0 .34-.27.646-.646.646h-9.417v4.215h7.75c.34 0 .647.307.647.646v3.706c0 .374-.306.646-.646.646h-7.75v4.59h9.417c.374 0 .646.306.646.646v3.706c0 .34-.27.646-.646.646h-14.075c-.373 0-.646-.306-.646-.646V252.85zM500.088 261.313c-.238-.272-.17-.578.034-.748.374-.27 2.38-1.768 2.414-4.08 0 0-.578.238-1.36.238-1.326 0-2.447-1.054-2.447-2.413 0-1.326 1.12-2.448 2.685-2.448 1.292 0 3.094.986 3.094 3.943 0 3.57-2.38 5.44-3.163 6.086-.238.17-.476.238-.748-.067l-.512-.51zM508.01 252.85c0-.34.27-.647.646-.647h10.165c4.08 0 7.412 3.298 7.412 7.344 0 3.128-2.073 5.644-5.03 6.833l4.656 8.635c.238.442 0 .986-.577.986h-4.52c-.272 0-.477-.17-.544-.305l-4.52-9.01h-2.348v8.67c0 .34-.306.646-.646.646h-4.046c-.374 0-.646-.305-.646-.645V252.85zm10.37 9.517c1.393 0 2.582-1.292 2.582-2.72s-1.19-2.584-2.583-2.584h-5.033v5.304h5.032zM530.79 252.85c0-.34.27-.647.646-.647h14.075c.375 0 .647.307.647.646v3.704c0 .34-.27.646-.646.646h-9.416v4.215h7.75c.34 0 .647.307.647.646v3.706c0 .374-.305.646-.645.646h-7.75v4.59h9.416c.375 0 .647.306.647.646v3.706c0 .34-.27.646-.646.646h-14.074c-.374 0-.646-.306-.646-.646V252.85z"/></g><g fill="#AC1F23" font-family="'Shelby-Bold'" font-size="72"><text transform="matrix(.987 -.161 .161 .987 972.038 652)">Sorry</text><text transform="matrix(.987 -.161 .161 .987 996.038 680)">c</text></g><g fill="#AC1F23"><path d="M350.656 229.545c1.853-1.615 5.152-6.894 4.887-8.528-.14-.853-.632-1.647-2.054-1.417-6.256 1.018-21.343 14.56-20.245 21.312.127.78.538 1.517 1.89 1.298 2.77-.45 5.474-1.328 8.955-1.895 3.483-.566 6.745.654 8.645 2.46 6.216-3.052 9.688-4.128 10.398-4.243.995-.162 1.443.35 1.57 1.13.07.427-.124 1.48-1.25 1.736-1.043.315-3.65.886-9.177 3.68.14.416.198.77.268 1.197 2.23 13.718-10.984 32.5-20.223 34-4.76.776-8.362-1.63-9.08-6.036-.762-4.692 2.048-11.642 10.593-20.107 4.337-4.28 8.835-7.126 12.917-9.396-1.524-.847-3.75-1.068-5.81-.732-2.7.44-5.238 1.434-8.152 1.908-2.203.358-5.288-.672-5.81-3.87-1.57-9.665 15.652-24.43 24.75-25.91 2.345-.38 5.206.613 5.645 3.313.602 3.696-5.123 11.558-6.373 13.293-.846 1.085-1.522 1.85-2.66 2.036-1.208.196-1.964-.41-2.16-1.618-.197-1.21.504-1.834 2.476-3.613zm.53 18.516c-.057-.354-.103-.638-.23-.982-3.952 2.175-8.878 5.528-12.932 9.763-7.488 7.784-9.582 13.304-9.073 16.432.43 2.63 2.4 3.987 5.102 3.548 6.537-1.065 18.856-18.17 17.135-28.76zM371.583 238.47c.08.498.56 2.1 1.27 1.982 1.777-.288 2.905-.982 4.093-1.76.594-.388 1.484-1.188 1.91-1.26.853-.138 1.408.137 1.56 1.06.138.855-.778 1.952-2.94 3.47-2.1 1.437-4.99 2.053-5.702 2.17-.953 4.457-3.26 10.45-8.307 11.27-2.133.347-4.46-.953-4.98-4.15-1.085-6.682 3.867-13.906 8.63-14.682 2.77-.45 4.27.692 4.466 1.9zm-4.417 3.344c-.07-.426-.02-1.018.055-1.468-2.82.604-5.932 6.145-5.227 10.48.173 1.065 1.082 1.72 1.792 1.604 2.63-.427 5.084-7.318 4.795-9.096-.437 0-1.287-.737-1.414-1.52zM381.514 235.397c.08.497-.234 2.153-.608 3.892 2.43-3.46 4.688-6.16 6.537-6.462 1.563-.254 2.85.484 3.14 2.262.393 2.416.16 4.57-1.9 4.905-.783.127-1.515-.338-1.653-1.19-.104-.64.243-1.645.185-2-.034-.213-.13-.344-.483-.287-.925.15-4.77 5.227-6.56 9.02-.488 1.027-1.017 2.72-1.402 4.386-.337 1.514-.757 2.97-1.183 3.038-.854.14-1.976-.48-2.138-1.477-.128-.782.394-3.857 1.103-6.672.746-3.04 1.312-5.83 1.46-7.168.27-1.94.593-3.088 1.73-3.273.922-.15 1.644.243 1.77 1.025zM396.72 232.924c.08.498-.232 2.154-.606 3.893 2.43-3.46 4.688-6.16 6.536-6.46 1.563-.256 2.852.483 3.14 2.26.394 2.417.16 4.57-1.9 4.906-.783.127-1.515-.338-1.653-1.19-.104-.64.243-1.645.186-2-.034-.213-.13-.344-.484-.287-.925.15-4.77 5.227-6.56 9.02-.49 1.027-1.017 2.72-1.4 4.386-.34 1.514-.76 2.97-1.186 3.038-.853.14-1.975-.48-2.137-1.477-.127-.782.395-3.857 1.104-6.673.747-3.04 1.314-5.83 1.462-7.167.268-1.94.593-3.088 1.73-3.273.92-.15 1.642.243 1.77 1.024zM409.93 247.774c-1.42.23-2.874-.627-3.21-2.688-.322-1.99.864-8.603 1.44-10.885.603-2.577 1.46-4.03 2.74-4.238 1.208-.196 1.963.41 2.09 1.192.104.64-.337 1.514-.97 3.003-1.063 2.435-2.048 8.503-1.943 9.143.07.427.187.7.543.642 1.705-.277 5.595-7.767 6.61-10.048.822-1.666 1.59-3.687 1.896-4.028.55-.673 1.984-1.71 2.625-1.813.64-.104 1.516-.1 1.7 1.037.21 1.278-.188 2.876-.174 5.208.054 4.367.065 10.275-.3 16.098.426-.07.91-.22 1.48-.313 5.898-.96 16.956-1.152 18.088 5.813.186 1.137-.27 2.378-1.548 2.586-2.062.335-2.242-1.678-3.066-3.15-1.21-2.063-6.877-3.258-12.704-2.31l-2.417.392c-1.138 14.995-4.954 31.008-17.036 32.973-6.682 1.086-12.23-2.097-13.283-8.563-1.85-11.372 11.964-22.444 26.754-26.6.295-5.812.545-11.908.32-15.52-1.335 2.987-5.796 11.446-9.634 12.07zm9.052 6.773c-12.87 3.843-24.428 13.527-22.972 22.482.774 4.76 3.962 6.87 9.15 6.026 9.668-1.572 12.97-16.7 13.822-28.51z"/></g><path fill="#AC1F23" d="M355.168 273.188c-.426.07-.992-.276-1.073-.773s.147-1.338.67-1.713c4.954-4.527 13.212-9.37 21.243-10.678 4.762-.773 8.727-.616 13.03.727 2.15.673 2.98 1.27 3.233 2.83.232 1.423-.813 2.177-1.808 2.338-1.494.243-2.458-1.205-4.007-1.756-3.263-1.22-7.252-1.083-12.085-.297-6.325 1.028-13.467 4.67-17.233 7.98-.83.72-1.257 1.227-1.97 1.343z"/></svg>