<svg xmlns="http://www.w3.org/2000/svg" width="78" height="44" viewBox="0 0 78 44"><path fill="#fff" d="M60 22c0-11.046-8.953-20-20-20-8.206 0-15.25 4.946-18.333 12.017C14.09 14.195 8 20.38 8 28c0 7.732 6.268 14 14 14h38c5.523 0 10-4.477 10-10s-4.477-10-10-10z"/><path fill="#202020" d="M60 44H22c-8.822 0-16-7.178-16-16 0-8.332 6.212-15.093 14.36-15.905C24.09 4.708 31.668 0 40 0c11.51 0 20.982 8.884 21.923 20.154C67.63 21.077 72 26.038 72 32c0 6.617-5.383 12-12 12zM40 4c-7.157 0-13.634 4.246-16.5 10.816-.31.713-1.008 1.18-1.786 1.2C15.146 16.17 10 21.436 10 28c0 6.617 5.383 12 12 12h38c4.41 0 8-3.59 8-8s-3.59-8-8-8c-1.104 0-2-.896-2-2 0-9.925-8.075-18-18-18z"/></svg>