<svg xmlns="http://www.w3.org/2000/svg" width="78" height="44" viewBox="0 0 78 44"><path fill="#fff" d="M67 24c-1.948-4.673-6.545-7.962-11.917-7.996C52.536 7.89 44.957 2 36 2c-7.438 0-13.914 4.07-17.36 10.094-.538-.06-1.085-.094-1.64-.094-8.286 0-15 6.714-15 15s6.714 15 15 15h50c4.97 0 9-4.03 9-9s-4.03-9-9-9z"/><path fill="#202020" d="M67 44H17C7.626 44 0 36.374 0 27s7.626-17 17-17c.19 0 .38.003.57.01C21.615 3.805 28.563 0 36 0c9.193 0 17.275 5.603 20.53 14.08 5.022.512 9.446 3.51 11.777 7.997C73.76 22.727 78 27.377 78 33c0 6.065-4.935 11-11 11zM17 14C9.83 14 4 19.832 4 27s5.83 13 13 13h50c3.86 0 7-3.14 7-7s-3.14-7-7-7c-.806 0-1.534-.485-1.845-1.23-1.703-4.082-5.66-6.737-10.085-6.766-.87-.005-1.636-.572-1.896-1.4C50.81 9.063 43.907 4 36 4c-6.432 0-12.418 3.482-15.623 9.086-.395.69-1.155 1.082-1.953.996C17.916 14.027 17.45 14 17 14z"/></svg>