<svg xmlns="http://www.w3.org/2000/svg" width="78" height="44" viewBox="0 0 78 44"><path fill="#fff" d="M53 14c-1.205 0-2.368.168-3.484.455C46.536 7.15 39.376 2 31 2c-11.046 0-20 8.954-20 20s8.954 20 20 20h22c7.732 0 14-6.268 14-14s-6.268-14-14-14z"/><path fill="#202020" d="M53 44H31C18.87 44 9 34.13 9 22S18.87 0 31 0c8.42 0 15.973 4.728 19.68 12.178C51.46 12.06 52.235 12 53 12c8.822 0 16 7.178 16 16s-7.178 16-16 16zM31 4c-9.925 0-18 8.075-18 18s8.075 18 18 18h22c6.617 0 12-5.383 12-12s-5.383-12-12-12c-.97 0-1.975.132-2.986.392-.967.25-1.973-.255-2.35-1.182C44.887 8.4 38.346 4 31 4z"/></svg>